<?xml version="1.0" encoding="UTF-8" standalone="no"?>
<svg
   xmlns:dc="http://purl.org/dc/elements/1.1/"
   xmlns:cc="http://creativecommons.org/ns#"
   xmlns:rdf="http://www.w3.org/1999/02/22-rdf-syntax-ns#"
   xmlns:svg="http://www.w3.org/2000/svg"
   xmlns="http://www.w3.org/2000/svg"
   xmlns:sodipodi="http://sodipodi.sourceforge.net/DTD/sodipodi-0.dtd"
   xmlns:inkscape="http://www.inkscape.org/namespaces/inkscape"
   width="156mm"
   height="171mm"
   viewBox="-74 -68 156 171"
   version="1.1"
   id="svg4603"
   sodipodi:docname="right-plate-shape.svg"
   inkscape:version="0.92.4 5da689c313, 2019-01-14">
  <metadata
     id="metadata4609">
    <rdf:RDF>
      <cc:Work
         rdf:about="">
        <dc:format>image/svg+xml</dc:format>
        <dc:type
           rdf:resource="http://purl.org/dc/dcmitype/StillImage" />
        <dc:title>OpenSCAD Model</dc:title>
      </cc:Work>
    </rdf:RDF>
  </metadata>
  <defs
     id="defs4607" />
  <sodipodi:namedview
     pagecolor="#ffffff"
     bordercolor="#666666"
     borderopacity="1"
     objecttolerance="10"
     gridtolerance="10"
     guidetolerance="10"
     inkscape:pageopacity="0"
     inkscape:pageshadow="2"
     inkscape:window-width="2558"
     inkscape:window-height="1415"
     id="namedview4605"
     showgrid="false"
     inkscape:zoom="1.3599486"
     inkscape:cx="387.9192"
     inkscape:cy="360.54274"
     inkscape:window-x="2560"
     inkscape:window-y="23"
     inkscape:window-maximized="1"
     inkscape:current-layer="svg4603" />
  <title
     id="title4599">OpenSCAD Model</title>
  <path
     d="m -73.466,73.4577 0.2305,2.2364 0.3353,3.2512 0.0194,0.016 3.5746,2.9356 9.7741,8.0269 0.0248,0.0203 1.7139,0.8431 3.2432,0.396 9.8567,8.7151 3.3337,2.9477 v 0 l 0.0771,0.068 1.7694,-0.008 5.5434,-0.027 7.9472,-5.0938 2.7291,-2.741 1.6823,-1.6895 0.5908,-0.8132 1.6401,-2.2574 v 0 l 0.0097,-0.0134 v 0 l -0.8653,-3.9941 -0.2456,-1.1337 4.2076,-4.673 4.8566,-5.3938 2.65397,-1.7991 6.99698,-4.7431 0.70273,0.8812 1.673936,0.8061 0.031397,0.0152 H 2.53438 l 0.0314,-0.0152 1.67393,-0.8061 1.1584,-1.4526 0.02172,-0.0272 0.00776,-0.034 L 5.84102,66.09 5.78393,65.8399 13.4337,64.2037 h 7.6963 0.0432 12.4491 l 4.429,-6.6693 2.7886,-4.1991 h 3.4017 6.5218 2.8513 18.8664 l 2.6427,-2.5526 4.3573,-4.2088 V 30.4744 -6.47438 -10.709 l 0.6517,-0.3139 1.1584,-1.4525 0.0217,-0.0273 0.0078,-0.034 0.4134,-1.8113 -0.4134,-1.8113 -0.0078,-0.034 -0.0217,-0.0273 -1.1584,-1.4525 -0.6517,-0.3139 v -4.519 -2.5845 -0.0788 -6.0279 -6.5236 -8.3878 0 -0.033 l -2.3473,-2.0328 -4.6527,-4.0293 H 53.076 51.9464 40.6623 h -0.0348 -5.55 l -3.3426,-8.1826 -1.5594,-3.8174 h -4.7542 l -0.0752,-0.3293 -0.0077,-0.034 -0.0218,-0.0272 -1.1584,-1.4526 -1.6739,-0.8061 -0.0314,-0.0152 h -1.8928 l -0.0314,0.0152 -1.6739,0.8061 -1.1584,1.4526 -0.0217,0.0272 -0.0078,0.034 -0.0751,0.3293 h -4.1581 l -3.0059,-1.8611 -1.54882,-0.9589 H -1.24711 -1.29078 -7.63834 l -1.43517,1.887 -0.70957,0.933 h -11.45262 -0.0307 -4.4687 -2.4291 -0.0234 -0.7545 -11.7906 -3.6379 l -1.5342,1.544 -4.688,4.7182 -7,7 -0.8286,3.396 -0.0028,-0.0013 h -1.8928 l -0.0314,0.0151 -1.6739,0.8061 -1.1584,1.4526 -0.0217,0.0272 -0.0078,0.034 -0.4134,1.8114 0.4134,1.8113 0.0078,0.034 0.0217,0.0272 1.1584,1.4526 1.5912,0.7663 -0.8173,3.3497 -0.2882,1.6465 -0.6025,3.4418 -0.7039,6.2153 -1.1885,10.4952 -0.1908,3.4295 -0.113,2.031 V 8.7 l 0.113,2.031 0.1908,3.4295 1.1885,10.4952 0.7039,6.2153 1.6652,3.3835 2.3115,4.6967 -0.3609,0.3029 h -1.7937 l -0.0314,0.0151 -1.6739,0.8061 -1.1584,1.4526 -0.0217,0.0272 -0.0078,0.034 -0.4134,1.8113 0.0255,0.1119 -2.6047,2.1856 -0.7552,0.9208 v 1e-4 l -0.5007,0.6105 2.9397,7.7959 0.7727,2.0489 -2.334,2.9874 v 0 l -7.3595,13.3487 -0.0025,0.0046 z"
     id="path4749" />
</svg>
