<?xml version="1.0" encoding="UTF-8" standalone="no"?>
<svg
   xmlns:dc="http://purl.org/dc/elements/1.1/"
   xmlns:cc="http://creativecommons.org/ns#"
   xmlns:rdf="http://www.w3.org/1999/02/22-rdf-syntax-ns#"
   xmlns:svg="http://www.w3.org/2000/svg"
   xmlns="http://www.w3.org/2000/svg"
   xmlns:xlink="http://www.w3.org/1999/xlink"
   xmlns:sodipodi="http://sodipodi.sourceforge.net/DTD/sodipodi-0.dtd"
   xmlns:inkscape="http://www.inkscape.org/namespaces/inkscape"
   width="156mm"
   height="171mm"
   viewBox="-74 -68 156 171"
   version="1.1"
   id="svg4603"
   sodipodi:docname="right-plate-shape.svg"
   inkscape:version="0.92.4 5da689c313, 2019-01-14">
  <metadata
     id="metadata4609">
    <rdf:RDF>
      <cc:Work
         rdf:about="">
        <dc:format>image/svg+xml</dc:format>
        <dc:type
           rdf:resource="http://purl.org/dc/dcmitype/StillImage" />
        <dc:title>OpenSCAD Model</dc:title>
      </cc:Work>
    </rdf:RDF>
  </metadata>
  <defs
     id="defs4607" />
  <sodipodi:namedview
     pagecolor="#ffffff"
     bordercolor="#666666"
     borderopacity="1"
     objecttolerance="10"
     gridtolerance="10"
     guidetolerance="10"
     inkscape:pageopacity="0"
     inkscape:pageshadow="2"
     inkscape:window-width="2558"
     inkscape:window-height="1415"
     id="namedview4605"
     showgrid="false"
     inkscape:zoom="1.3599486"
     inkscape:cx="387.9192"
     inkscape:cy="360.54274"
     inkscape:window-x="2560"
     inkscape:window-y="23"
     inkscape:window-maximized="1"
     inkscape:current-layer="svg4603" />
  <title
     id="title4599">OpenSCAD Model</title>
  <path
     d=" M -73.466,73.4577 L -73.2355,75.6941 L -72.9002,78.9453 L -72.8808,78.9613 L -69.3062,81.8969 L -59.5321,89.9238  L -59.5073,89.9441 L -57.7934,90.7872 L -54.5502,91.1832 L -44.6935,99.8983 L -41.3598,102.846 L -41.3598,102.846  L -41.2827,102.914 L -39.5133,102.906 L -33.9699,102.879 L -26.0227,97.7852 L -23.2936,95.0442 L -21.6113,93.3547  L -21.0205,92.5415 L -19.3804,90.2841 L -19.3804,90.2841 L -19.3707,90.2707 L -19.3707,90.2707 L -20.236,86.2766  L -20.4816,85.1429 L -16.274,80.4699 L -11.4174,75.0761 L -8.76343,73.277 L -1.76645,68.5339 L -1.06372,69.4151  L 0.610216,70.2212 L 0.641613,70.2364 L 2.53438,70.2364 L 2.56578,70.2212 L 4.23971,69.4151 L 5.39811,67.9625  L 5.41983,67.9353 L 5.42759,67.9013 L 5.84102,66.09 L 5.78393,65.8399 L 13.4337,64.2037 L 21.13,64.2037  L 21.1732,64.2037 L 33.6223,64.2037 L 38.0513,57.5344 L 40.8399,53.3353 L 44.2416,53.3353 L 50.7634,53.3353  L 53.6147,53.3353 L 72.4811,53.3353 L 75.1238,50.7827 L 79.4811,46.5739 L 79.4811,30.4744 L 79.4811,-6.47438  L 79.4811,-10.709 L 80.1328,-11.0229 L 81.2912,-12.4754 L 81.3129,-12.5027 L 81.3207,-12.5367 L 81.7341,-14.348  L 81.3207,-16.1593 L 81.3129,-16.1933 L 81.2912,-16.2206 L 80.1328,-17.6731 L 79.4811,-17.987 L 79.4811,-22.506  L 79.4811,-25.0905 L 79.4811,-25.1693 L 79.4811,-31.1972 L 79.4811,-37.7208 L 79.4811,-46.1086 L 79.4811,-46.1086  L 79.4811,-46.1416 L 77.1338,-48.1744 L 72.4811,-52.2037 L 53.076,-52.2037 L 51.9464,-52.2037 L 40.6623,-52.2037  L 40.6275,-52.2037 L 35.0775,-52.2037 L 31.7349,-60.3863 L 30.1755,-64.2037 L 25.4213,-64.2037 L 25.3461,-64.533  L 25.3384,-64.567 L 25.3166,-64.5942 L 24.1582,-66.0468 L 22.4843,-66.8529 L 22.4529,-66.8681 L 20.5601,-66.8681  L 20.5287,-66.8529 L 18.8548,-66.0468 L 17.6964,-64.5942 L 17.6747,-64.567 L 17.6669,-64.533 L 17.5918,-64.2037  L 13.4337,-64.2037 L 10.4278,-66.0648 L 8.87898,-67.0237 L -1.24711,-67.0237 L -1.29078,-67.0237 L -7.63834,-67.0237  L -9.07351,-65.1367 L -9.78308,-64.2037 L -21.2357,-64.2037 L -21.2664,-64.2037 L -25.7351,-64.2037 L -28.1642,-64.2037  L -28.1876,-64.2037 L -28.9421,-64.2037 L -40.7327,-64.2037 L -44.3706,-64.2037 L -45.9048,-62.6597 L -50.5928,-57.9415  L -57.5928,-50.9415 L -58.4214,-47.5455 L -58.4242,-47.5468 L -60.317,-47.5468 L -60.3484,-47.5317 L -62.0223,-46.7256  L -63.1807,-45.273 L -63.2024,-45.2458 L -63.2102,-45.2118 L -63.6236,-43.4004 L -63.2102,-41.5891 L -63.2024,-41.5551  L -63.1807,-41.5279 L -62.0223,-40.0753 L -60.4311,-39.309 L -61.2484,-35.9593 L -61.5366,-34.3128 L -62.1391,-30.871  L -62.843,-24.6557 L -64.0315,-14.1605 L -64.2223,-10.731 L -64.3353,-8.7 L -64.3353,8.7 L -64.2223,10.731  L -64.0315,14.1605 L -62.843,24.6557 L -62.1391,30.871 L -60.4739,34.2545 L -58.1624,38.9512 L -58.5233,39.2541  L -60.317,39.2541 L -60.3484,39.2692 L -62.0223,40.0753 L -63.1807,41.5279 L -63.2024,41.5551 L -63.2102,41.5891  L -63.6236,43.4004 L -63.5981,43.5123 L -66.2028,45.6979 L -66.958,46.6187 L -66.958,46.6188 L -67.4587,47.2293  L -64.519,55.0252 L -63.7463,57.0741 L -66.0803,60.0615 L -66.0803,60.0615 L -73.4398,73.4102 L -73.4423,73.4148  z M -71.0391,75.1989 L -60.7843,57.1482 L -60.6767,56.9588 L -60.7022,56.8634 L -63.6252,49.7778 L -64.5565,47.5204  L -62.6585,45.9278 L -62.0223,46.7256 L -60.3484,47.5317 L -60.317,47.5468 L -58.4242,47.5468 L -58.3928,47.5317  L -56.7189,46.7256 L -55.5605,45.273 L -55.5388,45.2458 L -55.531,45.2118 L -55.1176,43.4004 L -55.531,41.5891  L -55.5388,41.5551 L -55.5605,41.5279 L -56.3039,40.5956 L -56.1532,40.4692 L -56.1532,40.4692 L -56.115,40.4371  L -55.55,39.7482 L -54.8591,38.9057 L -54.8591,38.9057 L -56.3661,36.539 L -60.0391,30.771 L -60.4268,27.348  L -52.1538,27.348 L -52.1538,-25.348 L -60.6532,-25.348 L -60.0391,-30.771 L -59.7935,-32.1741 L -59.1484,-35.8593  L -58.3181,-39.2624 L -58.3062,-39.3109 L -56.7189,-40.0753 L -55.5605,-41.5279 L -55.5388,-41.5551 L -55.531,-41.5891  L -55.1176,-43.4004 L -55.531,-45.2118 L -55.5388,-45.2458 L -55.5605,-45.273 L -56.549,-46.5126 L -55.4928,-50.8416  L -50.4928,-55.8416 L -45.044,-59.5463 L -43.4427,-60.6351 L -31.0425,-60.6351 L -28.0559,-60.6351 L -25.6931,-60.6351  L -25.0054,-60.6351 L -12.7337,-60.6351 L -9.03665,-60.6351 L -9.01154,-60.6351 L -7.55938,-62.7006 L -7.029,-63.4551  L 4.24975,-63.4551 L 9.29514,-63.4551 L 12.1003,-61.6507 L 13.6793,-60.6351 L 17.8671,-60.6351 L 18.8548,-59.3965  L 20.5287,-58.5904 L 20.5601,-58.5753 L 22.4529,-58.5753 L 22.4843,-58.5904 L 24.1582,-59.3965 L 25.1459,-60.6351  L 25.1493,-60.6351 L 25.1778,-60.6351 L 30.421,-60.6351 L 33.4873,-52.8551 L 35.1505,-48.6351 L 47.0851,-48.6351  L 52.1543,-48.6351 L 54.4178,-48.6351 L 55.4811,-48.6351 L 72.3811,-48.6351 L 74.087,-47.1577 L 77.3811,-44.3049  L 77.3811,-34.5123 L 77.3811,-29.4509 L 77.3811,-25.3733 L 77.3811,-21.6069 L 77.3811,-18.4944 L 76.5347,-18.4944  L 76.5033,-18.4793 L 74.8294,-17.6731 L 73.671,-16.2206 L 73.6492,-16.1933 L 73.6415,-16.1593 L 73.2281,-14.348  L 73.6415,-12.5367 L 73.6492,-12.5027 L 73.671,-12.4754 L 74.8294,-11.0229 L 76.5033,-10.2167 L 76.5347,-10.2016  L 77.3811,-10.2016 L 77.3811,-6.47434 L 77.3246,-5.81947 L 76.9427,2.88259 L 76.9222,3.35 L 76.9222,20.65  L 76.9427,21.1174 L 77.3246,29.8195 L 77.3811,30.4743 L 77.3811,38.4007 L 77.3811,38.4418 L 77.3811,45.5714  L 74.7321,48.1301 L 72.3811,50.401 L 55.4811,50.401 L 53.1049,50.401 L 50.9969,50.401 L 42.7547,50.401  L 34.0142,50.401 L 33.8429,50.9276 L 33.7195,51.3069 L 33.7462,52.4504 L 33.7659,53.2932 L 33.7669,53.3353  L 33.7669,53.3353 L 33.8231,53.3353 L 37.2427,53.3353 L 35.9229,55.5451 L 32.883,60.6351 L 26.8542,60.6351  L 26.8262,60.6351 L 13.6793,60.6351 L 9.64433,61.7638 L 4.57286,63.1826 L 4.23971,62.7648 L 2.56578,61.9587  L 2.53438,61.9436 L 0.641613,61.9436 L 0.610216,61.9587 L -1.06372,62.7648 L -2.22211,64.2174 L -2.24384,64.2447  L -2.25159,64.2786 L -2.66502,66.09 L -2.54919,66.5975 L -5.02208,68.23 L -5.02242,68.2302 L -12.521,73.1805  L -13.382,73.8377 L -13.3821,73.8378 L -14.0953,74.3822 L -14.0953,74.3822 L -14.1286,74.4191 L -14.1286,74.4191  L -14.1508,74.4438 L -20.2506,81.2184 L -20.2508,81.2186 L -23.5813,84.9175 L -22.9994,88.245 L -22.7253,89.8124  L -24.9188,92.8315 L -36.7807,100.69 L -39.2461,100.723 L -51.5466,89.9617 L -51.9786,89.6479 L -52.5837,89.2082  L -52.5837,89.2082 L -52.6679,89.147 L -52.9261,88.9903 L -57.6381,87.5849 L -57.6381,87.5849 L -70.8907,76.7304  L -70.8907,76.7304 z M -62.2353,8.59999 L -62.2353,-8.59999 L -62.0337,-12.2224 L -61.9314,-14.0605 L -61.3809,-18.9222 L -61.1538,-20.9277  L -61.1538,20.9277 L -61.3809,18.9222 L -61.9314,14.0605 L -62.0337,12.2224 z M -61.0706,43.4004 L -60.2206,41.9282 L -58.5206,41.9282 L -57.6706,43.4004 L -58.5206,44.8727 L -60.2206,44.8727  z M -61.0706,-43.4004 L -60.2206,-44.8727 L -58.5206,-44.8727 L -57.6706,-43.4004 L -58.5206,-41.9282 L -60.2206,-41.9282  z M -0.112002,66.09 L 0.737998,64.6177 L 2.438,64.6177 L 3.288,66.09 L 2.438,67.5622 L 0.737998,67.5622  z M 19.8065,-62.7217 L 20.6565,-64.1939 L 22.3565,-64.1939 L 23.2065,-62.7217 L 22.3565,-61.2494 L 20.6565,-61.2494  z M 75.7811,-14.348 L 76.6311,-15.8202 L 78.3311,-15.8202 L 79.1811,-14.348 L 78.3311,-12.8758 L 76.6311,-12.8758  z "
     stroke="black"
     fill="lightgray"
     stroke-width="0.5"
     id="path4601" />
  <path
     inkscape:connector-curvature="0"
     style="fill:#d3d3d3;stroke:#000000;stroke-width:0.5"
     d="m 122.33201,63.959133 0.2305,2.236401 0.3353,3.2512 0.0194,0.01601 3.5746,2.9356 9.7741,8.0269 0.0248,0.02029 1.7139,0.8431 3.2432,0.396002 9.8567,8.7151 3.3337,2.947696 v 0 l 0.0771,0.068 1.7694,-0.008 5.5434,-0.027 7.9472,-5.093806 2.7291,-2.741001 1.6823,-1.689499 0.5908,-0.8132 1.6401,-2.257401 v 0 l 0.01,-0.01339 v 0 l -0.8653,-3.9941 -0.2456,-1.1337 4.2076,-4.673002 4.8566,-5.393798 2.65397,-1.799101 6.99698,-4.7431 0.70273,0.8812 1.67393,0.806101 0.0314,0.01521 h 1.89278 l 0.0314,-0.01521 1.67393,-0.806101 1.1584,-1.4526 0.0217,-0.0272 0.008,-0.034 0.41343,-1.811301 -0.0571,-0.250097 7.64977,-1.636202 h 7.6963 0.0432 12.4491 l 4.429,-6.669299 2.7886,-4.199102 h 3.4017 6.5218 2.8513 18.8664 l 2.6427,-2.552599 4.3573,-4.208799 v -16.099503 -36.948779 -4.234622 l 0.6517,-0.313899 1.1584,-1.452499 0.0217,-0.0273 0.008,-0.034 0.4134,-1.811301 -0.4134,-1.811298 -0.008,-0.034 -0.0217,-0.0273 -1.1584,-1.452499 -0.6517,-0.313902 v -4.518998 -2.5845 -0.0788 -6.027899 -6.523601 -8.3878 0 -0.033 l -2.3473,-2.032803 -4.6527,-4.0293 h -19.4051 -1.1296 -11.2841 -0.0348 -5.55 l -3.34261,-8.1826 -1.5594,-3.8174 h -4.7542 l -0.0752,-0.3293 -0.008,-0.034 -0.0218,-0.0272 -1.1584,-1.4526 -1.6739,-0.8061 -0.0314,-0.0152 h -1.8928 l -0.0314,0.0152 -1.6739,0.8061 -1.1584,1.4526 -0.0217,0.0272 -0.008,0.034 -0.0751,0.3293 h -4.15809 l -3.0059,-1.8611 -1.54882,-0.9589 h -10.12609 -0.0437 -6.34756 l -1.43517,1.887 -0.70957,0.933 h -11.45262 -0.0307 -4.4687 -2.4291 -0.0234 -0.7545 -11.7906 -3.6379 l -1.5342,1.544 -4.688,4.7182 -7,7 -0.8286,3.396 -0.003,-0.0013 h -1.8928 l -0.0314,0.0151 -1.6739,0.8061 -1.1584,1.4526 -0.0217,0.0272 -0.008,0.034 -0.4134,1.8114 0.4134,1.8113 0.008,0.034 0.0217,0.0272 1.1584,1.452599 1.5912,0.766302 -0.8173,3.349699 -0.2882,1.646499 -0.6025,3.441801 -0.7039,6.215301 -1.1885,10.4952 -0.1908,3.4295 -0.113,2.031 v 17.4 l 0.113,2.031 0.1908,3.4295 1.1885,10.495198 0.7039,6.2153 1.6652,3.3835 2.3115,4.696701 -0.3609,0.3029 h -1.7937 l -0.0314,0.01511 -1.6739,0.806101 -1.1584,1.452599 -0.0217,0.0272 -0.008,0.034 -0.4134,1.8113 0.0255,0.111898 -2.6047,2.185601 -0.7552,0.9208 v 1.01e-4 l -0.5007,0.610499 2.9397,7.795901 0.7727,2.048899 -2.334,2.987399 v 0 l -7.3595,13.3487 -0.002,0.0046 z m 2.4269,1.741199 10.2548,-18.050698 0.1076,-0.189402 -0.0255,-0.0954 -2.923,-7.085603 -0.9313,-2.257398 1.898,-1.592601 0.6362,0.7978 1.6739,0.806101 0.0314,0.01511 h 1.8928 l 0.0314,-0.01511 1.6739,-0.806101 1.1584,-1.452599 0.0217,-0.0272 0.008,-0.034 0.4134,-1.811398 -0.4134,-1.811301 -0.008,-0.034 -0.0217,-0.0272 -0.7434,-0.932299 0.1507,-0.126402 v 0 l 0.0382,-0.0321 0.565,-0.688901 0.6909,-0.842499 v 0 l -1.507,-2.366701 -3.673,-5.767998 -0.3877,-3.423 h 8.273 v -52.696 h -8.4994 l 0.6141,-5.423 0.2456,-1.403099 0.6451,-3.685201 0.8303,-3.4031 0.0119,-0.0485 1.5873,-0.7644 1.1584,-1.452599 0.0217,-0.0272 0.008,-0.034 0.4134,-1.8113 -0.4134,-1.8114 -0.008,-0.034 -0.0217,-0.0272 -0.9885,-1.2396 1.0562,-4.329 5,-5 5.4488,-3.7047 1.60129,-1.0888 h 12.40021 2.9866 2.3628 0.6877 12.2717 3.69705 0.0251 l 1.45216,-2.0655 0.53038,-0.7545 h 11.27875 5.04539 l 2.80516,1.8044 1.579,1.0156 h 4.1878 l 0.9877,1.2386 1.6739,0.8061 0.0314,0.0151 h 1.8928 l 0.0314,-0.0151 1.6739,-0.8061 0.9877,-1.2386 h 0.003 0.0285 5.2432 l 3.0663,7.78 1.6632,4.22 h 11.9346 5.0692 2.2635 1.0633 16.9 l 1.7059,1.4774 3.2941,2.8528 v 9.792601 5.0614 4.0776 3.766399 3.1125 h -0.8464 l -0.0314,0.01511 -1.6739,0.806201 -1.1584,1.452499 -0.0218,0.0273 -0.008,0.034 -0.4134,1.811298 0.4134,1.811301 0.008,0.034 0.0218,0.0273 1.1584,1.452499 1.6739,0.806201 0.0314,0.01511 h 0.8464 v 3.727259 l -0.0565,0.654871 -0.3819,8.702058 -0.0205,0.4674103 V 11.151448 l 0.0205,0.4674 0.3819,8.702101 0.0565,0.654798 v 7.926401 0.0411 7.1296 l -2.649,2.558701 -2.351,2.2709 h -16.9 -2.3762 -2.108 -8.2422 -8.7405 l -0.1713,0.526601 -0.1234,0.379298 0.0267,1.1435 0.0197,0.842801 0.001,0.0421 v 0 h 0.0562 3.4196 l -1.3198,2.2098 -3.0399,5.090001 h -6.0288 -0.028 -13.1469 l -4.03497,1.1287 -5.07147,1.418801 -0.33315,-0.4178 -1.67393,-0.806101 -0.0314,-0.01511 h -1.89283 l -0.0314,0.01511 -1.67394,0.806101 -1.15839,1.452599 -0.0217,0.0273 -0.008,0.0339 -0.41343,1.811398 0.11583,0.507503 -2.47289,1.632497 -2.6e-4,2.02e-4 -7.49858,4.950301 -0.861,0.657198 -10e-5,1.01e-4 -0.7132,0.544399 v 0 l -0.0333,0.0369 v 0 l -0.0222,0.02469 -6.0998,6.7746 -2e-4,2.01e-4 -3.33051,3.698899 0.58191,3.327501 0.2741,1.567399 -2.1935,3.0191 -11.8619,7.8585 -2.4654,0.033 -12.3005,-10.7613 -0.432,-0.313798 -0.6051,-0.439701 v 0 l -0.0842,-0.0612 -0.2582,-0.1567 -4.712,-1.4054 v 0 L 124.90731,67.231833 v 0 z m 8.8038,-66.5989085 V -18.098557 l 0.2016,-3.62241 0.1023,-1.8381 0.5505,-4.8617 0.2271,-2.0055 v 41.855401 l -0.2271,-2.005502 -0.5505,-4.861701 -0.1023,-1.8381 z m 1.1647,34.8004105 0.85,-1.4722 h 1.7 l 0.85,1.4722 -0.85,1.472297 h -1.7 z m 0,-86.800802 0.85,-1.4723 h 1.7 l 0.85,1.4723 -0.85,1.4722 h -1.7 z m 60.95859,109.490399 0.85,-1.472297 h 1.70001 l 0.85,1.472297 -0.85,1.472203 H 196.536 Z m 19.91851,-128.811699 0.85,-1.4722 h 1.7 l 0.85,1.4722 -0.85,1.4723 h -1.7 z m 55.9746,48.373699 0.85,-1.4722 h 1.7 l 0.85,1.4722 -0.85,1.4722 h -1.7 z"
     id="path4601-3" />
  <circle
     style="fill:#ef2929;fill-opacity:1;stroke:none;stroke-width:0.76499999;stroke-linecap:round;stroke-miterlimit:4;stroke-dasharray:none;stroke-opacity:1"
     id="path4666"
     cx="21.525438"
     cy="-62.734013"
     r="1.65" />
  <use
     x="0"
     y="0"
     xlink:href="#path4666"
     id="use4668"
     transform="translate(-80.891391,106.12696)"
     width="100%"
     height="100%" />
  <use
     x="0"
     y="0"
     xlink:href="#path4666"
     id="use4670"
     transform="translate(-19.932091,128.81124)"
     width="100%"
     height="100%" />
  <use
     x="0"
     y="0"
     xlink:href="#path4666"
     id="use4672"
     transform="translate(-80.891391,19.345836)"
     width="100%"
     height="100%" />
  <use
     x="0"
     y="0"
     xlink:href="#path4666"
     id="use4674"
     transform="translate(55.956757,48.390387)"
     width="100%"
     height="100%" />
</svg>
