solid OpenSCAD_Model
  facet normal -1 0 0
    outer loop
      vertex -8.7 1.04 0
      vertex -8.7 0 0
      vertex -8.7 1.04 1.9
    endloop
  endfacet
  facet normal -1 0 0
    outer loop
      vertex -8.7 6.58 1.9
      vertex -8.7 8.7 0
      vertex -8.7 6.58 0
    endloop
  endfacet
  facet normal -1 0 0
    outer loop
      vertex -8.7 8.7 0
      vertex -8.7 6.58 1.9
      vertex -8.7 8.7 8
    endloop
  endfacet
  facet normal -1 0 0
    outer loop
      vertex -8.7 0 3
      vertex -8.7 6.58 1.9
      vertex -8.7 1.04 1.9
    endloop
  endfacet
  facet normal -1 0 0
    outer loop
      vertex -8.7 0 3
      vertex -8.7 1.04 1.9
      vertex -8.7 0 0
    endloop
  endfacet
  facet normal -1 0 0
    outer loop
      vertex -8.7 6.58 1.9
      vertex -8.7 0 3
      vertex -8.7 8.7 8
    endloop
  endfacet
  facet normal -1 0 0
    outer loop
      vertex -8.7 -8.7 8
      vertex -8.7 0 3
      vertex -8.7 -8.7 3
    endloop
  endfacet
  facet normal -1 0 0
    outer loop
      vertex -8.7 0 3
      vertex -8.7 -8.7 8
      vertex -8.7 8.7 8
    endloop
  endfacet
  facet normal 0 0 1
    outer loop
      vertex 8.7 8.7 8
      vertex 7.2 7.2 8
      vertex 8.7 -8.7 8
    endloop
  endfacet
  facet normal 0 0 1
    outer loop
      vertex 8.7 8.7 8
      vertex -7.2 7.2 8
      vertex 7.2 7.2 8
    endloop
  endfacet
  facet normal 0 0 1
    outer loop
      vertex -7.2 7.2 8
      vertex -8.7 8.7 8
      vertex -7.2 -7.2 8
    endloop
  endfacet
  facet normal -0 0 1
    outer loop
      vertex -8.7 8.7 8
      vertex -7.2 7.2 8
      vertex 8.7 8.7 8
    endloop
  endfacet
  facet normal -0 0 1
    outer loop
      vertex 7.2 -7.2 8
      vertex 8.7 -8.7 8
      vertex 7.2 7.2 8
    endloop
  endfacet
  facet normal -0 0 1
    outer loop
      vertex -7.2 -7.2 8
      vertex 8.7 -8.7 8
      vertex 7.2 -7.2 8
    endloop
  endfacet
  facet normal 0 0 1
    outer loop
      vertex -7.2 -7.2 8
      vertex -8.7 -8.7 8
      vertex 8.7 -8.7 8
    endloop
  endfacet
  facet normal 0 0 1
    outer loop
      vertex -8.7 -8.7 8
      vertex -7.2 -7.2 8
      vertex -8.7 8.7 8
    endloop
  endfacet
  facet normal 1 0 0
    outer loop
      vertex 8.7 8.7 8
      vertex 8.7 6.58 1.9
      vertex 8.7 8.7 1.5
    endloop
  endfacet
  facet normal 1 -0 0
    outer loop
      vertex 8.7 0 3
      vertex 8.7 6.58 1.9
      vertex 8.7 8.7 8
    endloop
  endfacet
  facet normal 1 0 0
    outer loop
      vertex 8.7 0 1.5
      vertex 8.7 1.04 1.9
      vertex 8.7 0 3
    endloop
  endfacet
  facet normal 1 0 0
    outer loop
      vertex 8.7 6.58 1.9
      vertex 8.7 0 3
      vertex 8.7 1.04 1.9
    endloop
  endfacet
  facet normal 1 -0 0
    outer loop
      vertex 8.7 -8.7 8
      vertex 8.7 0 3
      vertex 8.7 8.7 8
    endloop
  endfacet
  facet normal 1 0 0
    outer loop
      vertex 8.7 0 3
      vertex 8.7 -8.7 8
      vertex 8.7 -8.7 3
    endloop
  endfacet
  facet normal 1 0 0
    outer loop
      vertex 8.7 8.7 1.5
      vertex 8.7 6.58 1.9
      vertex 8.7 6.58 1.5
    endloop
  endfacet
  facet normal 1 0 0
    outer loop
      vertex 8.7 1.04 1.9
      vertex 8.7 0 1.5
      vertex 8.7 1.04 1.5
    endloop
  endfacet
  facet normal 0 1 0
    outer loop
      vertex 7.5 8.7 1.5
      vertex 8.7 8.7 8
      vertex 8.7 8.7 1.5
    endloop
  endfacet
  facet normal 0 1 0
    outer loop
      vertex 8.7 8.7 8
      vertex 7.5 8.7 1.5
      vertex -8.7 8.7 8
    endloop
  endfacet
  facet normal 0 1 0
    outer loop
      vertex -8.7 8.7 0
      vertex 7.5 8.7 1.5
      vertex 7.5 8.7 0
    endloop
  endfacet
  facet normal 0 1 0
    outer loop
      vertex 7.5 8.7 1.5
      vertex -8.7 8.7 0
      vertex -8.7 8.7 8
    endloop
  endfacet
  facet normal 0 0 -1
    outer loop
      vertex 8.7 -8.7 3
      vertex 7.2 -7.2 3
      vertex 8.7 0 3
    endloop
  endfacet
  facet normal 0 0 -1
    outer loop
      vertex 8.7 -8.7 3
      vertex -7.2 -7.2 3
      vertex 7.2 -7.2 3
    endloop
  endfacet
  facet normal 0 0 -1
    outer loop
      vertex -8.7 -8.7 3
      vertex -7.2 -7.2 3
      vertex 8.7 -8.7 3
    endloop
  endfacet
  facet normal 0 0 -1
    outer loop
      vertex -8.7 0 3
      vertex -7.2 -7.2 3
      vertex -8.7 -8.7 3
    endloop
  endfacet
  facet normal 0 0 -1
    outer loop
      vertex -7.2 -7.2 3
      vertex -8.7 0 3
      vertex -7.2 0 3
    endloop
  endfacet
  facet normal -0 0 -1
    outer loop
      vertex 8.7 0 3
      vertex 7.2 -7.2 3
      vertex 7.2 0 3
    endloop
  endfacet
  facet normal -0 0 1
    outer loop
      vertex 5.26 2.54 3
      vertex 7.2 0 3
      vertex 7.2 7.2 3
    endloop
  endfacet
  facet normal 0 0 1
    outer loop
      vertex 7.2 0 3
      vertex 5.60104 0.60104 3
      vertex 5.85 0 3
    endloop
  endfacet
  facet normal 0 0 1
    outer loop
      vertex 7.2 0 3
      vertex 5.26 2.54 3
      vertex 5.60104 0.60104 3
    endloop
  endfacet
  facet normal 0 0 1
    outer loop
      vertex 7.2 7.2 3
      vertex 4.8353 3.5653 3
      vertex 5.26 2.54 3
    endloop
  endfacet
  facet normal 0 0 1
    outer loop
      vertex 7.2 7.2 3
      vertex 3.99 5.08 3
      vertex 4.8353 3.5653 3
    endloop
  endfacet
  facet normal 0 0 1
    outer loop
      vertex 7.2 7.2 3
      vertex 3.5653 6.1053 3
      vertex 3.99 5.08 3
    endloop
  endfacet
  facet normal 0 0 1
    outer loop
      vertex 7.2 7.2 3
      vertex 2.54 6.53 3
      vertex 3.5653 6.1053 3
    endloop
  endfacet
  facet normal 0 0 1
    outer loop
      vertex 1.51469 4.0547 3
      vertex 0 2 3
      vertex 1 1.73205 3
    endloop
  endfacet
  facet normal 0 0 1
    outer loop
      vertex 1.51469 4.0547 3
      vertex -1.51469 4.0547 3
      vertex 0 2 3
    endloop
  endfacet
  facet normal 0 0 1
    outer loop
      vertex -1.09 5.08 3
      vertex 1.09 5.08 3
      vertex 1.51469 6.1053 3
    endloop
  endfacet
  facet normal 0 0 1
    outer loop
      vertex 1.09 5.08 3
      vertex -1.09 5.08 3
      vertex -1.51469 4.0547 3
    endloop
  endfacet
  facet normal 0 0 1
    outer loop
      vertex -1.51469 6.1053 3
      vertex 1.51469 6.1053 3
      vertex 2.54 6.53 3
    endloop
  endfacet
  facet normal 0 0 1
    outer loop
      vertex 1.51469 6.1053 3
      vertex -1.51469 6.1053 3
      vertex -1.09 5.08 3
    endloop
  endfacet
  facet normal 0 0 1
    outer loop
      vertex -2.54 6.53 3
      vertex 2.54 6.53 3
      vertex 7.2 7.2 3
    endloop
  endfacet
  facet normal 0 0 1
    outer loop
      vertex 2.54 6.53 3
      vertex -2.54 6.53 3
      vertex -1.51469 6.1053 3
    endloop
  endfacet
  facet normal 0 0 1
    outer loop
      vertex -7.2 7.2 3
      vertex -3.99 5.08 3
      vertex -3.5653 6.1053 3
    endloop
  endfacet
  facet normal 0 0 1
    outer loop
      vertex -7.2 0 3
      vertex -5.60104 0.60104 3
      vertex -5.26 2.54 3
    endloop
  endfacet
  facet normal -0 0 1
    outer loop
      vertex -7.2 7.2 3
      vertex -2.54 6.53 3
      vertex 7.2 7.2 3
    endloop
  endfacet
  facet normal 0 0 1
    outer loop
      vertex -7.2 7.2 3
      vertex -3.5653 6.1053 3
      vertex -2.54 6.53 3
    endloop
  endfacet
  facet normal 0 0 1
    outer loop
      vertex -3.99 5.08 3
      vertex -7.2 7.2 3
      vertex -4.8353 3.5653 3
    endloop
  endfacet
  facet normal 0 0 1
    outer loop
      vertex -7.2 7.2 3
      vertex -5.26 2.54 3
      vertex -4.8353 3.5653 3
    endloop
  endfacet
  facet normal 0 0 1
    outer loop
      vertex -7.2 0 3
      vertex -5.26 2.54 3
      vertex -7.2 7.2 3
    endloop
  endfacet
  facet normal 0 0 1
    outer loop
      vertex -5.60104 0.60104 3
      vertex -7.2 0 3
      vertex -5.85 0 3
    endloop
  endfacet
  facet normal -0 0 1
    outer loop
      vertex 4.8353 1.51469 3
      vertex 5.60104 0.60104 3
      vertex 5.26 2.54 3
    endloop
  endfacet
  facet normal 0 0 1
    outer loop
      vertex 5.60104 0.60104 3
      vertex 4.8353 1.51469 3
      vertex 5 0.849999 3
    endloop
  endfacet
  facet normal 0 0 1
    outer loop
      vertex 4.8353 1.51469 3
      vertex 4.39896 0.60104 3
      vertex 5 0.849999 3
    endloop
  endfacet
  facet normal -0 0 1
    outer loop
      vertex 3.81 1.09 3
      vertex 4.39896 0.60104 3
      vertex 4.8353 1.51469 3
    endloop
  endfacet
  facet normal 0 0 1
    outer loop
      vertex 3.81 1.09 3
      vertex 4.15 0 3
      vertex 4.39896 0.60104 3
    endloop
  endfacet
  facet normal 0 0 1
    outer loop
      vertex 2 0 3
      vertex 3.81 1.09 3
      vertex 2.78469 1.51469 3
    endloop
  endfacet
  facet normal 0 0 1
    outer loop
      vertex 3.81 1.09 3
      vertex 2 0 3
      vertex 4.15 0 3
    endloop
  endfacet
  facet normal 0 0 1
    outer loop
      vertex 1.73205 1 3
      vertex 2.78469 1.51469 3
      vertex 2.36 2.54 3
    endloop
  endfacet
  facet normal 0 0 1
    outer loop
      vertex 3.99 5.08 3
      vertex 3.81 3.99 3
      vertex 4.8353 3.5653 3
    endloop
  endfacet
  facet normal -0 0 1
    outer loop
      vertex 3.5653 4.0547 3
      vertex 3.81 3.99 3
      vertex 3.99 5.08 3
    endloop
  endfacet
  facet normal 0 0 1
    outer loop
      vertex 3.5653 4.0547 3
      vertex 2.78469 3.5653 3
      vertex 3.81 3.99 3
    endloop
  endfacet
  facet normal -0 0 1
    outer loop
      vertex 2.54 3.63 3
      vertex 2.78469 3.5653 3
      vertex 3.5653 4.0547 3
    endloop
  endfacet
  facet normal 0 0 1
    outer loop
      vertex 2.54 3.63 3
      vertex 2.36 2.54 3
      vertex 2.78469 3.5653 3
    endloop
  endfacet
  facet normal 0 0 1
    outer loop
      vertex 2.78469 1.51469 3
      vertex 1.73205 1 3
      vertex 2 0 3
    endloop
  endfacet
  facet normal 0 0 1
    outer loop
      vertex 1.51469 4.0547 3
      vertex 2.36 2.54 3
      vertex 2.54 3.63 3
    endloop
  endfacet
  facet normal 0 0 1
    outer loop
      vertex 2.36 2.54 3
      vertex 1.51469 4.0547 3
      vertex 1 1.73205 3
    endloop
  endfacet
  facet normal 0 0 1
    outer loop
      vertex -1.51469 4.0547 3
      vertex 1.51469 4.0547 3
      vertex 1.09 5.08 3
    endloop
  endfacet
  facet normal 0 0 1
    outer loop
      vertex 2.36 2.54 3
      vertex 1 1.73205 3
      vertex 1.73205 1 3
    endloop
  endfacet
  facet normal 0 0 1
    outer loop
      vertex 0 2 3
      vertex -1.51469 4.0547 3
      vertex -1 1.73205 3
    endloop
  endfacet
  facet normal -0 0 1
    outer loop
      vertex -2.36 2.54 3
      vertex -1 1.73205 3
      vertex -1.51469 4.0547 3
    endloop
  endfacet
  facet normal 0 0 1
    outer loop
      vertex -1 1.73205 3
      vertex -2.36 2.54 3
      vertex -1.73205 1 3
    endloop
  endfacet
  facet normal -0 0 1
    outer loop
      vertex -2.78469 1.51469 3
      vertex -1.73205 1 3
      vertex -2.36 2.54 3
    endloop
  endfacet
  facet normal -0 0 1
    outer loop
      vertex -2.54 3.63 3
      vertex -2.36 2.54 3
      vertex -1.51469 4.0547 3
    endloop
  endfacet
  facet normal 0 0 1
    outer loop
      vertex -2.54 3.63 3
      vertex -2.78469 3.5653 3
      vertex -2.36 2.54 3
    endloop
  endfacet
  facet normal 0 0 1
    outer loop
      vertex -3.5653 4.0547 3
      vertex -2.78469 3.5653 3
      vertex -2.54 3.63 3
    endloop
  endfacet
  facet normal 0 0 1
    outer loop
      vertex -3.5653 4.0547 3
      vertex -3.81 3.99 3
      vertex -2.78469 3.5653 3
    endloop
  endfacet
  facet normal 0 0 1
    outer loop
      vertex -3.99 5.08 3
      vertex -3.81 3.99 3
      vertex -3.5653 4.0547 3
    endloop
  endfacet
  facet normal 0 0 1
    outer loop
      vertex -3.81 3.99 3
      vertex -3.99 5.08 3
      vertex -4.8353 3.5653 3
    endloop
  endfacet
  facet normal 0 0 1
    outer loop
      vertex -1.73205 1 3
      vertex -2.78469 1.51469 3
      vertex -2 0 3
    endloop
  endfacet
  facet normal -0 0 1
    outer loop
      vertex -3.81 1.09 3
      vertex -2 0 3
      vertex -2.78469 1.51469 3
    endloop
  endfacet
  facet normal 0 0 1
    outer loop
      vertex -3.81 1.09 3
      vertex -4.15 0 3
      vertex -2 0 3
    endloop
  endfacet
  facet normal 0 0 1
    outer loop
      vertex -3.81 1.09 3
      vertex -4.39896 0.60104 3
      vertex -4.15 0 3
    endloop
  endfacet
  facet normal 0 0 1
    outer loop
      vertex -4.8353 1.51469 3
      vertex -4.39896 0.60104 3
      vertex -3.81 1.09 3
    endloop
  endfacet
  facet normal 0 0 1
    outer loop
      vertex -4.8353 1.51469 3
      vertex -5 0.849999 3
      vertex -4.39896 0.60104 3
    endloop
  endfacet
  facet normal 0 0 1
    outer loop
      vertex -5.60104 0.60104 3
      vertex -4.8353 1.51469 3
      vertex -5.26 2.54 3
    endloop
  endfacet
  facet normal 0 0 1
    outer loop
      vertex -4.8353 1.51469 3
      vertex -5.60104 0.60104 3
      vertex -5 0.849999 3
    endloop
  endfacet
  facet normal 0 -1 0
    outer loop
      vertex -7.2 7.2 3
      vertex 7.2 7.2 8
      vertex -7.2 7.2 8
    endloop
  endfacet
  facet normal 0 -1 -0
    outer loop
      vertex 7.2 7.2 8
      vertex -7.2 7.2 3
      vertex 7.2 7.2 3
    endloop
  endfacet
  facet normal -1 0 0
    outer loop
      vertex 7.2 0 3
      vertex 7.2 7.2 8
      vertex 7.2 7.2 3
    endloop
  endfacet
  facet normal -1 0 0
    outer loop
      vertex 7.2 -7.2 8
      vertex 7.2 0 3
      vertex 7.2 -7.2 3
    endloop
  endfacet
  facet normal -1 0 0
    outer loop
      vertex 7.2 0 3
      vertex 7.2 -7.2 8
      vertex 7.2 7.2 8
    endloop
  endfacet
  facet normal 0 -1 0
    outer loop
      vertex -8.7 -8.7 3
      vertex 8.7 -8.7 8
      vertex -8.7 -8.7 8
    endloop
  endfacet
  facet normal 0 -1 -0
    outer loop
      vertex 8.7 -8.7 8
      vertex -8.7 -8.7 3
      vertex 8.7 -8.7 3
    endloop
  endfacet
  facet normal 0 1 -0
    outer loop
      vertex 7.2 -7.2 3
      vertex -7.2 -7.2 8
      vertex 7.2 -7.2 8
    endloop
  endfacet
  facet normal 0 1 0
    outer loop
      vertex -7.2 -7.2 8
      vertex 7.2 -7.2 3
      vertex -7.2 -7.2 3
    endloop
  endfacet
  facet normal 1 0 0
    outer loop
      vertex -7.2 7.2 8
      vertex -7.2 0 3
      vertex -7.2 7.2 3
    endloop
  endfacet
  facet normal 1 -0 0
    outer loop
      vertex -7.2 -7.2 8
      vertex -7.2 0 3
      vertex -7.2 7.2 8
    endloop
  endfacet
  facet normal 1 0 0
    outer loop
      vertex -7.2 0 3
      vertex -7.2 -7.2 8
      vertex -7.2 -7.2 3
    endloop
  endfacet
  facet normal 1 -0 0
    outer loop
      vertex -8 6.58 1.8
      vertex -8 6.9 0
      vertex -8 6.9 1.8
    endloop
  endfacet
  facet normal 1 0 0
    outer loop
      vertex -8 6.9 0
      vertex -8 6.58 1.8
      vertex -8 6.58 0
    endloop
  endfacet
  facet normal -0 0 -1
    outer loop
      vertex 2.78469 1.51469 1.8
      vertex 1.63205 1.1 1.8
      vertex 2.36 2.54 1.8
    endloop
  endfacet
  facet normal 0 0 -1
    outer loop
      vertex 1.63205 1.1 1.8
      vertex 2.78469 1.51469 1.8
      vertex 3.78586 1.1 1.8
    endloop
  endfacet
  facet normal 0 0 -1
    outer loop
      vertex 4.725 3.61099 1.8
      vertex 3.99 5.08 1.8
      vertex 4.725 6.58 1.8
    endloop
  endfacet
  facet normal 0 0 -1
    outer loop
      vertex 3.81 3.99 1.8
      vertex 3.99 5.08 1.8
      vertex 4.725 3.61099 1.8
    endloop
  endfacet
  facet normal 0 0 -1
    outer loop
      vertex 3.81 3.99 1.8
      vertex 3.5653 4.0547 1.8
      vertex 3.99 5.08 1.8
    endloop
  endfacet
  facet normal 0 0 -1
    outer loop
      vertex 2.78469 3.5653 1.8
      vertex 3.5653 4.0547 1.8
      vertex 3.81 3.99 1.8
    endloop
  endfacet
  facet normal 0 0 -1
    outer loop
      vertex 2.78469 3.5653 1.8
      vertex 2.54 3.63 1.8
      vertex 3.5653 4.0547 1.8
    endloop
  endfacet
  facet normal 0 0 -1
    outer loop
      vertex 2.36 2.54 1.8
      vertex 2.54 3.63 1.8
      vertex 2.78469 3.5653 1.8
    endloop
  endfacet
  facet normal 0 0 -1
    outer loop
      vertex 1 1.73205 1.8
      vertex 2.36 2.54 1.8
      vertex 1.63205 1.1 1.8
    endloop
  endfacet
  facet normal 0 -0 -1
    outer loop
      vertex 1.51469 4.0547 1.8
      vertex 2.36 2.54 1.8
      vertex 1 1.73205 1.8
    endloop
  endfacet
  facet normal 0 0 -1
    outer loop
      vertex 2.36 2.54 1.8
      vertex 1.51469 4.0547 1.8
      vertex 2.54 3.63 1.8
    endloop
  endfacet
  facet normal 0 0 -1
    outer loop
      vertex 0 2 1.8
      vertex 1.51469 4.0547 1.8
      vertex 1 1.73205 1.8
    endloop
  endfacet
  facet normal 0 0 -1
    outer loop
      vertex 4.725 6.58 1.8
      vertex 8 6.9 1.8
      vertex 8 6.58 1.8
    endloop
  endfacet
  facet normal 0 0 -1
    outer loop
      vertex 3.5653 6.1053 1.8
      vertex 4.725 6.58 1.8
      vertex 3.99 5.08 1.8
    endloop
  endfacet
  facet normal 0 0 -1
    outer loop
      vertex 2.54 6.53 1.8
      vertex 4.725 6.58 1.8
      vertex 3.5653 6.1053 1.8
    endloop
  endfacet
  facet normal 0 0 -1
    outer loop
      vertex 2.54 6.53 1.8
      vertex 8 6.9 1.8
      vertex 4.725 6.58 1.8
    endloop
  endfacet
  facet normal 0 0 -1
    outer loop
      vertex -1.51469 4.0547 1.8
      vertex 1.51469 4.0547 1.8
      vertex 0 2 1.8
    endloop
  endfacet
  facet normal 0 0 -1
    outer loop
      vertex -1.51469 4.0547 1.8
      vertex 0 2 1.8
      vertex -1 1.73205 1.8
    endloop
  endfacet
  facet normal 0 0 -1
    outer loop
      vertex 1.51469 4.0547 1.8
      vertex -1.51469 4.0547 1.8
      vertex 1.09 5.08 1.8
    endloop
  endfacet
  facet normal 0 -0 -1
    outer loop
      vertex -1.09 5.08 1.8
      vertex 1.09 5.08 1.8
      vertex -1.51469 4.0547 1.8
    endloop
  endfacet
  facet normal 0 0 -1
    outer loop
      vertex -1.51469 6.1053 1.8
      vertex 1.51469 6.1053 1.8
      vertex -1.09 5.08 1.8
    endloop
  endfacet
  facet normal 0 0 -1
    outer loop
      vertex 1.51469 6.1053 1.8
      vertex -1.51469 6.1053 1.8
      vertex 2.54 6.53 1.8
    endloop
  endfacet
  facet normal 0 0 -1
    outer loop
      vertex -2.54 6.53 1.8
      vertex 2.54 6.53 1.8
      vertex -1.51469 6.1053 1.8
    endloop
  endfacet
  facet normal 0 0 -1
    outer loop
      vertex -2.54 6.53 1.8
      vertex 8 6.9 1.8
      vertex 2.54 6.53 1.8
    endloop
  endfacet
  facet normal 0 0 -1
    outer loop
      vertex -4.725 6.58 1.8
      vertex -3.99 5.08 1.8
      vertex -4.725 3.61099 1.8
    endloop
  endfacet
  facet normal 0 0 -1
    outer loop
      vertex -3.99 5.08 1.8
      vertex -4.725 6.58 1.8
      vertex -3.5653 6.1053 1.8
    endloop
  endfacet
  facet normal 0 0 -1
    outer loop
      vertex -4.725 6.58 1.8
      vertex -2.54 6.53 1.8
      vertex -3.5653 6.1053 1.8
    endloop
  endfacet
  facet normal 0 0 -1
    outer loop
      vertex -8 6.9 1.8
      vertex -2.54 6.53 1.8
      vertex -4.725 6.58 1.8
    endloop
  endfacet
  facet normal 0 0 -1
    outer loop
      vertex -8 6.9 1.8
      vertex -4.725 6.58 1.8
      vertex -8 6.58 1.8
    endloop
  endfacet
  facet normal 0 0 -1
    outer loop
      vertex -2.54 6.53 1.8
      vertex -8 6.9 1.8
      vertex 8 6.9 1.8
    endloop
  endfacet
  facet normal 0 0 -1
    outer loop
      vertex -1.63205 1.1 1.8
      vertex -2.78469 1.51469 1.8
      vertex -2.36 2.54 1.8
    endloop
  endfacet
  facet normal 0 -0 -1
    outer loop
      vertex -2.78469 1.51469 1.8
      vertex -1.63205 1.1 1.8
      vertex -3.78586 1.1 1.8
    endloop
  endfacet
  facet normal 0 0 -1
    outer loop
      vertex 1.09 5.08 1.8
      vertex -1.09 5.08 1.8
      vertex 1.51469 6.1053 1.8
    endloop
  endfacet
  facet normal 0 0 -1
    outer loop
      vertex -2.36 2.54 1.8
      vertex -1 1.73205 1.8
      vertex -1.63205 1.1 1.8
    endloop
  endfacet
  facet normal 0 0 -1
    outer loop
      vertex -1 1.73205 1.8
      vertex -2.36 2.54 1.8
      vertex -1.51469 4.0547 1.8
    endloop
  endfacet
  facet normal 0 0 -1
    outer loop
      vertex -2.36 2.54 1.8
      vertex -2.54 3.63 1.8
      vertex -1.51469 4.0547 1.8
    endloop
  endfacet
  facet normal 0 0 -1
    outer loop
      vertex -2.78469 3.5653 1.8
      vertex -2.54 3.63 1.8
      vertex -2.36 2.54 1.8
    endloop
  endfacet
  facet normal 0 0 -1
    outer loop
      vertex -2.78469 3.5653 1.8
      vertex -3.5653 4.0547 1.8
      vertex -2.54 3.63 1.8
    endloop
  endfacet
  facet normal 0 0 -1
    outer loop
      vertex -3.81 3.99 1.8
      vertex -3.5653 4.0547 1.8
      vertex -2.78469 3.5653 1.8
    endloop
  endfacet
  facet normal 0 0 -1
    outer loop
      vertex -3.81 3.99 1.8
      vertex -3.99 5.08 1.8
      vertex -3.5653 4.0547 1.8
    endloop
  endfacet
  facet normal 0 -0 -1
    outer loop
      vertex -3.99 5.08 1.8
      vertex -3.81 3.99 1.8
      vertex -4.725 3.61099 1.8
    endloop
  endfacet
  facet normal -0 0 -1
    outer loop
      vertex -4.8353 1.51469 1.8
      vertex -5.725 1.1 1.8
      vertex -5.26 2.54 1.8
    endloop
  endfacet
  facet normal 0 0 -1
    outer loop
      vertex -5.725 1.1 1.8
      vertex -4.8353 1.51469 1.8
      vertex -3.83414 1.1 1.8
    endloop
  endfacet
  facet normal 0 0 -1
    outer loop
      vertex -4.8353 3.5653 1.8
      vertex -5.725 3.58 1.8
      vertex -4.79983 3.58 1.8
    endloop
  endfacet
  facet normal 0 0 -1
    outer loop
      vertex -5.26 2.54 1.8
      vertex -5.725 3.58 1.8
      vertex -4.8353 3.5653 1.8
    endloop
  endfacet
  facet normal 0 0 -1
    outer loop
      vertex -5.725 3.58 1.8
      vertex -5.26 2.54 1.8
      vertex -5.725 1.1 1.8
    endloop
  endfacet
  facet normal 0 0 -1
    outer loop
      vertex 5.725 1.1 1.8
      vertex 5.26 2.54 1.8
      vertex 5.725 3.58 1.8
    endloop
  endfacet
  facet normal 0 0 -1
    outer loop
      vertex 5.725 1.1 1.8
      vertex 4.8353 1.51469 1.8
      vertex 5.26 2.54 1.8
    endloop
  endfacet
  facet normal 0 -0 -1
    outer loop
      vertex 4.8353 1.51469 1.8
      vertex 5.725 1.1 1.8
      vertex 3.83414 1.1 1.8
    endloop
  endfacet
  facet normal 0 0 -1
    outer loop
      vertex 4.8353 3.5653 1.8
      vertex 5.725 3.58 1.8
      vertex 5.26 2.54 1.8
    endloop
  endfacet
  facet normal -0 0 -1
    outer loop
      vertex 5.725 3.58 1.8
      vertex 4.8353 3.5653 1.8
      vertex 4.79983 3.58 1.8
    endloop
  endfacet
  facet normal 0 -1 0
    outer loop
      vertex -8 6.9 1.8
      vertex 7.5 6.9 1.5
      vertex 8 6.9 1.8
    endloop
  endfacet
  facet normal 0 -1 0
    outer loop
      vertex -8 6.9 0
      vertex 7.5 6.9 1.5
      vertex -8 6.9 1.8
    endloop
  endfacet
  facet normal 0 -1 -0
    outer loop
      vertex 7.5 6.9 1.5
      vertex -8 6.9 0
      vertex 7.5 6.9 0
    endloop
  endfacet
  facet normal 0 -1 -0
    outer loop
      vertex 8 6.9 1.8
      vertex 7.5 6.9 1.5
      vertex 8 6.9 1.5
    endloop
  endfacet
  facet normal 0 0 -1
    outer loop
      vertex -5.85 0 0
      vertex -5.725 1.04 0
      vertex -5.60104 0.60104 0
    endloop
  endfacet
  facet normal 0 0 -1
    outer loop
      vertex -8.7 1.04 0
      vertex -5.85 0 0
      vertex -8.7 0 0
    endloop
  endfacet
  facet normal 0 0 -1
    outer loop
      vertex -5.85 0 0
      vertex -8.7 1.04 0
      vertex -5.725 1.04 0
    endloop
  endfacet
  facet normal 0 0 -1
    outer loop
      vertex -1.73205 1 0
      vertex -3.78586 1.1 0
      vertex -1.63205 1.1 0
    endloop
  endfacet
  facet normal 0 0 -1
    outer loop
      vertex -2 0 0
      vertex -3.78586 1.1 0
      vertex -1.73205 1 0
    endloop
  endfacet
  facet normal 0 0 -1
    outer loop
      vertex -4.15 0 0
      vertex -3.78586 1.1 0
      vertex -2 0 0
    endloop
  endfacet
  facet normal 0 0 -1
    outer loop
      vertex -3.78586 1.1 0
      vertex -4.15 0 0
      vertex -3.81 1.09 0
    endloop
  endfacet
  facet normal 0 0 -1
    outer loop
      vertex -4.39896 0.60104 0
      vertex -3.81 1.09 0
      vertex -4.15 0 0
    endloop
  endfacet
  facet normal -0 0 -1
    outer loop
      vertex -3.81 1.09 0
      vertex -4.39896 0.60104 0
      vertex -3.83414 1.1 0
    endloop
  endfacet
  facet normal 0 0 -1
    outer loop
      vertex -5 0.849999 0
      vertex -3.83414 1.1 0
      vertex -4.39896 0.60104 0
    endloop
  endfacet
  facet normal 0 0 -1
    outer loop
      vertex -5.725 1.04 0
      vertex -5 0.849999 0
      vertex -5.60104 0.60104 0
    endloop
  endfacet
  facet normal 0 0 -1
    outer loop
      vertex -5.725 1.1 0
      vertex -5 0.849999 0
      vertex -5.725 1.04 0
    endloop
  endfacet
  facet normal 0 0 -1
    outer loop
      vertex -5 0.849999 0
      vertex -5.725 1.1 0
      vertex -3.83414 1.1 0
    endloop
  endfacet
  facet normal 0 0 -1
    outer loop
      vertex -8 6.58 0
      vertex -8.7 6.58 0
      vertex -8 6.9 0
    endloop
  endfacet
  facet normal 0 0 -1
    outer loop
      vertex -8 6.9 0
      vertex 7.5 8.7 0
      vertex 7.5 6.9 0
    endloop
  endfacet
  facet normal 0 0 -1
    outer loop
      vertex -8 6.9 0
      vertex -8.7 8.7 0
      vertex 7.5 8.7 0
    endloop
  endfacet
  facet normal 0 0 -1
    outer loop
      vertex -8.7 8.7 0
      vertex -8 6.9 0
      vertex -8.7 6.58 0
    endloop
  endfacet
  facet normal 0 0 -1
    outer loop
      vertex 5.85 0 0
      vertex 7.5 1.04 0
      vertex 7.5 0 0
    endloop
  endfacet
  facet normal 0 0 -1
    outer loop
      vertex 5.85 0 0
      vertex 5.725 1.04 0
      vertex 7.5 1.04 0
    endloop
  endfacet
  facet normal 0 0 -1
    outer loop
      vertex 5.60104 0.60104 0
      vertex 5.725 1.04 0
      vertex 5.85 0 0
    endloop
  endfacet
  facet normal 0 0 -1
    outer loop
      vertex 5 0.849999 0
      vertex 5.725 1.04 0
      vertex 5.60104 0.60104 0
    endloop
  endfacet
  facet normal -0 0 -1
    outer loop
      vertex 5.725 1.04 0
      vertex 5 0.849999 0
      vertex 5.725 1.1 0
    endloop
  endfacet
  facet normal 0 0 -1
    outer loop
      vertex 5 0.849999 0
      vertex 3.83414 1.1 0
      vertex 5.725 1.1 0
    endloop
  endfacet
  facet normal 0 0 -1
    outer loop
      vertex 4.39896 0.60104 0
      vertex 3.83414 1.1 0
      vertex 5 0.849999 0
    endloop
  endfacet
  facet normal 0 0 -1
    outer loop
      vertex 3.81 1.09 0
      vertex 4.39896 0.60104 0
      vertex 4.15 0 0
    endloop
  endfacet
  facet normal 0 0 -1
    outer loop
      vertex 4.39896 0.60104 0
      vertex 3.81 1.09 0
      vertex 3.83414 1.1 0
    endloop
  endfacet
  facet normal 0 0 -1
    outer loop
      vertex 4.15 0 0
      vertex 3.78586 1.1 0
      vertex 3.81 1.09 0
    endloop
  endfacet
  facet normal 0 0 -1
    outer loop
      vertex 2 0 0
      vertex 3.78586 1.1 0
      vertex 4.15 0 0
    endloop
  endfacet
  facet normal 0 0 -1
    outer loop
      vertex 1.73205 1 0
      vertex 3.78586 1.1 0
      vertex 2 0 0
    endloop
  endfacet
  facet normal -0 0 -1
    outer loop
      vertex 3.78586 1.1 0
      vertex 1.73205 1 0
      vertex 1.63205 1.1 0
    endloop
  endfacet
  facet normal 0 1 -0
    outer loop
      vertex -3.83414 1.1 0
      vertex -5.725 1.1 1.8
      vertex -3.83414 1.1 1.8
    endloop
  endfacet
  facet normal 0 1 0
    outer loop
      vertex -5.725 1.1 1.8
      vertex -3.83414 1.1 0
      vertex -5.725 1.1 0
    endloop
  endfacet
  facet normal 0 1 -0
    outer loop
      vertex -1.63205 1.1 0
      vertex -3.78586 1.1 1.8
      vertex -1.63205 1.1 1.8
    endloop
  endfacet
  facet normal 0 1 0
    outer loop
      vertex -3.78586 1.1 1.8
      vertex -1.63205 1.1 0
      vertex -3.78586 1.1 0
    endloop
  endfacet
  facet normal -1 0 0
    outer loop
      vertex 0 2 0
      vertex 0 3.3 1.8
      vertex 0 3.3 0
    endloop
  endfacet
  facet normal -1 -0 0
    outer loop
      vertex 0 3.3 1.8
      vertex 0 2 0
      vertex 0 2 1.8
    endloop
  endfacet
  facet normal 1 -0 0
    outer loop
      vertex 0 2 1.8
      vertex 0 3.3 0
      vertex 0 3.3 1.8
    endloop
  endfacet
  facet normal 1 0 0
    outer loop
      vertex 0 3.3 0
      vertex 0 2 1.8
      vertex 0 2 0
    endloop
  endfacet
  facet normal 0 0 -1
    outer loop
      vertex -5.725 1.04 1.9
      vertex -8.7 1.04 1.9
      vertex -5.725 3.58 1.9
    endloop
  endfacet
  facet normal 0 0 -1
    outer loop
      vertex -5.725 3.58 1.9
      vertex -4.725 3.61099 1.9
      vertex -4.79983 3.58 1.9
    endloop
  endfacet
  facet normal -0 0 -1
    outer loop
      vertex -4.725 3.61099 1.9
      vertex -5.725 3.58 1.9
      vertex -4.725 6.58 1.9
    endloop
  endfacet
  facet normal 0 0 -1
    outer loop
      vertex -8.7 6.58 1.9
      vertex -5.725 3.58 1.9
      vertex -8.7 1.04 1.9
    endloop
  endfacet
  facet normal 0 0 -1
    outer loop
      vertex -5.725 3.58 1.9
      vertex -8.7 6.58 1.9
      vertex -4.725 6.58 1.9
    endloop
  endfacet
  facet normal -1 0 0
    outer loop
      vertex -5.725 1.1 0
      vertex -5.725 1.04 0
      vertex -5.725 1.1 1.8
    endloop
  endfacet
  facet normal -1 0 0
    outer loop
      vertex -5.725 1.1 1.8
      vertex -5.725 3.58 1.9
      vertex -5.725 3.58 1.8
    endloop
  endfacet
  facet normal -1 0 0
    outer loop
      vertex -5.725 1.1 1.8
      vertex -5.725 1.04 1.9
      vertex -5.725 3.58 1.9
    endloop
  endfacet
  facet normal -1 0 0
    outer loop
      vertex -5.725 1.04 1.9
      vertex -5.725 1.1 1.8
      vertex -5.725 1.04 0
    endloop
  endfacet
  facet normal 0 1 -0
    outer loop
      vertex -5.725 1.04 0
      vertex -8.7 1.04 1.9
      vertex -5.725 1.04 1.9
    endloop
  endfacet
  facet normal 0 1 0
    outer loop
      vertex -8.7 1.04 1.9
      vertex -5.725 1.04 0
      vertex -8.7 1.04 0
    endloop
  endfacet
  facet normal 1 -0 0
    outer loop
      vertex 4.725 3.61099 1.9
      vertex 4.725 6.58 1.8
      vertex 4.725 6.58 1.9
    endloop
  endfacet
  facet normal 1 0 0
    outer loop
      vertex 4.725 6.58 1.8
      vertex 4.725 3.61099 1.9
      vertex 4.725 3.61099 1.8
    endloop
  endfacet
  facet normal 0 0 -1
    outer loop
      vertex 5.725 3.58 1.9
      vertex 8.7 1.04 1.9
      vertex 5.725 1.04 1.9
    endloop
  endfacet
  facet normal 0 0 -1
    outer loop
      vertex 8.7 1.04 1.9
      vertex 5.725 3.58 1.9
      vertex 8.7 6.58 1.9
    endloop
  endfacet
  facet normal 0 0 -1
    outer loop
      vertex 4.725 3.61099 1.9
      vertex 5.725 3.58 1.9
      vertex 4.79983 3.58 1.9
    endloop
  endfacet
  facet normal 0 0 -1
    outer loop
      vertex 5.725 3.58 1.9
      vertex 4.725 3.61099 1.9
      vertex 4.725 6.58 1.9
    endloop
  endfacet
  facet normal 0 0 -1
    outer loop
      vertex 5.725 3.58 1.9
      vertex 4.725 6.58 1.9
      vertex 8.7 6.58 1.9
    endloop
  endfacet
  facet normal 0 1 -0
    outer loop
      vertex 5.725 3.58 1.8
      vertex 4.79983 3.58 1.9
      vertex 5.725 3.58 1.9
    endloop
  endfacet
  facet normal 0 1 0
    outer loop
      vertex 4.79983 3.58 1.9
      vertex 5.725 3.58 1.8
      vertex 4.79983 3.58 1.8
    endloop
  endfacet
  facet normal 0 -1 0
    outer loop
      vertex 8 6.58 1.8
      vertex 4.725 6.58 1.9
      vertex 4.725 6.58 1.8
    endloop
  endfacet
  facet normal 0 -1 0
    outer loop
      vertex 4.725 6.58 1.9
      vertex 8 6.58 1.8
      vertex 8.7 6.58 1.9
    endloop
  endfacet
  facet normal 0 -1 0
    outer loop
      vertex 8.7 6.58 1.5
      vertex 8 6.58 1.8
      vertex 8 6.58 1.5
    endloop
  endfacet
  facet normal 0 -1 0
    outer loop
      vertex 8 6.58 1.8
      vertex 8.7 6.58 1.5
      vertex 8.7 6.58 1.9
    endloop
  endfacet
  facet normal -1 0 0
    outer loop
      vertex 8 6.58 1.5
      vertex 8 6.9 1.8
      vertex 8 6.9 1.5
    endloop
  endfacet
  facet normal -1 -0 0
    outer loop
      vertex 8 6.9 1.8
      vertex 8 6.58 1.5
      vertex 8 6.58 1.8
    endloop
  endfacet
  facet normal 0 1 -0
    outer loop
      vertex 5.725 1.1 0
      vertex 3.83414 1.1 1.8
      vertex 5.725 1.1 1.8
    endloop
  endfacet
  facet normal 0 1 0
    outer loop
      vertex 3.83414 1.1 1.8
      vertex 5.725 1.1 0
      vertex 3.83414 1.1 0
    endloop
  endfacet
  facet normal 0 1 -0
    outer loop
      vertex 3.78586 1.1 0
      vertex 1.63205 1.1 1.8
      vertex 3.78586 1.1 1.8
    endloop
  endfacet
  facet normal 0 1 0
    outer loop
      vertex 1.63205 1.1 1.8
      vertex 3.78586 1.1 0
      vertex 1.63205 1.1 0
    endloop
  endfacet
  facet normal 1 0 0
    outer loop
      vertex 5.725 3.58 1.9
      vertex 5.725 1.1 1.8
      vertex 5.725 3.58 1.8
    endloop
  endfacet
  facet normal 1 -0 0
    outer loop
      vertex 5.725 1.04 1.9
      vertex 5.725 1.1 1.8
      vertex 5.725 3.58 1.9
    endloop
  endfacet
  facet normal 1 0 0
    outer loop
      vertex 5.725 1.04 0
      vertex 5.725 1.1 1.8
      vertex 5.725 1.04 1.9
    endloop
  endfacet
  facet normal 1 0 0
    outer loop
      vertex 5.725 1.1 1.8
      vertex 5.725 1.04 0
      vertex 5.725 1.1 0
    endloop
  endfacet
  facet normal 0 1 0
    outer loop
      vertex 7.5 1.04 1.5
      vertex 8.7 1.04 1.9
      vertex 8.7 1.04 1.5
    endloop
  endfacet
  facet normal 0 1 0
    outer loop
      vertex 8.7 1.04 1.9
      vertex 7.5 1.04 1.5
      vertex 5.725 1.04 1.9
    endloop
  endfacet
  facet normal 0 1 0
    outer loop
      vertex 5.725 1.04 0
      vertex 7.5 1.04 1.5
      vertex 7.5 1.04 0
    endloop
  endfacet
  facet normal 0 1 0
    outer loop
      vertex 7.5 1.04 1.5
      vertex 5.725 1.04 0
      vertex 5.725 1.04 1.9
    endloop
  endfacet
  facet normal -1 0 0
    outer loop
      vertex -4.725 3.61099 1.8
      vertex -4.725 6.58 1.9
      vertex -4.725 6.58 1.8
    endloop
  endfacet
  facet normal -1 -0 0
    outer loop
      vertex -4.725 6.58 1.9
      vertex -4.725 3.61099 1.8
      vertex -4.725 3.61099 1.9
    endloop
  endfacet
  facet normal 0 -1 0
    outer loop
      vertex -8.7 6.58 1.9
      vertex -8 6.58 1.8
      vertex -4.725 6.58 1.9
    endloop
  endfacet
  facet normal 0 -1 0
    outer loop
      vertex -8.7 6.58 0
      vertex -8 6.58 1.8
      vertex -8.7 6.58 1.9
    endloop
  endfacet
  facet normal 0 -1 -0
    outer loop
      vertex -8 6.58 1.8
      vertex -8.7 6.58 0
      vertex -8 6.58 0
    endloop
  endfacet
  facet normal 0 -1 -0
    outer loop
      vertex -4.725 6.58 1.9
      vertex -8 6.58 1.8
      vertex -4.725 6.58 1.8
    endloop
  endfacet
  facet normal 0 1 -0
    outer loop
      vertex -4.79983 3.58 1.8
      vertex -5.725 3.58 1.9
      vertex -4.79983 3.58 1.9
    endloop
  endfacet
  facet normal 0 1 0
    outer loop
      vertex -5.725 3.58 1.9
      vertex -4.79983 3.58 1.8
      vertex -5.725 3.58 1.8
    endloop
  endfacet
  facet normal 0 -1 0
    outer loop
      vertex 7.5 0 1.5
      vertex 7.2 0 3
      vertex 5.85 0 3
    endloop
  endfacet
  facet normal 0 -1 0
    outer loop
      vertex 7.2 0 3
      vertex 7.5 0 1.5
      vertex 8.7 0 3
    endloop
  endfacet
  facet normal 0 -1 0
    outer loop
      vertex 5.85 0 0
      vertex 7.5 0 1.5
      vertex 5.85 0 3
    endloop
  endfacet
  facet normal 0 -1 -0
    outer loop
      vertex 7.5 0 1.5
      vertex 5.85 0 0
      vertex 7.5 0 0
    endloop
  endfacet
  facet normal 0 -1 -0
    outer loop
      vertex 8.7 0 3
      vertex 7.5 0 1.5
      vertex 8.7 0 1.5
    endloop
  endfacet
  facet normal 0 -1 0
    outer loop
      vertex -8.7 0 0
      vertex -7.2 0 3
      vertex -8.7 0 3
    endloop
  endfacet
  facet normal 0 -1 0
    outer loop
      vertex -5.85 0 0
      vertex -7.2 0 3
      vertex -8.7 0 0
    endloop
  endfacet
  facet normal 0 -1 0
    outer loop
      vertex -7.2 0 3
      vertex -5.85 0 0
      vertex -5.85 0 3
    endloop
  endfacet
  facet normal 0 -1 0
    outer loop
      vertex -4.15 0 0
      vertex -2 0 3
      vertex -4.15 0 3
    endloop
  endfacet
  facet normal 0 -1 -0
    outer loop
      vertex -2 0 3
      vertex -4.15 0 0
      vertex -2 0 0
    endloop
  endfacet
  facet normal 0 -1 0
    outer loop
      vertex 2 0 0
      vertex 4.15 0 3
      vertex 2 0 3
    endloop
  endfacet
  facet normal 0 -1 -0
    outer loop
      vertex 4.15 0 3
      vertex 2 0 0
      vertex 4.15 0 0
    endloop
  endfacet
  facet normal -0.965926 -0.25882 0
    outer loop
      vertex 2 0 0
      vertex 1.73205 1 3
      vertex 1.73205 1 0
    endloop
  endfacet
  facet normal -0.965926 -0.25882 0
    outer loop
      vertex 1.73205 1 3
      vertex 2 0 0
      vertex 2 0 3
    endloop
  endfacet
  facet normal 0.965926 -0.25882 0
    outer loop
      vertex -2 0 3
      vertex -1.73205 1 0
      vertex -1.73205 1 3
    endloop
  endfacet
  facet normal 0.965926 -0.25882 0
    outer loop
      vertex -1.73205 1 0
      vertex -2 0 3
      vertex -2 0 0
    endloop
  endfacet
  facet normal -0.25882 -0.965926 0
    outer loop
      vertex 0 2 1.8
      vertex 1 1.73205 3
      vertex 0 2 3
    endloop
  endfacet
  facet normal -0.25882 -0.965926 -0
    outer loop
      vertex 1 1.73205 3
      vertex 0 2 1.8
      vertex 1 1.73205 1.8
    endloop
  endfacet
  facet normal -0.707107 -0.707107 0
    outer loop
      vertex 1.63205 1.1 1.8
      vertex 1 1.73205 3
      vertex 1 1.73205 1.8
    endloop
  endfacet
  facet normal -0.707107 -0.707107 0
    outer loop
      vertex 1.63205 1.1 1.8
      vertex 1.73205 1 3
      vertex 1 1.73205 3
    endloop
  endfacet
  facet normal -0.707107 -0.707107 -0
    outer loop
      vertex 1.73205 1 3
      vertex 1.63205 1.1 1.8
      vertex 1.73205 1 0
    endloop
  endfacet
  facet normal -0.707107 -0.707107 0
    outer loop
      vertex 1.63205 1.1 0
      vertex 1.73205 1 0
      vertex 1.63205 1.1 1.8
    endloop
  endfacet
  facet normal 0.25882 -0.965926 0
    outer loop
      vertex -1 1.73205 1.8
      vertex 0 2 3
      vertex -1 1.73205 3
    endloop
  endfacet
  facet normal 0.25882 -0.965926 0
    outer loop
      vertex 0 2 3
      vertex -1 1.73205 1.8
      vertex 0 2 1.8
    endloop
  endfacet
  facet normal 0.707107 -0.707107 0
    outer loop
      vertex -1 1.73205 3
      vertex -1.63205 1.1 1.8
      vertex -1 1.73205 1.8
    endloop
  endfacet
  facet normal 0.707107 -0.707107 0
    outer loop
      vertex -1.73205 1 3
      vertex -1.63205 1.1 1.8
      vertex -1 1.73205 3
    endloop
  endfacet
  facet normal 0.707107 -0.707107 0
    outer loop
      vertex -1.73205 1 0
      vertex -1.63205 1.1 1.8
      vertex -1.73205 1 3
    endloop
  endfacet
  facet normal 0.707107 -0.707107 0
    outer loop
      vertex -1.63205 1.1 1.8
      vertex -1.73205 1 0
      vertex -1.63205 1.1 0
    endloop
  endfacet
  facet normal -0.923881 -0.382681 0
    outer loop
      vertex -2.36 2.54 1.8
      vertex -2.78469 3.5653 3
      vertex -2.78469 3.5653 1.8
    endloop
  endfacet
  facet normal -0.923881 -0.382681 0
    outer loop
      vertex -2.78469 3.5653 3
      vertex -2.36 2.54 1.8
      vertex -2.36 2.54 3
    endloop
  endfacet
  facet normal 0.382624 -0.923904 -8.81892e-06
    outer loop
      vertex -4.725 3.61099 1.9
      vertex -4.8353 3.5653 3
      vertex -4.79983 3.58 1.9
    endloop
  endfacet
  facet normal 0.382858 -0.923807 0
    outer loop
      vertex -4.8353 3.5653 1.8
      vertex -4.79983 3.58 1.9
      vertex -4.8353 3.5653 3
    endloop
  endfacet
  facet normal 0.382858 -0.923807 0
    outer loop
      vertex -4.79983 3.58 1.9
      vertex -4.8353 3.5653 1.8
      vertex -4.79983 3.58 1.8
    endloop
  endfacet
  facet normal 0.382689 -0.923877 -1.26725e-06
    outer loop
      vertex -4.8353 3.5653 3
      vertex -4.725 3.61099 1.9
      vertex -3.81 3.99 3
    endloop
  endfacet
  facet normal 0.382687 -0.923878 0
    outer loop
      vertex -3.81 3.99 1.8
      vertex -4.725 3.61099 1.9
      vertex -4.725 3.61099 1.8
    endloop
  endfacet
  facet normal 0.382687 -0.923878 0
    outer loop
      vertex -4.725 3.61099 1.9
      vertex -3.81 3.99 1.8
      vertex -3.81 3.99 3
    endloop
  endfacet
  facet normal -0.382686 -0.923879 0
    outer loop
      vertex -3.81 3.99 1.8
      vertex -2.78469 3.5653 3
      vertex -3.81 3.99 3
    endloop
  endfacet
  facet normal -0.382686 -0.923879 -0
    outer loop
      vertex -2.78469 3.5653 3
      vertex -3.81 3.99 1.8
      vertex -2.78469 3.5653 1.8
    endloop
  endfacet
  facet normal 0.923877 -0.382689 0
    outer loop
      vertex -5.26 2.54 3
      vertex -4.8353 3.5653 1.8
      vertex -4.8353 3.5653 3
    endloop
  endfacet
  facet normal 0.923877 -0.382689 0
    outer loop
      vertex -4.8353 3.5653 1.8
      vertex -5.26 2.54 3
      vertex -5.26 2.54 1.8
    endloop
  endfacet
  facet normal -0.923882 0.382678 0
    outer loop
      vertex -2.78469 1.51469 1.8
      vertex -2.36 2.54 3
      vertex -2.36 2.54 1.8
    endloop
  endfacet
  facet normal -0.923882 0.382678 0
    outer loop
      vertex -2.36 2.54 3
      vertex -2.78469 1.51469 1.8
      vertex -2.78469 1.51469 3
    endloop
  endfacet
  facet normal 0.382681 0.923881 7.38438e-07
    outer loop
      vertex -3.81 1.09 3
      vertex -3.83414 1.1 1.8
      vertex -4.8353 1.51469 3
    endloop
  endfacet
  facet normal 0.382712 0.923868 -0
    outer loop
      vertex -3.81 1.09 0
      vertex -3.83414 1.1 1.8
      vertex -3.81 1.09 3
    endloop
  endfacet
  facet normal 0.382712 0.923868 0
    outer loop
      vertex -3.83414 1.1 1.8
      vertex -3.81 1.09 0
      vertex -3.83414 1.1 0
    endloop
  endfacet
  facet normal 0.38268 0.923881 0
    outer loop
      vertex -4.8353 1.51469 3
      vertex -3.83414 1.1 1.8
      vertex -4.8353 1.51469 1.8
    endloop
  endfacet
  facet normal 0.923879 0.382686 0
    outer loop
      vertex -4.8353 1.51469 3
      vertex -5.26 2.54 1.8
      vertex -5.26 2.54 3
    endloop
  endfacet
  facet normal 0.923879 0.382686 0
    outer loop
      vertex -5.26 2.54 1.8
      vertex -4.8353 1.51469 3
      vertex -4.8353 1.51469 1.8
    endloop
  endfacet
  facet normal -0.382677 0.923882 0
    outer loop
      vertex -3.78586 1.1 1.8
      vertex -2.78469 1.51469 3
      vertex -2.78469 1.51469 1.8
    endloop
  endfacet
  facet normal -0.382678 0.923882 8.13521e-07
    outer loop
      vertex -2.78469 1.51469 3
      vertex -3.78586 1.1 1.8
      vertex -3.81 1.09 3
    endloop
  endfacet
  facet normal -0.382712 0.923868 0
    outer loop
      vertex -3.81 1.09 0
      vertex -3.78586 1.1 1.8
      vertex -3.78586 1.1 0
    endloop
  endfacet
  facet normal -0.382712 0.923868 0
    outer loop
      vertex -3.78586 1.1 1.8
      vertex -3.81 1.09 0
      vertex -3.81 1.09 3
    endloop
  endfacet
  facet normal 0.923881 -0.382681 0
    outer loop
      vertex 2.36 2.54 3
      vertex 2.78469 3.5653 1.8
      vertex 2.78469 3.5653 3
    endloop
  endfacet
  facet normal 0.923881 -0.382681 0
    outer loop
      vertex 2.78469 3.5653 1.8
      vertex 2.36 2.54 3
      vertex 2.36 2.54 1.8
    endloop
  endfacet
  facet normal 0.923882 0.382678 0
    outer loop
      vertex 2.78469 1.51469 3
      vertex 2.36 2.54 1.8
      vertex 2.36 2.54 3
    endloop
  endfacet
  facet normal 0.923882 0.382678 0
    outer loop
      vertex 2.36 2.54 1.8
      vertex 2.78469 1.51469 3
      vertex 2.78469 1.51469 1.8
    endloop
  endfacet
  facet normal -0.923879 0.382686 0
    outer loop
      vertex 4.8353 1.51469 1.8
      vertex 5.26 2.54 3
      vertex 5.26 2.54 1.8
    endloop
  endfacet
  facet normal -0.923879 0.382686 0
    outer loop
      vertex 5.26 2.54 3
      vertex 4.8353 1.51469 1.8
      vertex 4.8353 1.51469 3
    endloop
  endfacet
  facet normal -0.382689 -0.923877 -1.26725e-06
    outer loop
      vertex 3.81 3.99 3
      vertex 4.725 3.61099 1.9
      vertex 4.8353 3.5653 3
    endloop
  endfacet
  facet normal -0.382687 -0.923878 0
    outer loop
      vertex 3.81 3.99 1.8
      vertex 4.725 3.61099 1.9
      vertex 3.81 3.99 3
    endloop
  endfacet
  facet normal -0.382687 -0.923878 -0
    outer loop
      vertex 4.725 3.61099 1.9
      vertex 3.81 3.99 1.8
      vertex 4.725 3.61099 1.8
    endloop
  endfacet
  facet normal -0.382624 -0.923904 -8.81892e-06
    outer loop
      vertex 4.79983 3.58 1.9
      vertex 4.8353 3.5653 3
      vertex 4.725 3.61099 1.9
    endloop
  endfacet
  facet normal -0.382858 -0.923807 0
    outer loop
      vertex 4.8353 3.5653 1.8
      vertex 4.79983 3.58 1.9
      vertex 4.79983 3.58 1.8
    endloop
  endfacet
  facet normal -0.382858 -0.923807 0
    outer loop
      vertex 4.79983 3.58 1.9
      vertex 4.8353 3.5653 1.8
      vertex 4.8353 3.5653 3
    endloop
  endfacet
  facet normal -0.923877 -0.382689 0
    outer loop
      vertex 5.26 2.54 1.8
      vertex 4.8353 3.5653 3
      vertex 4.8353 3.5653 1.8
    endloop
  endfacet
  facet normal -0.923877 -0.382689 0
    outer loop
      vertex 4.8353 3.5653 3
      vertex 5.26 2.54 1.8
      vertex 5.26 2.54 3
    endloop
  endfacet
  facet normal -0.38268 0.923881 0
    outer loop
      vertex 3.83414 1.1 1.8
      vertex 4.8353 1.51469 3
      vertex 4.8353 1.51469 1.8
    endloop
  endfacet
  facet normal -0.382681 0.923881 7.38438e-07
    outer loop
      vertex 4.8353 1.51469 3
      vertex 3.83414 1.1 1.8
      vertex 3.81 1.09 3
    endloop
  endfacet
  facet normal -0.382712 0.923868 0
    outer loop
      vertex 3.81 1.09 0
      vertex 3.83414 1.1 1.8
      vertex 3.83414 1.1 0
    endloop
  endfacet
  facet normal -0.382712 0.923868 0
    outer loop
      vertex 3.83414 1.1 1.8
      vertex 3.81 1.09 0
      vertex 3.81 1.09 3
    endloop
  endfacet
  facet normal 0.382678 0.923882 8.13521e-07
    outer loop
      vertex 3.81 1.09 3
      vertex 3.78586 1.1 1.8
      vertex 2.78469 1.51469 3
    endloop
  endfacet
  facet normal 0.382712 0.923868 -0
    outer loop
      vertex 3.81 1.09 0
      vertex 3.78586 1.1 1.8
      vertex 3.81 1.09 3
    endloop
  endfacet
  facet normal 0.382712 0.923868 0
    outer loop
      vertex 3.78586 1.1 1.8
      vertex 3.81 1.09 0
      vertex 3.78586 1.1 0
    endloop
  endfacet
  facet normal 0.382677 0.923882 0
    outer loop
      vertex 2.78469 1.51469 3
      vertex 3.78586 1.1 1.8
      vertex 2.78469 1.51469 1.8
    endloop
  endfacet
  facet normal 0.382686 -0.923879 0
    outer loop
      vertex 2.78469 3.5653 1.8
      vertex 3.81 3.99 3
      vertex 2.78469 3.5653 3
    endloop
  endfacet
  facet normal 0.382686 -0.923879 0
    outer loop
      vertex 3.81 3.99 3
      vertex 2.78469 3.5653 1.8
      vertex 3.81 3.99 1.8
    endloop
  endfacet
  facet normal -0.923877 -0.382689 0
    outer loop
      vertex 3.99 5.08 1.8
      vertex 3.5653 6.1053 3
      vertex 3.5653 6.1053 1.8
    endloop
  endfacet
  facet normal -0.923877 -0.382689 0
    outer loop
      vertex 3.5653 6.1053 3
      vertex 3.99 5.08 1.8
      vertex 3.99 5.08 3
    endloop
  endfacet
  facet normal 0.923881 -0.382681 0
    outer loop
      vertex 1.09 5.08 3
      vertex 1.51469 6.1053 1.8
      vertex 1.51469 6.1053 3
    endloop
  endfacet
  facet normal 0.923881 -0.382681 0
    outer loop
      vertex 1.51469 6.1053 1.8
      vertex 1.09 5.08 3
      vertex 1.09 5.08 1.8
    endloop
  endfacet
  facet normal 0.382686 -0.923879 0
    outer loop
      vertex 1.51469 6.1053 1.8
      vertex 2.54 6.53 3
      vertex 1.51469 6.1053 3
    endloop
  endfacet
  facet normal 0.382686 -0.923879 0
    outer loop
      vertex 2.54 6.53 3
      vertex 1.51469 6.1053 1.8
      vertex 2.54 6.53 1.8
    endloop
  endfacet
  facet normal -0.382689 -0.923877 0
    outer loop
      vertex 2.54 6.53 1.8
      vertex 3.5653 6.1053 3
      vertex 2.54 6.53 3
    endloop
  endfacet
  facet normal -0.382689 -0.923877 -0
    outer loop
      vertex 3.5653 6.1053 3
      vertex 2.54 6.53 1.8
      vertex 3.5653 6.1053 1.8
    endloop
  endfacet
  facet normal -0.382689 0.923877 0
    outer loop
      vertex 3.5653 4.0547 1.8
      vertex 2.54 3.63 3
      vertex 3.5653 4.0547 3
    endloop
  endfacet
  facet normal -0.382689 0.923877 0
    outer loop
      vertex 2.54 3.63 3
      vertex 3.5653 4.0547 1.8
      vertex 2.54 3.63 1.8
    endloop
  endfacet
  facet normal 0.923881 0.382681 0
    outer loop
      vertex 1.51469 4.0547 3
      vertex 1.09 5.08 1.8
      vertex 1.09 5.08 3
    endloop
  endfacet
  facet normal 0.923881 0.382681 0
    outer loop
      vertex 1.09 5.08 1.8
      vertex 1.51469 4.0547 3
      vertex 1.51469 4.0547 1.8
    endloop
  endfacet
  facet normal -0.923877 0.382689 0
    outer loop
      vertex 3.5653 4.0547 1.8
      vertex 3.99 5.08 3
      vertex 3.99 5.08 1.8
    endloop
  endfacet
  facet normal -0.923877 0.382689 0
    outer loop
      vertex 3.99 5.08 3
      vertex 3.5653 4.0547 1.8
      vertex 3.5653 4.0547 3
    endloop
  endfacet
  facet normal 0.382686 0.923879 -0
    outer loop
      vertex 2.54 3.63 1.8
      vertex 1.51469 4.0547 3
      vertex 2.54 3.63 3
    endloop
  endfacet
  facet normal 0.382686 0.923879 0
    outer loop
      vertex 1.51469 4.0547 3
      vertex 2.54 3.63 1.8
      vertex 1.51469 4.0547 1.8
    endloop
  endfacet
  facet normal 0.923877 -0.382689 0
    outer loop
      vertex -3.99 5.08 3
      vertex -3.5653 6.1053 1.8
      vertex -3.5653 6.1053 3
    endloop
  endfacet
  facet normal 0.923877 -0.382689 0
    outer loop
      vertex -3.5653 6.1053 1.8
      vertex -3.99 5.08 3
      vertex -3.99 5.08 1.8
    endloop
  endfacet
  facet normal -0.382686 0.923879 0
    outer loop
      vertex -1.51469 4.0547 1.8
      vertex -2.54 3.63 3
      vertex -1.51469 4.0547 3
    endloop
  endfacet
  facet normal -0.382686 0.923879 0
    outer loop
      vertex -2.54 3.63 3
      vertex -1.51469 4.0547 1.8
      vertex -2.54 3.63 1.8
    endloop
  endfacet
  facet normal 0.923877 0.382689 0
    outer loop
      vertex -3.5653 4.0547 3
      vertex -3.99 5.08 1.8
      vertex -3.99 5.08 3
    endloop
  endfacet
  facet normal 0.923877 0.382689 0
    outer loop
      vertex -3.99 5.08 1.8
      vertex -3.5653 4.0547 3
      vertex -3.5653 4.0547 1.8
    endloop
  endfacet
  facet normal -0.382686 -0.923879 0
    outer loop
      vertex -2.54 6.53 1.8
      vertex -1.51469 6.1053 3
      vertex -2.54 6.53 3
    endloop
  endfacet
  facet normal -0.382686 -0.923879 -0
    outer loop
      vertex -1.51469 6.1053 3
      vertex -2.54 6.53 1.8
      vertex -1.51469 6.1053 1.8
    endloop
  endfacet
  facet normal 0.382689 -0.923877 0
    outer loop
      vertex -3.5653 6.1053 1.8
      vertex -2.54 6.53 3
      vertex -3.5653 6.1053 3
    endloop
  endfacet
  facet normal 0.382689 -0.923877 0
    outer loop
      vertex -2.54 6.53 3
      vertex -3.5653 6.1053 1.8
      vertex -2.54 6.53 1.8
    endloop
  endfacet
  facet normal -0.923881 -0.382681 0
    outer loop
      vertex -1.09 5.08 1.8
      vertex -1.51469 6.1053 3
      vertex -1.51469 6.1053 1.8
    endloop
  endfacet
  facet normal -0.923881 -0.382681 0
    outer loop
      vertex -1.51469 6.1053 3
      vertex -1.09 5.08 1.8
      vertex -1.09 5.08 3
    endloop
  endfacet
  facet normal -0.923881 0.382681 0
    outer loop
      vertex -1.51469 4.0547 1.8
      vertex -1.09 5.08 3
      vertex -1.09 5.08 1.8
    endloop
  endfacet
  facet normal -0.923881 0.382681 0
    outer loop
      vertex -1.09 5.08 3
      vertex -1.51469 4.0547 1.8
      vertex -1.51469 4.0547 3
    endloop
  endfacet
  facet normal 0.382689 0.923877 -0
    outer loop
      vertex -2.54 3.63 1.8
      vertex -3.5653 4.0547 3
      vertex -2.54 3.63 3
    endloop
  endfacet
  facet normal 0.382689 0.923877 0
    outer loop
      vertex -3.5653 4.0547 3
      vertex -2.54 3.63 1.8
      vertex -3.5653 4.0547 1.8
    endloop
  endfacet
  facet normal -0.923879 -0.382685 0
    outer loop
      vertex -4.15 0 0
      vertex -4.39896 0.60104 3
      vertex -4.39896 0.60104 0
    endloop
  endfacet
  facet normal -0.923879 -0.382685 0
    outer loop
      vertex -4.39896 0.60104 3
      vertex -4.15 0 0
      vertex -4.15 0 3
    endloop
  endfacet
  facet normal 0.923879 -0.382685 0
    outer loop
      vertex -5.85 0 3
      vertex -5.60104 0.60104 0
      vertex -5.60104 0.60104 3
    endloop
  endfacet
  facet normal 0.923879 -0.382685 0
    outer loop
      vertex -5.60104 0.60104 0
      vertex -5.85 0 3
      vertex -5.85 0 0
    endloop
  endfacet
  facet normal -0.382684 -0.923879 0
    outer loop
      vertex -5 0.849999 0
      vertex -4.39896 0.60104 3
      vertex -5 0.849999 3
    endloop
  endfacet
  facet normal -0.382684 -0.923879 -0
    outer loop
      vertex -4.39896 0.60104 3
      vertex -5 0.849999 0
      vertex -4.39896 0.60104 0
    endloop
  endfacet
  facet normal 0.382684 -0.923879 0
    outer loop
      vertex -5.60104 0.60104 0
      vertex -5 0.849999 3
      vertex -5.60104 0.60104 3
    endloop
  endfacet
  facet normal 0.382684 -0.923879 0
    outer loop
      vertex -5 0.849999 3
      vertex -5.60104 0.60104 0
      vertex -5 0.849999 0
    endloop
  endfacet
  facet normal -0.923879 -0.382685 0
    outer loop
      vertex 5.85 0 0
      vertex 5.60104 0.60104 3
      vertex 5.60104 0.60104 0
    endloop
  endfacet
  facet normal -0.923879 -0.382685 0
    outer loop
      vertex 5.60104 0.60104 3
      vertex 5.85 0 0
      vertex 5.85 0 3
    endloop
  endfacet
  facet normal 0.923879 -0.382685 0
    outer loop
      vertex 4.15 0 3
      vertex 4.39896 0.60104 0
      vertex 4.39896 0.60104 3
    endloop
  endfacet
  facet normal 0.923879 -0.382685 0
    outer loop
      vertex 4.39896 0.60104 0
      vertex 4.15 0 3
      vertex 4.15 0 0
    endloop
  endfacet
  facet normal -0.382684 -0.923879 0
    outer loop
      vertex 5 0.849999 0
      vertex 5.60104 0.60104 3
      vertex 5 0.849999 3
    endloop
  endfacet
  facet normal -0.382684 -0.923879 -0
    outer loop
      vertex 5.60104 0.60104 3
      vertex 5 0.849999 0
      vertex 5.60104 0.60104 0
    endloop
  endfacet
  facet normal 0.382684 -0.923879 0
    outer loop
      vertex 4.39896 0.60104 0
      vertex 5 0.849999 3
      vertex 4.39896 0.60104 3
    endloop
  endfacet
  facet normal 0.382684 -0.923879 0
    outer loop
      vertex 5 0.849999 3
      vertex 4.39896 0.60104 0
      vertex 5 0.849999 0
    endloop
  endfacet
  facet normal 1 -0 0
    outer loop
      vertex 7.5 6.9 1.5
      vertex 7.5 8.7 0
      vertex 7.5 8.7 1.5
    endloop
  endfacet
  facet normal 1 0 0
    outer loop
      vertex 7.5 8.7 0
      vertex 7.5 6.9 1.5
      vertex 7.5 6.9 0
    endloop
  endfacet
  facet normal 1 -0 0
    outer loop
      vertex 7.5 0 1.5
      vertex 7.5 1.04 0
      vertex 7.5 1.04 1.5
    endloop
  endfacet
  facet normal 1 0 0
    outer loop
      vertex 7.5 1.04 0
      vertex 7.5 0 1.5
      vertex 7.5 0 0
    endloop
  endfacet
  facet normal 0 0 -1
    outer loop
      vertex 8 6.9 1.5
      vertex 8.7 6.58 1.5
      vertex 8 6.58 1.5
    endloop
  endfacet
  facet normal 0 0 -1
    outer loop
      vertex 8.7 6.58 1.5
      vertex 8 6.9 1.5
      vertex 8.7 8.7 1.5
    endloop
  endfacet
  facet normal 0 0 -1
    outer loop
      vertex 7.5 8.7 1.5
      vertex 8 6.9 1.5
      vertex 7.5 6.9 1.5
    endloop
  endfacet
  facet normal 0 0 -1
    outer loop
      vertex 8 6.9 1.5
      vertex 7.5 8.7 1.5
      vertex 8.7 8.7 1.5
    endloop
  endfacet
  facet normal 0 0 -1
    outer loop
      vertex 7.5 0 1.5
      vertex 8.7 1.04 1.5
      vertex 8.7 0 1.5
    endloop
  endfacet
  facet normal -0 0 -1
    outer loop
      vertex 8.7 1.04 1.5
      vertex 7.5 0 1.5
      vertex 7.5 1.04 1.5
    endloop
  endfacet
endsolid OpenSCAD_Model
