  0
SECTION
  2
BLOCKS
  0
ENDSEC
  0
SECTION
  2
ENTITIES
  0
LINE
  8
0
 10
-54.9008
 20
-71.7979
 11
-54.7453
 21
-73.3056
  0
LINE
  8
0
 10
-54.7453
 20
-73.3056
 11
-54.1946
 21
-78.6468
  0
LINE
  8
0
 10
-54.1946
 20
-78.6468
 11
-54.1627
 21
-78.673
  0
LINE
  8
0
 10
-54.1627
 20
-78.673
 11
-54.1172
 21
-78.7103
  0
LINE
  8
0
 10
-54.1172
 20
-78.7103
 11
-54.1172
 21
-78.7103
  0
LINE
  8
0
 10
-54.1172
 20
-78.7103
 11
-48.2809
 21
-83.5034
  0
LINE
  8
0
 10
-48.2809
 20
-83.5034
 11
-40.9967
 21
-89.4855
  0
LINE
  8
0
 10
-40.9967
 20
-89.4855
 11
-40.9566
 21
-89.5185
  0
LINE
  8
0
 10
-40.9566
 20
-89.5185
 11
-37.045
 21
-90.2092
  0
LINE
  8
0
 10
-37.045
 20
-90.2092
 11
-32.2216
 21
-89.6108
  0
LINE
  8
0
 10
-32.2216
 20
-89.6108
 11
-19.1855
 21
-101.137
  0
LINE
  8
0
 10
-19.1855
 20
-101.137
 11
-19.1855
 21
-101.137
  0
LINE
  8
0
 10
-19.1855
 20
-101.137
 11
-19.1083
 21
-101.205
  0
LINE
  8
0
 10
-19.1083
 20
-101.205
 11
-17.7717
 21
-101.199
  0
LINE
  8
0
 10
-17.7717
 20
-101.199
 11
-10.1336
 21
-101.163
  0
LINE
  8
0
 10
-10.1336
 20
-101.163
 11
-10.0435
 21
-101.105
  0
LINE
  8
0
 10
-10.0435
 20
-101.105
 11
-8.47048
 21
-100.097
  0
LINE
  8
0
 10
-8.47048
 20
-100.097
 11
-6.75865
 21
-98.9993
  0
LINE
  8
0
 10
-6.75865
 20
-98.9993
 11
-5.62717
 21
-97.8629
  0
LINE
  8
0
 10
-5.62717
 20
-97.8629
 11
-2.34722
 21
-94.5688
  0
LINE
  8
0
 10
-2.34722
 20
-94.5688
 11
-0.709804
 21
-92.3151
  0
LINE
  8
0
 10
-0.709804
 20
-92.3151
 11
-0.709623
 21
-92.3148
  0
LINE
  8
0
 10
-0.709623
 20
-92.3148
 11
1.96893
 21
-88.6281
  0
LINE
  8
0
 10
1.96893
 20
-88.6281
 11
1.98478
 21
-88.6063
  0
LINE
  8
0
 10
1.98478
 20
-88.6063
 11
1.56221
 21
-86.8911
  0
LINE
  8
0
 10
1.56221
 20
-86.8911
 11
0.670477
 21
-83.2717
  0
LINE
  8
0
 10
0.670477
 20
-83.2717
 11
0.670477
 21
-83.2717
  0
LINE
  8
0
 10
0.670477
 20
-83.2717
 11
4.51855
 21
-78.998
  0
LINE
  8
0
 10
4.51855
 20
-78.998
 11
9.731
 21
-73.2089
  0
LINE
  8
0
 10
9.731
 20
-73.2089
 11
16.7212
 21
-68.4792
  0
LINE
  8
0
 10
16.7212
 20
-68.4792
 11
18.0085
 21
-67.6082
  0
LINE
  8
0
 10
18.0085
 20
-67.6082
 11
19.422
 21
-68.2889
  0
LINE
  8
0
 10
19.422
 20
-68.2889
 11
19.4534
 21
-68.304
  0
LINE
  8
0
 10
19.4534
 20
-68.304
 11
21.3462
 21
-68.304
  0
LINE
  8
0
 10
21.3462
 20
-68.304
 11
21.3775
 21
-68.2889
  0
LINE
  8
0
 10
21.3775
 20
-68.2889
 11
23.0515
 21
-67.4827
  0
LINE
  8
0
 10
23.0515
 20
-67.4827
 11
24.2099
 21
-66.0302
  0
LINE
  8
0
 10
24.2099
 20
-66.0302
 11
24.2316
 21
-66.0029
  0
LINE
  8
0
 10
24.2316
 20
-66.0029
 11
24.2394
 21
-65.9689
  0
LINE
  8
0
 10
24.2394
 20
-65.9689
 11
24.4927
 21
-64.8588
  0
LINE
  8
0
 10
24.4927
 20
-64.8588
 11
24.9639
 21
-64.7962
  0
LINE
  8
0
 10
24.9639
 20
-64.7962
 11
32.9574
 21
-63.7341
  0
LINE
  8
0
 10
32.9574
 20
-63.7341
 11
39.5552
 21
-63.7341
  0
LINE
  8
0
 10
39.5552
 20
-63.7341
 11
53.3794
 21
-63.7341
  0
LINE
  8
0
 10
53.3794
 20
-63.7341
 11
59.0748
 21
-56.5304
  0
LINE
  8
0
 10
59.0748
 20
-56.5304
 11
61.834
 21
-53.0405
  0
LINE
  8
0
 10
61.834
 20
-53.0405
 11
74.439
 21
-53.0405
  0
LINE
  8
0
 10
74.439
 20
-53.0405
 11
76.4736
 21
-53.0405
  0
LINE
  8
0
 10
76.4736
 20
-53.0405
 11
85.9588
 21
-53.0405
  0
LINE
  8
0
 10
85.9588
 20
-53.0405
 11
93.4116
 21
-53.0405
  0
LINE
  8
0
 10
93.4116
 20
-53.0405
 11
93.4528
 21
-53.0405
  0
LINE
  8
0
 10
93.4528
 20
-53.0405
 11
96.55
 21
-50.1038
  0
LINE
  8
0
 10
96.55
 20
-50.1038
 11
100.584
 21
-46.279
  0
LINE
  8
0
 10
100.584
 20
-46.279
 11
100.585
 21
-46.2243
  0
LINE
  8
0
 10
100.585
 20
-46.2243
 11
100.586
 21
-46.1824
  0
LINE
  8
0
 10
100.586
 20
-46.1824
 11
100.586
 21
-46.1824
  0
LINE
  8
0
 10
100.586
 20
-46.1824
 11
100.801
 21
-36.9902
  0
LINE
  8
0
 10
100.801
 20
-36.9902
 11
100.968
 21
-29.8582
  0
LINE
  8
0
 10
100.968
 20
-29.8582
 11
100.968
 21
-29.8582
  0
LINE
  8
0
 10
100.968
 20
-29.8582
 11
100.969
 21
-29.8065
  0
LINE
  8
0
 10
100.969
 20
-29.8065
 11
100.97
 21
-29.7616
  0
LINE
  8
0
 10
100.97
 20
-29.7616
 11
101.019
 21
-25.4868
  0
LINE
  8
0
 10
101.019
 20
-25.4868
 11
101.075
 21
-20.55
  0
LINE
  8
0
 10
101.075
 20
-20.55
 11
101.075
 21
-15.5587
  0
LINE
  8
0
 10
101.075
 20
-15.5587
 11
101.56
 21
-15.3251
  0
LINE
  8
0
 10
101.56
 20
-15.3251
 11
102.719
 21
-13.8726
  0
LINE
  8
0
 10
102.719
 20
-13.8726
 11
102.741
 21
-13.8453
  0
LINE
  8
0
 10
102.741
 20
-13.8453
 11
102.748
 21
-13.8113
  0
LINE
  8
0
 10
102.748
 20
-13.8113
 11
103.162
 21
-12
  0
LINE
  8
0
 10
103.162
 20
-12
 11
102.748
 21
-10.1887
  0
LINE
  8
0
 10
102.748
 20
-10.1887
 11
102.741
 21
-10.1547
  0
LINE
  8
0
 10
102.741
 20
-10.1547
 11
102.719
 21
-10.1274
  0
LINE
  8
0
 10
102.719
 20
-10.1274
 11
101.56
 21
-8.67486
  0
LINE
  8
0
 10
101.56
 20
-8.67486
 11
101.075
 21
-8.44128
  0
LINE
  8
0
 10
101.075
 20
-8.44128
 11
101.075
 21
-3.45
  0
LINE
  8
0
 10
101.075
 20
-3.45
 11
101.019
 21
1.48684
  0
LINE
  8
0
 10
101.019
 20
1.48684
 11
100.97
 21
5.76163
  0
LINE
  8
0
 10
100.97
 20
5.76163
 11
100.969
 21
5.80646
  0
LINE
  8
0
 10
100.969
 20
5.80646
 11
100.968
 21
5.85823
  0
LINE
  8
0
 10
100.968
 20
5.85823
 11
100.968
 21
5.85823
  0
LINE
  8
0
 10
100.968
 20
5.85823
 11
100.801
 21
12.9902
  0
LINE
  8
0
 10
100.801
 20
12.9902
 11
100.586
 21
22.1824
  0
LINE
  8
0
 10
100.586
 20
22.1824
 11
100.586
 21
22.1824
  0
LINE
  8
0
 10
100.586
 20
22.1824
 11
100.585
 21
22.2243
  0
LINE
  8
0
 10
100.585
 20
22.2243
 11
100.584
 21
22.279
  0
LINE
  8
0
 10
100.584
 20
22.279
 11
96.55
 21
26.1038
  0
LINE
  8
0
 10
96.55
 20
26.1038
 11
93.4528
 21
29.0405
  0
LINE
  8
0
 10
93.4528
 20
29.0405
 11
93.4116
 21
29.0405
  0
LINE
  8
0
 10
93.4116
 20
29.0405
 11
85.9588
 21
29.0405
  0
LINE
  8
0
 10
85.9588
 20
29.0405
 11
76.4736
 21
29.0405
  0
LINE
  8
0
 10
76.4736
 20
29.0405
 11
74.439
 21
29.0405
  0
LINE
  8
0
 10
74.439
 20
29.0405
 11
54.834
 21
29.0405
  0
LINE
  8
0
 10
54.834
 20
29.0405
 11
51.4169
 21
35.715
  0
LINE
  8
0
 10
51.4169
 20
35.715
 11
48.6905
 21
41.0405
  0
LINE
  8
0
 10
48.6905
 20
41.0405
 11
43.6463
 21
41.0405
  0
LINE
  8
0
 10
43.6463
 20
41.0405
 11
42.948
 21
41.9161
  0
LINE
  8
0
 10
42.948
 20
41.9161
 11
41.2741
 21
42.7222
  0
LINE
  8
0
 10
41.2741
 20
42.7222
 11
41.2427
 21
42.7373
  0
LINE
  8
0
 10
41.2427
 20
42.7373
 11
39.3499
 21
42.7373
  0
LINE
  8
0
 10
39.3499
 20
42.7373
 11
39.3185
 21
42.7222
  0
LINE
  8
0
 10
39.3185
 20
42.7222
 11
37.6446
 21
41.9161
  0
LINE
  8
0
 10
37.6446
 20
41.9161
 11
36.9463
 21
41.0405
  0
LINE
  8
0
 10
36.9463
 20
41.0405
 11
31.7552
 21
41.0405
  0
LINE
  8
0
 10
31.7552
 20
41.0405
 11
26.9554
 21
43.1785
  0
LINE
  8
0
 10
26.9554
 20
43.1785
 11
25.4243
 21
43.8605
  0
LINE
  8
0
 10
25.4243
 20
43.8605
 11
21.3516
 21
43.8605
  0
LINE
  8
0
 10
21.3516
 20
43.8605
 11
8.5841
 21
43.8604
  0
LINE
  8
0
 10
8.5841
 20
43.8604
 11
8.5841
 21
43.8604
  0
LINE
  8
0
 10
8.5841
 20
43.8604
 11
7.50037
 21
42.7006
  0
LINE
  8
0
 10
7.50037
 20
42.7006
 11
5.94924
 21
41.0405
  0
LINE
  8
0
 10
5.94924
 20
41.0405
 11
-3.67028
 21
41.0405
  0
LINE
  8
0
 10
-3.67028
 20
41.0405
 11
-3.71718
 21
41.0405
  0
LINE
  8
0
 10
-3.71718
 20
41.0405
 11
-10.4378
 21
41.0405
  0
LINE
  8
0
 10
-10.4378
 20
41.0405
 11
-13.347
 21
41.0405
  0
LINE
  8
0
 10
-13.347
 20
41.0405
 11
-13.3821
 21
41.0405
  0
LINE
  8
0
 10
-13.3821
 20
41.0405
 11
-14.91
 21
41.0405
  0
LINE
  8
0
 10
-14.91
 20
41.0405
 11
-25.5658
 21
41.0405
  0
LINE
  8
0
 10
-25.5658
 20
41.0405
 11
-30.8898
 21
41.0405
  0
LINE
  8
0
 10
-30.8898
 20
41.0405
 11
-30.916
 21
41.0405
  0
LINE
  8
0
 10
-30.916
 20
41.0405
 11
-34.5589
 21
38.0767
  0
LINE
  8
0
 10
-34.5589
 20
38.0767
 11
-35.9695
 21
36.929
  0
LINE
  8
0
 10
-35.9695
 20
36.929
 11
-42.9695
 21
29.929
  0
LINE
  8
0
 10
-42.9695
 20
29.929
 11
-43.3509
 21
25.7668
  0
LINE
  8
0
 10
-43.3509
 20
25.7668
 11
-44.6227
 21
25.7668
  0
LINE
  8
0
 10
-44.6227
 20
25.7668
 11
-44.6541
 21
25.7516
  0
LINE
  8
0
 10
-44.6541
 20
25.7516
 11
-46.3281
 21
24.9455
  0
LINE
  8
0
 10
-46.3281
 20
24.9455
 11
-47.4865
 21
23.4929
  0
LINE
  8
0
 10
-47.4865
 20
23.4929
 11
-47.5082
 21
23.4657
  0
LINE
  8
0
 10
-47.5082
 20
23.4657
 11
-47.5159
 21
23.4317
  0
LINE
  8
0
 10
-47.5159
 20
23.4317
 11
-47.9294
 21
21.6204
  0
LINE
  8
0
 10
-47.9294
 20
21.6204
 11
-47.5159
 21
19.809
  0
LINE
  8
0
 10
-47.5159
 20
19.809
 11
-47.5082
 21
19.7751
  0
LINE
  8
0
 10
-47.5082
 20
19.7751
 11
-47.4865
 21
19.7478
  0
LINE
  8
0
 10
-47.4865
 20
19.7478
 11
-46.3281
 21
18.2952
  0
LINE
  8
0
 10
-46.3281
 20
18.2952
 11
-44.6541
 21
17.4891
  0
LINE
  8
0
 10
-44.6541
 20
17.4891
 11
-44.6227
 21
17.474
  0
LINE
  8
0
 10
-44.6227
 20
17.474
 11
-44.1109
 21
17.474
  0
LINE
  8
0
 10
-44.1109
 20
17.474
 11
-44.4832
 21
13.4117
  0
LINE
  8
0
 10
-44.4832
 20
13.4117
 11
-44.6149
 21
10.4872
  0
LINE
  8
0
 10
-44.6149
 20
10.4872
 11
-44.6999
 21
8.59999
  0
LINE
  8
0
 10
-44.6999
 20
8.59999
 11
-44.6999
 21
-8.59999
  0
LINE
  8
0
 10
-44.6999
 20
-8.59999
 11
-44.6149
 21
-10.4872
  0
LINE
  8
0
 10
-44.6149
 20
-10.4872
 11
-44.4832
 21
-13.4117
  0
LINE
  8
0
 10
-44.4832
 20
-13.4117
 11
-43.5632
 21
-23.4509
  0
LINE
  8
0
 10
-43.5632
 20
-23.4509
 11
-42.9695
 21
-29.929
  0
LINE
  8
0
 10
-42.9695
 20
-29.929
 11
-40.745
 21
-32.6548
  0
LINE
  8
0
 10
-40.745
 20
-32.6548
 11
-37.1643
 21
-37.0423
  0
LINE
  8
0
 10
-37.1643
 20
-37.0423
 11
-38.5912
 21
-38.2396
  0
LINE
  8
0
 10
-38.5912
 20
-38.2396
 11
-39.8443
 21
-37.6361
  0
LINE
  8
0
 10
-39.8443
 20
-37.6361
 11
-39.8757
 21
-37.621
  0
LINE
  8
0
 10
-39.8757
 20
-37.621
 11
-41.7685
 21
-37.621
  0
LINE
  8
0
 10
-41.7685
 20
-37.621
 11
-41.7999
 21
-37.6361
  0
LINE
  8
0
 10
-41.7999
 20
-37.6361
 11
-43.4738
 21
-38.4422
  0
LINE
  8
0
 10
-43.4738
 20
-38.4422
 11
-44.6322
 21
-39.8948
  0
LINE
  8
0
 10
-44.6322
 20
-39.8948
 11
-44.654
 21
-39.9221
  0
LINE
  8
0
 10
-44.654
 20
-39.9221
 11
-44.6617
 21
-39.956
  0
LINE
  8
0
 10
-44.6617
 20
-39.956
 11
-45.0751
 21
-41.7674
  0
LINE
  8
0
 10
-45.0751
 20
-41.7674
 11
-44.7087
 21
-43.3728
  0
LINE
  8
0
 10
-44.7087
 20
-43.3728
 11
-45.1159
 21
-43.7145
  0
LINE
  8
0
 10
-45.1159
 20
-43.7145
 11
-45.1398
 21
-43.7345
  0
LINE
  8
0
 10
-45.1398
 20
-43.7345
 11
-45.6122
 21
-44.3106
  0
LINE
  8
0
 10
-45.6122
 20
-44.3106
 11
-46.3957
 21
-45.2659
  0
LINE
  8
0
 10
-46.3957
 20
-45.2659
 11
-46.3957
 21
-45.2659
  0
LINE
  8
0
 10
-46.3957
 20
-45.2659
 11
-45.9999
 21
-50.8704
  0
LINE
  8
0
 10
-45.9999
 20
-50.8704
 11
-45.5545
 21
-57.1769
  0
LINE
  8
0
 10
-45.5545
 20
-57.1769
 11
-48.3522
 21
-60.7578
  0
LINE
  8
0
 10
-48.3522
 20
-60.7578
 11
-49.9213
 21
-62.7662
  0
LINE
  8
0
 10
-49.9213
 20
-62.7662
 11
-52.64
 21
-67.6973
  0
LINE
  8
0
 10
-52.64
 20
-67.6973
 11
-54.9008
 21
-71.7979
  0
LINE
  8
0
 10
-52.4231
 20
-73.5787
 11
-48.9867
 21
-67.5298
  0
LINE
  8
0
 10
-48.9867
 20
-67.5298
 11
-44.4877
 21
-59.6107
  0
LINE
  8
0
 10
-44.4877
 20
-59.6107
 11
-44.0697
 21
-59.0757
  0
LINE
  8
0
 10
-44.0697
 20
-59.0757
 11
-42.521
 21
-57.0934
  0
LINE
  8
0
 10
-42.521
 20
-57.0934
 11
-42.4797
 21
-57.0405
  0
LINE
  8
0
 10
-42.4797
 20
-57.0405
 11
-43.2091
 21
-49.5976
  0
LINE
  8
0
 10
-43.2091
 20
-49.5976
 11
-43.5965
 21
-45.6435
  0
LINE
  8
0
 10
-43.5965
 20
-45.6435
 11
-43.1346
 21
-45.2559
  0
LINE
  8
0
 10
-43.1346
 20
-45.2559
 11
-41.7999
 21
-45.8986
  0
LINE
  8
0
 10
-41.7999
 20
-45.8986
 11
-41.7685
 21
-45.9138
  0
LINE
  8
0
 10
-41.7685
 20
-45.9138
 11
-39.8757
 21
-45.9138
  0
LINE
  8
0
 10
-39.8757
 20
-45.9138
 11
-39.8443
 21
-45.8986
  0
LINE
  8
0
 10
-39.8443
 20
-45.8986
 11
-38.1704
 21
-45.0925
  0
LINE
  8
0
 10
-38.1704
 20
-45.0925
 11
-37.012
 21
-43.6399
  0
LINE
  8
0
 10
-37.012
 20
-43.6399
 11
-36.9903
 21
-43.6127
  0
LINE
  8
0
 10
-36.9903
 20
-43.6127
 11
-36.9825
 21
-43.5787
  0
LINE
  8
0
 10
-36.9825
 20
-43.5787
 11
-36.5691
 21
-41.7674
  0
LINE
  8
0
 10
-36.5691
 20
-41.7674
 11
-36.9562
 21
-40.0716
  0
LINE
  8
0
 10
-36.9562
 20
-40.0716
 11
-35.0519
 21
-38.4737
  0
LINE
  8
0
 10
-35.0519
 20
-38.4737
 11
-35.0519
 21
-38.4737
  0
LINE
  8
0
 10
-35.0519
 20
-38.4737
 11
-34.5391
 21
-37.8484
  0
LINE
  8
0
 10
-34.5391
 20
-37.8484
 11
-34.539
 21
-37.8483
  0
LINE
  8
0
 10
-34.539
 20
-37.8483
 11
-33.796
 21
-36.9423
  0
LINE
  8
0
 10
-33.796
 20
-36.9423
 11
-33.796
 21
-36.9423
  0
LINE
  8
0
 10
-33.796
 20
-36.9423
 11
-33.8239
 21
-36.9128
  0
LINE
  8
0
 10
-33.8239
 20
-36.9128
 11
-33.8644
 21
-36.8699
  0
LINE
  8
0
 10
-33.8644
 20
-36.8699
 11
-38.0099
 21
-32.7033
  0
LINE
  8
0
 10
-38.0099
 20
-32.7033
 11
-40.8695
 21
-29.829
  0
LINE
  8
0
 10
-40.8695
 20
-29.829
 11
-41.3921
 21
-24.1263
  0
LINE
  8
0
 10
-41.3921
 20
-24.1263
 11
-42.3832
 21
-13.3117
  0
LINE
  8
0
 10
-42.3832
 20
-13.3117
 11
-42.5251
 21
-10.1613
  0
LINE
  8
0
 10
-42.5251
 20
-10.1613
 11
-42.5999
 21
-8.5
  0
LINE
  8
0
 10
-42.5999
 20
-8.5
 11
-42.5999
 21
8.5
  0
LINE
  8
0
 10
-42.5999
 20
8.5
 11
-42.5251
 21
10.1613
  0
LINE
  8
0
 10
-42.5251
 20
10.1613
 11
-42.3832
 21
13.3117
  0
LINE
  8
0
 10
-42.3832
 20
13.3117
 11
-41.9681
 21
17.8409
  0
LINE
  8
0
 10
-41.9681
 20
17.8409
 11
-41.0246
 21
18.2952
  0
LINE
  8
0
 10
-41.0246
 20
18.2952
 11
-40.5753
 21
18.8587
  0
LINE
  8
0
 10
-40.5753
 20
18.8587
 11
-40.5753
 21
-26.5027
  0
LINE
  8
0
 10
-40.5753
 20
-26.5027
 11
-31.5753
 21
-26.5027
  0
LINE
  8
0
 10
-31.5753
 20
-26.5027
 11
-31.5753
 21
24.5027
  0
LINE
  8
0
 10
-31.5753
 20
24.5027
 11
-40.5753
 21
24.5027
  0
LINE
  8
0
 10
-40.5753
 20
24.5027
 11
-40.5753
 21
24.3821
  0
LINE
  8
0
 10
-40.5753
 20
24.3821
 11
-41.0246
 21
24.9455
  0
LINE
  8
0
 10
-41.0246
 20
24.9455
 11
-41.3047
 21
25.0804
  0
LINE
  8
0
 10
-41.3047
 20
25.0804
 11
-40.8695
 21
29.829
  0
LINE
  8
0
 10
-40.8695
 20
29.829
 11
-35.8695
 21
34.829
  0
LINE
  8
0
 10
-35.8695
 20
34.829
 11
-34.3037
 21
35.6817
  0
LINE
  8
0
 10
-34.3037
 20
35.6817
 11
-29.8517
 21
38.1061
  0
LINE
  8
0
 10
-29.8517
 20
38.1061
 11
-18.0542
 21
38.1061
  0
LINE
  8
0
 10
-18.0542
 20
38.1061
 11
-13.9057
 21
38.1061
  0
LINE
  8
0
 10
-13.9057
 20
38.1061
 11
-10.9644
 21
38.1061
  0
LINE
  8
0
 10
-10.9644
 20
38.1061
 11
-9.66672
 21
38.1061
  0
LINE
  8
0
 10
-9.66672
 20
38.1061
 11
1.51707
 21
38.1061
  0
LINE
  8
0
 10
1.51707
 20
38.1061
 11
6.74441
 21
38.1061
  0
LINE
  8
0
 10
6.74441
 20
38.1061
 11
6.78015
 21
38.1061
  0
LINE
  8
0
 10
6.78015
 20
38.1061
 11
6.78015
 21
38.1061
  0
LINE
  8
0
 10
6.78015
 20
38.1061
 11
8.28816
 21
39.8817
  0
LINE
  8
0
 10
8.28816
 20
39.8817
 11
8.28822
 21
39.8817
  0
LINE
  8
0
 10
8.28822
 20
39.8817
 11
9.17526
 21
40.9261
  0
LINE
  8
0
 10
9.17526
 20
40.9261
 11
17.0055
 21
40.9261
  0
LINE
  8
0
 10
17.0055
 20
40.9261
 11
25.8185
 21
40.9261
  0
LINE
  8
0
 10
25.8185
 20
40.9261
 11
28.6336
 21
39.6214
  0
LINE
  8
0
 10
28.6336
 20
39.6214
 11
31.9028
 21
38.1061
  0
LINE
  8
0
 10
31.9028
 20
38.1061
 11
36.1539
 21
38.1061
  0
LINE
  8
0
 10
36.1539
 20
38.1061
 11
36.4567
 21
36.7796
  0
LINE
  8
0
 10
36.4567
 20
36.7796
 11
36.4644
 21
36.7456
  0
LINE
  8
0
 10
36.4644
 20
36.7456
 11
36.4862
 21
36.7184
  0
LINE
  8
0
 10
36.4862
 20
36.7184
 11
37.6446
 21
35.2658
  0
LINE
  8
0
 10
37.6446
 20
35.2658
 11
39.3185
 21
34.4597
  0
LINE
  8
0
 10
39.3185
 20
34.4597
 11
39.3499
 21
34.4446
  0
LINE
  8
0
 10
39.3499
 20
34.4446
 11
41.2427
 21
34.4446
  0
LINE
  8
0
 10
41.2427
 20
34.4446
 11
41.2741
 21
34.4597
  0
LINE
  8
0
 10
41.2741
 20
34.4597
 11
42.948
 21
35.2658
  0
LINE
  8
0
 10
42.948
 20
35.2658
 11
44.1064
 21
36.7184
  0
LINE
  8
0
 10
44.1064
 20
36.7184
 11
44.1281
 21
36.7456
  0
LINE
  8
0
 10
44.1281
 20
36.7456
 11
44.1359
 21
36.7796
  0
LINE
  8
0
 10
44.1359
 20
36.7796
 11
44.4386
 21
38.1061
  0
LINE
  8
0
 10
44.4386
 20
38.1061
 11
48.8382
 21
38.1061
  0
LINE
  8
0
 10
48.8382
 20
38.1061
 11
51.8074
 21
32.0627
  0
LINE
  8
0
 10
51.8074
 20
32.0627
 11
54.734
 21
26.1061
  0
LINE
  8
0
 10
54.734
 20
26.1061
 11
71.734
 21
26.1061
  0
LINE
  8
0
 10
71.734
 20
26.1061
 11
73.5101
 21
26.1061
  0
LINE
  8
0
 10
73.5101
 20
26.1061
 11
76.2096
 21
26.1061
  0
LINE
  8
0
 10
76.2096
 20
26.1061
 11
82.4781
 21
26.1061
  0
LINE
  8
0
 10
82.4781
 20
26.1061
 11
93.1059
 21
26.1061
  0
LINE
  8
0
 10
93.1059
 20
26.1061
 11
96.313
 21
23.0653
  0
LINE
  8
0
 10
96.313
 20
23.0653
 11
98.1996
 21
21.2765
  0
LINE
  8
0
 10
98.1996
 20
21.2765
 11
98.4344
 21
11.2248
  0
LINE
  8
0
 10
98.4344
 20
11.2248
 11
98.5808
 21
4.95235
  0
LINE
  8
0
 10
98.5808
 20
4.95235
 11
98.6279
 21
0.851838
  0
LINE
  8
0
 10
98.6279
 20
0.851838
 11
98.6784
 21
-3.54999
  0
LINE
  8
0
 10
98.6784
 20
-3.54999
 11
98.6784
 21
-7.85361
  0
LINE
  8
0
 10
98.6784
 20
-7.85361
 11
97.9624
 21
-7.85361
  0
LINE
  8
0
 10
97.9624
 20
-7.85361
 11
97.931
 21
-7.86873
  0
LINE
  8
0
 10
97.931
 20
-7.86873
 11
96.2571
 21
-8.67486
  0
LINE
  8
0
 10
96.2571
 20
-8.67486
 11
95.0987
 21
-10.1274
  0
LINE
  8
0
 10
95.0987
 20
-10.1274
 11
95.0769
 21
-10.1547
  0
LINE
  8
0
 10
95.0769
 20
-10.1547
 11
95.0692
 21
-10.1887
  0
LINE
  8
0
 10
95.0692
 20
-10.1887
 11
94.6557
 21
-12
  0
LINE
  8
0
 10
94.6557
 20
-12
 11
95.0692
 21
-13.8113
  0
LINE
  8
0
 10
95.0692
 20
-13.8113
 11
95.0769
 21
-13.8453
  0
LINE
  8
0
 10
95.0769
 20
-13.8453
 11
95.0987
 21
-13.8726
  0
LINE
  8
0
 10
95.0987
 20
-13.8726
 11
96.2571
 21
-15.3251
  0
LINE
  8
0
 10
96.2571
 20
-15.3251
 11
97.931
 21
-16.1313
  0
LINE
  8
0
 10
97.931
 20
-16.1313
 11
97.9624
 21
-16.1464
  0
LINE
  8
0
 10
97.9624
 20
-16.1464
 11
98.6784
 21
-16.1464
  0
LINE
  8
0
 10
98.6784
 20
-16.1464
 11
98.6784
 21
-20.45
  0
LINE
  8
0
 10
98.6784
 20
-20.45
 11
98.6279
 21
-24.8518
  0
LINE
  8
0
 10
98.6279
 20
-24.8518
 11
98.5808
 21
-28.9524
  0
LINE
  8
0
 10
98.5808
 20
-28.9524
 11
98.4344
 21
-35.2248
  0
LINE
  8
0
 10
98.4344
 20
-35.2248
 11
98.1996
 21
-45.2765
  0
LINE
  8
0
 10
98.1996
 20
-45.2765
 11
96.313
 21
-47.0653
  0
LINE
  8
0
 10
96.313
 20
-47.0653
 11
93.1059
 21
-50.1061
  0
LINE
  8
0
 10
93.1059
 20
-50.1061
 11
82.4781
 21
-50.1061
  0
LINE
  8
0
 10
82.4781
 20
-50.1061
 11
76.2096
 21
-50.1061
  0
LINE
  8
0
 10
76.2096
 20
-50.1061
 11
73.5101
 21
-50.1061
  0
LINE
  8
0
 10
73.5101
 20
-50.1061
 11
71.734
 21
-50.1061
  0
LINE
  8
0
 10
71.734
 20
-50.1061
 11
54.734
 21
-50.1061
  0
LINE
  8
0
 10
54.734
 20
-50.1061
 11
54.734
 21
-50.8899
  0
LINE
  8
0
 10
54.734
 20
-50.8899
 11
54.734
 21
-52.6905
  0
LINE
  8
0
 10
54.734
 20
-52.6905
 11
54.734
 21
-53.0405
  0
LINE
  8
0
 10
54.734
 20
-53.0405
 11
54.734
 21
-53.0405
  0
LINE
  8
0
 10
54.734
 20
-53.0405
 11
57.6111
 21
-53.0405
  0
LINE
  8
0
 10
57.6111
 20
-53.0405
 11
57.5079
 21
-53.1831
  0
LINE
  8
0
 10
57.5079
 20
-53.1831
 11
52.4562
 21
-60.1654
  0
LINE
  8
0
 10
52.4562
 20
-60.1654
 11
46.8757
 21
-60.1654
  0
LINE
  8
0
 10
46.8757
 20
-60.1654
 11
33.0304
 21
-60.1654
  0
LINE
  8
0
 10
33.0304
 20
-60.1654
 11
29.728
 21
-60.8495
  0
LINE
  8
0
 10
29.728
 20
-60.8495
 11
24.0097
 21
-62.034
  0
LINE
  8
0
 10
24.0097
 20
-62.034
 11
23.0515
 21
-60.8325
  0
LINE
  8
0
 10
23.0515
 20
-60.8325
 11
21.3775
 21
-60.0263
  0
LINE
  8
0
 10
21.3775
 20
-60.0263
 11
21.3462
 21
-60.0112
  0
LINE
  8
0
 10
21.3462
 20
-60.0112
 11
19.4534
 21
-60.0112
  0
LINE
  8
0
 10
19.4534
 20
-60.0112
 11
19.422
 21
-60.0263
  0
LINE
  8
0
 10
19.422
 20
-60.0263
 11
17.7481
 21
-60.8325
  0
LINE
  8
0
 10
17.7481
 20
-60.8325
 11
16.5897
 21
-62.285
  0
LINE
  8
0
 10
16.5897
 20
-62.285
 11
16.5679
 21
-62.3123
  0
LINE
  8
0
 10
16.5679
 20
-62.3123
 11
16.5602
 21
-62.3463
  0
LINE
  8
0
 10
16.5602
 20
-62.3463
 11
16.1467
 21
-64.1576
  0
LINE
  8
0
 10
16.1467
 20
-64.1576
 11
16.5602
 21
-65.9689
  0
LINE
  8
0
 10
16.5602
 20
-65.9689
 11
16.5679
 21
-66.0029
  0
LINE
  8
0
 10
16.5679
 20
-66.0029
 11
16.5897
 21
-66.0302
  0
LINE
  8
0
 10
16.5897
 20
-66.0302
 11
16.6091
 21
-66.0545
  0
LINE
  8
0
 10
16.6091
 20
-66.0545
 11
16.5745
 21
-66.0773
  0
LINE
  8
0
 10
16.5745
 20
-66.0773
 11
8.63104
 21
-71.3094
  0
LINE
  8
0
 10
8.63104
 20
-71.3094
 11
7.70384
 21
-72.0171
  0
LINE
  8
0
 10
7.70384
 20
-72.0171
 11
7.05673
 21
-72.5111
  0
LINE
  8
0
 10
7.05673
 20
-72.5111
 11
7.02166
 21
-72.55
  0
LINE
  8
0
 10
7.02166
 20
-72.55
 11
7.00125
 21
-72.5727
  0
LINE
  8
0
 10
7.00125
 20
-72.5727
 11
1.67849
 21
-78.4842
  0
LINE
  8
0
 10
1.67849
 20
-78.4842
 11
-2.42922
 21
-83.0463
  0
LINE
  8
0
 10
-2.42922
 20
-83.0463
 11
-2.42922
 21
-83.0463
  0
LINE
  8
0
 10
-2.42922
 20
-83.0463
 11
-1.80599
 21
-86.0476
  0
LINE
  8
0
 10
-1.80599
 20
-86.0476
 11
-1.36986
 21
-88.148
  0
LINE
  8
0
 10
-1.36986
 20
-88.148
 11
-1.36986
 21
-88.148
  0
LINE
  8
0
 10
-1.36986
 20
-88.148
 11
-4.80665
 21
-92.8783
  0
LINE
  8
0
 10
-4.80665
 20
-92.8783
 11
-5.65471
 21
-94.0455
  0
LINE
  8
0
 10
-5.65471
 20
-94.0455
 11
-13.0151
 21
-98.9217
  0
LINE
  8
0
 10
-13.0151
 20
-98.9217
 11
-17.0335
 21
-98.9758
  0
LINE
  8
0
 10
-17.0335
 20
-98.9758
 11
-21.1753
 21
-95.3523
  0
LINE
  8
0
 10
-21.1753
 20
-95.3523
 11
-30.1343
 21
-87.5144
  0
LINE
  8
0
 10
-30.1343
 20
-87.5144
 11
-30.1343
 21
-87.5144
  0
LINE
  8
0
 10
-30.1343
 20
-87.5144
 11
-30.201
 21
-87.456
  0
LINE
  8
0
 10
-30.201
 20
-87.456
 11
-30.2118
 21
-87.4466
  0
LINE
  8
0
 10
-30.2118
 20
-87.4466
 11
-32.0626
 21
-87.1265
  0
LINE
  8
0
 10
-32.0626
 20
-87.1265
 11
-39.053
 21
-87.1187
  0
LINE
  8
0
 10
-39.053
 20
-87.1187
 11
-47.5084
 21
-80.1934
  0
LINE
  8
0
 10
-47.5084
 20
-80.1934
 11
-52.1506
 21
-76.3912
  0
LINE
  8
0
 10
-52.1506
 20
-76.3912
 11
-52.4231
 21
-73.5787
  0
LINE
  8
0
 10
-45.3763
 20
21.6204
 11
-44.5263
 21
23.0926
  0
LINE
  8
0
 10
-44.5263
 20
23.0926
 11
-42.8263
 21
23.0926
  0
LINE
  8
0
 10
-42.8263
 20
23.0926
 11
-41.9763
 21
21.6204
  0
LINE
  8
0
 10
-41.9763
 20
21.6204
 11
-42.8263
 21
20.1481
  0
LINE
  8
0
 10
-42.8263
 20
20.1481
 11
-44.5263
 21
20.1481
  0
LINE
  8
0
 10
-44.5263
 20
20.1481
 11
-45.3763
 21
21.6204
  0
LINE
  8
0
 10
-42.5221
 20
-41.7674
 11
-41.6721
 21
-40.2951
  0
LINE
  8
0
 10
-41.6721
 20
-40.2951
 11
-39.9721
 21
-40.2951
  0
LINE
  8
0
 10
-39.9721
 20
-40.2951
 11
-39.1221
 21
-41.7674
  0
LINE
  8
0
 10
-39.1221
 20
-41.7674
 11
-39.9721
 21
-43.2396
  0
LINE
  8
0
 10
-39.9721
 20
-43.2396
 11
-41.6721
 21
-43.2396
  0
LINE
  8
0
 10
-41.6721
 20
-43.2396
 11
-42.5221
 21
-41.7674
  0
LINE
  8
0
 10
18.6998
 20
-64.1576
 11
19.5498
 21
-62.6854
  0
LINE
  8
0
 10
19.5498
 20
-62.6854
 11
21.2498
 21
-62.6854
  0
LINE
  8
0
 10
21.2498
 20
-62.6854
 11
22.0998
 21
-64.1576
  0
LINE
  8
0
 10
22.0998
 20
-64.1576
 11
21.2498
 21
-65.6298
  0
LINE
  8
0
 10
21.2498
 20
-65.6298
 11
19.5498
 21
-65.6298
  0
LINE
  8
0
 10
19.5498
 20
-65.6298
 11
18.6998
 21
-64.1576
  0
LINE
  8
0
 10
38.5963
 20
38.591
 11
39.4463
 21
40.0632
  0
LINE
  8
0
 10
39.4463
 20
40.0632
 11
41.1463
 21
40.0632
  0
LINE
  8
0
 10
41.1463
 20
40.0632
 11
41.9963
 21
38.591
  0
LINE
  8
0
 10
41.9963
 20
38.591
 11
41.1463
 21
37.1187
  0
LINE
  8
0
 10
41.1463
 20
37.1187
 11
39.4463
 21
37.1187
  0
LINE
  8
0
 10
39.4463
 20
37.1187
 11
38.5963
 21
38.591
  0
LINE
  8
0
 10
97.2088
 20
-12
 11
98.0588
 21
-10.5278
  0
LINE
  8
0
 10
98.0588
 20
-10.5278
 11
99.7588
 21
-10.5278
  0
LINE
  8
0
 10
99.7588
 20
-10.5278
 11
100.609
 21
-12
  0
LINE
  8
0
 10
100.609
 20
-12
 11
99.7588
 21
-13.4722
  0
LINE
  8
0
 10
99.7588
 20
-13.4722
 11
98.0588
 21
-13.4722
  0
LINE
  8
0
 10
98.0588
 20
-13.4722
 11
97.2088
 21
-12
  0
ENDSEC
  0
SECTION
  2
OBJECTS
  0
DICTIONARY
  0
ENDSEC
  0
EOF
