  0
SECTION
  2
BLOCKS
  0
ENDSEC
  0
SECTION
  2
ENTITIES
  0
LINE
  8
0
 10
-71.1872
 20
-67.9512
 11
-70.4449
 21
-75.1503
  0
LINE
  8
0
 10
-70.4449
 20
-75.1503
 11
-70.334
 21
-76.2263
  0
LINE
  8
0
 10
-70.334
 20
-76.2263
 11
-70.2566
 21
-76.2899
  0
LINE
  8
0
 10
-70.2566
 20
-76.2899
 11
-57.1733
 21
-87.0344
  0
LINE
  8
0
 10
-57.1733
 20
-87.0344
 11
-57.1733
 21
-87.0344
  0
LINE
  8
0
 10
-57.1733
 20
-87.0344
 11
-57.123
 21
-87.0758
  0
LINE
  8
0
 10
-57.123
 20
-87.0758
 11
-57.0959
 21
-87.098
  0
LINE
  8
0
 10
-57.0959
 20
-87.098
 11
-53.3639
 21
-89.0687
  0
LINE
  8
0
 10
-53.3639
 20
-89.0687
 11
-51.0408
 21
-89.5643
  0
LINE
  8
0
 10
-51.0408
 20
-89.5643
 11
-51.0408
 21
-89.5643
  0
LINE
  8
0
 10
-51.0408
 20
-89.5643
 11
-44.7827
 21
-95.0976
  0
LINE
  8
0
 10
-44.7827
 20
-95.0976
 11
-38.0046
 21
-101.091
  0
LINE
  8
0
 10
-38.0046
 20
-101.091
 11
-38.0046
 21
-101.091
  0
LINE
  8
0
 10
-38.0046
 20
-101.091
 11
-37.9275
 21
-101.159
  0
LINE
  8
0
 10
-37.9275
 20
-101.159
 11
-37.0445
 21
-101.155
  0
LINE
  8
0
 10
-37.0445
 20
-101.155
 11
-29.0723
 21
-101.117
  0
LINE
  8
0
 10
-29.0723
 20
-101.117
 11
-28.5284
 21
-101.12
  0
LINE
  8
0
 10
-28.5284
 20
-101.12
 11
-27.98
 21
-101.124
  0
LINE
  8
0
 10
-27.98
 20
-101.124
 11
-27.8569
 21
-101.063
  0
LINE
  8
0
 10
-27.8569
 20
-101.063
 11
-27.8569
 21
-101.063
  0
LINE
  8
0
 10
-27.8569
 20
-101.063
 11
-27.5082
 21
-100.892
  0
LINE
  8
0
 10
-27.5082
 20
-100.892
 11
-27.4459
 21
-100.829
  0
LINE
  8
0
 10
-27.4459
 20
-100.829
 11
-24.2173
 21
-97.5864
  0
LINE
  8
0
 10
-24.2173
 20
-97.5864
 11
-21.2037
 21
-93.4386
  0
LINE
  8
0
 10
-21.2037
 20
-93.4386
 11
-17.6929
 21
-88.6063
  0
LINE
  8
0
 10
-17.6929
 20
-88.6063
 11
-18.2403
 21
-86.3845
  0
LINE
  8
0
 10
-18.2403
 20
-86.3845
 11
-19.0072
 21
-83.2717
  0
LINE
  8
0
 10
-19.0072
 20
-83.2717
 11
-19.0072
 21
-83.2717
  0
LINE
  8
0
 10
-19.0072
 20
-83.2717
 11
-15.5023
 21
-79.3792
  0
LINE
  8
0
 10
-15.5023
 20
-79.3792
 11
-9.94664
 21
-73.2089
  0
LINE
  8
0
 10
-9.94664
 20
-73.2089
 11
-7.80672
 21
-71.761
  0
LINE
  8
0
 10
-7.80672
 20
-71.761
 11
-1.59225
 21
-67.5562
  0
LINE
  8
0
 10
-1.59225
 20
-67.5562
 11
-0.0707541
 21
-68.2889
  0
LINE
  8
0
 10
-0.0707541
 20
-68.2889
 11
-0.0393576
 21
-68.304
  0
LINE
  8
0
 10
-0.0393576
 20
-68.304
 11
1.85341
 21
-68.304
  0
LINE
  8
0
 10
1.85341
 20
-68.304
 11
1.88481
 21
-68.2889
  0
LINE
  8
0
 10
1.88481
 20
-68.2889
 11
3.55874
 21
-67.4827
  0
LINE
  8
0
 10
3.55874
 20
-67.4827
 11
4.71714
 21
-66.0302
  0
LINE
  8
0
 10
4.71714
 20
-66.0302
 11
4.73886
 21
-66.0029
  0
LINE
  8
0
 10
4.73886
 20
-66.0029
 11
4.74662
 21
-65.9689
  0
LINE
  8
0
 10
4.74662
 20
-65.9689
 11
5.01064
 21
-64.8122
  0
LINE
  8
0
 10
5.01064
 20
-64.8122
 11
9.8735
 21
-64.1357
  0
LINE
  8
0
 10
9.8735
 20
-64.1357
 11
12.7602
 21
-63.7341
  0
LINE
  8
0
 10
12.7602
 20
-63.7341
 11
19.5517
 21
-63.7341
  0
LINE
  8
0
 10
19.5517
 20
-63.7341
 11
19.5894
 21
-63.7341
  0
LINE
  8
0
 10
19.5894
 20
-63.7341
 11
32.9487
 21
-63.7341
  0
LINE
  8
0
 10
32.9487
 20
-63.7341
 11
37.7161
 21
-56.6921
  0
LINE
  8
0
 10
37.7161
 20
-56.6921
 11
40.1883
 21
-53.0405
  0
LINE
  8
0
 10
40.1883
 20
-53.0405
 11
41.7356
 21
-53.0405
  0
LINE
  8
0
 10
41.7356
 20
-53.0405
 11
50.101
 21
-53.0405
  0
LINE
  8
0
 10
50.101
 20
-53.0405
 11
52.4446
 21
-53.0405
  0
LINE
  8
0
 10
52.4446
 20
-53.0405
 11
71.834
 21
-53.0405
  0
LINE
  8
0
 10
71.834
 20
-53.0405
 11
75.7734
 21
-49.2353
  0
LINE
  8
0
 10
75.7734
 20
-49.2353
 11
78.834
 21
-46.279
  0
LINE
  8
0
 10
78.834
 20
-46.279
 11
78.834
 21
-46.2245
  0
LINE
  8
0
 10
78.834
 20
-46.2245
 11
78.834
 21
-46.2245
  0
LINE
  8
0
 10
78.834
 20
-46.2245
 11
78.834
 21
-33.941
  0
LINE
  8
0
 10
78.834
 20
-33.941
 11
78.834
 21
-29.7861
  0
LINE
  8
0
 10
78.834
 20
-29.7861
 11
78.834
 21
-22.2202
  0
LINE
  8
0
 10
78.834
 20
-22.2202
 11
78.834
 21
-1.77984
  0
LINE
  8
0
 10
78.834
 20
-1.77984
 11
78.834
 21
5.78608
  0
LINE
  8
0
 10
78.834
 20
5.78608
 11
78.834
 21
9.86368
  0
LINE
  8
0
 10
78.834
 20
9.86368
 11
79.4857
 21
10.1775
  0
LINE
  8
0
 10
79.4857
 20
10.1775
 11
80.6441
 21
11.6301
  0
LINE
  8
0
 10
80.6441
 20
11.6301
 11
80.6659
 21
11.6574
  0
LINE
  8
0
 10
80.6659
 20
11.6574
 11
80.6736
 21
11.6913
  0
LINE
  8
0
 10
80.6736
 20
11.6913
 11
81.0871
 21
13.5027
  0
LINE
  8
0
 10
81.0871
 20
13.5027
 11
80.6736
 21
15.314
  0
LINE
  8
0
 10
80.6736
 20
15.314
 11
80.6659
 21
15.348
  0
LINE
  8
0
 10
80.6659
 20
15.348
 11
80.6441
 21
15.3752
  0
LINE
  8
0
 10
80.6441
 20
15.3752
 11
79.4857
 21
16.8278
  0
LINE
  8
0
 10
79.4857
 20
16.8278
 11
78.834
 21
17.1417
  0
LINE
  8
0
 10
78.834
 20
17.1417
 11
78.834
 21
22.2245
  0
LINE
  8
0
 10
78.834
 20
22.2245
 11
78.834
 21
26.0085
  0
LINE
  8
0
 10
78.834
 20
26.0085
 11
78.834
 21
26.07
  0
LINE
  8
0
 10
78.834
 20
26.07
 11
78.834
 21
30.9088
  0
LINE
  8
0
 10
78.834
 20
30.9088
 11
78.834
 21
38.7159
  0
LINE
  8
0
 10
78.834
 20
38.7159
 11
78.834
 21
45.6427
  0
LINE
  8
0
 10
78.834
 20
45.6427
 11
78.834
 21
45.6427
  0
LINE
  8
0
 10
78.834
 20
45.6427
 11
78.834
 21
45.6719
  0
LINE
  8
0
 10
78.834
 20
45.6719
 11
74.1866
 21
49.6967
  0
LINE
  8
0
 10
74.1866
 20
49.6967
 11
71.834
 21
51.7341
  0
LINE
  8
0
 10
71.834
 20
51.7341
 11
52.3007
 21
51.7341
  0
LINE
  8
0
 10
52.3007
 20
51.7341
 11
51.2827
 21
51.7341
  0
LINE
  8
0
 10
51.2827
 20
51.7341
 11
39.4229
 21
51.7341
  0
LINE
  8
0
 10
39.4229
 20
51.7341
 11
34.4171
 21
51.7341
  0
LINE
  8
0
 10
34.4171
 20
51.7341
 11
32.7725
 21
55.7494
  0
LINE
  8
0
 10
32.7725
 20
55.7494
 11
29.5019
 21
63.7341
  0
LINE
  8
0
 10
29.5019
 20
63.7341
 11
24.3336
 21
63.7341
  0
LINE
  8
0
 10
24.3336
 20
63.7341
 11
23.8606
 21
64.3272
  0
LINE
  8
0
 10
23.8606
 20
64.3272
 11
22.1867
 21
65.1333
  0
LINE
  8
0
 10
22.1867
 20
65.1333
 11
22.1553
 21
65.1484
  0
LINE
  8
0
 10
22.1553
 20
65.1484
 11
20.2625
 21
65.1484
  0
LINE
  8
0
 10
20.2625
 20
65.1484
 11
20.2311
 21
65.1333
  0
LINE
  8
0
 10
20.2311
 20
65.1333
 11
18.5572
 21
64.3272
  0
LINE
  8
0
 10
18.5572
 20
64.3272
 11
18.0842
 21
63.7341
  0
LINE
  8
0
 10
18.0842
 20
63.7341
 11
12.7602
 21
63.7341
  0
LINE
  8
0
 10
12.7602
 20
63.7341
 11
9.22481
 21
65.6945
  0
LINE
  8
0
 10
9.22481
 20
65.6945
 11
7.67479
 21
66.5541
  0
LINE
  8
0
 10
7.67479
 20
66.5541
 11
-2.79991
 21
66.5541
  0
LINE
  8
0
 10
-2.79991
 20
66.5541
 11
-2.84088
 21
66.5541
  0
LINE
  8
0
 10
-2.84088
 20
66.5541
 11
-8.84253
 21
66.5541
  0
LINE
  8
0
 10
-8.84253
 20
66.5541
 11
-9.18837
 21
65.8478
  0
LINE
  8
0
 10
-9.18837
 20
65.8478
 11
-10.2235
 21
63.7341
  0
LINE
  8
0
 10
-10.2235
 20
63.7341
 11
-22.1707
 21
63.7341
  0
LINE
  8
0
 10
-22.1707
 20
63.7341
 11
-22.1977
 21
63.7341
  0
LINE
  8
0
 10
-22.1977
 20
63.7341
 11
-26.1777
 21
63.7341
  0
LINE
  8
0
 10
-26.1777
 20
63.7341
 11
-28.6907
 21
63.7341
  0
LINE
  8
0
 10
-28.6907
 20
63.7341
 11
-28.7118
 21
63.7341
  0
LINE
  8
0
 10
-28.7118
 20
63.7341
 11
-29.3968
 21
63.7341
  0
LINE
  8
0
 10
-29.3968
 20
63.7341
 11
-41.5238
 21
63.7341
  0
LINE
  8
0
 10
-41.5238
 20
63.7341
 11
-41.546
 21
63.7341
  0
LINE
  8
0
 10
-41.546
 20
63.7341
 11
-44.8233
 21
63.7341
  0
LINE
  8
0
 10
-44.8233
 20
63.7341
 11
-49.15
 21
57.6098
  0
LINE
  8
0
 10
-49.15
 20
57.6098
 11
-50.1305
 21
56.2219
  0
LINE
  8
0
 10
-50.1305
 20
56.2219
 11
-57.1305
 21
49.2219
  0
LINE
  8
0
 10
-57.1305
 20
49.2219
 11
-57.938
 21
45.9124
  0
LINE
  8
0
 10
-57.938
 20
45.9124
 11
-57.9408
 21
45.9138
  0
LINE
  8
0
 10
-57.9408
 20
45.9138
 11
-59.8336
 21
45.9138
  0
LINE
  8
0
 10
-59.8336
 20
45.9138
 11
-59.865
 21
45.8986
  0
LINE
  8
0
 10
-59.865
 20
45.8986
 11
-61.5389
 21
45.0925
  0
LINE
  8
0
 10
-61.5389
 20
45.0925
 11
-62.6973
 21
43.6399
  0
LINE
  8
0
 10
-62.6973
 20
43.6399
 11
-62.719
 21
43.6127
  0
LINE
  8
0
 10
-62.719
 20
43.6127
 11
-62.7268
 21
43.5787
  0
LINE
  8
0
 10
-62.7268
 20
43.5787
 11
-63.1402
 21
41.7674
  0
LINE
  8
0
 10
-63.1402
 20
41.7674
 11
-62.7268
 21
39.956
  0
LINE
  8
0
 10
-62.7268
 20
39.956
 11
-62.719
 21
39.9221
  0
LINE
  8
0
 10
-62.719
 20
39.9221
 11
-62.6973
 21
39.8948
  0
LINE
  8
0
 10
-62.6973
 20
39.8948
 11
-61.5389
 21
38.4422
  0
LINE
  8
0
 10
-61.5389
 20
38.4422
 11
-59.9477
 21
37.6759
  0
LINE
  8
0
 10
-59.9477
 20
37.6759
 11
-60.7439
 21
34.4128
  0
LINE
  8
0
 10
-60.7439
 20
34.4128
 11
-60.9678
 21
33.1338
  0
LINE
  8
0
 10
-60.9678
 20
33.1338
 11
-61.5288
 21
29.929
  0
LINE
  8
0
 10
-61.5288
 20
29.929
 11
-62.8657
 21
18.1235
  0
LINE
  8
0
 10
-62.8657
 20
18.1235
 11
-63.3992
 21
13.4117
  0
LINE
  8
0
 10
-63.3992
 20
13.4117
 11
-63.487
 21
11.8349
  0
LINE
  8
0
 10
-63.487
 20
11.8349
 11
-63.6669
 21
8.59999
  0
LINE
  8
0
 10
-63.6669
 20
8.59999
 11
-63.6669
 21
-8.59999
  0
LINE
  8
0
 10
-63.6669
 20
-8.59999
 11
-63.487
 21
-11.8349
  0
LINE
  8
0
 10
-63.487
 20
-11.8349
 11
-63.3992
 21
-13.4117
  0
LINE
  8
0
 10
-63.3992
 20
-13.4117
 11
-62.8657
 21
-18.1235
  0
LINE
  8
0
 10
-62.8657
 20
-18.1235
 11
-61.5288
 21
-29.929
  0
LINE
  8
0
 10
-61.5288
 20
-29.929
 11
-58.0136
 21
-35.2158
  0
LINE
  8
0
 10
-58.0136
 20
-35.2158
 11
-56.8145
 21
-37.0192
  0
LINE
  8
0
 10
-56.8145
 20
-37.0192
 11
-57.6808
 21
-37.7462
  0
LINE
  8
0
 10
-57.6808
 20
-37.7462
 11
-57.9094
 21
-37.6361
  0
LINE
  8
0
 10
-57.9094
 20
-37.6361
 11
-57.9408
 21
-37.621
  0
LINE
  8
0
 10
-57.9408
 20
-37.621
 11
-59.8336
 21
-37.621
  0
LINE
  8
0
 10
-59.8336
 20
-37.621
 11
-59.865
 21
-37.6361
  0
LINE
  8
0
 10
-59.865
 20
-37.6361
 11
-61.5389
 21
-38.4422
  0
LINE
  8
0
 10
-61.5389
 20
-38.4422
 11
-62.6973
 21
-39.8948
  0
LINE
  8
0
 10
-62.6973
 20
-39.8948
 11
-62.719
 21
-39.9221
  0
LINE
  8
0
 10
-62.719
 20
-39.9221
 11
-62.7268
 21
-39.956
  0
LINE
  8
0
 10
-62.7268
 20
-39.956
 11
-63.1402
 21
-41.7674
  0
LINE
  8
0
 10
-63.1402
 20
-41.7674
 11
-63.033
 21
-42.2372
  0
LINE
  8
0
 10
-63.033
 20
-42.2372
 11
-64.7884
 21
-43.7101
  0
LINE
  8
0
 10
-64.7884
 20
-43.7101
 11
-64.7884
 21
-43.7101
  0
LINE
  8
0
 10
-64.7884
 20
-43.7101
 11
-64.8174
 21
-43.7345
  0
LINE
  8
0
 10
-64.8174
 20
-43.7345
 11
-65.3918
 21
-44.4349
  0
LINE
  8
0
 10
-65.3918
 20
-44.4349
 11
-65.3918
 21
-44.4349
  0
LINE
  8
0
 10
-65.3918
 20
-44.4349
 11
-66.0733
 21
-45.2659
  0
LINE
  8
0
 10
-66.0733
 20
-45.2659
 11
-66.0733
 21
-45.2659
  0
LINE
  8
0
 10
-66.0733
 20
-45.2659
 11
-64.0368
 21
-50.5206
  0
LINE
  8
0
 10
-64.0368
 20
-50.5206
 11
-62.2322
 21
-55.1769
  0
LINE
  8
0
 10
-62.2322
 20
-55.1769
 11
-68.7288
 21
-63.4922
  0
LINE
  8
0
 10
-68.7288
 20
-63.4922
 11
-71.1872
 21
-67.9512
  0
LINE
  8
0
 10
-68.6564
 20
-69.7736
 11
-63.2952
 21
-60.3367
  0
LINE
  8
0
 10
-63.2952
 20
-60.3367
 11
-59.1919
 21
-55.0848
  0
LINE
  8
0
 10
-59.1919
 20
-55.0848
 11
-59.1574
 21
-55.0405
  0
LINE
  8
0
 10
-59.1574
 20
-55.0405
 11
-61.4301
 21
-49.6655
  0
LINE
  8
0
 10
-61.4301
 20
-49.6655
 11
-63.1684
 21
-45.5547
  0
LINE
  8
0
 10
-63.1684
 20
-45.5547
 11
-61.9713
 21
-44.5503
  0
LINE
  8
0
 10
-61.9713
 20
-44.5503
 11
-61.5389
 21
-45.0925
  0
LINE
  8
0
 10
-61.5389
 20
-45.0925
 11
-59.865
 21
-45.8986
  0
LINE
  8
0
 10
-59.865
 20
-45.8986
 11
-59.8336
 21
-45.9138
  0
LINE
  8
0
 10
-59.8336
 20
-45.9138
 11
-57.9408
 21
-45.9138
  0
LINE
  8
0
 10
-57.9408
 20
-45.9138
 11
-57.9094
 21
-45.8986
  0
LINE
  8
0
 10
-57.9094
 20
-45.8986
 11
-56.2355
 21
-45.0925
  0
LINE
  8
0
 10
-56.2355
 20
-45.0925
 11
-55.0771
 21
-43.6399
  0
LINE
  8
0
 10
-55.0771
 20
-43.6399
 11
-55.0554
 21
-43.6127
  0
LINE
  8
0
 10
-55.0554
 20
-43.6127
 11
-55.0476
 21
-43.5787
  0
LINE
  8
0
 10
-55.0476
 20
-43.5787
 11
-54.6342
 21
-41.7674
  0
LINE
  8
0
 10
-54.6342
 20
-41.7674
 11
-55.0476
 21
-39.956
  0
LINE
  8
0
 10
-55.0476
 20
-39.956
 11
-55.0554
 21
-39.9221
  0
LINE
  8
0
 10
-55.0554
 20
-39.9221
 11
-55.0771
 21
-39.8948
  0
LINE
  8
0
 10
-55.0771
 20
-39.8948
 11
-55.6167
 21
-39.2181
  0
LINE
  8
0
 10
-55.6167
 20
-39.2181
 11
-54.7296
 21
-38.4737
  0
LINE
  8
0
 10
-54.7296
 20
-38.4737
 11
-54.2625
 21
-37.9042
  0
LINE
  8
0
 10
-54.2625
 20
-37.9042
 11
-53.4737
 21
-36.9423
  0
LINE
  8
0
 10
-53.4737
 20
-36.9423
 11
-55.0195
 21
-35.0958
  0
LINE
  8
0
 10
-55.0195
 20
-35.0958
 11
-59.4288
 21
-29.829
  0
LINE
  8
0
 10
-59.4288
 20
-29.829
 11
-59.8055
 21
-26.5027
  0
LINE
  8
0
 10
-59.8055
 20
-26.5027
 11
-51.5325
 21
-26.5027
  0
LINE
  8
0
 10
-51.5325
 20
-26.5027
 11
-51.5325
 21
24.5027
  0
LINE
  8
0
 10
-51.5325
 20
24.5027
 11
-60.032
 21
24.5027
  0
LINE
  8
0
 10
-60.032
 20
24.5027
 11
-59.4288
 21
29.829
  0
LINE
  8
0
 10
-59.4288
 20
29.829
 11
-58.8476
 21
33.1489
  0
LINE
  8
0
 10
-58.8476
 20
33.1489
 11
-58.6439
 21
34.3129
  0
LINE
  8
0
 10
-58.6439
 20
34.3129
 11
-57.8889
 21
37.4069
  0
LINE
  8
0
 10
-57.8889
 20
37.4069
 11
-57.8228
 21
37.6778
  0
LINE
  8
0
 10
-57.8228
 20
37.6778
 11
-56.2355
 21
38.4422
  0
LINE
  8
0
 10
-56.2355
 20
38.4422
 11
-55.0771
 21
39.8948
  0
LINE
  8
0
 10
-55.0771
 20
39.8948
 11
-55.0554
 21
39.9221
  0
LINE
  8
0
 10
-55.0554
 20
39.9221
 11
-55.0476
 21
39.956
  0
LINE
  8
0
 10
-55.0476
 20
39.956
 11
-54.6342
 21
41.7674
  0
LINE
  8
0
 10
-54.6342
 20
41.7674
 11
-55.0476
 21
43.5787
  0
LINE
  8
0
 10
-55.0476
 20
43.5787
 11
-55.0554
 21
43.6127
  0
LINE
  8
0
 10
-55.0554
 20
43.6127
 11
-55.0771
 21
43.6399
  0
LINE
  8
0
 10
-55.0771
 20
43.6399
 11
-56.0656
 21
44.8795
  0
LINE
  8
0
 10
-56.0656
 20
44.8795
 11
-55.0305
 21
49.1219
  0
LINE
  8
0
 10
-55.0305
 20
49.1219
 11
-50.0305
 21
54.1219
  0
LINE
  8
0
 10
-50.0305
 20
54.1219
 11
-45.1772
 21
58.9027
  0
LINE
  8
0
 10
-45.1772
 20
58.9027
 11
-43.8954
 21
60.1654
  0
LINE
  8
0
 10
-43.8954
 20
60.1654
 11
-31.2602
 21
60.1654
  0
LINE
  8
0
 10
-31.2602
 20
60.1654
 11
-28.5068
 21
60.1654
  0
LINE
  8
0
 10
-28.5068
 20
60.1654
 11
-26.0727
 21
60.1654
  0
LINE
  8
0
 10
-26.0727
 20
60.1654
 11
-25.4441
 21
60.1654
  0
LINE
  8
0
 10
-25.4441
 20
60.1654
 11
-12.8324
 21
60.1654
  0
LINE
  8
0
 10
-12.8324
 20
60.1654
 11
-9.47446
 21
60.1654
  0
LINE
  8
0
 10
-9.47446
 20
60.1654
 11
-9.45197
 21
60.1654
  0
LINE
  8
0
 10
-9.45197
 20
60.1654
 11
-8.52516
 21
62.3099
  0
LINE
  8
0
 10
-8.52516
 20
62.3099
 11
-8.23319
 21
62.9854
  0
LINE
  8
0
 10
-8.23319
 20
62.9854
 11
8.09094
 21
62.9854
  0
LINE
  8
0
 10
8.09094
 20
62.9854
 11
11.3258
 21
61.1293
  0
LINE
  8
0
 10
11.3258
 20
61.1293
 11
13.0057
 21
60.1654
  0
LINE
  8
0
 10
13.0057
 20
60.1654
 11
17.1469
 21
60.1654
  0
LINE
  8
0
 10
17.1469
 20
60.1654
 11
17.3693
 21
59.1907
  0
LINE
  8
0
 10
17.3693
 20
59.1907
 11
17.3771
 21
59.1567
  0
LINE
  8
0
 10
17.3771
 20
59.1567
 11
17.3988
 21
59.1295
  0
LINE
  8
0
 10
17.3988
 20
59.1295
 11
18.5572
 21
57.6769
  0
LINE
  8
0
 10
18.5572
 20
57.6769
 11
20.2311
 21
56.8707
  0
LINE
  8
0
 10
20.2311
 20
56.8707
 11
20.2625
 21
56.8556
  0
LINE
  8
0
 10
20.2625
 20
56.8556
 11
22.1553
 21
56.8556
  0
LINE
  8
0
 10
22.1553
 20
56.8556
 11
22.1867
 21
56.8707
  0
LINE
  8
0
 10
22.1867
 20
56.8707
 11
23.8606
 21
57.6769
  0
LINE
  8
0
 10
23.8606
 20
57.6769
 11
25.019
 21
59.1295
  0
LINE
  8
0
 10
25.019
 20
59.1295
 11
25.0408
 21
59.1567
  0
LINE
  8
0
 10
25.0408
 20
59.1567
 11
25.0485
 21
59.1907
  0
LINE
  8
0
 10
25.0485
 20
59.1907
 11
25.271
 21
60.1654
  0
LINE
  8
0
 10
25.271
 20
60.1654
 11
29.7474
 21
60.1654
  0
LINE
  8
0
 10
29.7474
 20
60.1654
 11
31.0363
 21
56.9044
  0
LINE
  8
0
 10
31.0363
 20
56.9044
 11
34.4902
 21
48.1654
  0
LINE
  8
0
 10
34.4902
 20
48.1654
 11
46.8959
 21
48.1654
  0
LINE
  8
0
 10
46.8959
 20
48.1654
 11
51.4969
 21
48.1654
  0
LINE
  8
0
 10
51.4969
 20
48.1654
 11
53.8693
 21
48.1654
  0
LINE
  8
0
 10
53.8693
 20
48.1654
 11
54.834
 21
48.1654
  0
LINE
  8
0
 10
54.834
 20
48.1654
 11
71.734
 21
48.1654
  0
LINE
  8
0
 10
71.734
 20
48.1654
 11
73.2627
 21
46.8416
  0
LINE
  8
0
 10
73.2627
 20
46.8416
 11
76.734
 21
43.8353
  0
LINE
  8
0
 10
76.734
 20
43.8353
 11
76.734
 21
33.6335
  0
LINE
  8
0
 10
76.734
 20
33.6335
 11
76.734
 21
29.1484
  0
LINE
  8
0
 10
76.734
 20
29.1484
 11
76.734
 21
24.5314
  0
LINE
  8
0
 10
76.734
 20
24.5314
 11
76.734
 21
21.3061
  0
LINE
  8
0
 10
76.734
 20
21.3061
 11
76.734
 21
17.6491
  0
LINE
  8
0
 10
76.734
 20
17.6491
 11
75.8877
 21
17.6491
  0
LINE
  8
0
 10
75.8877
 20
17.6491
 11
75.8563
 21
17.6339
  0
LINE
  8
0
 10
75.8563
 20
17.6339
 11
74.1823
 21
16.8278
  0
LINE
  8
0
 10
74.1823
 20
16.8278
 11
73.0239
 21
15.3752
  0
LINE
  8
0
 10
73.0239
 20
15.3752
 11
73.0022
 21
15.348
  0
LINE
  8
0
 10
73.0022
 20
15.348
 11
72.9944
 21
15.314
  0
LINE
  8
0
 10
72.9944
 20
15.314
 11
72.581
 21
13.5027
  0
LINE
  8
0
 10
72.581
 20
13.5027
 11
72.9944
 21
11.6913
  0
LINE
  8
0
 10
72.9944
 20
11.6913
 11
73.0022
 21
11.6574
  0
LINE
  8
0
 10
73.0022
 20
11.6574
 11
73.0239
 21
11.6301
  0
LINE
  8
0
 10
73.0239
 20
11.6301
 11
74.1823
 21
10.1775
  0
LINE
  8
0
 10
74.1823
 20
10.1775
 11
75.8563
 21
9.3714
  0
LINE
  8
0
 10
75.8563
 20
9.3714
 11
75.8877
 21
9.35628
  0
LINE
  8
0
 10
75.8877
 20
9.35628
 11
76.734
 21
9.35628
  0
LINE
  8
0
 10
76.734
 20
9.35628
 11
76.734
 21
4.9134
  0
LINE
  8
0
 10
76.734
 20
4.9134
 11
76.734
 21
1.52274
  0
LINE
  8
0
 10
76.734
 20
1.52274
 11
76.734
 21
-3.55
  0
LINE
  8
0
 10
76.734
 20
-3.55
 11
76.734
 21
-20.45
  0
LINE
  8
0
 10
76.734
 20
-20.45
 11
76.734
 21
-25.5227
  0
LINE
  8
0
 10
76.734
 20
-25.5227
 11
76.734
 21
-28.9134
  0
LINE
  8
0
 10
76.734
 20
-28.9134
 11
76.734
 21
-36.641
  0
LINE
  8
0
 10
76.734
 20
-36.641
 11
76.734
 21
-36.6773
  0
LINE
  8
0
 10
76.734
 20
-36.6773
 11
76.734
 21
-45.2765
  0
LINE
  8
0
 10
76.734
 20
-45.2765
 11
74.4992
 21
-47.4351
  0
LINE
  8
0
 10
74.4992
 20
-47.4351
 11
71.734
 21
-50.1061
  0
LINE
  8
0
 10
71.734
 20
-50.1061
 11
54.834
 21
-50.1061
  0
LINE
  8
0
 10
54.834
 20
-50.1061
 11
52.8242
 21
-50.1061
  0
LINE
  8
0
 10
52.8242
 20
-50.1061
 11
50.3534
 21
-50.1061
  0
LINE
  8
0
 10
50.3534
 20
-50.1061
 11
43.3105
 21
-50.1061
  0
LINE
  8
0
 10
43.3105
 20
-50.1061
 11
33.3626
 21
-50.1061
  0
LINE
  8
0
 10
33.3626
 20
-50.1061
 11
33.1905
 21
-50.6351
  0
LINE
  8
0
 10
33.1905
 20
-50.6351
 11
33.0679
 21
-51.012
  0
LINE
  8
0
 10
33.0679
 20
-51.012
 11
33.069
 21
-51.0586
  0
LINE
  8
0
 10
33.069
 20
-51.0586
 11
33.0902
 21
-51.9671
  0
LINE
  8
0
 10
33.0902
 20
-51.9671
 11
33.1141
 21
-52.9893
  0
LINE
  8
0
 10
33.1141
 20
-52.9893
 11
33.1153
 21
-53.0405
  0
LINE
  8
0
 10
33.1153
 20
-53.0405
 11
33.1153
 21
-53.0405
  0
LINE
  8
0
 10
33.1153
 20
-53.0405
 11
33.1622
 21
-53.0405
  0
LINE
  8
0
 10
33.1622
 20
-53.0405
 11
36.5542
 21
-53.0405
  0
LINE
  8
0
 10
36.5542
 20
-53.0405
 11
34.8081
 21
-55.9039
  0
LINE
  8
0
 10
34.8081
 20
-55.9039
 11
32.2095
 21
-60.1654
  0
LINE
  8
0
 10
32.2095
 20
-60.1654
 11
26.7805
 21
-60.1654
  0
LINE
  8
0
 10
26.7805
 20
-60.1654
 11
26.7549
 21
-60.1654
  0
LINE
  8
0
 10
26.7549
 20
-60.1654
 11
13.0057
 21
-60.1654
  0
LINE
  8
0
 10
13.0057
 20
-60.1654
 11
10.0247
 21
-60.8032
  0
LINE
  8
0
 10
10.0247
 20
-60.8032
 11
4.48122
 21
-61.9892
  0
LINE
  8
0
 10
4.48122
 20
-61.9892
 11
3.55874
 21
-60.8325
  0
LINE
  8
0
 10
3.55874
 20
-60.8325
 11
1.88481
 21
-60.0263
  0
LINE
  8
0
 10
1.88481
 20
-60.0263
 11
1.85341
 21
-60.0112
  0
LINE
  8
0
 10
1.85341
 20
-60.0112
 11
-0.0393576
 21
-60.0112
  0
LINE
  8
0
 10
-0.0393576
 20
-60.0112
 11
-0.0707541
 21
-60.0263
  0
LINE
  8
0
 10
-0.0707541
 20
-60.0263
 11
-1.74469
 21
-60.8325
  0
LINE
  8
0
 10
-1.74469
 20
-60.8325
 11
-2.90308
 21
-62.285
  0
LINE
  8
0
 10
-2.90308
 20
-62.285
 11
-2.92481
 21
-62.3123
  0
LINE
  8
0
 10
-2.92481
 20
-62.3123
 11
-2.93256
 21
-62.3463
  0
LINE
  8
0
 10
-2.93256
 20
-62.3463
 11
-3.34599
 21
-64.1576
  0
LINE
  8
0
 10
-3.34599
 20
-64.1576
 11
-2.93336
 21
-65.9655
  0
LINE
  8
0
 10
-2.93336
 20
-65.9655
 11
-11.0466
 21
-71.3094
  0
LINE
  8
0
 10
-11.0466
 20
-71.3094
 11
-11.0466
 21
-71.3094
  0
LINE
  8
0
 10
-11.0466
 20
-71.3094
 11
-11.0466
 21
-71.3094
  0
LINE
  8
0
 10
-11.0466
 20
-71.3094
 11
-12.0319
 21
-72.0614
  0
LINE
  8
0
 10
-12.0319
 20
-72.0614
 11
-12.0319
 21
-72.0614
  0
LINE
  8
0
 10
-12.0319
 20
-72.0614
 11
-12.6209
 21
-72.5111
  0
LINE
  8
0
 10
-12.6209
 20
-72.5111
 11
-12.6397
 21
-72.5319
  0
LINE
  8
0
 10
-12.6397
 20
-72.5319
 11
-18.9132
 21
-79.4994
  0
LINE
  8
0
 10
-18.9132
 20
-79.4994
 11
-22.1069
 21
-83.0463
  0
LINE
  8
0
 10
-22.1069
 20
-83.0463
 11
-22.1069
 21
-83.0463
  0
LINE
  8
0
 10
-22.1069
 20
-83.0463
 11
-21.5742
 21
-85.6117
  0
LINE
  8
0
 10
-21.5742
 20
-85.6117
 11
-21.0475
 21
-88.148
  0
LINE
  8
0
 10
-21.0475
 20
-88.148
 11
-25.0701
 21
-93.6846
  0
LINE
  8
0
 10
-25.0701
 20
-93.6846
 11
-27.5248
 21
-97.0631
  0
LINE
  8
0
 10
-27.5248
 20
-97.0631
 11
-27.9012
 21
-97.3125
  0
LINE
  8
0
 10
-27.9012
 20
-97.3125
 11
-30.1661
 21
-98.813
  0
LINE
  8
0
 10
-30.1661
 20
-98.813
 11
-35.8126
 21
-98.8891
  0
LINE
  8
0
 10
-35.8126
 20
-98.8891
 11
-41.6572
 21
-93.7758
  0
LINE
  8
0
 10
-41.6572
 20
-93.7758
 11
-48.9675
 21
-87.3804
  0
LINE
  8
0
 10
-48.9675
 20
-87.3804
 11
-48.9909
 21
-87.3599
  0
LINE
  8
0
 10
-48.9909
 20
-87.3599
 11
-51.8251
 21
-85.8581
  0
LINE
  8
0
 10
-51.8251
 20
-85.8581
 11
-55.1562
 21
-84.6556
  0
LINE
  8
0
 10
-55.1562
 20
-84.6556
 11
-62.0495
 21
-79.0097
  0
LINE
  8
0
 10
-62.0495
 20
-79.0097
 11
-68.2539
 21
-73.9281
  0
LINE
  8
0
 10
-68.2539
 20
-73.9281
 11
-68.6564
 21
-69.7736
  0
LINE
  8
0
 10
-61.5669
 20
-8.5
 11
-61.5669
 21
8.5
  0
LINE
  8
0
 10
-61.5669
 20
8.5
 11
-61.4895
 21
9.89263
  0
LINE
  8
0
 10
-61.4895
 20
9.89263
 11
-61.2992
 21
13.3117
  0
LINE
  8
0
 10
-61.2992
 20
13.3117
 11
-60.8137
 21
17.5993
  0
LINE
  8
0
 10
-60.8137
 20
17.5993
 11
-60.5325
 21
20.0824
  0
LINE
  8
0
 10
-60.5325
 20
20.0824
 11
-60.5325
 21
-20.0824
  0
LINE
  8
0
 10
-60.5325
 20
-20.0824
 11
-60.8137
 21
-17.5993
  0
LINE
  8
0
 10
-60.8137
 20
-17.5993
 11
-61.2992
 21
-13.3117
  0
LINE
  8
0
 10
-61.2992
 20
-13.3117
 11
-61.4895
 21
-9.89263
  0
LINE
  8
0
 10
-61.4895
 20
-9.89263
 11
-61.5669
 21
-8.5
  0
LINE
  8
0
 10
-60.5872
 20
-41.7674
 11
-59.7372
 21
-40.2951
  0
LINE
  8
0
 10
-59.7372
 20
-40.2951
 11
-58.0372
 21
-40.2951
  0
LINE
  8
0
 10
-58.0372
 20
-40.2951
 11
-57.1872
 21
-41.7674
  0
LINE
  8
0
 10
-57.1872
 20
-41.7674
 11
-58.0372
 21
-43.2396
  0
LINE
  8
0
 10
-58.0372
 20
-43.2396
 11
-59.7372
 21
-43.2396
  0
LINE
  8
0
 10
-59.7372
 20
-43.2396
 11
-60.5872
 21
-41.7674
  0
LINE
  8
0
 10
-60.5872
 20
41.7674
 11
-59.7372
 21
43.2396
  0
LINE
  8
0
 10
-59.7372
 20
43.2396
 11
-58.0372
 21
43.2396
  0
LINE
  8
0
 10
-58.0372
 20
43.2396
 11
-57.1872
 21
41.7674
  0
LINE
  8
0
 10
-57.1872
 20
41.7674
 11
-58.0372
 21
40.2951
  0
LINE
  8
0
 10
-58.0372
 20
40.2951
 11
-59.7372
 21
40.2951
  0
LINE
  8
0
 10
-59.7372
 20
40.2951
 11
-60.5872
 21
41.7674
  0
LINE
  8
0
 10
-0.792972
 20
-64.1576
 11
0.0570281
 21
-62.6854
  0
LINE
  8
0
 10
0.0570281
 20
-62.6854
 11
1.75703
 21
-62.6854
  0
LINE
  8
0
 10
1.75703
 20
-62.6854
 11
2.60703
 21
-64.1576
  0
LINE
  8
0
 10
2.60703
 20
-64.1576
 11
1.75703
 21
-65.6298
  0
LINE
  8
0
 10
1.75703
 20
-65.6298
 11
0.0570281
 21
-65.6298
  0
LINE
  8
0
 10
0.0570281
 20
-65.6298
 11
-0.792972
 21
-64.1576
  0
LINE
  8
0
 10
19.5089
 20
61.002
 11
20.3589
 21
62.4743
  0
LINE
  8
0
 10
20.3589
 20
62.4743
 11
22.0589
 21
62.4743
  0
LINE
  8
0
 10
22.0589
 20
62.4743
 11
22.9089
 21
61.002
  0
LINE
  8
0
 10
22.9089
 20
61.002
 11
22.0589
 21
59.5298
  0
LINE
  8
0
 10
22.0589
 20
59.5298
 11
20.3589
 21
59.5298
  0
LINE
  8
0
 10
20.3589
 20
59.5298
 11
19.5089
 21
61.002
  0
LINE
  8
0
 10
75.134
 20
13.5027
 11
75.984
 21
14.9749
  0
LINE
  8
0
 10
75.984
 20
14.9749
 11
77.684
 21
14.9749
  0
LINE
  8
0
 10
77.684
 20
14.9749
 11
78.534
 21
13.5027
  0
LINE
  8
0
 10
78.534
 20
13.5027
 11
77.684
 21
12.0304
  0
LINE
  8
0
 10
77.684
 20
12.0304
 11
75.984
 21
12.0304
  0
LINE
  8
0
 10
75.984
 20
12.0304
 11
75.134
 21
13.5027
  0
ENDSEC
  0
SECTION
  2
OBJECTS
  0
DICTIONARY
  0
ENDSEC
  0
EOF
