  0
SECTION
  2
BLOCKS
  0
ENDSEC
  0
SECTION
  2
ENTITIES
  0
LINE
  8
0
 10
-78.1647
 20
-69.1027
 11
-77.8633
 21
-72.0262
  0
LINE
  8
0
 10
-77.8633
 20
-72.0262
 11
-77.6271
 21
-74.3172
  0
LINE
  8
0
 10
-77.6271
 20
-74.3172
 11
-77.5628
 21
-74.37
  0
LINE
  8
0
 10
-77.5628
 20
-74.37
 11
-77.5497
 21
-74.3808
  0
LINE
  8
0
 10
-77.5497
 20
-74.3808
 11
-77.5497
 21
-74.3808
  0
LINE
  8
0
 10
-77.5497
 20
-74.3808
 11
-67.1601
 21
-82.9132
  0
LINE
  8
0
 10
-67.1601
 20
-82.9132
 11
-64.2342
 21
-85.3161
  0
LINE
  8
0
 10
-64.2342
 20
-85.3161
 11
-64.2342
 21
-85.3161
  0
LINE
  8
0
 10
-64.2342
 20
-85.3161
 11
-64.1752
 21
-85.3645
  0
LINE
  8
0
 10
-64.1752
 20
-85.3645
 11
-64.1568
 21
-85.3797
  0
LINE
  8
0
 10
-64.1568
 20
-85.3797
 11
-62.8946
 21
-85.9969
  0
LINE
  8
0
 10
-62.8946
 20
-85.9969
 11
-60.0545
 21
-86.3138
  0
LINE
  8
0
 10
-60.0545
 20
-86.3138
 11
-59.6946
 21
-86.2334
  0
LINE
  8
0
 10
-59.6946
 20
-86.2334
 11
-59.0471
 21
-86.0059
  0
LINE
  8
0
 10
-59.0471
 20
-86.0059
 11
-57.457
 21
-88.1232
  0
LINE
  8
0
 10
-57.457
 20
-88.1232
 11
-46.1562
 21
-98.1151
  0
LINE
  8
0
 10
-46.1562
 20
-98.1151
 11
-46.1562
 21
-98.1151
  0
LINE
  8
0
 10
-46.1562
 20
-98.1151
 11
-46.1376
 21
-98.1316
  0
LINE
  8
0
 10
-46.1376
 20
-98.1316
 11
-46.0791
 21
-98.1833
  0
LINE
  8
0
 10
-46.0791
 20
-98.1833
 11
-43.873
 21
-98.1728
  0
LINE
  8
0
 10
-43.873
 20
-98.1728
 11
-39.0919
 21
-98.1501
  0
LINE
  8
0
 10
-39.0919
 20
-98.1501
 11
-39.0392
 21
-98.1163
  0
LINE
  8
0
 10
-39.0392
 20
-98.1163
 11
-34.3335
 21
-95.1
  0
LINE
  8
0
 10
-34.3335
 20
-95.1
 11
-29.2467
 21
-91.8394
  0
LINE
  8
0
 10
-29.2467
 20
-91.8394
 11
-25.9215
 21
-88.4998
  0
LINE
  8
0
 10
-25.9215
 20
-88.4998
 11
-24.8352
 21
-87.4089
  0
LINE
  8
0
 10
-24.8352
 20
-87.4089
 11
-24.8352
 21
-87.4089
  0
LINE
  8
0
 10
-24.8352
 20
-87.4089
 11
-24.5381
 21
-86.9999
  0
LINE
  8
0
 10
-24.5381
 20
-86.9999
 11
-23.3642
 21
-85.3841
  0
LINE
  8
0
 10
-23.3642
 20
-85.3841
 11
-23.3642
 21
-85.3841
  0
LINE
  8
0
 10
-23.3642
 20
-85.3841
 11
-23.3642
 21
-85.3841
  0
LINE
  8
0
 10
-23.3642
 20
-85.3841
 11
-23.3573
 21
-85.3747
  0
LINE
  8
0
 10
-23.3573
 20
-85.3747
 11
-23.3149
 21
-85.3163
  0
LINE
  8
0
 10
-23.3149
 20
-85.3163
 11
-23.4953
 21
-84.6136
  0
LINE
  8
0
 10
-23.4953
 20
-84.6136
 11
-24.5798
 21
-80.3893
  0
LINE
  8
0
 10
-24.5798
 20
-80.3893
 11
-20.1
 21
-75.414
  0
LINE
  8
0
 10
-20.1
 20
-75.414
 11
-15.3766
 21
-70.1681
  0
LINE
  8
0
 10
-15.3766
 20
-70.1681
 11
-12.6078
 21
-68.3178
  0
LINE
  8
0
 10
-12.6078
 20
-68.3178
 11
-12.6075
 21
-68.3176
  0
LINE
  8
0
 10
-12.6075
 20
-68.3176
 11
-5.79802
 21
-63.767
  0
LINE
  8
0
 10
-5.79802
 20
-63.767
 11
-5.13307
 21
-64.0872
  0
LINE
  8
0
 10
-5.13307
 20
-64.0872
 11
-5.10167
 21
-64.1023
  0
LINE
  8
0
 10
-5.10167
 20
-64.1023
 11
-3.2089
 21
-64.1023
  0
LINE
  8
0
 10
-3.2089
 20
-64.1023
 11
-3.1775
 21
-64.0872
  0
LINE
  8
0
 10
-3.1775
 20
-64.0872
 11
-1.50357
 21
-63.2811
  0
LINE
  8
0
 10
-1.50357
 20
-63.2811
 11
-0.345176
 21
-61.8285
  0
LINE
  8
0
 10
-0.345176
 20
-61.8285
 11
-0.323449
 21
-61.8012
  0
LINE
  8
0
 10
-0.323449
 20
-61.8012
 11
-0.315694
 21
-61.7673
  0
LINE
  8
0
 10
-0.315694
 20
-61.7673
 11
-0.154621
 21
-61.0616
  0
LINE
  8
0
 10
-0.154621
 20
-61.0616
 11
4.49409
 21
-59.4589
  0
LINE
  8
0
 10
4.49409
 20
-59.4589
 11
7.96813
 21
-58.2612
  0
LINE
  8
0
 10
7.96813
 20
-58.2612
 11
28.5061
 21
-58.2612
  0
LINE
  8
0
 10
28.5061
 20
-58.2612
 11
33.5332
 21
-50.9439
  0
LINE
  8
0
 10
33.5332
 20
-50.9439
 11
35.8805
 21
-47.5272
  0
LINE
  8
0
 10
35.8805
 20
-47.5272
 11
41.1971
 21
-47.5272
  0
LINE
  8
0
 10
41.1971
 20
-47.5272
 11
41.2798
 21
-47.5272
  0
LINE
  8
0
 10
41.2798
 20
-47.5272
 11
45.8475
 21
-47.5272
  0
LINE
  8
0
 10
45.8475
 20
-47.5272
 11
49.0425
 21
-47.5272
  0
LINE
  8
0
 10
49.0425
 20
-47.5272
 11
49.1179
 21
-47.5272
  0
LINE
  8
0
 10
49.1179
 20
-47.5272
 11
50.212
 21
-47.5272
  0
LINE
  8
0
 10
50.212
 20
-47.5272
 11
63.4296
 21
-47.5272
  0
LINE
  8
0
 10
63.4296
 20
-47.5272
 11
63.5084
 21
-47.5272
  0
LINE
  8
0
 10
63.5084
 20
-47.5272
 11
68.5449
 21
-47.5272
  0
LINE
  8
0
 10
68.5449
 20
-47.5272
 11
71.8278
 21
-47.5272
  0
LINE
  8
0
 10
71.8278
 20
-47.5272
 11
75.9226
 21
-47.5272
  0
LINE
  8
0
 10
75.9226
 20
-47.5272
 11
76.0053
 21
-47.5272
  0
LINE
  8
0
 10
76.0053
 20
-47.5272
 11
89.1653
 21
-47.5272
  0
LINE
  8
0
 10
89.1653
 20
-47.5272
 11
94.6141
 21
-42.2216
  0
LINE
  8
0
 10
94.6141
 20
-42.2216
 11
96.4871
 21
-40.398
  0
LINE
  8
0
 10
96.4871
 20
-40.398
 11
96.488
 21
-40.3247
  0
LINE
  8
0
 10
96.488
 20
-40.3247
 11
96.5418
 21
-35.9649
  0
LINE
  8
0
 10
96.5418
 20
-35.9649
 11
96.6982
 21
-23.2878
  0
LINE
  8
0
 10
96.6982
 20
-23.2878
 11
96.7193
 21
-18.6749
  0
LINE
  8
0
 10
96.7193
 20
-18.6749
 11
96.7193
 21
-18.5728
  0
LINE
  8
0
 10
96.7193
 20
-18.5728
 11
96.7193
 21
-15.9626
  0
LINE
  8
0
 10
96.7193
 20
-15.9626
 11
96.7193
 21
-15.6134
  0
LINE
  8
0
 10
96.7193
 20
-15.6134
 11
96.7193
 21
-15.6134
  0
LINE
  8
0
 10
96.7193
 20
-15.6134
 11
96.7193
 21
-11.2442
  0
LINE
  8
0
 10
96.7193
 20
-11.2442
 11
96.6802
 21
1.57774
  0
LINE
  8
0
 10
96.6802
 20
1.57774
 11
96.6802
 21
1.57774
  0
LINE
  8
0
 10
96.6802
 20
1.57774
 11
96.6802
 21
1.57774
  0
LINE
  8
0
 10
96.6802
 20
1.57774
 11
96.6802
 21
1.58321
  0
LINE
  8
0
 10
96.6802
 20
1.58321
 11
96.6799
 21
1.67764
  0
LINE
  8
0
 10
96.6799
 20
1.67764
 11
96.6113
 21
8.04835
  0
LINE
  8
0
 10
96.6113
 20
8.04835
 11
96.5991
 21
9.1821
  0
LINE
  8
0
 10
96.5991
 20
9.1821
 11
96.5988
 21
9.19665
  0
LINE
  8
0
 10
96.5988
 20
9.19665
 11
96.5973
 21
9.27837
  0
LINE
  8
0
 10
96.5973
 20
9.27837
 11
96.5051
 21
14.1865
  0
LINE
  8
0
 10
96.5051
 20
14.1865
 11
96.8807
 21
14.3674
  0
LINE
  8
0
 10
96.8807
 20
14.3674
 11
98.0391
 21
15.82
  0
LINE
  8
0
 10
98.0391
 20
15.82
 11
98.0608
 21
15.8472
  0
LINE
  8
0
 10
98.0608
 20
15.8472
 11
98.0686
 21
15.8812
  0
LINE
  8
0
 10
98.0686
 20
15.8812
 11
98.482
 21
17.6925
  0
LINE
  8
0
 10
98.482
 20
17.6925
 11
98.0686
 21
19.5039
  0
LINE
  8
0
 10
98.0686
 20
19.5039
 11
98.0608
 21
19.5378
  0
LINE
  8
0
 10
98.0608
 20
19.5378
 11
98.0391
 21
19.5651
  0
LINE
  8
0
 10
98.0391
 20
19.5651
 11
96.8807
 21
21.0177
  0
LINE
  8
0
 10
96.8807
 20
21.0177
 11
96.3723
 21
21.2625
  0
LINE
  8
0
 10
96.3723
 20
21.2625
 11
96.2846
 21
25.9322
  0
LINE
  8
0
 10
96.2846
 20
25.9322
 11
96.1849
 21
29.5816
  0
LINE
  8
0
 10
96.1849
 20
29.5816
 11
96.0924
 21
32.9674
  0
LINE
  8
0
 10
96.0924
 20
32.9674
 11
95.8247
 21
40.2635
  0
LINE
  8
0
 10
95.8247
 20
40.2635
 11
95.5361
 21
48.1275
  0
LINE
  8
0
 10
95.5361
 20
48.1275
 11
95.535
 21
48.1593
  0
LINE
  8
0
 10
95.535
 20
48.1593
 11
95.5329
 21
48.2152
  0
LINE
  8
0
 10
95.5329
 20
48.2152
 11
93.0871
 21
50.2962
  0
LINE
  8
0
 10
93.0871
 20
50.2962
 11
88.0659
 21
54.5684
  0
LINE
  8
0
 10
88.0659
 20
54.5684
 11
82.192
 21
54.5684
  0
LINE
  8
0
 10
82.192
 20
54.5684
 11
82.1567
 21
54.5684
  0
LINE
  8
0
 10
82.1567
 20
54.5684
 11
70.7705
 21
54.5684
  0
LINE
  8
0
 10
70.7705
 20
54.5684
 11
69.7992
 21
54.5684
  0
LINE
  8
0
 10
69.7992
 20
54.5684
 11
56.3957
 21
54.5684
  0
LINE
  8
0
 10
56.3957
 20
54.5684
 11
50.4948
 21
54.5684
  0
LINE
  8
0
 10
50.4948
 20
54.5684
 11
48.5452
 21
54.5684
  0
LINE
  8
0
 10
48.5452
 20
54.5684
 11
48.5114
 21
54.5684
  0
LINE
  8
0
 10
48.5114
 20
54.5684
 11
47.5527
 21
54.5684
  0
LINE
  8
0
 10
47.5527
 20
54.5684
 11
36.1171
 21
54.5684
  0
LINE
  8
0
 10
36.1171
 20
54.5684
 11
30.4162
 21
54.5684
  0
LINE
  8
0
 10
30.4162
 20
54.5684
 11
27.4236
 21
62.7763
  0
LINE
  8
0
 10
27.4236
 20
62.7763
 11
26.0409
 21
66.5684
  0
LINE
  8
0
 10
26.0409
 20
66.5684
 11
21.0684
 21
66.5684
  0
LINE
  8
0
 10
21.0684
 20
66.5684
 11
21.05
 21
66.6489
  0
LINE
  8
0
 10
21.05
 20
66.6489
 11
21.0423
 21
66.6829
  0
LINE
  8
0
 10
21.0423
 20
66.6829
 11
21.0205
 21
66.7102
  0
LINE
  8
0
 10
21.0205
 20
66.7102
 11
19.8621
 21
68.1627
  0
LINE
  8
0
 10
19.8621
 20
68.1627
 11
18.1882
 21
68.9689
  0
LINE
  8
0
 10
18.1882
 20
68.9689
 11
18.1568
 21
68.984
  0
LINE
  8
0
 10
18.1568
 20
68.984
 11
16.264
 21
68.984
  0
LINE
  8
0
 10
16.264
 20
68.984
 11
16.2326
 21
68.9689
  0
LINE
  8
0
 10
16.2326
 20
68.9689
 11
14.5587
 21
68.1627
  0
LINE
  8
0
 10
14.5587
 20
68.1627
 11
13.4003
 21
66.7102
  0
LINE
  8
0
 10
13.4003
 20
66.7102
 11
13.3786
 21
66.6829
  0
LINE
  8
0
 10
13.3786
 20
66.6829
 11
13.3708
 21
66.6489
  0
LINE
  8
0
 10
13.3708
 20
66.6489
 11
13.3525
 21
66.5684
  0
LINE
  8
0
 10
13.3525
 20
66.5684
 11
9.06085
 21
66.5684
  0
LINE
  8
0
 10
9.06085
 20
66.5684
 11
7.52981
 21
67.6393
  0
LINE
  8
0
 10
7.52981
 20
67.6393
 11
5.02901
 21
69.3884
  0
LINE
  8
0
 10
5.02901
 20
69.3884
 11
-5.34591
 21
69.3884
  0
LINE
  8
0
 10
-5.34591
 20
69.3884
 11
-5.38895
 21
69.3884
  0
LINE
  8
0
 10
-5.38895
 20
69.3884
 11
-11.6667
 21
69.3884
  0
LINE
  8
0
 10
-11.6667
 20
69.3884
 11
-11.6977
 21
69.3884
  0
LINE
  8
0
 10
-11.6977
 20
69.3884
 11
-12.8032
 21
67.4757
  0
LINE
  8
0
 10
-12.8032
 20
67.4757
 11
-13.3276
 21
66.5684
  0
LINE
  8
0
 10
-13.3276
 20
66.5684
 11
-25.0049
 21
66.5684
  0
LINE
  8
0
 10
-25.0049
 20
66.5684
 11
-29.4624
 21
66.5684
  0
LINE
  8
0
 10
-29.4624
 20
66.5684
 11
-31.528
 21
66.5684
  0
LINE
  8
0
 10
-31.528
 20
66.5684
 11
-31.5505
 21
66.5684
  0
LINE
  8
0
 10
-31.5505
 20
66.5684
 11
-32.1669
 21
66.5684
  0
LINE
  8
0
 10
-32.1669
 20
66.5684
 11
-44.1563
 21
66.5684
  0
LINE
  8
0
 10
-44.1563
 20
66.5684
 11
-47.7322
 21
66.5684
  0
LINE
  8
0
 10
-47.7322
 20
66.5684
 11
-47.7499
 21
66.5684
  0
LINE
  8
0
 10
-47.7499
 20
66.5684
 11
-52.5957
 21
61.7119
  0
LINE
  8
0
 10
-52.5957
 20
61.7119
 11
-53.7753
 21
60.5298
  0
LINE
  8
0
 10
-53.7753
 20
60.5298
 11
-61.0253
 21
53.2798
  0
LINE
  8
0
 10
-61.0253
 20
53.2798
 11
-61.8724
 21
49.7523
  0
LINE
  8
0
 10
-61.8724
 20
49.7523
 11
-63.7524
 21
49.7523
  0
LINE
  8
0
 10
-63.7524
 20
49.7523
 11
-63.7838
 21
49.7372
  0
LINE
  8
0
 10
-63.7838
 20
49.7372
 11
-65.4578
 21
48.931
  0
LINE
  8
0
 10
-65.4578
 20
48.931
 11
-66.6162
 21
47.4784
  0
LINE
  8
0
 10
-66.6162
 20
47.4784
 11
-66.6379
 21
47.4512
  0
LINE
  8
0
 10
-66.6379
 20
47.4512
 11
-66.6456
 21
47.4172
  0
LINE
  8
0
 10
-66.6456
 20
47.4172
 11
-67.0591
 21
45.6059
  0
LINE
  8
0
 10
-67.0591
 20
45.6059
 11
-66.6456
 21
43.7945
  0
LINE
  8
0
 10
-66.6456
 20
43.7945
 11
-66.6379
 21
43.7606
  0
LINE
  8
0
 10
-66.6379
 20
43.7606
 11
-66.6162
 21
43.7333
  0
LINE
  8
0
 10
-66.6162
 20
43.7333
 11
-65.4578
 21
42.2807
  0
LINE
  8
0
 10
-65.4578
 20
42.2807
 11
-63.8522
 21
41.5075
  0
LINE
  8
0
 10
-63.8522
 20
41.5075
 11
-64.6868
 21
38.032
  0
LINE
  8
0
 10
-64.6868
 20
38.032
 11
-65.1914
 21
35.2088
  0
LINE
  8
0
 10
-65.1914
 20
35.2088
 11
-65.3974
 21
34.0563
  0
LINE
  8
0
 10
-65.3974
 20
34.0563
 11
-66.8325
 21
22.3749
  0
LINE
  8
0
 10
-66.8325
 20
22.3749
 11
-67.4552
 21
17.3062
  0
LINE
  8
0
 10
-67.4552
 20
17.3062
 11
-67.5611
 21
15.8045
  0
LINE
  8
0
 10
-67.5611
 20
15.8045
 11
-67.7541
 21
13.0653
  0
LINE
  8
0
 10
-67.7541
 20
13.0653
 11
-67.9783
 21
1.83837
  0
LINE
  8
0
 10
-67.9783
 20
1.83837
 11
-68.1013
 21
-4.31655
  0
LINE
  8
0
 10
-68.1013
 20
-4.31655
 11
-68.1013
 21
-4.41655
  0
LINE
  8
0
 10
-68.1013
 20
-4.41655
 11
-68.055
 21
-5.95844
  0
LINE
  8
0
 10
-68.055
 20
-5.95844
 11
-67.9727
 21
-8.7022
  0
LINE
  8
0
 10
-67.9727
 20
-8.7022
 11
-67.0883
 21
-19.6564
  0
LINE
  8
0
 10
-67.0883
 20
-19.6564
 11
-66.5912
 21
-25.8123
  0
LINE
  8
0
 10
-66.5912
 20
-25.8123
 11
-63.7548
 21
-31.3073
  0
LINE
  8
0
 10
-63.7548
 20
-31.3073
 11
-62.5506
 21
-33.64
  0
LINE
  8
0
 10
-62.5506
 20
-33.64
 11
-62.9505
 21
-33.9755
  0
LINE
  8
0
 10
-62.9505
 20
-33.9755
 11
-63.4951
 21
-33.7133
  0
LINE
  8
0
 10
-63.4951
 20
-33.7133
 11
-63.5265
 21
-33.6982
  0
LINE
  8
0
 10
-63.5265
 20
-33.6982
 11
-65.4193
 21
-33.6982
  0
LINE
  8
0
 10
-65.4193
 20
-33.6982
 11
-65.4507
 21
-33.7133
  0
LINE
  8
0
 10
-65.4507
 20
-33.7133
 11
-67.1246
 21
-34.5194
  0
LINE
  8
0
 10
-67.1246
 20
-34.5194
 11
-68.283
 21
-35.972
  0
LINE
  8
0
 10
-68.283
 20
-35.972
 11
-68.3047
 21
-35.9992
  0
LINE
  8
0
 10
-68.3047
 20
-35.9992
 11
-68.3125
 21
-36.0332
  0
LINE
  8
0
 10
-68.3125
 20
-36.0332
 11
-68.7259
 21
-37.8445
  0
LINE
  8
0
 10
-68.7259
 20
-37.8445
 11
-68.5387
 21
-38.6646
  0
LINE
  8
0
 10
-68.5387
 20
-38.6646
 11
-68.6259
 21
-38.7378
  0
LINE
  8
0
 10
-68.6259
 20
-38.7378
 11
-70.7283
 21
-40.5019
  0
LINE
  8
0
 10
-70.7283
 20
-40.5019
 11
-71.5315
 21
-41.4813
  0
LINE
  8
0
 10
-71.5315
 20
-41.4813
 11
-71.5315
 21
-41.4814
  0
LINE
  8
0
 10
-71.5315
 20
-41.4814
 11
-71.9842
 21
-42.0333
  0
LINE
  8
0
 10
-71.9842
 20
-42.0333
 11
-70.5929
 21
-45.5264
  0
LINE
  8
0
 10
-70.5929
 20
-45.5264
 11
-68.1241
 21
-51.725
  0
LINE
  8
0
 10
-68.1241
 20
-51.725
 11
-69.6862
 21
-53.7243
  0
LINE
  8
0
 10
-69.6862
 20
-53.7243
 11
-69.6862
 21
-53.7243
  0
LINE
  8
0
 10
-69.6862
 20
-53.7243
 11
-74.2664
 21
-62.0319
  0
LINE
  8
0
 10
-74.2664
 20
-62.0319
 11
-78.105
 21
-68.9944
  0
LINE
  8
0
 10
-78.105
 20
-68.9944
 11
-78.105
 21
-68.9944
  0
LINE
  8
0
 10
-78.105
 20
-68.9944
 11
-78.1647
 21
-69.1027
  0
LINE
  8
0
 10
-75.5679
 20
-70.9767
 11
-70.4915
 21
-62.0412
  0
LINE
  8
0
 10
-70.4915
 20
-62.0412
 11
-65.0789
 21
-52.5139
  0
LINE
  8
0
 10
-65.0789
 20
-52.5139
 11
-65.0226
 21
-52.4147
  0
LINE
  8
0
 10
-65.0226
 20
-52.4147
 11
-65.9137
 21
-49.3384
  0
LINE
  8
0
 10
-65.9137
 20
-49.3384
 11
-68.1825
 21
-44.1509
  0
LINE
  8
0
 10
-68.1825
 20
-44.1509
 11
-68.9045
 21
-42.5
  0
LINE
  8
0
 10
-68.9045
 20
-42.5
 11
-67.2025
 21
-41.0719
  0
LINE
  8
0
 10
-67.2025
 20
-41.0719
 11
-67.1246
 21
-41.1697
  0
LINE
  8
0
 10
-67.1246
 20
-41.1697
 11
-65.4507
 21
-41.9758
  0
LINE
  8
0
 10
-65.4507
 20
-41.9758
 11
-65.4193
 21
-41.9909
  0
LINE
  8
0
 10
-65.4193
 20
-41.9909
 11
-63.5265
 21
-41.9909
  0
LINE
  8
0
 10
-63.5265
 20
-41.9909
 11
-63.4951
 21
-41.9758
  0
LINE
  8
0
 10
-63.4951
 20
-41.9758
 11
-61.8212
 21
-41.1697
  0
LINE
  8
0
 10
-61.8212
 20
-41.1697
 11
-60.6628
 21
-39.7171
  0
LINE
  8
0
 10
-60.6628
 20
-39.7171
 11
-60.641
 21
-39.6899
  0
LINE
  8
0
 10
-60.641
 20
-39.6899
 11
-60.6333
 21
-39.6559
  0
LINE
  8
0
 10
-60.6333
 20
-39.6559
 11
-60.2199
 21
-37.8445
  0
LINE
  8
0
 10
-60.2199
 20
-37.8445
 11
-60.6333
 21
-36.0332
  0
LINE
  8
0
 10
-60.6333
 20
-36.0332
 11
-60.641
 21
-35.9992
  0
LINE
  8
0
 10
-60.641
 20
-35.9992
 11
-60.6628
 21
-35.972
  0
LINE
  8
0
 10
-60.6628
 20
-35.972
 11
-60.8479
 21
-35.7398
  0
LINE
  8
0
 10
-60.8479
 20
-35.7398
 11
-60.2789
 21
-35.2623
  0
LINE
  8
0
 10
-60.2789
 20
-35.2623
 11
-59.6915
 21
-34.546
  0
LINE
  8
0
 10
-59.6915
 20
-34.546
 11
-59.023
 21
-33.7309
  0
LINE
  8
0
 10
-59.023
 20
-33.7309
 11
-59.023
 21
-33.7309
  0
LINE
  8
0
 10
-59.023
 20
-33.7309
 11
-60.5542
 21
-31.378
  0
LINE
  8
0
 10
-60.5542
 20
-31.378
 11
-64.2412
 21
-25.7123
  0
LINE
  8
0
 10
-64.2412
 20
-25.7123
 11
-65.2174
 21
-13.6229
  0
LINE
  8
0
 10
-65.2174
 20
-13.6229
 11
-65.6227
 21
-8.60219
  0
LINE
  8
0
 10
-65.6227
 20
-8.60219
 11
-65.7101
 21
-5.68742
  0
LINE
  8
0
 10
-65.7101
 20
-5.68742
 11
-65.7501
 21
-4.35653
  0
LINE
  8
0
 10
-65.7501
 20
-4.35653
 11
-65.6418
 21
1.06528
  0
LINE
  8
0
 10
-65.6418
 20
1.06528
 11
-65.4041
 21
12.9653
  0
LINE
  8
0
 10
-65.4041
 20
12.9653
 11
-65.1995
 21
15.8687
  0
LINE
  8
0
 10
-65.1995
 20
15.8687
 11
-65.1052
 21
17.2062
  0
LINE
  8
0
 10
-65.1052
 20
17.2062
 11
-64.5417
 21
21.7935
  0
LINE
  8
0
 10
-64.5417
 20
21.7935
 11
-63.0474
 21
33.9563
  0
LINE
  8
0
 10
-63.0474
 20
33.9563
 11
-62.5314
 21
36.8432
  0
LINE
  8
0
 10
-62.5314
 20
36.8432
 11
-62.3368
 21
37.932
  0
LINE
  8
0
 10
-62.3368
 20
37.932
 11
-61.4413
 21
41.6609
  0
LINE
  8
0
 10
-61.4413
 20
41.6609
 11
-60.1543
 21
42.2807
  0
LINE
  8
0
 10
-60.1543
 20
42.2807
 11
-58.9959
 21
43.7333
  0
LINE
  8
0
 10
-58.9959
 20
43.7333
 11
-58.9742
 21
43.7606
  0
LINE
  8
0
 10
-58.9742
 20
43.7606
 11
-58.9664
 21
43.7945
  0
LINE
  8
0
 10
-58.9664
 20
43.7945
 11
-58.553
 21
45.6059
  0
LINE
  8
0
 10
-58.553
 20
45.6059
 11
-58.9664
 21
47.4172
  0
LINE
  8
0
 10
-58.9664
 20
47.4172
 11
-58.9742
 21
47.4512
  0
LINE
  8
0
 10
-58.9742
 20
47.4512
 11
-58.9959
 21
47.4784
  0
LINE
  8
0
 10
-58.9959
 20
47.4784
 11
-59.8017
 21
48.4889
  0
LINE
  8
0
 10
-59.8017
 20
48.4889
 11
-59.6398
 21
49.1633
  0
LINE
  8
0
 10
-59.6398
 20
49.1633
 11
-58.6753
 21
53.1797
  0
LINE
  8
0
 10
-58.6753
 20
53.1797
 11
-53.6753
 21
58.1797
  0
LINE
  8
0
 10
-53.6753
 20
58.1797
 11
-48.3249
 21
61.8009
  0
LINE
  8
0
 10
-48.3249
 20
61.8009
 11
-46.8147
 21
62.8229
  0
LINE
  8
0
 10
-46.8147
 20
62.8229
 11
-34.2163
 21
62.8229
  0
LINE
  8
0
 10
-34.2163
 20
62.8229
 11
-34.2017
 21
62.8229
  0
LINE
  8
0
 10
-34.2017
 20
62.8229
 11
-31.2722
 21
62.8229
  0
LINE
  8
0
 10
-31.2722
 20
62.8229
 11
-29.2824
 21
62.8229
  0
LINE
  8
0
 10
-29.2824
 20
62.8229
 11
-28.718
 21
62.8229
  0
LINE
  8
0
 10
-28.718
 20
62.8229
 11
-16.2167
 21
62.8229
  0
LINE
  8
0
 10
-16.2167
 20
62.8229
 11
-12.5425
 21
62.8229
  0
LINE
  8
0
 10
-12.5425
 20
62.8229
 11
-12.0944
 21
63.6802
  0
LINE
  8
0
 10
-12.0944
 20
63.6802
 11
-11.0685
 21
65.6429
  0
LINE
  8
0
 10
-11.0685
 20
65.6429
 11
0.481629
 21
65.6429
  0
LINE
  8
0
 10
0.481629
 20
65.6429
 11
5.46593
 21
65.6429
  0
LINE
  8
0
 10
5.46593
 20
65.6429
 11
6.67969
 21
64.7579
  0
LINE
  8
0
 10
6.67969
 20
64.7579
 11
9.33311
 21
62.8229
  0
LINE
  8
0
 10
9.33311
 20
62.8229
 11
13.5136
 21
62.8229
  0
LINE
  8
0
 10
13.5136
 20
62.8229
 11
14.5587
 21
61.5124
  0
LINE
  8
0
 10
14.5587
 20
61.5124
 11
16.2326
 21
60.7063
  0
LINE
  8
0
 10
16.2326
 20
60.7063
 11
16.264
 21
60.6912
  0
LINE
  8
0
 10
16.264
 20
60.6912
 11
18.1568
 21
60.6912
  0
LINE
  8
0
 10
18.1568
 20
60.6912
 11
18.1882
 21
60.7063
  0
LINE
  8
0
 10
18.1882
 20
60.7063
 11
19.8621
 21
61.5124
  0
LINE
  8
0
 10
19.8621
 20
61.5124
 11
20.9072
 21
62.8229
  0
LINE
  8
0
 10
20.9072
 20
62.8229
 11
21.0511
 21
62.8229
  0
LINE
  8
0
 10
21.0511
 20
62.8229
 11
26.3132
 21
62.8229
  0
LINE
  8
0
 10
26.3132
 20
62.8229
 11
27.5671
 21
59.2475
  0
LINE
  8
0
 10
27.5671
 20
59.2475
 11
30.5218
 21
50.8229
  0
LINE
  8
0
 10
30.5218
 20
50.8229
 11
42.6686
 21
50.8229
  0
LINE
  8
0
 10
42.6686
 20
50.8229
 11
47.7925
 21
50.8229
  0
LINE
  8
0
 10
47.7925
 20
50.8229
 11
49.6936
 21
50.8229
  0
LINE
  8
0
 10
49.6936
 20
50.8229
 11
50.5892
 21
50.8229
  0
LINE
  8
0
 10
50.5892
 20
50.8229
 11
62.3852
 21
50.8229
  0
LINE
  8
0
 10
62.3852
 20
50.8229
 11
67.8267
 21
50.8229
  0
LINE
  8
0
 10
67.8267
 20
50.8229
 11
68.7158
 21
50.8229
  0
LINE
  8
0
 10
68.7158
 20
50.8229
 11
70.6075
 21
50.8229
  0
LINE
  8
0
 10
70.6075
 20
50.8229
 11
75.9268
 21
50.8229
  0
LINE
  8
0
 10
75.9268
 20
50.8229
 11
87.837
 21
50.8229
  0
LINE
  8
0
 10
87.837
 20
50.8229
 11
91.399
 21
47.7922
  0
LINE
  8
0
 10
91.399
 20
47.7922
 11
92.9866
 21
46.4414
  0
LINE
  8
0
 10
92.9866
 20
46.4414
 11
93.234
 21
39.7005
  0
LINE
  8
0
 10
93.234
 20
39.7005
 11
93.236
 21
39.6463
  0
LINE
  8
0
 10
93.236
 20
39.6463
 11
93.5397
 21
31.3689
  0
LINE
  8
0
 10
93.5397
 20
31.3689
 11
93.637
 21
27.8074
  0
LINE
  8
0
 10
93.637
 20
27.8074
 11
93.7168
 21
24.8883
  0
LINE
  8
0
 10
93.7168
 20
24.8883
 11
93.7168
 21
24.8883
  0
LINE
  8
0
 10
93.7168
 20
24.8883
 11
93.774
 21
21.8389
  0
LINE
  8
0
 10
93.774
 20
21.8389
 11
93.2826
 21
21.8389
  0
LINE
  8
0
 10
93.2826
 20
21.8389
 11
93.2512
 21
21.8238
  0
LINE
  8
0
 10
93.2512
 20
21.8238
 11
91.5773
 21
21.0177
  0
LINE
  8
0
 10
91.5773
 20
21.0177
 11
90.4189
 21
19.5651
  0
LINE
  8
0
 10
90.4189
 20
19.5651
 11
90.3972
 21
19.5378
  0
LINE
  8
0
 10
90.3972
 20
19.5378
 11
90.3894
 21
19.5039
  0
LINE
  8
0
 10
90.3894
 20
19.5039
 11
89.976
 21
17.6925
  0
LINE
  8
0
 10
89.976
 20
17.6925
 11
90.3894
 21
15.8812
  0
LINE
  8
0
 10
90.3894
 20
15.8812
 11
90.3972
 21
15.8472
  0
LINE
  8
0
 10
90.3972
 20
15.8472
 11
90.4189
 21
15.82
  0
LINE
  8
0
 10
90.4189
 20
15.82
 11
91.5773
 21
14.3674
  0
LINE
  8
0
 10
91.5773
 20
14.3674
 11
93.2512
 21
13.5613
  0
LINE
  8
0
 10
93.2512
 20
13.5613
 11
93.2826
 21
13.5461
  0
LINE
  8
0
 10
93.2826
 20
13.5461
 11
93.9297
 21
13.5461
  0
LINE
  8
0
 10
93.9297
 20
13.5461
 11
94.0276
 21
8.33074
  0
LINE
  8
0
 10
94.0276
 20
8.33074
 11
94.0276
 21
8.33073
  0
LINE
  8
0
 10
94.0276
 20
8.33073
 11
94.0812
 21
3.34967
  0
LINE
  8
0
 10
94.0812
 20
3.34967
 11
94.1021
 21
1.41787
  0
LINE
  8
0
 10
94.1021
 20
1.41787
 11
94.1167
 21
-3.38367
  0
LINE
  8
0
 10
94.1167
 20
-3.38367
 11
94.1545
 21
-15.7642
  0
LINE
  8
0
 10
94.1545
 20
-15.7642
 11
94.1309
 21
-20.9099
  0
LINE
  8
0
 10
94.1309
 20
-20.9099
 11
94.1225
 21
-22.7497
  0
LINE
  8
0
 10
94.1225
 20
-22.7497
 11
93.9977
 21
-32.8599
  0
LINE
  8
0
 10
93.9977
 20
-32.8599
 11
93.9138
 21
-39.6635
  0
LINE
  8
0
 10
93.9138
 20
-39.6635
 11
91.8943
 21
-41.6298
  0
LINE
  8
0
 10
91.8943
 20
-41.6298
 11
88.8643
 21
-44.5802
  0
LINE
  8
0
 10
88.8643
 20
-44.5802
 11
81.6739
 21
-44.5802
  0
LINE
  8
0
 10
81.6739
 20
-44.5802
 11
71.6649
 21
-44.5802
  0
LINE
  8
0
 10
71.6649
 20
-44.5802
 11
70.1085
 21
-44.5802
  0
LINE
  8
0
 10
70.1085
 20
-44.5802
 11
67.5101
 21
-44.5802
  0
LINE
  8
0
 10
67.5101
 20
-44.5802
 11
57.0024
 21
-44.5802
  0
LINE
  8
0
 10
57.0024
 20
-44.5802
 11
56.9425
 21
-44.5802
  0
LINE
  8
0
 10
56.9425
 20
-44.5802
 11
50.2772
 21
-44.5802
  0
LINE
  8
0
 10
50.2772
 20
-44.5802
 11
47.7639
 21
-44.5802
  0
LINE
  8
0
 10
47.7639
 20
-44.5802
 11
46.1334
 21
-44.5802
  0
LINE
  8
0
 10
46.1334
 20
-44.5802
 11
36.8434
 21
-44.5802
  0
LINE
  8
0
 10
36.8434
 20
-44.5802
 11
36.7947
 21
-44.5802
  0
LINE
  8
0
 10
36.7947
 20
-44.5802
 11
28.8913
 21
-44.5802
  0
LINE
  8
0
 10
28.8913
 20
-44.5802
 11
28.7247
 21
-44.8708
  0
LINE
  8
0
 10
28.7247
 20
-44.8708
 11
28.5266
 21
-45.2163
  0
LINE
  8
0
 10
28.5266
 20
-45.2163
 11
28.5273
 21
-45.2492
  0
LINE
  8
0
 10
28.5273
 20
-45.2492
 11
28.5411
 21
-45.9558
  0
LINE
  8
0
 10
28.5411
 20
-45.9558
 11
28.5712
 21
-47.4925
  0
LINE
  8
0
 10
28.5712
 20
-47.4925
 11
28.5719
 21
-47.5272
  0
LINE
  8
0
 10
28.5719
 20
-47.5272
 11
28.5719
 21
-47.5272
  0
LINE
  8
0
 10
28.5719
 20
-47.5272
 11
28.6363
 21
-47.5272
  0
LINE
  8
0
 10
28.6363
 20
-47.5272
 11
32.0808
 21
-47.5272
  0
LINE
  8
0
 10
32.0808
 20
-47.5272
 11
31.1866
 21
-49.0057
  0
LINE
  8
0
 10
31.1866
 20
-49.0057
 11
27.7381
 21
-54.708
  0
LINE
  8
0
 10
27.7381
 20
-54.708
 11
20.5038
 21
-54.708
  0
LINE
  8
0
 10
20.5038
 20
-54.708
 11
8.30428
 21
-54.708
  0
LINE
  8
0
 10
8.30428
 20
-54.708
 11
4.58413
 21
-56.1789
  0
LINE
  8
0
 10
4.58413
 20
-56.1789
 11
4.58389
 21
-56.179
  0
LINE
  8
0
 10
4.58389
 20
-56.179
 11
-0.321601
 21
-58.1187
  0
LINE
  8
0
 10
-0.321601
 20
-58.1187
 11
-0.323449
 21
-58.1106
  0
LINE
  8
0
 10
-0.323449
 20
-58.1106
 11
-0.345176
 21
-58.0834
  0
LINE
  8
0
 10
-0.345176
 20
-58.0834
 11
-1.50357
 21
-56.6308
  0
LINE
  8
0
 10
-1.50357
 20
-56.6308
 11
-3.1775
 21
-55.8247
  0
LINE
  8
0
 10
-3.1775
 20
-55.8247
 11
-3.2089
 21
-55.8095
  0
LINE
  8
0
 10
-3.2089
 20
-55.8095
 11
-5.10167
 21
-55.8095
  0
LINE
  8
0
 10
-5.10167
 20
-55.8095
 11
-5.13307
 21
-55.8247
  0
LINE
  8
0
 10
-5.13307
 20
-55.8247
 11
-6.807
 21
-56.6308
  0
LINE
  8
0
 10
-6.807
 20
-56.6308
 11
-7.9654
 21
-58.0834
  0
LINE
  8
0
 10
-7.9654
 20
-58.0834
 11
-7.98712
 21
-58.1106
  0
LINE
  8
0
 10
-7.98712
 20
-58.1106
 11
-7.99488
 21
-58.1446
  0
LINE
  8
0
 10
-7.99488
 20
-58.1446
 11
-8.4083
 21
-59.9559
  0
LINE
  8
0
 10
-8.4083
 20
-59.9559
 11
-7.99488
 21
-61.7673
  0
LINE
  8
0
 10
-7.99488
 20
-61.7673
 11
-7.98712
 21
-61.8012
  0
LINE
  8
0
 10
-7.98712
 20
-61.8012
 11
-7.9654
 21
-61.8285
  0
LINE
  8
0
 10
-7.9654
 20
-61.8285
 11
-7.64652
 21
-62.2283
  0
LINE
  8
0
 10
-7.64652
 20
-62.2283
 11
-12.0534
 21
-65.0922
  0
LINE
  8
0
 10
-12.0534
 20
-65.0922
 11
-12.0537
 21
-65.0924
  0
LINE
  8
0
 10
-12.0537
 20
-65.0924
 11
-16.6278
 21
-68.0649
  0
LINE
  8
0
 10
-16.6278
 20
-68.0649
 11
-17.4603
 21
-68.7004
  0
LINE
  8
0
 10
-17.4603
 20
-68.7004
 11
-18.2021
 21
-69.2666
  0
LINE
  8
0
 10
-18.2021
 20
-69.2666
 11
-18.2252
 21
-69.2923
  0
LINE
  8
0
 10
-18.2252
 20
-69.2923
 11
-23.8597
 21
-75.55
  0
LINE
  8
0
 10
-23.8597
 20
-75.55
 11
-27.8545
 21
-79.9867
  0
LINE
  8
0
 10
-27.8545
 20
-79.9867
 11
-27.8545
 21
-79.9867
  0
LINE
  8
0
 10
-27.8545
 20
-79.9867
 11
-27.1242
 21
-83.3762
  0
LINE
  8
0
 10
-27.1242
 20
-83.3762
 11
-26.8419
 21
-84.6863
  0
LINE
  8
0
 10
-26.8419
 20
-84.6863
 11
-28.2628
 21
-86.642
  0
LINE
  8
0
 10
-28.2628
 20
-86.642
 11
-42.1059
 21
-95.8129
  0
LINE
  8
0
 10
-42.1059
 20
-95.8129
 11
-43.8878
 21
-95.8369
  0
LINE
  8
0
 10
-43.8878
 20
-95.8369
 11
-52.778
 21
-88.0591
  0
LINE
  8
0
 10
-52.778
 20
-88.0591
 11
-52.778
 21
-88.0591
  0
LINE
  8
0
 10
-52.778
 20
-88.0591
 11
-54.8084
 21
-86.584
  0
LINE
  8
0
 10
-54.8084
 20
-86.584
 11
-57.6461
 21
-84.5223
  0
LINE
  8
0
 10
-57.6461
 20
-84.5223
 11
-57.686
 21
-84.4933
  0
LINE
  8
0
 10
-57.686
 20
-84.4933
 11
-58.7876
 21
-83.8283
  0
LINE
  8
0
 10
-58.7876
 20
-83.8283
 11
-62.1449
 21
-82.8523
  0
LINE
  8
0
 10
-62.1449
 20
-82.8523
 11
-75.4751
 21
-71.9343
  0
LINE
  8
0
 10
-75.4751
 20
-71.9343
 11
-75.5679
 21
-70.9767
  0
LINE
  8
0
 10
-75.5679
 20
-70.9767
 11
-75.5679
 21
-70.9767
  0
LINE
  8
0
 10
-66.1729
 20
-37.8445
 11
-65.3229
 21
-36.3723
  0
LINE
  8
0
 10
-65.3229
 20
-36.3723
 11
-63.6229
 21
-36.3723
  0
LINE
  8
0
 10
-63.6229
 20
-36.3723
 11
-62.7729
 21
-37.8445
  0
LINE
  8
0
 10
-62.7729
 20
-37.8445
 11
-63.6229
 21
-39.3168
  0
LINE
  8
0
 10
-63.6229
 20
-39.3168
 11
-65.3229
 21
-39.3168
  0
LINE
  8
0
 10
-65.3229
 20
-39.3168
 11
-66.1729
 21
-37.8445
  0
LINE
  8
0
 10
-64.506
 20
45.6059
 11
-63.656
 21
47.0781
  0
LINE
  8
0
 10
-63.656
 20
47.0781
 11
-61.956
 21
47.0781
  0
LINE
  8
0
 10
-61.956
 20
47.0781
 11
-61.106
 21
45.6059
  0
LINE
  8
0
 10
-61.106
 20
45.6059
 11
-61.956
 21
44.1336
  0
LINE
  8
0
 10
-61.956
 20
44.1336
 11
-63.656
 21
44.1336
  0
LINE
  8
0
 10
-63.656
 20
44.1336
 11
-64.506
 21
45.6059
  0
LINE
  8
0
 10
-5.85529
 20
-59.9559
 11
-5.00529
 21
-58.4837
  0
LINE
  8
0
 10
-5.00529
 20
-58.4837
 11
-3.30529
 21
-58.4837
  0
LINE
  8
0
 10
-3.30529
 20
-58.4837
 11
-2.45529
 21
-59.9559
  0
LINE
  8
0
 10
-2.45529
 20
-59.9559
 11
-3.30529
 21
-61.4282
  0
LINE
  8
0
 10
-3.30529
 20
-61.4282
 11
-5.00529
 21
-61.4282
  0
LINE
  8
0
 10
-5.00529
 20
-61.4282
 11
-5.85529
 21
-59.9559
  0
LINE
  8
0
 10
15.5104
 20
64.8376
 11
16.3604
 21
66.3098
  0
LINE
  8
0
 10
16.3604
 20
66.3098
 11
18.0604
 21
66.3098
  0
LINE
  8
0
 10
18.0604
 20
66.3098
 11
18.9104
 21
64.8376
  0
LINE
  8
0
 10
18.9104
 20
64.8376
 11
18.0604
 21
63.3654
  0
LINE
  8
0
 10
18.0604
 20
63.3654
 11
16.3604
 21
63.3654
  0
LINE
  8
0
 10
16.3604
 20
63.3654
 11
15.5104
 21
64.8376
  0
LINE
  8
0
 10
92.529
 20
17.6925
 11
93.379
 21
19.1648
  0
LINE
  8
0
 10
93.379
 20
19.1648
 11
95.079
 21
19.1648
  0
LINE
  8
0
 10
95.079
 20
19.1648
 11
95.929
 21
17.6925
  0
LINE
  8
0
 10
95.929
 20
17.6925
 11
95.079
 21
16.2203
  0
LINE
  8
0
 10
95.079
 20
16.2203
 11
93.379
 21
16.2203
  0
LINE
  8
0
 10
93.379
 20
16.2203
 11
92.529
 21
17.6925
  0
ENDSEC
  0
SECTION
  2
OBJECTS
  0
DICTIONARY
  0
ENDSEC
  0
EOF
