<?xml version="1.0" standalone="no"?>
<!DOCTYPE svg PUBLIC "-//W3C//DTD SVG 1.1//EN" "http://www.w3.org/Graphics/SVG/1.1/DTD/svg11.dtd">
<svg width="178mm" height="169mm" viewBox="-79 -70 178 169" xmlns="http://www.w3.org/2000/svg" version="1.1">
<title>OpenSCAD Model</title>
<path d="
M -78.1647,69.1027 L -77.8633,72.0262 L -77.6271,74.3172 L -77.5628,74.37 L -77.5497,74.3808 L -77.5497,74.3808
 L -67.1601,82.9132 L -64.2342,85.3161 L -64.2342,85.3161 L -64.1752,85.3645 L -64.1568,85.3797 L -62.8946,85.9969
 L -60.0545,86.3138 L -59.6946,86.2334 L -59.0471,86.0059 L -57.457,88.1232 L -46.1562,98.1151 L -46.1562,98.1151
 L -46.1376,98.1316 L -46.0791,98.1833 L -43.873,98.1728 L -39.0919,98.1501 L -39.0392,98.1163 L -34.3335,95.1
 L -29.2467,91.8394 L -25.9215,88.4998 L -24.8352,87.4089 L -24.8352,87.4089 L -24.5381,86.9999 L -23.3642,85.3841
 L -23.3642,85.3841 L -23.3642,85.3841 L -23.3573,85.3747 L -23.3149,85.3163 L -23.4953,84.6136 L -24.5798,80.3893
 L -20.1,75.414 L -15.3766,70.1681 L -12.6078,68.3178 L -12.6075,68.3176 L -5.79802,63.767 L -5.13307,64.0872
 L -5.10167,64.1023 L -3.2089,64.1023 L -3.1775,64.0872 L -1.50357,63.2811 L -0.345176,61.8285 L -0.323449,61.8012
 L -0.315694,61.7673 L -0.154621,61.0616 L 4.49409,59.4589 L 7.96813,58.2612 L 28.5061,58.2612 L 33.5332,50.9439
 L 35.8805,47.5272 L 41.1971,47.5272 L 41.2798,47.5272 L 45.8475,47.5272 L 49.0425,47.5272 L 49.1179,47.5272
 L 50.212,47.5272 L 63.4296,47.5272 L 63.5084,47.5272 L 68.5449,47.5272 L 71.8278,47.5272 L 75.9226,47.5272
 L 76.0053,47.5272 L 89.1653,47.5272 L 94.6141,42.2216 L 96.4871,40.398 L 96.488,40.3247 L 96.5418,35.9649
 L 96.6982,23.2878 L 96.7193,18.6749 L 96.7193,18.5728 L 96.7193,15.9626 L 96.7193,15.6134 L 96.7193,15.6134
 L 96.7193,11.2442 L 96.6802,-1.57774 L 96.6802,-1.57774 L 96.6802,-1.57774 L 96.6802,-1.58321 L 96.6799,-1.67764
 L 96.6113,-8.04835 L 96.5991,-9.1821 L 96.5988,-9.19665 L 96.5973,-9.27837 L 96.5051,-14.1865 L 96.8807,-14.3674
 L 98.0391,-15.82 L 98.0608,-15.8472 L 98.0686,-15.8812 L 98.482,-17.6925 L 98.0686,-19.5039 L 98.0608,-19.5378
 L 98.0391,-19.5651 L 96.8807,-21.0177 L 96.3723,-21.2625 L 96.2846,-25.9322 L 96.1849,-29.5816 L 96.0924,-32.9674
 L 95.8247,-40.2635 L 95.5361,-48.1275 L 95.535,-48.1593 L 95.5329,-48.2152 L 93.0871,-50.2962 L 88.0659,-54.5684
 L 82.192,-54.5684 L 82.1567,-54.5684 L 70.7705,-54.5684 L 69.7992,-54.5684 L 56.3957,-54.5684 L 50.4948,-54.5684
 L 48.5452,-54.5684 L 48.5114,-54.5684 L 47.5527,-54.5684 L 36.1171,-54.5684 L 30.4162,-54.5684 L 27.4236,-62.7763
 L 26.0409,-66.5684 L 21.0684,-66.5684 L 21.05,-66.6489 L 21.0423,-66.6829 L 21.0205,-66.7102 L 19.8621,-68.1627
 L 18.1882,-68.9689 L 18.1568,-68.984 L 16.264,-68.984 L 16.2326,-68.9689 L 14.5587,-68.1627 L 13.4003,-66.7102
 L 13.3786,-66.6829 L 13.3708,-66.6489 L 13.3525,-66.5684 L 9.06085,-66.5684 L 7.52981,-67.6393 L 5.02901,-69.3884
 L -5.34591,-69.3884 L -5.38895,-69.3884 L -11.6667,-69.3884 L -11.6977,-69.3884 L -12.8032,-67.4757 L -13.3276,-66.5684
 L -25.0049,-66.5684 L -29.4624,-66.5684 L -31.528,-66.5684 L -31.5505,-66.5684 L -32.1669,-66.5684 L -44.1563,-66.5684
 L -47.7322,-66.5684 L -47.7499,-66.5684 L -52.5957,-61.7119 L -53.7753,-60.5298 L -61.0253,-53.2798 L -61.8724,-49.7523
 L -63.7524,-49.7523 L -63.7838,-49.7372 L -65.4578,-48.931 L -66.6162,-47.4784 L -66.6379,-47.4512 L -66.6456,-47.4172
 L -67.0591,-45.6059 L -66.6456,-43.7945 L -66.6379,-43.7606 L -66.6162,-43.7333 L -65.4578,-42.2807 L -63.8522,-41.5075
 L -64.6868,-38.032 L -65.1914,-35.2088 L -65.3974,-34.0563 L -66.8325,-22.3749 L -67.4552,-17.3062 L -67.5611,-15.8045
 L -67.7541,-13.0653 L -67.9783,-1.83837 L -68.1013,4.31655 L -68.1013,4.41655 L -68.055,5.95844 L -67.9727,8.7022
 L -67.0883,19.6564 L -66.5912,25.8123 L -63.7548,31.3073 L -62.5506,33.64 L -62.9505,33.9755 L -63.4951,33.7133
 L -63.5265,33.6982 L -65.4193,33.6982 L -65.4507,33.7133 L -67.1246,34.5194 L -68.283,35.972 L -68.3047,35.9992
 L -68.3125,36.0332 L -68.7259,37.8445 L -68.5387,38.6646 L -68.6259,38.7378 L -70.7283,40.5019 L -71.5315,41.4813
 L -71.5315,41.4814 L -71.9842,42.0333 L -70.5929,45.5264 L -68.1241,51.725 L -69.6862,53.7243 L -69.6862,53.7243
 L -74.2664,62.0319 L -78.105,68.9944 L -78.105,68.9944 z
M -75.5679,70.9767 L -70.4915,62.0412 L -65.0789,52.5139 L -65.0226,52.4147 L -65.9137,49.3384 L -68.1825,44.1509
 L -68.9045,42.5 L -67.2025,41.0719 L -67.1246,41.1697 L -65.4507,41.9758 L -65.4193,41.9909 L -63.5265,41.9909
 L -63.4951,41.9758 L -61.8212,41.1697 L -60.6628,39.7171 L -60.641,39.6899 L -60.6333,39.6559 L -60.2199,37.8445
 L -60.6333,36.0332 L -60.641,35.9992 L -60.6628,35.972 L -60.8479,35.7398 L -60.2789,35.2623 L -59.6915,34.546
 L -59.023,33.7309 L -59.023,33.7309 L -60.5542,31.378 L -64.2412,25.7123 L -65.2174,13.6229 L -65.6227,8.60219
 L -65.7101,5.68742 L -65.7501,4.35653 L -65.6418,-1.06528 L -65.4041,-12.9653 L -65.1995,-15.8687 L -65.1052,-17.2062
 L -64.5417,-21.7935 L -63.0474,-33.9563 L -62.5314,-36.8432 L -62.3368,-37.932 L -61.4413,-41.6609 L -60.1543,-42.2807
 L -58.9959,-43.7333 L -58.9742,-43.7606 L -58.9664,-43.7945 L -58.553,-45.6059 L -58.9664,-47.4172 L -58.9742,-47.4512
 L -58.9959,-47.4784 L -59.8017,-48.4889 L -59.6398,-49.1633 L -58.6753,-53.1797 L -53.6753,-58.1797 L -48.3249,-61.8009
 L -46.8147,-62.8229 L -34.2163,-62.8229 L -34.2017,-62.8229 L -31.2722,-62.8229 L -29.2824,-62.8229 L -28.718,-62.8229
 L -16.2167,-62.8229 L -12.5425,-62.8229 L -12.0944,-63.6802 L -11.0685,-65.6429 L 0.481629,-65.6429 L 5.46593,-65.6429
 L 6.67969,-64.7579 L 9.33311,-62.8229 L 13.5136,-62.8229 L 14.5587,-61.5124 L 16.2326,-60.7063 L 16.264,-60.6912
 L 18.1568,-60.6912 L 18.1882,-60.7063 L 19.8621,-61.5124 L 20.9072,-62.8229 L 21.0511,-62.8229 L 26.3132,-62.8229
 L 27.5671,-59.2475 L 30.5218,-50.8229 L 42.6686,-50.8229 L 47.7925,-50.8229 L 49.6936,-50.8229 L 50.5892,-50.8229
 L 62.3852,-50.8229 L 67.8267,-50.8229 L 68.7158,-50.8229 L 70.6075,-50.8229 L 75.9268,-50.8229 L 87.837,-50.8229
 L 91.399,-47.7922 L 92.9866,-46.4414 L 93.234,-39.7005 L 93.236,-39.6463 L 93.5397,-31.3689 L 93.637,-27.8074
 L 93.7168,-24.8883 L 93.7168,-24.8883 L 93.774,-21.8389 L 93.2826,-21.8389 L 93.2512,-21.8238 L 91.5773,-21.0177
 L 90.4189,-19.5651 L 90.3972,-19.5378 L 90.3894,-19.5039 L 89.976,-17.6925 L 90.3894,-15.8812 L 90.3972,-15.8472
 L 90.4189,-15.82 L 91.5773,-14.3674 L 93.2512,-13.5613 L 93.2826,-13.5461 L 93.9297,-13.5461 L 94.0276,-8.33074
 L 94.0276,-8.33073 L 94.0812,-3.34967 L 94.1021,-1.41787 L 94.1167,3.38367 L 94.1545,15.7642 L 94.1309,20.9099
 L 94.1225,22.7497 L 93.9977,32.8599 L 93.9138,39.6635 L 91.8943,41.6298 L 88.8643,44.5802 L 81.6739,44.5802
 L 71.6649,44.5802 L 70.1085,44.5802 L 67.5101,44.5802 L 57.0024,44.5802 L 56.9425,44.5802 L 50.2772,44.5802
 L 47.7639,44.5802 L 46.1334,44.5802 L 36.8434,44.5802 L 36.7947,44.5802 L 28.8913,44.5802 L 28.7247,44.8708
 L 28.5266,45.2163 L 28.5273,45.2492 L 28.5411,45.9558 L 28.5712,47.4925 L 28.5719,47.5272 L 28.5719,47.5272
 L 28.6363,47.5272 L 32.0808,47.5272 L 31.1866,49.0057 L 27.7381,54.708 L 20.5038,54.708 L 8.30428,54.708
 L 4.58413,56.1789 L 4.58389,56.179 L -0.321601,58.1187 L -0.323449,58.1106 L -0.345176,58.0834 L -1.50357,56.6308
 L -3.1775,55.8247 L -3.2089,55.8095 L -5.10167,55.8095 L -5.13307,55.8247 L -6.807,56.6308 L -7.9654,58.0834
 L -7.98712,58.1106 L -7.99488,58.1446 L -8.4083,59.9559 L -7.99488,61.7673 L -7.98712,61.8012 L -7.9654,61.8285
 L -7.64652,62.2283 L -12.0534,65.0922 L -12.0537,65.0924 L -16.6278,68.0649 L -17.4603,68.7004 L -18.2021,69.2666
 L -18.2252,69.2923 L -23.8597,75.55 L -27.8545,79.9867 L -27.8545,79.9867 L -27.1242,83.3762 L -26.8419,84.6863
 L -28.2628,86.642 L -42.1059,95.8129 L -43.8878,95.8369 L -52.778,88.0591 L -52.778,88.0591 L -54.8084,86.584
 L -57.6461,84.5223 L -57.686,84.4933 L -58.7876,83.8283 L -62.1449,82.8523 L -75.4751,71.9343 L -75.5679,70.9767
 z
M -66.1729,37.8445 L -65.3229,36.3723 L -63.6229,36.3723 L -62.7729,37.8445 L -63.6229,39.3168 L -65.3229,39.3168
 z
M -64.506,-45.6059 L -63.656,-47.0781 L -61.956,-47.0781 L -61.106,-45.6059 L -61.956,-44.1336 L -63.656,-44.1336
 z
M -5.85529,59.9559 L -5.00529,58.4837 L -3.30529,58.4837 L -2.45529,59.9559 L -3.30529,61.4282 L -5.00529,61.4282
 z
M 15.5104,-64.8376 L 16.3604,-66.3098 L 18.0604,-66.3098 L 18.9104,-64.8376 L 18.0604,-63.3654 L 16.3604,-63.3654
 z
M 92.529,-17.6925 L 93.379,-19.1648 L 95.079,-19.1648 L 95.929,-17.6925 L 95.079,-16.2203 L 93.379,-16.2203
 z
" stroke="black" fill="lightgray" stroke-width="0.5"/>
</svg>
