  0
SECTION
  2
BLOCKS
  0
ENDSEC
  0
SECTION
  2
ENTITIES
  0
LINE
  8
0
 10
-74.7658
 20
-72.5465
 11
-74.3524
 21
-74.3578
  0
LINE
  8
0
 10
-74.3524
 20
-74.3578
 11
-74.3446
 21
-74.3918
  0
LINE
  8
0
 10
-74.3446
 20
-74.3918
 11
-74.3229
 21
-74.419
  0
LINE
  8
0
 10
-74.3229
 20
-74.419
 11
-73.1645
 21
-75.8716
  0
LINE
  8
0
 10
-73.1645
 20
-75.8716
 11
-71.4905
 21
-76.6777
  0
LINE
  8
0
 10
-71.4905
 20
-76.6777
 11
-71.4591
 21
-76.6928
  0
LINE
  8
0
 10
-71.4591
 20
-76.6928
 11
-71.319
 21
-76.6928
  0
LINE
  8
0
 10
-71.319
 20
-76.6928
 11
-71.1985
 21
-77.298
  0
LINE
  8
0
 10
-71.1985
 20
-77.298
 11
-61.0876
 21
-85.8717
  0
LINE
  8
0
 10
-61.0876
 20
-85.8717
 11
-58.0253
 21
-88.4684
  0
LINE
  8
0
 10
-58.0253
 20
-88.4684
 11
-58.008
 21
-88.4831
  0
LINE
  8
0
 10
-58.008
 20
-88.4831
 11
-57.9491
 21
-88.533
  0
LINE
  8
0
 10
-57.9491
 20
-88.533
 11
-56.0936
 21
-89.1795
  0
LINE
  8
0
 10
-56.0936
 20
-89.1795
 11
-50.4662
 21
-91.1403
  0
LINE
  8
0
 10
-50.4662
 20
-91.1403
 11
-41.5153
 21
-100.053
  0
LINE
  8
0
 10
-41.5153
 20
-100.053
 11
-38.5546
 21
-103.001
  0
LINE
  8
0
 10
-38.5546
 20
-103.001
 11
-38.539
 21
-103.016
  0
LINE
  8
0
 10
-38.539
 20
-103.016
 11
-37.7501
 21
-103.022
  0
LINE
  8
0
 10
-37.7501
 20
-103.022
 11
-37.7247
 21
-103.133
  0
LINE
  8
0
 10
-37.7247
 20
-103.133
 11
-37.7169
 21
-103.167
  0
LINE
  8
0
 10
-37.7169
 20
-103.167
 11
-37.6952
 21
-103.194
  0
LINE
  8
0
 10
-37.6952
 20
-103.194
 11
-36.5368
 21
-104.647
  0
LINE
  8
0
 10
-36.5368
 20
-104.647
 11
-34.8629
 21
-105.453
  0
LINE
  8
0
 10
-34.8629
 20
-105.453
 11
-34.8315
 21
-105.468
  0
LINE
  8
0
 10
-34.8315
 20
-105.468
 11
-32.9387
 21
-105.468
  0
LINE
  8
0
 10
-32.9387
 20
-105.468
 11
-32.9073
 21
-105.453
  0
LINE
  8
0
 10
-32.9073
 20
-105.453
 11
-31.2334
 21
-104.647
  0
LINE
  8
0
 10
-31.2334
 20
-104.647
 11
-30.075
 21
-103.194
  0
LINE
  8
0
 10
-30.075
 20
-103.194
 11
-30.0532
 21
-103.167
  0
LINE
  8
0
 10
-30.0532
 20
-103.167
 11
-30.0455
 21
-103.133
  0
LINE
  8
0
 10
-30.0455
 20
-103.133
 11
-30.0024
 21
-102.944
  0
LINE
  8
0
 10
-30.0024
 20
-102.944
 11
-29.8659
 21
-102.877
  0
LINE
  8
0
 10
-29.8659
 20
-102.877
 11
-28.4047
 21
-102.157
  0
LINE
  8
0
 10
-28.4047
 20
-102.157
 11
-28.4047
 21
-102.157
  0
LINE
  8
0
 10
-28.4047
 20
-102.157
 11
-26.88
 21
-100.058
  0
LINE
  8
0
 10
-26.88
 20
-100.058
 11
-26.8799
 21
-100.058
  0
LINE
  8
0
 10
-26.8799
 20
-100.058
 11
-19.8272
 21
-90.3507
  0
LINE
  8
0
 10
-19.8272
 20
-90.3507
 11
-19.8272
 21
-90.3507
  0
LINE
  8
0
 10
-19.8272
 20
-90.3507
 11
-20.0517
 21
-89.4773
  0
LINE
  8
0
 10
-20.0517
 20
-89.4773
 11
-21.0948
 21
-85.4182
  0
LINE
  8
0
 10
-21.0948
 20
-85.4182
 11
-19.689
 21
-83.8568
  0
LINE
  8
0
 10
-19.689
 20
-83.8568
 11
-19.6888
 21
-83.8567
  0
LINE
  8
0
 10
-19.6888
 20
-83.8567
 11
-11.8947
 21
-75.2004
  0
LINE
  8
0
 10
-11.8947
 20
-75.2004
 11
-1.77755
 21
-68.4507
  0
LINE
  8
0
 10
-1.77755
 20
-68.4507
 11
-0.613254
 21
-67.674
  0
LINE
  8
0
 10
-0.613254
 20
-67.674
 11
0.24039
 21
-68.7444
  0
LINE
  8
0
 10
0.24039
 20
-68.7444
 11
1.91432
 21
-69.5505
  0
LINE
  8
0
 10
1.91432
 20
-69.5505
 11
1.94572
 21
-69.5657
  0
LINE
  8
0
 10
1.94572
 20
-69.5657
 11
3.83849
 21
-69.5657
  0
LINE
  8
0
 10
3.83849
 20
-69.5657
 11
3.86989
 21
-69.5505
  0
LINE
  8
0
 10
3.86989
 20
-69.5505
 11
5.54382
 21
-68.7444
  0
LINE
  8
0
 10
5.54382
 20
-68.7444
 11
6.70221
 21
-67.2918
  0
LINE
  8
0
 10
6.70221
 20
-67.2918
 11
6.72394
 21
-67.2646
  0
LINE
  8
0
 10
6.72394
 20
-67.2646
 11
6.73169
 21
-67.2306
  0
LINE
  8
0
 10
6.73169
 20
-67.2306
 11
7.06577
 21
-65.7669
  0
LINE
  8
0
 10
7.06577
 20
-65.7669
 11
13.6402
 21
-64.4386
  0
LINE
  8
0
 10
13.6402
 20
-64.4386
 11
16.7107
 21
-64.4386
  0
LINE
  8
0
 10
16.7107
 20
-64.4386
 11
16.7298
 21
-64.4386
  0
LINE
  8
0
 10
16.7298
 20
-64.4386
 11
29.5739
 21
-64.4386
  0
LINE
  8
0
 10
29.5739
 20
-64.4386
 11
31.1369
 21
-63.0346
  0
LINE
  8
0
 10
31.1369
 20
-63.0346
 11
31.5222
 21
-62.6886
  0
LINE
  8
0
 10
31.5222
 20
-62.6886
 11
31.9461
 21
-60.2875
  0
LINE
  8
0
 10
31.9461
 20
-60.2875
 11
33.1473
 21
-53.4828
  0
LINE
  8
0
 10
33.1473
 20
-53.4828
 11
33.7989
 21
-53.4828
  0
LINE
  8
0
 10
33.7989
 20
-53.4828
 11
33.8276
 21
-53.4828
  0
LINE
  8
0
 10
33.8276
 20
-53.4828
 11
39.7479
 21
-53.4828
  0
LINE
  8
0
 10
39.7479
 20
-53.4828
 11
43.3471
 21
-53.4828
  0
LINE
  8
0
 10
43.3471
 20
-53.4828
 11
43.385
 21
-53.4828
  0
LINE
  8
0
 10
43.385
 20
-53.4828
 11
49.7631
 21
-53.4828
  0
LINE
  8
0
 10
49.7631
 20
-53.4828
 11
53.7398
 21
-53.4828
  0
LINE
  8
0
 10
53.7398
 20
-53.4828
 11
56.1387
 21
-53.4828
  0
LINE
  8
0
 10
56.1387
 20
-53.4828
 11
56.5828
 21
-54.0396
  0
LINE
  8
0
 10
56.5828
 20
-54.0396
 11
58.2567
 21
-54.8457
  0
LINE
  8
0
 10
58.2567
 20
-54.8457
 11
58.2881
 21
-54.8608
  0
LINE
  8
0
 10
58.2881
 20
-54.8608
 11
60.1809
 21
-54.8608
  0
LINE
  8
0
 10
60.1809
 20
-54.8608
 11
60.2123
 21
-54.8457
  0
LINE
  8
0
 10
60.2123
 20
-54.8457
 11
61.8862
 21
-54.0396
  0
LINE
  8
0
 10
61.8862
 20
-54.0396
 11
63.0446
 21
-52.587
  0
LINE
  8
0
 10
63.0446
 20
-52.587
 11
63.0663
 21
-52.5597
  0
LINE
  8
0
 10
63.0663
 20
-52.5597
 11
63.0741
 21
-52.5257
  0
LINE
  8
0
 10
63.0741
 20
-52.5257
 11
63.4875
 21
-50.7144
  0
LINE
  8
0
 10
63.4875
 20
-50.7144
 11
63.1101
 21
-49.0608
  0
LINE
  8
0
 10
63.1101
 20
-49.0608
 11
65.585
 21
-45.8154
  0
LINE
  8
0
 10
65.585
 20
-45.8154
 11
65.5784
 21
-45.7663
  0
LINE
  8
0
 10
65.5784
 20
-45.7663
 11
64.2144
 21
-35.5847
  0
LINE
  8
0
 10
64.2144
 20
-35.5847
 11
63.3462
 21
-29.1049
  0
LINE
  8
0
 10
63.3462
 20
-29.1049
 11
63.1255
 21
-25.7509
  0
LINE
  8
0
 10
63.1255
 20
-25.7509
 11
62.7864
 21
-20.6
  0
LINE
  8
0
 10
62.7864
 20
-20.6
 11
62.7864
 21
-3.4
  0
LINE
  8
0
 10
62.7864
 20
-3.4
 11
63.1255
 21
1.75088
  0
LINE
  8
0
 10
63.1255
 20
1.75088
 11
63.3462
 21
5.10491
  0
LINE
  8
0
 10
63.3462
 20
5.10491
 11
64.2144
 21
11.5847
  0
LINE
  8
0
 10
64.2144
 20
11.5847
 11
65.5721
 21
21.7188
  0
LINE
  8
0
 10
65.5721
 20
21.7188
 11
66.4061
 21
25.7456
  0
LINE
  8
0
 10
66.4061
 20
25.7456
 11
67.2135
 21
29.6441
  0
LINE
  8
0
 10
67.2135
 20
29.6441
 11
68.6057
 21
34.4669
  0
LINE
  8
0
 10
68.6057
 20
34.4669
 11
71.5135
 21
44.5398
  0
LINE
  8
0
 10
71.5135
 20
44.5398
 11
71.5217
 21
44.5681
  0
LINE
  8
0
 10
71.5217
 20
44.5681
 11
71.5385
 21
44.6264
  0
LINE
  8
0
 10
71.5385
 20
44.6264
 11
69.3121
 21
47.7563
  0
LINE
  8
0
 10
69.3121
 20
47.7563
 11
69.6802
 21
48.2179
  0
LINE
  8
0
 10
69.6802
 20
48.2179
 11
69.7019
 21
48.2452
  0
LINE
  8
0
 10
69.7019
 20
48.2452
 11
69.7097
 21
48.2791
  0
LINE
  8
0
 10
69.7097
 20
48.2791
 11
70.1231
 21
50.0905
  0
LINE
  8
0
 10
70.1231
 20
50.0905
 11
69.7097
 21
51.9018
  0
LINE
  8
0
 10
69.7097
 20
51.9018
 11
69.7019
 21
51.9358
  0
LINE
  8
0
 10
69.7019
 20
51.9358
 11
69.6802
 21
51.9631
  0
LINE
  8
0
 10
69.6802
 20
51.9631
 11
68.5218
 21
53.4156
  0
LINE
  8
0
 10
68.5218
 20
53.4156
 11
66.8479
 21
54.2218
  0
LINE
  8
0
 10
66.8479
 20
54.2218
 11
66.8165
 21
54.2369
  0
LINE
  8
0
 10
66.8165
 20
54.2369
 11
64.9237
 21
54.2369
  0
LINE
  8
0
 10
64.9237
 20
54.2369
 11
64.8923
 21
54.2218
  0
LINE
  8
0
 10
64.8923
 20
54.2218
 11
63.2184
 21
53.4156
  0
LINE
  8
0
 10
63.2184
 20
53.4156
 11
62.4392
 21
52.4386
  0
LINE
  8
0
 10
62.4392
 20
52.4386
 11
55.0188
 21
52.4386
  0
LINE
  8
0
 10
55.0188
 20
52.4386
 11
50.6621
 21
52.4386
  0
LINE
  8
0
 10
50.6621
 20
52.4386
 11
48.4212
 21
52.4386
  0
LINE
  8
0
 10
48.4212
 20
52.4386
 11
48.4003
 21
52.4386
  0
LINE
  8
0
 10
48.4003
 20
52.4386
 11
47.7402
 21
52.4386
  0
LINE
  8
0
 10
47.7402
 20
52.4386
 11
36.7298
 21
52.4386
  0
LINE
  8
0
 10
36.7298
 20
52.4386
 11
36.7075
 21
52.4386
  0
LINE
  8
0
 10
36.7075
 20
52.4386
 11
34.4187
 21
52.4386
  0
LINE
  8
0
 10
34.4187
 20
52.4386
 11
29.9844
 21
60.5875
  0
LINE
  8
0
 10
29.9844
 20
60.5875
 11
28.8411
 21
62.6886
  0
LINE
  8
0
 10
28.8411
 20
62.6886
 11
28.472
 21
63.02
  0
LINE
  8
0
 10
28.472
 20
63.02
 11
26.8927
 21
64.4386
  0
LINE
  8
0
 10
26.8927
 20
64.4386
 11
18.2689
 21
64.4386
  0
LINE
  8
0
 10
18.2689
 20
64.4386
 11
18.2222
 21
64.6434
  0
LINE
  8
0
 10
18.2222
 20
64.6434
 11
18.2144
 21
64.6773
  0
LINE
  8
0
 10
18.2144
 20
64.6773
 11
18.1927
 21
64.7046
  0
LINE
  8
0
 10
18.1927
 20
64.7046
 11
17.0343
 21
66.1572
  0
LINE
  8
0
 10
17.0343
 20
66.1572
 11
15.3604
 21
66.9633
  0
LINE
  8
0
 10
15.3604
 20
66.9633
 11
15.329
 21
66.9784
  0
LINE
  8
0
 10
15.329
 20
66.9784
 11
13.4362
 21
66.9784
  0
LINE
  8
0
 10
13.4362
 20
66.9784
 11
13.4048
 21
66.9633
  0
LINE
  8
0
 10
13.4048
 20
66.9633
 11
11.7309
 21
66.1572
  0
LINE
  8
0
 10
11.7309
 20
66.1572
 11
11.2836
 21
65.5964
  0
LINE
  8
0
 10
11.2836
 20
65.5964
 11
8.80013
 21
66.8166
  0
LINE
  8
0
 10
8.80013
 20
66.8166
 11
7.90054
 21
67.2586
  0
LINE
  8
0
 10
7.90054
 20
67.2586
 11
-2.44913
 21
67.2586
  0
LINE
  8
0
 10
-2.44913
 20
67.2586
 11
-2.46252
 21
67.2586
  0
LINE
  8
0
 10
-2.46252
 20
67.2586
 11
-4.40311
 21
67.2586
  0
LINE
  8
0
 10
-4.40311
 20
67.2586
 11
-5.04677
 21
65.6819
  0
LINE
  8
0
 10
-5.04677
 20
65.6819
 11
-5.14557
 21
65.4399
  0
LINE
  8
0
 10
-5.14557
 20
65.4399
 11
-5.04797
 21
65.0881
  0
LINE
  8
0
 10
-5.04797
 20
65.0881
 11
-4.86775
 21
64.4386
  0
LINE
  8
0
 10
-4.86775
 20
64.4386
 11
-13.2941
 21
64.4386
  0
LINE
  8
0
 10
-13.2941
 20
64.4386
 11
-14.6722
 21
64.4386
  0
LINE
  8
0
 10
-14.6722
 20
64.4386
 11
-16.5538
 21
64.4386
  0
LINE
  8
0
 10
-16.5538
 20
64.4386
 11
-16.5608
 21
64.4386
  0
LINE
  8
0
 10
-16.5608
 20
64.4386
 11
-16.7791
 21
64.4386
  0
LINE
  8
0
 10
-16.7791
 20
64.4386
 11
-25.6747
 21
64.4386
  0
LINE
  8
0
 10
-25.6747
 20
64.4386
 11
-25.6815
 21
64.4386
  0
LINE
  8
0
 10
-25.6815
 20
64.4386
 11
-26.7079
 21
64.4386
  0
LINE
  8
0
 10
-26.7079
 20
64.4386
 11
-29.7976
 21
60.1837
  0
LINE
  8
0
 10
-29.7976
 20
60.1837
 11
-30.2871
 21
60.4194
  0
LINE
  8
0
 10
-30.2871
 20
60.4194
 11
-30.3185
 21
60.4345
  0
LINE
  8
0
 10
-30.3185
 20
60.4345
 11
-32.2113
 21
60.4345
  0
LINE
  8
0
 10
-32.2113
 20
60.4345
 11
-32.2427
 21
60.4194
  0
LINE
  8
0
 10
-32.2427
 20
60.4194
 11
-33.9166
 21
59.6133
  0
LINE
  8
0
 10
-33.9166
 20
59.6133
 11
-35.075
 21
58.1607
  0
LINE
  8
0
 10
-35.075
 20
58.1607
 11
-35.0967
 21
58.1334
  0
LINE
  8
0
 10
-35.0967
 20
58.1334
 11
-35.1045
 21
58.0995
  0
LINE
  8
0
 10
-35.1045
 20
58.0995
 11
-35.5179
 21
56.2881
  0
LINE
  8
0
 10
-35.5179
 20
56.2881
 11
-35.1045
 21
54.4768
  0
LINE
  8
0
 10
-35.1045
 20
54.4768
 11
-35.0967
 21
54.4428
  0
LINE
  8
0
 10
-35.0967
 20
54.4428
 11
-35.075
 21
54.4156
  0
LINE
  8
0
 10
-35.075
 20
54.4156
 11
-34.5052
 21
53.701
  0
LINE
  8
0
 10
-34.5052
 20
53.701
 11
-35.4686
 21
52.3743
  0
LINE
  8
0
 10
-35.4686
 20
52.3743
 11
-36.3385
 21
51.1764
  0
LINE
  8
0
 10
-36.3385
 20
51.1764
 11
-37.1
 21
49.5662
  0
LINE
  8
0
 10
-37.1
 20
49.5662
 11
-43.4651
 21
36.1075
  0
LINE
  8
0
 10
-43.4651
 20
36.1075
 11
-45.0074
 21
31.5622
  0
LINE
  8
0
 10
-45.0074
 20
31.5622
 11
-45.1919
 21
31.0184
  0
LINE
  8
0
 10
-45.1919
 20
31.0184
 11
-45.6025
 21
29.1474
  0
LINE
  8
0
 10
-45.6025
 20
29.1474
 11
-48.8809
 21
14.2113
  0
LINE
  8
0
 10
-48.8809
 20
14.2113
 11
-49.4043
 21
9.35796
  0
LINE
  8
0
 10
-49.4043
 20
9.35796
 11
-49.4699
 21
8.75
  0
LINE
  8
0
 10
-49.4699
 20
8.75
 11
-49.4699
 21
-8.75
  0
LINE
  8
0
 10
-49.4699
 20
-8.75
 11
-49.4043
 21
-9.35796
  0
LINE
  8
0
 10
-49.4043
 20
-9.35796
 11
-48.8809
 21
-14.2113
  0
LINE
  8
0
 10
-48.8809
 20
-14.2113
 11
-46.2344
 21
-26.2686
  0
LINE
  8
0
 10
-46.2344
 20
-26.2686
 11
-47.5228
 21
-26.8891
  0
LINE
  8
0
 10
-47.5228
 20
-26.8891
 11
-48.6812
 21
-28.3417
  0
LINE
  8
0
 10
-48.6812
 20
-28.3417
 11
-48.703
 21
-28.3689
  0
LINE
  8
0
 10
-48.703
 20
-28.3689
 11
-48.7107
 21
-28.4029
  0
LINE
  8
0
 10
-48.7107
 20
-28.4029
 11
-49.1241
 21
-30.2143
  0
LINE
  8
0
 10
-49.1241
 20
-30.2143
 11
-48.7107
 21
-32.0256
  0
LINE
  8
0
 10
-48.7107
 20
-32.0256
 11
-48.703
 21
-32.0596
  0
LINE
  8
0
 10
-48.703
 20
-32.0596
 11
-48.6812
 21
-32.0868
  0
LINE
  8
0
 10
-48.6812
 20
-32.0868
 11
-48.2336
 21
-32.6481
  0
LINE
  8
0
 10
-48.2336
 20
-32.6481
 11
-57.1805
 21
-37.7357
  0
LINE
  8
0
 10
-57.1805
 20
-37.7357
 11
-57.2344
 21
-37.7809
  0
LINE
  8
0
 10
-57.2344
 20
-37.7809
 11
-57.2344
 21
-37.7809
  0
LINE
  8
0
 10
-57.2344
 20
-37.7809
 11
-57.244
 21
-37.789
  0
LINE
  8
0
 10
-57.244
 20
-37.789
 11
-57.244
 21
-37.789
  0
LINE
  8
0
 10
-57.244
 20
-37.789
 11
-57.244
 21
-37.789
  0
LINE
  8
0
 10
-57.244
 20
-37.789
 11
-65.4224
 21
-44.6515
  0
LINE
  8
0
 10
-65.4224
 20
-44.6515
 11
-66.8972
 21
-45.889
  0
LINE
  8
0
 10
-66.8972
 20
-45.889
 11
-67.1056
 21
-46.1431
  0
LINE
  8
0
 10
-67.1056
 20
-46.1431
 11
-67.1057
 21
-46.1432
  0
LINE
  8
0
 10
-67.1057
 20
-46.1432
 11
-68.1532
 21
-47.4205
  0
LINE
  8
0
 10
-68.1532
 20
-47.4205
 11
-67.4656
 21
-49.1347
  0
LINE
  8
0
 10
-67.4656
 20
-49.1347
 11
-64.2737
 21
-57.0925
  0
LINE
  8
0
 10
-64.2737
 20
-57.0925
 11
-71.4521
 21
-66.2804
  0
LINE
  8
0
 10
-71.4521
 20
-66.2804
 11
-71.4523
 21
-66.2805
  0
LINE
  8
0
 10
-71.4523
 20
-66.2805
 11
-72.9877
 21
-68.2458
  0
LINE
  8
0
 10
-72.9877
 20
-68.2458
 11
-72.9985
 21
-68.2596
  0
LINE
  8
0
 10
-72.9985
 20
-68.2596
 11
-72.9985
 21
-68.2596
  0
LINE
  8
0
 10
-72.9985
 20
-68.2596
 11
-72.8383
 21
-69.0642
  0
LINE
  8
0
 10
-72.8383
 20
-69.0642
 11
-73.1645
 21
-69.2213
  0
LINE
  8
0
 10
-73.1645
 20
-69.2213
 11
-74.3229
 21
-70.6739
  0
LINE
  8
0
 10
-74.3229
 20
-70.6739
 11
-74.3446
 21
-70.7011
  0
LINE
  8
0
 10
-74.3446
 20
-70.7011
 11
-74.3524
 21
-70.7351
  0
LINE
  8
0
 10
-74.3524
 20
-70.7351
 11
-74.7658
 21
-72.5465
  0
LINE
  8
0
 10
-72.2128
 20
-72.5465
 11
-71.3628
 21
-71.0742
  0
LINE
  8
0
 10
-71.3628
 20
-71.0742
 11
-69.6628
 21
-71.0742
  0
LINE
  8
0
 10
-69.6628
 20
-71.0742
 11
-68.8128
 21
-72.5465
  0
LINE
  8
0
 10
-68.8128
 20
-72.5465
 11
-69.6628
 21
-74.0187
  0
LINE
  8
0
 10
-69.6628
 20
-74.0187
 11
-71.3628
 21
-74.0187
  0
LINE
  8
0
 10
-71.3628
 20
-74.0187
 11
-72.2128
 21
-72.5465
  0
LINE
  8
0
 10
-69.9237
 20
-68.1232
 11
-63.2374
 21
-59.5652
  0
LINE
  8
0
 10
-63.2374
 20
-59.5652
 11
-61.2493
 21
-57.0206
  0
LINE
  8
0
 10
-61.2493
 20
-57.0206
 11
-61.24
 21
-57.0086
  0
LINE
  8
0
 10
-61.24
 20
-57.0086
 11
-61.1989
 21
-56.9561
  0
LINE
  8
0
 10
-61.1989
 20
-56.9561
 11
-61.9318
 21
-55.2803
  0
LINE
  8
0
 10
-61.9318
 20
-55.2803
 11
-65.2444
 21
-47.7061
  0
LINE
  8
0
 10
-65.2444
 20
-47.7061
 11
-56.6824
 21
-40.5217
  0
LINE
  8
0
 10
-56.6824
 20
-40.5217
 11
-47.0339
 21
-33.7749
  0
LINE
  8
0
 10
-47.0339
 20
-33.7749
 11
-45.8489
 21
-34.3455
  0
LINE
  8
0
 10
-45.8489
 20
-34.3455
 11
-45.8175
 21
-34.3606
  0
LINE
  8
0
 10
-45.8175
 20
-34.3606
 11
-43.9247
 21
-34.3606
  0
LINE
  8
0
 10
-43.9247
 20
-34.3606
 11
-43.8933
 21
-34.3455
  0
LINE
  8
0
 10
-43.8933
 20
-34.3455
 11
-42.2194
 21
-33.5394
  0
LINE
  8
0
 10
-42.2194
 20
-33.5394
 11
-41.061
 21
-32.0868
  0
LINE
  8
0
 10
-41.061
 20
-32.0868
 11
-41.0393
 21
-32.0596
  0
LINE
  8
0
 10
-41.0393
 20
-32.0596
 11
-41.0315
 21
-32.0256
  0
LINE
  8
0
 10
-41.0315
 20
-32.0256
 11
-40.6181
 21
-30.2143
  0
LINE
  8
0
 10
-40.6181
 20
-30.2143
 11
-41.0315
 21
-28.4029
  0
LINE
  8
0
 10
-41.0315
 20
-28.4029
 11
-41.0393
 21
-28.3689
  0
LINE
  8
0
 10
-41.0393
 20
-28.3689
 11
-41.061
 21
-28.3417
  0
LINE
  8
0
 10
-41.061
 20
-28.3417
 11
-42.2194
 21
-26.8891
  0
LINE
  8
0
 10
-42.2194
 20
-26.8891
 11
-43.8933
 21
-26.083
  0
LINE
  8
0
 10
-43.8933
 20
-26.083
 11
-43.9247
 21
-26.0679
  0
LINE
  8
0
 10
-43.9247
 20
-26.0679
 11
-44.1565
 21
-26.0679
  0
LINE
  8
0
 10
-44.1565
 20
-26.0679
 11
-46.3961
 21
-15.8646
  0
LINE
  8
0
 10
-46.3961
 20
-15.8646
 11
-46.7809
 21
-14.1113
  0
LINE
  8
0
 10
-46.7809
 20
-14.1113
 11
-47.3067
 21
-9.23532
  0
LINE
  8
0
 10
-47.3067
 20
-9.23532
 11
-47.3699
 21
-8.64999
  0
LINE
  8
0
 10
-47.3699
 20
-8.64999
 11
-47.3699
 21
8.64999
  0
LINE
  8
0
 10
-47.3699
 20
8.64999
 11
-47.3067
 21
9.23532
  0
LINE
  8
0
 10
-47.3067
 20
9.23532
 11
-46.7809
 21
14.1113
  0
LINE
  8
0
 10
-46.7809
 20
14.1113
 11
-46.3961
 21
15.8646
  0
LINE
  8
0
 10
-46.3961
 20
15.8646
 11
-43.0919
 21
30.9184
  0
LINE
  8
0
 10
-43.0919
 20
30.9184
 11
-42.914
 21
31.4427
  0
LINE
  8
0
 10
-42.914
 20
31.4427
 11
-41.3651
 21
36.0075
  0
LINE
  8
0
 10
-41.3651
 20
36.0075
 11
-34.9728
 21
49.5238
  0
LINE
  8
0
 10
-34.9728
 20
49.5238
 11
-34.2385
 21
51.0764
  0
LINE
  8
0
 10
-34.2385
 20
51.0764
 11
-33.4144
 21
51.9527
  0
LINE
  8
0
 10
-33.4144
 20
51.9527
 11
-32.9169
 21
52.4816
  0
LINE
  8
0
 10
-32.9169
 20
52.4816
 11
-32.2427
 21
52.1569
  0
LINE
  8
0
 10
-32.2427
 20
52.1569
 11
-32.2113
 21
52.1417
  0
LINE
  8
0
 10
-32.2113
 20
52.1417
 11
-30.3185
 21
52.1417
  0
LINE
  8
0
 10
-30.3185
 20
52.1417
 11
-30.2871
 21
52.1569
  0
LINE
  8
0
 10
-30.2871
 20
52.1569
 11
-28.6132
 21
52.963
  0
LINE
  8
0
 10
-28.6132
 20
52.963
 11
-27.4548
 21
54.4156
  0
LINE
  8
0
 10
-27.4548
 20
54.4156
 11
-27.4331
 21
54.4428
  0
LINE
  8
0
 10
-27.4331
 20
54.4428
 11
-27.4253
 21
54.4768
  0
LINE
  8
0
 10
-27.4253
 20
54.4768
 11
-27.0119
 21
56.2881
  0
LINE
  8
0
 10
-27.0119
 20
56.2881
 11
-27.4253
 21
58.0995
  0
LINE
  8
0
 10
-27.4253
 20
58.0995
 11
-27.4331
 21
58.1334
  0
LINE
  8
0
 10
-27.4331
 20
58.1334
 11
-27.4548
 21
58.1607
  0
LINE
  8
0
 10
-27.4548
 20
58.1607
 11
-27.5103
 21
58.2303
  0
LINE
  8
0
 10
-27.5103
 20
58.2303
 11
-25.0277
 21
60.8699
  0
LINE
  8
0
 10
-25.0277
 20
60.8699
 11
-15.9972
 21
60.8699
  0
LINE
  8
0
 10
-15.9972
 20
60.8699
 11
-15.1107
 21
60.8699
  0
LINE
  8
0
 10
-15.1107
 20
60.8699
 11
-13.3083
 21
60.8699
  0
LINE
  8
0
 10
-13.3083
 20
60.8699
 11
-13.1034
 21
60.8699
  0
LINE
  8
0
 10
-13.1034
 20
60.8699
 11
-3.15153
 21
60.8699
  0
LINE
  8
0
 10
-3.15153
 20
60.8699
 11
-3.14571
 21
60.8699
  0
LINE
  8
0
 10
-3.14571
 20
60.8699
 11
-1.98479
 21
60.8699
  0
LINE
  8
0
 10
-1.98479
 20
60.8699
 11
-1.98479
 21
60.8699
  0
LINE
  8
0
 10
-1.98479
 20
60.8699
 11
-1.97696
 21
60.8699
  0
LINE
  8
0
 10
-1.97696
 20
60.8699
 11
-1.87969
 21
61.0898
  0
LINE
  8
0
 10
-1.87969
 20
61.0898
 11
-1.17262
 21
62.6886
  0
LINE
  8
0
 10
-1.17262
 20
62.6886
 11
-1.17262
 21
62.6886
  0
LINE
  8
0
 10
-1.17262
 20
62.6886
 11
-1.53356
 21
63.6899
  0
LINE
  8
0
 10
-1.53356
 20
63.6899
 11
7.69395
 21
63.6899
  0
LINE
  8
0
 10
7.69395
 20
63.6899
 11
9.23067
 21
63.6899
  0
LINE
  8
0
 10
9.23067
 20
63.6899
 11
10.2126
 21
63.196
  0
LINE
  8
0
 10
10.2126
 20
63.196
 11
10.1296
 21
62.832
  0
LINE
  8
0
 10
10.1296
 20
62.832
 11
10.543
 21
61.0207
  0
LINE
  8
0
 10
10.543
 20
61.0207
 11
10.5508
 21
60.9867
  0
LINE
  8
0
 10
10.5508
 20
60.9867
 11
10.5725
 21
60.9595
  0
LINE
  8
0
 10
10.5725
 20
60.9595
 11
11.7309
 21
59.5069
  0
LINE
  8
0
 10
11.7309
 20
59.5069
 11
13.4048
 21
58.7008
  0
LINE
  8
0
 10
13.4048
 20
58.7008
 11
13.4362
 21
58.6856
  0
LINE
  8
0
 10
13.4362
 20
58.6856
 11
15.329
 21
58.6856
  0
LINE
  8
0
 10
15.329
 20
58.6856
 11
15.3604
 21
58.7008
  0
LINE
  8
0
 10
15.3604
 20
58.7008
 11
17.0343
 21
59.5069
  0
LINE
  8
0
 10
17.0343
 20
59.5069
 11
18.1213
 21
60.8699
  0
LINE
  8
0
 10
18.1213
 20
60.8699
 11
26.1273
 21
60.8699
  0
LINE
  8
0
 10
26.1273
 20
60.8699
 11
27.1339
 21
60.8699
  0
LINE
  8
0
 10
27.1339
 20
60.8699
 11
27.4049
 21
60.3922
  0
LINE
  8
0
 10
27.4049
 20
60.3922
 11
32.9483
 21
50.6199
  0
LINE
  8
0
 10
32.9483
 20
50.6199
 11
34.3641
 21
49.1948
  0
LINE
  8
0
 10
34.3641
 20
49.1948
 11
34.6868
 21
48.8699
  0
LINE
  8
0
 10
34.6868
 20
48.8699
 11
46.4095
 21
48.8699
  0
LINE
  8
0
 10
46.4095
 20
48.8699
 11
48.9225
 21
48.8699
  0
LINE
  8
0
 10
48.9225
 20
48.8699
 11
51.1038
 21
48.8699
  0
LINE
  8
0
 10
51.1038
 20
48.8699
 11
51.7015
 21
48.8699
  0
LINE
  8
0
 10
51.7015
 20
48.8699
 11
61.8957
 21
48.8699
  0
LINE
  8
0
 10
61.8957
 20
48.8699
 11
62.0305
 21
48.2791
  0
LINE
  8
0
 10
62.0305
 20
48.2791
 11
62.0382
 21
48.2452
  0
LINE
  8
0
 10
62.0382
 20
48.2452
 11
62.06
 21
48.2179
  0
LINE
  8
0
 10
62.06
 20
48.2179
 11
63.2184
 21
46.7653
  0
LINE
  8
0
 10
63.2184
 20
46.7653
 11
64.8923
 21
45.9592
  0
LINE
  8
0
 10
64.8923
 20
45.9592
 11
64.9237
 21
45.9441
  0
LINE
  8
0
 10
64.9237
 20
45.9441
 11
66.8165
 21
45.9441
  0
LINE
  8
0
 10
66.8165
 20
45.9441
 11
66.8479
 21
45.9592
  0
LINE
  8
0
 10
66.8479
 20
45.9592
 11
68.0147
 21
46.5211
  0
LINE
  8
0
 10
68.0147
 20
46.5211
 11
68.1793
 21
46.2898
  0
LINE
  8
0
 10
68.1793
 20
46.2898
 11
65.3705
 21
36.5599
  0
LINE
  8
0
 10
65.3705
 20
36.5599
 11
63.8793
 21
31.3941
  0
LINE
  8
0
 10
63.8793
 20
31.3941
 11
63.8677
 21
31.3539
  0
LINE
  8
0
 10
63.8677
 20
31.3539
 11
63.8543
 21
31.3075
  0
LINE
  8
0
 10
63.8543
 20
31.3075
 11
62.9015
 21
26.707
  0
LINE
  8
0
 10
62.9015
 20
26.707
 11
62.076
 21
22.7213
  0
LINE
  8
0
 10
62.076
 20
22.7213
 11
62.069
 21
22.669
  0
LINE
  8
0
 10
62.069
 20
22.669
 11
62.0653
 21
22.6414
  0
LINE
  8
0
 10
62.0653
 20
22.6414
 11
61.0479
 21
15.0472
  0
LINE
  8
0
 10
61.0479
 20
15.0472
 11
59.8372
 21
6.01078
  0
LINE
  8
0
 10
59.8372
 20
6.01078
 11
59.8284
 21
5.94475
  0
LINE
  8
0
 10
59.8284
 20
5.94475
 11
59.8243
 21
5.91418
  0
LINE
  8
0
 10
59.8243
 20
5.91418
 11
59.6323
 21
2.99788
  0
LINE
  8
0
 10
59.6323
 20
2.99788
 11
59.2177
 21
-3.3
  0
LINE
  8
0
 10
59.2177
 20
-3.3
 11
59.2177
 21
-20.7
  0
LINE
  8
0
 10
59.2177
 20
-20.7
 11
59.6323
 21
-26.9979
  0
LINE
  8
0
 10
59.6323
 20
-26.9979
 11
59.8243
 21
-29.9142
  0
LINE
  8
0
 10
59.8243
 20
-29.9142
 11
59.8284
 21
-29.9448
  0
LINE
  8
0
 10
59.8284
 20
-29.9448
 11
59.8372
 21
-30.0108
  0
LINE
  8
0
 10
59.8372
 20
-30.0108
 11
61.0479
 21
-39.0472
  0
LINE
  8
0
 10
61.0479
 20
-39.0472
 11
62.0631
 21
-46.6247
  0
LINE
  8
0
 10
62.0631
 20
-46.6247
 11
61.5891
 21
-47.2462
  0
LINE
  8
0
 10
61.5891
 20
-47.2462
 11
60.2123
 21
-46.5831
  0
LINE
  8
0
 10
60.2123
 20
-46.5831
 11
60.1809
 21
-46.568
  0
LINE
  8
0
 10
60.1809
 20
-46.568
 11
58.2881
 21
-46.568
  0
LINE
  8
0
 10
58.2881
 20
-46.568
 11
58.2567
 21
-46.5831
  0
LINE
  8
0
 10
58.2567
 20
-46.5831
 11
56.5828
 21
-47.3893
  0
LINE
  8
0
 10
56.5828
 20
-47.3893
 11
55.4244
 21
-48.8418
  0
LINE
  8
0
 10
55.4244
 20
-48.8418
 11
55.4026
 21
-48.8691
  0
LINE
  8
0
 10
55.4026
 20
-48.8691
 11
55.3949
 21
-48.9031
  0
LINE
  8
0
 10
55.3949
 20
-48.9031
 11
55.0193
 21
-50.5485
  0
LINE
  8
0
 10
55.0193
 20
-50.5485
 11
49.4782
 21
-50.5485
  0
LINE
  8
0
 10
49.4782
 20
-50.5485
 11
47.2324
 21
-50.5485
  0
LINE
  8
0
 10
47.2324
 20
-50.5485
 11
41.4099
 21
-50.5485
  0
LINE
  8
0
 10
41.4099
 20
-50.5485
 11
39.0633
 21
-50.5485
  0
LINE
  8
0
 10
39.0633
 20
-50.5485
 11
31.2753
 21
-50.5485
  0
LINE
  8
0
 10
31.2753
 20
-50.5485
 11
29.7885
 21
-51.243
  0
LINE
  8
0
 10
29.7885
 20
-51.243
 11
29.3361
 21
-51.4543
  0
LINE
  8
0
 10
29.3361
 20
-51.4543
 11
29.0826
 21
-53.6665
  0
LINE
  8
0
 10
29.0826
 20
-53.6665
 11
28.2569
 21
-60.8699
  0
LINE
  8
0
 10
28.2569
 20
-60.8699
 11
27.7494
 21
-60.8699
  0
LINE
  8
0
 10
27.7494
 20
-60.8699
 11
14.837
 21
-60.8699
  0
LINE
  8
0
 10
14.837
 20
-60.8699
 11
12.9557
 21
-61.3338
  0
LINE
  8
0
 10
12.9557
 20
-61.3338
 11
6.2551
 21
-62.9861
  0
LINE
  8
0
 10
6.2551
 20
-62.9861
 11
5.54382
 21
-62.0941
  0
LINE
  8
0
 10
5.54382
 20
-62.0941
 11
3.86989
 21
-61.288
  0
LINE
  8
0
 10
3.86989
 20
-61.288
 11
3.83849
 21
-61.2729
  0
LINE
  8
0
 10
3.83849
 20
-61.2729
 11
1.94572
 21
-61.2729
  0
LINE
  8
0
 10
1.94572
 20
-61.2729
 11
1.91432
 21
-61.288
  0
LINE
  8
0
 10
1.91432
 20
-61.288
 11
0.24039
 21
-62.0941
  0
LINE
  8
0
 10
0.24039
 20
-62.0941
 11
-0.918007
 21
-63.5467
  0
LINE
  8
0
 10
-0.918007
 20
-63.5467
 11
-0.939734
 21
-63.574
  0
LINE
  8
0
 10
-0.939734
 20
-63.574
 11
-0.947488
 21
-63.6079
  0
LINE
  8
0
 10
-0.947488
 20
-63.6079
 11
-1.36091
 21
-65.4193
  0
LINE
  8
0
 10
-1.36091
 20
-65.4193
 11
-1.29952
 21
-65.6882
  0
LINE
  8
0
 10
-1.29952
 20
-65.6882
 11
-1.30548
 21
-65.6921
  0
LINE
  8
0
 10
-1.30548
 20
-65.6921
 11
-12.9678
 21
-73.271
  0
LINE
  8
0
 10
-12.9678
 20
-73.271
 11
-14.3031
 21
-74.2903
  0
LINE
  8
0
 10
-14.3031
 20
-74.2903
 11
-14.5421
 21
-74.4727
  0
LINE
  8
0
 10
-14.5421
 20
-74.4727
 11
-14.5502
 21
-74.4817
  0
LINE
  8
0
 10
-14.5502
 20
-74.4817
 11
-22.7497
 21
-83.5881
  0
LINE
  8
0
 10
-22.7497
 20
-83.5881
 11
-24.1484
 21
-85.1416
  0
LINE
  8
0
 10
-24.1484
 20
-85.1416
 11
-24.1484
 21
-85.1416
  0
LINE
  8
0
 10
-24.1484
 20
-85.1416
 11
-24.1945
 21
-85.1928
  0
LINE
  8
0
 10
-24.1945
 20
-85.1928
 11
-24.0214
 21
-85.9959
  0
LINE
  8
0
 10
-24.0214
 20
-85.9959
 11
-23.1819
 21
-89.8924
  0
LINE
  8
0
 10
-23.1819
 20
-89.8924
 11
-24.8764
 21
-92.2247
  0
LINE
  8
0
 10
-24.8764
 20
-92.2247
 11
-30.1012
 21
-99.416
  0
LINE
  8
0
 10
-30.1012
 20
-99.416
 11
-31.2334
 21
-97.9963
  0
LINE
  8
0
 10
-31.2334
 20
-97.9963
 11
-32.9073
 21
-97.1902
  0
LINE
  8
0
 10
-32.9073
 20
-97.1902
 11
-32.9387
 21
-97.1751
  0
LINE
  8
0
 10
-32.9387
 20
-97.1751
 11
-34.8315
 21
-97.1751
  0
LINE
  8
0
 10
-34.8315
 20
-97.1751
 11
-34.8629
 21
-97.1902
  0
LINE
  8
0
 10
-34.8629
 20
-97.1902
 11
-36.5368
 21
-97.9963
  0
LINE
  8
0
 10
-36.5368
 20
-97.9963
 11
-37.3338
 21
-98.9957
  0
LINE
  8
0
 10
-37.3338
 20
-98.9957
 11
-44.8284
 21
-91.5334
  0
LINE
  8
0
 10
-44.8284
 20
-91.5334
 11
-47.6232
 21
-88.7506
  0
LINE
  8
0
 10
-47.6232
 20
-88.7506
 11
-47.6246
 21
-88.7492
  0
LINE
  8
0
 10
-47.6246
 20
-88.7492
 11
-47.6424
 21
-88.7314
  0
LINE
  8
0
 10
-47.6424
 20
-88.7314
 11
-49.507
 21
-88.0123
  0
LINE
  8
0
 10
-49.507
 20
-88.0123
 11
-55.5409
 21
-85.6851
  0
LINE
  8
0
 10
-55.5409
 20
-85.6851
 11
-58.6665
 21
-83.0346
  0
LINE
  8
0
 10
-58.6665
 20
-83.0346
 11
-67.5596
 21
-75.4936
  0
LINE
  8
0
 10
-67.5596
 20
-75.4936
 11
-66.7027
 21
-74.419
  0
LINE
  8
0
 10
-66.7027
 20
-74.419
 11
-66.6809
 21
-74.3918
  0
LINE
  8
0
 10
-66.6809
 20
-74.3918
 11
-66.6732
 21
-74.3578
  0
LINE
  8
0
 10
-66.6732
 20
-74.3578
 11
-66.2597
 21
-72.5465
  0
LINE
  8
0
 10
-66.2597
 20
-72.5465
 11
-66.6732
 21
-70.7351
  0
LINE
  8
0
 10
-66.6732
 20
-70.7351
 11
-66.6809
 21
-70.7011
  0
LINE
  8
0
 10
-66.6809
 20
-70.7011
 11
-66.7027
 21
-70.6739
  0
LINE
  8
0
 10
-66.7027
 20
-70.6739
 11
-67.861
 21
-69.2213
  0
LINE
  8
0
 10
-67.861
 20
-69.2213
 11
-69.535
 21
-68.4152
  0
LINE
  8
0
 10
-69.535
 20
-68.4152
 11
-69.5664
 21
-68.4001
  0
LINE
  8
0
 10
-69.5664
 20
-68.4001
 11
-69.8685
 21
-68.4001
  0
LINE
  8
0
 10
-69.8685
 20
-68.4001
 11
-69.9237
 21
-68.1232
  0
LINE
  8
0
 10
-46.5711
 20
-30.2143
 11
-45.7211
 21
-28.742
  0
LINE
  8
0
 10
-45.7211
 20
-28.742
 11
-44.0211
 21
-28.742
  0
LINE
  8
0
 10
-44.0211
 20
-28.742
 11
-43.1711
 21
-30.2143
  0
LINE
  8
0
 10
-43.1711
 20
-30.2143
 11
-44.0211
 21
-31.6865
  0
LINE
  8
0
 10
-44.0211
 20
-31.6865
 11
-45.7211
 21
-31.6865
  0
LINE
  8
0
 10
-45.7211
 20
-31.6865
 11
-46.5711
 21
-30.2143
  0
LINE
  8
0
 10
-35.5851
 20
-101.321
 11
-34.7351
 21
-99.8492
  0
LINE
  8
0
 10
-34.7351
 20
-99.8492
 11
-33.0351
 21
-99.8492
  0
LINE
  8
0
 10
-33.0351
 20
-99.8492
 11
-32.1851
 21
-101.321
  0
LINE
  8
0
 10
-32.1851
 20
-101.321
 11
-33.0351
 21
-102.794
  0
LINE
  8
0
 10
-33.0351
 20
-102.794
 11
-34.7351
 21
-102.794
  0
LINE
  8
0
 10
-34.7351
 20
-102.794
 11
-35.5851
 21
-101.321
  0
LINE
  8
0
 10
-32.9649
 20
56.2881
 11
-32.1149
 21
57.7604
  0
LINE
  8
0
 10
-32.1149
 20
57.7604
 11
-30.4149
 21
57.7604
  0
LINE
  8
0
 10
-30.4149
 20
57.7604
 11
-29.5649
 21
56.2881
  0
LINE
  8
0
 10
-29.5649
 20
56.2881
 11
-30.4149
 21
54.8159
  0
LINE
  8
0
 10
-30.4149
 20
54.8159
 11
-32.1149
 21
54.8159
  0
LINE
  8
0
 10
-32.1149
 20
54.8159
 11
-32.9649
 21
56.2881
  0
LINE
  8
0
 10
1.1921
 20
-65.4193
 11
2.0421
 21
-63.947
  0
LINE
  8
0
 10
2.0421
 20
-63.947
 11
3.7421
 21
-63.947
  0
LINE
  8
0
 10
3.7421
 20
-63.947
 11
4.5921
 21
-65.4193
  0
LINE
  8
0
 10
4.5921
 20
-65.4193
 11
3.7421
 21
-66.8915
  0
LINE
  8
0
 10
3.7421
 20
-66.8915
 11
2.0421
 21
-66.8915
  0
LINE
  8
0
 10
2.0421
 20
-66.8915
 11
1.1921
 21
-65.4193
  0
LINE
  8
0
 10
12.6826
 20
62.832
 11
13.5326
 21
64.3043
  0
LINE
  8
0
 10
13.5326
 20
64.3043
 11
15.2326
 21
64.3043
  0
LINE
  8
0
 10
15.2326
 20
64.3043
 11
16.0826
 21
62.832
  0
LINE
  8
0
 10
16.0826
 20
62.832
 11
15.2326
 21
61.3598
  0
LINE
  8
0
 10
15.2326
 20
61.3598
 11
13.5326
 21
61.3598
  0
LINE
  8
0
 10
13.5326
 20
61.3598
 11
12.6826
 21
62.832
  0
LINE
  8
0
 10
57.5345
 20
-50.7144
 11
58.3845
 21
-49.2422
  0
LINE
  8
0
 10
58.3845
 20
-49.2422
 11
60.0845
 21
-49.2422
  0
LINE
  8
0
 10
60.0845
 20
-49.2422
 11
60.9345
 21
-50.7144
  0
LINE
  8
0
 10
60.9345
 20
-50.7144
 11
60.0845
 21
-52.1866
  0
LINE
  8
0
 10
60.0845
 20
-52.1866
 11
58.3845
 21
-52.1866
  0
LINE
  8
0
 10
58.3845
 20
-52.1866
 11
57.5345
 21
-50.7144
  0
LINE
  8
0
 10
64.1701
 20
50.0905
 11
65.0201
 21
51.5627
  0
LINE
  8
0
 10
65.0201
 20
51.5627
 11
66.7201
 21
51.5627
  0
LINE
  8
0
 10
66.7201
 20
51.5627
 11
67.5701
 21
50.0905
  0
LINE
  8
0
 10
67.5701
 20
50.0905
 11
66.7201
 21
48.6182
  0
LINE
  8
0
 10
66.7201
 20
48.6182
 11
65.0201
 21
48.6182
  0
LINE
  8
0
 10
65.0201
 20
48.6182
 11
64.1701
 21
50.0905
  0
ENDSEC
  0
SECTION
  2
OBJECTS
  0
DICTIONARY
  0
ENDSEC
  0
EOF
