  0
SECTION
  2
BLOCKS
  0
ENDSEC
  0
SECTION
  2
ENTITIES
  0
LINE
  8
0
 10
-92.1705
 20
-68.2596
 11
-92.0831
 21
-68.6984
  0
LINE
  8
0
 10
-92.0831
 20
-68.6984
 11
-91.1349
 21
-77.895
  0
LINE
  8
0
 10
-91.1349
 20
-77.895
 11
-91.1163
 21
-77.9103
  0
LINE
  8
0
 10
-91.1163
 20
-77.9103
 11
-91.1078
 21
-77.9173
  0
LINE
  8
0
 10
-91.1078
 20
-77.9173
 11
-88.1071
 21
-80.3816
  0
LINE
  8
0
 10
-88.1071
 20
-80.3816
 11
-77.7288
 21
-88.9047
  0
LINE
  8
0
 10
-77.7288
 20
-88.9047
 11
-77.6646
 21
-88.9574
  0
LINE
  8
0
 10
-77.6646
 20
-88.9574
 11
-73.2809
 21
-91.098
  0
LINE
  8
0
 10
-73.2809
 20
-91.098
 11
-71.8199
 21
-91.2585
  0
LINE
  8
0
 10
-71.8199
 20
-91.2585
 11
-71.8199
 21
-91.2585
  0
LINE
  8
0
 10
-71.8199
 20
-91.2585
 11
-67.3187
 21
-95.2384
  0
LINE
  8
0
 10
-67.3187
 20
-95.2384
 11
-58.5524
 21
-102.989
  0
LINE
  8
0
 10
-58.5524
 20
-102.989
 11
-58.5524
 21
-102.989
  0
LINE
  8
0
 10
-58.5524
 20
-102.989
 11
-58.4752
 21
-103.058
  0
LINE
  8
0
 10
-58.4752
 20
-103.058
 11
-58.0713
 21
-103.056
  0
LINE
  8
0
 10
-58.0713
 20
-103.056
 11
-54.4247
 21
-103.038
  0
LINE
  8
0
 10
-54.4247
 20
-103.038
 11
-49.4342
 21
-103.072
  0
LINE
  8
0
 10
-49.4342
 20
-103.072
 11
-47.6564
 21
-102.196
  0
LINE
  8
0
 10
-47.6564
 20
-102.196
 11
-47.5767
 21
-102.157
  0
LINE
  8
0
 10
-47.5767
 20
-102.157
 11
-47.5767
 21
-102.157
  0
LINE
  8
0
 10
-47.5767
 20
-102.157
 11
-43.2517
 21
-96.2037
  0
LINE
  8
0
 10
-43.2517
 20
-96.2037
 11
-43.2515
 21
-96.2034
  0
LINE
  8
0
 10
-43.2515
 20
-96.2034
 11
-38.9992
 21
-90.3507
  0
LINE
  8
0
 10
-38.9992
 20
-90.3507
 11
-38.9992
 21
-90.3507
  0
LINE
  8
0
 10
-38.9992
 20
-90.3507
 11
-39.6315
 21
-87.8904
  0
LINE
  8
0
 10
-39.6315
 20
-87.8904
 11
-40.2668
 21
-85.4182
  0
LINE
  8
0
 10
-40.2668
 20
-85.4182
 11
-37.0644
 21
-81.8615
  0
LINE
  8
0
 10
-37.0644
 20
-81.8615
 11
-37.0641
 21
-81.8612
  0
LINE
  8
0
 10
-37.0641
 20
-81.8612
 11
-31.0667
 21
-75.2005
  0
LINE
  8
0
 10
-31.0667
 20
-75.2005
 11
-23.1158
 21
-69.896
  0
LINE
  8
0
 10
-23.1158
 20
-69.896
 11
-23.1156
 21
-69.8958
  0
LINE
  8
0
 10
-23.1156
 20
-69.8958
 11
-20.7583
 21
-68.3231
  0
LINE
  8
0
 10
-20.7583
 20
-68.3231
 11
-20.9511
 21
-69.1681
  0
LINE
  8
0
 10
-20.9511
 20
-69.1681
 11
-20.5377
 21
-70.9795
  0
LINE
  8
0
 10
-20.5377
 20
-70.9795
 11
-20.53
 21
-71.0135
  0
LINE
  8
0
 10
-20.53
 20
-71.0135
 11
-20.5082
 21
-71.0407
  0
LINE
  8
0
 10
-20.5082
 20
-71.0407
 11
-19.3498
 21
-72.4933
  0
LINE
  8
0
 10
-19.3498
 20
-72.4933
 11
-17.6759
 21
-73.2994
  0
LINE
  8
0
 10
-17.6759
 20
-73.2994
 11
-17.6445
 21
-73.3145
  0
LINE
  8
0
 10
-17.6445
 20
-73.3145
 11
-15.7517
 21
-73.3145
  0
LINE
  8
0
 10
-15.7517
 20
-73.3145
 11
-15.7203
 21
-73.2994
  0
LINE
  8
0
 10
-15.7203
 20
-73.2994
 11
-14.0464
 21
-72.4933
  0
LINE
  8
0
 10
-14.0464
 20
-72.4933
 11
-12.888
 21
-71.0407
  0
LINE
  8
0
 10
-12.888
 20
-71.0407
 11
-12.8663
 21
-71.0135
  0
LINE
  8
0
 10
-12.8663
 20
-71.0135
 11
-12.8585
 21
-70.9795
  0
LINE
  8
0
 10
-12.8585
 20
-70.9795
 11
-12.4451
 21
-69.1681
  0
LINE
  8
0
 10
-12.4451
 20
-69.1681
 11
-12.8585
 21
-67.3568
  0
LINE
  8
0
 10
-12.8585
 20
-67.3568
 11
-12.8663
 21
-67.3228
  0
LINE
  8
0
 10
-12.8663
 20
-67.3228
 11
-12.888
 21
-67.2956
  0
LINE
  8
0
 10
-12.888
 20
-67.2956
 11
-14.0464
 21
-65.843
  0
LINE
  8
0
 10
-14.0464
 20
-65.843
 11
-15.1893
 21
-65.2926
  0
LINE
  8
0
 10
-15.1893
 20
-65.2926
 11
-7.66689
 21
-61.6186
  0
LINE
  8
0
 10
-7.66689
 20
-61.6186
 11
0.270772
 21
-61.6186
  0
LINE
  8
0
 10
0.270772
 20
-61.6186
 11
0.31768
 21
-61.6186
  0
LINE
  8
0
 10
0.31768
 20
-61.6186
 11
12.4244
 21
-61.6186
  0
LINE
  8
0
 10
12.4244
 20
-61.6186
 11
12.7057
 21
-60.9909
  0
LINE
  8
0
 10
12.7057
 20
-60.9909
 11
13.2089
 21
-59.8686
  0
LINE
  8
0
 10
13.2089
 20
-59.8686
 11
16.2427
 21
-49.1148
  0
LINE
  8
0
 10
16.2427
 20
-49.1148
 11
18.3958
 21
-41.4828
  0
LINE
  8
0
 10
18.3958
 20
-41.4828
 11
24.2901
 21
-41.4828
  0
LINE
  8
0
 10
24.2901
 20
-41.4828
 11
24.3843
 21
-41.4828
  0
LINE
  8
0
 10
24.3843
 20
-41.4828
 11
28.1094
 21
-41.4828
  0
LINE
  8
0
 10
28.1094
 20
-41.4828
 11
29.477
 21
-44.1728
  0
LINE
  8
0
 10
29.477
 20
-44.1728
 11
34.21
 21
-53.4828
  0
LINE
  8
0
 10
34.21
 20
-53.4828
 11
34.2664
 21
-53.4828
  0
LINE
  8
0
 10
34.2664
 20
-53.4828
 11
44.9281
 21
-53.4828
  0
LINE
  8
0
 10
44.9281
 20
-53.4828
 11
51.5058
 21
-53.4828
  0
LINE
  8
0
 10
51.5058
 20
-53.4828
 11
54.3719
 21
-53.4828
  0
LINE
  8
0
 10
54.3719
 20
-53.4828
 11
73.5211
 21
-53.4828
  0
LINE
  8
0
 10
73.5211
 20
-53.4828
 11
78.4574
 21
-48.7147
  0
LINE
  8
0
 10
78.4574
 20
-48.7147
 11
80.5211
 21
-46.7213
  0
LINE
  8
0
 10
80.5211
 20
-46.7213
 11
80.5211
 21
-46.6531
  0
LINE
  8
0
 10
80.5211
 20
-46.6531
 11
80.5211
 21
-46.6531
  0
LINE
  8
0
 10
80.5211
 20
-46.6531
 11
80.5211
 21
-30.9621
  0
LINE
  8
0
 10
80.5211
 20
-30.9621
 11
80.5211
 21
6.96211
  0
LINE
  8
0
 10
80.5211
 20
6.96211
 11
80.5211
 21
10.8082
  0
LINE
  8
0
 10
80.5211
 20
10.8082
 11
81.1728
 21
11.122
  0
LINE
  8
0
 10
81.1728
 20
11.122
 11
82.3312
 21
12.5746
  0
LINE
  8
0
 10
82.3312
 20
12.5746
 11
82.353
 21
12.6018
  0
LINE
  8
0
 10
82.353
 20
12.6018
 11
82.3607
 21
12.6358
  0
LINE
  8
0
 10
82.3607
 20
12.6358
 11
82.7741
 21
14.4471
  0
LINE
  8
0
 10
82.7741
 20
14.4471
 11
82.3607
 21
16.2585
  0
LINE
  8
0
 10
82.3607
 20
16.2585
 11
82.353
 21
16.2925
  0
LINE
  8
0
 10
82.353
 20
16.2925
 11
82.3312
 21
16.3197
  0
LINE
  8
0
 10
82.3312
 20
16.3197
 11
81.1728
 21
17.7723
  0
LINE
  8
0
 10
81.1728
 20
17.7723
 11
80.5211
 21
18.0861
  0
LINE
  8
0
 10
80.5211
 20
18.0861
 11
80.5211
 21
22.6531
  0
LINE
  8
0
 10
80.5211
 20
22.6531
 11
80.5211
 21
25.1989
  0
LINE
  8
0
 10
80.5211
 20
25.1989
 11
80.5211
 21
25.2783
  0
LINE
  8
0
 10
80.5211
 20
25.2783
 11
80.5211
 21
31.3452
  0
LINE
  8
0
 10
80.5211
 20
31.3452
 11
80.5211
 21
37.864
  0
LINE
  8
0
 10
80.5211
 20
37.864
 11
80.5211
 21
46.3434
  0
LINE
  8
0
 10
80.5211
 20
46.3434
 11
80.5211
 21
46.3434
  0
LINE
  8
0
 10
80.5211
 20
46.3434
 11
80.5211
 21
46.3764
  0
LINE
  8
0
 10
80.5211
 20
46.3764
 11
78.1707
 21
48.4119
  0
LINE
  8
0
 10
78.1707
 20
48.4119
 11
73.5211
 21
52.4386
  0
LINE
  8
0
 10
73.5211
 20
52.4386
 11
53.8219
 21
52.4386
  0
LINE
  8
0
 10
53.8219
 20
52.4386
 11
52.6929
 21
52.4386
  0
LINE
  8
0
 10
52.6929
 20
52.4386
 11
41.2175
 21
52.4386
  0
LINE
  8
0
 10
41.2175
 20
52.4386
 11
35.525
 21
52.4386
  0
LINE
  8
0
 10
35.525
 20
52.4386
 11
33.6754
 21
56.9721
  0
LINE
  8
0
 10
33.6754
 20
56.9721
 11
30.6293
 21
64.4386
  0
LINE
  8
0
 10
30.6293
 20
64.4386
 11
19.9675
 21
64.4386
  0
LINE
  8
0
 10
19.9675
 20
64.4386
 11
13.5922
 21
64.4386
  0
LINE
  8
0
 10
13.5922
 20
64.4386
 11
10.5885
 21
66.3008
  0
LINE
  8
0
 10
10.5885
 20
66.3008
 11
9.04363
 21
67.2586
  0
LINE
  8
0
 10
9.04363
 20
67.2586
 11
4.18394
 21
67.2586
  0
LINE
  8
0
 10
4.18394
 20
67.2586
 11
4.10878
 21
67.5879
  0
LINE
  8
0
 10
4.10878
 20
67.5879
 11
4.10102
 21
67.6218
  0
LINE
  8
0
 10
4.10102
 20
67.6218
 11
4.0793
 21
67.6491
  0
LINE
  8
0
 10
4.0793
 20
67.6491
 11
2.9209
 21
69.1017
  0
LINE
  8
0
 10
2.9209
 20
69.1017
 11
1.24697
 21
69.9078
  0
LINE
  8
0
 10
1.24697
 20
69.9078
 11
1.21557
 21
69.9229
  0
LINE
  8
0
 10
1.21557
 20
69.9229
 11
-0.6772
 21
69.9229
  0
LINE
  8
0
 10
-0.6772
 20
69.9229
 11
-0.708596
 21
69.9078
  0
LINE
  8
0
 10
-0.708596
 20
69.9078
 11
-2.38253
 21
69.1017
  0
LINE
  8
0
 10
-2.38253
 20
69.1017
 11
-3.54092
 21
67.6491
  0
LINE
  8
0
 10
-3.54092
 20
67.6491
 11
-3.56265
 21
67.6218
  0
LINE
  8
0
 10
-3.56265
 20
67.6218
 11
-3.57041
 21
67.5879
  0
LINE
  8
0
 10
-3.57041
 20
67.5879
 11
-3.64557
 21
67.2586
  0
LINE
  8
0
 10
-3.64557
 20
67.2586
 11
-7.76348
 21
67.2586
  0
LINE
  8
0
 10
-7.76348
 20
67.2586
 11
-8.36293
 21
66.4681
  0
LINE
  8
0
 10
-8.36293
 20
66.4681
 11
-9.90213
 21
64.4386
  0
LINE
  8
0
 10
-9.90213
 20
64.4386
 11
-21.5714
 21
64.4386
  0
LINE
  8
0
 10
-21.5714
 20
64.4386
 11
-21.6021
 21
64.4386
  0
LINE
  8
0
 10
-21.6021
 20
64.4386
 11
-26.1362
 21
64.4386
  0
LINE
  8
0
 10
-26.1362
 20
64.4386
 11
-28.5648
 21
64.4386
  0
LINE
  8
0
 10
-28.5648
 20
64.4386
 11
-28.5881
 21
64.4386
  0
LINE
  8
0
 10
-28.5881
 20
64.4386
 11
-29.3372
 21
64.4386
  0
LINE
  8
0
 10
-29.3372
 20
64.4386
 11
-41.3539
 21
64.4386
  0
LINE
  8
0
 10
-41.3539
 20
64.4386
 11
-45.0194
 21
64.4386
  0
LINE
  8
0
 10
-45.0194
 20
64.4386
 11
-46.4417
 21
64.4386
  0
LINE
  8
0
 10
-46.4417
 20
64.4386
 11
-46.4601
 21
64.4386
  0
LINE
  8
0
 10
-46.4601
 20
64.4386
 11
-46.8125
 21
64.4386
  0
LINE
  8
0
 10
-46.8125
 20
64.4386
 11
-59.1259
 21
64.4386
  0
LINE
  8
0
 10
-59.1259
 20
64.4386
 11
-59.1436
 21
64.4386
  0
LINE
  8
0
 10
-59.1436
 20
64.4386
 11
-61.7839
 21
64.4386
  0
LINE
  8
0
 10
-61.7839
 20
64.4386
 11
-61.7972
 21
64.4386
  0
LINE
  8
0
 10
-61.7972
 20
64.4386
 11
-62.8108
 21
63.289
  0
LINE
  8
0
 10
-62.8108
 20
63.289
 11
-67.3185
 21
58.1764
  0
LINE
  8
0
 10
-67.3185
 20
58.1764
 11
-74.3185
 21
51.1764
  0
LINE
  8
0
 10
-74.3185
 20
51.1764
 11
-75.2438
 21
47.9712
  0
LINE
  8
0
 10
-75.2438
 20
47.9712
 11
-75.3337
 21
47.6597
  0
LINE
  8
0
 10
-75.3337
 20
47.6597
 11
-75.4657
 21
47.7232
  0
LINE
  8
0
 10
-75.4657
 20
47.7232
 11
-75.4971
 21
47.7384
  0
LINE
  8
0
 10
-75.4971
 20
47.7384
 11
-77.3899
 21
47.7384
  0
LINE
  8
0
 10
-77.3899
 20
47.7384
 11
-77.4213
 21
47.7232
  0
LINE
  8
0
 10
-77.4213
 20
47.7232
 11
-79.0952
 21
46.9171
  0
LINE
  8
0
 10
-79.0952
 20
46.9171
 11
-80.2536
 21
45.4645
  0
LINE
  8
0
 10
-80.2536
 20
45.4645
 11
-80.2754
 21
45.4373
  0
LINE
  8
0
 10
-80.2754
 20
45.4373
 11
-80.2831
 21
45.4033
  0
LINE
  8
0
 10
-80.2831
 20
45.4033
 11
-80.6965
 21
43.592
  0
LINE
  8
0
 10
-80.6965
 20
43.592
 11
-80.2831
 21
41.7806
  0
LINE
  8
0
 10
-80.2831
 20
41.7806
 11
-80.2754
 21
41.7467
  0
LINE
  8
0
 10
-80.2754
 20
41.7467
 11
-80.2536
 21
41.7194
  0
LINE
  8
0
 10
-80.2536
 20
41.7194
 11
-79.0952
 21
40.2668
  0
LINE
  8
0
 10
-79.0952
 20
40.2668
 11
-77.6665
 21
39.5788
  0
LINE
  8
0
 10
-77.6665
 20
39.5788
 11
-78.6685
 21
36.1075
  0
LINE
  8
0
 10
-78.6685
 20
36.1075
 11
-79.4983
 21
32.1009
  0
LINE
  8
0
 10
-79.4983
 20
32.1009
 11
-79.7225
 21
31.0184
  0
LINE
  8
0
 10
-79.7225
 20
31.0184
 11
-80.2671
 21
26.9534
  0
LINE
  8
0
 10
-80.2671
 20
26.9534
 11
-81.9742
 21
14.2113
  0
LINE
  8
0
 10
-81.9742
 20
14.2113
 11
-82.2468
 21
10.0709
  0
LINE
  8
0
 10
-82.2468
 20
10.0709
 11
-82.3337
 21
8.75
  0
LINE
  8
0
 10
-82.3337
 20
8.75
 11
-82.3337
 21
-8.75
  0
LINE
  8
0
 10
-82.3337
 20
-8.75
 11
-82.2468
 21
-10.0709
  0
LINE
  8
0
 10
-82.2468
 20
-10.0709
 11
-81.9742
 21
-14.2113
  0
LINE
  8
0
 10
-81.9742
 20
-14.2113
 11
-80.2671
 21
-26.9534
  0
LINE
  8
0
 10
-80.2671
 20
-26.9534
 11
-79.7225
 21
-31.0184
  0
LINE
  8
0
 10
-79.7225
 20
-31.0184
 11
-79.0868
 21
-33.5923
  0
LINE
  8
0
 10
-79.0868
 20
-33.5923
 11
-77.7697
 21
-38.9249
  0
LINE
  8
0
 10
-77.7697
 20
-38.9249
 11
-82.7704
 21
-43.121
  0
LINE
  8
0
 10
-82.7704
 20
-43.121
 11
-86.0693
 21
-45.889
  0
LINE
  8
0
 10
-86.0693
 20
-45.889
 11
-86.5961
 21
-46.5314
  0
LINE
  8
0
 10
-86.5961
 20
-46.5314
 11
-86.5961
 21
-46.5314
  0
LINE
  8
0
 10
-86.5961
 20
-46.5314
 11
-87.3252
 21
-47.4205
  0
LINE
  8
0
 10
-87.3252
 20
-47.4205
 11
-85.3853
 21
-52.2569
  0
LINE
  8
0
 10
-85.3853
 20
-52.2569
 11
-83.4458
 21
-57.0925
  0
LINE
  8
0
 10
-83.4458
 20
-57.0925
 11
-87.8078
 21
-62.6756
  0
LINE
  8
0
 10
-87.8078
 20
-62.6756
 11
-87.808
 21
-62.6759
  0
LINE
  8
0
 10
-87.808
 20
-62.6759
 11
-92.1212
 21
-68.1965
  0
LINE
  8
0
 10
-92.1212
 20
-68.1965
 11
-92.1705
 21
-68.2596
  0
LINE
  8
0
 10
-92.1705
 20
-68.2596
 11
-92.1705
 21
-68.2596
  0
LINE
  8
0
 10
-89.5557
 20
-69.9917
 11
-86.8912
 21
-65.3016
  0
LINE
  8
0
 10
-86.8912
 20
-65.3016
 11
-86.8912
 21
-65.3016
  0
LINE
  8
0
 10
-86.8912
 20
-65.3016
 11
-86.8912
 21
-65.3016
  0
LINE
  8
0
 10
-86.8912
 20
-65.3016
 11
-84.0863
 21
-61.7116
  0
LINE
  8
0
 10
-84.0863
 20
-61.7116
 11
-80.4214
 21
-57.0206
  0
LINE
  8
0
 10
-80.4214
 20
-57.0206
 11
-80.4214
 21
-57.0206
  0
LINE
  8
0
 10
-80.4214
 20
-57.0206
 11
-80.3923
 21
-56.9834
  0
LINE
  8
0
 10
-80.3923
 20
-56.9834
 11
-80.3709
 21
-56.9561
  0
LINE
  8
0
 10
-80.3709
 20
-56.9561
 11
-82.3837
 21
-52.3539
  0
LINE
  8
0
 10
-82.3837
 20
-52.3539
 11
-84.4165
 21
-47.7061
  0
LINE
  8
0
 10
-84.4165
 20
-47.7061
 11
-82.7783
 21
-46.3315
  0
LINE
  8
0
 10
-82.7783
 20
-46.3315
 11
-82.778
 21
-46.3313
  0
LINE
  8
0
 10
-82.778
 20
-46.3313
 11
-80.5064
 21
-44.4251
  0
LINE
  8
0
 10
-80.5064
 20
-44.4251
 11
-80.2831
 21
-45.4033
  0
LINE
  8
0
 10
-80.2831
 20
-45.4033
 11
-80.2754
 21
-45.4373
  0
LINE
  8
0
 10
-80.2754
 20
-45.4373
 11
-80.2536
 21
-45.4645
  0
LINE
  8
0
 10
-80.2536
 20
-45.4645
 11
-79.0952
 21
-46.9171
  0
LINE
  8
0
 10
-79.0952
 20
-46.9171
 11
-77.4213
 21
-47.7232
  0
LINE
  8
0
 10
-77.4213
 20
-47.7232
 11
-77.3899
 21
-47.7384
  0
LINE
  8
0
 10
-77.3899
 20
-47.7384
 11
-75.4971
 21
-47.7384
  0
LINE
  8
0
 10
-75.4971
 20
-47.7384
 11
-75.4657
 21
-47.7232
  0
LINE
  8
0
 10
-75.4657
 20
-47.7232
 11
-73.7918
 21
-46.9171
  0
LINE
  8
0
 10
-73.7918
 20
-46.9171
 11
-72.6334
 21
-45.4645
  0
LINE
  8
0
 10
-72.6334
 20
-45.4645
 11
-72.6117
 21
-45.4373
  0
LINE
  8
0
 10
-72.6117
 20
-45.4373
 11
-72.6039
 21
-45.4033
  0
LINE
  8
0
 10
-72.6039
 20
-45.4033
 11
-72.1905
 21
-43.592
  0
LINE
  8
0
 10
-72.1905
 20
-43.592
 11
-72.6039
 21
-41.7806
  0
LINE
  8
0
 10
-72.6039
 20
-41.7806
 11
-72.6117
 21
-41.7467
  0
LINE
  8
0
 10
-72.6117
 20
-41.7467
 11
-72.6334
 21
-41.7194
  0
LINE
  8
0
 10
-72.6334
 20
-41.7194
 11
-73.7918
 21
-40.2668
  0
LINE
  8
0
 10
-73.7918
 20
-40.2668
 11
-75.1064
 21
-39.6337
  0
LINE
  8
0
 10
-75.1064
 20
-39.6337
 11
-74.535
 21
-38.937
  0
LINE
  8
0
 10
-74.535
 20
-38.937
 11
-74.535
 21
-38.937
  0
LINE
  8
0
 10
-74.535
 20
-38.937
 11
-76.5797
 21
-33.6268
  0
LINE
  8
0
 10
-76.5797
 20
-33.6268
 11
-77.6225
 21
-30.9184
  0
LINE
  8
0
 10
-77.6225
 20
-30.9184
 11
-78.0876
 21
-27.4471
  0
LINE
  8
0
 10
-78.0876
 20
-27.4471
 11
-70.9706
 21
-27.4471
  0
LINE
  8
0
 10
-70.9706
 20
-27.4471
 11
-70.9706
 21
25.4471
  0
LINE
  8
0
 10
-70.9706
 20
25.4471
 11
-78.3555
 21
25.4471
  0
LINE
  8
0
 10
-78.3555
 20
25.4471
 11
-77.6225
 21
30.9184
  0
LINE
  8
0
 10
-77.6225
 20
30.9184
 11
-77.4137
 21
31.9265
  0
LINE
  8
0
 10
-77.4137
 20
31.9265
 11
-76.5685
 21
36.0075
  0
LINE
  8
0
 10
-76.5685
 20
36.0075
 11
-75.576
 21
39.4456
  0
LINE
  8
0
 10
-75.576
 20
39.4456
 11
-75.4971
 21
39.4456
  0
LINE
  8
0
 10
-75.4971
 20
39.4456
 11
-75.4657
 21
39.4607
  0
LINE
  8
0
 10
-75.4657
 20
39.4607
 11
-73.7918
 21
40.2668
  0
LINE
  8
0
 10
-73.7918
 20
40.2668
 11
-72.6334
 21
41.7194
  0
LINE
  8
0
 10
-72.6334
 20
41.7194
 11
-72.6117
 21
41.7467
  0
LINE
  8
0
 10
-72.6117
 20
41.7467
 11
-72.6039
 21
41.7806
  0
LINE
  8
0
 10
-72.6039
 20
41.7806
 11
-72.1905
 21
43.592
  0
LINE
  8
0
 10
-72.1905
 20
43.592
 11
-72.6039
 21
45.4033
  0
LINE
  8
0
 10
-72.6039
 20
45.4033
 11
-72.6117
 21
45.4373
  0
LINE
  8
0
 10
-72.6117
 20
45.4373
 11
-72.6334
 21
45.4645
  0
LINE
  8
0
 10
-72.6334
 20
45.4645
 11
-73.5182
 21
46.5741
  0
LINE
  8
0
 10
-73.5182
 20
46.5741
 11
-73.0802
 21
48.0915
  0
LINE
  8
0
 10
-73.0802
 20
48.0915
 11
-72.2185
 21
51.0764
  0
LINE
  8
0
 10
-72.2185
 20
51.0764
 11
-67.2185
 21
56.0764
  0
LINE
  8
0
 10
-67.2185
 20
56.0764
 11
-61.8415
 21
60.0426
  0
LINE
  8
0
 10
-61.8415
 20
60.0426
 11
-60.72
 21
60.8699
  0
LINE
  8
0
 10
-60.72
 20
60.8699
 11
-47.996
 21
60.8699
  0
LINE
  8
0
 10
-47.996
 20
60.8699
 11
-45.7527
 21
60.8699
  0
LINE
  8
0
 10
-45.7527
 20
60.8699
 11
-44.4045
 21
60.8699
  0
LINE
  8
0
 10
-44.4045
 20
60.8699
 11
-44.3898
 21
60.8699
  0
LINE
  8
0
 10
-44.3898
 20
60.8699
 11
-44.1118
 21
60.8699
  0
LINE
  8
0
 10
-44.1118
 20
60.8699
 11
-31.4706
 21
60.8699
  0
LINE
  8
0
 10
-31.4706
 20
60.8699
 11
-28.4508
 21
60.8699
  0
LINE
  8
0
 10
-28.4508
 20
60.8699
 11
-26.0894
 21
60.8699
  0
LINE
  8
0
 10
-26.0894
 20
60.8699
 11
-25.4063
 21
60.8699
  0
LINE
  8
0
 10
-25.4063
 20
60.8699
 11
-12.8996
 21
60.8699
  0
LINE
  8
0
 10
-12.8996
 20
60.8699
 11
-9.15563
 21
60.8699
  0
LINE
  8
0
 10
-9.15563
 20
60.8699
 11
-9.15563
 21
60.8699
  0
LINE
  8
0
 10
-9.15563
 20
60.8699
 11
-9.13059
 21
60.8699
  0
LINE
  8
0
 10
-9.13059
 20
60.8699
 11
-8.51694
 21
61.7455
  0
LINE
  8
0
 10
-8.51694
 20
61.7455
 11
-7.15413
 21
63.6899
  0
LINE
  8
0
 10
-7.15413
 20
63.6899
 11
-3.37023
 21
63.6899
  0
LINE
  8
0
 10
-3.37023
 20
63.6899
 11
-2.38253
 21
62.4514
  0
LINE
  8
0
 10
-2.38253
 20
62.4514
 11
-0.708596
 21
61.6453
  0
LINE
  8
0
 10
-0.708596
 20
61.6453
 11
-0.6772
 21
61.6301
  0
LINE
  8
0
 10
-0.6772
 20
61.6301
 11
1.21557
 21
61.6301
  0
LINE
  8
0
 10
1.21557
 20
61.6301
 11
1.24697
 21
61.6453
  0
LINE
  8
0
 10
1.24697
 20
61.6453
 11
2.9209
 21
62.4514
  0
LINE
  8
0
 10
2.9209
 20
62.4514
 11
3.9086
 21
63.6899
  0
LINE
  8
0
 10
3.9086
 20
63.6899
 11
4.34227
 21
63.6899
  0
LINE
  8
0
 10
4.34227
 20
63.6899
 11
4.36811
 21
63.6899
  0
LINE
  8
0
 10
4.36811
 20
63.6899
 11
9.45978
 21
63.6899
  0
LINE
  8
0
 10
9.45978
 20
63.6899
 11
12.2629
 21
61.8843
  0
LINE
  8
0
 10
12.2629
 20
61.8843
 11
13.8377
 21
60.8699
  0
LINE
  8
0
 10
13.8377
 20
60.8699
 11
25.5152
 21
60.8699
  0
LINE
  8
0
 10
25.5152
 20
60.8699
 11
30.8749
 21
60.8699
  0
LINE
  8
0
 10
30.8749
 20
60.8699
 11
33.9361
 21
53.0923
  0
LINE
  8
0
 10
33.9361
 20
53.0923
 11
35.5981
 21
48.8699
  0
LINE
  8
0
 10
35.5981
 20
48.8699
 11
47.7397
 21
48.8699
  0
LINE
  8
0
 10
47.7397
 20
48.8699
 11
52.9006
 21
48.8699
  0
LINE
  8
0
 10
52.9006
 20
48.8699
 11
55.1585
 21
48.8699
  0
LINE
  8
0
 10
55.1585
 20
48.8699
 11
56.2211
 21
48.8699
  0
LINE
  8
0
 10
56.2211
 20
48.8699
 11
73.4211
 21
48.8699
  0
LINE
  8
0
 10
73.4211
 20
48.8699
 11
75.1294
 21
47.3905
  0
LINE
  8
0
 10
75.1294
 20
47.3905
 11
78.4211
 21
44.5398
  0
LINE
  8
0
 10
78.4211
 20
44.5398
 11
78.4211
 21
34.6972
  0
LINE
  8
0
 10
78.4211
 20
34.6972
 11
78.4211
 21
29.5993
  0
LINE
  8
0
 10
78.4211
 20
29.5993
 11
78.4211
 21
25.5376
  0
LINE
  8
0
 10
78.4211
 20
25.5376
 11
78.4211
 21
21.7545
  0
LINE
  8
0
 10
78.4211
 20
21.7545
 11
78.4211
 21
18.5935
  0
LINE
  8
0
 10
78.4211
 20
18.5935
 11
77.5747
 21
18.5935
  0
LINE
  8
0
 10
77.5747
 20
18.5935
 11
77.5433
 21
18.5784
  0
LINE
  8
0
 10
77.5433
 20
18.5784
 11
75.8694
 21
17.7723
  0
LINE
  8
0
 10
75.8694
 20
17.7723
 11
74.711
 21
16.3197
  0
LINE
  8
0
 10
74.711
 20
16.3197
 11
74.6893
 21
16.2925
  0
LINE
  8
0
 10
74.6893
 20
16.2925
 11
74.6815
 21
16.2585
  0
LINE
  8
0
 10
74.6815
 20
16.2585
 11
74.2681
 21
14.4471
  0
LINE
  8
0
 10
74.2681
 20
14.4471
 11
74.6815
 21
12.6358
  0
LINE
  8
0
 10
74.6815
 20
12.6358
 11
74.6893
 21
12.6018
  0
LINE
  8
0
 10
74.6893
 20
12.6018
 11
74.711
 21
12.5746
  0
LINE
  8
0
 10
74.711
 20
12.5746
 11
75.8694
 21
11.122
  0
LINE
  8
0
 10
75.8694
 20
11.122
 11
77.5433
 21
10.3159
  0
LINE
  8
0
 10
77.5433
 20
10.3159
 11
77.5747
 21
10.3008
  0
LINE
  8
0
 10
77.5747
 20
10.3008
 11
78.4211
 21
10.3008
  0
LINE
  8
0
 10
78.4211
 20
10.3008
 11
78.4211
 21
6.96209
  0
LINE
  8
0
 10
78.4211
 20
6.96209
 11
78.3244
 21
5.84095
  0
LINE
  8
0
 10
78.3244
 20
5.84095
 11
78.3242
 21
5.83895
  0
LINE
  8
0
 10
78.3242
 20
5.83895
 11
78.3193
 21
5.72652
  0
LINE
  8
0
 10
78.3193
 20
5.72652
 11
77.9232
 21
-3.3
  0
LINE
  8
0
 10
77.9232
 20
-3.3
 11
77.9232
 21
-20.7
  0
LINE
  8
0
 10
77.9232
 20
-20.7
 11
78.3193
 21
-29.7265
  0
LINE
  8
0
 10
78.3193
 20
-29.7265
 11
78.3242
 21
-29.8389
  0
LINE
  8
0
 10
78.3242
 20
-29.8389
 11
78.3244
 21
-29.8409
  0
LINE
  8
0
 10
78.3244
 20
-29.8409
 11
78.4211
 21
-30.9621
  0
LINE
  8
0
 10
78.4211
 20
-30.9621
 11
78.4211
 21
-38.5966
  0
LINE
  8
0
 10
78.4211
 20
-38.5966
 11
78.4211
 21
-45.7188
  0
LINE
  8
0
 10
78.4211
 20
-45.7188
 11
75.7594
 21
-48.2899
  0
LINE
  8
0
 10
75.7594
 20
-48.2899
 11
73.4211
 21
-50.5485
  0
LINE
  8
0
 10
73.4211
 20
-50.5485
 11
56.2211
 21
-50.5485
  0
LINE
  8
0
 10
56.2211
 20
-50.5485
 11
53.8346
 21
-50.5485
  0
LINE
  8
0
 10
53.8346
 20
-50.5485
 11
51.7386
 21
-50.5485
  0
LINE
  8
0
 10
51.7386
 20
-50.5485
 11
43.3246
 21
-50.5485
  0
LINE
  8
0
 10
43.3246
 20
-50.5485
 11
34.5569
 21
-50.5485
  0
LINE
  8
0
 10
34.5569
 20
-50.5485
 11
31.5624
 21
-44.4125
  0
LINE
  8
0
 10
31.5624
 20
-44.4125
 11
28.7005
 21
-38.5485
  0
LINE
  8
0
 10
28.7005
 20
-38.5485
 11
28.7005
 21
-38.5485
  0
LINE
  8
0
 10
28.7005
 20
-38.5485
 11
19.5032
 21
-38.5485
  0
LINE
  8
0
 10
19.5032
 20
-38.5485
 11
11.5649
 21
-38.5485
  0
LINE
  8
0
 10
11.5649
 20
-38.5485
 11
11.182
 21
-39.1392
  0
LINE
  8
0
 10
11.182
 20
-39.1392
 11
10.9778
 21
-39.4543
  0
LINE
  8
0
 10
10.9778
 20
-39.4543
 11
10.9794
 21
-39.4879
  0
LINE
  8
0
 10
10.9794
 20
-39.4879
 11
11.0362
 21
-40.7096
  0
LINE
  8
0
 10
11.0362
 20
-40.7096
 11
11.0693
 21
-41.4218
  0
LINE
  8
0
 10
11.0693
 20
-41.4218
 11
11.0722
 21
-41.4828
  0
LINE
  8
0
 10
11.0722
 20
-41.4828
 11
11.0722
 21
-41.4828
  0
LINE
  8
0
 10
11.0722
 20
-41.4828
 11
11.1343
 21
-41.4828
  0
LINE
  8
0
 10
11.1343
 20
-41.4828
 11
15.4221
 21
-41.4828
  0
LINE
  8
0
 10
15.4221
 20
-41.4828
 11
14.4144
 21
-45.7439
  0
LINE
  8
0
 10
14.4144
 20
-45.7439
 11
11.504
 21
-58.0499
  0
LINE
  8
0
 10
11.504
 20
-58.0499
 11
6.03318
 21
-58.0499
  0
LINE
  8
0
 10
6.03318
 20
-58.0499
 11
6.00793
 21
-58.0499
  0
LINE
  8
0
 10
6.00793
 20
-58.0499
 11
-7.25073
 21
-58.0499
  0
LINE
  8
0
 10
-7.25073
 20
-58.0499
 11
-10.1603
 21
-59.6917
  0
LINE
  8
0
 10
-10.1603
 20
-59.6917
 11
-10.1605
 21
-59.6919
  0
LINE
  8
0
 10
-10.1605
 20
-59.6919
 11
-18.3902
 21
-64.3357
  0
LINE
  8
0
 10
-18.3902
 20
-64.3357
 11
-28.5482
 21
-70.937
  0
LINE
  8
0
 10
-28.5482
 20
-70.937
 11
-28.5485
 21
-70.9371
  0
LINE
  8
0
 10
-28.5485
 20
-70.9371
 11
-32.1398
 21
-73.271
  0
LINE
  8
0
 10
-32.1398
 20
-73.271
 11
-33.1795
 21
-74.0646
  0
LINE
  8
0
 10
-33.1795
 20
-74.0646
 11
-33.7141
 21
-74.4727
  0
LINE
  8
0
 10
-33.7141
 20
-74.4727
 11
-33.7313
 21
-74.4918
  0
LINE
  8
0
 10
-33.7313
 20
-74.4918
 11
-40.3524
 21
-81.8452
  0
LINE
  8
0
 10
-40.3524
 20
-81.8452
 11
-43.3355
 21
-85.1583
  0
LINE
  8
0
 10
-43.3355
 20
-85.1583
 11
-43.3355
 21
-85.1583
  0
LINE
  8
0
 10
-43.3355
 20
-85.1583
 11
-43.3665
 21
-85.1928
  0
LINE
  8
0
 10
-43.3665
 20
-85.1928
 11
-42.9081
 21
-87.3202
  0
LINE
  8
0
 10
-42.9081
 20
-87.3202
 11
-42.3539
 21
-89.8924
  0
LINE
  8
0
 10
-42.3539
 20
-89.8924
 11
-48.9591
 21
-98.9837
  0
LINE
  8
0
 10
-48.9591
 20
-98.9837
 11
-50.179
 21
-100.663
  0
LINE
  8
0
 10
-50.179
 20
-100.663
 11
-56.3181
 21
-100.745
  0
LINE
  8
0
 10
-56.3181
 20
-100.745
 11
-64.1036
 21
-93.9342
  0
LINE
  8
0
 10
-64.1036
 20
-93.9342
 11
-69.6878
 21
-89.0487
  0
LINE
  8
0
 10
-69.6878
 20
-89.0487
 11
-69.7289
 21
-89.0128
  0
LINE
  8
0
 10
-69.7289
 20
-89.0128
 11
-73.8214
 21
-87.0125
  0
LINE
  8
0
 10
-73.8214
 20
-87.0125
 11
-75.6868
 21
-86.4701
  0
LINE
  8
0
 10
-75.6868
 20
-86.4701
 11
-79.5227
 21
-83.3283
  0
LINE
  8
0
 10
-79.5227
 20
-83.3283
 11
-89.0169
 21
-75.5522
  0
LINE
  8
0
 10
-89.0169
 20
-75.5522
 11
-89.5557
 21
-69.9917
  0
LINE
  8
0
 10
-80.2337
 20
-8.65
 11
-80.2337
 21
8.65
  0
LINE
  8
0
 10
-80.2337
 20
8.65
 11
-80.1535
 21
9.86865
  0
LINE
  8
0
 10
-80.1535
 20
9.86865
 11
-79.9706
 21
12.6476
  0
LINE
  8
0
 10
-79.9706
 20
12.6476
 11
-79.9706
 21
-12.6476
  0
LINE
  8
0
 10
-79.9706
 20
-12.6476
 11
-80.1535
 21
-9.86865
  0
LINE
  8
0
 10
-80.1535
 20
-9.86865
 11
-80.2337
 21
-8.65
  0
LINE
  8
0
 10
-78.1435
 20
-43.592
 11
-77.2935
 21
-42.1197
  0
LINE
  8
0
 10
-77.2935
 20
-42.1197
 11
-75.5935
 21
-42.1197
  0
LINE
  8
0
 10
-75.5935
 20
-42.1197
 11
-74.7435
 21
-43.592
  0
LINE
  8
0
 10
-74.7435
 20
-43.592
 11
-75.5935
 21
-45.0642
  0
LINE
  8
0
 10
-75.5935
 20
-45.0642
 11
-77.2935
 21
-45.0642
  0
LINE
  8
0
 10
-77.2935
 20
-45.0642
 11
-78.1435
 21
-43.592
  0
LINE
  8
0
 10
-78.1435
 20
43.592
 11
-77.2935
 21
45.0642
  0
LINE
  8
0
 10
-77.2935
 20
45.0642
 11
-75.5935
 21
45.0642
  0
LINE
  8
0
 10
-75.5935
 20
45.0642
 11
-74.7435
 21
43.592
  0
LINE
  8
0
 10
-74.7435
 20
43.592
 11
-75.5935
 21
42.1197
  0
LINE
  8
0
 10
-75.5935
 20
42.1197
 11
-77.2935
 21
42.1197
  0
LINE
  8
0
 10
-77.2935
 20
42.1197
 11
-78.1435
 21
43.592
  0
LINE
  8
0
 10
-18.3981
 20
-69.1681
 11
-17.5481
 21
-67.6959
  0
LINE
  8
0
 10
-17.5481
 20
-67.6959
 11
-15.8481
 21
-67.6959
  0
LINE
  8
0
 10
-15.8481
 20
-67.6959
 11
-14.9981
 21
-69.1681
  0
LINE
  8
0
 10
-14.9981
 20
-69.1681
 11
-15.8481
 21
-70.6404
  0
LINE
  8
0
 10
-15.8481
 20
-70.6404
 11
-17.5481
 21
-70.6404
  0
LINE
  8
0
 10
-17.5481
 20
-70.6404
 11
-18.3981
 21
-69.1681
  0
LINE
  8
0
 10
-1.43081
 20
65.7765
 11
-0.580814
 21
67.2488
  0
LINE
  8
0
 10
-0.580814
 20
67.2488
 11
1.11918
 21
67.2488
  0
LINE
  8
0
 10
1.11918
 20
67.2488
 11
1.96919
 21
65.7765
  0
LINE
  8
0
 10
1.96919
 20
65.7765
 11
1.11918
 21
64.3043
  0
LINE
  8
0
 10
1.11918
 20
64.3043
 11
-0.580814
 21
64.3043
  0
LINE
  8
0
 10
-0.580814
 20
64.3043
 11
-1.43081
 21
65.7765
  0
LINE
  8
0
 10
76.8211
 20
14.4471
 11
77.6711
 21
15.9194
  0
LINE
  8
0
 10
77.6711
 20
15.9194
 11
79.3711
 21
15.9194
  0
LINE
  8
0
 10
79.3711
 20
15.9194
 11
80.2211
 21
14.4471
  0
LINE
  8
0
 10
80.2211
 20
14.4471
 11
79.3711
 21
12.9749
  0
LINE
  8
0
 10
79.3711
 20
12.9749
 11
77.6711
 21
12.9749
  0
LINE
  8
0
 10
77.6711
 20
12.9749
 11
76.8211
 21
14.4471
  0
ENDSEC
  0
SECTION
  2
OBJECTS
  0
DICTIONARY
  0
ENDSEC
  0
EOF
