  0
SECTION
  2
BLOCKS
  0
ENDSEC
  0
SECTION
  2
ENTITIES
  0
LINE
  8
0
 10
-75.5796
 20
-71.9974
 11
-74.8725
 21
-78.8557
  0
LINE
  8
0
 10
-74.8725
 20
-78.8557
 11
-74.6078
 21
-81.423
  0
LINE
  8
0
 10
-74.6078
 20
-81.423
 11
-74.5986
 21
-81.4305
  0
LINE
  8
0
 10
-74.5986
 20
-81.4305
 11
-72.8878
 21
-82.8356
  0
LINE
  8
0
 10
-72.8878
 20
-82.8356
 11
-61.1375
 21
-92.4854
  0
LINE
  8
0
 10
-61.1375
 20
-92.4854
 11
-60.129
 21
-92.9866
  0
LINE
  8
0
 10
-60.129
 20
-92.9866
 11
-57.7987
 21
-93.2909
  0
LINE
  8
0
 10
-57.7987
 20
-93.2909
 11
-56.5885
 21
-92.9106
  0
LINE
  8
0
 10
-56.5885
 20
-92.9106
 11
-55.3323
 21
-92.356
  0
LINE
  8
0
 10
-55.3323
 20
-92.356
 11
-53.7495
 21
-94.8637
  0
LINE
  8
0
 10
-53.7495
 20
-94.8637
 11
-52.3445
 21
-97.0895
  0
LINE
  8
0
 10
-52.3445
 20
-97.0895
 11
-45.1584
 21
-103.443
  0
LINE
  8
0
 10
-45.1584
 20
-103.443
 11
-43.0952
 21
-105.268
  0
LINE
  8
0
 10
-43.0952
 20
-105.268
 11
-36.6336
 21
-105.237
  0
LINE
  8
0
 10
-36.6336
 20
-105.237
 11
-31.0246
 21
-105.21
  0
LINE
  8
0
 10
-31.0246
 20
-105.21
 11
-30.9168
 21
-105.141
  0
LINE
  8
0
 10
-30.9168
 20
-105.141
 11
-27.6604
 21
-103.054
  0
LINE
  8
0
 10
-27.6604
 20
-103.054
 11
-24.1388
 21
-100.796
  0
LINE
  8
0
 10
-24.1388
 20
-100.796
 11
-21.9781
 21
-98.6263
  0
LINE
  8
0
 10
-21.9781
 20
-98.6263
 11
-19.7273
 21
-96.3658
  0
LINE
  8
0
 10
-19.7273
 20
-96.3658
 11
-19.7273
 21
-96.3658
  0
LINE
  8
0
 10
-19.7273
 20
-96.3658
 11
-18.9159
 21
-95.249
  0
LINE
  8
0
 10
-18.9159
 20
-95.249
 11
-18.9157
 21
-95.2488
  0
LINE
  8
0
 10
-18.9157
 20
-95.2488
 11
-16.891
 21
-92.462
  0
LINE
  8
0
 10
-16.891
 20
-92.462
 11
-16.891
 21
-92.462
  0
LINE
  8
0
 10
-16.891
 20
-92.462
 11
-16.8533
 21
-92.4101
  0
LINE
  8
0
 10
-16.8533
 20
-92.4101
 11
-17.149
 21
-91.2463
  0
LINE
  8
0
 10
-17.149
 20
-91.2463
 11
-18.0893
 21
-87.5449
  0
LINE
  8
0
 10
-18.0893
 20
-87.5449
 11
-18.0893
 21
-87.5449
  0
LINE
  8
0
 10
-18.0893
 20
-87.5449
 11
-13.826
 21
-82.8099
  0
LINE
  8
0
 10
-13.826
 20
-82.8099
 11
-8.84641
 21
-77.2796
  0
LINE
  8
0
 10
-8.84641
 20
-77.2796
 11
-5.77148
 21
-75.1823
  0
LINE
  8
0
 10
-5.77148
 20
-75.1823
 11
1.10149
 21
-70.4945
  0
LINE
  8
0
 10
1.10149
 20
-70.4945
 11
2.55915
 21
-70.4945
  0
LINE
  8
0
 10
2.55915
 20
-70.4945
 11
2.59055
 21
-70.4794
  0
LINE
  8
0
 10
2.59055
 20
-70.4794
 11
4.26448
 21
-69.6733
  0
LINE
  8
0
 10
4.26448
 20
-69.6733
 11
4.54667
 21
-69.3194
  0
LINE
  8
0
 10
4.54667
 20
-69.3194
 11
5.50865
 21
-69.0704
  0
LINE
  8
0
 10
5.50865
 20
-69.0704
 11
13.3645
 21
-67.0366
  0
LINE
  8
0
 10
13.3645
 20
-67.0366
 11
21.341
 21
-67.0366
  0
LINE
  8
0
 10
21.341
 20
-67.0366
 11
21.3824
 21
-67.0366
  0
LINE
  8
0
 10
21.3824
 20
-67.0366
 11
35.3257
 21
-67.0366
  0
LINE
  8
0
 10
35.3257
 20
-67.0366
 11
39.852
 21
-61.0298
  0
LINE
  8
0
 10
39.852
 20
-61.0298
 11
43.3554
 21
-56.3805
  0
LINE
  8
0
 10
43.3554
 20
-56.3805
 11
43.3613
 21
-56.3805
  0
LINE
  8
0
 10
43.3613
 20
-56.3805
 11
43.4246
 21
-56.3805
  0
LINE
  8
0
 10
43.4246
 20
-56.3805
 11
50.5862
 21
-56.3805
  0
LINE
  8
0
 10
50.5862
 20
-56.3805
 11
52.9545
 21
-56.3805
  0
LINE
  8
0
 10
52.9545
 20
-56.3805
 11
72.0377
 21
-56.3805
  0
LINE
  8
0
 10
72.0377
 20
-56.3805
 11
76.1334
 21
-52.4244
  0
LINE
  8
0
 10
76.1334
 20
-52.4244
 11
82.0377
 21
-46.7213
  0
LINE
  8
0
 10
82.0377
 20
-46.7213
 11
82.0377
 21
-46.654
  0
LINE
  8
0
 10
82.0377
 20
-46.654
 11
82.0377
 21
-30.2333
  0
LINE
  8
0
 10
82.0377
 20
-30.2333
 11
82.0377
 21
6.23327
  0
LINE
  8
0
 10
82.0377
 20
6.23327
 11
82.0377
 21
22.654
  0
LINE
  8
0
 10
82.0377
 20
22.654
 11
82.0377
 21
25.2824
  0
LINE
  8
0
 10
82.0377
 20
25.2824
 11
82.0377
 21
25.3605
  0
LINE
  8
0
 10
82.0377
 20
25.3605
 11
82.0377
 21
31.3458
  0
LINE
  8
0
 10
82.0377
 20
31.3458
 11
82.0377
 21
37.9559
  0
LINE
  8
0
 10
82.0377
 20
37.9559
 11
82.0377
 21
46.3437
  0
LINE
  8
0
 10
82.0377
 20
46.3437
 11
82.0377
 21
46.3764
  0
LINE
  8
0
 10
82.0377
 20
46.3764
 11
78.8591
 21
49.1292
  0
LINE
  8
0
 10
78.8591
 20
49.1292
 11
72.0377
 21
55.0366
  0
LINE
  8
0
 10
72.0377
 20
55.0366
 11
52.7064
 21
55.0366
  0
LINE
  8
0
 10
52.7064
 20
55.0366
 11
51.838
 21
55.0366
  0
LINE
  8
0
 10
51.838
 20
55.0366
 11
40.0615
 21
55.0366
  0
LINE
  8
0
 10
40.0615
 20
55.0366
 11
34.6719
 21
55.0366
  0
LINE
  8
0
 10
34.6719
 20
55.0366
 11
33.1489
 21
59.3164
  0
LINE
  8
0
 10
33.1489
 20
59.3164
 11
30.4016
 21
67.0366
  0
LINE
  8
0
 10
30.4016
 20
67.0366
 11
22.4085
 21
67.0366
  0
LINE
  8
0
 10
22.4085
 20
67.0366
 11
22.3023
 21
67.0878
  0
LINE
  8
0
 10
22.3023
 20
67.0878
 11
22.2709
 21
67.1029
  0
LINE
  8
0
 10
22.2709
 20
67.1029
 11
20.3781
 21
67.1029
  0
LINE
  8
0
 10
20.3781
 20
67.1029
 11
20.3467
 21
67.0878
  0
LINE
  8
0
 10
20.3467
 20
67.0878
 11
20.2405
 21
67.0366
  0
LINE
  8
0
 10
20.2405
 20
67.0366
 11
19.3774
 21
67.0366
  0
LINE
  8
0
 10
19.3774
 20
67.0366
 11
19.3385
 21
67.0366
  0
LINE
  8
0
 10
19.3385
 20
67.0366
 11
13.3645
 21
67.0366
  0
LINE
  8
0
 10
13.3645
 20
67.0366
 11
10.6999
 21
68.9474
  0
LINE
  8
0
 10
10.6999
 20
68.9474
 11
9.43186
 21
69.8566
  0
LINE
  8
0
 10
9.43186
 20
69.8566
 11
-7.37525
 21
69.8566
  0
LINE
  8
0
 10
-7.37525
 20
69.8566
 11
-7.79151
 21
69.0929
  0
LINE
  8
0
 10
-7.79151
 20
69.0929
 11
-8.91225
 21
67.0366
  0
LINE
  8
0
 10
-8.91225
 20
67.0366
 11
-20.7366
 21
67.0366
  0
LINE
  8
0
 10
-20.7366
 20
67.0366
 11
-20.7661
 21
67.0366
  0
LINE
  8
0
 10
-20.7661
 20
67.0366
 11
-25.1469
 21
67.0366
  0
LINE
  8
0
 10
-25.1469
 20
67.0366
 11
-27.1516
 21
67.0366
  0
LINE
  8
0
 10
-27.1516
 20
67.0366
 11
-27.174
 21
67.0366
  0
LINE
  8
0
 10
-27.174
 20
67.0366
 11
-27.765
 21
67.0366
  0
LINE
  8
0
 10
-27.765
 20
67.0366
 11
-39.8659
 21
67.0366
  0
LINE
  8
0
 10
-39.8659
 20
67.0366
 11
-39.89
 21
67.0366
  0
LINE
  8
0
 10
-39.89
 20
67.0366
 11
-43.4471
 21
67.0366
  0
LINE
  8
0
 10
-43.4471
 20
67.0366
 11
-43.4648
 21
67.0366
  0
LINE
  8
0
 10
-43.4648
 20
67.0366
 11
-45.1555
 21
65.5916
  0
LINE
  8
0
 10
-45.1555
 20
65.5916
 11
-50.3209
 21
61.1764
  0
LINE
  8
0
 10
-50.3209
 20
61.1764
 11
-60.3209
 21
51.1764
  0
LINE
  8
0
 10
-60.3209
 20
51.1764
 11
-61.1601
 21
47.737
  0
LINE
  8
0
 10
-61.1601
 20
47.737
 11
-61.1629
 21
47.7384
  0
LINE
  8
0
 10
-61.1629
 20
47.7384
 11
-63.0557
 21
47.7384
  0
LINE
  8
0
 10
-63.0557
 20
47.7384
 11
-63.0871
 21
47.7232
  0
LINE
  8
0
 10
-63.0871
 20
47.7232
 11
-64.761
 21
46.9171
  0
LINE
  8
0
 10
-64.761
 20
46.9171
 11
-65.9194
 21
45.4645
  0
LINE
  8
0
 10
-65.9194
 20
45.4645
 11
-65.9412
 21
45.4373
  0
LINE
  8
0
 10
-65.9412
 20
45.4373
 11
-65.9489
 21
45.4033
  0
LINE
  8
0
 10
-65.9489
 20
45.4033
 11
-66.3624
 21
43.592
  0
LINE
  8
0
 10
-66.3624
 20
43.592
 11
-65.9489
 21
41.7806
  0
LINE
  8
0
 10
-65.9489
 20
41.7806
 11
-65.9412
 21
41.7467
  0
LINE
  8
0
 10
-65.9412
 20
41.7467
 11
-65.9194
 21
41.7194
  0
LINE
  8
0
 10
-65.9194
 20
41.7194
 11
-64.761
 21
40.2668
  0
LINE
  8
0
 10
-64.761
 20
40.2668
 11
-63.1698
 21
39.5005
  0
LINE
  8
0
 10
-63.1698
 20
39.5005
 11
-63.9977
 21
36.1075
  0
LINE
  8
0
 10
-63.9977
 20
36.1075
 11
-64.2864
 21
34.4582
  0
LINE
  8
0
 10
-64.2864
 20
34.4582
 11
-64.8886
 21
31.0184
  0
LINE
  8
0
 10
-64.8886
 20
31.0184
 11
-66.175
 21
19.6585
  0
LINE
  8
0
 10
-66.175
 20
19.6585
 11
-66.7918
 21
14.2113
  0
LINE
  8
0
 10
-66.7918
 20
14.2113
 11
-66.9824
 21
10.7868
  0
LINE
  8
0
 10
-66.9824
 20
10.7868
 11
-67.0957
 21
8.75
  0
LINE
  8
0
 10
-67.0957
 20
8.75
 11
-67.0957
 21
-8.75
  0
LINE
  8
0
 10
-67.0957
 20
-8.75
 11
-66.9824
 21
-10.7868
  0
LINE
  8
0
 10
-66.9824
 20
-10.7868
 11
-66.7918
 21
-14.2113
  0
LINE
  8
0
 10
-66.7918
 20
-14.2113
 11
-66.175
 21
-19.6585
  0
LINE
  8
0
 10
-66.175
 20
-19.6585
 11
-64.8886
 21
-31.0184
  0
LINE
  8
0
 10
-64.8886
 20
-31.0184
 11
-61.7318
 21
-35.4853
  0
LINE
  8
0
 10
-61.7318
 20
-35.4853
 11
-60.43
 21
-37.3274
  0
LINE
  8
0
 10
-60.43
 20
-37.3274
 11
-62.9543
 21
-39.4456
  0
LINE
  8
0
 10
-62.9543
 20
-39.4456
 11
-63.0557
 21
-39.4456
  0
LINE
  8
0
 10
-63.0557
 20
-39.4456
 11
-63.0871
 21
-39.4607
  0
LINE
  8
0
 10
-63.0871
 20
-39.4607
 11
-64.761
 21
-40.2668
  0
LINE
  8
0
 10
-64.761
 20
-40.2668
 11
-65.9194
 21
-41.7194
  0
LINE
  8
0
 10
-65.9194
 20
-41.7194
 11
-65.9412
 21
-41.7467
  0
LINE
  8
0
 10
-65.9412
 20
-41.7467
 11
-65.9489
 21
-41.7806
  0
LINE
  8
0
 10
-65.9489
 20
-41.7806
 11
-65.9991
 21
-42.0005
  0
LINE
  8
0
 10
-65.9991
 20
-42.0005
 11
-68.0261
 21
-43.7014
  0
LINE
  8
0
 10
-68.0261
 20
-43.7014
 11
-68.0261
 21
-43.7014
  0
LINE
  8
0
 10
-68.0261
 20
-43.7014
 11
-68.0438
 21
-43.7162
  0
LINE
  8
0
 10
-68.0438
 20
-43.7162
 11
-68.3939
 21
-44.1431
  0
LINE
  8
0
 10
-68.3939
 20
-44.1431
 11
-68.394
 21
-44.1432
  0
LINE
  8
0
 10
-68.394
 20
-44.1432
 11
-69.2997
 21
-45.2476
  0
LINE
  8
0
 10
-69.2997
 20
-45.2476
 11
-69.2997
 21
-45.2476
  0
LINE
  8
0
 10
-69.2997
 20
-45.2476
 11
-67.8335
 21
-49.2306
  0
LINE
  8
0
 10
-67.8335
 20
-49.2306
 11
-65.6526
 21
-55.1554
  0
LINE
  8
0
 10
-65.6526
 20
-55.1554
 11
-67.8324
 21
-57.9455
  0
LINE
  8
0
 10
-67.8324
 20
-57.9455
 11
-67.8324
 21
-57.9455
  0
LINE
  8
0
 10
-67.8324
 20
-57.9455
 11
-67.8324
 21
-57.9455
  0
LINE
  8
0
 10
-67.8324
 20
-57.9455
 11
-72.0286
 21
-65.5566
  0
LINE
  8
0
 10
-72.0286
 20
-65.5566
 11
-75.5199
 21
-71.8892
  0
LINE
  8
0
 10
-75.5199
 20
-71.8892
 11
-75.5199
 21
-71.8892
  0
LINE
  8
0
 10
-75.5199
 20
-71.8892
 11
-75.5796
 21
-71.9974
  0
LINE
  8
0
 10
-70.8445
 20
-75.542
 11
-60.7104
 21
-57.7037
  0
LINE
  8
0
 10
-60.7104
 20
-57.7037
 11
-60.3602
 21
-57.0873
  0
LINE
  8
0
 10
-60.3602
 20
-57.0873
 11
-60.3598
 21
-57.0865
  0
LINE
  8
0
 10
-60.3598
 20
-57.0865
 11
-60.2992
 21
-56.98
  0
LINE
  8
0
 10
-60.2992
 20
-56.98
 11
-60.3313
 21
-56.8694
  0
LINE
  8
0
 10
-60.3313
 20
-56.8694
 11
-63.407
 21
-49.8368
  0
LINE
  8
0
 10
-63.407
 20
-49.8368
 11
-64.3389
 21
-47.7061
  0
LINE
  8
0
 10
-64.3389
 20
-47.7061
 11
-63.8954
 21
-47.334
  0
LINE
  8
0
 10
-63.8954
 20
-47.334
 11
-63.0871
 21
-47.7232
  0
LINE
  8
0
 10
-63.0871
 20
-47.7232
 11
-63.0557
 21
-47.7384
  0
LINE
  8
0
 10
-63.0557
 20
-47.7384
 11
-61.1629
 21
-47.7384
  0
LINE
  8
0
 10
-61.1629
 20
-47.7384
 11
-61.1316
 21
-47.7232
  0
LINE
  8
0
 10
-61.1316
 20
-47.7232
 11
-59.4576
 21
-46.9171
  0
LINE
  8
0
 10
-59.4576
 20
-46.9171
 11
-58.2992
 21
-45.4645
  0
LINE
  8
0
 10
-58.2992
 20
-45.4645
 11
-58.2775
 21
-45.4373
  0
LINE
  8
0
 10
-58.2775
 20
-45.4373
 11
-58.2697
 21
-45.4033
  0
LINE
  8
0
 10
-58.2697
 20
-45.4033
 11
-57.8563
 21
-43.592
  0
LINE
  8
0
 10
-57.8563
 20
-43.592
 11
-58.1102
 21
-42.4796
  0
LINE
  8
0
 10
-58.1102
 20
-42.4796
 11
-55.7133
 21
-40.4684
  0
LINE
  8
0
 10
-55.7133
 20
-40.4684
 11
-55.1484
 21
-39.7795
  0
LINE
  8
0
 10
-55.1484
 20
-39.7795
 11
-54.4574
 21
-38.937
  0
LINE
  8
0
 10
-54.4574
 20
-38.937
 11
-54.4574
 21
-38.937
  0
LINE
  8
0
 10
-54.4574
 20
-38.937
 11
-56.0107
 21
-36.6007
  0
LINE
  8
0
 10
-56.0107
 20
-36.6007
 11
-59.7886
 21
-30.9184
  0
LINE
  8
0
 10
-59.7886
 20
-30.9184
 11
-60.1817
 21
-27.4471
  0
LINE
  8
0
 10
-60.1817
 20
-27.4471
 11
-54.4917
 21
-27.4471
  0
LINE
  8
0
 10
-54.4917
 20
-27.4471
 11
-54.4917
 21
25.4471
  0
LINE
  8
0
 10
-54.4917
 20
25.4471
 11
-60.4082
 21
25.4471
  0
LINE
  8
0
 10
-60.4082
 20
25.4471
 11
-59.7886
 21
30.9184
  0
LINE
  8
0
 10
-59.7886
 20
30.9184
 11
-59.5426
 21
32.3237
  0
LINE
  8
0
 10
-59.5426
 20
32.3237
 11
-58.8977
 21
36.0075
  0
LINE
  8
0
 10
-58.8977
 20
36.0075
 11
-56.2362
 21
46.9154
  0
LINE
  8
0
 10
-56.2362
 20
46.9154
 11
-55.2209
 21
51.0764
  0
LINE
  8
0
 10
-55.2209
 20
51.0764
 11
-50.2209
 21
56.0764
  0
LINE
  8
0
 10
-50.2209
 20
56.0764
 11
-44.7724
 21
59.781
  0
LINE
  8
0
 10
-44.7724
 20
59.781
 11
-43.1709
 21
60.8699
  0
LINE
  8
0
 10
-43.1709
 20
60.8699
 11
-30.5518
 21
60.8699
  0
LINE
  8
0
 10
-30.5518
 20
60.8699
 11
-27.5122
 21
60.8699
  0
LINE
  8
0
 10
-27.5122
 20
60.8699
 11
-25.5136
 21
60.8699
  0
LINE
  8
0
 10
-25.5136
 20
60.8699
 11
-24.9295
 21
60.8699
  0
LINE
  8
0
 10
-24.9295
 20
60.8699
 11
-12.4358
 21
60.8699
  0
LINE
  8
0
 10
-12.4358
 20
60.8699
 11
-12.417
 21
60.8699
  0
LINE
  8
0
 10
-12.417
 20
60.8699
 11
-8.65373
 21
60.8699
  0
LINE
  8
0
 10
-8.65373
 20
60.8699
 11
-7.55574
 21
62.9347
  0
LINE
  8
0
 10
-7.55574
 20
62.9347
 11
-7.15413
 21
63.6899
  0
LINE
  8
0
 10
-7.15413
 20
63.6899
 11
4.34227
 21
63.6899
  0
LINE
  8
0
 10
4.34227
 20
63.6899
 11
4.36811
 21
63.6899
  0
LINE
  8
0
 10
4.36811
 20
63.6899
 11
9.45978
 21
63.6899
  0
LINE
  8
0
 10
9.45978
 20
63.6899
 11
11.9504
 21
61.8843
  0
LINE
  8
0
 10
11.9504
 20
61.8843
 11
13.3495
 21
60.8699
  0
LINE
  8
0
 10
13.3495
 20
60.8699
 11
17.6851
 21
60.8699
  0
LINE
  8
0
 10
17.6851
 20
60.8699
 11
18.6728
 21
59.6314
  0
LINE
  8
0
 10
18.6728
 20
59.6314
 11
20.3467
 21
58.8253
  0
LINE
  8
0
 10
20.3467
 20
58.8253
 11
20.3781
 21
58.8101
  0
LINE
  8
0
 10
20.3781
 20
58.8101
 11
22.2709
 21
58.8101
  0
LINE
  8
0
 10
22.2709
 20
58.8101
 11
22.3023
 21
58.8253
  0
LINE
  8
0
 10
22.3023
 20
58.8253
 11
23.9762
 21
59.6314
  0
LINE
  8
0
 10
23.9762
 20
59.6314
 11
24.9639
 21
60.8699
  0
LINE
  8
0
 10
24.9639
 20
60.8699
 11
25.0456
 21
60.8699
  0
LINE
  8
0
 10
25.0456
 20
60.8699
 11
30.3867
 21
60.8699
  0
LINE
  8
0
 10
30.3867
 20
60.8699
 11
31.6465
 21
57.2938
  0
LINE
  8
0
 10
31.6465
 20
57.2938
 11
34.6142
 21
48.8699
  0
LINE
  8
0
 10
34.6142
 20
48.8699
 11
46.7824
 21
48.8699
  0
LINE
  8
0
 10
46.7824
 20
48.8699
 11
51.9169
 21
48.8699
  0
LINE
  8
0
 10
51.9169
 20
48.8699
 11
53.8366
 21
48.8699
  0
LINE
  8
0
 10
53.8366
 20
48.8699
 11
54.7377
 21
48.8699
  0
LINE
  8
0
 10
54.7377
 20
48.8699
 11
71.9377
 21
48.8699
  0
LINE
  8
0
 10
71.9377
 20
48.8699
 11
73.6348
 21
47.4002
  0
LINE
  8
0
 10
73.6348
 20
47.4002
 11
76.9377
 21
44.5398
  0
LINE
  8
0
 10
76.9377
 20
44.5398
 11
76.9377
 21
34.6635
  0
LINE
  8
0
 10
76.9377
 20
34.6635
 11
76.9377
 21
29.5989
  0
LINE
  8
0
 10
76.9377
 20
29.5989
 11
76.9377
 21
25.5023
  0
LINE
  8
0
 10
76.9377
 20
25.5023
 11
76.9377
 21
21.7541
  0
LINE
  8
0
 10
76.9377
 20
21.7541
 11
76.9377
 21
18.5935
  0
LINE
  8
0
 10
76.9377
 20
18.5935
 11
76.0913
 21
18.5935
  0
LINE
  8
0
 10
76.0913
 20
18.5935
 11
76.0599
 21
18.5784
  0
LINE
  8
0
 10
76.0599
 20
18.5784
 11
74.386
 21
17.7723
  0
LINE
  8
0
 10
74.386
 20
17.7723
 11
73.2276
 21
16.3197
  0
LINE
  8
0
 10
73.2276
 20
16.3197
 11
73.2059
 21
16.2925
  0
LINE
  8
0
 10
73.2059
 20
16.2925
 11
73.1981
 21
16.2585
  0
LINE
  8
0
 10
73.1981
 20
16.2585
 11
72.7847
 21
14.4471
  0
LINE
  8
0
 10
72.7847
 20
14.4471
 11
73.1981
 21
12.6358
  0
LINE
  8
0
 10
73.1981
 20
12.6358
 11
73.2059
 21
12.6018
  0
LINE
  8
0
 10
73.2059
 20
12.6018
 11
73.2276
 21
12.5746
  0
LINE
  8
0
 10
73.2276
 20
12.5746
 11
74.386
 21
11.122
  0
LINE
  8
0
 10
74.386
 20
11.122
 11
76.0599
 21
10.3159
  0
LINE
  8
0
 10
76.0599
 20
10.3159
 11
76.0913
 21
10.3008
  0
LINE
  8
0
 10
76.0913
 20
10.3008
 11
76.9377
 21
10.3008
  0
LINE
  8
0
 10
76.9377
 20
10.3008
 11
76.9377
 21
6.23324
  0
LINE
  8
0
 10
76.9377
 20
6.23324
 11
76.9172
 21
5.9948
  0
LINE
  8
0
 10
76.9172
 20
5.9948
 11
76.9172
 21
5.9948
  0
LINE
  8
0
 10
76.9172
 20
5.9948
 11
76.9082
 21
5.89128
  0
LINE
  8
0
 10
76.9082
 20
5.89128
 11
76.9067
 21
5.85704
  0
LINE
  8
0
 10
76.9067
 20
5.85704
 11
76.5049
 21
-3.3
  0
LINE
  8
0
 10
76.5049
 20
-3.3
 11
76.5049
 21
-20.7
  0
LINE
  8
0
 10
76.5049
 20
-20.7
 11
76.9067
 21
-29.857
  0
LINE
  8
0
 10
76.9067
 20
-29.857
 11
76.9082
 21
-29.8913
  0
LINE
  8
0
 10
76.9082
 20
-29.8913
 11
76.9172
 21
-29.9948
  0
LINE
  8
0
 10
76.9172
 20
-29.9948
 11
76.9172
 21
-29.9948
  0
LINE
  8
0
 10
76.9172
 20
-29.9948
 11
76.9377
 21
-30.2332
  0
LINE
  8
0
 10
76.9377
 20
-30.2332
 11
76.9377
 21
-38.4919
  0
LINE
  8
0
 10
76.9377
 20
-38.4919
 11
76.9377
 21
-45.7188
  0
LINE
  8
0
 10
76.9377
 20
-45.7188
 11
74.3031
 21
-48.2637
  0
LINE
  8
0
 10
74.3031
 20
-48.2637
 11
71.9377
 21
-50.5485
  0
LINE
  8
0
 10
71.9377
 20
-50.5485
 11
54.7377
 21
-50.5485
  0
LINE
  8
0
 10
54.7377
 20
-50.5485
 11
52.6335
 21
-50.5485
  0
LINE
  8
0
 10
52.6335
 20
-50.5485
 11
50.7552
 21
-50.5485
  0
LINE
  8
0
 10
50.7552
 20
-50.5485
 11
42.4112
 21
-50.5485
  0
LINE
  8
0
 10
42.4112
 20
-50.5485
 11
33.4734
 21
-50.5485
  0
LINE
  8
0
 10
33.4734
 20
-50.5485
 11
33.3032
 21
-51.0718
  0
LINE
  8
0
 10
33.3032
 20
-51.0718
 11
33.1788
 21
-51.4543
  0
LINE
  8
0
 10
33.1788
 20
-51.4543
 11
33.2395
 21
-54.0527
  0
LINE
  8
0
 10
33.2395
 20
-54.0527
 11
33.2916
 21
-56.284
  0
LINE
  8
0
 10
33.2916
 20
-56.284
 11
33.2928
 21
-56.3359
  0
LINE
  8
0
 10
33.2928
 20
-56.3359
 11
33.2938
 21
-56.3805
  0
LINE
  8
0
 10
33.2938
 20
-56.3805
 11
33.2938
 21
-56.3805
  0
LINE
  8
0
 10
33.2938
 20
-56.3805
 11
33.3474
 21
-56.3805
  0
LINE
  8
0
 10
33.3474
 20
-56.3805
 11
35.2869
 21
-56.3805
  0
LINE
  8
0
 10
35.2869
 20
-56.3805
 11
32.8487
 21
-60.8699
  0
LINE
  8
0
 10
32.8487
 20
-60.8699
 11
26.7261
 21
-60.8699
  0
LINE
  8
0
 10
26.7261
 20
-60.8699
 11
13.3495
 21
-60.8699
  0
LINE
  8
0
 10
13.3495
 20
-60.8699
 11
9.57667
 21
-61.9911
  0
LINE
  8
0
 10
9.57667
 20
-61.9911
 11
4.617
 21
-63.465
  0
LINE
  8
0
 10
4.617
 20
-63.465
 11
4.26448
 21
-63.023
  0
LINE
  8
0
 10
4.26448
 20
-63.023
 11
2.59055
 21
-62.2169
  0
LINE
  8
0
 10
2.59055
 20
-62.2169
 11
2.55915
 21
-62.2018
  0
LINE
  8
0
 10
2.55915
 20
-62.2018
 11
0.666379
 21
-62.2018
  0
LINE
  8
0
 10
0.666379
 20
-62.2018
 11
0.634983
 21
-62.2169
  0
LINE
  8
0
 10
0.634983
 20
-62.2169
 11
-1.03895
 21
-63.023
  0
LINE
  8
0
 10
-1.03895
 20
-63.023
 11
-2.19735
 21
-64.4756
  0
LINE
  8
0
 10
-2.19735
 20
-64.4756
 11
-2.21907
 21
-64.5028
  0
LINE
  8
0
 10
-2.21907
 20
-64.5028
 11
-2.22683
 21
-64.5368
  0
LINE
  8
0
 10
-2.22683
 20
-64.5368
 11
-2.64025
 21
-66.3481
  0
LINE
  8
0
 10
-2.64025
 20
-66.3481
 11
-2.48127
 21
-67.0447
  0
LINE
  8
0
 10
-2.48127
 20
-67.0447
 11
-7.61407
 21
-70.3803
  0
LINE
  8
0
 10
-7.61407
 20
-70.3803
 11
-12.0622
 21
-73.271
  0
LINE
  8
0
 10
-12.0622
 20
-73.271
 11
-12.9233
 21
-73.9283
  0
LINE
  8
0
 10
-12.9233
 20
-73.9283
 11
-13.6366
 21
-74.4727
  0
LINE
  8
0
 10
-13.6366
 20
-74.4727
 11
-13.6589
 21
-74.4975
  0
LINE
  8
0
 10
-13.6589
 20
-74.4975
 11
-19.9472
 21
-81.4814
  0
LINE
  8
0
 10
-19.9472
 20
-81.4814
 11
-19.9474
 21
-81.4816
  0
LINE
  8
0
 10
-19.9474
 20
-81.4816
 11
-23.2889
 21
-85.1928
  0
LINE
  8
0
 10
-23.2889
 20
-85.1928
 11
-22.6008
 21
-88.3862
  0
LINE
  8
0
 10
-22.6008
 20
-88.3862
 11
-22.2763
 21
-89.8924
  0
LINE
  8
0
 10
-22.2763
 20
-89.8924
 11
-24.4754
 21
-92.9192
  0
LINE
  8
0
 10
-24.4754
 20
-92.9192
 11
-29.9842
 21
-96.5687
  0
LINE
  8
0
 10
-29.9842
 20
-96.5687
 11
-36.6435
 21
-100.98
  0
LINE
  8
0
 10
-36.6435
 20
-100.98
 11
-39.0033
 21
-101.012
  0
LINE
  8
0
 10
-39.0033
 20
-101.012
 11
-41.4562
 21
-98.8662
  0
LINE
  8
0
 10
-41.4562
 20
-98.8662
 11
-50.7768
 21
-90.7119
  0
LINE
  8
0
 10
-50.7768
 20
-90.7119
 11
-50.7768
 21
-90.7119
  0
LINE
  8
0
 10
-50.7768
 20
-90.7119
 11
-51.5121
 21
-90.1777
  0
LINE
  8
0
 10
-51.5121
 20
-90.1777
 11
-52.5544
 21
-89.4204
  0
LINE
  8
0
 10
-52.5544
 20
-89.4204
 11
-52.9534
 21
-89.1796
  0
LINE
  8
0
 10
-52.9534
 20
-89.1796
 11
-57.3754
 21
-87.894
  0
LINE
  8
0
 10
-57.3754
 20
-87.894
 11
-68.3187
 21
-78.9309
  0
LINE
  8
0
 10
-68.3187
 20
-78.9309
 11
-70.7056
 21
-76.976
  0
LINE
  8
0
 10
-70.7056
 20
-76.976
 11
-70.8445
 21
-75.542
  0
LINE
  8
0
 10
-63.8093
 20
-43.592
 11
-62.9593
 21
-42.1197
  0
LINE
  8
0
 10
-62.9593
 20
-42.1197
 11
-61.2593
 21
-42.1197
  0
LINE
  8
0
 10
-61.2593
 20
-42.1197
 11
-60.4093
 21
-43.592
  0
LINE
  8
0
 10
-60.4093
 20
-43.592
 11
-61.2593
 21
-45.0642
  0
LINE
  8
0
 10
-61.2593
 20
-45.0642
 11
-62.9593
 21
-45.0642
  0
LINE
  8
0
 10
-62.9593
 20
-45.0642
 11
-63.8093
 21
-43.592
  0
LINE
  8
0
 10
-63.8093
 20
43.592
 11
-62.9593
 21
45.0642
  0
LINE
  8
0
 10
-62.9593
 20
45.0642
 11
-61.2593
 21
45.0642
  0
LINE
  8
0
 10
-61.2593
 20
45.0642
 11
-60.4093
 21
43.592
  0
LINE
  8
0
 10
-60.4093
 20
43.592
 11
-61.2593
 21
42.1197
  0
LINE
  8
0
 10
-61.2593
 20
42.1197
 11
-62.9593
 21
42.1197
  0
LINE
  8
0
 10
-62.9593
 20
42.1197
 11
-63.8093
 21
43.592
  0
LINE
  8
0
 10
-0.0872352
 20
-66.3481
 11
0.762765
 21
-64.8759
  0
LINE
  8
0
 10
0.762765
 20
-64.8759
 11
2.46276
 21
-64.8759
  0
LINE
  8
0
 10
2.46276
 20
-64.8759
 11
3.31276
 21
-66.3481
  0
LINE
  8
0
 10
3.31276
 20
-66.3481
 11
2.46276
 21
-67.8204
  0
LINE
  8
0
 10
2.46276
 20
-67.8204
 11
0.762765
 21
-67.8204
  0
LINE
  8
0
 10
0.762765
 20
-67.8204
 11
-0.0872352
 21
-66.3481
  0
LINE
  8
0
 10
19.6245
 20
62.9565
 11
20.4745
 21
64.4288
  0
LINE
  8
0
 10
20.4745
 20
64.4288
 11
22.1745
 21
64.4288
  0
LINE
  8
0
 10
22.1745
 20
64.4288
 11
23.0245
 21
62.9565
  0
LINE
  8
0
 10
23.0245
 20
62.9565
 11
22.1745
 21
61.4843
  0
LINE
  8
0
 10
22.1745
 20
61.4843
 11
20.4745
 21
61.4843
  0
LINE
  8
0
 10
20.4745
 20
61.4843
 11
19.6245
 21
62.9565
  0
LINE
  8
0
 10
75.3377
 20
14.4471
 11
76.1877
 21
15.9194
  0
LINE
  8
0
 10
76.1877
 20
15.9194
 11
77.8877
 21
15.9194
  0
LINE
  8
0
 10
77.8877
 20
15.9194
 11
78.7377
 21
14.4471
  0
LINE
  8
0
 10
78.7377
 20
14.4471
 11
77.8877
 21
12.9749
  0
LINE
  8
0
 10
77.8877
 20
12.9749
 11
76.1877
 21
12.9749
  0
LINE
  8
0
 10
76.1877
 20
12.9749
 11
75.3377
 21
14.4471
  0
ENDSEC
  0
SECTION
  2
OBJECTS
  0
DICTIONARY
  0
ENDSEC
  0
EOF
