  0
SECTION
  2
BLOCKS
  0
ENDSEC
  0
SECTION
  2
ENTITIES
  0
LINE
  8
0
 10
-112.354
 20
-47.4205
 11
-111.098
 21
-45.889
  0
LINE
  8
0
 10
-111.098
 20
-45.889
 11
-101.381
 21
-37.7357
  0
LINE
  8
0
 10
-101.381
 20
-37.7357
 11
-87.47
 21
-30.9217
  0
LINE
  8
0
 10
-87.47
 20
-30.9217
 11
-88.6288
 21
-14.2113
  0
LINE
  8
0
 10
-88.6288
 20
-14.2113
 11
-88.8149
 21
-8.75
  0
LINE
  8
0
 10
-88.8149
 20
-8.75
 11
-88.8149
 21
8.75
  0
LINE
  8
0
 10
-88.8149
 20
8.75
 11
-88.6288
 21
14.2113
  0
LINE
  8
0
 10
-88.6288
 20
14.2113
 11
-87.4633
 21
31.0184
  0
LINE
  8
0
 10
-87.4633
 20
31.0184
 11
-86.9177
 21
36.1075
  0
LINE
  8
0
 10
-86.9177
 20
36.1075
 11
-84.6659
 21
51.1764
  0
LINE
  8
0
 10
-84.6659
 20
51.1764
 11
-77.6659
 21
58.1764
  0
LINE
  8
0
 10
-77.6659
 20
58.1764
 11
-69.9602
 21
64.4386
  0
LINE
  8
0
 10
-69.9602
 20
64.4386
 11
-69.7493
 21
64.4386
  0
LINE
  8
0
 10
-69.7493
 20
64.4386
 11
-69.7493
 21
68.8705
  0
LINE
  8
0
 10
-69.7493
 20
68.8705
 11
-84.6659
 21
51.1764
  0
LINE
  8
0
 10
-84.6659
 20
51.1764
 11
-112.354
 21
-47.4205
  0
LINE
  8
0
 10
-12.0619
 20
67.2586
 11
-36.6617
 21
68.6361
  0
LINE
  8
0
 10
-36.6617
 20
68.6361
 11
-54.8215
 21
68.8705
  0
LINE
  8
0
 10
-54.8215
 20
68.8705
 11
-54.8215
 21
64.4386
  0
LINE
  8
0
 10
-54.8215
 20
64.4386
 11
-47.2667
 21
64.4386
  0
LINE
  8
0
 10
-47.2667
 20
64.4386
 11
-47.2667
 21
68.6361
  0
LINE
  8
0
 10
-47.2667
 20
68.6361
 11
-36.6617
 21
68.6361
  0
LINE
  8
0
 10
-36.6617
 20
68.6361
 11
-36.6617
 21
64.4386
  0
LINE
  8
0
 10
-36.6617
 20
64.4386
 11
-32.8305
 21
64.4386
  0
LINE
  8
0
 10
-32.8305
 20
64.4386
 11
-29.3957
 21
67.2586
  0
LINE
  8
0
 10
-29.3957
 20
67.2586
 11
-12.0619
 21
67.2586
  0
LINE
  8
0
 10
-12.0619
 20
67.2586
 11
-8.59999
 21
64.4386
  0
LINE
  8
0
 10
-8.59999
 20
64.4386
 11
8.7
 21
64.4386
  0
LINE
  8
0
 10
8.7
 20
64.4386
 11
12.1615
 21
52.4386
  0
LINE
  8
0
 10
12.1615
 20
52.4386
 11
49.8677
 21
52.4386
  0
LINE
  8
0
 10
49.8677
 20
52.4386
 11
8.7
 21
64.4386
  0
LINE
  8
0
 10
8.7
 20
64.4386
 11
-12.0619
 21
67.2586
  0
LINE
  8
0
 10
-67.2267
 20
-83.8953
 11
-58.798
 21
-74.5343
  0
LINE
  8
0
 10
-58.798
 20
-74.5343
 11
-50.5864
 21
-64.4386
  0
LINE
  8
0
 10
-50.5864
 20
-64.4386
 11
-53.2496
 21
-64.4386
  0
LINE
  8
0
 10
-53.2496
 20
-64.4386
 11
-53.5214
 21
-62.6199
  0
LINE
  8
0
 10
-53.5214
 20
-62.6199
 11
-52.7369
 21
-60.8699
  0
LINE
  8
0
 10
-52.7369
 20
-60.8699
 11
-47.6837
 21
-60.8699
  0
LINE
  8
0
 10
-47.6837
 20
-60.8699
 11
-46.1687
 21
-59.0073
  0
LINE
  8
0
 10
-46.1687
 20
-59.0073
 11
-44.948
 21
-58.1749
  0
LINE
  8
0
 10
-44.948
 20
-58.1749
 11
-44.8573
 21
-58.1589
  0
LINE
  8
0
 10
-44.8573
 20
-58.1589
 11
-44.3579
 21
-60.1709
  0
LINE
  8
0
 10
-44.3579
 20
-60.1709
 11
-44.9012
 21
-60.8699
  0
LINE
  8
0
 10
-44.9012
 20
-60.8699
 11
-32.4865
 21
-60.8699
  0
LINE
  8
0
 10
-32.4865
 20
-60.8699
 11
-29.223
 21
-58.0499
  0
LINE
  8
0
 10
-29.223
 20
-58.0499
 11
-11.8893
 21
-58.0499
  0
LINE
  8
0
 10
-11.8893
 20
-58.0499
 11
-8.59999
 21
-60.8699
  0
LINE
  8
0
 10
-8.59999
 20
-60.8699
 11
11.2
 21
-60.8699
  0
LINE
  8
0
 10
11.2
 20
-60.8699
 11
12.2
 21
-62.602
  0
LINE
  8
0
 10
12.2
 20
-62.602
 11
12.2
 21
-64.4386
  0
LINE
  8
0
 10
12.2
 20
-64.4386
 11
9.67805
 21
-64.4386
  0
LINE
  8
0
 10
9.67805
 20
-64.4386
 11
11.9889
 21
-72.8699
  0
LINE
  8
0
 10
11.9889
 20
-72.8699
 11
49.4252
 21
-72.8699
  0
LINE
  8
0
 10
49.4252
 20
-72.8699
 11
54.7834
 21
-68.5398
  0
LINE
  8
0
 10
54.7834
 20
-68.5398
 11
56.2767
 21
-53.6441
  0
LINE
  8
0
 10
56.2767
 20
-53.6441
 11
56.8468
 21
-45.719
  0
LINE
  8
0
 10
56.8468
 20
-45.719
 11
57.6198
 21
-29.1049
  0
LINE
  8
0
 10
57.6198
 20
-29.1049
 11
57.8142
 21
-20.6
  0
LINE
  8
0
 10
57.8142
 20
-20.6
 11
57.8142
 21
-3.39999
  0
LINE
  8
0
 10
57.8142
 20
-3.39999
 11
57.6198
 21
5.10489
  0
LINE
  8
0
 10
57.6198
 20
5.10489
 11
56.8468
 21
21.719
  0
LINE
  8
0
 10
56.8468
 20
21.719
 11
56.2767
 21
29.6441
  0
LINE
  8
0
 10
56.2767
 20
29.6441
 11
54.7834
 21
44.5398
  0
LINE
  8
0
 10
54.7834
 20
44.5398
 11
49.4252
 21
48.8699
  0
LINE
  8
0
 10
49.4252
 20
48.8699
 11
11.8893
 21
48.8699
  0
LINE
  8
0
 10
11.8893
 20
48.8699
 11
8.59999
 21
60.8699
  0
LINE
  8
0
 10
8.59999
 20
60.8699
 11
-8.7
 21
60.8699
  0
LINE
  8
0
 10
-8.7
 20
60.8699
 11
-11.9889
 21
63.6899
  0
LINE
  8
0
 10
-11.9889
 20
63.6899
 11
-29.1234
 21
63.6899
  0
LINE
  8
0
 10
-29.1234
 20
63.6899
 11
-32.388
 21
60.8699
  0
LINE
  8
0
 10
-32.388
 20
60.8699
 11
-36.6617
 21
60.8699
  0
LINE
  8
0
 10
-36.6617
 20
60.8699
 11
-36.6617
 21
58.5361
  0
LINE
  8
0
 10
-36.6617
 20
58.5361
 11
-47.2667
 21
58.5361
  0
LINE
  8
0
 10
-47.2667
 20
58.5361
 11
-47.2667
 21
60.8699
  0
LINE
  8
0
 10
-47.2667
 20
60.8699
 11
-54.8215
 21
60.8699
  0
LINE
  8
0
 10
-54.8215
 20
60.8699
 11
-54.8215
 21
55.7404
  0
LINE
  8
0
 10
-54.8215
 20
55.7404
 11
-69.7493
 21
55.7404
  0
LINE
  8
0
 10
-69.7493
 20
55.7404
 11
-69.7493
 21
60.6374
  0
LINE
  8
0
 10
-69.7493
 20
60.6374
 11
-77.5659
 21
56.0764
  0
LINE
  8
0
 10
-77.5659
 20
56.0764
 11
-82.5659
 21
51.0764
  0
LINE
  8
0
 10
-82.5659
 20
51.0764
 11
-84.8177
 21
36.0075
  0
LINE
  8
0
 10
-84.8177
 20
36.0075
 11
-85.3633
 21
30.9184
  0
LINE
  8
0
 10
-85.3633
 20
30.9184
 11
-86.5288
 21
14.1113
  0
LINE
  8
0
 10
-86.5288
 20
14.1113
 11
-86.7149
 21
8.64999
  0
LINE
  8
0
 10
-86.7149
 20
8.64999
 11
-86.7149
 21
-8.64999
  0
LINE
  8
0
 10
-86.7149
 20
-8.64999
 11
-86.5288
 21
-14.1113
  0
LINE
  8
0
 10
-86.5288
 20
-14.1113
 11
-85.3633
 21
-30.9184
  0
LINE
  8
0
 10
-85.3633
 20
-30.9184
 11
-85.3633
 21
-31.0184
  0
LINE
  8
0
 10
-85.3633
 20
-31.0184
 11
-100.883
 21
-40.5217
  0
LINE
  8
0
 10
-100.883
 20
-40.5217
 11
-109.58
 21
-47.8192
  0
LINE
  8
0
 10
-109.58
 20
-47.8192
 11
-109.471
 21
-50.5994
  0
LINE
  8
0
 10
-109.471
 20
-50.5994
 11
-109.58
 21
-54.0446
  0
LINE
  8
0
 10
-109.58
 20
-54.0446
 11
-98.0318
 21
-66.8853
  0
LINE
  8
0
 10
-98.0318
 20
-66.8853
 11
-95.7608
 21
-67.6473
  0
LINE
  8
0
 10
-95.7608
 20
-67.6473
 11
-86.2125
 21
-71.7559
  0
LINE
  8
0
 10
-86.2125
 20
-71.7559
 11
-73.7103
 21
-83.8153
  0
LINE
  8
0
 10
-73.7103
 20
-83.8153
 11
-68.0587
 21
-83.8338
  0
LINE
  8
0
 10
-68.0587
 20
-83.8338
 11
-67.2267
 21
-83.8953
  0
LINE
  8
0
 10
-15
 20
-15
 11
-15
 21
15
  0
LINE
  8
0
 10
-15
 20
15
 11
15
 21
15
  0
LINE
  8
0
 10
15
 20
15
 11
15
 21
-15
  0
LINE
  8
0
 10
15
 20
-15
 11
-15
 21
-15
  0
LINE
  8
0
 10
49.8677
 20
-76.4386
 11
12.0619
 21
-76.4386
  0
LINE
  8
0
 10
12.0619
 20
-76.4386
 11
8.59999
 21
-64.4386
  0
LINE
  8
0
 10
8.59999
 20
-64.4386
 11
-8.7
 21
-64.4386
  0
LINE
  8
0
 10
-8.7
 20
-64.4386
 11
-12.1615
 21
-61.6186
  0
LINE
  8
0
 10
-12.1615
 20
-61.6186
 11
-29.2961
 21
-61.6186
  0
LINE
  8
0
 10
-29.2961
 20
-61.6186
 11
-32.732
 21
-64.4386
  0
LINE
  8
0
 10
-32.732
 20
-64.4386
 11
-47.6753
 21
-64.4386
  0
LINE
  8
0
 10
-47.6753
 20
-64.4386
 11
-55.6983
 21
-74.7597
  0
LINE
  8
0
 10
-55.6983
 20
-74.7597
 11
-65.3507
 21
-85.4798
  0
LINE
  8
0
 10
-65.3507
 20
-85.4798
 11
-66.925
 21
-86.6815
  0
LINE
  8
0
 10
-66.925
 20
-86.6815
 11
49.8677
 21
-76.4386
  0
LINE
  8
0
 10
-75.9151
 20
-86.1333
 11
-66.925
 21
-86.6815
  0
LINE
  8
0
 10
-66.925
 20
-86.6815
 11
-74.0696
 21
-86.153
  0
LINE
  8
0
 10
-74.0696
 20
-86.153
 11
-75.9151
 21
-86.1333
  0
LINE
  8
0
 10
-75.9151
 20
-86.1333
 11
-88.3928
 21
-74.0498
  0
LINE
  8
0
 10
-88.3928
 20
-74.0498
 11
-89.9777
 21
-73.5411
  0
LINE
  8
0
 10
-89.9777
 20
-73.5411
 11
-100.283
 21
-69.1492
  0
LINE
  8
0
 10
-100.283
 20
-69.1492
 11
-110.774
 21
-57.5304
  0
LINE
  8
0
 10
-110.774
 20
-57.5304
 11
-112.011
 21
-56.2206
  0
LINE
  8
0
 10
-112.011
 20
-56.2206
 11
-100.283
 21
-69.1492
  0
LINE
  8
0
 10
-100.283
 20
-69.1492
 11
-75.9151
 21
-86.1333
  0
ENDSEC
  0
SECTION
  2
OBJECTS
  0
DICTIONARY
  0
ENDSEC
  0
EOF
