  0
SECTION
  2
BLOCKS
  0
ENDSEC
  0
SECTION
  2
ENTITIES
  0
LINE
  8
0
 10
-88.1297
 20
-72.5465
 11
-87.7163
 21
-74.3578
  0
LINE
  8
0
 10
-87.7163
 20
-74.3578
 11
-87.7085
 21
-74.3918
  0
LINE
  8
0
 10
-87.7085
 20
-74.3918
 11
-87.6868
 21
-74.419
  0
LINE
  8
0
 10
-87.6868
 20
-74.419
 11
-86.5284
 21
-75.8716
  0
LINE
  8
0
 10
-86.5284
 20
-75.8716
 11
-84.8545
 21
-76.6777
  0
LINE
  8
0
 10
-84.8545
 20
-76.6777
 11
-84.8231
 21
-76.6928
  0
LINE
  8
0
 10
-84.8231
 20
-76.6928
 11
-84.6451
 21
-76.6928
  0
LINE
  8
0
 10
-84.6451
 20
-76.6928
 11
-84.5246
 21
-77.298
  0
LINE
  8
0
 10
-84.5246
 20
-77.298
 11
-75.0921
 21
-85.2963
  0
LINE
  8
0
 10
-75.0921
 20
-85.2963
 11
-71.3513
 21
-88.4684
  0
LINE
  8
0
 10
-71.3513
 20
-88.4684
 11
-71.3303
 21
-88.4862
  0
LINE
  8
0
 10
-71.3303
 20
-88.4862
 11
-71.2752
 21
-88.533
  0
LINE
  8
0
 10
-71.2752
 20
-88.533
 11
-68.9746
 21
-89.3346
  0
LINE
  8
0
 10
-68.9746
 20
-89.3346
 11
-63.7923
 21
-91.1403
  0
LINE
  8
0
 10
-63.7923
 20
-91.1403
 11
-55.5558
 21
-99.3413
  0
LINE
  8
0
 10
-55.5558
 20
-99.3413
 11
-51.8839
 21
-102.997
  0
LINE
  8
0
 10
-51.8839
 20
-102.997
 11
-51.865
 21
-103.016
  0
LINE
  8
0
 10
-51.865
 20
-103.016
 11
-50.6889
 21
-103.024
  0
LINE
  8
0
 10
-50.6889
 20
-103.024
 11
-50.6641
 21
-103.133
  0
LINE
  8
0
 10
-50.6641
 20
-103.133
 11
-50.6563
 21
-103.167
  0
LINE
  8
0
 10
-50.6563
 20
-103.167
 11
-50.6346
 21
-103.194
  0
LINE
  8
0
 10
-50.6346
 20
-103.194
 11
-49.4762
 21
-104.647
  0
LINE
  8
0
 10
-49.4762
 20
-104.647
 11
-47.8023
 21
-105.453
  0
LINE
  8
0
 10
-47.8023
 20
-105.453
 11
-47.7709
 21
-105.468
  0
LINE
  8
0
 10
-47.7709
 20
-105.468
 11
-45.8781
 21
-105.468
  0
LINE
  8
0
 10
-45.8781
 20
-105.468
 11
-45.8467
 21
-105.453
  0
LINE
  8
0
 10
-45.8467
 20
-105.453
 11
-44.1728
 21
-104.647
  0
LINE
  8
0
 10
-44.1728
 20
-104.647
 11
-43.0144
 21
-103.194
  0
LINE
  8
0
 10
-43.0144
 20
-103.194
 11
-42.9927
 21
-103.167
  0
LINE
  8
0
 10
-42.9927
 20
-103.167
 11
-42.9849
 21
-103.133
  0
LINE
  8
0
 10
-42.9849
 20
-103.133
 11
-42.8928
 21
-102.729
  0
LINE
  8
0
 10
-42.8928
 20
-102.729
 11
-41.7307
 21
-102.157
  0
LINE
  8
0
 10
-41.7307
 20
-102.157
 11
-41.7307
 21
-102.157
  0
LINE
  8
0
 10
-41.7307
 20
-102.157
 11
-41.7181
 21
-102.139
  0
LINE
  8
0
 10
-41.7181
 20
-102.139
 11
-41.7166
 21
-102.137
  0
LINE
  8
0
 10
-41.7166
 20
-102.137
 11
-39.9605
 21
-99.7202
  0
LINE
  8
0
 10
-39.9605
 20
-99.7202
 11
-33.1532
 21
-90.3507
  0
LINE
  8
0
 10
-33.1532
 20
-90.3507
 11
-33.4137
 21
-89.3373
  0
LINE
  8
0
 10
-33.4137
 20
-89.3373
 11
-34.4208
 21
-85.4182
  0
LINE
  8
0
 10
-34.4208
 20
-85.4182
 11
-32.8193
 21
-83.6394
  0
LINE
  8
0
 10
-32.8193
 20
-83.6394
 11
-32.8191
 21
-83.6393
  0
LINE
  8
0
 10
-32.8191
 20
-83.6393
 11
-25.2208
 21
-75.2005
  0
LINE
  8
0
 10
-25.2208
 20
-75.2005
 11
-19.1707
 21
-71.1641
  0
LINE
  8
0
 10
-19.1707
 20
-71.1641
 11
-18.8515
 21
-71.5644
  0
LINE
  8
0
 10
-18.8515
 20
-71.5644
 11
-17.1776
 21
-72.3705
  0
LINE
  8
0
 10
-17.1776
 20
-72.3705
 11
-17.1462
 21
-72.3857
  0
LINE
  8
0
 10
-17.1462
 20
-72.3857
 11
-15.2534
 21
-72.3857
  0
LINE
  8
0
 10
-15.2534
 20
-72.3857
 11
-15.222
 21
-72.3705
  0
LINE
  8
0
 10
-15.222
 20
-72.3705
 11
-13.5481
 21
-71.5644
  0
LINE
  8
0
 10
-13.5481
 20
-71.5644
 11
-12.3897
 21
-70.1118
  0
LINE
  8
0
 10
-12.3897
 20
-70.1118
 11
-12.3679
 21
-70.0846
  0
LINE
  8
0
 10
-12.3679
 20
-70.0846
 11
-12.3602
 21
-70.0506
  0
LINE
  8
0
 10
-12.3602
 20
-70.0506
 11
-11.9468
 21
-68.2393
  0
LINE
  8
0
 10
-11.9468
 20
-68.2393
 11
-12.2405
 21
-66.9522
  0
LINE
  8
0
 10
-12.2405
 20
-66.9522
 11
-10.9673
 21
-66.6636
  0
LINE
  8
0
 10
-10.9673
 20
-66.6636
 11
-1.15041
 21
-64.4386
  0
LINE
  8
0
 10
-1.15041
 20
-64.4386
 11
2.45814
 21
-64.4386
  0
LINE
  8
0
 10
2.45814
 20
-64.4386
 11
2.48231
 21
-64.4386
  0
LINE
  8
0
 10
2.48231
 20
-64.4386
 11
13.5574
 21
-64.4386
  0
LINE
  8
0
 10
13.5574
 20
-64.4386
 11
14.0674
 21
-64.0222
  0
LINE
  8
0
 10
14.0674
 20
-64.0222
 11
15.7007
 21
-62.6886
  0
LINE
  8
0
 10
15.7007
 20
-62.6886
 11
16.0813
 21
-54.9829
  0
LINE
  8
0
 10
16.0813
 20
-54.9829
 11
16.1554
 21
-53.4828
  0
LINE
  8
0
 10
16.1554
 20
-53.4828
 11
17.4624
 21
-53.4828
  0
LINE
  8
0
 10
17.4624
 20
-53.4828
 11
17.5066
 21
-53.4828
  0
LINE
  8
0
 10
17.5066
 20
-53.4828
 11
19.0079
 21
-53.4828
  0
LINE
  8
0
 10
19.0079
 20
-53.4828
 11
19.4519
 21
-54.0396
  0
LINE
  8
0
 10
19.4519
 20
-54.0396
 11
21.1258
 21
-54.8457
  0
LINE
  8
0
 10
21.1258
 20
-54.8457
 11
21.1572
 21
-54.8608
  0
LINE
  8
0
 10
21.1572
 20
-54.8608
 11
23.05
 21
-54.8608
  0
LINE
  8
0
 10
23.05
 20
-54.8608
 11
23.0814
 21
-54.8457
  0
LINE
  8
0
 10
23.0814
 20
-54.8457
 11
24.7553
 21
-54.0396
  0
LINE
  8
0
 10
24.7553
 20
-54.0396
 11
25.9137
 21
-52.587
  0
LINE
  8
0
 10
25.9137
 20
-52.587
 11
25.9354
 21
-52.5597
  0
LINE
  8
0
 10
25.9354
 20
-52.5597
 11
25.9432
 21
-52.5257
  0
LINE
  8
0
 10
25.9432
 20
-52.5257
 11
26.3566
 21
-50.7144
  0
LINE
  8
0
 10
26.3566
 20
-50.7144
 11
26.0582
 21
-49.4072
  0
LINE
  8
0
 10
26.0582
 20
-49.4072
 11
26.2838
 21
-49.0438
  0
LINE
  8
0
 10
26.2838
 20
-49.0438
 11
28.2881
 21
-45.8154
  0
LINE
  8
0
 10
28.2881
 20
-45.8154
 11
28.2802
 21
-45.7693
  0
LINE
  8
0
 10
28.2802
 20
-45.7693
 11
28.2715
 21
-45.7188
  0
LINE
  8
0
 10
28.2715
 20
-45.7188
 11
28.2715
 21
-45.7188
  0
LINE
  8
0
 10
28.2715
 20
-45.7188
 11
28.2715
 21
-45.7188
  0
LINE
  8
0
 10
28.2715
 20
-45.7188
 11
26.9139
 21
-37.8366
  0
LINE
  8
0
 10
26.9139
 20
-37.8366
 11
25.41
 21
-29.1049
  0
LINE
  8
0
 10
25.41
 20
-29.1049
 11
24.9267
 21
-23.394
  0
LINE
  8
0
 10
24.9267
 20
-23.394
 11
24.6903
 21
-20.6
  0
LINE
  8
0
 10
24.6903
 20
-20.6
 11
24.6903
 21
-3.4
  0
LINE
  8
0
 10
24.6903
 20
-3.4
 11
24.9267
 21
-0.605998
  0
LINE
  8
0
 10
24.9267
 20
-0.605998
 11
25.41
 21
5.1049
  0
LINE
  8
0
 10
25.41
 20
5.1049
 11
26.9139
 21
13.8366
  0
LINE
  8
0
 10
26.9139
 20
13.8366
 11
28.2715
 21
21.7188
  0
LINE
  8
0
 10
28.2715
 20
21.7188
 11
28.2715
 21
21.7188
  0
LINE
  8
0
 10
28.2715
 20
21.7188
 11
28.2715
 21
21.7188
  0
LINE
  8
0
 10
28.2715
 20
21.7188
 11
28.2802
 21
21.7693
  0
LINE
  8
0
 10
28.2802
 20
21.7693
 11
28.2881
 21
21.8154
  0
LINE
  8
0
 10
28.2881
 20
21.8154
 11
26.2838
 21
25.0438
  0
LINE
  8
0
 10
26.2838
 20
25.0438
 11
26.0582
 21
25.4072
  0
LINE
  8
0
 10
26.0582
 20
25.4072
 11
26.3566
 21
26.7144
  0
LINE
  8
0
 10
26.3566
 20
26.7144
 11
25.9432
 21
28.5257
  0
LINE
  8
0
 10
25.9432
 20
28.5257
 11
25.9354
 21
28.5597
  0
LINE
  8
0
 10
25.9354
 20
28.5597
 11
25.9137
 21
28.587
  0
LINE
  8
0
 10
25.9137
 20
28.587
 11
24.7553
 21
30.0396
  0
LINE
  8
0
 10
24.7553
 20
30.0396
 11
23.0814
 21
30.8457
  0
LINE
  8
0
 10
23.0814
 20
30.8457
 11
23.05
 21
30.8608
  0
LINE
  8
0
 10
23.05
 20
30.8608
 11
21.1572
 21
30.8608
  0
LINE
  8
0
 10
21.1572
 20
30.8608
 11
21.1258
 21
30.8457
  0
LINE
  8
0
 10
21.1258
 20
30.8457
 11
19.4519
 21
30.0396
  0
LINE
  8
0
 10
19.4519
 20
30.0396
 11
19.0079
 21
29.4828
  0
LINE
  8
0
 10
19.0079
 20
29.4828
 11
14.5379
 21
29.4828
  0
LINE
  8
0
 10
14.5379
 20
29.4828
 11
14.487
 21
29.4828
  0
LINE
  8
0
 10
14.487
 20
29.4828
 11
10.2924
 21
29.4828
  0
LINE
  8
0
 10
10.2924
 20
29.4828
 11
5.62088
 21
37.2414
  0
LINE
  8
0
 10
5.62088
 20
37.2414
 11
3.6126
 21
40.5769
  0
LINE
  8
0
 10
3.6126
 20
40.5769
 11
2.87913
 21
40.8548
  0
LINE
  8
0
 10
2.87913
 20
40.8548
 11
1.22205
 21
41.4828
  0
LINE
  8
0
 10
1.22205
 20
41.4828
 11
-1.75533
 21
41.4828
  0
LINE
  8
0
 10
-1.75533
 20
41.4828
 11
-1.77941
 21
41.5883
  0
LINE
  8
0
 10
-1.77941
 20
41.5883
 11
-1.78716
 21
41.6222
  0
LINE
  8
0
 10
-1.78716
 20
41.6222
 11
-1.80889
 21
41.6495
  0
LINE
  8
0
 10
-1.80889
 20
41.6495
 11
-2.96729
 21
43.1021
  0
LINE
  8
0
 10
-2.96729
 20
43.1021
 11
-4.64122
 21
43.9082
  0
LINE
  8
0
 10
-4.64122
 20
43.9082
 11
-4.67261
 21
43.9233
  0
LINE
  8
0
 10
-4.67261
 20
43.9233
 11
-6.56538
 21
43.9233
  0
LINE
  8
0
 10
-6.56538
 20
43.9233
 11
-6.59678
 21
43.9082
  0
LINE
  8
0
 10
-6.59678
 20
43.9082
 11
-8.27071
 21
43.1021
  0
LINE
  8
0
 10
-8.27071
 20
43.1021
 11
-9.42911
 21
41.6495
  0
LINE
  8
0
 10
-9.42911
 20
41.6495
 11
-9.45084
 21
41.6222
  0
LINE
  8
0
 10
-9.45084
 20
41.6222
 11
-9.45859
 21
41.5883
  0
LINE
  8
0
 10
-9.45859
 20
41.5883
 11
-9.48267
 21
41.4828
  0
LINE
  8
0
 10
-9.48267
 20
41.4828
 11
-10.5955
 21
41.4828
  0
LINE
  8
0
 10
-10.5955
 20
41.4828
 11
-14.7691
 21
43.3969
  0
LINE
  8
0
 10
-14.7691
 20
43.3969
 11
-16.8093
 21
44.1105
  0
LINE
  8
0
 10
-16.8093
 20
44.1105
 11
-17.3589
 21
44.3028
  0
LINE
  8
0
 10
-17.3589
 20
44.3028
 11
-26.0562
 21
44.3028
  0
LINE
  8
0
 10
-26.0562
 20
44.3028
 11
-26.0747
 21
44.3028
  0
LINE
  8
0
 10
-26.0747
 20
44.3028
 11
-28.5323
 21
44.3028
  0
LINE
  8
0
 10
-28.5323
 20
44.3028
 11
-28.5434
 21
44.3028
  0
LINE
  8
0
 10
-28.5434
 20
44.3028
 11
-28.5468
 21
44.2862
  0
LINE
  8
0
 10
-28.5468
 20
44.2862
 11
-28.8916
 21
42.6065
  0
LINE
  8
0
 10
-28.8916
 20
42.6065
 11
-28.9598
 21
42.2743
  0
LINE
  8
0
 10
-28.9598
 20
42.2743
 11
-28.9124
 21
41.8384
  0
LINE
  8
0
 10
-28.9124
 20
41.8384
 11
-28.8737
 21
41.4828
  0
LINE
  8
0
 10
-28.8737
 20
41.4828
 11
-36.5934
 21
41.4828
  0
LINE
  8
0
 10
-36.5934
 20
41.4828
 11
-36.6041
 21
41.4828
  0
LINE
  8
0
 10
-36.6041
 20
41.4828
 11
-38.1235
 21
41.4828
  0
LINE
  8
0
 10
-38.1235
 20
41.4828
 11
-40.3171
 21
41.4828
  0
LINE
  8
0
 10
-40.3171
 20
41.4828
 11
-40.3247
 21
41.4828
  0
LINE
  8
0
 10
-40.3247
 20
41.4828
 11
-40.6365
 21
41.4828
  0
LINE
  8
0
 10
-40.6365
 20
41.4828
 11
-48.2424
 21
41.4828
  0
LINE
  8
0
 10
-48.2424
 20
41.4828
 11
-48.2496
 21
41.4828
  0
LINE
  8
0
 10
-48.2496
 20
41.4828
 11
-49.2874
 21
41.4828
  0
LINE
  8
0
 10
-49.2874
 20
41.4828
 11
-49.2925
 21
41.4828
  0
LINE
  8
0
 10
-49.2925
 20
41.4828
 11
-51.673
 21
37.6442
  0
LINE
  8
0
 10
-51.673
 20
37.6442
 11
-51.8434
 21
37.7263
  0
LINE
  8
0
 10
-51.8434
 20
37.7263
 11
-51.8748
 21
37.7414
  0
LINE
  8
0
 10
-51.8748
 20
37.7414
 11
-53.7675
 21
37.7414
  0
LINE
  8
0
 10
-53.7675
 20
37.7414
 11
-53.7989
 21
37.7263
  0
LINE
  8
0
 10
-53.7989
 20
37.7263
 11
-55.4729
 21
36.9201
  0
LINE
  8
0
 10
-55.4729
 20
36.9201
 11
-56.6313
 21
35.4676
  0
LINE
  8
0
 10
-56.6313
 20
35.4676
 11
-56.653
 21
35.4403
  0
LINE
  8
0
 10
-56.653
 20
35.4403
 11
-56.6608
 21
35.4063
  0
LINE
  8
0
 10
-56.6608
 20
35.4063
 11
-57.0742
 21
33.595
  0
LINE
  8
0
 10
-57.0742
 20
33.595
 11
-56.6608
 21
31.7837
  0
LINE
  8
0
 10
-56.6608
 20
31.7837
 11
-56.653
 21
31.7497
  0
LINE
  8
0
 10
-56.653
 20
31.7497
 11
-56.6313
 21
31.7224
  0
LINE
  8
0
 10
-56.6313
 20
31.7224
 11
-55.8469
 21
30.7389
  0
LINE
  8
0
 10
-55.8469
 20
30.7389
 11
-56.2449
 21
29.0236
  0
LINE
  8
0
 10
-56.2449
 20
29.0236
 11
-59.6821
 21
14.2113
  0
LINE
  8
0
 10
-59.6821
 20
14.2113
 11
-59.7563
 21
13.5604
  0
LINE
  8
0
 10
-59.7563
 20
13.5604
 11
-60.3048
 21
8.75
  0
LINE
  8
0
 10
-60.3048
 20
8.75
 11
-60.3048
 21
-8.75
  0
LINE
  8
0
 10
-60.3048
 20
-8.75
 11
-59.7563
 21
-13.5604
  0
LINE
  8
0
 10
-59.7563
 20
-13.5604
 11
-59.6821
 21
-14.2113
  0
LINE
  8
0
 10
-59.6821
 20
-14.2113
 11
-56.9028
 21
-26.1886
  0
LINE
  8
0
 10
-56.9028
 20
-26.1886
 11
-58.3574
 21
-26.8891
  0
LINE
  8
0
 10
-58.3574
 20
-26.8891
 11
-59.5158
 21
-28.3417
  0
LINE
  8
0
 10
-59.5158
 20
-28.3417
 11
-59.5375
 21
-28.3689
  0
LINE
  8
0
 10
-59.5375
 20
-28.3689
 11
-59.5453
 21
-28.4029
  0
LINE
  8
0
 10
-59.5453
 20
-28.4029
 11
-59.9587
 21
-30.2143
  0
LINE
  8
0
 10
-59.9587
 20
-30.2143
 11
-59.5453
 21
-32.0256
  0
LINE
  8
0
 10
-59.5453
 20
-32.0256
 11
-59.5375
 21
-32.0596
  0
LINE
  8
0
 10
-59.5375
 20
-32.0596
 11
-59.5158
 21
-32.0868
  0
LINE
  8
0
 10
-59.5158
 20
-32.0868
 11
-59.1894
 21
-32.496
  0
LINE
  8
0
 10
-59.1894
 20
-32.496
 11
-70.5066
 21
-37.7357
  0
LINE
  8
0
 10
-70.5066
 20
-37.7357
 11
-70.5591
 21
-37.7799
  0
LINE
  8
0
 10
-70.5591
 20
-37.7799
 11
-70.5591
 21
-37.7799
  0
LINE
  8
0
 10
-70.5591
 20
-37.7799
 11
-70.5701
 21
-37.789
  0
LINE
  8
0
 10
-70.5701
 20
-37.789
 11
-78.5596
 21
-44.493
  0
LINE
  8
0
 10
-78.5596
 20
-44.493
 11
-80.2233
 21
-45.889
  0
LINE
  8
0
 10
-80.2233
 20
-45.889
 11
-80.4627
 21
-46.1809
  0
LINE
  8
0
 10
-80.4627
 20
-46.1809
 11
-80.4627
 21
-46.181
  0
LINE
  8
0
 10
-80.4627
 20
-46.181
 11
-81.4792
 21
-47.4205
  0
LINE
  8
0
 10
-81.4792
 20
-47.4205
 11
-80.6813
 21
-49.4098
  0
LINE
  8
0
 10
-80.6813
 20
-49.4098
 11
-77.5998
 21
-57.0925
  0
LINE
  8
0
 10
-77.5998
 20
-57.0925
 11
-77.5998
 21
-57.0925
  0
LINE
  8
0
 10
-77.5998
 20
-57.0925
 11
-84.5217
 21
-65.9522
  0
LINE
  8
0
 10
-84.5217
 20
-65.9522
 11
-84.5219
 21
-65.9523
  0
LINE
  8
0
 10
-84.5219
 20
-65.9523
 11
-86.3115
 21
-68.243
  0
LINE
  8
0
 10
-86.3115
 20
-68.243
 11
-86.3245
 21
-68.2596
  0
LINE
  8
0
 10
-86.3245
 20
-68.2596
 11
-86.3245
 21
-68.2596
  0
LINE
  8
0
 10
-86.3245
 20
-68.2596
 11
-86.1676
 21
-69.0476
  0
LINE
  8
0
 10
-86.1676
 20
-69.0476
 11
-86.5284
 21
-69.2213
  0
LINE
  8
0
 10
-86.5284
 20
-69.2213
 11
-87.6868
 21
-70.6739
  0
LINE
  8
0
 10
-87.6868
 20
-70.6739
 11
-87.7085
 21
-70.7011
  0
LINE
  8
0
 10
-87.7085
 20
-70.7011
 11
-87.7163
 21
-70.7351
  0
LINE
  8
0
 10
-87.7163
 20
-70.7351
 11
-88.1297
 21
-72.5465
  0
LINE
  8
0
 10
-85.5767
 20
-72.5465
 11
-84.7267
 21
-71.0742
  0
LINE
  8
0
 10
-84.7267
 20
-71.0742
 11
-83.0267
 21
-71.0742
  0
LINE
  8
0
 10
-83.0267
 20
-71.0742
 11
-82.1767
 21
-72.5465
  0
LINE
  8
0
 10
-82.1767
 20
-72.5465
 11
-83.0267
 21
-74.0187
  0
LINE
  8
0
 10
-83.0267
 20
-74.0187
 11
-84.7267
 21
-74.0187
  0
LINE
  8
0
 10
-84.7267
 20
-74.0187
 11
-85.5767
 21
-72.5465
  0
LINE
  8
0
 10
-83.2497
 20
-68.1232
 11
-76.9933
 21
-60.1154
  0
LINE
  8
0
 10
-76.9933
 20
-60.1154
 11
-74.5754
 21
-57.0206
  0
LINE
  8
0
 10
-74.5754
 20
-57.0206
 11
-74.5644
 21
-57.0066
  0
LINE
  8
0
 10
-74.5644
 20
-57.0066
 11
-74.525
 21
-56.9561
  0
LINE
  8
0
 10
-74.525
 20
-56.9561
 11
-75.3734
 21
-55.0161
  0
LINE
  8
0
 10
-75.3734
 20
-55.0161
 11
-78.5705
 21
-47.7061
  0
LINE
  8
0
 10
-78.5705
 20
-47.7061
 11
-78.3897
 21
-47.5544
  0
LINE
  8
0
 10
-78.3897
 20
-47.5544
 11
-78.3896
 21
-47.5543
  0
LINE
  8
0
 10
-78.3896
 20
-47.5543
 11
-70.0084
 21
-40.5217
  0
LINE
  8
0
 10
-70.0084
 20
-40.5217
 11
-58.1689
 21
-33.6302
  0
LINE
  8
0
 10
-58.1689
 20
-33.6302
 11
-56.6834
 21
-34.3455
  0
LINE
  8
0
 10
-56.6834
 20
-34.3455
 11
-56.652
 21
-34.3606
  0
LINE
  8
0
 10
-56.652
 20
-34.3606
 11
-54.7593
 21
-34.3606
  0
LINE
  8
0
 10
-54.7593
 20
-34.3606
 11
-54.7279
 21
-34.3455
  0
LINE
  8
0
 10
-54.7279
 20
-34.3455
 11
-53.054
 21
-33.5394
  0
LINE
  8
0
 10
-53.054
 20
-33.5394
 11
-51.8956
 21
-32.0868
  0
LINE
  8
0
 10
-51.8956
 20
-32.0868
 11
-51.8738
 21
-32.0596
  0
LINE
  8
0
 10
-51.8738
 20
-32.0596
 11
-51.8661
 21
-32.0256
  0
LINE
  8
0
 10
-51.8661
 20
-32.0256
 11
-51.4526
 21
-30.2143
  0
LINE
  8
0
 10
-51.4526
 20
-30.2143
 11
-51.8661
 21
-28.4029
  0
LINE
  8
0
 10
-51.8661
 20
-28.4029
 11
-51.8738
 21
-28.3689
  0
LINE
  8
0
 10
-51.8738
 20
-28.3689
 11
-51.8956
 21
-28.3417
  0
LINE
  8
0
 10
-51.8956
 20
-28.3417
 11
-53.054
 21
-26.8891
  0
LINE
  8
0
 10
-53.054
 20
-26.8891
 11
-54.7279
 21
-26.083
  0
LINE
  8
0
 10
-54.7279
 20
-26.083
 11
-54.7593
 21
-26.0679
  0
LINE
  8
0
 10
-54.7593
 20
-26.0679
 11
-54.8076
 21
-26.0679
  0
LINE
  8
0
 10
-54.8076
 20
-26.0679
 11
-57.1486
 21
-15.9797
  0
LINE
  8
0
 10
-57.1486
 20
-15.9797
 11
-57.5821
 21
-14.1113
  0
LINE
  8
0
 10
-57.5821
 20
-14.1113
 11
-58.1338
 21
-9.27254
  0
LINE
  8
0
 10
-58.1338
 20
-9.27254
 11
-58.2048
 21
-8.64999
  0
LINE
  8
0
 10
-58.2048
 20
-8.64999
 11
-58.2048
 21
8.64999
  0
LINE
  8
0
 10
-58.2048
 20
8.64999
 11
-58.1338
 21
9.27254
  0
LINE
  8
0
 10
-58.1338
 20
9.27254
 11
-57.5821
 21
14.1113
  0
LINE
  8
0
 10
-57.5821
 20
14.1113
 11
-57.1486
 21
15.9797
  0
LINE
  8
0
 10
-57.1486
 20
15.9797
 11
-53.9974
 21
29.5593
  0
LINE
  8
0
 10
-53.9974
 20
29.5593
 11
-53.7989
 21
29.4637
  0
LINE
  8
0
 10
-53.7989
 20
29.4637
 11
-53.7675
 21
29.4486
  0
LINE
  8
0
 10
-53.7675
 20
29.4486
 11
-51.8748
 21
29.4486
  0
LINE
  8
0
 10
-51.8748
 20
29.4486
 11
-51.8434
 21
29.4637
  0
LINE
  8
0
 10
-51.8434
 20
29.4637
 11
-50.1694
 21
30.2699
  0
LINE
  8
0
 10
-50.1694
 20
30.2699
 11
-49.0111
 21
31.7224
  0
LINE
  8
0
 10
-49.0111
 20
31.7224
 11
-48.9893
 21
31.7497
  0
LINE
  8
0
 10
-48.9893
 20
31.7497
 11
-48.9816
 21
31.7837
  0
LINE
  8
0
 10
-48.9816
 20
31.7837
 11
-48.5681
 21
33.595
  0
LINE
  8
0
 10
-48.5681
 20
33.595
 11
-48.9816
 21
35.4063
  0
LINE
  8
0
 10
-48.9816
 20
35.4063
 11
-48.9893
 21
35.4403
  0
LINE
  8
0
 10
-48.9893
 20
35.4403
 11
-49.0111
 21
35.4676
  0
LINE
  8
0
 10
-49.0111
 20
35.4676
 11
-49.2731
 21
35.7962
  0
LINE
  8
0
 10
-49.2731
 20
35.7962
 11
-46.7854
 21
38.5485
  0
LINE
  8
0
 10
-46.7854
 20
38.5485
 11
-39.0125
 21
38.5485
  0
LINE
  8
0
 10
-39.0125
 20
38.5485
 11
-38.1413
 21
38.5485
  0
LINE
  8
0
 10
-38.1413
 20
38.5485
 11
-36.0381
 21
38.5485
  0
LINE
  8
0
 10
-36.0381
 20
38.5485
 11
-35.7558
 21
38.5485
  0
LINE
  8
0
 10
-35.7558
 20
38.5485
 11
-27.064
 21
38.5485
  0
LINE
  8
0
 10
-27.064
 20
38.5485
 11
-25.8264
 21
38.5485
  0
LINE
  8
0
 10
-25.8264
 20
38.5485
 11
-25.4661
 21
40.1899
  0
LINE
  8
0
 10
-25.4661
 20
40.1899
 11
-25.4024
 21
40.4803
  0
LINE
  8
0
 10
-25.4024
 20
40.4803
 11
-25.3992
 21
40.4948
  0
LINE
  8
0
 10
-25.3992
 20
40.4948
 11
-25.3812
 21
40.5769
  0
LINE
  8
0
 10
-25.3812
 20
40.5769
 11
-25.5238
 21
41.3685
  0
LINE
  8
0
 10
-25.5238
 20
41.3685
 11
-17.0503
 21
41.3685
  0
LINE
  8
0
 10
-17.0503
 20
41.3685
 11
-17.0419
 21
41.3685
  0
LINE
  8
0
 10
-17.0419
 20
41.3685
 11
-15.7921
 21
41.3685
  0
LINE
  8
0
 10
-15.7921
 20
41.3685
 11
-11.4659
 21
39.4543
  0
LINE
  8
0
 10
-11.4659
 20
39.4543
 11
-9.64051
 21
38.7626
  0
LINE
  8
0
 10
-9.64051
 20
38.7626
 11
-9.45859
 21
37.9656
  0
LINE
  8
0
 10
-9.45859
 20
37.9656
 11
-9.45084
 21
37.9316
  0
LINE
  8
0
 10
-9.45084
 20
37.9316
 11
-9.42911
 21
37.9044
  0
LINE
  8
0
 10
-9.42911
 20
37.9044
 11
-8.27071
 21
36.4518
  0
LINE
  8
0
 10
-8.27071
 20
36.4518
 11
-6.59678
 21
35.6457
  0
LINE
  8
0
 10
-6.59678
 20
35.6457
 11
-6.56538
 21
35.6305
  0
LINE
  8
0
 10
-6.56538
 20
35.6305
 11
-4.67261
 21
35.6305
  0
LINE
  8
0
 10
-4.67261
 20
35.6305
 11
-4.64122
 21
35.6457
  0
LINE
  8
0
 10
-4.64122
 20
35.6457
 11
-2.96729
 21
36.4518
  0
LINE
  8
0
 10
-2.96729
 20
36.4518
 11
-1.80889
 21
37.9044
  0
LINE
  8
0
 10
-1.80889
 20
37.9044
 11
-1.78716
 21
37.9316
  0
LINE
  8
0
 10
-1.78716
 20
37.9316
 11
-1.77941
 21
37.9656
  0
LINE
  8
0
 10
-1.77941
 20
37.9656
 11
-1.64637
 21
38.5485
  0
LINE
  8
0
 10
-1.64637
 20
38.5485
 11
0.59728
 21
38.5485
  0
LINE
  8
0
 10
0.59728
 20
38.5485
 11
1.33105
 21
38.5485
  0
LINE
  8
0
 10
1.33105
 20
38.5485
 11
3.02662
 21
35.8253
  0
LINE
  8
0
 10
3.02662
 20
35.8253
 11
8.23872
 21
27.4543
  0
LINE
  8
0
 10
8.23872
 20
27.4543
 11
9.75463
 21
26.8224
  0
LINE
  8
0
 10
9.75463
 20
26.8224
 11
10.4118
 21
26.5485
  0
LINE
  8
0
 10
10.4118
 20
26.5485
 11
17.8884
 21
26.5485
  0
LINE
  8
0
 10
17.8884
 20
26.5485
 11
18.264
 21
24.9031
  0
LINE
  8
0
 10
18.264
 20
24.9031
 11
18.2717
 21
24.8691
  0
LINE
  8
0
 10
18.2717
 20
24.8691
 11
18.2935
 21
24.8418
  0
LINE
  8
0
 10
18.2935
 20
24.8418
 11
19.4519
 21
23.3893
  0
LINE
  8
0
 10
19.4519
 20
23.3893
 11
21.1258
 21
22.5831
  0
LINE
  8
0
 10
21.1258
 20
22.5831
 11
21.1572
 21
22.568
  0
LINE
  8
0
 10
21.1572
 20
22.568
 11
23.05
 21
22.568
  0
LINE
  8
0
 10
23.05
 20
22.568
 11
23.0814
 21
22.5831
  0
LINE
  8
0
 10
23.0814
 20
22.5831
 11
24.1854
 21
23.1148
  0
LINE
  8
0
 10
24.1854
 20
23.1148
 11
24.4897
 21
22.6247
  0
LINE
  8
0
 10
24.4897
 20
22.6247
 11
23.2276
 21
15.2969
  0
LINE
  8
0
 10
23.2276
 20
15.2969
 11
21.6167
 21
5.94414
  0
LINE
  8
0
 10
21.6167
 20
5.94414
 11
21.6116
 21
5.91418
  0
LINE
  8
0
 10
21.6116
 20
5.91418
 11
21.3698
 21
3.0569
  0
LINE
  8
0
 10
21.3698
 20
3.0569
 11
20.8318
 21
-3.3
  0
LINE
  8
0
 10
20.8318
 20
-3.3
 11
20.8318
 21
-20.7
  0
LINE
  8
0
 10
20.8318
 20
-20.7
 11
21.3698
 21
-27.0569
  0
LINE
  8
0
 10
21.3698
 20
-27.0569
 11
21.6116
 21
-29.9142
  0
LINE
  8
0
 10
21.6116
 20
-29.9142
 11
21.6167
 21
-29.9441
  0
LINE
  8
0
 10
21.6167
 20
-29.9441
 11
23.2276
 21
-39.2969
  0
LINE
  8
0
 10
23.2276
 20
-39.2969
 11
24.4897
 21
-46.6247
  0
LINE
  8
0
 10
24.4897
 20
-46.6247
 11
24.1854
 21
-47.1148
  0
LINE
  8
0
 10
24.1854
 20
-47.1148
 11
23.0814
 21
-46.5831
  0
LINE
  8
0
 10
23.0814
 20
-46.5831
 11
23.05
 21
-46.568
  0
LINE
  8
0
 10
23.05
 20
-46.568
 11
21.1572
 21
-46.568
  0
LINE
  8
0
 10
21.1572
 20
-46.568
 11
21.1258
 21
-46.5831
  0
LINE
  8
0
 10
21.1258
 20
-46.5831
 11
19.4519
 21
-47.3893
  0
LINE
  8
0
 10
19.4519
 20
-47.3893
 11
18.2935
 21
-48.8418
  0
LINE
  8
0
 10
18.2935
 20
-48.8418
 11
18.2717
 21
-48.8691
  0
LINE
  8
0
 10
18.2717
 20
-48.8691
 11
18.264
 21
-48.9031
  0
LINE
  8
0
 10
18.264
 20
-48.9031
 11
17.8884
 21
-50.5485
  0
LINE
  8
0
 10
17.8884
 20
-50.5485
 11
14.242
 21
-50.5485
  0
LINE
  8
0
 10
14.242
 20
-50.5485
 11
13.5149
 21
-50.8516
  0
LINE
  8
0
 10
13.5149
 20
-50.8516
 11
12.0689
 21
-51.4543
  0
LINE
  8
0
 10
12.0689
 20
-51.4543
 11
12.0478
 21
-58.8836
  0
LINE
  8
0
 10
12.0478
 20
-58.8836
 11
12.0421
 21
-60.8699
  0
LINE
  8
0
 10
12.0421
 20
-60.8699
 11
11.7352
 21
-60.8699
  0
LINE
  8
0
 10
11.7352
 20
-60.8699
 11
0.179705
 21
-60.8699
  0
LINE
  8
0
 10
0.179705
 20
-60.8699
 11
-1.72198
 21
-61.3879
  0
LINE
  8
0
 10
-1.72198
 20
-61.3879
 11
-12.5442
 21
-64.3357
  0
LINE
  8
0
 10
-12.5442
 20
-64.3357
 11
-12.5442
 21
-64.3357
  0
LINE
  8
0
 10
-12.5442
 20
-64.3357
 11
-13.5092
 21
-64.9628
  0
LINE
  8
0
 10
-13.5092
 20
-64.9628
 11
-13.5481
 21
-64.9141
  0
LINE
  8
0
 10
-13.5481
 20
-64.9141
 11
-15.222
 21
-64.108
  0
LINE
  8
0
 10
-15.222
 20
-64.108
 11
-15.2534
 21
-64.0929
  0
LINE
  8
0
 10
-15.2534
 20
-64.0929
 11
-17.1462
 21
-64.0929
  0
LINE
  8
0
 10
-17.1462
 20
-64.0929
 11
-17.1776
 21
-64.108
  0
LINE
  8
0
 10
-17.1776
 20
-64.108
 11
-18.8515
 21
-64.9141
  0
LINE
  8
0
 10
-18.8515
 20
-64.9141
 11
-20.0099
 21
-66.3667
  0
LINE
  8
0
 10
-20.0099
 20
-66.3667
 11
-20.0316
 21
-66.394
  0
LINE
  8
0
 10
-20.0316
 20
-66.394
 11
-20.0394
 21
-66.4279
  0
LINE
  8
0
 10
-20.0394
 20
-66.4279
 11
-20.4528
 21
-68.2393
  0
LINE
  8
0
 10
-20.4528
 20
-68.2393
 11
-20.2072
 21
-69.3155
  0
LINE
  8
0
 10
-20.2072
 20
-69.3155
 11
-24.2387
 21
-71.9355
  0
LINE
  8
0
 10
-24.2387
 20
-71.9355
 11
-24.2389
 21
-71.9356
  0
LINE
  8
0
 10
-24.2389
 20
-71.9356
 11
-26.2938
 21
-73.271
  0
LINE
  8
0
 10
-26.2938
 20
-73.271
 11
-27.597
 21
-74.2658
  0
LINE
  8
0
 10
-27.597
 20
-74.2658
 11
-27.8681
 21
-74.4727
  0
LINE
  8
0
 10
-27.8681
 20
-74.4727
 11
-27.8773
 21
-74.4828
  0
LINE
  8
0
 10
-27.8773
 20
-74.4828
 11
-35.8976
 21
-83.3903
  0
LINE
  8
0
 10
-35.8976
 20
-83.3903
 11
-37.4759
 21
-85.1432
  0
LINE
  8
0
 10
-37.4759
 20
-85.1432
 11
-37.4759
 21
-85.1432
  0
LINE
  8
0
 10
-37.4759
 20
-85.1432
 11
-37.5205
 21
-85.1928
  0
LINE
  8
0
 10
-37.5205
 20
-85.1928
 11
-36.7053
 21
-88.9761
  0
LINE
  8
0
 10
-36.7053
 20
-88.9761
 11
-36.5079
 21
-89.8924
  0
LINE
  8
0
 10
-36.5079
 20
-89.8924
 11
-38.554
 21
-92.7086
  0
LINE
  8
0
 10
-38.554
 20
-92.7086
 11
-38.5542
 21
-92.7088
  0
LINE
  8
0
 10
-38.5542
 20
-92.7088
 11
-43.2429
 21
-99.1623
  0
LINE
  8
0
 10
-43.2429
 20
-99.1623
 11
-44.1728
 21
-97.9963
  0
LINE
  8
0
 10
-44.1728
 20
-97.9963
 11
-45.8467
 21
-97.1902
  0
LINE
  8
0
 10
-45.8467
 20
-97.1902
 11
-45.8781
 21
-97.1751
  0
LINE
  8
0
 10
-45.8781
 20
-97.1751
 11
-47.7709
 21
-97.1751
  0
LINE
  8
0
 10
-47.7709
 20
-97.1751
 11
-47.8023
 21
-97.1902
  0
LINE
  8
0
 10
-47.8023
 20
-97.1902
 11
-49.4762
 21
-97.9963
  0
LINE
  8
0
 10
-49.4762
 20
-97.9963
 11
-50.4443
 21
-99.2103
  0
LINE
  8
0
 10
-50.4443
 20
-99.2103
 11
-51.7423
 21
-97.9179
  0
LINE
  8
0
 10
-51.7423
 20
-97.9179
 11
-47.0163
 21
-91.8688
  0
LINE
  8
0
 10
-47.0163
 20
-91.8688
 11
-78.5367
 21
-67.2424
  0
LINE
  8
0
 10
-78.5367
 20
-67.2424
 11
-80.648
 21
-69.9447
  0
LINE
  8
0
 10
-80.648
 20
-69.9447
 11
-81.225
 21
-69.2213
  0
LINE
  8
0
 10
-81.225
 20
-69.2213
 11
-82.8989
 21
-68.4152
  0
LINE
  8
0
 10
-82.8989
 20
-68.4152
 11
-82.9303
 21
-68.4001
  0
LINE
  8
0
 10
-82.9303
 20
-68.4001
 11
-83.1946
 21
-68.4001
  0
LINE
  8
0
 10
-83.1946
 20
-68.4001
 11
-83.2497
 21
-68.1232
  0
LINE
  8
0
 10
-57.4057
 20
-30.2143
 11
-56.5557
 21
-28.742
  0
LINE
  8
0
 10
-56.5557
 20
-28.742
 11
-54.8557
 21
-28.742
  0
LINE
  8
0
 10
-54.8557
 20
-28.742
 11
-54.0057
 21
-30.2143
  0
LINE
  8
0
 10
-54.0057
 20
-30.2143
 11
-54.8557
 21
-31.6865
  0
LINE
  8
0
 10
-54.8557
 20
-31.6865
 11
-56.5557
 21
-31.6865
  0
LINE
  8
0
 10
-56.5557
 20
-31.6865
 11
-57.4057
 21
-30.2143
  0
LINE
  8
0
 10
-54.5212
 20
33.595
 11
-53.6712
 21
35.0672
  0
LINE
  8
0
 10
-53.6712
 20
35.0672
 11
-51.9712
 21
35.0672
  0
LINE
  8
0
 10
-51.9712
 20
35.0672
 11
-51.1212
 21
33.595
  0
LINE
  8
0
 10
-51.1212
 20
33.595
 11
-51.9712
 21
32.1228
  0
LINE
  8
0
 10
-51.9712
 20
32.1228
 11
-53.6712
 21
32.1228
  0
LINE
  8
0
 10
-53.6712
 20
32.1228
 11
-54.5212
 21
33.595
  0
LINE
  8
0
 10
-48.5245
 20
-101.321
 11
-47.6745
 21
-99.8492
  0
LINE
  8
0
 10
-47.6745
 20
-99.8492
 11
-45.9745
 21
-99.8492
  0
LINE
  8
0
 10
-45.9745
 20
-99.8492
 11
-45.1245
 21
-101.321
  0
LINE
  8
0
 10
-45.1245
 20
-101.321
 11
-45.9745
 21
-102.794
  0
LINE
  8
0
 10
-45.9745
 20
-102.794
 11
-47.6745
 21
-102.794
  0
LINE
  8
0
 10
-47.6745
 20
-102.794
 11
-48.5245
 21
-101.321
  0
LINE
  8
0
 10
-17.8998
 20
-68.2393
 11
-17.0498
 21
-66.767
  0
LINE
  8
0
 10
-17.0498
 20
-66.767
 11
-15.3498
 21
-66.767
  0
LINE
  8
0
 10
-15.3498
 20
-66.767
 11
-14.4998
 21
-68.2393
  0
LINE
  8
0
 10
-14.4998
 20
-68.2393
 11
-15.3498
 21
-69.7115
  0
LINE
  8
0
 10
-15.3498
 20
-69.7115
 11
-17.0498
 21
-69.7115
  0
LINE
  8
0
 10
-17.0498
 20
-69.7115
 11
-17.8998
 21
-68.2393
  0
LINE
  8
0
 10
-7.319
 20
39.7769
 11
-6.469
 21
41.2492
  0
LINE
  8
0
 10
-6.469
 20
41.2492
 11
-4.769
 21
41.2492
  0
LINE
  8
0
 10
-4.769
 20
41.2492
 11
-3.919
 21
39.7769
  0
LINE
  8
0
 10
-3.919
 20
39.7769
 11
-4.769
 21
38.3047
  0
LINE
  8
0
 10
-4.769
 20
38.3047
 11
-6.469
 21
38.3047
  0
LINE
  8
0
 10
-6.469
 20
38.3047
 11
-7.319
 21
39.7769
  0
LINE
  8
0
 10
20.4036
 20
-50.7144
 11
21.2536
 21
-49.2422
  0
LINE
  8
0
 10
21.2536
 20
-49.2422
 11
22.9536
 21
-49.2422
  0
LINE
  8
0
 10
22.9536
 20
-49.2422
 11
23.8036
 21
-50.7144
  0
LINE
  8
0
 10
23.8036
 20
-50.7144
 11
22.9536
 21
-52.1866
  0
LINE
  8
0
 10
22.9536
 20
-52.1866
 11
21.2536
 21
-52.1866
  0
LINE
  8
0
 10
21.2536
 20
-52.1866
 11
20.4036
 21
-50.7144
  0
LINE
  8
0
 10
20.4036
 20
26.7144
 11
21.2536
 21
28.1866
  0
LINE
  8
0
 10
21.2536
 20
28.1866
 11
22.9536
 21
28.1866
  0
LINE
  8
0
 10
22.9536
 20
28.1866
 11
23.8036
 21
26.7144
  0
LINE
  8
0
 10
23.8036
 20
26.7144
 11
22.9536
 21
25.2422
  0
LINE
  8
0
 10
22.9536
 20
25.2422
 11
21.2536
 21
25.2422
  0
LINE
  8
0
 10
21.2536
 20
25.2422
 11
20.4036
 21
26.7144
  0
ENDSEC
  0
SECTION
  2
OBJECTS
  0
DICTIONARY
  0
ENDSEC
  0
EOF
