<?xml version="1.0" encoding="UTF-8" standalone="no"?>
<svg
   xmlns:dc="http://purl.org/dc/elements/1.1/"
   xmlns:cc="http://creativecommons.org/ns#"
   xmlns:rdf="http://www.w3.org/1999/02/22-rdf-syntax-ns#"
   xmlns:svg="http://www.w3.org/2000/svg"
   xmlns="http://www.w3.org/2000/svg"
   xmlns:sodipodi="http://sodipodi.sourceforge.net/DTD/sodipodi-0.dtd"
   xmlns:inkscape="http://www.inkscape.org/namespaces/inkscape"
   width="297mm"
   height="210mm"
   viewBox="-93 -45 1122.5197 793.70079"
   version="1.1"
   id="svg4660"
   sodipodi:docname="right-plate.svg"
   inkscape:version="0.92.1 r15371">
  <metadata
     id="metadata4666">
    <rdf:RDF>
      <cc:Work
         rdf:about="">
        <dc:format>image/svg+xml</dc:format>
        <dc:type
           rdf:resource="http://purl.org/dc/dcmitype/StillImage" />
        <dc:title>OpenSCAD Model</dc:title>
      </cc:Work>
    </rdf:RDF>
  </metadata>
  <defs
     id="defs4664" />
  <sodipodi:namedview
     pagecolor="#ffffff"
     bordercolor="#666666"
     borderopacity="1"
     objecttolerance="10"
     gridtolerance="10"
     guidetolerance="10"
     inkscape:pageopacity="0"
     inkscape:pageshadow="2"
     inkscape:window-width="1920"
     inkscape:window-height="1034"
     id="namedview4662"
     showgrid="false"
     inkscape:measure-start="-32.1434,95.0909"
     inkscape:measure-end="106.758,39.5614"
     units="mm"
     inkscape:zoom="0.88388348"
     inkscape:cx="207.53668"
     inkscape:cy="322.47235"
     inkscape:window-x="0"
     inkscape:window-y="46"
     inkscape:window-maximized="0"
     inkscape:current-layer="svg4660" />
  <title
     id="title4656">OpenSCAD Model</title>
  <circle
     style="fill:#000000;stroke:#000000;stroke-width:1.24693406;stroke-opacity:1"
     id="path5237-3-6-7-5"
     cx="-9.5613995"
     cy="627.71478"
     r="10.715116" />
  <circle
     style="fill:#000000;stroke:#000000;stroke-width:1.24693406;stroke-opacity:1"
     id="path5237-3-6-7"
     cx="285.53156"
     cy="692.55908"
     r="10.715116" />
  <circle
     style="fill:#000000;stroke:#000000;stroke-width:1.24693406;stroke-opacity:1"
     id="path5237-3-6"
     cx="502.39215"
     cy="496.59091"
     r="10.715116" />
  <circle
     style="fill:#000000;stroke:#000000;stroke-width:1.24693406;stroke-opacity:1"
     id="path5237-3"
     cx="229.59062"
     cy="290.87741"
     r="10.715116" />
  <circle
     style="fill:#000000;stroke:#000000;stroke-width:1.24693406;stroke-opacity:1"
     id="path5237"
     cx="8.3261356"
     cy="377.31229"
     r="10.715116" />
  <path
     style="fill:none;stroke:#ff0000;stroke-width:1.89315724;stroke-opacity:1"
     d="m -54.2327,268.60871 0.64908,-6.29408 1.912034,-18.53881 0.182153,-0.14954 0.111335,-0.0913 v 0 l 29.458725,-24.18479 21.1281786,-17.34521 0.13141104,-0.10789 8.97280556,-4.38001 10.4319278,-1.14555 v 0 l 32.342109,-28.58638 17.901688,-15.82263 v 0 l 0.291979,-0.25742 5.396036,0.0227 27.308098,0.13251 0.087,0.0567 0.0424,0.0265 7.72993,4.95166 8.45058,5.41729 5.46383,5.48354 11.24233,11.28702 5.4286,7.4695 9.92181,13.65192 -3.27647,12.74559 -1.52348,5.92723 14.87591,16.51579 19.96407,22.1651 27.01347,18.01604 9.8e-4,7.5e-4 9.47119,6.31678 2.71977,-3.40937 6.33937,-3.05166 0.11892,-0.0571 h 7.16757 l 0.11889,0.0571 6.33937,3.05166 4.38681,5.49907 0.0822,0.10296 0.0291,0.12872 1.56592,6.85736 -0.2916,1.27654 26.51482,5.95222 h 34.41578 40.49768 l 1.90824,3.56459 1.63863,3.06033 11.79333,22.655 6.34807,12.19516 h 33.73609 v 0 l 1.35497,0.0819 1.60078,0.0965 1.20307,0.0587 17.00609,0.83096 63.34817,2.36151 2.34148,0.22525 0.46845,0.0451 21.60421,26.56217 1.26862,1.55933 -1.78971,20.09588 -4.22851,47.48219 -0.67181,14.8531 -0.46276,10.23116 v 16.85989 h 0.54683 l 0.11891,0.0571 6.33937,3.05199 4.38679,5.49869 0.0823,0.10337 0.0291,0.1287 1.56591,6.85698 -1.56591,6.85701 -0.0291,0.1287 -0.0823,0.10336 -4.38679,5.49885 -6.33937,3.05174 -0.11891,0.0572 h -0.54683 v 16.85993 l 0.46276,10.23134 0.67181,14.85273 4.22851,47.48239 1.78971,20.09589 -1.26862,1.55931 -21.60421,26.5622 -0.46845,0.0451 -2.34148,0.22524 -63.34817,2.3615 -17.00609,0.83098 -1.20307,0.0587 -1.60078,0.0965 -1.35497,0.0818 v 0 h -59.48696 l -16.00246,32.14832 -4.90302,9.85034 -3.4407,2.98235 -0.3982,0.033 -3.12249,0.25856 -1.87796,0.15559 h -4e-5 -13.07372 l -0.008,0.0337 -0.0291,0.12833 -0.0824,0.10334 -4.3868,5.49909 -6.3391,3.05162 -0.1189,0.0571 h -7.16737 l -0.11887,-0.0571 -6.3391,-3.05162 -4.38682,-5.49909 -0.0822,-0.10334 -0.0295,-0.12833 -0.008,-0.0337 h -15.25462 l -17.84451,8.70743 h -3.8e-4 l -4.0331,1.96818 h -11.18137 -0.4389 -48.85058 -0.18367 l -5.07981,-5.05465 -5.64901,-5.62096 H 127.64701 104.64355 93.971521 93.86435 89.364683 49.865994 34.330769 L 24.293825,689.08591 21.422551,686.16867 -5.0861262,659.66896 -7.4666065,643.3633 h -5.6584725 l -0.118905,-0.0571 -6.338989,-3.05163 -4.386803,-5.49908 -0.08222,-0.10295 -0.02951,-0.12872 -1.565534,-6.857 1.565534,-6.85736 0.02951,-0.12872 0.08222,-0.10296 4.386803,-5.49909 6.338989,-3.05163 0.118905,-0.0571 h 1.0755 l -2.325197,-15.92708 -1.046709,-14.59642 -0.436261,-6.07828 v -66.24931 l 0.436261,-6.07829 1.046709,-14.59642 5.3430121,-36.5999 v -13.50654 h 1.9718761 l 1.9737616,-13.51978 3.3457699,-11.70189 5.2233469,-18.26853 -16.1517426,-13.54856 -9.87e-4,-7.5e-4 -15.230375,-12.77552 v 0 l -2.57891,-3.14365 -2.177125,-2.65412 10.061561,-25.07633 4.62955,-11.53871 -10.412228,-13.32219 -3.86e-4,-7.5e-4 -5.061633,-6.47652 v 0 0 l -11.169633,-20.25223 -9.397321,-17.03933 v 0 z"
     id="path5235"
     inkscape:connector-curvature="0" />
  <path
     style="fill:none;stroke:#ff0000;stroke-width:1.89315724;stroke-opacity:1"
     d="m -15.979159,627.66634 3.218921,5.57328 h 6.4378174 l 3.2189092,-5.57328 -3.2189092,-5.57366 h -6.4378174 z"
     id="path5233"
     inkscape:connector-curvature="0" />
  <path
     style="fill:none;stroke:#ff0000;stroke-width:1.89315724;stroke-opacity:1"
     d="m 1.9850192,377.21782 3.218919,5.57365 h 6.4378188 l 3.218907,-5.57365 -3.218907,-5.57327 H 5.2039382 Z"
     id="path5231"
     inkscape:connector-curvature="0" />
  <path
     style="fill:none;stroke:#ff0000;stroke-width:1.89315724;stroke-opacity:1"
     d="m 223.20149,291.07062 3.21892,5.57327 h 6.43783 l 3.21891,-5.57327 -3.21891,-5.57365 h -6.43783 z"
     id="path5229"
     inkscape:connector-curvature="0" />
  <path
     style="fill:none;stroke:#ff0000;stroke-width:1.89315724;stroke-opacity:1"
     d="m 279.01482,692.45969 3.21891,5.57364 h 6.43782 l 3.21891,-5.57364 -3.21891,-5.57327 h -6.43782 z"
     id="path5227"
     inkscape:connector-curvature="0" />
  <path
     style="fill:none;stroke:#ff0000;stroke-width:1.89315724;stroke-opacity:1"
     d="m 495.87437,496.81485 3.21893,5.57329 h 6.4378 l 3.21892,-5.57329 -3.21892,-5.57326 h -6.4378 z"
     id="path4658"
     inkscape:connector-curvature="0" />
</svg>
