<?xml version="1.0" standalone="no"?>
<!DOCTYPE svg PUBLIC "-//W3C//DTD SVG 1.1//EN" "http://www.w3.org/Graphics/SVG/1.1/DTD/svg11.dtd">
<svg width="174mm" height="155mm" viewBox="-113 -68 174 155" xmlns="http://www.w3.org/2000/svg" version="1.1">
<title>OpenSCAD Model</title>
<path d="
M -112.354,47.4205 L -112.016,56.0862 L -112.011,56.2207 L -112.01,56.2218 L -111.829,56.4132 L -110.774,57.5304
 L -100.283,69.1492 L -89.9777,73.5411 L -88.3928,74.0498 L -76.8098,85.2669 L -75.9872,86.0635 L -75.9872,86.0635
 L -75.9829,86.0676 L -75.9151,86.1333 L -75.7626,86.135 L -74.0696,86.153 L -66.925,86.6815 L -66.5048,86.3607
 L -66.5047,86.3607 L -65.3507,85.4798 L -65.3466,85.4753 L -65.2952,85.4182 L -60.5952,80.1982 L -55.6983,74.7597
 L -51.8929,69.8643 L -51.8926,69.8639 L -47.6753,64.4386 L -44.8205,64.4386 L -44.7887,64.4386 L -32.732,64.4386
 L -30.3145,62.4544 L -30.3144,62.4544 L -29.2961,61.6186 L -22.1373,61.6186 L -12.1615,61.6186 L -10.149,63.2581
 L -8.7,64.4386 L 8.59999,64.4386 L 9.52592,67.6481 L 9.52599,67.6483 L 12.0619,76.4386 L 24.7593,76.4386
 L 29.3701,76.4386 L 31.9214,76.4386 L 31.9473,76.4386 L 32.8055,76.4386 L 45.51,76.4386 L 45.5369,76.4386
 L 49.8677,76.4386 L 55.5963,71.8091 L 57.3691,70.3764 L 57.8434,65.6457 L 58.8712,55.3941 L 58.8739,55.3668
 L 58.8799,55.3075 L 59.3021,49.4366 L 59.4975,46.7213 L 59.4991,46.6869 L 59.4991,46.6855 L 59.8265,39.6484
 L 60.2795,29.9142 L 60.3728,25.8335 L 60.4901,20.7 L 60.4901,3.29999 L 60.4015,-0.577577 L 60.2795,-5.91418
 L 59.8265,-15.6484 L 59.4991,-22.6855 L 59.4991,-22.6869 L 59.4975,-22.7213 L 59.3021,-25.4366 L 58.8799,-31.3075
 L 58.8739,-31.3668 L 58.8712,-31.3941 L 57.8434,-41.6457 L 57.3691,-46.3764 L 55.5963,-47.8091 L 49.8677,-52.4386
 L 45.5369,-52.4386 L 45.51,-52.4386 L 32.8055,-52.4386 L 31.9473,-52.4386 L 31.9214,-52.4386 L 29.3701,-52.4386
 L 24.7593,-52.4386 L 12.1615,-52.4386 L 9.62568,-61.2295 L 8.7,-64.4386 L -8.59999,-64.4386 L -10.9683,-66.3678
 L -12.0619,-67.2586 L -22.1373,-67.2586 L -29.3957,-67.2586 L -30.4133,-66.4231 L -32.8305,-64.4386 L -44.7887,-64.4386
 L -44.8205,-64.4386 L -49.8409,-64.4386 L -52.3016,-64.4386 L -52.3289,-64.4386 L -53.2239,-64.4386 L -65.4724,-64.4386
 L -65.5012,-64.4386 L -69.9602,-64.4386 L -72.278,-62.5549 L -77.6659,-58.1764 L -84.6659,-51.1764 L -86.2404,-40.6402
 L -86.9177,-36.1075 L -87.1558,-33.8861 L -87.4633,-31.0184 L -88.1201,-21.5478 L -88.6288,-14.2113 L -88.7327,-11.1627
 L -88.8149,-8.75 L -88.8149,8.75 L -88.7327,11.1627 L -88.6288,14.2113 L -88.1201,21.5478 L -87.47,30.9217
 L -94.3375,34.2856 L -94.3378,34.2858 L -101.381,37.7357 L -101.413,37.7627 L -101.444,37.789 L -101.444,37.789
 L -106.298,41.8618 L -111.098,45.889 L -111.956,46.9357 z
M -109.58,54.0446 L -109.471,50.5994 L -109.58,47.8192 L -106.575,45.298 L -100.883,40.5217 L -92.053,35.1148
 L -92.0527,35.1146 L -85.3633,31.0184 L -85.3633,30.9184 L -86.0869,20.4835 L -86.5288,14.1113 L -86.6159,11.557
 L -86.7149,8.65 L -86.7149,-8.65 L -86.6159,-11.557 L -86.5288,-14.1113 L -86.0869,-20.4835 L -85.3633,-30.9184
 L -85.0245,-34.0781 L -84.8177,-36.0075 L -84.2043,-40.112 L -82.566,-51.0764 L -77.566,-56.0764 L -71.5885,-59.5642
 L -69.3508,-60.8699 L -56.4769,-60.8699 L -52.6649,-60.8699 L -50.2663,-60.8699 L -49.4455,-60.8699 L -36.8199,-60.8699
 L -32.388,-60.8699 L -31.1935,-61.9018 L -29.1234,-63.6899 L -18.2297,-63.6899 L -11.9889,-63.6899 L -9.9726,-61.9611
 L -9.97253,-61.961 L -8.7,-60.8699 L 8.59999,-60.8699 L 9.43604,-57.8198 L 11.8893,-48.8699 L 11.9146,-48.8699
 L 11.9146,-48.8699 L 16.1331,-48.8699 L 29.1396,-48.8699 L 29.9382,-48.8699 L 32.4119,-48.8699 L 36.2398,-48.8699
 L 36.2606,-48.8699 L 49.4252,-48.8699 L 53.572,-45.5187 L 54.7834,-44.5398 L 55.9333,-33.0701 L 56.2767,-29.6441
 L 56.4602,-27.093 L 56.8468,-21.719 L 57.1352,-15.5206 L 57.6198,-5.1049 L 57.7415,0.217621 L 57.8142,3.4
 L 57.8142,20.6 L 57.7415,23.7824 L 57.6198,29.1049 L 57.1352,39.5206 L 56.8468,45.719 L 56.4602,51.093
 L 56.2767,53.6441 L 55.9333,57.0701 L 54.7834,68.5398 L 53.572,69.5187 L 49.4252,72.8699 L 36.2606,72.8699
 L 36.2398,72.8699 L 32.4119,72.8699 L 29.9382,72.8699 L 29.1396,72.8699 L 16.1331,72.8699 L 11.9889,72.8699
 L 9.67807,64.4386 L 12.2,64.4386 L 12.2,64.4112 L 12.2,63.1556 L 12.2,62.602 L 12.2,62.602
 L 11.4889,61.3703 L 11.2,60.8699 L -8.59999,60.8699 L -9.87309,59.7784 L -11.8893,58.0499 L -11.9278,58.0499
 L -11.9278,58.0499 L -18.2297,58.0499 L -29.223,58.0499 L -29.223,58.0499 L -31.2927,59.8383 L -31.2928,59.8384
 L -32.4865,60.8699 L -36.8199,60.8699 L -44.9013,60.8699 L -44.3579,60.1709 L -44.3579,60.1709 L -44.3737,60.1072
 L -44.6739,58.8977 L -44.8414,58.2229 L -44.8573,58.1589 L -44.8874,58.1642 L -44.948,58.1749 L -44.948,58.1749
 L -45.7631,58.7307 L -46.1687,59.0073 L -47.6837,60.8699 L -49.4455,60.8699 L -50.2663,60.8699 L -52.7369,60.8699
 L -52.7369,60.8699 L -52.952,61.3497 L -53.5214,62.6199 L -53.512,62.6828 L -53.4394,63.1687 L -53.2497,64.4386
 L -53.2239,64.4386 L -52.3289,64.4386 L -52.3016,64.4386 L -50.5864,64.4386 L -54.9979,69.8623 L -54.9982,69.8626
 L -58.798,74.5343 L -65.9272,82.4521 L -67.2267,83.8953 L -68.0587,83.8338 L -73.7103,83.8153 L -73.7103,83.8153
 L -75.9755,81.6303 L -86.1402,71.8256 L -86.1402,71.8256 L -86.1931,71.7746 L -86.2125,71.7559 L -95.7608,67.6473
 L -98.0318,66.8853 L -98.0318,66.8853 L -108.251,55.5223 z
" stroke="black" fill="lightgray" stroke-width="0.5"/>
</svg>
