  0
SECTION
  2
BLOCKS
  0
ENDSEC
  0
SECTION
  2
ENTITIES
  0
LINE
  8
0
 10
-93.2728
 20
-73.4625
 11
-93.0511
 21
-75.6132
  0
LINE
  8
0
 10
-93.0511
 20
-75.6132
 11
-92.6906
 21
-79.1101
  0
LINE
  8
0
 10
-92.6906
 20
-79.1101
 11
-92.6341
 21
-79.1564
  0
LINE
  8
0
 10
-92.6341
 20
-79.1564
 11
-92.6131
 21
-79.1737
  0
LINE
  8
0
 10
-92.6131
 20
-79.1737
 11
-92.6131
 21
-79.1737
  0
LINE
  8
0
 10
-92.6131
 20
-79.1737
 11
-83.5008
 21
-86.6571
  0
LINE
  8
0
 10
-83.5008
 20
-86.6571
 11
-79.2465
 21
-90.1509
  0
LINE
  8
0
 10
-79.2465
 20
-90.1509
 11
-79.2202
 21
-90.1725
  0
LINE
  8
0
 10
-79.2202
 20
-90.1725
 11
-77.4233
 21
-91.05
  0
LINE
  8
0
 10
-77.4233
 20
-91.05
 11
-74.3008
 21
-91.3929
  0
LINE
  8
0
 10
-74.3008
 20
-91.3929
 11
-74.3008
 21
-91.3929
  0
LINE
  8
0
 10
-74.3008
 20
-91.3929
 11
-64.6126
 21
-99.9591
  0
LINE
  8
0
 10
-64.6126
 20
-99.9591
 11
-61.0333
 21
-103.124
  0
LINE
  8
0
 10
-61.0333
 20
-103.124
 11
-61.0333
 21
-103.124
  0
LINE
  8
0
 10
-61.0333
 20
-103.124
 11
-60.9562
 21
-103.192
  0
LINE
  8
0
 10
-60.9562
 20
-103.192
 11
-59.2412
 21
-103.184
  0
LINE
  8
0
 10
-59.2412
 20
-103.184
 11
-53.4344
 21
-103.156
  0
LINE
  8
0
 10
-53.4344
 20
-103.156
 11
-53.395
 21
-103.131
  0
LINE
  8
0
 10
-53.395
 20
-103.131
 11
-49.8818
 21
-100.879
  0
LINE
  8
0
 10
-49.8818
 20
-100.879
 11
-46.0622
 21
-98.4307
  0
LINE
  8
0
 10
-46.0622
 20
-98.4307
 11
-43.5926
 21
-95.9505
  0
LINE
  8
0
 10
-43.5926
 20
-95.9505
 11
-41.6508
 21
-94.0002
  0
LINE
  8
0
 10
-41.6508
 20
-94.0002
 11
-40.9279
 21
-93.0053
  0
LINE
  8
0
 10
-40.9279
 20
-93.0053
 11
-40.9278
 21
-93.0051
  0
LINE
  8
0
 10
-40.9278
 20
-93.0051
 11
-38.9992
 21
-90.3507
  0
LINE
  8
0
 10
-38.9992
 20
-90.3507
 11
-38.9992
 21
-90.3507
  0
LINE
  8
0
 10
-38.9992
 20
-90.3507
 11
-39.9656
 21
-86.5902
  0
LINE
  8
0
 10
-39.9656
 20
-86.5902
 11
-40.2668
 21
-85.4182
  0
LINE
  8
0
 10
-40.2668
 20
-85.4182
 11
-36.0694
 21
-80.7565
  0
LINE
  8
0
 10
-36.0694
 20
-80.7565
 11
-36.0691
 21
-80.7562
  0
LINE
  8
0
 10
-36.0691
 20
-80.7562
 11
-31.0667
 21
-75.2005
  0
LINE
  8
0
 10
-31.0667
 20
-75.2005
 11
-24.229
 21
-70.6386
  0
LINE
  8
0
 10
-24.229
 20
-70.6386
 11
-24.2286
 21
-70.6384
  0
LINE
  8
0
 10
-24.2286
 20
-70.6384
 11
-21.302
 21
-68.6859
  0
LINE
  8
0
 10
-21.302
 20
-68.6859
 11
-20.5145
 21
-69.6733
  0
LINE
  8
0
 10
-20.5145
 20
-69.6733
 11
-18.8406
 21
-70.4794
  0
LINE
  8
0
 10
-18.8406
 20
-70.4794
 11
-18.8092
 21
-70.4945
  0
LINE
  8
0
 10
-18.8092
 20
-70.4945
 11
-16.9164
 21
-70.4945
  0
LINE
  8
0
 10
-16.9164
 20
-70.4945
 11
-16.885
 21
-70.4794
  0
LINE
  8
0
 10
-16.885
 20
-70.4794
 11
-15.2111
 21
-69.6733
  0
LINE
  8
0
 10
-15.2111
 20
-69.6733
 11
-14.0527
 21
-68.2207
  0
LINE
  8
0
 10
-14.0527
 20
-68.2207
 11
-14.031
 21
-68.1935
  0
LINE
  8
0
 10
-14.031
 20
-68.1935
 11
-14.0232
 21
-68.1595
  0
LINE
  8
0
 10
-14.0232
 20
-68.1595
 11
-13.6098
 21
-66.3481
  0
LINE
  8
0
 10
-13.6098
 20
-66.3481
 11
-13.6885
 21
-66.0031
  0
LINE
  8
0
 10
-13.6885
 20
-66.0031
 11
-6.5022
 21
-64.4386
  0
LINE
  8
0
 10
-6.5022
 20
-64.4386
 11
2.37856
 21
-64.4386
  0
LINE
  8
0
 10
2.37856
 20
-64.4386
 11
2.43206
 21
-64.4386
  0
LINE
  8
0
 10
2.43206
 20
-64.4386
 11
13.5891
 21
-64.4386
  0
LINE
  8
0
 10
13.5891
 20
-64.4386
 11
17.1935
 21
-57.8831
  0
LINE
  8
0
 10
17.1935
 20
-57.8831
 11
19.613
 21
-53.4828
  0
LINE
  8
0
 10
19.613
 20
-53.4828
 11
27.5392
 21
-53.4828
  0
LINE
  8
0
 10
27.5392
 20
-53.4828
 11
27.6488
 21
-53.4828
  0
LINE
  8
0
 10
27.6488
 20
-53.4828
 11
29.656
 21
-53.4828
  0
LINE
  8
0
 10
29.656
 20
-53.4828
 11
33.8889
 21
-53.4828
  0
LINE
  8
0
 10
33.8889
 20
-53.4828
 11
33.9852
 21
-53.4828
  0
LINE
  8
0
 10
33.9852
 20
-53.4828
 11
34.3028
 21
-53.4828
  0
LINE
  8
0
 10
34.3028
 20
-53.4828
 11
42.7912
 21
-53.4828
  0
LINE
  8
0
 10
42.7912
 20
-53.4828
 11
42.7912
 21
-53.4828
  0
LINE
  8
0
 10
42.7912
 20
-53.4828
 11
48.814
 21
-53.3421
  0
LINE
  8
0
 10
48.814
 20
-53.3421
 11
51.5104
 21
-53.2792
  0
LINE
  8
0
 10
51.5104
 20
-53.2792
 11
55.0109
 21
-53.2382
  0
LINE
  8
0
 10
55.0109
 20
-53.2382
 11
56.2211
 21
-53.224
  0
LINE
  8
0
 10
56.2211
 20
-53.224
 11
73.5211
 21
-53.224
  0
LINE
  8
0
 10
73.5211
 20
-53.224
 11
77.8291
 21
-48.7641
  0
LINE
  8
0
 10
77.8291
 20
-48.7641
 11
80.5211
 21
-45.9771
  0
LINE
  8
0
 10
80.5211
 20
-45.9771
 11
80.5211
 21
-43.5635
  0
LINE
  8
0
 10
80.5211
 20
-43.5635
 11
79.4394
 21
-31.8606
  0
LINE
  8
0
 10
79.4394
 20
-31.8606
 11
79.0887
 21
-28.0668
  0
LINE
  8
0
 10
79.0887
 20
-28.0668
 11
78.8159
 21
-22.2648
  0
LINE
  8
0
 10
78.8159
 20
-22.2648
 11
78.7376
 21
-20.6
  0
LINE
  8
0
 10
78.7376
 20
-20.6
 11
78.7376
 21
-3.4
  0
LINE
  8
0
 10
78.7376
 20
-3.4
 11
78.8159
 21
-1.73519
  0
LINE
  8
0
 10
78.8159
 20
-1.73519
 11
79.0887
 21
4.06683
  0
LINE
  8
0
 10
79.0887
 20
4.06683
 11
79.4394
 21
7.86063
  0
LINE
  8
0
 10
79.4394
 20
7.86063
 11
79.6741
 21
10.4003
  0
LINE
  8
0
 10
79.6741
 20
10.4003
 11
81.1728
 21
11.122
  0
LINE
  8
0
 10
81.1728
 20
11.122
 11
82.3312
 21
12.5746
  0
LINE
  8
0
 10
82.3312
 20
12.5746
 11
82.353
 21
12.6018
  0
LINE
  8
0
 10
82.353
 20
12.6018
 11
82.3607
 21
12.6358
  0
LINE
  8
0
 10
82.3607
 20
12.6358
 11
82.7741
 21
14.4471
  0
LINE
  8
0
 10
82.7741
 20
14.4471
 11
82.3607
 21
16.2585
  0
LINE
  8
0
 10
82.3607
 20
16.2585
 11
82.353
 21
16.2925
  0
LINE
  8
0
 10
82.353
 20
16.2925
 11
82.3312
 21
16.3197
  0
LINE
  8
0
 10
82.3312
 20
16.3197
 11
81.1728
 21
17.7723
  0
LINE
  8
0
 10
81.1728
 20
17.7723
 11
80.3904
 21
18.1491
  0
LINE
  8
0
 10
80.3904
 20
18.1491
 11
80.5211
 21
19.5635
  0
LINE
  8
0
 10
80.5211
 20
19.5635
 11
80.5211
 21
29.4264
  0
LINE
  8
0
 10
80.5211
 20
29.4264
 11
80.5211
 21
31.3138
  0
LINE
  8
0
 10
80.5211
 20
31.3138
 11
80.5211
 21
32.3868
  0
LINE
  8
0
 10
80.5211
 20
32.3868
 11
80.5211
 21
46.3316
  0
LINE
  8
0
 10
80.5211
 20
46.3316
 11
80.5211
 21
46.3316
  0
LINE
  8
0
 10
80.5211
 20
46.3316
 11
80.5211
 21
46.3764
  0
LINE
  8
0
 10
80.5211
 20
46.3764
 11
77.4578
 21
49.0293
  0
LINE
  8
0
 10
77.4578
 20
49.0293
 11
73.5211
 21
52.4386
  0
LINE
  8
0
 10
73.5211
 20
52.4386
 11
54.1744
 21
52.4386
  0
LINE
  8
0
 10
54.1744
 20
52.4386
 11
52.7029
 21
52.4386
  0
LINE
  8
0
 10
52.7029
 20
52.4386
 11
42.9631
 21
52.4386
  0
LINE
  8
0
 10
42.9631
 20
52.4386
 11
35.4661
 21
52.4386
  0
LINE
  8
0
 10
35.4661
 20
52.4386
 11
33.4339
 21
52.4386
  0
LINE
  8
0
 10
33.4339
 20
52.4386
 11
33.3927
 21
52.4386
  0
LINE
  8
0
 10
33.3927
 20
52.4386
 11
32.0301
 21
52.4386
  0
LINE
  8
0
 10
32.0301
 20
52.4386
 11
21.8263
 21
52.4386
  0
LINE
  8
0
 10
21.8263
 20
52.4386
 11
15.0519
 21
52.4386
  0
LINE
  8
0
 10
15.0519
 20
52.4386
 11
13.4997
 21
56.3582
  0
LINE
  8
0
 10
13.4997
 20
56.3582
 11
10.9928
 21
62.6886
  0
LINE
  8
0
 10
10.9928
 20
62.6886
 11
10.5083
 21
63.7693
  0
LINE
  8
0
 10
10.5083
 20
63.7693
 11
10.2083
 21
64.4386
  0
LINE
  8
0
 10
10.2083
 20
64.4386
 11
5.34862
 21
64.4386
  0
LINE
  8
0
 10
5.34862
 20
64.4386
 11
5.27346
 21
64.7679
  0
LINE
  8
0
 10
5.27346
 20
64.7679
 11
5.26571
 21
64.8018
  0
LINE
  8
0
 10
5.26571
 20
64.8018
 11
5.24398
 21
64.8291
  0
LINE
  8
0
 10
5.24398
 20
64.8291
 11
4.08558
 21
66.2817
  0
LINE
  8
0
 10
4.08558
 20
66.2817
 11
2.41165
 21
67.0878
  0
LINE
  8
0
 10
2.41165
 20
67.0878
 11
2.38026
 21
67.1029
  0
LINE
  8
0
 10
2.38026
 20
67.1029
 11
0.487486
 21
67.1029
  0
LINE
  8
0
 10
0.487486
 20
67.1029
 11
0.456089
 21
67.0878
  0
LINE
  8
0
 10
0.456089
 20
67.0878
 11
-1.21784
 21
66.2817
  0
LINE
  8
0
 10
-1.21784
 20
66.2817
 11
-2.37624
 21
64.8291
  0
LINE
  8
0
 10
-2.37624
 20
64.8291
 11
-2.39797
 21
64.8018
  0
LINE
  8
0
 10
-2.39797
 20
64.8018
 11
-2.40572
 21
64.7679
  0
LINE
  8
0
 10
-2.40572
 20
64.7679
 11
-2.48088
 21
64.4386
  0
LINE
  8
0
 10
-2.48088
 20
64.4386
 11
-6.5022
 21
64.4386
  0
LINE
  8
0
 10
-6.5022
 20
64.4386
 11
-9.35799
 21
66.2399
  0
LINE
  8
0
 10
-9.35799
 20
66.2399
 11
-10.9729
 21
67.2586
  0
LINE
  8
0
 10
-10.9729
 20
67.2586
 11
-20.6247
 21
67.2586
  0
LINE
  8
0
 10
-20.6247
 20
67.2586
 11
-20.6724
 21
67.2586
  0
LINE
  8
0
 10
-20.6724
 20
67.2586
 11
-27.2925
 21
67.2586
  0
LINE
  8
0
 10
-27.2925
 20
67.2586
 11
-27.3235
 21
67.2586
  0
LINE
  8
0
 10
-27.3235
 20
67.2586
 11
-27.89
 21
66.4735
  0
LINE
  8
0
 10
-27.89
 20
66.4735
 11
-29.3584
 21
64.4386
  0
LINE
  8
0
 10
-29.3584
 20
64.4386
 11
-40.6423
 21
64.4386
  0
LINE
  8
0
 10
-40.6423
 20
64.4386
 11
-45.0165
 21
64.4386
  0
LINE
  8
0
 10
-45.0165
 20
64.4386
 11
-47.3757
 21
64.4386
  0
LINE
  8
0
 10
-47.3757
 20
64.4386
 11
-47.3974
 21
64.4386
  0
LINE
  8
0
 10
-47.3974
 20
64.4386
 11
-48.0897
 21
64.4386
  0
LINE
  8
0
 10
-48.0897
 20
64.4386
 11
-59.7201
 21
64.4386
  0
LINE
  8
0
 10
-59.7201
 20
64.4386
 11
-63.0913
 21
64.4386
  0
LINE
  8
0
 10
-63.0913
 20
64.4386
 11
-64.3533
 21
63.0073
  0
LINE
  8
0
 10
-64.3533
 20
63.0073
 11
-68.6126
 21
58.1764
  0
LINE
  8
0
 10
-68.6126
 20
58.1764
 11
-75.6126
 21
51.1764
  0
LINE
  8
0
 10
-75.6126
 20
51.1764
 11
-76.6278
 21
47.6597
  0
LINE
  8
0
 10
-76.6278
 20
47.6597
 11
-76.7598
 21
47.7232
  0
LINE
  8
0
 10
-76.7598
 20
47.7232
 11
-76.7912
 21
47.7384
  0
LINE
  8
0
 10
-76.7912
 20
47.7384
 11
-78.684
 21
47.7384
  0
LINE
  8
0
 10
-78.684
 20
47.7384
 11
-78.7154
 21
47.7232
  0
LINE
  8
0
 10
-78.7154
 20
47.7232
 11
-80.3893
 21
46.9171
  0
LINE
  8
0
 10
-80.3893
 20
46.9171
 11
-81.5477
 21
45.4645
  0
LINE
  8
0
 10
-81.5477
 20
45.4645
 11
-81.5694
 21
45.4373
  0
LINE
  8
0
 10
-81.5694
 20
45.4373
 11
-81.5772
 21
45.4033
  0
LINE
  8
0
 10
-81.5772
 20
45.4033
 11
-81.9906
 21
43.592
  0
LINE
  8
0
 10
-81.9906
 20
43.592
 11
-81.5772
 21
41.7806
  0
LINE
  8
0
 10
-81.5772
 20
41.7806
 11
-81.5694
 21
41.7467
  0
LINE
  8
0
 10
-81.5694
 20
41.7467
 11
-81.5477
 21
41.7194
  0
LINE
  8
0
 10
-81.5477
 20
41.7194
 11
-80.3893
 21
40.2668
  0
LINE
  8
0
 10
-80.3893
 20
40.2668
 11
-78.9606
 21
39.5788
  0
LINE
  8
0
 10
-78.9606
 20
39.5788
 11
-79.9626
 21
36.1075
  0
LINE
  8
0
 10
-79.9626
 20
36.1075
 11
-80.7262
 21
32.4207
  0
LINE
  8
0
 10
-80.7262
 20
32.4207
 11
-81.0166
 21
31.0184
  0
LINE
  8
0
 10
-81.0166
 20
31.0184
 11
-81.7519
 21
25.53
  0
LINE
  8
0
 10
-81.7519
 20
25.53
 11
-83.2683
 21
14.2113
  0
LINE
  8
0
 10
-83.2683
 20
14.2113
 11
-83.5104
 21
10.5334
  0
LINE
  8
0
 10
-83.5104
 20
10.5334
 11
-83.6278
 21
8.75
  0
LINE
  8
0
 10
-83.6278
 20
8.75
 11
-83.6278
 21
-8.75
  0
LINE
  8
0
 10
-83.6278
 20
-8.75
 11
-83.5104
 21
-10.5334
  0
LINE
  8
0
 10
-83.5104
 20
-10.5334
 11
-83.2683
 21
-14.2113
  0
LINE
  8
0
 10
-83.2683
 20
-14.2113
 11
-81.7519
 21
-25.53
  0
LINE
  8
0
 10
-81.7519
 20
-25.53
 11
-81.0166
 21
-31.0184
  0
LINE
  8
0
 10
-81.0166
 20
-31.0184
 11
-79.6959
 21
-34.2967
  0
LINE
  8
0
 10
-79.6959
 20
-34.2967
 11
-77.8158
 21
-38.9635
  0
LINE
  8
0
 10
-77.8158
 20
-38.9635
 11
-78.3902
 21
-39.4456
  0
LINE
  8
0
 10
-78.3902
 20
-39.4456
 11
-78.684
 21
-39.4456
  0
LINE
  8
0
 10
-78.684
 20
-39.4456
 11
-78.7154
 21
-39.4607
  0
LINE
  8
0
 10
-78.7154
 20
-39.4607
 11
-80.3893
 21
-40.2668
  0
LINE
  8
0
 10
-80.3893
 20
-40.2668
 11
-81.5477
 21
-41.7194
  0
LINE
  8
0
 10
-81.5477
 20
-41.7194
 11
-81.5694
 21
-41.7467
  0
LINE
  8
0
 10
-81.5694
 20
-41.7467
 11
-81.5772
 21
-41.7806
  0
LINE
  8
0
 10
-81.5772
 20
-41.7806
 11
-81.6729
 21
-42.2001
  0
LINE
  8
0
 10
-81.6729
 20
-42.2001
 11
-81.7552
 21
-42.2691
  0
LINE
  8
0
 10
-81.7552
 20
-42.2691
 11
-86.0693
 21
-45.889
  0
LINE
  8
0
 10
-86.0693
 20
-45.889
 11
-86.812
 21
-46.7947
  0
LINE
  8
0
 10
-86.812
 20
-46.7947
 11
-86.812
 21
-46.7948
  0
LINE
  8
0
 10
-86.812
 20
-46.7948
 11
-87.3252
 21
-47.4205
  0
LINE
  8
0
 10
-87.3252
 20
-47.4205
 11
-84.3565
 21
-54.8219
  0
LINE
  8
0
 10
-84.3565
 20
-54.8219
 11
-83.4458
 21
-57.0925
  0
LINE
  8
0
 10
-83.4458
 20
-57.0925
 11
-85.4939
 21
-59.714
  0
LINE
  8
0
 10
-85.4939
 20
-59.714
 11
-85.4941
 21
-59.7142
  0
LINE
  8
0
 10
-85.4941
 20
-59.7142
 11
-86.17
 21
-60.5793
  0
LINE
  8
0
 10
-86.17
 20
-60.5793
 11
-86.17
 21
-60.5793
  0
LINE
  8
0
 10
-86.17
 20
-60.5793
 11
-86.17
 21
-60.5793
  0
LINE
  8
0
 10
-86.17
 20
-60.5793
 11
-89.9849
 21
-67.4988
  0
LINE
  8
0
 10
-89.9849
 20
-67.4988
 11
-93.2131
 21
-73.3542
  0
LINE
  8
0
 10
-93.2131
 20
-73.3542
 11
-93.2131
 21
-73.3542
  0
LINE
  8
0
 10
-93.2131
 20
-73.3542
 11
-93.2728
 21
-73.4625
  0
LINE
  8
0
 10
-90.84
 20
-75.2083
 11
-80.7364
 21
-57.4239
  0
LINE
  8
0
 10
-80.7364
 20
-57.4239
 11
-80.7364
 21
-57.4239
  0
LINE
  8
0
 10
-80.7364
 20
-57.4239
 11
-80.7364
 21
-57.4239
  0
LINE
  8
0
 10
-80.7364
 20
-57.4239
 11
-80.7178
 21
-57.4001
  0
LINE
  8
0
 10
-80.7178
 20
-57.4001
 11
-80.4214
 21
-57.0206
  0
LINE
  8
0
 10
-80.4214
 20
-57.0206
 11
-80.4214
 21
-57.0206
  0
LINE
  8
0
 10
-80.4214
 20
-57.0206
 11
-80.3729
 21
-56.9586
  0
LINE
  8
0
 10
-80.3729
 20
-56.9586
 11
-80.3709
 21
-56.9561
  0
LINE
  8
0
 10
-80.3709
 20
-56.9561
 11
-83.3855
 21
-50.0634
  0
LINE
  8
0
 10
-83.3855
 20
-50.0634
 11
-84.4165
 21
-47.7061
  0
LINE
  8
0
 10
-84.4165
 20
-47.7061
 11
-81.9339
 21
-45.623
  0
LINE
  8
0
 10
-81.9339
 20
-45.623
 11
-81.9336
 21
-45.6228
  0
LINE
  8
0
 10
-81.9336
 20
-45.6228
 11
-81.5925
 21
-45.3365
  0
LINE
  8
0
 10
-81.5925
 20
-45.3365
 11
-81.5772
 21
-45.4033
  0
LINE
  8
0
 10
-81.5772
 20
-45.4033
 11
-81.5694
 21
-45.4373
  0
LINE
  8
0
 10
-81.5694
 20
-45.4373
 11
-81.5477
 21
-45.4645
  0
LINE
  8
0
 10
-81.5477
 20
-45.4645
 11
-80.3893
 21
-46.9171
  0
LINE
  8
0
 10
-80.3893
 20
-46.9171
 11
-78.7154
 21
-47.7232
  0
LINE
  8
0
 10
-78.7154
 20
-47.7232
 11
-78.684
 21
-47.7384
  0
LINE
  8
0
 10
-78.684
 20
-47.7384
 11
-76.7912
 21
-47.7384
  0
LINE
  8
0
 10
-76.7912
 20
-47.7384
 11
-76.7598
 21
-47.7232
  0
LINE
  8
0
 10
-76.7598
 20
-47.7232
 11
-75.0859
 21
-46.9171
  0
LINE
  8
0
 10
-75.0859
 20
-46.9171
 11
-73.9275
 21
-45.4645
  0
LINE
  8
0
 10
-73.9275
 20
-45.4645
 11
-73.9058
 21
-45.4373
  0
LINE
  8
0
 10
-73.9058
 20
-45.4373
 11
-73.898
 21
-45.4033
  0
LINE
  8
0
 10
-73.898
 20
-45.4033
 11
-73.4846
 21
-43.592
  0
LINE
  8
0
 10
-73.4846
 20
-43.592
 11
-73.898
 21
-41.7806
  0
LINE
  8
0
 10
-73.898
 20
-41.7806
 11
-73.9058
 21
-41.7467
  0
LINE
  8
0
 10
-73.9058
 20
-41.7467
 11
-73.9275
 21
-41.7194
  0
LINE
  8
0
 10
-73.9275
 20
-41.7194
 11
-75.0859
 21
-40.2668
  0
LINE
  8
0
 10
-75.0859
 20
-40.2668
 11
-75.4728
 21
-40.0805
  0
LINE
  8
0
 10
-75.4728
 20
-40.0805
 11
-75.237
 21
-39.793
  0
LINE
  8
0
 10
-75.237
 20
-39.793
 11
-74.535
 21
-38.937
  0
LINE
  8
0
 10
-74.535
 20
-38.937
 11
-74.535
 21
-38.937
  0
LINE
  8
0
 10
-74.535
 20
-38.937
 11
-75.6895
 21
-36.8242
  0
LINE
  8
0
 10
-75.6895
 20
-36.8242
 11
-78.9166
 21
-30.9184
  0
LINE
  8
0
 10
-78.9166
 20
-30.9184
 11
-79.3817
 21
-27.4471
  0
LINE
  8
0
 10
-79.3817
 20
-27.4471
 11
-72.2647
 21
-27.4471
  0
LINE
  8
0
 10
-72.2647
 20
-27.4471
 11
-72.2647
 21
25.4471
  0
LINE
  8
0
 10
-72.2647
 20
25.4471
 11
-79.6496
 21
25.4471
  0
LINE
  8
0
 10
-79.6496
 20
25.4471
 11
-78.9166
 21
30.9184
  0
LINE
  8
0
 10
-78.9166
 20
30.9184
 11
-78.6515
 21
32.1984
  0
LINE
  8
0
 10
-78.6515
 20
32.1984
 11
-77.8626
 21
36.0075
  0
LINE
  8
0
 10
-77.8626
 20
36.0075
 11
-76.8701
 21
39.4456
  0
LINE
  8
0
 10
-76.8701
 20
39.4456
 11
-76.7912
 21
39.4456
  0
LINE
  8
0
 10
-76.7912
 20
39.4456
 11
-76.7598
 21
39.4607
  0
LINE
  8
0
 10
-76.7598
 20
39.4607
 11
-75.0859
 21
40.2668
  0
LINE
  8
0
 10
-75.0859
 20
40.2668
 11
-73.9275
 21
41.7194
  0
LINE
  8
0
 10
-73.9275
 20
41.7194
 11
-73.9058
 21
41.7467
  0
LINE
  8
0
 10
-73.9058
 20
41.7467
 11
-73.898
 21
41.7806
  0
LINE
  8
0
 10
-73.898
 20
41.7806
 11
-73.4846
 21
43.592
  0
LINE
  8
0
 10
-73.4846
 20
43.592
 11
-73.898
 21
45.4033
  0
LINE
  8
0
 10
-73.898
 20
45.4033
 11
-73.9058
 21
45.4373
  0
LINE
  8
0
 10
-73.9058
 20
45.4373
 11
-73.9275
 21
45.4645
  0
LINE
  8
0
 10
-73.9275
 20
45.4645
 11
-74.8123
 21
46.5741
  0
LINE
  8
0
 10
-74.8123
 20
46.5741
 11
-74.6067
 21
47.2865
  0
LINE
  8
0
 10
-74.6067
 20
47.2865
 11
-73.5126
 21
51.0764
  0
LINE
  8
0
 10
-73.5126
 20
51.0764
 11
-68.5126
 21
56.0764
  0
LINE
  8
0
 10
-68.5126
 20
56.0764
 11
-63.3903
 21
59.8548
  0
LINE
  8
0
 10
-63.3903
 20
59.8548
 11
-62.0141
 21
60.8699
  0
LINE
  8
0
 10
-62.0141
 20
60.8699
 11
-49.7709
 21
60.8699
  0
LINE
  8
0
 10
-49.7709
 20
60.8699
 11
-47.0506
 21
60.8699
  0
LINE
  8
0
 10
-47.0506
 20
60.8699
 11
-44.7574
 21
60.8699
  0
LINE
  8
0
 10
-44.7574
 20
60.8699
 11
-44.1277
 21
60.8699
  0
LINE
  8
0
 10
-44.1277
 20
60.8699
 11
-31.9395
 21
60.8699
  0
LINE
  8
0
 10
-31.9395
 20
60.8699
 11
-28.4305
 21
60.8699
  0
LINE
  8
0
 10
-28.4305
 20
60.8699
 11
-27.8455
 21
61.7481
  0
LINE
  8
0
 10
-27.8455
 20
61.7481
 11
-26.552
 21
63.6899
  0
LINE
  8
0
 10
-26.552
 20
63.6899
 11
-15.3817
 21
63.6899
  0
LINE
  8
0
 10
-15.3817
 20
63.6899
 11
-15.3578
 21
63.6899
  0
LINE
  8
0
 10
-15.3578
 20
63.6899
 11
-10.3893
 21
63.6899
  0
LINE
  8
0
 10
-10.3893
 20
63.6899
 11
-7.72305
 21
61.9427
  0
LINE
  8
0
 10
-7.72305
 20
61.9427
 11
-6.08605
 21
60.8699
  0
LINE
  8
0
 10
-6.08605
 20
60.8699
 11
-2.20554
 21
60.8699
  0
LINE
  8
0
 10
-2.20554
 20
60.8699
 11
-1.21784
 21
59.6314
  0
LINE
  8
0
 10
-1.21784
 20
59.6314
 11
0.456089
 21
58.8253
  0
LINE
  8
0
 10
0.456089
 20
58.8253
 11
0.487486
 21
58.8101
  0
LINE
  8
0
 10
0.487486
 20
58.8101
 11
2.38026
 21
58.8101
  0
LINE
  8
0
 10
2.38026
 20
58.8101
 11
2.41165
 21
58.8253
  0
LINE
  8
0
 10
2.41165
 20
58.8253
 11
4.08558
 21
59.6314
  0
LINE
  8
0
 10
4.08558
 20
59.6314
 11
5.07328
 21
60.8699
  0
LINE
  8
0
 10
5.07328
 20
60.8699
 11
10.5345
 21
60.8699
  0
LINE
  8
0
 10
10.5345
 20
60.8699
 11
11.6678
 21
58.0147
  0
LINE
  8
0
 10
11.6678
 20
58.0147
 11
15.2974
 21
48.8699
  0
LINE
  8
0
 10
15.2974
 20
48.8699
 11
26.694
 21
48.8699
  0
LINE
  8
0
 10
26.694
 20
48.8699
 11
32.3964
 21
48.8699
  0
LINE
  8
0
 10
32.3964
 20
48.8699
 11
34.4467
 21
48.8699
  0
LINE
  8
0
 10
34.4467
 20
48.8699
 11
35.6727
 21
48.8699
  0
LINE
  8
0
 10
35.6727
 20
48.8699
 11
46.3792
 21
48.8699
  0
LINE
  8
0
 10
46.3792
 20
48.8699
 11
52.8919
 21
48.8699
  0
LINE
  8
0
 10
52.8919
 20
48.8699
 11
54.8634
 21
48.8699
  0
LINE
  8
0
 10
54.8634
 20
48.8699
 11
56.2211
 21
48.8699
  0
LINE
  8
0
 10
56.2211
 20
48.8699
 11
73.4211
 21
48.8699
  0
LINE
  8
0
 10
73.4211
 20
48.8699
 11
75.6594
 21
46.9315
  0
LINE
  8
0
 10
75.6594
 20
46.9315
 11
78.4211
 21
44.5398
  0
LINE
  8
0
 10
78.4211
 20
44.5398
 11
78.4211
 21
36.2884
  0
LINE
  8
0
 10
78.4211
 20
36.2884
 11
78.4211
 21
29.6202
  0
LINE
  8
0
 10
78.4211
 20
29.6202
 11
78.4211
 21
29.4264
  0
LINE
  8
0
 10
78.4211
 20
29.4264
 11
77.4627
 21
21.9771
  0
LINE
  8
0
 10
77.4627
 20
21.9771
 11
77.4555
 21
21.8936
  0
LINE
  8
0
 10
77.4555
 20
21.8936
 11
77.1533
 21
18.3906
  0
LINE
  8
0
 10
77.1533
 20
18.3906
 11
75.8694
 21
17.7723
  0
LINE
  8
0
 10
75.8694
 20
17.7723
 11
74.711
 21
16.3197
  0
LINE
  8
0
 10
74.711
 20
16.3197
 11
74.6893
 21
16.2925
  0
LINE
  8
0
 10
74.6893
 20
16.2925
 11
74.6815
 21
16.2585
  0
LINE
  8
0
 10
74.6815
 20
16.2585
 11
74.2681
 21
14.4471
  0
LINE
  8
0
 10
74.2681
 20
14.4471
 11
74.6815
 21
12.6358
  0
LINE
  8
0
 10
74.6815
 20
12.6358
 11
74.6893
 21
12.6018
  0
LINE
  8
0
 10
74.6893
 20
12.6018
 11
74.711
 21
12.5746
  0
LINE
  8
0
 10
74.711
 20
12.5746
 11
75.8694
 21
11.122
  0
LINE
  8
0
 10
75.8694
 20
11.122
 11
76.5
 21
10.8183
  0
LINE
  8
0
 10
76.5
 20
10.8183
 11
75.9131
 21
4.01523
  0
LINE
  8
0
 10
75.9131
 20
4.01523
 11
75.9086
 21
3.9633
  0
LINE
  8
0
 10
75.9086
 20
3.9633
 11
75.7807
 21
1.04823
  0
LINE
  8
0
 10
75.7807
 20
1.04823
 11
75.5898
 21
-3.3
  0
LINE
  8
0
 10
75.5898
 20
-3.3
 11
75.5898
 21
-20.7
  0
LINE
  8
0
 10
75.5898
 20
-20.7
 11
75.7807
 21
-25.0482
  0
LINE
  8
0
 10
75.7807
 20
-25.0482
 11
75.9086
 21
-27.9633
  0
LINE
  8
0
 10
75.9086
 20
-27.9633
 11
75.9131
 21
-28.0152
  0
LINE
  8
0
 10
75.9131
 20
-28.0152
 11
77.4537
 21
-45.8736
  0
LINE
  8
0
 10
77.4537
 20
-45.8736
 11
73.4211
 21
-50.4579
  0
LINE
  8
0
 10
73.4211
 20
-50.4579
 11
56.1211
 21
-50.4579
  0
LINE
  8
0
 10
56.1211
 20
-50.4579
 11
52.9803
 21
-50.5485
  0
LINE
  8
0
 10
52.9803
 20
-50.5485
 11
52.4618
 21
-50.5485
  0
LINE
  8
0
 10
52.4618
 20
-50.5485
 11
51.7084
 21
-50.5485
  0
LINE
  8
0
 10
51.7084
 20
-50.5485
 11
38.9912
 21
-50.5485
  0
LINE
  8
0
 10
38.9912
 20
-50.5485
 11
34.508
 21
-50.5485
  0
LINE
  8
0
 10
34.508
 20
-50.5485
 11
31.3733
 21
-50.5485
  0
LINE
  8
0
 10
31.3733
 20
-50.5485
 11
30.0905
 21
-50.5485
  0
LINE
  8
0
 10
30.0905
 20
-50.5485
 11
20.136
 21
-50.5485
  0
LINE
  8
0
 10
20.136
 20
-50.5485
 11
13.0246
 21
-50.5485
  0
LINE
  8
0
 10
13.0246
 20
-50.5485
 11
12.781
 21
-50.9244
  0
LINE
  8
0
 10
12.781
 20
-50.9244
 11
12.4375
 21
-51.4543
  0
LINE
  8
0
 10
12.4375
 20
-51.4543
 11
12.4408
 21
-51.5242
  0
LINE
  8
0
 10
12.4408
 20
-51.5242
 11
12.5004
 21
-52.8051
  0
LINE
  8
0
 10
12.5004
 20
-52.8051
 11
12.5274
 21
-53.3862
  0
LINE
  8
0
 10
12.5274
 20
-53.3862
 11
12.5306
 21
-53.4536
  0
LINE
  8
0
 10
12.5306
 20
-53.4536
 11
12.5319
 21
-53.4828
  0
LINE
  8
0
 10
12.5319
 20
-53.4828
 11
12.5319
 21
-53.4828
  0
LINE
  8
0
 10
12.5319
 20
-53.4828
 11
12.6007
 21
-53.4828
  0
LINE
  8
0
 10
12.6007
 20
-53.4828
 11
16.4304
 21
-53.4828
  0
LINE
  8
0
 10
16.4304
 20
-53.4828
 11
15.5997
 21
-55.2924
  0
LINE
  8
0
 10
15.5997
 20
-55.2924
 11
13.0393
 21
-60.8699
  0
LINE
  8
0
 10
13.0393
 20
-60.8699
 11
6.64344
 21
-60.8699
  0
LINE
  8
0
 10
6.64344
 20
-60.8699
 11
-6.08605
 21
-60.8699
  0
LINE
  8
0
 10
-6.08605
 20
-60.8699
 11
-10.0103
 21
-61.9753
  0
LINE
  8
0
 10
-10.0103
 20
-61.9753
 11
-14.9394
 21
-63.3637
  0
LINE
  8
0
 10
-14.9394
 20
-63.3637
 11
-15.2111
 21
-63.023
  0
LINE
  8
0
 10
-15.2111
 20
-63.023
 11
-16.885
 21
-62.2169
  0
LINE
  8
0
 10
-16.885
 20
-62.2169
 11
-16.9164
 21
-62.2018
  0
LINE
  8
0
 10
-16.9164
 20
-62.2018
 11
-18.8092
 21
-62.2018
  0
LINE
  8
0
 10
-18.8092
 20
-62.2018
 11
-18.8406
 21
-62.2169
  0
LINE
  8
0
 10
-18.8406
 20
-62.2169
 11
-20.5145
 21
-63.023
  0
LINE
  8
0
 10
-20.5145
 20
-63.023
 11
-21.6729
 21
-64.4756
  0
LINE
  8
0
 10
-21.6729
 20
-64.4756
 11
-21.6946
 21
-64.5028
  0
LINE
  8
0
 10
-21.6946
 20
-64.5028
 11
-21.7024
 21
-64.5368
  0
LINE
  8
0
 10
-21.7024
 20
-64.5368
 11
-22.1158
 21
-66.3481
  0
LINE
  8
0
 10
-22.1158
 20
-66.3481
 11
-22.0346
 21
-66.704
  0
LINE
  8
0
 10
-22.0346
 20
-66.704
 11
-27.7542
 21
-70.421
  0
LINE
  8
0
 10
-27.7542
 20
-70.421
 11
-27.7545
 21
-70.4212
  0
LINE
  8
0
 10
-27.7545
 20
-70.4212
 11
-32.1398
 21
-73.271
  0
LINE
  8
0
 10
-32.1398
 20
-73.271
 11
-33.0149
 21
-73.939
  0
LINE
  8
0
 10
-33.0149
 20
-73.939
 11
-33.7141
 21
-74.4727
  0
LINE
  8
0
 10
-33.7141
 20
-74.4727
 11
-33.736
 21
-74.497
  0
LINE
  8
0
 10
-33.736
 20
-74.497
 11
-39.5424
 21
-80.9456
  0
LINE
  8
0
 10
-39.5424
 20
-80.9456
 11
-43.3463
 21
-85.1703
  0
LINE
  8
0
 10
-43.3463
 20
-85.1703
 11
-43.3463
 21
-85.1703
  0
LINE
  8
0
 10
-43.3463
 20
-85.1703
 11
-43.3665
 21
-85.1928
  0
LINE
  8
0
 10
-43.3665
 20
-85.1928
 11
-42.6985
 21
-88.2928
  0
LINE
  8
0
 10
-42.6985
 20
-88.2928
 11
-42.3539
 21
-89.8924
  0
LINE
  8
0
 10
-42.3539
 20
-89.8924
 11
-44.9583
 21
-93.477
  0
LINE
  8
0
 10
-44.9583
 20
-93.477
 11
-49.9997
 21
-96.8168
  0
LINE
  8
0
 10
-49.9997
 20
-96.8168
 11
-56.2541
 21
-100.96
  0
LINE
  8
0
 10
-56.2541
 20
-100.96
 11
-58.9148
 21
-100.996
  0
LINE
  8
0
 10
-58.9148
 20
-100.996
 11
-61.6883
 21
-98.5697
  0
LINE
  8
0
 10
-61.6883
 20
-98.5697
 11
-72.1896
 21
-89.3824
  0
LINE
  8
0
 10
-72.1896
 20
-89.3824
 11
-72.2536
 21
-89.3359
  0
LINE
  8
0
 10
-72.2536
 20
-89.3359
 11
-72.3372
 21
-89.2752
  0
LINE
  8
0
 10
-72.3372
 20
-89.2752
 11
-72.3704
 21
-89.2552
  0
LINE
  8
0
 10
-72.3704
 20
-89.2552
 11
-77.3468
 21
-87.8084
  0
LINE
  8
0
 10
-77.3468
 20
-87.8084
 11
-77.3468
 21
-87.8084
  0
LINE
  8
0
 10
-77.3468
 20
-87.8084
 11
-87.8629
 21
-79.1953
  0
LINE
  8
0
 10
-87.8629
 20
-79.1953
 11
-90.677
 21
-76.8904
  0
LINE
  8
0
 10
-90.677
 20
-76.8904
 11
-90.84
 21
-75.2083
  0
LINE
  8
0
 10
-81.5278
 20
-8.65
 11
-81.5278
 21
8.65
  0
LINE
  8
0
 10
-81.5278
 20
8.65
 11
-81.4224
 21
10.252
  0
LINE
  8
0
 10
-81.4224
 20
10.252
 11
-81.2647
 21
12.6477
  0
LINE
  8
0
 10
-81.2647
 20
12.6477
 11
-81.2647
 21
-12.6477
  0
LINE
  8
0
 10
-81.2647
 20
-12.6477
 11
-81.4224
 21
-10.252
  0
LINE
  8
0
 10
-81.4224
 20
-10.252
 11
-81.5278
 21
-8.65
  0
LINE
  8
0
 10
-79.4376
 20
-43.592
 11
-78.5876
 21
-42.1197
  0
LINE
  8
0
 10
-78.5876
 20
-42.1197
 11
-76.8876
 21
-42.1197
  0
LINE
  8
0
 10
-76.8876
 20
-42.1197
 11
-76.0376
 21
-43.592
  0
LINE
  8
0
 10
-76.0376
 20
-43.592
 11
-76.8876
 21
-45.0642
  0
LINE
  8
0
 10
-76.8876
 20
-45.0642
 11
-78.5876
 21
-45.0642
  0
LINE
  8
0
 10
-78.5876
 20
-45.0642
 11
-79.4376
 21
-43.592
  0
LINE
  8
0
 10
-79.4376
 20
43.592
 11
-78.5876
 21
45.0642
  0
LINE
  8
0
 10
-78.5876
 20
45.0642
 11
-76.8876
 21
45.0642
  0
LINE
  8
0
 10
-76.8876
 20
45.0642
 11
-76.0376
 21
43.592
  0
LINE
  8
0
 10
-76.0376
 20
43.592
 11
-76.8876
 21
42.1197
  0
LINE
  8
0
 10
-76.8876
 20
42.1197
 11
-78.5876
 21
42.1197
  0
LINE
  8
0
 10
-78.5876
 20
42.1197
 11
-79.4376
 21
43.592
  0
LINE
  8
0
 10
-19.5628
 20
-66.3481
 11
-18.7128
 21
-64.8759
  0
LINE
  8
0
 10
-18.7128
 20
-64.8759
 11
-17.0128
 21
-64.8759
  0
LINE
  8
0
 10
-17.0128
 20
-64.8759
 11
-16.1628
 21
-66.3481
  0
LINE
  8
0
 10
-16.1628
 20
-66.3481
 11
-17.0128
 21
-67.8204
  0
LINE
  8
0
 10
-17.0128
 20
-67.8204
 11
-18.7128
 21
-67.8204
  0
LINE
  8
0
 10
-18.7128
 20
-67.8204
 11
-19.5628
 21
-66.3481
  0
LINE
  8
0
 10
-0.266129
 20
62.9565
 11
0.583871
 21
64.4288
  0
LINE
  8
0
 10
0.583871
 20
64.4288
 11
2.28387
 21
64.4288
  0
LINE
  8
0
 10
2.28387
 20
64.4288
 11
3.13387
 21
62.9565
  0
LINE
  8
0
 10
3.13387
 20
62.9565
 11
2.28387
 21
61.4843
  0
LINE
  8
0
 10
2.28387
 20
61.4843
 11
0.583871
 21
61.4843
  0
LINE
  8
0
 10
0.583871
 20
61.4843
 11
-0.266129
 21
62.9565
  0
LINE
  8
0
 10
76.8211
 20
14.4471
 11
77.6711
 21
15.9194
  0
LINE
  8
0
 10
77.6711
 20
15.9194
 11
79.3711
 21
15.9194
  0
LINE
  8
0
 10
79.3711
 20
15.9194
 11
80.2211
 21
14.4471
  0
LINE
  8
0
 10
80.2211
 20
14.4471
 11
79.3711
 21
12.9749
  0
LINE
  8
0
 10
79.3711
 20
12.9749
 11
77.6711
 21
12.9749
  0
LINE
  8
0
 10
77.6711
 20
12.9749
 11
76.8211
 21
14.4471
  0
ENDSEC
  0
SECTION
  2
OBJECTS
  0
DICTIONARY
  0
ENDSEC
  0
EOF
