<?xml version="1.0" standalone="no"?>
<!DOCTYPE svg PUBLIC "-//W3C//DTD SVG 1.1//EN" "http://www.w3.org/Graphics/SVG/1.1/DTD/svg11.dtd">
<svg width="153" height="149" viewBox="-93 -45 153 149" xmlns="http://www.w3.org/2000/svg" version="1.1">
<title>OpenSCAD Model</title>
<path d="
M -92.1624,72.2815 L -91.991,73.9441 L -91.4861,78.8412 L -91.438,78.8807 L -91.4086,78.9048 L -91.4086,78.9048
 L -83.6296,85.2933 L -78.0504,89.8751 L -78.0157,89.9036 L -75.6463,91.0606 L -72.8916,91.3632 L -72.8916,91.3632
 L -64.3512,98.9144 L -59.624,103.094 L -59.624,103.094 L -59.5469,103.162 L -58.122,103.156 L -50.9109,103.121
 L -50.8879,103.106 L -50.8767,103.099 L -48.8355,101.791 L -46.604,100.36 L -45.1612,98.9115 L -42.1925,95.93
 L -40.759,93.9569 L -38.139,90.3507 L -39.0042,86.9839 L -39.4065,85.4182 L -35.4783,81.0555 L -30.2065,75.2005
 L -23.0732,70.4415 L -23.0729,70.4413 L -20.5719,68.7727 L -19.8537,69.6733 L -18.1797,70.4794 L -18.1483,70.4945
 L -16.2556,70.4945 L -16.2242,70.4794 L -14.5502,69.6733 L -13.3918,68.2207 L -13.3701,68.1935 L -13.3624,68.1595
 L -12.9489,66.3481 L -13.0259,66.0109 L -6.02428,64.4386 L 3.0637,64.4386 L 13.7577,64.4386 L 14.2616,63.497
 L 14.6943,62.6886 L 17.8085,56.7042 L 19.4848,53.4828 L 28.3933,53.4828 L 28.3933,53.4828 L 28.7511,53.4612
 L 29.1738,53.4357 L 29.4915,53.4202 L 33.9822,53.2007 L 50.7102,52.5769 L 51.3285,52.5174 L 51.4522,52.5055
 L 57.1571,45.489 L 57.4921,45.0771 L 57.0195,39.7687 L 55.9029,27.2261 L 55.7255,23.3026 L 55.6033,20.6
 L 55.6033,16.1464 L 55.7477,16.1464 L 55.7791,16.1313 L 57.4531,15.3251 L 58.6115,13.8726 L 58.6332,13.8453
 L 58.6409,13.8113 L 59.0544,12 L 58.6409,10.1887 L 58.6332,10.1547 L 58.6115,10.1274 L 57.4531,8.67486
 L 55.7791,7.86873 L 55.7477,7.85361 L 55.6033,7.85361 L 55.6033,3.4 L 55.7255,0.697358 L 55.9029,-3.22605
 L 57.0195,-15.7687 L 57.4921,-21.0771 L 57.1571,-21.489 L 51.4522,-28.5055 L 51.3285,-28.5174 L 50.7102,-28.5769
 L 33.9822,-29.2007 L 29.4915,-29.4202 L 29.1738,-29.4357 L 28.7511,-29.4612 L 28.3933,-29.4828 L 28.3933,-29.4828
 L 12.6849,-29.4828 L 8.45922,-37.9749 L 7.16451,-40.5769 L 6.25594,-41.3647 L 6.15079,-41.3734 L 5.32625,-41.4417
 L 4.83035,-41.4828 L 4.83034,-41.4828 L 1.37803,-41.4828 L 1.376,-41.4917 L 1.36825,-41.5256 L 1.34652,-41.5529
 L 0.188123,-43.0055 L -1.48581,-43.8116 L -1.51721,-43.8267 L -3.40998,-43.8267 L -3.44137,-43.8116 L -5.1153,-43.0055
 L -6.2737,-41.5529 L -6.29543,-41.5256 L -6.30318,-41.4917 L -6.30521,-41.4828 L -10.3335,-41.4828 L -15.0456,-43.7829
 L -15.0457,-43.7829 L -16.1107,-44.3028 L -19.0633,-44.3028 L -19.1792,-44.3028 L -32.0789,-44.3028 L -32.1274,-44.3028
 L -33.4688,-42.9676 L -34.9605,-41.4828 L -44.1345,-41.4828 L -50.2089,-41.4828 L -53.027,-41.4828 L -53.0553,-41.4828
 L -54.2435,-41.4828 L -64.6737,-41.4828 L -68.776,-41.4828 L -71.4264,-38.789 L -72.1846,-38.0184 L -79.1846,-31.0184
 L -79.8132,-26.7112 L -81.3074,-26.7112 L -81.3388,-26.6961 L -83.0127,-25.89 L -84.1711,-24.4374 L -84.1928,-24.4102
 L -84.2006,-24.3762 L -84.614,-22.5649 L -84.2006,-20.7535 L -84.1928,-20.7195 L -84.1711,-20.6923 L -83.0127,-19.2397
 L -81.3388,-18.4336 L -81.3074,-18.4185 L -81.0234,-18.4185 L -81.6374,-14.2113 L -81.9138,-10.3556 L -82.029,-8.75
 L -82.029,8.75 L -81.9138,10.3556 L -81.6374,14.2113 L -80.2265,23.8793 L -80.2265,27.4471 L -79.7058,27.4471
 L -79.1846,31.0184 L -78.3011,34.1095 L -76.9218,38.9352 L -81.1869,42.5141 L -81.1872,42.5143 L -85.209,45.889
 L -85.209,45.889 L -85.89,46.7194 L -86.4649,47.4205 L -83.808,54.0445 L -82.5855,57.0925 L -85.335,60.6116
 L -85.3351,60.6118 L -86.6717,62.3226 L -86.6717,62.3226 L -86.6717,62.3226 L -89.6212,67.6723 L -92.1027,72.1733
 L -92.1027,72.1733 z
M -89.6955,74.054 L -81.2381,59.1671 L -80.9471,58.7946 L -79.5531,57.0104 L -79.5107,56.9561 L -82.2262,50.7472
 L -83.5562,47.7061 L -81.2977,45.811 L -81.2975,45.8108 L -79.6747,44.4492 L -79.4569,45.4033 L -79.4492,45.4373
 L -79.4275,45.4645 L -78.2691,46.9171 L -76.5951,47.7232 L -76.5637,47.7384 L -74.671,47.7384 L -74.6396,47.7232
 L -72.9656,46.9171 L -71.8072,45.4645 L -71.7855,45.4373 L -71.7778,45.4033 L -71.3643,43.592 L -71.7778,41.7806
 L -71.7855,41.7467 L -71.8072,41.7194 L -72.9656,40.2668 L -74.2558,39.6455 L -73.6747,38.937 L -73.6747,38.937
 L -74.5019,36.9918 L -77.0846,30.9184 L -77.5912,27.4471 L -71.2265,27.4471 L -71.2265,-25.4471 L -77.3561,-25.4471
 L -77.7093,-25.89 L -77.8113,-25.9391 L -77.739,-26.4344 L -77.0846,-30.9184 L -72.0846,-35.9184 L -71.0398,-36.4749
 L -67.1469,-38.5485 L -55.7221,-38.5485 L -52.66,-38.5485 L -49.8437,-38.5485 L -48.8375,-38.5485 L -37.8373,-38.5485
 L -33.5402,-38.5485 L -31.8715,-40.3491 L -30.9268,-41.3685 L -22.4246,-41.3685 L -22.3952,-41.3685 L -15.0941,-41.3685
 L -11.9417,-39.7645 L -11.9416,-39.7644 L -9.55182,-38.5485 L -9.55182,-38.5485 L -6.45827,-38.5485 L -6.30318,-37.869
 L -6.29543,-37.835 L -6.2737,-37.8078 L -5.1153,-36.3552 L -3.44137,-35.5491 L -3.40998,-35.5339 L -1.51721,-35.5339
 L -1.48581,-35.5491 L 0.188123,-36.3552 L 1.34652,-37.8078 L 1.36825,-37.835 L 1.376,-37.869 L 1.53109,-38.5485
 L 6.26746,-38.5485 L 6.35144,-38.3487 L 7.2484,-36.803 L 10.6431,-30.3356 L 12.1554,-27.4543 L 12.338,-27.2368
 L 12.9159,-26.5485 L 19.5457,-26.5485 L 29.7924,-26.5485 L 30.6834,-26.5485 L 32.7293,-26.5485 L 33.4799,-26.4581
 L 33.8812,-26.4097 L 36.4673,-26.1721 L 51.3512,-24.8044 L 51.3512,-24.8044 L 54.4028,-21.0887 L 53.5801,-11.219
 L 52.9232,-3.33717 L 52.9232,-3.33717 L 52.9146,-3.23396 L 52.799,-0.503072 L 52.638,3.3 L 52.638,8.43968
 L 52.1496,8.67486 L 50.9912,10.1274 L 50.9695,10.1547 L 50.9618,10.1887 L 50.5483,12 L 50.9618,13.8113
 L 50.9695,13.8453 L 50.9912,13.8726 L 52.1496,15.3251 L 52.638,15.5603 L 52.638,20.7 L 52.799,24.5031
 L 52.9146,27.234 L 52.9232,27.3372 L 52.9232,27.3372 L 53.5801,35.219 L 54.4028,45.0887 L 51.3512,48.8044
 L 51.3512,48.8044 L 36.4673,50.1721 L 33.8812,50.4097 L 33.4799,50.4581 L 32.7293,50.5485 L 30.6834,50.5485
 L 29.7924,50.5485 L 19.5457,50.5485 L 12.9159,50.5485 L 12.338,51.2368 L 12.1554,51.4543 L 12.1568,51.4775
 L 12.2422,52.8945 L 12.2463,52.9627 L 12.2761,53.4568 L 12.2777,53.4828 L 12.2777,53.4828 L 12.349,53.4828
 L 16.1843,53.4828 L 14.817,56.7727 L 13.1143,60.8699 L 7.09058,60.8699 L -5.5072,60.8699 L -9.16288,61.9237
 L -14.256,63.3919 L -14.5502,63.023 L -16.2242,62.2169 L -16.2556,62.2018 L -18.1483,62.2018 L -18.1797,62.2169
 L -19.8537,63.023 L -21.0121,64.4756 L -21.0338,64.5028 L -21.0415,64.5368 L -21.455,66.3481 L -21.348,66.8169
 L -23.2471,68.051 L -31.2796,73.271 L -32.1993,73.973 L -32.8539,74.4727 L -32.8745,74.4957 L -38.8974,81.1847
 L -42.4829,85.1668 L -42.4829,85.1668 L -42.5062,85.1928 L -42.0799,87.1714 L -41.4936,89.8924 L -44.8804,94.5539
 L -45.5,95.4067 L -48.9246,97.6755 L -53.778,100.891 L -57.4799,100.941 L -61.3625,97.5439 L -70.8212,89.2688
 L -70.8907,89.208 L -71.7778,88.7744 L -76.1192,87.5122 L -85.157,80.1099 L -89.4494,76.5942 z
M -82.061,-22.5649 L -81.211,-24.0371 L -79.511,-24.0371 L -78.661,-22.5649 L -79.511,-21.0926 L -81.211,-21.0926
 z
M -77.3173,43.592 L -76.4673,42.1197 L -74.7673,42.1197 L -73.9173,43.592 L -74.7673,45.0642 L -76.4673,45.0642
 z
M -18.9019,66.3481 L -18.0519,64.8759 L -16.3519,64.8759 L -15.5019,66.3481 L -16.3519,67.8204 L -18.0519,67.8204
 z
M -4.16359,-39.6803 L -3.31359,-41.1526 L -1.61359,-41.1526 L -0.763591,-39.6803 L -1.61359,-38.2081 L -3.31359,-38.2081
 z
M 53.1013,12 L 53.9513,10.5278 L 55.6513,10.5278 L 56.5013,12 L 55.6513,13.4722 L 53.9513,13.4722
 z
" stroke="black" fill="lightgray" stroke-width="0.5"/></svg>
