  0
SECTION
  2
BLOCKS
  0
ENDSEC
  0
SECTION
  2
ENTITIES
  0
LINE
  8
0
 10
-72.9985
 20
-68.2596
 11
-72.5801
 21
-70.3607
  0
LINE
  8
0
 10
-72.5801
 20
-70.3607
 11
-71.1985
 21
-77.298
  0
LINE
  8
0
 10
-71.1985
 20
-77.298
 11
-61.0876
 21
-85.8717
  0
LINE
  8
0
 10
-61.0876
 20
-85.8717
 11
-58.0253
 21
-88.4684
  0
LINE
  8
0
 10
-58.0253
 20
-88.4684
 11
-58.008
 21
-88.4831
  0
LINE
  8
0
 10
-58.008
 20
-88.4831
 11
-57.9491
 21
-88.533
  0
LINE
  8
0
 10
-57.9491
 20
-88.533
 11
-56.0936
 21
-89.1795
  0
LINE
  8
0
 10
-56.0936
 20
-89.1795
 11
-50.4662
 21
-91.1403
  0
LINE
  8
0
 10
-50.4662
 20
-91.1403
 11
-41.5153
 21
-100.053
  0
LINE
  8
0
 10
-41.5153
 20
-100.053
 11
-38.5546
 21
-103.001
  0
LINE
  8
0
 10
-38.5546
 20
-103.001
 11
-38.539
 21
-103.016
  0
LINE
  8
0
 10
-38.539
 20
-103.016
 11
-32.1311
 21
-103.059
  0
LINE
  8
0
 10
-32.1311
 20
-103.059
 11
-30.2622
 21
-103.072
  0
LINE
  8
0
 10
-30.2622
 20
-103.072
 11
-29.8659
 21
-102.877
  0
LINE
  8
0
 10
-29.8659
 20
-102.877
 11
-28.4047
 21
-102.157
  0
LINE
  8
0
 10
-28.4047
 20
-102.157
 11
-28.4047
 21
-102.157
  0
LINE
  8
0
 10
-28.4047
 20
-102.157
 11
-26.88
 21
-100.058
  0
LINE
  8
0
 10
-26.88
 20
-100.058
 11
-26.8799
 21
-100.058
  0
LINE
  8
0
 10
-26.8799
 20
-100.058
 11
-19.8272
 21
-90.3507
  0
LINE
  8
0
 10
-19.8272
 20
-90.3507
 11
-19.8272
 21
-90.3507
  0
LINE
  8
0
 10
-19.8272
 20
-90.3507
 11
-20.0517
 21
-89.4773
  0
LINE
  8
0
 10
-20.0517
 20
-89.4773
 11
-21.0948
 21
-85.4182
  0
LINE
  8
0
 10
-21.0948
 20
-85.4182
 11
-19.689
 21
-83.8568
  0
LINE
  8
0
 10
-19.689
 20
-83.8568
 11
-19.6888
 21
-83.8567
  0
LINE
  8
0
 10
-19.6888
 20
-83.8567
 11
-11.8947
 21
-75.2004
  0
LINE
  8
0
 10
-11.8947
 20
-75.2004
 11
-1.77755
 21
-68.4507
  0
LINE
  8
0
 10
-1.77755
 20
-68.4507
 11
0.000641487
 21
-67.2644
  0
LINE
  8
0
 10
0.000641487
 20
-67.2644
 11
1.11887
 21
-68.6666
  0
LINE
  8
0
 10
1.11887
 20
-68.6666
 11
2.7928
 21
-69.4728
  0
LINE
  8
0
 10
2.7928
 20
-69.4728
 11
2.8242
 21
-69.4879
  0
LINE
  8
0
 10
2.8242
 20
-69.4879
 11
4.71697
 21
-69.4879
  0
LINE
  8
0
 10
4.71697
 20
-69.4879
 11
4.74837
 21
-69.4728
  0
LINE
  8
0
 10
4.74837
 20
-69.4728
 11
6.4223
 21
-68.6666
  0
LINE
  8
0
 10
6.4223
 20
-68.6666
 11
7.58069
 21
-67.214
  0
LINE
  8
0
 10
7.58069
 20
-67.214
 11
7.60242
 21
-67.1868
  0
LINE
  8
0
 10
7.60242
 20
-67.1868
 11
7.61018
 21
-67.1528
  0
LINE
  8
0
 10
7.61018
 20
-67.1528
 11
7.96811
 21
-65.5846
  0
LINE
  8
0
 10
7.96811
 20
-65.5846
 11
13.6402
 21
-64.4386
  0
LINE
  8
0
 10
13.6402
 20
-64.4386
 11
16.7107
 21
-64.4386
  0
LINE
  8
0
 10
16.7107
 20
-64.4386
 11
16.7298
 21
-64.4386
  0
LINE
  8
0
 10
16.7298
 20
-64.4386
 11
29.5739
 21
-64.4386
  0
LINE
  8
0
 10
29.5739
 20
-64.4386
 11
31.1369
 21
-63.0346
  0
LINE
  8
0
 10
31.1369
 20
-63.0346
 11
31.5222
 21
-62.6886
  0
LINE
  8
0
 10
31.5222
 20
-62.6886
 11
31.9461
 21
-60.2875
  0
LINE
  8
0
 10
31.9461
 20
-60.2875
 11
33.1473
 21
-53.4828
  0
LINE
  8
0
 10
33.1473
 20
-53.4828
 11
33.7989
 21
-53.4828
  0
LINE
  8
0
 10
33.7989
 20
-53.4828
 11
33.8276
 21
-53.4828
  0
LINE
  8
0
 10
33.8276
 20
-53.4828
 11
39.7479
 21
-53.4828
  0
LINE
  8
0
 10
39.7479
 20
-53.4828
 11
43.3471
 21
-53.4828
  0
LINE
  8
0
 10
43.3471
 20
-53.4828
 11
43.385
 21
-53.4828
  0
LINE
  8
0
 10
43.385
 20
-53.4828
 11
49.7631
 21
-53.4828
  0
LINE
  8
0
 10
49.7631
 20
-53.4828
 11
53.7398
 21
-53.4828
  0
LINE
  8
0
 10
53.7398
 20
-53.4828
 11
58.7383
 21
-53.4828
  0
LINE
  8
0
 10
58.7383
 20
-53.4828
 11
59.4046
 21
-53.1257
  0
LINE
  8
0
 10
59.4046
 20
-53.1257
 11
60.4287
 21
-52.5769
  0
LINE
  8
0
 10
60.4287
 20
-52.5769
 11
62.9624
 21
-49.2545
  0
LINE
  8
0
 10
62.9624
 20
-49.2545
 11
65.585
 21
-45.8154
  0
LINE
  8
0
 10
65.585
 20
-45.8154
 11
65.5784
 21
-45.7663
  0
LINE
  8
0
 10
65.5784
 20
-45.7663
 11
64.2144
 21
-35.5847
  0
LINE
  8
0
 10
64.2144
 20
-35.5847
 11
63.3462
 21
-29.1049
  0
LINE
  8
0
 10
63.3462
 20
-29.1049
 11
63.1255
 21
-25.7509
  0
LINE
  8
0
 10
63.1255
 20
-25.7509
 11
62.7864
 21
-20.6
  0
LINE
  8
0
 10
62.7864
 20
-20.6
 11
62.7864
 21
-3.4
  0
LINE
  8
0
 10
62.7864
 20
-3.4
 11
63.1255
 21
1.75088
  0
LINE
  8
0
 10
63.1255
 20
1.75088
 11
63.3462
 21
5.10491
  0
LINE
  8
0
 10
63.3462
 20
5.10491
 11
64.0424
 21
10.3008
  0
LINE
  8
0
 10
64.0424
 20
10.3008
 11
64.3451
 21
10.3008
  0
LINE
  8
0
 10
64.3451
 20
10.3008
 11
64.3765
 21
10.3159
  0
LINE
  8
0
 10
64.3765
 20
10.3159
 11
66.0505
 21
11.122
  0
LINE
  8
0
 10
66.0505
 20
11.122
 11
67.2089
 21
12.5746
  0
LINE
  8
0
 10
67.2089
 20
12.5746
 11
67.2306
 21
12.6018
  0
LINE
  8
0
 10
67.2306
 20
12.6018
 11
67.2384
 21
12.6358
  0
LINE
  8
0
 10
67.2384
 20
12.6358
 11
67.6518
 21
14.4471
  0
LINE
  8
0
 10
67.6518
 20
14.4471
 11
67.2384
 21
16.2585
  0
LINE
  8
0
 10
67.2384
 20
16.2585
 11
67.2306
 21
16.2925
  0
LINE
  8
0
 10
67.2306
 20
16.2925
 11
67.2089
 21
16.3197
  0
LINE
  8
0
 10
67.2089
 20
16.3197
 11
66.0505
 21
17.7723
  0
LINE
  8
0
 10
66.0505
 20
17.7723
 11
65.1044
 21
18.2279
  0
LINE
  8
0
 10
65.1044
 20
18.2279
 11
65.5721
 21
21.7188
  0
LINE
  8
0
 10
65.5721
 20
21.7188
 11
66.4061
 21
25.7456
  0
LINE
  8
0
 10
66.4061
 20
25.7456
 11
67.2135
 21
29.6441
  0
LINE
  8
0
 10
67.2135
 20
29.6441
 11
68.6057
 21
34.4669
  0
LINE
  8
0
 10
68.6057
 20
34.4669
 11
71.5135
 21
44.5398
  0
LINE
  8
0
 10
71.5135
 20
44.5398
 11
71.5217
 21
44.5681
  0
LINE
  8
0
 10
71.5217
 20
44.5681
 11
71.5385
 21
44.6264
  0
LINE
  8
0
 10
71.5385
 20
44.6264
 11
68.6373
 21
48.7049
  0
LINE
  8
0
 10
68.6373
 20
48.7049
 11
67.2263
 21
50.6886
  0
LINE
  8
0
 10
67.2263
 20
50.6886
 11
66.7861
 21
51.1969
  0
LINE
  8
0
 10
66.7861
 20
51.1969
 11
65.7108
 21
52.4386
  0
LINE
  8
0
 10
65.7108
 20
52.4386
 11
55.0188
 21
52.4386
  0
LINE
  8
0
 10
55.0188
 20
52.4386
 11
50.6621
 21
52.4386
  0
LINE
  8
0
 10
50.6621
 20
52.4386
 11
48.4212
 21
52.4386
  0
LINE
  8
0
 10
48.4212
 20
52.4386
 11
48.4003
 21
52.4386
  0
LINE
  8
0
 10
48.4003
 20
52.4386
 11
47.7402
 21
52.4386
  0
LINE
  8
0
 10
47.7402
 20
52.4386
 11
36.7298
 21
52.4386
  0
LINE
  8
0
 10
36.7298
 20
52.4386
 11
36.7075
 21
52.4386
  0
LINE
  8
0
 10
36.7075
 20
52.4386
 11
34.4187
 21
52.4386
  0
LINE
  8
0
 10
34.4187
 20
52.4386
 11
29.9844
 21
60.5875
  0
LINE
  8
0
 10
29.9844
 20
60.5875
 11
28.8411
 21
62.6886
  0
LINE
  8
0
 10
28.8411
 20
62.6886
 11
28.472
 21
63.02
  0
LINE
  8
0
 10
28.472
 20
63.02
 11
26.8927
 21
64.4386
  0
LINE
  8
0
 10
26.8927
 20
64.4386
 11
23.2218
 21
64.4386
  0
LINE
  8
0
 10
23.2218
 20
64.4386
 11
23.1466
 21
64.7679
  0
LINE
  8
0
 10
23.1466
 20
64.7679
 11
23.1389
 21
64.8018
  0
LINE
  8
0
 10
23.1389
 20
64.8018
 11
23.1171
 21
64.8291
  0
LINE
  8
0
 10
23.1171
 20
64.8291
 11
21.9587
 21
66.2817
  0
LINE
  8
0
 10
21.9587
 20
66.2817
 11
20.2848
 21
67.0878
  0
LINE
  8
0
 10
20.2848
 20
67.0878
 11
20.2534
 21
67.1029
  0
LINE
  8
0
 10
20.2534
 20
67.1029
 11
18.3606
 21
67.1029
  0
LINE
  8
0
 10
18.3606
 20
67.1029
 11
18.3292
 21
67.0878
  0
LINE
  8
0
 10
18.3292
 20
67.0878
 11
16.6553
 21
66.2817
  0
LINE
  8
0
 10
16.6553
 20
66.2817
 11
15.4969
 21
64.8291
  0
LINE
  8
0
 10
15.4969
 20
64.8291
 11
15.4752
 21
64.8018
  0
LINE
  8
0
 10
15.4752
 20
64.8018
 11
15.4674
 21
64.7679
  0
LINE
  8
0
 10
15.4674
 20
64.7679
 11
15.3923
 21
64.4386
  0
LINE
  8
0
 10
15.3923
 20
64.4386
 11
13.6402
 21
64.4386
  0
LINE
  8
0
 10
13.6402
 20
64.4386
 11
8.80013
 21
66.8166
  0
LINE
  8
0
 10
8.80013
 20
66.8166
 11
7.90054
 21
67.2586
  0
LINE
  8
0
 10
7.90054
 20
67.2586
 11
-2.44913
 21
67.2586
  0
LINE
  8
0
 10
-2.44913
 20
67.2586
 11
-2.46252
 21
67.2586
  0
LINE
  8
0
 10
-2.46252
 20
67.2586
 11
-4.40311
 21
67.2586
  0
LINE
  8
0
 10
-4.40311
 20
67.2586
 11
-5.04677
 21
65.6819
  0
LINE
  8
0
 10
-5.04677
 20
65.6819
 11
-5.14557
 21
65.4399
  0
LINE
  8
0
 10
-5.14557
 20
65.4399
 11
-5.04797
 21
65.0881
  0
LINE
  8
0
 10
-5.04797
 20
65.0881
 11
-4.86775
 21
64.4386
  0
LINE
  8
0
 10
-4.86775
 20
64.4386
 11
-13.2941
 21
64.4386
  0
LINE
  8
0
 10
-13.2941
 20
64.4386
 11
-14.6722
 21
64.4386
  0
LINE
  8
0
 10
-14.6722
 20
64.4386
 11
-16.5538
 21
64.4386
  0
LINE
  8
0
 10
-16.5538
 20
64.4386
 11
-16.5608
 21
64.4386
  0
LINE
  8
0
 10
-16.5608
 20
64.4386
 11
-16.7791
 21
64.4386
  0
LINE
  8
0
 10
-16.7791
 20
64.4386
 11
-25.6747
 21
64.4386
  0
LINE
  8
0
 10
-25.6747
 20
64.4386
 11
-25.6815
 21
64.4386
  0
LINE
  8
0
 10
-25.6815
 20
64.4386
 11
-26.7079
 21
64.4386
  0
LINE
  8
0
 10
-26.7079
 20
64.4386
 11
-35.4686
 21
52.3743
  0
LINE
  8
0
 10
-35.4686
 20
52.3743
 11
-36.3385
 21
51.1764
  0
LINE
  8
0
 10
-36.3385
 20
51.1764
 11
-37.1
 21
49.5662
  0
LINE
  8
0
 10
-37.1
 20
49.5662
 11
-38.139
 21
47.3693
  0
LINE
  8
0
 10
-38.139
 20
47.3693
 11
-38.874
 21
47.7232
  0
LINE
  8
0
 10
-38.874
 20
47.7232
 11
-38.9054
 21
47.7384
  0
LINE
  8
0
 10
-38.9054
 20
47.7384
 11
-40.7982
 21
47.7384
  0
LINE
  8
0
 10
-40.7982
 20
47.7384
 11
-40.8296
 21
47.7232
  0
LINE
  8
0
 10
-40.8296
 20
47.7232
 11
-42.5035
 21
46.9171
  0
LINE
  8
0
 10
-42.5035
 20
46.9171
 11
-43.6619
 21
45.4645
  0
LINE
  8
0
 10
-43.6619
 20
45.4645
 11
-43.6837
 21
45.4373
  0
LINE
  8
0
 10
-43.6837
 20
45.4373
 11
-43.6914
 21
45.4033
  0
LINE
  8
0
 10
-43.6914
 20
45.4033
 11
-44.1048
 21
43.592
  0
LINE
  8
0
 10
-44.1048
 20
43.592
 11
-43.6914
 21
41.7806
  0
LINE
  8
0
 10
-43.6914
 20
41.7806
 11
-43.6837
 21
41.7467
  0
LINE
  8
0
 10
-43.6837
 20
41.7467
 11
-43.6619
 21
41.7194
  0
LINE
  8
0
 10
-43.6619
 20
41.7194
 11
-42.5035
 21
40.2668
  0
LINE
  8
0
 10
-42.5035
 20
40.2668
 11
-41.6846
 21
39.8724
  0
LINE
  8
0
 10
-41.6846
 20
39.8724
 11
-43.4651
 21
36.1075
  0
LINE
  8
0
 10
-43.4651
 20
36.1075
 11
-45.0074
 21
31.5622
  0
LINE
  8
0
 10
-45.0074
 20
31.5622
 11
-45.1919
 21
31.0184
  0
LINE
  8
0
 10
-45.1919
 20
31.0184
 11
-45.6025
 21
29.1474
  0
LINE
  8
0
 10
-45.6025
 20
29.1474
 11
-48.8809
 21
14.2113
  0
LINE
  8
0
 10
-48.8809
 20
14.2113
 11
-49.4043
 21
9.35796
  0
LINE
  8
0
 10
-49.4043
 20
9.35796
 11
-49.4699
 21
8.75
  0
LINE
  8
0
 10
-49.4699
 20
8.75
 11
-49.4699
 21
-8.75
  0
LINE
  8
0
 10
-49.4699
 20
-8.75
 11
-49.4043
 21
-9.35796
  0
LINE
  8
0
 10
-49.4043
 20
-9.35796
 11
-48.8809
 21
-14.2113
  0
LINE
  8
0
 10
-48.8809
 20
-14.2113
 11
-46.0114
 21
-27.2847
  0
LINE
  8
0
 10
-46.0114
 20
-27.2847
 11
-47.3281
 21
-27.9188
  0
LINE
  8
0
 10
-47.3281
 20
-27.9188
 11
-48.4865
 21
-29.3714
  0
LINE
  8
0
 10
-48.4865
 20
-29.3714
 11
-48.5082
 21
-29.3986
  0
LINE
  8
0
 10
-48.5082
 20
-29.3986
 11
-48.516
 21
-29.4326
  0
LINE
  8
0
 10
-48.516
 20
-29.4326
 11
-48.9294
 21
-31.2439
  0
LINE
  8
0
 10
-48.9294
 20
-31.2439
 11
-48.5658
 21
-32.837
  0
LINE
  8
0
 10
-48.5658
 20
-32.837
 11
-57.1805
 21
-37.7357
  0
LINE
  8
0
 10
-57.1805
 20
-37.7357
 11
-57.2344
 21
-37.7809
  0
LINE
  8
0
 10
-57.2344
 20
-37.7809
 11
-57.2344
 21
-37.7809
  0
LINE
  8
0
 10
-57.2344
 20
-37.7809
 11
-57.244
 21
-37.789
  0
LINE
  8
0
 10
-57.244
 20
-37.789
 11
-57.244
 21
-37.789
  0
LINE
  8
0
 10
-57.244
 20
-37.789
 11
-57.244
 21
-37.789
  0
LINE
  8
0
 10
-57.244
 20
-37.789
 11
-65.4224
 21
-44.6515
  0
LINE
  8
0
 10
-65.4224
 20
-44.6515
 11
-66.8972
 21
-45.889
  0
LINE
  8
0
 10
-66.8972
 20
-45.889
 11
-67.1056
 21
-46.1431
  0
LINE
  8
0
 10
-67.1056
 20
-46.1431
 11
-67.1057
 21
-46.1432
  0
LINE
  8
0
 10
-67.1057
 20
-46.1432
 11
-68.1532
 21
-47.4205
  0
LINE
  8
0
 10
-68.1532
 20
-47.4205
 11
-67.4656
 21
-49.1347
  0
LINE
  8
0
 10
-67.4656
 20
-49.1347
 11
-64.2737
 21
-57.0925
  0
LINE
  8
0
 10
-64.2737
 20
-57.0925
 11
-71.4521
 21
-66.2804
  0
LINE
  8
0
 10
-71.4521
 20
-66.2804
 11
-71.4523
 21
-66.2805
  0
LINE
  8
0
 10
-71.4523
 20
-66.2805
 11
-72.9877
 21
-68.2458
  0
LINE
  8
0
 10
-72.9877
 20
-68.2458
 11
-72.9985
 21
-68.2596
  0
LINE
  8
0
 10
-72.9985
 20
-68.2596
 11
-72.9985
 21
-68.2596
  0
LINE
  8
0
 10
-69.9237
 20
-68.1232
 11
-63.2374
 21
-59.5652
  0
LINE
  8
0
 10
-63.2374
 20
-59.5652
 11
-61.2493
 21
-57.0206
  0
LINE
  8
0
 10
-61.2493
 20
-57.0206
 11
-61.24
 21
-57.0086
  0
LINE
  8
0
 10
-61.24
 20
-57.0086
 11
-61.1989
 21
-56.9561
  0
LINE
  8
0
 10
-61.1989
 20
-56.9561
 11
-61.9318
 21
-55.2803
  0
LINE
  8
0
 10
-61.9318
 20
-55.2803
 11
-65.2444
 21
-47.7061
  0
LINE
  8
0
 10
-65.2444
 20
-47.7061
 11
-56.6824
 21
-40.5217
  0
LINE
  8
0
 10
-56.6824
 20
-40.5217
 11
-47.6294
 21
-34.1913
  0
LINE
  8
0
 10
-47.6294
 20
-34.1913
 11
-47.3281
 21
-34.5691
  0
LINE
  8
0
 10
-47.3281
 20
-34.5691
 11
-45.6542
 21
-35.3752
  0
LINE
  8
0
 10
-45.6542
 20
-35.3752
 11
-45.6228
 21
-35.3903
  0
LINE
  8
0
 10
-45.6228
 20
-35.3903
 11
-43.73
 21
-35.3903
  0
LINE
  8
0
 10
-43.73
 20
-35.3903
 11
-43.6986
 21
-35.3752
  0
LINE
  8
0
 10
-43.6986
 20
-35.3752
 11
-42.0247
 21
-34.5691
  0
LINE
  8
0
 10
-42.0247
 20
-34.5691
 11
-40.8663
 21
-33.1165
  0
LINE
  8
0
 10
-40.8663
 20
-33.1165
 11
-40.8446
 21
-33.0892
  0
LINE
  8
0
 10
-40.8446
 20
-33.0892
 11
-40.8368
 21
-33.0553
  0
LINE
  8
0
 10
-40.8368
 20
-33.0553
 11
-40.4234
 21
-31.2439
  0
LINE
  8
0
 10
-40.4234
 20
-31.2439
 11
-40.6623
 21
-30.1971
  0
LINE
  8
0
 10
-40.6623
 20
-30.1971
 11
-35.3799
 21
-30.1971
  0
LINE
  8
0
 10
-35.3799
 20
-30.1971
 11
-35.3799
 21
28.1971
  0
LINE
  8
0
 10
-35.3799
 20
28.1971
 11
-43.6892
 21
28.1971
  0
LINE
  8
0
 10
-43.6892
 20
28.1971
 11
-43.0919
 21
30.9184
  0
LINE
  8
0
 10
-43.0919
 20
30.9184
 11
-42.914
 21
31.4427
  0
LINE
  8
0
 10
-42.914
 20
31.4427
 11
-41.3651
 21
36.0075
  0
LINE
  8
0
 10
-41.3651
 20
36.0075
 11
-39.7391
 21
39.4456
  0
LINE
  8
0
 10
-39.7391
 20
39.4456
 11
-38.9054
 21
39.4456
  0
LINE
  8
0
 10
-38.9054
 20
39.4456
 11
-38.874
 21
39.4607
  0
LINE
  8
0
 10
-38.874
 20
39.4607
 11
-37.2001
 21
40.2668
  0
LINE
  8
0
 10
-37.2001
 20
40.2668
 11
-36.0417
 21
41.7194
  0
LINE
  8
0
 10
-36.0417
 20
41.7194
 11
-36.02
 21
41.7467
  0
LINE
  8
0
 10
-36.02
 20
41.7467
 11
-36.0122
 21
41.7806
  0
LINE
  8
0
 10
-36.0122
 20
41.7806
 11
-35.5988
 21
43.592
  0
LINE
  8
0
 10
-35.5988
 20
43.592
 11
-36.0122
 21
45.4033
  0
LINE
  8
0
 10
-36.0122
 20
45.4033
 11
-36.02
 21
45.4373
  0
LINE
  8
0
 10
-36.02
 20
45.4373
 11
-36.0417
 21
45.4645
  0
LINE
  8
0
 10
-36.0417
 20
45.4645
 11
-36.5758
 21
46.1343
  0
LINE
  8
0
 10
-36.5758
 20
46.1343
 11
-34.9728
 21
49.5238
  0
LINE
  8
0
 10
-34.9728
 20
49.5238
 11
-34.2385
 21
51.0764
  0
LINE
  8
0
 10
-34.2385
 20
51.0764
 11
-33.4144
 21
51.9527
  0
LINE
  8
0
 10
-33.4144
 20
51.9527
 11
-25.0277
 21
60.8699
  0
LINE
  8
0
 10
-25.0277
 20
60.8699
 11
-15.9972
 21
60.8699
  0
LINE
  8
0
 10
-15.9972
 20
60.8699
 11
-15.1107
 21
60.8699
  0
LINE
  8
0
 10
-15.1107
 20
60.8699
 11
-13.3083
 21
60.8699
  0
LINE
  8
0
 10
-13.3083
 20
60.8699
 11
-13.1034
 21
60.8699
  0
LINE
  8
0
 10
-13.1034
 20
60.8699
 11
-3.15153
 21
60.8699
  0
LINE
  8
0
 10
-3.15153
 20
60.8699
 11
-3.14571
 21
60.8699
  0
LINE
  8
0
 10
-3.14571
 20
60.8699
 11
-1.98479
 21
60.8699
  0
LINE
  8
0
 10
-1.98479
 20
60.8699
 11
-1.98479
 21
60.8699
  0
LINE
  8
0
 10
-1.98479
 20
60.8699
 11
-1.97696
 21
60.8699
  0
LINE
  8
0
 10
-1.97696
 20
60.8699
 11
-1.87969
 21
61.0898
  0
LINE
  8
0
 10
-1.87969
 20
61.0898
 11
-1.17262
 21
62.6886
  0
LINE
  8
0
 10
-1.17262
 20
62.6886
 11
-1.17262
 21
62.6886
  0
LINE
  8
0
 10
-1.17262
 20
62.6886
 11
-1.53356
 21
63.6899
  0
LINE
  8
0
 10
-1.53356
 20
63.6899
 11
7.69395
 21
63.6899
  0
LINE
  8
0
 10
7.69395
 20
63.6899
 11
9.23067
 21
63.6899
  0
LINE
  8
0
 10
9.23067
 20
63.6899
 11
13.9668
 21
61.3076
  0
LINE
  8
0
 10
13.9668
 20
61.3076
 11
14.837
 21
60.8699
  0
LINE
  8
0
 10
14.837
 20
60.8699
 11
15.6676
 21
60.8699
  0
LINE
  8
0
 10
15.6676
 20
60.8699
 11
16.6553
 21
59.6314
  0
LINE
  8
0
 10
16.6553
 20
59.6314
 11
18.3292
 21
58.8253
  0
LINE
  8
0
 10
18.3292
 20
58.8253
 11
18.3606
 21
58.8101
  0
LINE
  8
0
 10
18.3606
 20
58.8101
 11
20.2534
 21
58.8101
  0
LINE
  8
0
 10
20.2534
 20
58.8101
 11
20.2848
 21
58.8253
  0
LINE
  8
0
 10
20.2848
 20
58.8253
 11
21.9587
 21
59.6314
  0
LINE
  8
0
 10
21.9587
 20
59.6314
 11
22.9464
 21
60.8699
  0
LINE
  8
0
 10
22.9464
 20
60.8699
 11
26.1273
 21
60.8699
  0
LINE
  8
0
 10
26.1273
 20
60.8699
 11
27.1339
 21
60.8699
  0
LINE
  8
0
 10
27.1339
 20
60.8699
 11
27.4049
 21
60.3922
  0
LINE
  8
0
 10
27.4049
 20
60.3922
 11
32.9483
 21
50.6199
  0
LINE
  8
0
 10
32.9483
 20
50.6199
 11
34.3641
 21
49.1948
  0
LINE
  8
0
 10
34.3641
 20
49.1948
 11
34.6868
 21
48.8699
  0
LINE
  8
0
 10
34.6868
 20
48.8699
 11
46.4095
 21
48.8699
  0
LINE
  8
0
 10
46.4095
 20
48.8699
 11
48.9225
 21
48.8699
  0
LINE
  8
0
 10
48.9225
 20
48.8699
 11
51.1038
 21
48.8699
  0
LINE
  8
0
 10
51.1038
 20
48.8699
 11
51.7015
 21
48.8699
  0
LINE
  8
0
 10
51.7015
 20
48.8699
 11
63.3335
 21
48.8699
  0
LINE
  8
0
 10
63.3335
 20
48.8699
 11
63.3491
 21
48.8699
  0
LINE
  8
0
 10
63.3491
 20
48.8699
 11
66.344
 21
48.8699
  0
LINE
  8
0
 10
66.344
 20
48.8699
 11
67.262
 21
47.5793
  0
LINE
  8
0
 10
67.262
 20
47.5793
 11
68.1793
 21
46.2898
  0
LINE
  8
0
 10
68.1793
 20
46.2898
 11
65.3705
 21
36.5599
  0
LINE
  8
0
 10
65.3705
 20
36.5599
 11
63.8793
 21
31.3941
  0
LINE
  8
0
 10
63.8793
 20
31.3941
 11
63.8677
 21
31.3539
  0
LINE
  8
0
 10
63.8677
 20
31.3539
 11
63.8543
 21
31.3075
  0
LINE
  8
0
 10
63.8543
 20
31.3075
 11
62.9015
 21
26.707
  0
LINE
  8
0
 10
62.9015
 20
26.707
 11
62.076
 21
22.7213
  0
LINE
  8
0
 10
62.076
 20
22.7213
 11
62.069
 21
22.669
  0
LINE
  8
0
 10
62.069
 20
22.669
 11
62.0653
 21
22.6414
  0
LINE
  8
0
 10
62.0653
 20
22.6414
 11
61.4589
 21
18.1151
  0
LINE
  8
0
 10
61.4589
 20
18.1151
 11
60.7471
 21
17.7723
  0
LINE
  8
0
 10
60.7471
 20
17.7723
 11
59.5887
 21
16.3197
  0
LINE
  8
0
 10
59.5887
 20
16.3197
 11
59.5669
 21
16.2925
  0
LINE
  8
0
 10
59.5669
 20
16.2925
 11
59.5592
 21
16.2585
  0
LINE
  8
0
 10
59.5592
 20
16.2585
 11
59.1457
 21
14.4471
  0
LINE
  8
0
 10
59.1457
 20
14.4471
 11
59.5592
 21
12.6358
  0
LINE
  8
0
 10
59.5592
 20
12.6358
 11
59.5669
 21
12.6018
  0
LINE
  8
0
 10
59.5669
 20
12.6018
 11
59.5887
 21
12.5746
  0
LINE
  8
0
 10
59.5887
 20
12.5746
 11
60.5544
 21
11.3636
  0
LINE
  8
0
 10
60.5544
 20
11.3636
 11
59.8372
 21
6.01078
  0
LINE
  8
0
 10
59.8372
 20
6.01078
 11
59.8284
 21
5.94475
  0
LINE
  8
0
 10
59.8284
 20
5.94475
 11
59.8243
 21
5.91418
  0
LINE
  8
0
 10
59.8243
 20
5.91418
 11
59.6323
 21
2.99788
  0
LINE
  8
0
 10
59.6323
 20
2.99788
 11
59.2177
 21
-3.3
  0
LINE
  8
0
 10
59.2177
 20
-3.3
 11
59.2177
 21
-20.7
  0
LINE
  8
0
 10
59.2177
 20
-20.7
 11
59.6323
 21
-26.9979
  0
LINE
  8
0
 10
59.6323
 20
-26.9979
 11
59.8243
 21
-29.9142
  0
LINE
  8
0
 10
59.8243
 20
-29.9142
 11
59.8284
 21
-29.9448
  0
LINE
  8
0
 10
59.8284
 20
-29.9448
 11
59.8372
 21
-30.0108
  0
LINE
  8
0
 10
59.8372
 20
-30.0108
 11
61.0479
 21
-39.0472
  0
LINE
  8
0
 10
61.0479
 20
-39.0472
 11
62.0631
 21
-46.6247
  0
LINE
  8
0
 10
62.0631
 20
-46.6247
 11
60.3932
 21
-48.8145
  0
LINE
  8
0
 10
60.3932
 20
-48.8145
 11
59.0708
 21
-50.5485
  0
LINE
  8
0
 10
59.0708
 20
-50.5485
 11
56.6978
 21
-50.5485
  0
LINE
  8
0
 10
56.6978
 20
-50.5485
 11
49.4782
 21
-50.5485
  0
LINE
  8
0
 10
49.4782
 20
-50.5485
 11
47.2324
 21
-50.5485
  0
LINE
  8
0
 10
47.2324
 20
-50.5485
 11
41.4099
 21
-50.5485
  0
LINE
  8
0
 10
41.4099
 20
-50.5485
 11
39.0633
 21
-50.5485
  0
LINE
  8
0
 10
39.0633
 20
-50.5485
 11
31.2753
 21
-50.5485
  0
LINE
  8
0
 10
31.2753
 20
-50.5485
 11
29.7885
 21
-51.243
  0
LINE
  8
0
 10
29.7885
 20
-51.243
 11
29.3361
 21
-51.4543
  0
LINE
  8
0
 10
29.3361
 20
-51.4543
 11
29.0826
 21
-53.6665
  0
LINE
  8
0
 10
29.0826
 20
-53.6665
 11
28.2569
 21
-60.8699
  0
LINE
  8
0
 10
28.2569
 20
-60.8699
 11
27.7494
 21
-60.8699
  0
LINE
  8
0
 10
27.7494
 20
-60.8699
 11
14.837
 21
-60.8699
  0
LINE
  8
0
 10
14.837
 20
-60.8699
 11
12.9557
 21
-61.3338
  0
LINE
  8
0
 10
12.9557
 20
-61.3338
 11
7.04106
 21
-62.7922
  0
LINE
  8
0
 10
7.04106
 20
-62.7922
 11
6.4223
 21
-62.0163
  0
LINE
  8
0
 10
6.4223
 20
-62.0163
 11
4.74837
 21
-61.2102
  0
LINE
  8
0
 10
4.74837
 20
-61.2102
 11
4.71697
 21
-61.1951
  0
LINE
  8
0
 10
4.71697
 20
-61.1951
 11
2.8242
 21
-61.1951
  0
LINE
  8
0
 10
2.8242
 20
-61.1951
 11
2.7928
 21
-61.2102
  0
LINE
  8
0
 10
2.7928
 20
-61.2102
 11
1.11887
 21
-62.0163
  0
LINE
  8
0
 10
1.11887
 20
-62.0163
 11
-0.0395261
 21
-63.4689
  0
LINE
  8
0
 10
-0.0395261
 20
-63.4689
 11
-0.0612532
 21
-63.4962
  0
LINE
  8
0
 10
-0.0612532
 20
-63.4962
 11
-0.0690075
 21
-63.5301
  0
LINE
  8
0
 10
-0.0690075
 20
-63.5301
 11
-0.433061
 21
-65.1252
  0
LINE
  8
0
 10
-0.433061
 20
-65.1252
 11
-1.30548
 21
-65.6921
  0
LINE
  8
0
 10
-1.30548
 20
-65.6921
 11
-12.9678
 21
-73.271
  0
LINE
  8
0
 10
-12.9678
 20
-73.271
 11
-14.3031
 21
-74.2903
  0
LINE
  8
0
 10
-14.3031
 20
-74.2903
 11
-14.5421
 21
-74.4727
  0
LINE
  8
0
 10
-14.5421
 20
-74.4727
 11
-14.5502
 21
-74.4817
  0
LINE
  8
0
 10
-14.5502
 20
-74.4817
 11
-22.7497
 21
-83.5881
  0
LINE
  8
0
 10
-22.7497
 20
-83.5881
 11
-24.1484
 21
-85.1416
  0
LINE
  8
0
 10
-24.1484
 20
-85.1416
 11
-24.1484
 21
-85.1416
  0
LINE
  8
0
 10
-24.1484
 20
-85.1416
 11
-24.1945
 21
-85.1928
  0
LINE
  8
0
 10
-24.1945
 20
-85.1928
 11
-24.0214
 21
-85.9959
  0
LINE
  8
0
 10
-24.0214
 20
-85.9959
 11
-23.1819
 21
-89.8924
  0
LINE
  8
0
 10
-23.1819
 20
-89.8924
 11
-24.8764
 21
-92.2247
  0
LINE
  8
0
 10
-24.8764
 20
-92.2247
 11
-30.9899
 21
-100.639
  0
LINE
  8
0
 10
-30.9899
 20
-100.639
 11
-31.1908
 21
-100.638
  0
LINE
  8
0
 10
-31.1908
 20
-100.638
 11
-35.7152
 21
-100.607
  0
LINE
  8
0
 10
-35.7152
 20
-100.607
 11
-44.8284
 21
-91.5334
  0
LINE
  8
0
 10
-44.8284
 20
-91.5334
 11
-47.6232
 21
-88.7506
  0
LINE
  8
0
 10
-47.6232
 20
-88.7506
 11
-47.6246
 21
-88.7492
  0
LINE
  8
0
 10
-47.6246
 20
-88.7492
 11
-47.6424
 21
-88.7314
  0
LINE
  8
0
 10
-47.6424
 20
-88.7314
 11
-49.507
 21
-88.0123
  0
LINE
  8
0
 10
-49.507
 20
-88.0123
 11
-55.5409
 21
-85.6851
  0
LINE
  8
0
 10
-55.5409
 20
-85.6851
 11
-58.6665
 21
-83.0346
  0
LINE
  8
0
 10
-58.6665
 20
-83.0346
 11
-68.638
 21
-74.5792
  0
LINE
  8
0
 10
-68.638
 20
-74.5792
 11
-68.9305
 21
-73.11
  0
LINE
  8
0
 10
-68.9305
 20
-73.11
 11
-69.9237
 21
-68.1232
  0
LINE
  8
0
 10
-47.3699
 20
-8.64999
 11
-47.3699
 21
8.64999
  0
LINE
  8
0
 10
-47.3699
 20
8.64999
 11
-47.3067
 21
9.23532
  0
LINE
  8
0
 10
-47.3067
 20
9.23532
 11
-46.7809
 21
14.1113
  0
LINE
  8
0
 10
-46.7809
 20
14.1113
 11
-46.3961
 21
15.8646
  0
LINE
  8
0
 10
-46.3961
 20
15.8646
 11
-44.3799
 21
25.0502
  0
LINE
  8
0
 10
-44.3799
 20
25.0502
 11
-44.3799
 21
-25.0502
  0
LINE
  8
0
 10
-44.3799
 20
-25.0502
 11
-46.3961
 21
-15.8646
  0
LINE
  8
0
 10
-46.3961
 20
-15.8646
 11
-46.7809
 21
-14.1113
  0
LINE
  8
0
 10
-46.7809
 20
-14.1113
 11
-47.3067
 21
-9.23532
  0
LINE
  8
0
 10
-47.3067
 20
-9.23532
 11
-47.3699
 21
-8.64999
  0
LINE
  8
0
 10
-46.3764
 20
-31.2439
 11
-45.5264
 21
-29.7717
  0
LINE
  8
0
 10
-45.5264
 20
-29.7717
 11
-43.8264
 21
-29.7717
  0
LINE
  8
0
 10
-43.8264
 20
-29.7717
 11
-42.9764
 21
-31.2439
  0
LINE
  8
0
 10
-42.9764
 20
-31.2439
 11
-43.8264
 21
-32.7162
  0
LINE
  8
0
 10
-43.8264
 20
-32.7162
 11
-45.5264
 21
-32.7162
  0
LINE
  8
0
 10
-45.5264
 20
-32.7162
 11
-46.3764
 21
-31.2439
  0
LINE
  8
0
 10
-41.5518
 20
43.592
 11
-40.7018
 21
45.0642
  0
LINE
  8
0
 10
-40.7018
 20
45.0642
 11
-39.0018
 21
45.0642
  0
LINE
  8
0
 10
-39.0018
 20
45.0642
 11
-38.1518
 21
43.592
  0
LINE
  8
0
 10
-38.1518
 20
43.592
 11
-39.0018
 21
42.1197
  0
LINE
  8
0
 10
-39.0018
 20
42.1197
 11
-40.7018
 21
42.1197
  0
LINE
  8
0
 10
-40.7018
 20
42.1197
 11
-41.5518
 21
43.592
  0
LINE
  8
0
 10
2.07058
 20
-65.3415
 11
2.92058
 21
-63.8692
  0
LINE
  8
0
 10
2.92058
 20
-63.8692
 11
4.62058
 21
-63.8692
  0
LINE
  8
0
 10
4.62058
 20
-63.8692
 11
5.47058
 21
-65.3415
  0
LINE
  8
0
 10
5.47058
 20
-65.3415
 11
4.62058
 21
-66.8137
  0
LINE
  8
0
 10
4.62058
 20
-66.8137
 11
2.92058
 21
-66.8137
  0
LINE
  8
0
 10
2.92058
 20
-66.8137
 11
2.07058
 21
-65.3415
  0
LINE
  8
0
 10
17.607
 20
62.9565
 11
18.457
 21
64.4288
  0
LINE
  8
0
 10
18.457
 20
64.4288
 11
20.157
 21
64.4288
  0
LINE
  8
0
 10
20.157
 20
64.4288
 11
21.007
 21
62.9565
  0
LINE
  8
0
 10
21.007
 20
62.9565
 11
20.157
 21
61.4843
  0
LINE
  8
0
 10
20.157
 20
61.4843
 11
18.457
 21
61.4843
  0
LINE
  8
0
 10
18.457
 20
61.4843
 11
17.607
 21
62.9565
  0
LINE
  8
0
 10
61.6988
 20
14.4471
 11
62.5488
 21
15.9194
  0
LINE
  8
0
 10
62.5488
 20
15.9194
 11
64.2488
 21
15.9194
  0
LINE
  8
0
 10
64.2488
 20
15.9194
 11
65.0988
 21
14.4471
  0
LINE
  8
0
 10
65.0988
 20
14.4471
 11
64.2488
 21
12.9749
  0
LINE
  8
0
 10
64.2488
 20
12.9749
 11
62.5488
 21
12.9749
  0
LINE
  8
0
 10
62.5488
 20
12.9749
 11
61.6988
 21
14.4471
  0
ENDSEC
  0
SECTION
  2
OBJECTS
  0
DICTIONARY
  0
ENDSEC
  0
EOF
