  0
SECTION
  2
BLOCKS
  0
ENDSEC
  0
SECTION
  2
ENTITIES
  0
LINE
  8
0
 10
-94.2592
 20
-68.2596
 11
-93.8932
 21
-70.0976
  0
LINE
  8
0
 10
-93.8932
 20
-70.0976
 11
-93.0993
 21
-77.7979
  0
LINE
  8
0
 10
-93.0993
 20
-77.7979
 11
-93.0837
 21
-77.8107
  0
LINE
  8
0
 10
-93.0837
 20
-77.8107
 11
-93.0694
 21
-77.8224
  0
LINE
  8
0
 10
-93.0694
 20
-77.8224
 11
-90.5641
 21
-79.8798
  0
LINE
  8
0
 10
-90.5641
 20
-79.8798
 11
-79.7063
 21
-88.7967
  0
LINE
  8
0
 10
-79.7063
 20
-88.7967
 11
-79.7063
 21
-88.7967
  0
LINE
  8
0
 10
-79.7063
 20
-88.7967
 11
-79.6961
 21
-88.8051
  0
LINE
  8
0
 10
-79.6961
 20
-88.8051
 11
-79.6289
 21
-88.8603
  0
LINE
  8
0
 10
-79.6289
 20
-88.8603
 11
-75.0384
 21
-91.1019
  0
LINE
  8
0
 10
-75.0384
 20
-91.1019
 11
-73.7102
 21
-91.2478
  0
LINE
  8
0
 10
-73.7102
 20
-91.2478
 11
-60.3656
 21
-103.047
  0
LINE
  8
0
 10
-60.3656
 20
-103.047
 11
-60.0665
 21
-103.045
  0
LINE
  8
0
 10
-60.0665
 20
-103.045
 11
-57.3664
 21
-103.033
  0
LINE
  8
0
 10
-57.3664
 20
-103.033
 11
-51.5229
 21
-103.072
  0
LINE
  8
0
 10
-51.5229
 20
-103.072
 11
-49.8346
 21
-102.24
  0
LINE
  8
0
 10
-49.8346
 20
-102.24
 11
-49.6654
 21
-102.157
  0
LINE
  8
0
 10
-49.6654
 20
-102.157
 11
-49.6609
 21
-102.15
  0
LINE
  8
0
 10
-49.6609
 20
-102.15
 11
-49.6609
 21
-102.15
  0
LINE
  8
0
 10
-49.6609
 20
-102.15
 11
-45.4328
 21
-96.331
  0
LINE
  8
0
 10
-45.4328
 20
-96.331
 11
-41.0879
 21
-90.3507
  0
LINE
  8
0
 10
-41.0879
 20
-90.3507
 11
-41.7032
 21
-87.9565
  0
LINE
  8
0
 10
-41.7032
 20
-87.9565
 11
-42.3555
 21
-85.4182
  0
LINE
  8
0
 10
-42.3555
 20
-85.4182
 11
-42.3555
 21
-85.4182
  0
LINE
  8
0
 10
-42.3555
 20
-85.4182
 11
-39.1758
 21
-81.8867
  0
LINE
  8
0
 10
-39.1758
 20
-81.8867
 11
-33.1554
 21
-75.2005
  0
LINE
  8
0
 10
-33.1554
 20
-75.2005
 11
-25.1357
 21
-69.8501
  0
LINE
  8
0
 10
-25.1357
 20
-69.8501
 11
-21.1096
 21
-67.164
  0
LINE
  8
0
 10
-21.1096
 20
-67.164
 11
-19.6354
 21
-66.889
  0
LINE
  8
0
 10
-19.6354
 20
-66.889
 11
-18.7299
 21
-66.889
  0
LINE
  8
0
 10
-18.7299
 20
-66.889
 11
-18.6985
 21
-66.8739
  0
LINE
  8
0
 10
-18.6985
 20
-66.8739
 11
-18.1571
 21
-66.6132
  0
LINE
  8
0
 10
-18.1571
 20
-66.6132
 11
-16.8897
 21
-66.3767
  0
LINE
  8
0
 10
-16.8897
 20
-66.3767
 11
-6.5022
 21
-64.4386
  0
LINE
  8
0
 10
-6.5022
 20
-64.4386
 11
0.255806
 21
-64.4386
  0
LINE
  8
0
 10
0.255806
 20
-64.4386
 11
0.294788
 21
-64.4386
  0
LINE
  8
0
 10
0.294788
 20
-64.4386
 11
13.5891
 21
-64.4386
  0
LINE
  8
0
 10
13.5891
 20
-64.4386
 11
18.5201
 21
-56.6273
  0
LINE
  8
0
 10
18.5201
 20
-56.6273
 11
20.5052
 21
-53.4828
  0
LINE
  8
0
 10
20.5052
 20
-53.4828
 11
22.9487
 21
-53.4828
  0
LINE
  8
0
 10
22.9487
 20
-53.4828
 11
23.0124
 21
-53.4828
  0
LINE
  8
0
 10
23.0124
 20
-53.4828
 11
30.5897
 21
-53.4828
  0
LINE
  8
0
 10
30.5897
 20
-53.4828
 11
33.9017
 21
-53.4828
  0
LINE
  8
0
 10
33.9017
 20
-53.4828
 11
33.9616
 21
-53.4828
  0
LINE
  8
0
 10
33.9616
 20
-53.4828
 11
36.357
 21
-53.4828
  0
LINE
  8
0
 10
36.357
 20
-53.4828
 11
47.3971
 21
-53.4828
  0
LINE
  8
0
 10
47.3971
 20
-53.4828
 11
53.6325
 21
-53.4828
  0
LINE
  8
0
 10
53.6325
 20
-53.4828
 11
58.7851
 21
-48.371
  0
LINE
  8
0
 10
58.7851
 20
-48.371
 11
60.448
 21
-46.7213
  0
LINE
  8
0
 10
60.448
 20
-46.7213
 11
60.6259
 21
-46.1743
  0
LINE
  8
0
 10
60.6259
 20
-46.1743
 11
60.7426
 21
-45.8154
  0
LINE
  8
0
 10
60.7426
 20
-45.8154
 11
60.4188
 21
-31.9482
  0
LINE
  8
0
 10
60.4188
 20
-31.9482
 11
60.3524
 21
-29.1049
  0
LINE
  8
0
 10
60.3524
 20
-29.1049
 11
60.264
 21
-21.402
  0
LINE
  8
0
 10
60.264
 20
-21.402
 11
60.2548
 21
-20.6
  0
LINE
  8
0
 10
60.2548
 20
-20.6
 11
60.2548
 21
-3.4
  0
LINE
  8
0
 10
60.2548
 20
-3.4
 11
60.264
 21
-2.59801
  0
LINE
  8
0
 10
60.264
 20
-2.59801
 11
60.3524
 21
5.10489
  0
LINE
  8
0
 10
60.3524
 20
5.10489
 11
60.4188
 21
7.94818
  0
LINE
  8
0
 10
60.4188
 20
7.94818
 11
60.7404
 21
21.7189
  0
LINE
  8
0
 10
60.7404
 20
21.7189
 11
60.8535
 21
24.8515
  0
LINE
  8
0
 10
60.8535
 20
24.8515
 11
61.0265
 21
29.6441
  0
LINE
  8
0
 10
61.0265
 20
29.6441
 11
61.3938
 21
36.9442
  0
LINE
  8
0
 10
61.3938
 20
36.9442
 11
61.776
 21
44.5398
  0
LINE
  8
0
 10
61.776
 20
44.5398
 11
62.0701
 21
48.9369
  0
LINE
  8
0
 10
62.0701
 20
48.9369
 11
62.2312
 21
51.3454
  0
LINE
  8
0
 10
62.2312
 20
51.3454
 11
62.9714
 21
59.8382
  0
LINE
  8
0
 10
62.9714
 20
59.8382
 11
63.2912
 21
63.5076
  0
LINE
  8
0
 10
63.2912
 20
63.5076
 11
63.2912
 21
63.5076
  0
LINE
  8
0
 10
63.2912
 20
63.5076
 11
63.2925
 21
63.5232
  0
LINE
  8
0
 10
63.2925
 20
63.5232
 11
63.2925
 21
63.5232
  0
LINE
  8
0
 10
63.2925
 20
63.5232
 11
63.2973
 21
63.5784
  0
LINE
  8
0
 10
63.2973
 20
63.5784
 11
63.2472
 21
64.1535
  0
LINE
  8
0
 10
63.2472
 20
64.1535
 11
63.0816
 21
66.0532
  0
LINE
  8
0
 10
63.0816
 20
66.0532
 11
58.0599
 21
69.8527
  0
LINE
  8
0
 10
58.0599
 20
69.8527
 11
56.5397
 21
71.003
  0
LINE
  8
0
 10
56.5397
 20
71.003
 11
42.7785
 21
71.003
  0
LINE
  8
0
 10
42.7785
 20
71.003
 11
39.2258
 21
71.003
  0
LINE
  8
0
 10
39.2258
 20
71.003
 11
36.9227
 21
71.003
  0
LINE
  8
0
 10
36.9227
 20
71.003
 11
36.9027
 21
71.003
  0
LINE
  8
0
 10
36.9027
 20
71.003
 11
36.3456
 21
71.003
  0
LINE
  8
0
 10
36.3456
 20
71.003
 11
22.681
 21
71.003
  0
LINE
  8
0
 10
22.681
 20
71.003
 11
19.3885
 21
71.003
  0
LINE
  8
0
 10
19.3885
 20
71.003
 11
18.5359
 21
73.4647
  0
LINE
  8
0
 10
18.5359
 20
73.4647
 11
15.2323
 21
83.003
  0
LINE
  8
0
 10
15.2323
 20
83.003
 11
7.53264
 21
83.003
  0
LINE
  8
0
 10
7.53264
 20
83.003
 11
6.66266
 21
83.4219
  0
LINE
  8
0
 10
6.66266
 20
83.4219
 11
6.63127
 21
83.4371
  0
LINE
  8
0
 10
6.63127
 20
83.4371
 11
4.7385
 21
83.4371
  0
LINE
  8
0
 10
4.7385
 20
83.4371
 11
4.7071
 21
83.4219
  0
LINE
  8
0
 10
4.7071
 20
83.4219
 11
3.83712
 21
83.003
  0
LINE
  8
0
 10
3.83712
 20
83.003
 11
1.87307
 21
83.003
  0
LINE
  8
0
 10
1.87307
 20
83.003
 11
-1.47824
 21
83.003
  0
LINE
  8
0
 10
-1.47824
 20
83.003
 11
-2.2478
 21
83.5708
  0
LINE
  8
0
 10
-2.2478
 20
83.5708
 11
-2.24786
 21
83.5709
  0
LINE
  8
0
 10
-2.24786
 20
83.5709
 11
-5.29981
 21
85.823
  0
LINE
  8
0
 10
-5.29981
 20
85.823
 11
-18.3576
 21
85.823
  0
LINE
  8
0
 10
-18.3576
 20
85.823
 11
-21.6335
 21
85.823
  0
LINE
  8
0
 10
-21.6335
 20
85.823
 11
-21.6505
 21
85.823
  0
LINE
  8
0
 10
-21.6505
 20
85.823
 11
-22.9568
 21
83.5107
  0
LINE
  8
0
 10
-22.9568
 20
83.5107
 11
-23.2437
 21
83.003
  0
LINE
  8
0
 10
-23.2437
 20
83.003
 11
-36.3283
 21
83.003
  0
LINE
  8
0
 10
-36.3283
 20
83.003
 11
-36.345
 21
83.003
  0
LINE
  8
0
 10
-36.345
 20
83.003
 11
-38.9095
 21
83.003
  0
LINE
  8
0
 10
-38.9095
 20
83.003
 11
-41.4724
 21
83.003
  0
LINE
  8
0
 10
-41.4724
 20
83.003
 11
-41.915
 21
83.003
  0
LINE
  8
0
 10
-41.915
 20
83.003
 11
-54.7324
 21
83.003
  0
LINE
  8
0
 10
-54.7324
 20
83.003
 11
-56.9098
 21
83.003
  0
LINE
  8
0
 10
-56.9098
 20
83.003
 11
-58.0472
 21
81.7495
  0
LINE
  8
0
 10
-58.0472
 20
81.7495
 11
-64.3081
 21
74.8502
  0
LINE
  8
0
 10
-64.3081
 20
74.8502
 11
-71.3081
 21
67.8502
  0
LINE
  8
0
 10
-71.3081
 20
67.8502
 11
-72.437
 21
65.5923
  0
LINE
  8
0
 10
-72.437
 20
65.5923
 11
-72.9745
 21
64.5173
  0
LINE
  8
0
 10
-72.9745
 20
64.5173
 11
-73.7691
 21
63.5209
  0
LINE
  8
0
 10
-73.7691
 20
63.5209
 11
-73.7909
 21
63.4937
  0
LINE
  8
0
 10
-73.7909
 20
63.4937
 11
-73.7986
 21
63.4597
  0
LINE
  8
0
 10
-73.7986
 20
63.4597
 11
-74.0466
 21
62.3732
  0
LINE
  8
0
 10
-74.0466
 20
62.3732
 11
-77.4599
 21
55.5465
  0
LINE
  8
0
 10
-77.4599
 20
55.5465
 11
-77.7848
 21
54.6999
  0
LINE
  8
0
 10
-77.7848
 20
54.6999
 11
-79.1366
 21
51.1764
  0
LINE
  8
0
 10
-79.1366
 20
51.1764
 11
-80.1217
 21
47.7639
  0
LINE
  8
0
 10
-80.1217
 20
47.7639
 11
-83.4866
 21
36.1075
  0
LINE
  8
0
 10
-83.4866
 20
36.1075
 11
-84.3019
 21
32.1709
  0
LINE
  8
0
 10
-84.3019
 20
32.1709
 11
-84.5406
 21
31.0184
  0
LINE
  8
0
 10
-84.5406
 20
31.0184
 11
-85.1256
 21
26.6516
  0
LINE
  8
0
 10
-85.1256
 20
26.6516
 11
-86.7923
 21
14.2113
  0
LINE
  8
0
 10
-86.7923
 20
14.2113
 11
-87.0584
 21
10.1689
  0
LINE
  8
0
 10
-87.0584
 20
10.1689
 11
-87.1518
 21
8.75
  0
LINE
  8
0
 10
-87.1518
 20
8.75
 11
-87.1518
 21
-8.75
  0
LINE
  8
0
 10
-87.1518
 20
-8.75
 11
-87.0584
 21
-10.1689
  0
LINE
  8
0
 10
-87.0584
 20
-10.1689
 11
-86.7923
 21
-14.2113
  0
LINE
  8
0
 10
-86.7923
 20
-14.2113
 11
-85.1256
 21
-26.6516
  0
LINE
  8
0
 10
-85.1256
 20
-26.6516
 11
-84.5406
 21
-31.0184
  0
LINE
  8
0
 10
-84.5406
 20
-31.0184
 11
-83.0837
 21
-33.5488
  0
LINE
  8
0
 10
-83.0837
 20
-33.5488
 11
-80.2506
 21
-38.4694
  0
LINE
  8
0
 10
-80.2506
 20
-38.4694
 11
-81.2543
 21
-39.728
  0
LINE
  8
0
 10
-81.2543
 20
-39.728
 11
-81.2761
 21
-39.7553
  0
LINE
  8
0
 10
-81.2761
 20
-39.7553
 11
-81.2838
 21
-39.7892
  0
LINE
  8
0
 10
-81.2838
 20
-39.7892
 11
-81.3775
 21
-40.1995
  0
LINE
  8
0
 10
-81.3775
 20
-40.1995
 11
-84.935
 21
-43.1847
  0
LINE
  8
0
 10
-84.935
 20
-43.1847
 11
-84.9352
 21
-43.1849
  0
LINE
  8
0
 10
-84.9352
 20
-43.1849
 11
-88.158
 21
-45.889
  0
LINE
  8
0
 10
-88.158
 20
-45.889
 11
-88.158
 21
-45.889
  0
LINE
  8
0
 10
-88.158
 20
-45.889
 11
-88.6728
 21
-46.5168
  0
LINE
  8
0
 10
-88.6728
 20
-46.5168
 11
-89.4139
 21
-47.4205
  0
LINE
  8
0
 10
-89.4139
 20
-47.4205
 11
-87.5263
 21
-52.1265
  0
LINE
  8
0
 10
-87.5263
 20
-52.1265
 11
-85.5345
 21
-57.0925
  0
LINE
  8
0
 10
-85.5345
 20
-57.0925
 11
-90.0013
 21
-62.8098
  0
LINE
  8
0
 10
-90.0013
 20
-62.8098
 11
-90.0015
 21
-62.8101
  0
LINE
  8
0
 10
-90.0015
 20
-62.8101
 11
-94.2124
 21
-68.1998
  0
LINE
  8
0
 10
-94.2124
 20
-68.1998
 11
-94.2592
 21
-68.2596
  0
LINE
  8
0
 10
-94.2592
 20
-68.2596
 11
-94.2592
 21
-68.2596
  0
LINE
  8
0
 10
-91.5417
 20
-69.5746
 11
-89.472
 21
-65.9315
  0
LINE
  8
0
 10
-89.472
 20
-65.9315
 11
-86.3444
 21
-61.9283
  0
LINE
  8
0
 10
-86.3444
 20
-61.9283
 11
-82.4879
 21
-56.9923
  0
LINE
  8
0
 10
-82.4879
 20
-56.9923
 11
-82.4596
 21
-56.9561
  0
LINE
  8
0
 10
-82.4596
 20
-56.9561
 11
-84.4203
 21
-52.473
  0
LINE
  8
0
 10
-84.4203
 20
-52.473
 11
-86.5052
 21
-47.7061
  0
LINE
  8
0
 10
-86.5052
 20
-47.7061
 11
-84.9192
 21
-46.3753
  0
LINE
  8
0
 10
-84.9192
 20
-46.3753
 11
-84.9189
 21
-46.3751
  0
LINE
  8
0
 10
-84.9189
 20
-46.3751
 11
-81.3005
 21
-43.3389
  0
LINE
  8
0
 10
-81.3005
 20
-43.3389
 11
-81.2838
 21
-43.4119
  0
LINE
  8
0
 10
-81.2838
 20
-43.4119
 11
-81.2761
 21
-43.4459
  0
LINE
  8
0
 10
-81.2761
 20
-43.4459
 11
-81.2543
 21
-43.4731
  0
LINE
  8
0
 10
-81.2543
 20
-43.4731
 11
-80.0959
 21
-44.9257
  0
LINE
  8
0
 10
-80.0959
 20
-44.9257
 11
-78.422
 21
-45.7318
  0
LINE
  8
0
 10
-78.422
 20
-45.7318
 11
-78.3906
 21
-45.747
  0
LINE
  8
0
 10
-78.3906
 20
-45.747
 11
-76.4978
 21
-45.747
  0
LINE
  8
0
 10
-76.4978
 20
-45.747
 11
-76.4664
 21
-45.7318
  0
LINE
  8
0
 10
-76.4664
 20
-45.7318
 11
-74.7925
 21
-44.9257
  0
LINE
  8
0
 10
-74.7925
 20
-44.9257
 11
-73.6341
 21
-43.4731
  0
LINE
  8
0
 10
-73.6341
 20
-43.4731
 11
-73.6124
 21
-43.4459
  0
LINE
  8
0
 10
-73.6124
 20
-43.4459
 11
-73.6046
 21
-43.4119
  0
LINE
  8
0
 10
-73.6046
 20
-43.4119
 11
-73.1912
 21
-41.6006
  0
LINE
  8
0
 10
-73.1912
 20
-41.6006
 11
-73.6046
 21
-39.7892
  0
LINE
  8
0
 10
-73.6046
 20
-39.7892
 11
-73.6124
 21
-39.7553
  0
LINE
  8
0
 10
-73.6124
 20
-39.7553
 11
-73.6341
 21
-39.728
  0
LINE
  8
0
 10
-73.6341
 20
-39.728
 11
-74.7925
 21
-38.2754
  0
LINE
  8
0
 10
-74.7925
 20
-38.2754
 11
-76.4664
 21
-37.4693
  0
LINE
  8
0
 10
-76.4664
 20
-37.4693
 11
-76.4978
 21
-37.4542
  0
LINE
  8
0
 10
-76.4978
 20
-37.4542
 11
-77.6994
 21
-37.4542
  0
LINE
  8
0
 10
-77.6994
 20
-37.4542
 11
-77.8932
 21
-37.1869
  0
LINE
  8
0
 10
-77.8932
 20
-37.1869
 11
-82.4406
 21
-30.9184
  0
LINE
  8
0
 10
-82.4406
 20
-30.9184
 11
-84.2009
 21
-17.7795
  0
LINE
  8
0
 10
-84.2009
 20
-17.7795
 11
-84.6923
 21
-14.1113
  0
LINE
  8
0
 10
-84.6923
 20
-14.1113
 11
-84.9661
 21
-9.95164
  0
LINE
  8
0
 10
-84.9661
 20
-9.95164
 11
-85.0518
 21
-8.65
  0
LINE
  8
0
 10
-85.0518
 20
-8.65
 11
-85.0518
 21
8.65
  0
LINE
  8
0
 10
-85.0518
 20
8.65
 11
-84.9661
 21
9.95164
  0
LINE
  8
0
 10
-84.9661
 20
9.95164
 11
-84.6923
 21
14.1113
  0
LINE
  8
0
 10
-84.6923
 20
14.1113
 11
-84.2009
 21
17.7795
  0
LINE
  8
0
 10
-84.2009
 20
17.7795
 11
-82.4406
 21
30.9184
  0
LINE
  8
0
 10
-82.4406
 20
30.9184
 11
-82.2193
 21
31.987
  0
LINE
  8
0
 10
-82.2193
 20
31.987
 11
-81.3866
 21
36.0075
  0
LINE
  8
0
 10
-81.3866
 20
36.0075
 11
-77.9499
 21
47.9124
  0
LINE
  8
0
 10
-77.9499
 20
47.9124
 11
-77.0366
 21
51.0764
  0
LINE
  8
0
 10
-77.0366
 20
51.0764
 11
-75.6643
 21
54.6532
  0
LINE
  8
0
 10
-75.6643
 20
54.6532
 11
-75.3599
 21
55.4465
  0
LINE
  8
0
 10
-75.3599
 20
55.4465
 11
-74.462
 21
57.2423
  0
LINE
  8
0
 10
-74.462
 20
57.2423
 11
-73.4164
 21
59.3335
  0
LINE
  8
0
 10
-73.4164
 20
59.3335
 11
-72.6107
 21
58.3232
  0
LINE
  8
0
 10
-72.6107
 20
58.3232
 11
-70.9368
 21
57.5171
  0
LINE
  8
0
 10
-70.9368
 20
57.5171
 11
-70.9054
 21
57.502
  0
LINE
  8
0
 10
-70.9054
 20
57.502
 11
-69.0126
 21
57.502
  0
LINE
  8
0
 10
-69.0126
 20
57.502
 11
-68.9812
 21
57.5171
  0
LINE
  8
0
 10
-68.9812
 20
57.5171
 11
-67.3073
 21
58.3232
  0
LINE
  8
0
 10
-67.3073
 20
58.3232
 11
-66.1489
 21
59.7758
  0
LINE
  8
0
 10
-66.1489
 20
59.7758
 11
-66.1272
 21
59.803
  0
LINE
  8
0
 10
-66.1272
 20
59.803
 11
-66.1194
 21
59.837
  0
LINE
  8
0
 10
-66.1194
 20
59.837
 11
-65.706
 21
61.6484
  0
LINE
  8
0
 10
-65.706
 20
61.6484
 11
-66.1194
 21
63.4597
  0
LINE
  8
0
 10
-66.1194
 20
63.4597
 11
-66.1272
 21
63.4937
  0
LINE
  8
0
 10
-66.1272
 20
63.4937
 11
-66.1489
 21
63.5209
  0
LINE
  8
0
 10
-66.1489
 20
63.5209
 11
-67.3073
 21
64.9735
  0
LINE
  8
0
 10
-67.3073
 20
64.9735
 11
-68.9812
 21
65.7796
  0
LINE
  8
0
 10
-68.9812
 20
65.7796
 11
-69.0126
 21
65.7947
  0
LINE
  8
0
 10
-69.0126
 20
65.7947
 11
-70.1858
 21
65.7947
  0
LINE
  8
0
 10
-70.1858
 20
65.7947
 11
-69.2081
 21
67.7502
  0
LINE
  8
0
 10
-69.2081
 20
67.7502
 11
-64.2081
 21
72.7502
  0
LINE
  8
0
 10
-64.2081
 20
72.7502
 11
-63.2059
 21
73.5505
  0
LINE
  8
0
 10
-63.2059
 20
73.5505
 11
-56.3282
 21
79.0432
  0
LINE
  8
0
 10
-56.3282
 20
79.0432
 11
-43.2612
 21
79.0432
  0
LINE
  8
0
 10
-43.2612
 20
79.0432
 11
-43.2514
 21
79.0432
  0
LINE
  8
0
 10
-43.2514
 20
79.0432
 11
-41.3583
 21
79.0432
  0
LINE
  8
0
 10
-41.3583
 20
79.0432
 11
-38.8443
 21
79.0432
  0
LINE
  8
0
 10
-38.8443
 20
79.0432
 11
-38.4269
 21
79.0432
  0
LINE
  8
0
 10
-38.4269
 20
79.0432
 11
-25.0215
 21
79.0432
  0
LINE
  8
0
 10
-25.0215
 20
79.0432
 11
-22.7493
 21
79.0432
  0
LINE
  8
0
 10
-22.7493
 20
79.0432
 11
-22.7493
 21
79.0432
  0
LINE
  8
0
 10
-22.7493
 20
79.0432
 11
-22.7347
 21
79.0432
  0
LINE
  8
0
 10
-22.7347
 20
79.0432
 11
-22.4659
 21
79.5428
  0
LINE
  8
0
 10
-22.4659
 20
79.5428
 11
-21.2179
 21
81.8632
  0
LINE
  8
0
 10
-21.2179
 20
81.8632
 11
-7.85653
 21
81.8632
  0
LINE
  8
0
 10
-7.85653
 20
81.8632
 11
-5.05519
 21
81.8632
  0
LINE
  8
0
 10
-5.05519
 20
81.8632
 11
-2.05693
 21
79.6004
  0
LINE
  8
0
 10
-2.05693
 20
79.6004
 11
-2.05687
 21
79.6003
  0
LINE
  8
0
 10
-2.05687
 20
79.6003
 11
-1.31862
 21
79.0432
  0
LINE
  8
0
 10
-1.31862
 20
79.0432
 11
1.48835
 21
79.0432
  0
LINE
  8
0
 10
1.48835
 20
79.0432
 11
1.84529
 21
77.4793
  0
LINE
  8
0
 10
1.84529
 20
77.4793
 11
1.85304
 21
77.4454
  0
LINE
  8
0
 10
1.85304
 20
77.4454
 11
1.87477
 21
77.4181
  0
LINE
  8
0
 10
1.87477
 20
77.4181
 11
3.03317
 21
75.9655
  0
LINE
  8
0
 10
3.03317
 20
75.9655
 11
4.7071
 21
75.1594
  0
LINE
  8
0
 10
4.7071
 20
75.1594
 11
4.7385
 21
75.1443
  0
LINE
  8
0
 10
4.7385
 20
75.1443
 11
6.63127
 21
75.1443
  0
LINE
  8
0
 10
6.63127
 20
75.1443
 11
6.66266
 21
75.1594
  0
LINE
  8
0
 10
6.66266
 20
75.1594
 11
8.33659
 21
75.9655
  0
LINE
  8
0
 10
8.33659
 20
75.9655
 11
9.49499
 21
77.4181
  0
LINE
  8
0
 10
9.49499
 20
77.4181
 11
9.51672
 21
77.4454
  0
LINE
  8
0
 10
9.51672
 20
77.4454
 11
9.52447
 21
77.4793
  0
LINE
  8
0
 10
9.52447
 20
77.4793
 11
9.88141
 21
79.0432
  0
LINE
  8
0
 10
9.88141
 20
79.0432
 11
12.385
 21
79.0432
  0
LINE
  8
0
 10
12.385
 20
79.0432
 11
15.3919
 21
79.0432
  0
LINE
  8
0
 10
15.3919
 20
79.0432
 11
16.1387
 21
76.8411
  0
LINE
  8
0
 10
16.1387
 20
76.8411
 11
19.4619
 21
67.0432
  0
LINE
  8
0
 10
19.4619
 20
67.0432
 11
33.4531
 21
67.0432
  0
LINE
  8
0
 10
33.4531
 20
67.0432
 11
33.4702
 21
67.0432
  0
LINE
  8
0
 10
33.4702
 20
67.0432
 11
36.5785
 21
67.0432
  0
LINE
  8
0
 10
36.5785
 20
67.0432
 11
38.8303
 21
67.0432
  0
LINE
  8
0
 10
38.8303
 20
67.0432
 11
38.8493
 21
67.0432
  0
LINE
  8
0
 10
38.8493
 20
67.0432
 11
39.3825
 21
67.0432
  0
LINE
  8
0
 10
39.3825
 20
67.0432
 11
53.2272
 21
67.0432
  0
LINE
  8
0
 10
53.2272
 20
67.0432
 11
56.5263
 21
67.0432
  0
LINE
  8
0
 10
56.5263
 20
67.0432
 11
57.5513
 21
66.2676
  0
LINE
  8
0
 10
57.5513
 20
66.2676
 11
60.7945
 21
63.8139
  0
LINE
  8
0
 10
60.7945
 20
63.8139
 11
60.6446
 21
62.0945
  0
LINE
  8
0
 10
60.6446
 20
62.0945
 11
59.9173
 21
53.7496
  0
LINE
  8
0
 10
59.9173
 20
53.7496
 11
59.5829
 21
48.7487
  0
LINE
  8
0
 10
59.5829
 20
48.7487
 11
59.4242
 21
46.3764
  0
LINE
  8
0
 10
59.4242
 20
46.3764
 11
59.4225
 21
46.3424
  0
LINE
  8
0
 10
59.4225
 20
46.3424
 11
59.4224
 21
46.3406
  0
LINE
  8
0
 10
59.4224
 20
46.3406
 11
59.1536
 21
40.9993
  0
LINE
  8
0
 10
59.1536
 20
40.9993
 11
58.0229
 21
42.4171
  0
LINE
  8
0
 10
58.0229
 20
42.4171
 11
56.349
 21
43.2232
  0
LINE
  8
0
 10
56.349
 20
43.2232
 11
56.3176
 21
43.2384
  0
LINE
  8
0
 10
56.3176
 20
43.2384
 11
54.4248
 21
43.2384
  0
LINE
  8
0
 10
54.4248
 20
43.2384
 11
54.3934
 21
43.2232
  0
LINE
  8
0
 10
54.3934
 20
43.2232
 11
52.7195
 21
42.4171
  0
LINE
  8
0
 10
52.7195
 20
42.4171
 11
51.5611
 21
40.9645
  0
LINE
  8
0
 10
51.5611
 20
40.9645
 11
51.5394
 21
40.9373
  0
LINE
  8
0
 10
51.5394
 20
40.9373
 11
51.5316
 21
40.9033
  0
LINE
  8
0
 10
51.5316
 20
40.9033
 11
51.1182
 21
39.092
  0
LINE
  8
0
 10
51.1182
 20
39.092
 11
51.5316
 21
37.2806
  0
LINE
  8
0
 10
51.5316
 20
37.2806
 11
51.5394
 21
37.2467
  0
LINE
  8
0
 10
51.5394
 20
37.2467
 11
51.5611
 21
37.2194
  0
LINE
  8
0
 10
51.5611
 20
37.2194
 11
52.7195
 21
35.7668
  0
LINE
  8
0
 10
52.7195
 20
35.7668
 11
54.3934
 21
34.9607
  0
LINE
  8
0
 10
54.3934
 20
34.9607
 11
54.4248
 21
34.9456
  0
LINE
  8
0
 10
54.4248
 20
34.9456
 11
56.3176
 21
34.9456
  0
LINE
  8
0
 10
56.3176
 20
34.9456
 11
56.349
 21
34.9607
  0
LINE
  8
0
 10
56.349
 20
34.9607
 11
58.0229
 21
35.7668
  0
LINE
  8
0
 10
58.0229
 20
35.7668
 11
58.9488
 21
36.9277
  0
LINE
  8
0
 10
58.9488
 20
36.9277
 11
58.6685
 21
31.3586
  0
LINE
  8
0
 10
58.6685
 20
31.3586
 11
58.6659
 21
31.3075
  0
LINE
  8
0
 10
58.6659
 20
31.3075
 11
58.4348
 21
24.9042
  0
LINE
  8
0
 10
58.4348
 20
24.9042
 11
58.356
 21
22.7213
  0
LINE
  8
0
 10
58.356
 20
22.7213
 11
58.3554
 21
22.6967
  0
LINE
  8
0
 10
58.3554
 20
22.6967
 11
58.2562
 21
18.4485
  0
LINE
  8
0
 10
58.2562
 20
18.4485
 11
58.0548
 21
9.82398
  0
LINE
  8
0
 10
58.0548
 20
9.82398
 11
57.7106
 21
5.73794
  0
LINE
  8
0
 10
57.7106
 20
5.73794
 11
57.7025
 21
5.6417
  0
LINE
  8
0
 10
57.7025
 20
5.6417
 11
57.3517
 21
-2.55314
  0
LINE
  8
0
 10
57.3517
 20
-2.55314
 11
57.3198
 21
-3.3
  0
LINE
  8
0
 10
57.3198
 20
-3.3
 11
57.3198
 21
-20.7
  0
LINE
  8
0
 10
57.3198
 20
-20.7
 11
57.3517
 21
-21.4469
  0
LINE
  8
0
 10
57.3517
 20
-21.4469
 11
57.7025
 21
-29.6417
  0
LINE
  8
0
 10
57.7025
 20
-29.6417
 11
57.7106
 21
-29.7379
  0
LINE
  8
0
 10
57.7106
 20
-29.7379
 11
58.0548
 21
-33.824
  0
LINE
  8
0
 10
58.0548
 20
-33.824
 11
58.2562
 21
-42.4485
  0
LINE
  8
0
 10
58.2562
 20
-42.4485
 11
58.3397
 21
-46.025
  0
LINE
  8
0
 10
58.3397
 20
-46.025
 11
56.0064
 21
-48.3399
  0
LINE
  8
0
 10
56.0064
 20
-48.3399
 11
53.7802
 21
-50.5485
  0
LINE
  8
0
 10
53.7802
 20
-50.5485
 11
45.1778
 21
-50.5485
  0
LINE
  8
0
 10
45.1778
 20
-50.5485
 11
36.6181
 21
-50.5485
  0
LINE
  8
0
 10
36.6181
 20
-50.5485
 11
33.944
 21
-50.5485
  0
LINE
  8
0
 10
33.944
 20
-50.5485
 11
31.0788
 21
-50.5485
  0
LINE
  8
0
 10
31.0788
 20
-50.5485
 11
23.917
 21
-50.5485
  0
LINE
  8
0
 10
23.917
 20
-50.5485
 11
13.9905
 21
-50.5485
  0
LINE
  8
0
 10
13.9905
 20
-50.5485
 11
13.6504
 21
-51.0732
  0
LINE
  8
0
 10
13.6504
 20
-51.0732
 11
13.4035
 21
-51.4543
  0
LINE
  8
0
 10
13.4035
 20
-51.4543
 11
13.4463
 21
-52.3753
  0
LINE
  8
0
 10
13.4463
 20
-52.3753
 11
13.4934
 21
-53.3862
  0
LINE
  8
0
 10
13.4934
 20
-53.3862
 11
13.4955
 21
-53.4322
  0
LINE
  8
0
 10
13.4955
 20
-53.4322
 11
13.4978
 21
-53.4828
  0
LINE
  8
0
 10
13.4978
 20
-53.4828
 11
13.4978
 21
-53.4828
  0
LINE
  8
0
 10
13.4978
 20
-53.4828
 11
17.1882
 21
-53.4828
  0
LINE
  8
0
 10
17.1882
 20
-53.4828
 11
16.6468
 21
-54.4469
  0
LINE
  8
0
 10
16.6468
 20
-54.4469
 11
13.0393
 21
-60.8699
  0
LINE
  8
0
 10
13.0393
 20
-60.8699
 11
7.87507
 21
-60.8699
  0
LINE
  8
0
 10
7.87507
 20
-60.8699
 11
-6.08605
 21
-60.8699
  0
LINE
  8
0
 10
-6.08605
 20
-60.8699
 11
-9.79177
 21
-61.7622
  0
LINE
  8
0
 10
-9.79177
 20
-61.7622
 11
-15.514
 21
-63.1401
  0
LINE
  8
0
 10
-15.514
 20
-63.1401
 11
-15.4233
 21
-62.7426
  0
LINE
  8
0
 10
-15.4233
 20
-62.7426
 11
-15.8367
 21
-60.9313
  0
LINE
  8
0
 10
-15.8367
 20
-60.9313
 11
-15.8444
 21
-60.8973
  0
LINE
  8
0
 10
-15.8444
 20
-60.8973
 11
-15.8662
 21
-60.87
  0
LINE
  8
0
 10
-15.8662
 20
-60.87
 11
-17.0246
 21
-59.4175
  0
LINE
  8
0
 10
-17.0246
 20
-59.4175
 11
-18.6985
 21
-58.6113
  0
LINE
  8
0
 10
-18.6985
 20
-58.6113
 11
-18.7299
 21
-58.5962
  0
LINE
  8
0
 10
-18.7299
 20
-58.5962
 11
-20.6227
 21
-58.5962
  0
LINE
  8
0
 10
-20.6227
 20
-58.5962
 11
-20.6541
 21
-58.6113
  0
LINE
  8
0
 10
-20.6541
 20
-58.6113
 11
-22.328
 21
-59.4175
  0
LINE
  8
0
 10
-22.328
 20
-59.4175
 11
-23.4864
 21
-60.87
  0
LINE
  8
0
 10
-23.4864
 20
-60.87
 11
-23.5081
 21
-60.8973
  0
LINE
  8
0
 10
-23.5081
 20
-60.8973
 11
-23.5159
 21
-60.9313
  0
LINE
  8
0
 10
-23.5159
 20
-60.9313
 11
-23.9293
 21
-62.7426
  0
LINE
  8
0
 10
-23.9293
 20
-62.7426
 11
-23.5159
 21
-64.5539
  0
LINE
  8
0
 10
-23.5159
 20
-64.5539
 11
-23.5081
 21
-64.5879
  0
LINE
  8
0
 10
-23.5081
 20
-64.5879
 11
-23.4864
 21
-64.6152
  0
LINE
  8
0
 10
-23.4864
 20
-64.6152
 11
-22.6066
 21
-65.7184
  0
LINE
  8
0
 10
-22.6066
 20
-65.7184
 11
-25.0619
 21
-67.314
  0
LINE
  8
0
 10
-25.0619
 20
-67.314
 11
-34.2285
 21
-73.271
  0
LINE
  8
0
 10
-34.2285
 20
-73.271
 11
-35.2781
 21
-74.0722
  0
LINE
  8
0
 10
-35.2781
 20
-74.0722
 11
-35.8028
 21
-74.4727
  0
LINE
  8
0
 10
-35.8028
 20
-74.4727
 11
-35.8197
 21
-74.4915
  0
LINE
  8
0
 10
-35.8197
 20
-74.4915
 11
-42.4911
 21
-81.9008
  0
LINE
  8
0
 10
-42.4911
 20
-81.9008
 11
-45.4236
 21
-85.1577
  0
LINE
  8
0
 10
-45.4236
 20
-85.1577
 11
-45.4236
 21
-85.1577
  0
LINE
  8
0
 10
-45.4236
 20
-85.1577
 11
-45.4552
 21
-85.1928
  0
LINE
  8
0
 10
-45.4552
 20
-85.1928
 11
-44.8786
 21
-87.8687
  0
LINE
  8
0
 10
-44.8786
 20
-87.8687
 11
-44.4426
 21
-89.8924
  0
LINE
  8
0
 10
-44.4426
 20
-89.8924
 11
-50.8471
 21
-98.7075
  0
LINE
  8
0
 10
-50.8471
 20
-98.7075
 11
-52.255
 21
-100.645
  0
LINE
  8
0
 10
-52.255
 20
-100.645
 11
-58.1992
 21
-100.725
  0
LINE
  8
0
 10
-58.1992
 20
-100.725
 11
-62.2553
 21
-97.1769
  0
LINE
  8
0
 10
-62.2553
 20
-97.1769
 11
-71.5324
 21
-89.0606
  0
LINE
  8
0
 10
-71.5324
 20
-89.0606
 11
-71.5324
 21
-89.0606
  0
LINE
  8
0
 10
-71.5324
 20
-89.0606
 11
-71.5706
 21
-89.0272
  0
LINE
  8
0
 10
-71.5706
 20
-89.0272
 11
-71.61
 21
-88.9927
  0
LINE
  8
0
 10
-71.61
 20
-88.9927
 11
-76.0316
 21
-86.8316
  0
LINE
  8
0
 10
-76.0316
 20
-86.8316
 11
-77.6428
 21
-86.3632
  0
LINE
  8
0
 10
-77.6428
 20
-86.3632
 11
-80.9446
 21
-83.6588
  0
LINE
  8
0
 10
-80.9446
 20
-83.6588
 11
-90.9729
 21
-75.4452
  0
LINE
  8
0
 10
-90.9729
 20
-75.4452
 11
-91.5417
 21
-69.5746
  0
LINE
  8
0
 10
-79.1442
 20
-41.6006
 11
-78.2942
 21
-40.1283
  0
LINE
  8
0
 10
-78.2942
 20
-40.1283
 11
-76.5942
 21
-40.1283
  0
LINE
  8
0
 10
-76.5942
 20
-40.1283
 11
-75.7442
 21
-41.6006
  0
LINE
  8
0
 10
-75.7442
 20
-41.6006
 11
-76.5942
 21
-43.0728
  0
LINE
  8
0
 10
-76.5942
 20
-43.0728
 11
-78.2942
 21
-43.0728
  0
LINE
  8
0
 10
-78.2942
 20
-43.0728
 11
-79.1442
 21
-41.6006
  0
LINE
  8
0
 10
-71.659
 20
61.6484
 11
-70.809
 21
63.1206
  0
LINE
  8
0
 10
-70.809
 20
63.1206
 11
-69.109
 21
63.1206
  0
LINE
  8
0
 10
-69.109
 20
63.1206
 11
-68.259
 21
61.6484
  0
LINE
  8
0
 10
-68.259
 20
61.6484
 11
-69.109
 21
60.1761
  0
LINE
  8
0
 10
-69.109
 20
60.1761
 11
-70.809
 21
60.1761
  0
LINE
  8
0
 10
-70.809
 20
60.1761
 11
-71.659
 21
61.6484
  0
LINE
  8
0
 10
-21.3763
 20
-62.7426
 11
-20.5263
 21
-61.2704
  0
LINE
  8
0
 10
-20.5263
 20
-61.2704
 11
-18.8263
 21
-61.2704
  0
LINE
  8
0
 10
-18.8263
 20
-61.2704
 11
-17.9763
 21
-62.7426
  0
LINE
  8
0
 10
-17.9763
 20
-62.7426
 11
-18.8263
 21
-64.2148
  0
LINE
  8
0
 10
-18.8263
 20
-64.2148
 11
-20.5263
 21
-64.2148
  0
LINE
  8
0
 10
-20.5263
 20
-64.2148
 11
-21.3763
 21
-62.7426
  0
LINE
  8
0
 10
3.98488
 20
79.2907
 11
4.83488
 21
80.7629
  0
LINE
  8
0
 10
4.83488
 20
80.7629
 11
6.53488
 21
80.7629
  0
LINE
  8
0
 10
6.53488
 20
80.7629
 11
7.38488
 21
79.2907
  0
LINE
  8
0
 10
7.38488
 20
79.2907
 11
6.53488
 21
77.8184
  0
LINE
  8
0
 10
6.53488
 20
77.8184
 11
4.83488
 21
77.8184
  0
LINE
  8
0
 10
4.83488
 20
77.8184
 11
3.98488
 21
79.2907
  0
LINE
  8
0
 10
53.6712
 20
39.092
 11
54.5212
 21
40.5642
  0
LINE
  8
0
 10
54.5212
 20
40.5642
 11
56.2212
 21
40.5642
  0
LINE
  8
0
 10
56.2212
 20
40.5642
 11
57.0712
 21
39.092
  0
LINE
  8
0
 10
57.0712
 20
39.092
 11
56.2212
 21
37.6197
  0
LINE
  8
0
 10
56.2212
 20
37.6197
 11
54.5212
 21
37.6197
  0
LINE
  8
0
 10
54.5212
 20
37.6197
 11
53.6712
 21
39.092
  0
ENDSEC
  0
SECTION
  2
OBJECTS
  0
DICTIONARY
  0
ENDSEC
  0
EOF
