  0
SECTION
  2
BLOCKS
  0
ENDSEC
  0
SECTION
  2
ENTITIES
  0
LINE
  8
0
 10
-74.7658
 20
-72.5465
 11
-74.3524
 21
-74.3578
  0
LINE
  8
0
 10
-74.3524
 20
-74.3578
 11
-74.3446
 21
-74.3918
  0
LINE
  8
0
 10
-74.3446
 20
-74.3918
 11
-74.3229
 21
-74.419
  0
LINE
  8
0
 10
-74.3229
 20
-74.419
 11
-73.1645
 21
-75.8716
  0
LINE
  8
0
 10
-73.1645
 20
-75.8716
 11
-71.4905
 21
-76.6777
  0
LINE
  8
0
 10
-71.4905
 20
-76.6777
 11
-71.4591
 21
-76.6928
  0
LINE
  8
0
 10
-71.4591
 20
-76.6928
 11
-71.319
 21
-76.6928
  0
LINE
  8
0
 10
-71.319
 20
-76.6928
 11
-71.1985
 21
-77.298
  0
LINE
  8
0
 10
-71.1985
 20
-77.298
 11
-61.4859
 21
-85.534
  0
LINE
  8
0
 10
-61.4859
 20
-85.534
 11
-58.0253
 21
-88.4684
  0
LINE
  8
0
 10
-58.0253
 20
-88.4684
 11
-58.0058
 21
-88.4849
  0
LINE
  8
0
 10
-58.0058
 20
-88.4849
 11
-57.9491
 21
-88.533
  0
LINE
  8
0
 10
-57.9491
 20
-88.533
 11
-55.834
 21
-89.27
  0
LINE
  8
0
 10
-55.834
 20
-89.27
 11
-50.4662
 21
-91.1403
  0
LINE
  8
0
 10
-50.4662
 20
-91.1403
 11
-41.9321
 21
-99.6377
  0
LINE
  8
0
 10
-41.9321
 20
-99.6377
 11
-38.558
 21
-102.997
  0
LINE
  8
0
 10
-38.558
 20
-102.997
 11
-38.5565
 21
-102.999
  0
LINE
  8
0
 10
-38.5565
 20
-102.999
 11
-38.539
 21
-103.016
  0
LINE
  8
0
 10
-38.539
 20
-103.016
 11
-37.7501
 21
-103.022
  0
LINE
  8
0
 10
-37.7501
 20
-103.022
 11
-37.7247
 21
-103.133
  0
LINE
  8
0
 10
-37.7247
 20
-103.133
 11
-37.7169
 21
-103.167
  0
LINE
  8
0
 10
-37.7169
 20
-103.167
 11
-37.6952
 21
-103.194
  0
LINE
  8
0
 10
-37.6952
 20
-103.194
 11
-36.5368
 21
-104.647
  0
LINE
  8
0
 10
-36.5368
 20
-104.647
 11
-34.8629
 21
-105.453
  0
LINE
  8
0
 10
-34.8629
 20
-105.453
 11
-34.8315
 21
-105.468
  0
LINE
  8
0
 10
-34.8315
 20
-105.468
 11
-32.9387
 21
-105.468
  0
LINE
  8
0
 10
-32.9387
 20
-105.468
 11
-32.9073
 21
-105.453
  0
LINE
  8
0
 10
-32.9073
 20
-105.453
 11
-31.2334
 21
-104.647
  0
LINE
  8
0
 10
-31.2334
 20
-104.647
 11
-30.075
 21
-103.194
  0
LINE
  8
0
 10
-30.075
 20
-103.194
 11
-30.0532
 21
-103.167
  0
LINE
  8
0
 10
-30.0532
 20
-103.167
 11
-30.0455
 21
-103.133
  0
LINE
  8
0
 10
-30.0455
 20
-103.133
 11
-30.0024
 21
-102.944
  0
LINE
  8
0
 10
-30.0024
 20
-102.944
 11
-29.8191
 21
-102.854
  0
LINE
  8
0
 10
-29.8191
 20
-102.854
 11
-28.4047
 21
-102.157
  0
LINE
  8
0
 10
-28.4047
 20
-102.157
 11
-28.4047
 21
-102.157
  0
LINE
  8
0
 10
-28.4047
 20
-102.157
 11
-26.7329
 21
-99.8556
  0
LINE
  8
0
 10
-26.7329
 20
-99.8556
 11
-26.7328
 21
-99.8554
  0
LINE
  8
0
 10
-26.7328
 20
-99.8554
 11
-19.8272
 21
-90.3507
  0
LINE
  8
0
 10
-19.8272
 20
-90.3507
 11
-19.8272
 21
-90.3507
  0
LINE
  8
0
 10
-19.8272
 20
-90.3507
 11
-20.0732
 21
-89.3934
  0
LINE
  8
0
 10
-20.0732
 20
-89.3934
 11
-21.0948
 21
-85.4182
  0
LINE
  8
0
 10
-21.0948
 20
-85.4182
 11
-19.5706
 21
-83.7253
  0
LINE
  8
0
 10
-19.5706
 20
-83.7253
 11
-19.5704
 21
-83.7252
  0
LINE
  8
0
 10
-19.5704
 20
-83.7252
 11
-11.8947
 21
-75.2004
  0
LINE
  8
0
 10
-11.8947
 20
-75.2004
 11
-1.92697
 21
-68.5504
  0
LINE
  8
0
 10
-1.92697
 20
-68.5504
 11
-0.613254
 21
-67.674
  0
LINE
  8
0
 10
-0.613254
 20
-67.674
 11
0.24039
 21
-68.7444
  0
LINE
  8
0
 10
0.24039
 20
-68.7444
 11
1.91432
 21
-69.5505
  0
LINE
  8
0
 10
1.91432
 20
-69.5505
 11
1.94572
 21
-69.5657
  0
LINE
  8
0
 10
1.94572
 20
-69.5657
 11
3.83849
 21
-69.5657
  0
LINE
  8
0
 10
3.83849
 20
-69.5657
 11
3.86989
 21
-69.5505
  0
LINE
  8
0
 10
3.86989
 20
-69.5505
 11
5.54382
 21
-68.7444
  0
LINE
  8
0
 10
5.54382
 20
-68.7444
 11
6.70221
 21
-67.2918
  0
LINE
  8
0
 10
6.70221
 20
-67.2918
 11
6.72394
 21
-67.2646
  0
LINE
  8
0
 10
6.72394
 20
-67.2646
 11
6.73169
 21
-67.2306
  0
LINE
  8
0
 10
6.73169
 20
-67.2306
 11
7.06577
 21
-65.7669
  0
LINE
  8
0
 10
7.06577
 20
-65.7669
 11
13.6402
 21
-64.4386
  0
LINE
  8
0
 10
13.6402
 20
-64.4386
 11
17.0518
 21
-64.4386
  0
LINE
  8
0
 10
17.0518
 20
-64.4386
 11
17.0734
 21
-64.4386
  0
LINE
  8
0
 10
17.0734
 20
-64.4386
 11
29.5739
 21
-64.4386
  0
LINE
  8
0
 10
29.5739
 20
-64.4386
 11
31.0951
 21
-63.0722
  0
LINE
  8
0
 10
31.0951
 20
-63.0722
 11
31.5222
 21
-62.6886
  0
LINE
  8
0
 10
31.5222
 20
-62.6886
 11
32.0025
 21
-59.9677
  0
LINE
  8
0
 10
32.0025
 20
-59.9677
 11
33.1473
 21
-53.4828
  0
LINE
  8
0
 10
33.1473
 20
-53.4828
 11
34.2334
 21
-53.4828
  0
LINE
  8
0
 10
34.2334
 20
-53.4828
 11
34.2679
 21
-53.4828
  0
LINE
  8
0
 10
34.2679
 20
-53.4828
 11
39.7521
 21
-53.4828
  0
LINE
  8
0
 10
39.7521
 20
-53.4828
 11
44.1384
 21
-53.4828
  0
LINE
  8
0
 10
44.1384
 20
-53.4828
 11
44.1864
 21
-53.4828
  0
LINE
  8
0
 10
44.1864
 20
-53.4828
 11
49.77
 21
-53.4828
  0
LINE
  8
0
 10
49.77
 20
-53.4828
 11
54.8724
 21
-53.4828
  0
LINE
  8
0
 10
54.8724
 20
-53.4828
 11
56.1387
 21
-53.4828
  0
LINE
  8
0
 10
56.1387
 20
-53.4828
 11
56.5828
 21
-54.0396
  0
LINE
  8
0
 10
56.5828
 20
-54.0396
 11
58.2567
 21
-54.8457
  0
LINE
  8
0
 10
58.2567
 20
-54.8457
 11
58.2881
 21
-54.8608
  0
LINE
  8
0
 10
58.2881
 20
-54.8608
 11
60.1809
 21
-54.8608
  0
LINE
  8
0
 10
60.1809
 20
-54.8608
 11
60.2123
 21
-54.8457
  0
LINE
  8
0
 10
60.2123
 20
-54.8457
 11
61.8862
 21
-54.0396
  0
LINE
  8
0
 10
61.8862
 20
-54.0396
 11
63.0446
 21
-52.587
  0
LINE
  8
0
 10
63.0446
 20
-52.587
 11
63.0663
 21
-52.5597
  0
LINE
  8
0
 10
63.0663
 20
-52.5597
 11
63.0741
 21
-52.5257
  0
LINE
  8
0
 10
63.0741
 20
-52.5257
 11
63.4875
 21
-50.7144
  0
LINE
  8
0
 10
63.4875
 20
-50.7144
 11
63.1101
 21
-49.0608
  0
LINE
  8
0
 10
63.1101
 20
-49.0608
 11
63.7769
 21
-48.1864
  0
LINE
  8
0
 10
63.7769
 20
-48.1864
 11
65.585
 21
-45.8154
  0
LINE
  8
0
 10
65.585
 20
-45.8154
 11
65.5805
 21
-45.7816
  0
LINE
  8
0
 10
65.5805
 20
-45.7816
 11
63.6319
 21
-31.2369
  0
LINE
  8
0
 10
63.6319
 20
-31.2369
 11
63.3462
 21
-29.1049
  0
LINE
  8
0
 10
63.3462
 20
-29.1049
 11
63.3462
 21
-29.1049
  0
LINE
  8
0
 10
63.3462
 20
-29.1049
 11
63.2707
 21
-27.9565
  0
LINE
  8
0
 10
63.2707
 20
-27.9565
 11
62.7864
 21
-20.6
  0
LINE
  8
0
 10
62.7864
 20
-20.6
 11
62.7864
 21
-3.4
  0
LINE
  8
0
 10
62.7864
 20
-3.4
 11
63.2707
 21
3.95651
  0
LINE
  8
0
 10
63.2707
 20
3.95651
 11
63.3462
 21
5.10491
  0
LINE
  8
0
 10
63.3462
 20
5.10491
 11
63.3462
 21
5.10491
  0
LINE
  8
0
 10
63.3462
 20
5.10491
 11
63.6319
 21
7.23691
  0
LINE
  8
0
 10
63.6319
 20
7.23691
 11
65.5805
 21
21.7816
  0
LINE
  8
0
 10
65.5805
 20
21.7816
 11
65.585
 21
21.8154
  0
LINE
  8
0
 10
65.585
 20
21.8154
 11
63.7769
 21
24.1864
  0
LINE
  8
0
 10
63.7769
 20
24.1864
 11
63.1101
 21
25.0608
  0
LINE
  8
0
 10
63.1101
 20
25.0608
 11
63.4875
 21
26.7144
  0
LINE
  8
0
 10
63.4875
 20
26.7144
 11
63.0741
 21
28.5257
  0
LINE
  8
0
 10
63.0741
 20
28.5257
 11
63.0663
 21
28.5597
  0
LINE
  8
0
 10
63.0663
 20
28.5597
 11
63.0446
 21
28.587
  0
LINE
  8
0
 10
63.0446
 20
28.587
 11
61.8862
 21
30.0396
  0
LINE
  8
0
 10
61.8862
 20
30.0396
 11
60.2123
 21
30.8457
  0
LINE
  8
0
 10
60.2123
 20
30.8457
 11
60.1809
 21
30.8608
  0
LINE
  8
0
 10
60.1809
 20
30.8608
 11
58.2881
 21
30.8608
  0
LINE
  8
0
 10
58.2881
 20
30.8608
 11
58.2567
 21
30.8457
  0
LINE
  8
0
 10
58.2567
 20
30.8457
 11
56.5828
 21
30.0396
  0
LINE
  8
0
 10
56.5828
 20
30.0396
 11
56.1387
 21
29.4828
  0
LINE
  8
0
 10
56.1387
 20
29.4828
 11
52.2703
 21
29.4828
  0
LINE
  8
0
 10
52.2703
 20
29.4828
 11
43.7027
 21
29.4828
  0
LINE
  8
0
 10
43.7027
 20
29.4828
 11
41.2694
 21
29.4828
  0
LINE
  8
0
 10
41.2694
 20
29.4828
 11
41.2334
 21
29.4828
  0
LINE
  8
0
 10
41.2334
 20
29.4828
 11
39.7521
 21
29.4828
  0
LINE
  8
0
 10
39.7521
 20
29.4828
 11
30.5407
 21
29.4828
  0
LINE
  8
0
 10
30.5407
 20
29.4828
 11
30.5022
 21
29.4828
  0
LINE
  8
0
 10
30.5022
 20
29.4828
 11
27.0092
 21
29.4828
  0
LINE
  8
0
 10
27.0092
 20
29.4828
 11
25.6975
 21
31.5897
  0
LINE
  8
0
 10
25.6975
 20
31.5897
 11
20.1023
 21
40.5769
  0
LINE
  8
0
 10
20.1023
 20
40.5769
 11
18.4748
 21
41.2553
  0
LINE
  8
0
 10
18.4748
 20
41.2553
 11
17.9292
 21
41.4828
  0
LINE
  8
0
 10
17.9292
 20
41.4828
 11
9.54688
 21
41.4828
  0
LINE
  8
0
 10
9.54688
 20
41.4828
 11
9.43032
 21
41.9935
  0
LINE
  8
0
 10
9.43032
 20
41.9935
 11
9.42257
 21
42.0274
  0
LINE
  8
0
 10
9.42257
 20
42.0274
 11
9.40084
 21
42.0547
  0
LINE
  8
0
 10
9.40084
 20
42.0547
 11
8.24244
 21
43.5073
  0
LINE
  8
0
 10
8.24244
 20
43.5073
 11
6.56851
 21
44.3134
  0
LINE
  8
0
 10
6.56851
 20
44.3134
 11
6.53712
 21
44.3285
  0
LINE
  8
0
 10
6.53712
 20
44.3285
 11
4.64435
 21
44.3285
  0
LINE
  8
0
 10
4.64435
 20
44.3285
 11
4.61295
 21
44.3134
  0
LINE
  8
0
 10
4.61295
 20
44.3134
 11
2.93902
 21
43.5073
  0
LINE
  8
0
 10
2.93902
 20
43.5073
 11
2.22305
 21
42.6095
  0
LINE
  8
0
 10
2.22305
 20
42.6095
 11
0.430619
 21
43.3969
  0
LINE
  8
0
 10
0.430619
 20
43.3969
 11
-1.48767
 21
44.1238
  0
LINE
  8
0
 10
-1.48767
 20
44.1238
 11
-1.95992
 21
44.3028
  0
LINE
  8
0
 10
-1.95992
 20
44.3028
 11
-11.7138
 21
44.3028
  0
LINE
  8
0
 10
-11.7138
 20
44.3028
 11
-14.2636
 21
44.3028
  0
LINE
  8
0
 10
-14.2636
 20
44.3028
 11
-14.2788
 21
44.2222
  0
LINE
  8
0
 10
-14.2788
 20
44.2222
 11
-14.5843
 21
42.61
  0
LINE
  8
0
 10
-14.5843
 20
42.61
 11
-14.6449
 21
42.2904
  0
LINE
  8
0
 10
-14.6449
 20
42.2904
 11
-14.6479
 21
42.2743
  0
LINE
  8
0
 10
-14.6479
 20
42.2743
 11
-14.6494
 21
41.8513
  0
LINE
  8
0
 10
-14.6494
 20
41.8513
 11
-14.6506
 21
41.4828
  0
LINE
  8
0
 10
-14.6506
 20
41.4828
 11
-23.6904
 21
41.4828
  0
LINE
  8
0
 10
-23.6904
 20
41.4828
 11
-25.3534
 21
41.4828
  0
LINE
  8
0
 10
-25.3534
 20
41.4828
 11
-27.8443
 21
41.4828
  0
LINE
  8
0
 10
-27.8443
 20
41.4828
 11
-27.8527
 21
41.4828
  0
LINE
  8
0
 10
-27.8527
 20
41.4828
 11
-28.2011
 21
41.4828
  0
LINE
  8
0
 10
-28.2011
 20
41.4828
 11
-36.9388
 21
41.4828
  0
LINE
  8
0
 10
-36.9388
 20
41.4828
 11
-36.9468
 21
41.4828
  0
LINE
  8
0
 10
-36.9468
 20
41.4828
 11
-38.1308
 21
41.4828
  0
LINE
  8
0
 10
-38.1308
 20
41.4828
 11
-38.9383
 21
40.286
  0
LINE
  8
0
 10
-38.9383
 20
40.286
 11
-40.6844
 21
37.6984
  0
LINE
  8
0
 10
-40.6844
 20
37.6984
 11
-40.7423
 21
37.7263
  0
LINE
  8
0
 10
-40.7423
 20
37.7263
 11
-40.7737
 21
37.7414
  0
LINE
  8
0
 10
-40.7737
 20
37.7414
 11
-42.6664
 21
37.7414
  0
LINE
  8
0
 10
-42.6664
 20
37.7414
 11
-42.6978
 21
37.7263
  0
LINE
  8
0
 10
-42.6978
 20
37.7263
 11
-44.3718
 21
36.9201
  0
LINE
  8
0
 10
-44.3718
 20
36.9201
 11
-45.5302
 21
35.4676
  0
LINE
  8
0
 10
-45.5302
 20
35.4676
 11
-45.5519
 21
35.4403
  0
LINE
  8
0
 10
-45.5519
 20
35.4403
 11
-45.5596
 21
35.4063
  0
LINE
  8
0
 10
-45.5596
 20
35.4063
 11
-45.9731
 21
33.595
  0
LINE
  8
0
 10
-45.9731
 20
33.595
 11
-45.5596
 21
31.7837
  0
LINE
  8
0
 10
-45.5596
 20
31.7837
 11
-45.5519
 21
31.7497
  0
LINE
  8
0
 10
-45.5519
 20
31.7497
 11
-45.5302
 21
31.7224
  0
LINE
  8
0
 10
-45.5302
 20
31.7224
 11
-45.0896
 21
31.17
  0
LINE
  8
0
 10
-45.0896
 20
31.17
 11
-45.1919
 21
31.0184
  0
LINE
  8
0
 10
-45.1919
 20
31.0184
 11
-45.6265
 21
29.0383
  0
LINE
  8
0
 10
-45.6265
 20
29.0383
 11
-48.8809
 21
14.2113
  0
LINE
  8
0
 10
-48.8809
 20
14.2113
 11
-49.4005
 21
9.39342
  0
LINE
  8
0
 10
-49.4005
 20
9.39342
 11
-49.4699
 21
8.75
  0
LINE
  8
0
 10
-49.4699
 20
8.75
 11
-49.4699
 21
-8.75
  0
LINE
  8
0
 10
-49.4699
 20
-8.75
 11
-49.4005
 21
-9.39342
  0
LINE
  8
0
 10
-49.4005
 20
-9.39342
 11
-48.8809
 21
-14.2113
  0
LINE
  8
0
 10
-48.8809
 20
-14.2113
 11
-46.2344
 21
-26.2686
  0
LINE
  8
0
 10
-46.2344
 20
-26.2686
 11
-47.5228
 21
-26.8891
  0
LINE
  8
0
 10
-47.5228
 20
-26.8891
 11
-48.6812
 21
-28.3417
  0
LINE
  8
0
 10
-48.6812
 20
-28.3417
 11
-48.703
 21
-28.3689
  0
LINE
  8
0
 10
-48.703
 20
-28.3689
 11
-48.7107
 21
-28.4029
  0
LINE
  8
0
 10
-48.7107
 20
-28.4029
 11
-49.1241
 21
-30.2143
  0
LINE
  8
0
 10
-49.1241
 20
-30.2143
 11
-48.7107
 21
-32.0256
  0
LINE
  8
0
 10
-48.7107
 20
-32.0256
 11
-48.703
 21
-32.0596
  0
LINE
  8
0
 10
-48.703
 20
-32.0596
 11
-48.6812
 21
-32.0868
  0
LINE
  8
0
 10
-48.6812
 20
-32.0868
 11
-48.2336
 21
-32.6481
  0
LINE
  8
0
 10
-48.2336
 20
-32.6481
 11
-57.1805
 21
-37.7357
  0
LINE
  8
0
 10
-57.1805
 20
-37.7357
 11
-57.2336
 21
-37.7803
  0
LINE
  8
0
 10
-57.2336
 20
-37.7803
 11
-57.2336
 21
-37.7803
  0
LINE
  8
0
 10
-57.2336
 20
-37.7803
 11
-57.244
 21
-37.789
  0
LINE
  8
0
 10
-57.244
 20
-37.789
 11
-57.244
 21
-37.789
  0
LINE
  8
0
 10
-57.244
 20
-37.789
 11
-57.244
 21
-37.789
  0
LINE
  8
0
 10
-57.244
 20
-37.789
 11
-65.3025
 21
-44.5509
  0
LINE
  8
0
 10
-65.3025
 20
-44.5509
 11
-66.8972
 21
-45.889
  0
LINE
  8
0
 10
-66.8972
 20
-45.889
 11
-67.1243
 21
-46.1659
  0
LINE
  8
0
 10
-67.1243
 20
-46.1659
 11
-67.1243
 21
-46.1659
  0
LINE
  8
0
 10
-67.1243
 20
-46.1659
 11
-68.1532
 21
-47.4205
  0
LINE
  8
0
 10
-68.1532
 20
-47.4205
 11
-67.3994
 21
-49.2996
  0
LINE
  8
0
 10
-67.3994
 20
-49.2996
 11
-64.2737
 21
-57.0925
  0
LINE
  8
0
 10
-64.2737
 20
-57.0925
 11
-71.3034
 21
-66.09
  0
LINE
  8
0
 10
-71.3034
 20
-66.09
 11
-71.3035
 21
-66.0902
  0
LINE
  8
0
 10
-71.3035
 20
-66.0902
 11
-72.9864
 21
-68.2441
  0
LINE
  8
0
 10
-72.9864
 20
-68.2441
 11
-72.9985
 21
-68.2596
  0
LINE
  8
0
 10
-72.9985
 20
-68.2596
 11
-72.9985
 21
-68.2596
  0
LINE
  8
0
 10
-72.9985
 20
-68.2596
 11
-72.8383
 21
-69.0642
  0
LINE
  8
0
 10
-72.8383
 20
-69.0642
 11
-73.1645
 21
-69.2213
  0
LINE
  8
0
 10
-73.1645
 20
-69.2213
 11
-74.3229
 21
-70.6739
  0
LINE
  8
0
 10
-74.3229
 20
-70.6739
 11
-74.3446
 21
-70.7011
  0
LINE
  8
0
 10
-74.3446
 20
-70.7011
 11
-74.3524
 21
-70.7351
  0
LINE
  8
0
 10
-74.3524
 20
-70.7351
 11
-74.7658
 21
-72.5465
  0
LINE
  8
0
 10
-72.2128
 20
-72.5465
 11
-71.3628
 21
-71.0742
  0
LINE
  8
0
 10
-71.3628
 20
-71.0742
 11
-69.6628
 21
-71.0742
  0
LINE
  8
0
 10
-69.6628
 20
-71.0742
 11
-68.8128
 21
-72.5465
  0
LINE
  8
0
 10
-68.8128
 20
-72.5465
 11
-69.6628
 21
-74.0187
  0
LINE
  8
0
 10
-69.6628
 20
-74.0187
 11
-71.3628
 21
-74.0187
  0
LINE
  8
0
 10
-71.3628
 20
-74.0187
 11
-72.2128
 21
-72.5465
  0
LINE
  8
0
 10
-69.9237
 20
-68.1232
 11
-63.4901
 21
-59.8887
  0
LINE
  8
0
 10
-63.4901
 20
-59.8887
 11
-61.2493
 21
-57.0206
  0
LINE
  8
0
 10
-61.2493
 20
-57.0206
 11
-61.239
 21
-57.0074
  0
LINE
  8
0
 10
-61.239
 20
-57.0074
 11
-61.1989
 21
-56.9561
  0
LINE
  8
0
 10
-61.1989
 20
-56.9561
 11
-62.0011
 21
-55.1218
  0
LINE
  8
0
 10
-62.0011
 20
-55.1218
 11
-65.2444
 21
-47.7061
  0
LINE
  8
0
 10
-65.2444
 20
-47.7061
 11
-65.146
 21
-47.6235
  0
LINE
  8
0
 10
-65.146
 20
-47.6235
 11
-65.1458
 21
-47.6234
  0
LINE
  8
0
 10
-65.1458
 20
-47.6234
 11
-56.6824
 21
-40.5217
  0
LINE
  8
0
 10
-56.6824
 20
-40.5217
 11
-47.0339
 21
-33.7749
  0
LINE
  8
0
 10
-47.0339
 20
-33.7749
 11
-45.8489
 21
-34.3455
  0
LINE
  8
0
 10
-45.8489
 20
-34.3455
 11
-45.8175
 21
-34.3606
  0
LINE
  8
0
 10
-45.8175
 20
-34.3606
 11
-43.9247
 21
-34.3606
  0
LINE
  8
0
 10
-43.9247
 20
-34.3606
 11
-43.8933
 21
-34.3455
  0
LINE
  8
0
 10
-43.8933
 20
-34.3455
 11
-42.2194
 21
-33.5394
  0
LINE
  8
0
 10
-42.2194
 20
-33.5394
 11
-41.061
 21
-32.0868
  0
LINE
  8
0
 10
-41.061
 20
-32.0868
 11
-41.0393
 21
-32.0596
  0
LINE
  8
0
 10
-41.0393
 20
-32.0596
 11
-41.0315
 21
-32.0256
  0
LINE
  8
0
 10
-41.0315
 20
-32.0256
 11
-40.6181
 21
-30.2143
  0
LINE
  8
0
 10
-40.6181
 20
-30.2143
 11
-41.0315
 21
-28.4029
  0
LINE
  8
0
 10
-41.0315
 20
-28.4029
 11
-41.0393
 21
-28.3689
  0
LINE
  8
0
 10
-41.0393
 20
-28.3689
 11
-41.061
 21
-28.3417
  0
LINE
  8
0
 10
-41.061
 20
-28.3417
 11
-42.2194
 21
-26.8891
  0
LINE
  8
0
 10
-42.2194
 20
-26.8891
 11
-43.8933
 21
-26.083
  0
LINE
  8
0
 10
-43.8933
 20
-26.083
 11
-43.9247
 21
-26.0679
  0
LINE
  8
0
 10
-43.9247
 20
-26.0679
 11
-44.1565
 21
-26.0679
  0
LINE
  8
0
 10
-44.1565
 20
-26.0679
 11
-46.3751
 21
-15.9601
  0
LINE
  8
0
 10
-46.3751
 20
-15.9601
 11
-46.7809
 21
-14.1113
  0
LINE
  8
0
 10
-46.7809
 20
-14.1113
 11
-47.3032
 21
-9.26812
  0
LINE
  8
0
 10
-47.3032
 20
-9.26812
 11
-47.3699
 21
-8.64999
  0
LINE
  8
0
 10
-47.3699
 20
-8.64999
 11
-47.3699
 21
8.64999
  0
LINE
  8
0
 10
-47.3699
 20
8.64999
 11
-47.3032
 21
9.26812
  0
LINE
  8
0
 10
-47.3032
 20
9.26812
 11
-46.7809
 21
14.1113
  0
LINE
  8
0
 10
-46.7809
 20
14.1113
 11
-46.3751
 21
15.9601
  0
LINE
  8
0
 10
-46.3751
 20
15.9601
 11
-43.343
 21
29.7744
  0
LINE
  8
0
 10
-43.343
 20
29.7744
 11
-42.6978
 21
29.4637
  0
LINE
  8
0
 10
-42.6978
 20
29.4637
 11
-42.6664
 21
29.4486
  0
LINE
  8
0
 10
-42.6664
 20
29.4486
 11
-40.7737
 21
29.4486
  0
LINE
  8
0
 10
-40.7737
 20
29.4486
 11
-40.7423
 21
29.4637
  0
LINE
  8
0
 10
-40.7423
 20
29.4637
 11
-39.0683
 21
30.2699
  0
LINE
  8
0
 10
-39.0683
 20
30.2699
 11
-37.9099
 21
31.7224
  0
LINE
  8
0
 10
-37.9099
 20
31.7224
 11
-37.8882
 21
31.7497
  0
LINE
  8
0
 10
-37.8882
 20
31.7497
 11
-37.8805
 21
31.7837
  0
LINE
  8
0
 10
-37.8805
 20
31.7837
 11
-37.467
 21
33.595
  0
LINE
  8
0
 10
-37.467
 20
33.595
 11
-37.8805
 21
35.4063
  0
LINE
  8
0
 10
-37.8805
 20
35.4063
 11
-37.8882
 21
35.4403
  0
LINE
  8
0
 10
-37.8882
 20
35.4403
 11
-37.9099
 21
35.4676
  0
LINE
  8
0
 10
-37.9099
 20
35.4676
 11
-38.2744
 21
35.9245
  0
LINE
  8
0
 10
-38.2744
 20
35.9245
 11
-35.7493
 21
38.5485
  0
LINE
  8
0
 10
-35.7493
 20
38.5485
 11
-26.8299
 21
38.5485
  0
LINE
  8
0
 10
-26.8299
 20
38.5485
 11
-25.8331
 21
38.5485
  0
LINE
  8
0
 10
-25.8331
 20
38.5485
 11
-23.4468
 21
38.5485
  0
LINE
  8
0
 10
-23.4468
 20
38.5485
 11
-23.1309
 21
38.5485
  0
LINE
  8
0
 10
-23.1309
 20
38.5485
 11
-13.3684
 21
38.5485
  0
LINE
  8
0
 10
-13.3684
 20
38.5485
 11
-12.0035
 21
38.5485
  0
LINE
  8
0
 10
-12.0035
 20
38.5485
 11
-11.9865
 21
38.631
  0
LINE
  8
0
 10
-11.9865
 20
38.631
 11
-11.6646
 21
40.1993
  0
LINE
  8
0
 10
-11.6646
 20
40.1993
 11
-11.6617
 21
40.2134
  0
LINE
  8
0
 10
-11.6617
 20
40.2134
 11
-11.6041
 21
40.4943
  0
LINE
  8
0
 10
-11.6041
 20
40.4943
 11
-11.5871
 21
40.5769
  0
LINE
  8
0
 10
-11.5871
 20
40.5769
 11
-11.6214
 21
41.0264
  0
LINE
  8
0
 10
-11.6214
 20
41.0264
 11
-11.6214
 21
41.0264
  0
LINE
  8
0
 10
-11.6214
 20
41.0264
 11
-11.6475
 21
41.3685
  0
LINE
  8
0
 10
-11.6475
 20
41.3685
 11
-1.92458
 21
41.3685
  0
LINE
  8
0
 10
-1.92458
 20
41.3685
 11
-0.273759
 21
41.3685
  0
LINE
  8
0
 10
-0.273759
 20
41.3685
 11
1.44274
 21
40.6423
  0
LINE
  8
0
 10
1.44274
 20
40.6423
 11
1.33771
 21
40.1821
  0
LINE
  8
0
 10
1.33771
 20
40.1821
 11
1.75114
 21
38.3708
  0
LINE
  8
0
 10
1.75114
 20
38.3708
 11
1.75889
 21
38.3368
  0
LINE
  8
0
 10
1.75889
 20
38.3368
 11
1.78062
 21
38.3096
  0
LINE
  8
0
 10
1.78062
 20
38.3096
 11
2.93902
 21
36.857
  0
LINE
  8
0
 10
2.93902
 20
36.857
 11
4.61295
 21
36.0508
  0
LINE
  8
0
 10
4.61295
 20
36.0508
 11
4.64435
 21
36.0357
  0
LINE
  8
0
 10
4.64435
 20
36.0357
 11
6.53712
 21
36.0357
  0
LINE
  8
0
 10
6.53712
 20
36.0357
 11
6.56851
 21
36.0508
  0
LINE
  8
0
 10
6.56851
 20
36.0508
 11
8.24244
 21
36.857
  0
LINE
  8
0
 10
8.24244
 20
36.857
 11
9.40084
 21
38.3096
  0
LINE
  8
0
 10
9.40084
 20
38.3096
 11
9.42257
 21
38.3368
  0
LINE
  8
0
 10
9.42257
 20
38.3368
 11
9.43032
 21
38.3708
  0
LINE
  8
0
 10
9.43032
 20
38.3708
 11
9.47088
 21
38.5485
  0
LINE
  8
0
 10
9.47088
 20
38.5485
 11
17.1132
 21
38.5485
  0
LINE
  8
0
 10
17.1132
 20
38.5485
 11
18.0873
 21
38.5485
  0
LINE
  8
0
 10
18.0873
 20
38.5485
 11
19.5385
 21
36.2977
  0
LINE
  8
0
 10
19.5385
 20
36.2977
 11
25.2404
 21
27.4543
  0
LINE
  8
0
 10
25.2404
 20
27.4543
 11
26.6694
 21
26.7868
  0
LINE
  8
0
 10
26.6694
 20
26.7868
 11
27.1795
 21
26.5485
  0
LINE
  8
0
 10
27.1795
 20
26.5485
 11
37.9356
 21
26.5485
  0
LINE
  8
0
 10
37.9356
 20
26.5485
 11
41.4063
 21
26.5485
  0
LINE
  8
0
 10
41.4063
 20
26.5485
 11
43.9385
 21
26.5485
  0
LINE
  8
0
 10
43.9385
 20
26.5485
 11
45.1472
 21
26.5485
  0
LINE
  8
0
 10
45.1472
 20
26.5485
 11
54.8824
 21
26.5485
  0
LINE
  8
0
 10
54.8824
 20
26.5485
 11
54.9036
 21
26.5485
  0
LINE
  8
0
 10
54.9036
 20
26.5485
 11
55.0193
 21
26.5485
  0
LINE
  8
0
 10
55.0193
 20
26.5485
 11
55.3949
 21
24.9031
  0
LINE
  8
0
 10
55.3949
 20
24.9031
 11
55.4026
 21
24.8691
  0
LINE
  8
0
 10
55.4026
 20
24.8691
 11
55.4244
 21
24.8418
  0
LINE
  8
0
 10
55.4244
 20
24.8418
 11
56.5828
 21
23.3893
  0
LINE
  8
0
 10
56.5828
 20
23.3893
 11
58.2567
 21
22.5831
  0
LINE
  8
0
 10
58.2567
 20
22.5831
 11
58.2881
 21
22.568
  0
LINE
  8
0
 10
58.2881
 20
22.568
 11
60.1809
 21
22.568
  0
LINE
  8
0
 10
60.1809
 20
22.568
 11
60.2123
 21
22.5831
  0
LINE
  8
0
 10
60.2123
 20
22.5831
 11
61.5891
 21
23.2462
  0
LINE
  8
0
 10
61.5891
 20
23.2462
 11
62.0631
 21
22.6247
  0
LINE
  8
0
 10
62.0631
 20
22.6247
 11
62.0631
 21
22.6247
  0
LINE
  8
0
 10
62.0631
 20
22.6247
 11
61.4905
 21
18.351
  0
LINE
  8
0
 10
61.4905
 20
18.351
 11
60.0111
 21
7.30843
  0
LINE
  8
0
 10
60.0111
 20
7.30843
 11
60.0111
 21
7.30843
  0
LINE
  8
0
 10
60.0111
 20
7.30843
 11
59.8955
 21
5.93309
  0
LINE
  8
0
 10
59.8955
 20
5.93309
 11
59.8955
 21
5.93309
  0
LINE
  8
0
 10
59.8955
 20
5.93309
 11
59.8954
 21
5.93104
  0
LINE
  8
0
 10
59.8954
 20
5.93104
 11
59.8869
 21
5.83071
  0
LINE
  8
0
 10
59.8869
 20
5.83071
 11
59.5183
 21
-2.84489
  0
LINE
  8
0
 10
59.5183
 20
-2.84489
 11
59.4989
 21
-3.3
  0
LINE
  8
0
 10
59.4989
 20
-3.3
 11
59.4989
 21
-20.7
  0
LINE
  8
0
 10
59.4989
 20
-20.7
 11
59.5183
 21
-21.1551
  0
LINE
  8
0
 10
59.5183
 20
-21.1551
 11
59.8869
 21
-29.8307
  0
LINE
  8
0
 10
59.8869
 20
-29.8307
 11
59.8954
 21
-29.931
  0
LINE
  8
0
 10
59.8954
 20
-29.931
 11
59.8955
 21
-29.9331
  0
LINE
  8
0
 10
59.8955
 20
-29.9331
 11
59.8955
 21
-29.9331
  0
LINE
  8
0
 10
59.8955
 20
-29.9331
 11
60.0111
 21
-31.3084
  0
LINE
  8
0
 10
60.0111
 20
-31.3084
 11
60.0111
 21
-31.3084
  0
LINE
  8
0
 10
60.0111
 20
-31.3084
 11
61.4905
 21
-42.351
  0
LINE
  8
0
 10
61.4905
 20
-42.351
 11
62.0631
 21
-46.6247
  0
LINE
  8
0
 10
62.0631
 20
-46.6247
 11
62.0631
 21
-46.6247
  0
LINE
  8
0
 10
62.0631
 20
-46.6247
 11
61.5891
 21
-47.2462
  0
LINE
  8
0
 10
61.5891
 20
-47.2462
 11
60.2123
 21
-46.5831
  0
LINE
  8
0
 10
60.2123
 20
-46.5831
 11
60.1809
 21
-46.568
  0
LINE
  8
0
 10
60.1809
 20
-46.568
 11
58.2881
 21
-46.568
  0
LINE
  8
0
 10
58.2881
 20
-46.568
 11
58.2567
 21
-46.5831
  0
LINE
  8
0
 10
58.2567
 20
-46.5831
 11
56.5828
 21
-47.3893
  0
LINE
  8
0
 10
56.5828
 20
-47.3893
 11
55.4244
 21
-48.8418
  0
LINE
  8
0
 10
55.4244
 20
-48.8418
 11
55.4026
 21
-48.8691
  0
LINE
  8
0
 10
55.4026
 20
-48.8691
 11
55.3949
 21
-48.9031
  0
LINE
  8
0
 10
55.3949
 20
-48.9031
 11
55.0193
 21
-50.5485
  0
LINE
  8
0
 10
55.0193
 20
-50.5485
 11
49.4732
 21
-50.5485
  0
LINE
  8
0
 10
49.4732
 20
-50.5485
 11
46.8687
 21
-50.5485
  0
LINE
  8
0
 10
46.8687
 20
-50.5485
 11
41.4063
 21
-50.5485
  0
LINE
  8
0
 10
41.4063
 20
-50.5485
 11
38.7539
 21
-50.5485
  0
LINE
  8
0
 10
38.7539
 20
-50.5485
 11
31.2753
 21
-50.5485
  0
LINE
  8
0
 10
31.2753
 20
-50.5485
 11
29.8475
 21
-51.2154
  0
LINE
  8
0
 10
29.8475
 20
-51.2154
 11
29.3361
 21
-51.4543
  0
LINE
  8
0
 10
29.3361
 20
-51.4543
 11
29.055
 21
-53.9071
  0
LINE
  8
0
 10
29.055
 20
-53.9071
 11
28.2569
 21
-60.8699
  0
LINE
  8
0
 10
28.2569
 20
-60.8699
 11
27.5584
 21
-60.8699
  0
LINE
  8
0
 10
27.5584
 20
-60.8699
 11
14.837
 21
-60.8699
  0
LINE
  8
0
 10
14.837
 20
-60.8699
 11
12.8222
 21
-61.3667
  0
LINE
  8
0
 10
12.8222
 20
-61.3667
 11
6.2551
 21
-62.9861
  0
LINE
  8
0
 10
6.2551
 20
-62.9861
 11
5.54382
 21
-62.0941
  0
LINE
  8
0
 10
5.54382
 20
-62.0941
 11
3.86989
 21
-61.288
  0
LINE
  8
0
 10
3.86989
 20
-61.288
 11
3.83849
 21
-61.2729
  0
LINE
  8
0
 10
3.83849
 20
-61.2729
 11
1.94572
 21
-61.2729
  0
LINE
  8
0
 10
1.94572
 20
-61.2729
 11
1.91432
 21
-61.288
  0
LINE
  8
0
 10
1.91432
 20
-61.288
 11
0.24039
 21
-62.0941
  0
LINE
  8
0
 10
0.24039
 20
-62.0941
 11
-0.918007
 21
-63.5467
  0
LINE
  8
0
 10
-0.918007
 20
-63.5467
 11
-0.939734
 21
-63.574
  0
LINE
  8
0
 10
-0.939734
 20
-63.574
 11
-0.947488
 21
-63.6079
  0
LINE
  8
0
 10
-0.947488
 20
-63.6079
 11
-1.36091
 21
-65.4193
  0
LINE
  8
0
 10
-1.36091
 20
-65.4193
 11
-1.29952
 21
-65.6882
  0
LINE
  8
0
 10
-1.29952
 20
-65.6882
 11
-1.4751
 21
-65.8024
  0
LINE
  8
0
 10
-1.4751
 20
-65.8024
 11
-12.9678
 21
-73.271
  0
LINE
  8
0
 10
-12.9678
 20
-73.271
 11
-14.2837
 21
-74.2755
  0
LINE
  8
0
 10
-14.2837
 20
-74.2755
 11
-14.5421
 21
-74.4727
  0
LINE
  8
0
 10
-14.5421
 20
-74.4727
 11
-14.5508
 21
-74.4824
  0
LINE
  8
0
 10
-14.5508
 20
-74.4824
 11
-22.6417
 21
-83.4682
  0
LINE
  8
0
 10
-22.6417
 20
-83.4682
 11
-24.1493
 21
-85.1425
  0
LINE
  8
0
 10
-24.1493
 20
-85.1425
 11
-24.1493
 21
-85.1425
  0
LINE
  8
0
 10
-24.1493
 20
-85.1425
 11
-24.1945
 21
-85.1928
  0
LINE
  8
0
 10
-24.1945
 20
-85.1928
 11
-24.0054
 21
-86.0702
  0
LINE
  8
0
 10
-24.0054
 20
-86.0702
 11
-23.1819
 21
-89.8924
  0
LINE
  8
0
 10
-23.1819
 20
-89.8924
 11
-25.0716
 21
-92.4933
  0
LINE
  8
0
 10
-25.0716
 20
-92.4933
 11
-30.1012
 21
-99.416
  0
LINE
  8
0
 10
-30.1012
 20
-99.416
 11
-31.2334
 21
-97.9963
  0
LINE
  8
0
 10
-31.2334
 20
-97.9963
 11
-32.9073
 21
-97.1902
  0
LINE
  8
0
 10
-32.9073
 20
-97.1902
 11
-32.9387
 21
-97.1751
  0
LINE
  8
0
 10
-32.9387
 20
-97.1751
 11
-34.8315
 21
-97.1751
  0
LINE
  8
0
 10
-34.8315
 20
-97.1751
 11
-34.8629
 21
-97.1902
  0
LINE
  8
0
 10
-34.8629
 20
-97.1902
 11
-36.5368
 21
-97.9963
  0
LINE
  8
0
 10
-36.5368
 20
-97.9963
 11
-37.3338
 21
-98.9957
  0
LINE
  8
0
 10
-37.3338
 20
-98.9957
 11
-38.5868
 21
-97.7481
  0
LINE
  8
0
 10
-38.5868
 20
-97.7481
 11
-33.9934
 21
-91.8688
  0
LINE
  8
0
 10
-33.9934
 20
-91.8688
 11
-65.5139
 21
-67.2424
  0
LINE
  8
0
 10
-65.5139
 20
-67.2424
 11
-67.4564
 21
-69.7287
  0
LINE
  8
0
 10
-67.4564
 20
-69.7287
 11
-67.861
 21
-69.2213
  0
LINE
  8
0
 10
-67.861
 20
-69.2213
 11
-69.535
 21
-68.4152
  0
LINE
  8
0
 10
-69.535
 20
-68.4152
 11
-69.5664
 21
-68.4001
  0
LINE
  8
0
 10
-69.5664
 20
-68.4001
 11
-69.8685
 21
-68.4001
  0
LINE
  8
0
 10
-69.8685
 20
-68.4001
 11
-69.9237
 21
-68.1232
  0
LINE
  8
0
 10
-46.5711
 20
-30.2143
 11
-45.7211
 21
-28.742
  0
LINE
  8
0
 10
-45.7211
 20
-28.742
 11
-44.0211
 21
-28.742
  0
LINE
  8
0
 10
-44.0211
 20
-28.742
 11
-43.1711
 21
-30.2143
  0
LINE
  8
0
 10
-43.1711
 20
-30.2143
 11
-44.0211
 21
-31.6865
  0
LINE
  8
0
 10
-44.0211
 20
-31.6865
 11
-45.7211
 21
-31.6865
  0
LINE
  8
0
 10
-45.7211
 20
-31.6865
 11
-46.5711
 21
-30.2143
  0
LINE
  8
0
 10
-43.42
 20
33.595
 11
-42.57
 21
35.0672
  0
LINE
  8
0
 10
-42.57
 20
35.0672
 11
-40.8701
 21
35.0672
  0
LINE
  8
0
 10
-40.8701
 20
35.0672
 11
-40.02
 21
33.595
  0
LINE
  8
0
 10
-40.02
 20
33.595
 11
-40.8701
 21
32.1228
  0
LINE
  8
0
 10
-40.8701
 20
32.1228
 11
-42.57
 21
32.1228
  0
LINE
  8
0
 10
-42.57
 20
32.1228
 11
-43.42
 21
33.595
  0
LINE
  8
0
 10
-35.5851
 20
-101.321
 11
-34.7351
 21
-99.8492
  0
LINE
  8
0
 10
-34.7351
 20
-99.8492
 11
-33.0351
 21
-99.8492
  0
LINE
  8
0
 10
-33.0351
 20
-99.8492
 11
-32.1851
 21
-101.321
  0
LINE
  8
0
 10
-32.1851
 20
-101.321
 11
-33.0351
 21
-102.794
  0
LINE
  8
0
 10
-33.0351
 20
-102.794
 11
-34.7351
 21
-102.794
  0
LINE
  8
0
 10
-34.7351
 20
-102.794
 11
-35.5851
 21
-101.321
  0
LINE
  8
0
 10
1.1921
 20
-65.4193
 11
2.0421
 21
-63.947
  0
LINE
  8
0
 10
2.0421
 20
-63.947
 11
3.7421
 21
-63.947
  0
LINE
  8
0
 10
3.7421
 20
-63.947
 11
4.5921
 21
-65.4193
  0
LINE
  8
0
 10
4.5921
 20
-65.4193
 11
3.7421
 21
-66.8915
  0
LINE
  8
0
 10
3.7421
 20
-66.8915
 11
2.0421
 21
-66.8915
  0
LINE
  8
0
 10
2.0421
 20
-66.8915
 11
1.1921
 21
-65.4193
  0
LINE
  8
0
 10
3.89073
 20
40.1821
 11
4.74073
 21
41.6544
  0
LINE
  8
0
 10
4.74073
 20
41.6544
 11
6.44073
 21
41.6544
  0
LINE
  8
0
 10
6.44073
 20
41.6544
 11
7.29073
 21
40.1821
  0
LINE
  8
0
 10
7.29073
 20
40.1821
 11
6.44073
 21
38.7099
  0
LINE
  8
0
 10
6.44073
 20
38.7099
 11
4.74073
 21
38.7099
  0
LINE
  8
0
 10
4.74073
 20
38.7099
 11
3.89073
 21
40.1821
  0
LINE
  8
0
 10
57.5345
 20
-50.7144
 11
58.3845
 21
-49.2422
  0
LINE
  8
0
 10
58.3845
 20
-49.2422
 11
60.0845
 21
-49.2422
  0
LINE
  8
0
 10
60.0845
 20
-49.2422
 11
60.9345
 21
-50.7144
  0
LINE
  8
0
 10
60.9345
 20
-50.7144
 11
60.0845
 21
-52.1866
  0
LINE
  8
0
 10
60.0845
 20
-52.1866
 11
58.3845
 21
-52.1866
  0
LINE
  8
0
 10
58.3845
 20
-52.1866
 11
57.5345
 21
-50.7144
  0
LINE
  8
0
 10
57.5345
 20
26.7144
 11
58.3845
 21
28.1866
  0
LINE
  8
0
 10
58.3845
 20
28.1866
 11
60.0845
 21
28.1866
  0
LINE
  8
0
 10
60.0845
 20
28.1866
 11
60.9345
 21
26.7144
  0
LINE
  8
0
 10
60.9345
 20
26.7144
 11
60.0845
 21
25.2422
  0
LINE
  8
0
 10
60.0845
 20
25.2422
 11
58.3845
 21
25.2422
  0
LINE
  8
0
 10
58.3845
 20
25.2422
 11
57.5345
 21
26.7144
  0
ENDSEC
  0
SECTION
  2
OBJECTS
  0
DICTIONARY
  0
ENDSEC
  0
EOF
