  0
SECTION
  2
BLOCKS
  0
ENDSEC
  0
SECTION
  2
ENTITIES
  0
LINE
  8
0
 10
-93.2728
 20
-73.4625
 11
-93.0511
 21
-75.6132
  0
LINE
  8
0
 10
-93.0511
 20
-75.6132
 11
-92.6906
 21
-79.1101
  0
LINE
  8
0
 10
-92.6906
 20
-79.1101
 11
-92.6341
 21
-79.1564
  0
LINE
  8
0
 10
-92.6341
 20
-79.1564
 11
-92.6131
 21
-79.1737
  0
LINE
  8
0
 10
-92.6131
 20
-79.1737
 11
-92.6131
 21
-79.1737
  0
LINE
  8
0
 10
-92.6131
 20
-79.1737
 11
-83.5008
 21
-86.6571
  0
LINE
  8
0
 10
-83.5008
 20
-86.6571
 11
-79.2465
 21
-90.1509
  0
LINE
  8
0
 10
-79.2465
 20
-90.1509
 11
-79.2202
 21
-90.1725
  0
LINE
  8
0
 10
-79.2202
 20
-90.1725
 11
-77.4233
 21
-91.05
  0
LINE
  8
0
 10
-77.4233
 20
-91.05
 11
-74.3008
 21
-91.3929
  0
LINE
  8
0
 10
-74.3008
 20
-91.3929
 11
-74.3008
 21
-91.3929
  0
LINE
  8
0
 10
-74.3008
 20
-91.3929
 11
-64.6126
 21
-99.9591
  0
LINE
  8
0
 10
-64.6126
 20
-99.9591
 11
-61.0333
 21
-103.124
  0
LINE
  8
0
 10
-61.0333
 20
-103.124
 11
-61.0333
 21
-103.124
  0
LINE
  8
0
 10
-61.0333
 20
-103.124
 11
-60.9562
 21
-103.192
  0
LINE
  8
0
 10
-60.9562
 20
-103.192
 11
-59.2412
 21
-103.184
  0
LINE
  8
0
 10
-59.2412
 20
-103.184
 11
-53.4344
 21
-103.156
  0
LINE
  8
0
 10
-53.4344
 20
-103.156
 11
-53.395
 21
-103.131
  0
LINE
  8
0
 10
-53.395
 20
-103.131
 11
-49.8818
 21
-100.879
  0
LINE
  8
0
 10
-49.8818
 20
-100.879
 11
-46.0622
 21
-98.4307
  0
LINE
  8
0
 10
-46.0622
 20
-98.4307
 11
-43.5926
 21
-95.9505
  0
LINE
  8
0
 10
-43.5926
 20
-95.9505
 11
-41.6508
 21
-94.0002
  0
LINE
  8
0
 10
-41.6508
 20
-94.0002
 11
-40.9279
 21
-93.0053
  0
LINE
  8
0
 10
-40.9279
 20
-93.0053
 11
-40.9278
 21
-93.0051
  0
LINE
  8
0
 10
-40.9278
 20
-93.0051
 11
-38.9992
 21
-90.3507
  0
LINE
  8
0
 10
-38.9992
 20
-90.3507
 11
-38.9992
 21
-90.3507
  0
LINE
  8
0
 10
-38.9992
 20
-90.3507
 11
-39.9656
 21
-86.5902
  0
LINE
  8
0
 10
-39.9656
 20
-86.5902
 11
-40.2668
 21
-85.4182
  0
LINE
  8
0
 10
-40.2668
 20
-85.4182
 11
-36.0694
 21
-80.7565
  0
LINE
  8
0
 10
-36.0694
 20
-80.7565
 11
-36.0691
 21
-80.7562
  0
LINE
  8
0
 10
-36.0691
 20
-80.7562
 11
-31.0667
 21
-75.2005
  0
LINE
  8
0
 10
-31.0667
 20
-75.2005
 11
-24.229
 21
-70.6386
  0
LINE
  8
0
 10
-24.229
 20
-70.6386
 11
-24.2286
 21
-70.6384
  0
LINE
  8
0
 10
-24.2286
 20
-70.6384
 11
-19.0209
 21
-67.164
  0
LINE
  8
0
 10
-19.0209
 20
-67.164
 11
-14.499
 21
-66.1796
  0
LINE
  8
0
 10
-14.499
 20
-66.1796
 11
-6.5022
 21
-64.4386
  0
LINE
  8
0
 10
-6.5022
 20
-64.4386
 11
2.37856
 21
-64.4386
  0
LINE
  8
0
 10
2.37856
 20
-64.4386
 11
2.43206
 21
-64.4386
  0
LINE
  8
0
 10
2.43206
 20
-64.4386
 11
13.5891
 21
-64.4386
  0
LINE
  8
0
 10
13.5891
 20
-64.4386
 11
17.1935
 21
-57.8831
  0
LINE
  8
0
 10
17.1935
 20
-57.8831
 11
19.613
 21
-53.4828
  0
LINE
  8
0
 10
19.613
 20
-53.4828
 11
37.3169
 21
-53.4828
  0
LINE
  8
0
 10
37.3169
 20
-53.4828
 11
37.3169
 21
-53.4828
  0
LINE
  8
0
 10
37.3169
 20
-53.4828
 11
39.2948
 21
-53.3907
  0
LINE
  8
0
 10
39.2948
 20
-53.3907
 11
42.4084
 21
-53.2459
  0
LINE
  8
0
 10
42.4084
 20
-53.2459
 11
48.2343
 21
-47.035
  0
LINE
  8
0
 10
48.2343
 20
-47.035
 11
49.2607
 21
-45.7546
  0
LINE
  8
0
 10
49.2607
 20
-45.7546
 11
49.3227
 21
-45.6772
  0
LINE
  8
0
 10
49.3227
 20
-45.6772
 11
49.314
 21
-45.5782
  0
LINE
  8
0
 10
49.314
 20
-45.5782
 11
49.2222
 21
-44.5404
  0
LINE
  8
0
 10
49.2222
 20
-44.5404
 11
47.7446
 21
-27.8404
  0
LINE
  8
0
 10
47.7446
 20
-27.8404
 11
47.6618
 21
-25.9982
  0
LINE
  8
0
 10
47.6618
 20
-25.9982
 11
47.4193
 21
-20.6
  0
LINE
  8
0
 10
47.4193
 20
-20.6
 11
47.4193
 21
-3.4
  0
LINE
  8
0
 10
47.4193
 20
-3.4
 11
47.6618
 21
1.99822
  0
LINE
  8
0
 10
47.6618
 20
1.99822
 11
47.7446
 21
3.84037
  0
LINE
  8
0
 10
47.7446
 20
3.84037
 11
49.2222
 21
20.5404
  0
LINE
  8
0
 10
49.2222
 20
20.5404
 11
49.314
 21
21.5782
  0
LINE
  8
0
 10
49.314
 20
21.5782
 11
49.3227
 21
21.6772
  0
LINE
  8
0
 10
49.3227
 20
21.6772
 11
49.2607
 21
21.7546
  0
LINE
  8
0
 10
49.2607
 20
21.7546
 11
48.2343
 21
23.035
  0
LINE
  8
0
 10
48.2343
 20
23.035
 11
42.4084
 21
29.2459
  0
LINE
  8
0
 10
42.4084
 20
29.2459
 11
39.2948
 21
29.3907
  0
LINE
  8
0
 10
39.2948
 20
29.3907
 11
37.3169
 21
29.4828
  0
LINE
  8
0
 10
37.3169
 20
29.4828
 11
37.3169
 21
29.4828
  0
LINE
  8
0
 10
37.3169
 20
29.4828
 11
12.7839
 21
29.4828
  0
LINE
  8
0
 10
12.7839
 20
29.4828
 11
8.84929
 21
37.7037
  0
LINE
  8
0
 10
8.84929
 20
37.7037
 11
7.47413
 21
40.5769
  0
LINE
  8
0
 10
7.47413
 20
40.5769
 11
6.62215
 21
41.4589
  0
LINE
  8
0
 10
6.62215
 20
41.4589
 11
6.51863
 21
41.4661
  0
LINE
  8
0
 10
6.51863
 20
41.4661
 11
6.51863
 21
41.4661
  0
LINE
  8
0
 10
6.51863
 20
41.4661
 11
6.38011
 21
41.4757
  0
LINE
  8
0
 10
6.38011
 20
41.4757
 11
6.2785
 21
41.4828
  0
LINE
  8
0
 10
6.2785
 20
41.4828
 11
6.2785
 21
41.4828
  0
LINE
  8
0
 10
6.2785
 20
41.4828
 11
-10.1114
 21
41.4828
  0
LINE
  8
0
 10
-10.1114
 20
41.4828
 11
-15.0359
 21
43.949
  0
LINE
  8
0
 10
-15.0359
 20
43.949
 11
-15.036
 21
43.949
  0
LINE
  8
0
 10
-15.036
 20
43.949
 11
-15.7423
 21
44.3028
  0
LINE
  8
0
 10
-15.7423
 20
44.3028
 11
-17.7932
 21
44.3028
  0
LINE
  8
0
 10
-17.7932
 20
44.3028
 11
-17.9174
 21
44.3028
  0
LINE
  8
0
 10
-17.9174
 20
44.3028
 11
-32.0929
 21
44.3028
  0
LINE
  8
0
 10
-32.0929
 20
44.3028
 11
-33.4286
 21
43.1103
  0
LINE
  8
0
 10
-33.4286
 20
43.1103
 11
-35.2518
 21
41.4828
  0
LINE
  8
0
 10
-35.2518
 20
41.4828
 11
-44.1819
 21
41.4828
  0
LINE
  8
0
 10
-44.1819
 20
41.4828
 11
-50.9013
 21
41.4828
  0
LINE
  8
0
 10
-50.9013
 20
41.4828
 11
-53.6957
 21
41.4828
  0
LINE
  8
0
 10
-53.6957
 20
41.4828
 11
-53.7271
 21
41.4828
  0
LINE
  8
0
 10
-53.7271
 20
41.4828
 11
-55.055
 21
41.4828
  0
LINE
  8
0
 10
-55.055
 20
41.4828
 11
-65.4613
 21
41.4828
  0
LINE
  8
0
 10
-65.4613
 20
41.4828
 11
-70.0637
 21
41.4828
  0
LINE
  8
0
 10
-70.0637
 20
41.4828
 11
-73.0608
 21
38.8561
  0
LINE
  8
0
 10
-73.0608
 20
38.8561
 11
-74.0166
 21
38.0184
  0
LINE
  8
0
 10
-74.0166
 20
38.0184
 11
-81.0166
 21
31.0184
  0
LINE
  8
0
 10
-81.0166
 20
31.0184
 11
-81.7519
 21
25.53
  0
LINE
  8
0
 10
-81.7519
 20
25.53
 11
-83.2683
 21
14.2113
  0
LINE
  8
0
 10
-83.2683
 20
14.2113
 11
-83.5104
 21
10.5334
  0
LINE
  8
0
 10
-83.5104
 20
10.5334
 11
-83.6278
 21
8.75
  0
LINE
  8
0
 10
-83.6278
 20
8.75
 11
-83.6278
 21
-8.75
  0
LINE
  8
0
 10
-83.6278
 20
-8.75
 11
-83.5104
 21
-10.5334
  0
LINE
  8
0
 10
-83.5104
 20
-10.5334
 11
-83.2683
 21
-14.2113
  0
LINE
  8
0
 10
-83.2683
 20
-14.2113
 11
-81.7519
 21
-25.53
  0
LINE
  8
0
 10
-81.7519
 20
-25.53
 11
-81.0166
 21
-31.0184
  0
LINE
  8
0
 10
-81.0166
 20
-31.0184
 11
-79.6959
 21
-34.2967
  0
LINE
  8
0
 10
-79.6959
 20
-34.2967
 11
-77.8158
 21
-38.9635
  0
LINE
  8
0
 10
-77.8158
 20
-38.9635
 11
-81.7552
 21
-42.2691
  0
LINE
  8
0
 10
-81.7552
 20
-42.2691
 11
-86.0693
 21
-45.889
  0
LINE
  8
0
 10
-86.0693
 20
-45.889
 11
-86.812
 21
-46.7947
  0
LINE
  8
0
 10
-86.812
 20
-46.7947
 11
-86.812
 21
-46.7948
  0
LINE
  8
0
 10
-86.812
 20
-46.7948
 11
-87.3252
 21
-47.4205
  0
LINE
  8
0
 10
-87.3252
 20
-47.4205
 11
-84.3565
 21
-54.8219
  0
LINE
  8
0
 10
-84.3565
 20
-54.8219
 11
-83.4458
 21
-57.0925
  0
LINE
  8
0
 10
-83.4458
 20
-57.0925
 11
-83.4458
 21
-57.0925
  0
LINE
  8
0
 10
-83.4458
 20
-57.0925
 11
-85.4845
 21
-59.702
  0
LINE
  8
0
 10
-85.4845
 20
-59.702
 11
-86.17
 21
-60.5793
  0
LINE
  8
0
 10
-86.17
 20
-60.5793
 11
-89.995
 21
-67.5171
  0
LINE
  8
0
 10
-89.995
 20
-67.5171
 11
-93.2131
 21
-73.3542
  0
LINE
  8
0
 10
-93.2131
 20
-73.3542
 11
-93.2131
 21
-73.3542
  0
LINE
  8
0
 10
-93.2131
 20
-73.3542
 11
-93.2728
 21
-73.4625
  0
LINE
  8
0
 10
-90.84
 20
-75.2083
 11
-80.7364
 21
-57.4239
  0
LINE
  8
0
 10
-80.7364
 20
-57.4239
 11
-80.7203
 21
-57.4033
  0
LINE
  8
0
 10
-80.7203
 20
-57.4033
 11
-80.4214
 21
-57.0206
  0
LINE
  8
0
 10
-80.4214
 20
-57.0206
 11
-80.3729
 21
-56.9586
  0
LINE
  8
0
 10
-80.3729
 20
-56.9586
 11
-80.3709
 21
-56.9561
  0
LINE
  8
0
 10
-80.3709
 20
-56.9561
 11
-83.3855
 21
-50.0634
  0
LINE
  8
0
 10
-83.3855
 20
-50.0634
 11
-84.4165
 21
-47.7061
  0
LINE
  8
0
 10
-84.4165
 20
-47.7061
 11
-81.9339
 21
-45.623
  0
LINE
  8
0
 10
-81.9339
 20
-45.623
 11
-81.9336
 21
-45.6228
  0
LINE
  8
0
 10
-81.9336
 20
-45.6228
 11
-78.0072
 21
-42.3281
  0
LINE
  8
0
 10
-78.0072
 20
-42.3281
 11
-77.7598
 21
-43.4119
  0
LINE
  8
0
 10
-77.7598
 20
-43.4119
 11
-77.7521
 21
-43.4459
  0
LINE
  8
0
 10
-77.7521
 20
-43.4459
 11
-77.7303
 21
-43.4731
  0
LINE
  8
0
 10
-77.7303
 20
-43.4731
 11
-76.5719
 21
-44.9257
  0
LINE
  8
0
 10
-76.5719
 20
-44.9257
 11
-74.898
 21
-45.7318
  0
LINE
  8
0
 10
-74.898
 20
-45.7318
 11
-74.8666
 21
-45.747
  0
LINE
  8
0
 10
-74.8666
 20
-45.747
 11
-72.9738
 21
-45.747
  0
LINE
  8
0
 10
-72.9738
 20
-45.747
 11
-72.9424
 21
-45.7318
  0
LINE
  8
0
 10
-72.9424
 20
-45.7318
 11
-71.2685
 21
-44.9257
  0
LINE
  8
0
 10
-71.2685
 20
-44.9257
 11
-70.1101
 21
-43.4731
  0
LINE
  8
0
 10
-70.1101
 20
-43.4731
 11
-70.0884
 21
-43.4459
  0
LINE
  8
0
 10
-70.0884
 20
-43.4459
 11
-70.0806
 21
-43.4119
  0
LINE
  8
0
 10
-70.0806
 20
-43.4119
 11
-69.6672
 21
-41.6006
  0
LINE
  8
0
 10
-69.6672
 20
-41.6006
 11
-70.0806
 21
-39.7892
  0
LINE
  8
0
 10
-70.0806
 20
-39.7892
 11
-70.0884
 21
-39.7553
  0
LINE
  8
0
 10
-70.0884
 20
-39.7553
 11
-70.1101
 21
-39.728
  0
LINE
  8
0
 10
-70.1101
 20
-39.728
 11
-71.2685
 21
-38.2754
  0
LINE
  8
0
 10
-71.2685
 20
-38.2754
 11
-72.9424
 21
-37.4693
  0
LINE
  8
0
 10
-72.9424
 20
-37.4693
 11
-72.9738
 21
-37.4542
  0
LINE
  8
0
 10
-72.9738
 20
-37.4542
 11
-74.8666
 21
-37.4542
  0
LINE
  8
0
 10
-74.8666
 20
-37.4542
 11
-74.898
 21
-37.4693
  0
LINE
  8
0
 10
-74.898
 20
-37.4693
 11
-75.2455
 21
-37.6367
  0
LINE
  8
0
 10
-75.2455
 20
-37.6367
 11
-75.6895
 21
-36.8242
  0
LINE
  8
0
 10
-75.6895
 20
-36.8242
 11
-78.9166
 21
-30.9184
  0
LINE
  8
0
 10
-78.9166
 20
-30.9184
 11
-80.575
 21
-18.5397
  0
LINE
  8
0
 10
-80.575
 20
-18.5397
 11
-81.1683
 21
-14.1113
  0
LINE
  8
0
 10
-81.1683
 20
-14.1113
 11
-81.4224
 21
-10.252
  0
LINE
  8
0
 10
-81.4224
 20
-10.252
 11
-81.5278
 21
-8.65
  0
LINE
  8
0
 10
-81.5278
 20
-8.65
 11
-81.5278
 21
8.65
  0
LINE
  8
0
 10
-81.5278
 20
8.65
 11
-81.4224
 21
10.252
  0
LINE
  8
0
 10
-81.4224
 20
10.252
 11
-81.1683
 21
14.1113
  0
LINE
  8
0
 10
-81.1683
 20
14.1113
 11
-80.575
 21
18.5397
  0
LINE
  8
0
 10
-80.575
 20
18.5397
 11
-80.4651
 21
19.36
  0
LINE
  8
0
 10
-80.4651
 20
19.36
 11
-80.3692
 21
19.2397
  0
LINE
  8
0
 10
-80.3692
 20
19.2397
 11
-78.6952
 21
18.4336
  0
LINE
  8
0
 10
-78.6952
 20
18.4336
 11
-78.6639
 21
18.4185
  0
LINE
  8
0
 10
-78.6639
 20
18.4185
 11
-76.7711
 21
18.4185
  0
LINE
  8
0
 10
-76.7711
 20
18.4185
 11
-76.7397
 21
18.4336
  0
LINE
  8
0
 10
-76.7397
 20
18.4336
 11
-75.0658
 21
19.2397
  0
LINE
  8
0
 10
-75.0658
 20
19.2397
 11
-73.9074
 21
20.6923
  0
LINE
  8
0
 10
-73.9074
 20
20.6923
 11
-73.8856
 21
20.7195
  0
LINE
  8
0
 10
-73.8856
 20
20.7195
 11
-73.8779
 21
20.7535
  0
LINE
  8
0
 10
-73.8779
 20
20.7535
 11
-73.4645
 21
22.5649
  0
LINE
  8
0
 10
-73.4645
 20
22.5649
 11
-73.8779
 21
24.3762
  0
LINE
  8
0
 10
-73.8779
 20
24.3762
 11
-73.8856
 21
24.4102
  0
LINE
  8
0
 10
-73.8856
 20
24.4102
 11
-73.9074
 21
24.4374
  0
LINE
  8
0
 10
-73.9074
 20
24.4374
 11
-75.0658
 21
25.89
  0
LINE
  8
0
 10
-75.0658
 20
25.89
 11
-76.7397
 21
26.6961
  0
LINE
  8
0
 10
-76.7397
 20
26.6961
 11
-76.7711
 21
26.7112
  0
LINE
  8
0
 10
-76.7711
 20
26.7112
 11
-78.6639
 21
26.7112
  0
LINE
  8
0
 10
-78.6639
 20
26.7112
 11
-78.6952
 21
26.6961
  0
LINE
  8
0
 10
-78.6952
 20
26.6961
 11
-79.5366
 21
26.291
  0
LINE
  8
0
 10
-79.5366
 20
26.291
 11
-78.9166
 21
30.9184
  0
LINE
  8
0
 10
-78.9166
 20
30.9184
 11
-73.9166
 21
35.9184
  0
LINE
  8
0
 10
-73.9166
 20
35.9184
 11
-72.6917
 21
36.5197
  0
LINE
  8
0
 10
-72.6917
 20
36.5197
 11
-68.5585
 21
38.5485
  0
LINE
  8
0
 10
-68.5585
 20
38.5485
 11
-57.0173
 21
38.5485
  0
LINE
  8
0
 10
-57.0173
 20
38.5485
 11
-53.6008
 21
38.5485
  0
LINE
  8
0
 10
-53.6008
 20
38.5485
 11
-50.7828
 21
38.5485
  0
LINE
  8
0
 10
-50.7828
 20
38.5485
 11
-49.6656
 21
38.5485
  0
LINE
  8
0
 10
-49.6656
 20
38.5485
 11
-38.7127
 21
38.5485
  0
LINE
  8
0
 10
-38.7127
 20
38.5485
 11
-38.6913
 21
38.5485
  0
LINE
  8
0
 10
-38.6913
 20
38.5485
 11
-33.9621
 21
38.5485
  0
LINE
  8
0
 10
-33.9621
 20
38.5485
 11
-32.1606
 21
40.2802
  0
LINE
  8
0
 10
-32.1606
 20
40.2802
 11
-31.0286
 21
41.3685
  0
LINE
  8
0
 10
-31.0286
 20
41.3685
 11
-22.9606
 21
41.3685
  0
LINE
  8
0
 10
-22.9606
 20
41.3685
 11
-14.8658
 21
41.3685
  0
LINE
  8
0
 10
-14.8658
 20
41.3685
 11
-11.7103
 21
39.7182
  0
LINE
  8
0
 10
-11.7103
 20
39.7182
 11
-9.47365
 21
38.5485
  0
LINE
  8
0
 10
-9.47365
 20
38.5485
 11
-5.63203
 21
38.5485
  0
LINE
  8
0
 10
-5.63203
 20
38.5485
 11
-6.12471
 21
37.9307
  0
LINE
  8
0
 10
-6.12471
 20
37.9307
 11
-6.14643
 21
37.9034
  0
LINE
  8
0
 10
-6.14643
 20
37.9034
 11
-6.15419
 21
37.8695
  0
LINE
  8
0
 10
-6.15419
 20
37.8695
 11
-6.56762
 21
36.0581
  0
LINE
  8
0
 10
-6.56762
 20
36.0581
 11
-6.15419
 21
34.2468
  0
LINE
  8
0
 10
-6.15419
 20
34.2468
 11
-6.14643
 21
34.2128
  0
LINE
  8
0
 10
-6.14643
 20
34.2128
 11
-6.12471
 21
34.1856
  0
LINE
  8
0
 10
-6.12471
 20
34.1856
 11
-4.96631
 21
32.733
  0
LINE
  8
0
 10
-4.96631
 20
32.733
 11
-3.29238
 21
31.9268
  0
LINE
  8
0
 10
-3.29238
 20
31.9268
 11
-3.26098
 21
31.9117
  0
LINE
  8
0
 10
-3.26098
 20
31.9117
 11
-1.36821
 21
31.9117
  0
LINE
  8
0
 10
-1.36821
 20
31.9117
 11
-1.33682
 21
31.9268
  0
LINE
  8
0
 10
-1.33682
 20
31.9268
 11
0.337116
 21
32.733
  0
LINE
  8
0
 10
0.337116
 20
32.733
 11
1.49551
 21
34.1856
  0
LINE
  8
0
 10
1.49551
 20
34.1856
 11
1.51724
 21
34.2128
  0
LINE
  8
0
 10
1.51724
 20
34.2128
 11
1.52499
 21
34.2468
  0
LINE
  8
0
 10
1.52499
 20
34.2468
 11
1.93842
 21
36.0581
  0
LINE
  8
0
 10
1.93842
 20
36.0581
 11
1.52499
 21
37.8695
  0
LINE
  8
0
 10
1.52499
 20
37.8695
 11
1.51724
 21
37.9034
  0
LINE
  8
0
 10
1.51724
 20
37.9034
 11
1.49551
 21
37.9307
  0
LINE
  8
0
 10
1.49551
 20
37.9307
 11
1.00284
 21
38.5485
  0
LINE
  8
0
 10
1.00284
 20
38.5485
 11
6.76606
 21
38.5485
  0
LINE
  8
0
 10
6.76606
 20
38.5485
 11
7.16604
 21
37.866
  0
LINE
  8
0
 10
7.16604
 20
37.866
 11
12.4375
 21
27.4543
  0
LINE
  8
0
 10
12.4375
 20
27.4543
 11
12.781
 21
26.9244
  0
LINE
  8
0
 10
12.781
 20
26.9244
 11
13.0246
 21
26.5485
  0
LINE
  8
0
 10
13.0246
 20
26.5485
 11
25.3598
 21
26.5485
  0
LINE
  8
0
 10
25.3598
 20
26.5485
 11
42.0879
 21
26.5485
  0
LINE
  8
0
 10
42.0879
 20
26.5485
 11
42.3069
 21
26.5234
  0
LINE
  8
0
 10
42.3069
 20
26.5234
 11
42.3069
 21
26.5234
  0
LINE
  8
0
 10
42.3069
 20
26.5234
 11
46.1996
 21
21.719
  0
LINE
  8
0
 10
46.1996
 20
21.719
 11
45.3241
 21
11.1581
  0
LINE
  8
0
 10
45.3241
 20
11.1581
 11
44.7206
 21
3.87755
  0
LINE
  8
0
 10
44.7206
 20
3.87755
 11
44.5931
 21
0.84914
  0
LINE
  8
0
 10
44.5931
 20
0.84914
 11
44.4185
 21
-3.3
  0
LINE
  8
0
 10
44.4185
 20
-3.3
 11
44.4185
 21
-19.5411
  0
LINE
  8
0
 10
44.4185
 20
-19.5411
 11
43.7277
 21
-18.6749
  0
LINE
  8
0
 10
43.7277
 20
-18.6749
 11
42.0538
 21
-17.8687
  0
LINE
  8
0
 10
42.0538
 20
-17.8687
 11
42.0224
 21
-17.8536
  0
LINE
  8
0
 10
42.0224
 20
-17.8536
 11
40.1296
 21
-17.8536
  0
LINE
  8
0
 10
40.1296
 20
-17.8536
 11
40.0982
 21
-17.8687
  0
LINE
  8
0
 10
40.0982
 20
-17.8687
 11
38.4243
 21
-18.6749
  0
LINE
  8
0
 10
38.4243
 20
-18.6749
 11
37.2659
 21
-20.1274
  0
LINE
  8
0
 10
37.2659
 20
-20.1274
 11
37.2442
 21
-20.1547
  0
LINE
  8
0
 10
37.2442
 20
-20.1547
 11
37.2364
 21
-20.1887
  0
LINE
  8
0
 10
37.2364
 20
-20.1887
 11
36.823
 21
-22
  0
LINE
  8
0
 10
36.823
 20
-22
 11
37.2364
 21
-23.8113
  0
LINE
  8
0
 10
37.2364
 20
-23.8113
 11
37.2442
 21
-23.8453
  0
LINE
  8
0
 10
37.2442
 20
-23.8453
 11
37.2659
 21
-23.8726
  0
LINE
  8
0
 10
37.2659
 20
-23.8726
 11
38.4243
 21
-25.3251
  0
LINE
  8
0
 10
38.4243
 20
-25.3251
 11
40.0982
 21
-26.1313
  0
LINE
  8
0
 10
40.0982
 20
-26.1313
 11
40.1296
 21
-26.1464
  0
LINE
  8
0
 10
40.1296
 20
-26.1464
 11
42.0224
 21
-26.1464
  0
LINE
  8
0
 10
42.0224
 20
-26.1464
 11
42.0538
 21
-26.1313
  0
LINE
  8
0
 10
42.0538
 20
-26.1313
 11
43.7277
 21
-25.3251
  0
LINE
  8
0
 10
43.7277
 20
-25.3251
 11
44.5687
 21
-24.2705
  0
LINE
  8
0
 10
44.5687
 20
-24.2705
 11
44.5931
 21
-24.8491
  0
LINE
  8
0
 10
44.5931
 20
-24.8491
 11
44.7206
 21
-27.8776
  0
LINE
  8
0
 10
44.7206
 20
-27.8776
 11
45.3241
 21
-35.1581
  0
LINE
  8
0
 10
45.3241
 20
-35.1581
 11
46.1996
 21
-45.719
  0
LINE
  8
0
 10
46.1996
 20
-45.719
 11
42.3069
 21
-50.5234
  0
LINE
  8
0
 10
42.3069
 20
-50.5234
 11
42.3069
 21
-50.5234
  0
LINE
  8
0
 10
42.3069
 20
-50.5234
 11
42.0879
 21
-50.5485
  0
LINE
  8
0
 10
42.0879
 20
-50.5485
 11
25.3598
 21
-50.5485
  0
LINE
  8
0
 10
25.3598
 20
-50.5485
 11
13.0246
 21
-50.5485
  0
LINE
  8
0
 10
13.0246
 20
-50.5485
 11
12.781
 21
-50.9244
  0
LINE
  8
0
 10
12.781
 20
-50.9244
 11
12.4375
 21
-51.4543
  0
LINE
  8
0
 10
12.4375
 20
-51.4543
 11
12.4408
 21
-51.5242
  0
LINE
  8
0
 10
12.4408
 20
-51.5242
 11
12.5004
 21
-52.8051
  0
LINE
  8
0
 10
12.5004
 20
-52.8051
 11
12.5274
 21
-53.3862
  0
LINE
  8
0
 10
12.5274
 20
-53.3862
 11
12.5306
 21
-53.4536
  0
LINE
  8
0
 10
12.5306
 20
-53.4536
 11
12.5319
 21
-53.4828
  0
LINE
  8
0
 10
12.5319
 20
-53.4828
 11
12.5319
 21
-53.4828
  0
LINE
  8
0
 10
12.5319
 20
-53.4828
 11
12.6007
 21
-53.4828
  0
LINE
  8
0
 10
12.6007
 20
-53.4828
 11
16.4304
 21
-53.4828
  0
LINE
  8
0
 10
16.4304
 20
-53.4828
 11
15.5997
 21
-55.2924
  0
LINE
  8
0
 10
15.5997
 20
-55.2924
 11
13.0393
 21
-60.8699
  0
LINE
  8
0
 10
13.0393
 20
-60.8699
 11
6.64344
 21
-60.8699
  0
LINE
  8
0
 10
6.64344
 20
-60.8699
 11
-6.08605
 21
-60.8699
  0
LINE
  8
0
 10
-6.08605
 20
-60.8699
 11
-10.0103
 21
-61.9753
  0
LINE
  8
0
 10
-10.0103
 20
-61.9753
 11
-14.5757
 21
-63.2612
  0
LINE
  8
0
 10
-14.5757
 20
-63.2612
 11
-14.4573
 21
-62.7426
  0
LINE
  8
0
 10
-14.4573
 20
-62.7426
 11
-14.8708
 21
-60.9313
  0
LINE
  8
0
 10
-14.8708
 20
-60.9313
 11
-14.8785
 21
-60.8973
  0
LINE
  8
0
 10
-14.8785
 20
-60.8973
 11
-14.9002
 21
-60.87
  0
LINE
  8
0
 10
-14.9002
 20
-60.87
 11
-16.0586
 21
-59.4175
  0
LINE
  8
0
 10
-16.0586
 20
-59.4175
 11
-17.7326
 21
-58.6113
  0
LINE
  8
0
 10
-17.7326
 20
-58.6113
 11
-17.764
 21
-58.5962
  0
LINE
  8
0
 10
-17.764
 20
-58.5962
 11
-19.6567
 21
-58.5962
  0
LINE
  8
0
 10
-19.6567
 20
-58.5962
 11
-19.6881
 21
-58.6113
  0
LINE
  8
0
 10
-19.6881
 20
-58.6113
 11
-21.3621
 21
-59.4175
  0
LINE
  8
0
 10
-21.3621
 20
-59.4175
 11
-22.5205
 21
-60.87
  0
LINE
  8
0
 10
-22.5205
 20
-60.87
 11
-22.5422
 21
-60.8973
  0
LINE
  8
0
 10
-22.5422
 20
-60.8973
 11
-22.5499
 21
-60.9313
  0
LINE
  8
0
 10
-22.5499
 20
-60.9313
 11
-22.9634
 21
-62.7426
  0
LINE
  8
0
 10
-22.9634
 20
-62.7426
 11
-22.5499
 21
-64.5539
  0
LINE
  8
0
 10
-22.5499
 20
-64.5539
 11
-22.5422
 21
-64.5879
  0
LINE
  8
0
 10
-22.5422
 20
-64.5879
 11
-22.5205
 21
-64.6152
  0
LINE
  8
0
 10
-22.5205
 20
-64.6152
 11
-21.3621
 21
-66.0677
  0
LINE
  8
0
 10
-21.3621
 20
-66.0677
 11
-21.186
 21
-66.1525
  0
LINE
  8
0
 10
-21.186
 20
-66.1525
 11
-27.7542
 21
-70.421
  0
LINE
  8
0
 10
-27.7542
 20
-70.421
 11
-27.7545
 21
-70.4212
  0
LINE
  8
0
 10
-27.7545
 20
-70.4212
 11
-32.1398
 21
-73.271
  0
LINE
  8
0
 10
-32.1398
 20
-73.271
 11
-33.0149
 21
-73.939
  0
LINE
  8
0
 10
-33.0149
 20
-73.939
 11
-33.7141
 21
-74.4727
  0
LINE
  8
0
 10
-33.7141
 20
-74.4727
 11
-33.736
 21
-74.497
  0
LINE
  8
0
 10
-33.736
 20
-74.497
 11
-39.5424
 21
-80.9456
  0
LINE
  8
0
 10
-39.5424
 20
-80.9456
 11
-43.3463
 21
-85.1703
  0
LINE
  8
0
 10
-43.3463
 20
-85.1703
 11
-43.3463
 21
-85.1703
  0
LINE
  8
0
 10
-43.3463
 20
-85.1703
 11
-43.3665
 21
-85.1928
  0
LINE
  8
0
 10
-43.3665
 20
-85.1928
 11
-42.6985
 21
-88.2928
  0
LINE
  8
0
 10
-42.6985
 20
-88.2928
 11
-42.3539
 21
-89.8924
  0
LINE
  8
0
 10
-42.3539
 20
-89.8924
 11
-44.9583
 21
-93.477
  0
LINE
  8
0
 10
-44.9583
 20
-93.477
 11
-49.9997
 21
-96.8168
  0
LINE
  8
0
 10
-49.9997
 20
-96.8168
 11
-56.2541
 21
-100.96
  0
LINE
  8
0
 10
-56.2541
 20
-100.96
 11
-58.9148
 21
-100.996
  0
LINE
  8
0
 10
-58.9148
 20
-100.996
 11
-61.6883
 21
-98.5697
  0
LINE
  8
0
 10
-61.6883
 20
-98.5697
 11
-72.1896
 21
-89.3824
  0
LINE
  8
0
 10
-72.1896
 20
-89.3824
 11
-72.2536
 21
-89.3359
  0
LINE
  8
0
 10
-72.2536
 20
-89.3359
 11
-72.3372
 21
-89.2752
  0
LINE
  8
0
 10
-72.3372
 20
-89.2752
 11
-72.3704
 21
-89.2552
  0
LINE
  8
0
 10
-72.3704
 20
-89.2552
 11
-77.3468
 21
-87.8084
  0
LINE
  8
0
 10
-77.3468
 20
-87.8084
 11
-77.3468
 21
-87.8084
  0
LINE
  8
0
 10
-77.3468
 20
-87.8084
 11
-87.8629
 21
-79.1953
  0
LINE
  8
0
 10
-87.8629
 20
-79.1953
 11
-90.677
 21
-76.8904
  0
LINE
  8
0
 10
-90.677
 20
-76.8904
 11
-90.84
 21
-75.2083
  0
LINE
  8
0
 10
-79.4175
 20
22.5649
 11
-78.5675
 21
24.0371
  0
LINE
  8
0
 10
-78.5675
 20
24.0371
 11
-76.8675
 21
24.0371
  0
LINE
  8
0
 10
-76.8675
 20
24.0371
 11
-76.0175
 21
22.5649
  0
LINE
  8
0
 10
-76.0175
 20
22.5649
 11
-76.8675
 21
21.0926
  0
LINE
  8
0
 10
-76.8675
 20
21.0926
 11
-78.5675
 21
21.0926
  0
LINE
  8
0
 10
-78.5675
 20
21.0926
 11
-79.4175
 21
22.5649
  0
LINE
  8
0
 10
-75.6202
 20
-41.6006
 11
-74.7702
 21
-40.1283
  0
LINE
  8
0
 10
-74.7702
 20
-40.1283
 11
-73.0702
 21
-40.1283
  0
LINE
  8
0
 10
-73.0702
 20
-40.1283
 11
-72.2202
 21
-41.6006
  0
LINE
  8
0
 10
-72.2202
 20
-41.6006
 11
-73.0702
 21
-43.0728
  0
LINE
  8
0
 10
-73.0702
 20
-43.0728
 11
-74.7702
 21
-43.0728
  0
LINE
  8
0
 10
-74.7702
 20
-43.0728
 11
-75.6202
 21
-41.6006
  0
LINE
  8
0
 10
-20.4103
 20
-62.7426
 11
-19.5603
 21
-61.2704
  0
LINE
  8
0
 10
-19.5603
 20
-61.2704
 11
-17.8603
 21
-61.2704
  0
LINE
  8
0
 10
-17.8603
 20
-61.2704
 11
-17.0103
 21
-62.7426
  0
LINE
  8
0
 10
-17.0103
 20
-62.7426
 11
-17.8603
 21
-64.2148
  0
LINE
  8
0
 10
-17.8603
 20
-64.2148
 11
-19.5603
 21
-64.2148
  0
LINE
  8
0
 10
-19.5603
 20
-64.2148
 11
-20.4103
 21
-62.7426
  0
LINE
  8
0
 10
-4.0146
 20
36.0581
 11
-3.1646
 21
37.5304
  0
LINE
  8
0
 10
-3.1646
 20
37.5304
 11
-1.4646
 21
37.5304
  0
LINE
  8
0
 10
-1.4646
 20
37.5304
 11
-0.614597
 21
36.0581
  0
LINE
  8
0
 10
-0.614597
 20
36.0581
 11
-1.4646
 21
34.5859
  0
LINE
  8
0
 10
-1.4646
 20
34.5859
 11
-3.1646
 21
34.5859
  0
LINE
  8
0
 10
-3.1646
 20
34.5859
 11
-4.0146
 21
36.0581
  0
LINE
  8
0
 10
39.376
 20
-22
 11
40.226
 21
-20.5278
  0
LINE
  8
0
 10
40.226
 20
-20.5278
 11
41.926
 21
-20.5278
  0
LINE
  8
0
 10
41.926
 20
-20.5278
 11
42.776
 21
-22
  0
LINE
  8
0
 10
42.776
 20
-22
 11
41.926
 21
-23.4722
  0
LINE
  8
0
 10
41.926
 20
-23.4722
 11
40.226
 21
-23.4722
  0
LINE
  8
0
 10
40.226
 20
-23.4722
 11
39.376
 21
-22
  0
ENDSEC
  0
SECTION
  2
OBJECTS
  0
DICTIONARY
  0
ENDSEC
  0
EOF
