  0
SECTION
  2
BLOCKS
  0
ENDSEC
  0
SECTION
  2
ENTITIES
  0
LINE
  8
0
 10
-76.5038
 20
-71.8001
 11
-76.0367
 21
-76.3301
  0
LINE
  8
0
 10
-76.0367
 20
-76.3301
 11
-75.5162
 21
-81.3781
  0
LINE
  8
0
 10
-75.5162
 20
-81.3781
 11
-75.5056
 21
-81.3868
  0
LINE
  8
0
 10
-75.5056
 20
-81.3868
 11
-73.5344
 21
-83.0057
  0
LINE
  8
0
 10
-73.5344
 20
-83.0057
 11
-62.0459
 21
-92.4405
  0
LINE
  8
0
 10
-62.0459
 20
-92.4405
 11
-60.9406
 21
-92.9898
  0
LINE
  8
0
 10
-60.9406
 20
-92.9898
 11
-58.3863
 21
-93.3234
  0
LINE
  8
0
 10
-58.3863
 20
-93.3234
 11
-57.4314
 21
-93.0232
  0
LINE
  8
0
 10
-57.4314
 20
-93.0232
 11
-56.4401
 21
-92.5856
  0
LINE
  8
0
 10
-56.4401
 20
-92.5856
 11
-55.191
 21
-94.5645
  0
LINE
  8
0
 10
-55.191
 20
-94.5645
 11
-54.0823
 21
-96.321
  0
LINE
  8
0
 10
-54.0823
 20
-96.321
 11
-46.2253
 21
-103.268
  0
LINE
  8
0
 10
-46.2253
 20
-103.268
 11
-44.0012
 21
-105.234
  0
LINE
  8
0
 10
-44.0012
 20
-105.234
 11
-43.9861
 21
-105.248
  0
LINE
  8
0
 10
-43.9861
 20
-105.248
 11
-43.9694
 21
-105.263
  0
LINE
  8
0
 10
-43.9694
 20
-105.263
 11
-36.9045
 21
-105.229
  0
LINE
  8
0
 10
-36.9045
 20
-105.229
 11
-31.7126
 21
-105.204
  0
LINE
  8
0
 10
-31.7126
 20
-105.204
 11
-31.6387
 21
-105.157
  0
LINE
  8
0
 10
-31.6387
 20
-105.157
 11
-31.6049
 21
-105.135
  0
LINE
  8
0
 10
-31.6049
 20
-105.135
 11
-28.5854
 21
-103.2
  0
LINE
  8
0
 10
-28.5854
 20
-103.2
 11
-25.3389
 21
-101.119
  0
LINE
  8
0
 10
-25.3389
 20
-101.119
 11
-23.2226
 21
-98.9933
  0
LINE
  8
0
 10
-23.2226
 20
-98.9933
 11
-20.9275
 21
-96.6883
  0
LINE
  8
0
 10
-20.9275
 20
-96.6883
 11
-19.9958
 21
-95.4059
  0
LINE
  8
0
 10
-19.9958
 20
-95.4059
 11
-19.9957
 21
-95.4057
  0
LINE
  8
0
 10
-19.9957
 20
-95.4057
 11
-17.8193
 21
-92.4101
  0
LINE
  8
0
 10
-17.8193
 20
-92.4101
 11
-17.8193
 21
-92.4101
  0
LINE
  8
0
 10
-17.8193
 20
-92.4101
 11
-18.1329
 21
-91.1755
  0
LINE
  8
0
 10
-18.1329
 20
-91.1755
 11
-19.0553
 21
-87.5449
  0
LINE
  8
0
 10
-19.0553
 20
-87.5449
 11
-19.0553
 21
-87.5449
  0
LINE
  8
0
 10
-19.0553
 20
-87.5449
 11
-14.8399
 21
-82.8632
  0
LINE
  8
0
 10
-14.8399
 20
-82.8632
 11
-9.81233
 21
-77.2796
  0
LINE
  8
0
 10
-9.81233
 20
-77.2796
 11
-6.77409
 21
-75.2073
  0
LINE
  8
0
 10
-6.77409
 20
-75.2073
 11
0.355246
 21
-70.3447
  0
LINE
  8
0
 10
0.355246
 20
-70.3447
 11
0.634983
 21
-70.4794
  0
LINE
  8
0
 10
0.634983
 20
-70.4794
 11
0.666379
 21
-70.4945
  0
LINE
  8
0
 10
0.666379
 20
-70.4945
 11
2.55915
 21
-70.4945
  0
LINE
  8
0
 10
2.55915
 20
-70.4945
 11
2.59055
 21
-70.4794
  0
LINE
  8
0
 10
2.59055
 20
-70.4794
 11
4.26448
 21
-69.6733
  0
LINE
  8
0
 10
4.26448
 20
-69.6733
 11
4.65489
 21
-69.1837
  0
LINE
  8
0
 10
4.65489
 20
-69.1837
 11
5.20198
 21
-69.0623
  0
LINE
  8
0
 10
5.20198
 20
-69.0623
 11
14.3304
 21
-67.0366
  0
LINE
  8
0
 10
14.3304
 20
-67.0366
 11
22.3837
 21
-67.0366
  0
LINE
  8
0
 10
22.3837
 20
-67.0366
 11
22.4255
 21
-67.0366
  0
LINE
  8
0
 10
22.4255
 20
-67.0366
 11
36.2916
 21
-67.0366
  0
LINE
  8
0
 10
36.2916
 20
-67.0366
 11
41.6147
 21
-60.8365
  0
LINE
  8
0
 10
41.6147
 20
-60.8365
 11
45.4404
 21
-56.3805
  0
LINE
  8
0
 10
45.4404
 20
-56.3805
 11
45.848
 21
-56.3805
  0
LINE
  8
0
 10
45.848
 20
-56.3805
 11
52.6646
 21
-56.3805
  0
LINE
  8
0
 10
52.6646
 20
-56.3805
 11
56.0706
 21
-56.3805
  0
LINE
  8
0
 10
56.0706
 20
-56.3805
 11
75.547
 21
-56.3805
  0
LINE
  8
0
 10
75.547
 20
-56.3805
 11
82.9858
 21
-49.1953
  0
LINE
  8
0
 10
82.9858
 20
-49.1953
 11
85.547
 21
-46.7213
  0
LINE
  8
0
 10
85.547
 20
-46.7213
 11
85.547
 21
-46.6493
  0
LINE
  8
0
 10
85.547
 20
-46.6493
 11
85.547
 21
-46.6493
  0
LINE
  8
0
 10
85.547
 20
-46.6493
 11
85.5471
 21
-33.7426
  0
LINE
  8
0
 10
85.5471
 20
-33.7426
 11
85.5471
 21
-33.7426
  0
LINE
  8
0
 10
85.5471
 20
-33.7426
 11
85.5471
 21
9.7426
  0
LINE
  8
0
 10
85.5471
 20
9.7426
 11
85.5471
 21
9.7426
  0
LINE
  8
0
 10
85.5471
 20
9.7426
 11
85.547
 21
22.6493
  0
LINE
  8
0
 10
85.547
 20
22.6493
 11
85.547
 21
24.8584
  0
LINE
  8
0
 10
85.547
 20
24.8584
 11
85.547
 21
24.9427
  0
LINE
  8
0
 10
85.547
 20
24.9427
 11
85.547
 21
31.3431
  0
LINE
  8
0
 10
85.547
 20
31.3431
 11
85.547
 21
37.4938
  0
LINE
  8
0
 10
85.547
 20
37.4938
 11
85.547
 21
46.3425
  0
LINE
  8
0
 10
85.547
 20
46.3425
 11
85.547
 21
50.8705
  0
LINE
  8
0
 10
85.547
 20
50.8705
 11
85.547
 21
50.9101
  0
LINE
  8
0
 10
85.547
 20
50.9101
 11
85.547
 21
53.7976
  0
LINE
  8
0
 10
85.547
 20
53.7976
 11
85.547
 21
62.1072
  0
LINE
  8
0
 10
85.547
 20
62.1072
 11
85.547
 21
66.0532
  0
LINE
  8
0
 10
85.547
 20
66.0532
 11
77.8532
 21
71.4936
  0
LINE
  8
0
 10
77.8532
 20
71.4936
 11
75.547
 21
73.1243
  0
LINE
  8
0
 10
75.547
 20
73.1243
 11
38.5029
 21
73.1243
  0
LINE
  8
0
 10
38.5029
 20
73.1243
 11
37.73
 21
75.6605
  0
LINE
  8
0
 10
37.73
 20
75.6605
 11
34.8462
 21
85.1243
  0
LINE
  8
0
 10
34.8462
 20
85.1243
 11
28.3689
 21
85.1243
  0
LINE
  8
0
 10
28.3689
 20
85.1243
 11
28.2547
 21
85.2675
  0
LINE
  8
0
 10
28.2547
 20
85.2675
 11
26.5808
 21
86.0736
  0
LINE
  8
0
 10
26.5808
 20
86.0736
 11
26.5494
 21
86.0887
  0
LINE
  8
0
 10
26.5494
 20
86.0887
 11
24.6566
 21
86.0887
  0
LINE
  8
0
 10
24.6566
 20
86.0887
 11
24.6252
 21
86.0736
  0
LINE
  8
0
 10
24.6252
 20
86.0736
 11
22.9513
 21
85.2675
  0
LINE
  8
0
 10
22.9513
 20
85.2675
 11
22.8371
 21
85.1243
  0
LINE
  8
0
 10
22.8371
 20
85.1243
 11
17.809
 21
85.1243
  0
LINE
  8
0
 10
17.809
 20
85.1243
 11
17.122
 21
85.7311
  0
LINE
  8
0
 10
17.122
 20
85.7311
 11
14.6166
 21
87.9443
  0
LINE
  8
0
 10
14.6166
 20
87.9443
 11
1.42619
 21
87.9443
  0
LINE
  8
0
 10
1.42619
 20
87.9443
 11
-2.17152
 21
87.9443
  0
LINE
  8
0
 10
-2.17152
 20
87.9443
 11
-2.19049
 21
87.9443
  0
LINE
  8
0
 10
-2.19049
 20
87.9443
 11
-2.58499
 21
86.7194
  0
LINE
  8
0
 10
-2.58499
 20
86.7194
 11
-3.09869
 21
85.1243
  0
LINE
  8
0
 10
-3.09869
 20
85.1243
 11
-37.0838
 21
85.1243
  0
LINE
  8
0
 10
-37.0838
 20
85.1243
 11
-38.6621
 21
83.8055
  0
LINE
  8
0
 10
-38.6621
 20
83.8055
 11
-45.789
 21
77.8502
  0
LINE
  8
0
 10
-45.789
 20
77.8502
 11
-55.789
 21
67.8502
  0
LINE
  8
0
 10
-55.789
 20
67.8502
 11
-56.782
 21
65.5007
  0
LINE
  8
0
 10
-56.782
 20
65.5007
 11
-57.3611
 21
65.7796
  0
LINE
  8
0
 10
-57.3611
 20
65.7796
 11
-57.3925
 21
65.7947
  0
LINE
  8
0
 10
-57.3925
 20
65.7947
 11
-59.2853
 21
65.7947
  0
LINE
  8
0
 10
-59.2853
 20
65.7947
 11
-59.3167
 21
65.7796
  0
LINE
  8
0
 10
-59.3167
 20
65.7796
 11
-60.9906
 21
64.9735
  0
LINE
  8
0
 10
-60.9906
 20
64.9735
 11
-62.149
 21
63.5209
  0
LINE
  8
0
 10
-62.149
 20
63.5209
 11
-62.1708
 21
63.4937
  0
LINE
  8
0
 10
-62.1708
 20
63.4937
 11
-62.1785
 21
63.4597
  0
LINE
  8
0
 10
-62.1785
 20
63.4597
 11
-62.5919
 21
61.6484
  0
LINE
  8
0
 10
-62.5919
 20
61.6484
 11
-62.1785
 21
59.837
  0
LINE
  8
0
 10
-62.1785
 20
59.837
 11
-62.1708
 21
59.803
  0
LINE
  8
0
 10
-62.1708
 20
59.803
 11
-62.149
 21
59.7758
  0
LINE
  8
0
 10
-62.149
 20
59.7758
 11
-60.9906
 21
58.3232
  0
LINE
  8
0
 10
-60.9906
 20
58.3232
 11
-60.0141
 21
57.8529
  0
LINE
  8
0
 10
-60.0141
 20
57.8529
 11
-60.9888
 21
55.5465
  0
LINE
  8
0
 10
-60.9888
 20
55.5465
 11
-61.3335
 21
54.4834
  0
LINE
  8
0
 10
-61.3335
 20
54.4834
 11
-62.406
 21
51.1764
  0
LINE
  8
0
 10
-62.406
 20
51.1764
 11
-65.1883
 21
39.7734
  0
LINE
  8
0
 10
-65.1883
 20
39.7734
 11
-66.0827
 21
36.1075
  0
LINE
  8
0
 10
-66.0827
 20
36.1075
 11
-66.3664
 21
34.4872
  0
LINE
  8
0
 10
-66.3664
 20
34.4872
 11
-66.9736
 21
31.0184
  0
LINE
  8
0
 10
-66.9736
 20
31.0184
 11
-68.2709
 21
19.5625
  0
LINE
  8
0
 10
-68.2709
 20
19.5625
 11
-68.8769
 21
14.2113
  0
LINE
  8
0
 10
-68.8769
 20
14.2113
 11
-69.0697
 21
10.7456
  0
LINE
  8
0
 10
-69.0697
 20
10.7456
 11
-69.1807
 21
8.75
  0
LINE
  8
0
 10
-69.1807
 20
8.75
 11
-69.1807
 21
-8.75
  0
LINE
  8
0
 10
-69.1807
 20
-8.75
 11
-69.0697
 21
-10.7456
  0
LINE
  8
0
 10
-69.0697
 20
-10.7456
 11
-68.8769
 21
-14.2113
  0
LINE
  8
0
 10
-68.8769
 20
-14.2113
 11
-68.2709
 21
-19.5625
  0
LINE
  8
0
 10
-68.2709
 20
-19.5625
 11
-66.9736
 21
-31.0184
  0
LINE
  8
0
 10
-66.9736
 20
-31.0184
 11
-63.0274
 21
-35.523
  0
LINE
  8
0
 10
-63.0274
 20
-35.523
 11
-61.4251
 21
-37.352
  0
LINE
  8
0
 10
-61.4251
 20
-37.352
 11
-63.9202
 21
-39.4456
  0
LINE
  8
0
 10
-63.9202
 20
-39.4456
 11
-65.1407
 21
-39.4456
  0
LINE
  8
0
 10
-65.1407
 20
-39.4456
 11
-65.1721
 21
-39.4607
  0
LINE
  8
0
 10
-65.1721
 20
-39.4607
 11
-66.8461
 21
-40.2668
  0
LINE
  8
0
 10
-66.8461
 20
-40.2668
 11
-68.0045
 21
-41.7194
  0
LINE
  8
0
 10
-68.0045
 20
-41.7194
 11
-68.0262
 21
-41.7467
  0
LINE
  8
0
 10
-68.0262
 20
-41.7467
 11
-68.034
 21
-41.7806
  0
LINE
  8
0
 10
-68.034
 20
-41.7806
 11
-68.3492
 21
-43.162
  0
LINE
  8
0
 10
-68.3492
 20
-43.162
 11
-68.9912
 21
-43.7007
  0
LINE
  8
0
 10
-68.9912
 20
-43.7007
 11
-68.9912
 21
-43.7007
  0
LINE
  8
0
 10
-68.9912
 20
-43.7007
 11
-69.0097
 21
-43.7162
  0
LINE
  8
0
 10
-69.0097
 20
-43.7162
 11
-69.3763
 21
-44.1632
  0
LINE
  8
0
 10
-69.3763
 20
-44.1632
 11
-69.3763
 21
-44.1632
  0
LINE
  8
0
 10
-69.3763
 20
-44.1632
 11
-70.2656
 21
-45.2476
  0
LINE
  8
0
 10
-70.2656
 20
-45.2476
 11
-70.2656
 21
-45.2476
  0
LINE
  8
0
 10
-70.2656
 20
-45.2476
 11
-68.7666
 21
-49.32
  0
LINE
  8
0
 10
-68.7666
 20
-49.32
 11
-66.6185
 21
-55.1554
  0
LINE
  8
0
 10
-66.6185
 20
-55.1554
 11
-69.0259
 21
-58.2367
  0
LINE
  8
0
 10
-69.0259
 20
-58.2367
 11
-69.0259
 21
-58.2367
  0
LINE
  8
0
 10
-69.0259
 20
-58.2367
 11
-69.0259
 21
-58.2367
  0
LINE
  8
0
 10
-69.0259
 20
-58.2367
 11
-73.0762
 21
-65.5833
  0
LINE
  8
0
 10
-73.0762
 20
-65.5833
 11
-76.4441
 21
-71.6918
  0
LINE
  8
0
 10
-76.4441
 20
-71.6918
 11
-76.4441
 21
-71.6918
  0
LINE
  8
0
 10
-76.4441
 20
-71.6918
 11
-76.5038
 21
-71.8001
  0
LINE
  8
0
 10
-71.763
 20
-75.3491
 11
-67.2457
 21
-67.3978
  0
LINE
  8
0
 10
-67.2457
 20
-67.3978
 11
-61.4587
 21
-57.2113
  0
LINE
  8
0
 10
-61.4587
 20
-57.2113
 11
-61.3097
 21
-57.0206
  0
LINE
  8
0
 10
-61.3097
 20
-57.0206
 11
-61.2604
 21
-56.9575
  0
LINE
  8
0
 10
-61.2604
 20
-56.9575
 11
-61.2604
 21
-56.9575
  0
LINE
  8
0
 10
-61.2604
 20
-56.9575
 11
-61.2593
 21
-56.9561
  0
LINE
  8
0
 10
-61.2593
 20
-56.9561
 11
-61.2593
 21
-56.9561
  0
LINE
  8
0
 10
-61.2593
 20
-56.9561
 11
-64.3149
 21
-49.9696
  0
LINE
  8
0
 10
-64.3149
 20
-49.9696
 11
-65.3048
 21
-47.7061
  0
LINE
  8
0
 10
-65.3048
 20
-47.7061
 11
-65.2694
 21
-47.6764
  0
LINE
  8
0
 10
-65.2694
 20
-47.6764
 11
-65.1721
 21
-47.7232
  0
LINE
  8
0
 10
-65.1721
 20
-47.7232
 11
-65.1407
 21
-47.7384
  0
LINE
  8
0
 10
-65.1407
 20
-47.7384
 11
-63.248
 21
-47.7384
  0
LINE
  8
0
 10
-63.248
 20
-47.7384
 11
-63.2166
 21
-47.7232
  0
LINE
  8
0
 10
-63.2166
 20
-47.7232
 11
-61.5426
 21
-46.9171
  0
LINE
  8
0
 10
-61.5426
 20
-46.9171
 11
-60.3843
 21
-45.4645
  0
LINE
  8
0
 10
-60.3843
 20
-45.4645
 11
-60.3625
 21
-45.4373
  0
LINE
  8
0
 10
-60.3625
 20
-45.4373
 11
-60.3548
 21
-45.4033
  0
LINE
  8
0
 10
-60.3548
 20
-45.4033
 11
-59.9413
 21
-43.592
  0
LINE
  8
0
 10
-59.9413
 20
-43.592
 11
-60.0154
 21
-43.2677
  0
LINE
  8
0
 10
-60.0154
 20
-43.2677
 11
-56.6793
 21
-40.4684
  0
LINE
  8
0
 10
-56.6793
 20
-40.4684
 11
-55.9189
 21
-39.5412
  0
LINE
  8
0
 10
-55.9189
 20
-39.5412
 11
-55.9189
 21
-39.5412
  0
LINE
  8
0
 10
-55.9189
 20
-39.5412
 11
-55.4233
 21
-38.937
  0
LINE
  8
0
 10
-55.4233
 20
-38.937
 11
-57.2728
 21
-36.6378
  0
LINE
  8
0
 10
-57.2728
 20
-36.6378
 11
-61.8736
 21
-30.9184
  0
LINE
  8
0
 10
-61.8736
 20
-30.9184
 11
-62.2667
 21
-27.4471
  0
LINE
  8
0
 10
-62.2667
 20
-27.4471
 11
-56.5767
 21
-27.4471
  0
LINE
  8
0
 10
-56.5767
 20
-27.4471
 11
-56.5767
 21
25.4471
  0
LINE
  8
0
 10
-56.5767
 20
25.4471
 11
-62.4932
 21
25.4471
  0
LINE
  8
0
 10
-62.4932
 20
25.4471
 11
-62.4909
 21
25.4676
  0
LINE
  8
0
 10
-62.4909
 20
25.4676
 11
-61.8736
 21
30.9184
  0
LINE
  8
0
 10
-61.8736
 20
30.9184
 11
-61.6313
 21
32.3026
  0
LINE
  8
0
 10
-61.6313
 20
32.3026
 11
-60.9827
 21
36.0075
  0
LINE
  8
0
 10
-60.9827
 20
36.0075
 11
-60.1579
 21
39.3881
  0
LINE
  8
0
 10
-60.1579
 20
39.3881
 11
-57.306
 21
51.0764
  0
LINE
  8
0
 10
-57.306
 20
51.0764
 11
-56.2067
 21
54.4661
  0
LINE
  8
0
 10
-56.2067
 20
54.4661
 11
-55.8888
 21
55.4465
  0
LINE
  8
0
 10
-55.8888
 20
55.4465
 11
-51.7818
 21
65.1645
  0
LINE
  8
0
 10
-51.7818
 20
65.1645
 11
-50.689
 21
67.7502
  0
LINE
  8
0
 10
-50.689
 20
67.7502
 11
-45.689
 21
72.7502
  0
LINE
  8
0
 10
-45.689
 20
72.7502
 11
-44.4907
 21
73.6678
  0
LINE
  8
0
 10
-44.4907
 20
73.6678
 11
-37.4713
 21
79.0432
  0
LINE
  8
0
 10
-37.4713
 20
79.0432
 11
-24.0904
 21
79.0432
  0
LINE
  8
0
 10
-24.0904
 20
79.0432
 11
-21.807
 21
79.0432
  0
LINE
  8
0
 10
-21.807
 20
79.0432
 11
-19.9521
 21
79.0432
  0
LINE
  8
0
 10
-19.9521
 20
79.0432
 11
-19.5919
 21
79.0432
  0
LINE
  8
0
 10
-19.5919
 20
79.0432
 11
-6.01655
 21
79.0432
  0
LINE
  8
0
 10
-6.01655
 20
79.0432
 11
-6.00255
 21
79.0432
  0
LINE
  8
0
 10
-6.00255
 20
79.0432
 11
-3.31967
 21
79.0432
  0
LINE
  8
0
 10
-3.31967
 20
79.0432
 11
-3.11128
 21
79.6525
  0
LINE
  8
0
 10
-3.11128
 20
79.6525
 11
-2.35518
 21
81.8632
  0
LINE
  8
0
 10
-2.35518
 20
81.8632
 11
10.9524
 21
81.8632
  0
LINE
  8
0
 10
10.9524
 20
81.8632
 11
14.2272
 21
81.8632
  0
LINE
  8
0
 10
14.2272
 20
81.8632
 11
16.7904
 21
79.6641
  0
LINE
  8
0
 10
16.7904
 20
79.6641
 11
17.514
 21
79.0432
  0
LINE
  8
0
 10
17.514
 20
79.0432
 11
22.6116
 21
79.0432
  0
LINE
  8
0
 10
22.6116
 20
79.0432
 11
22.9513
 21
78.6172
  0
LINE
  8
0
 10
22.9513
 20
78.6172
 11
24.6252
 21
77.8111
  0
LINE
  8
0
 10
24.6252
 20
77.8111
 11
24.6566
 21
77.7959
  0
LINE
  8
0
 10
24.6566
 20
77.7959
 11
26.5494
 21
77.7959
  0
LINE
  8
0
 10
26.5494
 20
77.7959
 11
26.5808
 21
77.8111
  0
LINE
  8
0
 10
26.5808
 20
77.8111
 11
28.2547
 21
78.6172
  0
LINE
  8
0
 10
28.2547
 20
78.6172
 11
28.5944
 21
79.0432
  0
LINE
  8
0
 10
28.5944
 20
79.0432
 11
31.1674
 21
79.0432
  0
LINE
  8
0
 10
31.1674
 20
79.0432
 11
31.1862
 21
79.0432
  0
LINE
  8
0
 10
31.1862
 20
79.0432
 11
34.5512
 21
79.0432
  0
LINE
  8
0
 10
34.5512
 20
79.0432
 11
37.4928
 21
69.6387
  0
LINE
  8
0
 10
37.4928
 20
69.6387
 11
38.3046
 21
67.0432
  0
LINE
  8
0
 10
38.3046
 20
67.0432
 11
52.2511
 21
67.0432
  0
LINE
  8
0
 10
52.2511
 20
67.0432
 11
55.6184
 21
67.0432
  0
LINE
  8
0
 10
55.6184
 20
67.0432
 11
57.7019
 21
67.0432
  0
LINE
  8
0
 10
57.7019
 20
67.0432
 11
57.7219
 21
67.0432
  0
LINE
  8
0
 10
57.7219
 20
67.0432
 11
58.247
 21
67.0432
  0
LINE
  8
0
 10
58.247
 20
67.0432
 11
75.4471
 21
67.0432
  0
LINE
  8
0
 10
75.4471
 20
67.0432
 11
76.54
 21
66.2703
  0
LINE
  8
0
 10
76.54
 20
66.2703
 11
80.4471
 21
63.5076
  0
LINE
  8
0
 10
80.4471
 20
63.5076
 11
80.4471
 21
53.9602
  0
LINE
  8
0
 10
80.4471
 20
53.9602
 11
80.4471
 21
53.9488
  0
LINE
  8
0
 10
80.4471
 20
53.9488
 11
80.4471
 21
51.2957
  0
LINE
  8
0
 10
80.4471
 20
51.2957
 11
80.4471
 21
46.5591
  0
LINE
  8
0
 10
80.4471
 20
46.5591
 11
80.4471
 21
44.5626
  0
LINE
  8
0
 10
80.4471
 20
44.5626
 11
80.4471
 21
43.2384
  0
LINE
  8
0
 10
80.4471
 20
43.2384
 11
79.6007
 21
43.2384
  0
LINE
  8
0
 10
79.6007
 20
43.2384
 11
79.5693
 21
43.2232
  0
LINE
  8
0
 10
79.5693
 20
43.2232
 11
77.8953
 21
42.4171
  0
LINE
  8
0
 10
77.8953
 20
42.4171
 11
76.7369
 21
40.9645
  0
LINE
  8
0
 10
76.7369
 20
40.9645
 11
76.7152
 21
40.9373
  0
LINE
  8
0
 10
76.7152
 20
40.9373
 11
76.7075
 21
40.9033
  0
LINE
  8
0
 10
76.7075
 20
40.9033
 11
76.294
 21
39.092
  0
LINE
  8
0
 10
76.294
 20
39.092
 11
76.7075
 21
37.2806
  0
LINE
  8
0
 10
76.7075
 20
37.2806
 11
76.7152
 21
37.2467
  0
LINE
  8
0
 10
76.7152
 20
37.2467
 11
76.7369
 21
37.2194
  0
LINE
  8
0
 10
76.7369
 20
37.2194
 11
77.8953
 21
35.7668
  0
LINE
  8
0
 10
77.8953
 20
35.7668
 11
79.5693
 21
34.9607
  0
LINE
  8
0
 10
79.5693
 20
34.9607
 11
79.6007
 21
34.9456
  0
LINE
  8
0
 10
79.6007
 20
34.9456
 11
80.4471
 21
34.9456
  0
LINE
  8
0
 10
80.4471
 20
34.9456
 11
80.4471
 21
34.8298
  0
LINE
  8
0
 10
80.4471
 20
34.8298
 11
80.4471
 21
29.6008
  0
LINE
  8
0
 10
80.4471
 20
29.6008
 11
80.4471
 21
25.6783
  0
LINE
  8
0
 10
80.4471
 20
25.6783
 11
80.4471
 21
21.756
  0
LINE
  8
0
 10
80.4471
 20
21.756
 11
80.4471
 21
15.0178
  0
LINE
  8
0
 10
80.4471
 20
15.0178
 11
80.4471
 21
9.7426
  0
LINE
  8
0
 10
80.4471
 20
9.7426
 11
80.102
 21
5.74284
  0
LINE
  8
0
 10
80.102
 20
5.74284
 11
80.102
 21
5.74284
  0
LINE
  8
0
 10
80.102
 20
5.74284
 11
80.0931
 21
5.63932
  0
LINE
  8
0
 10
80.0931
 20
5.63932
 11
80.075
 21
5.2286
  0
LINE
  8
0
 10
80.075
 20
5.2286
 11
79.7008
 21
-3.3
  0
LINE
  8
0
 10
79.7008
 20
-3.3
 11
79.7008
 21
-20.7
  0
LINE
  8
0
 10
79.7008
 20
-20.7
 11
80.075
 21
-29.2286
  0
LINE
  8
0
 10
80.075
 20
-29.2286
 11
80.0931
 21
-29.6393
  0
LINE
  8
0
 10
80.0931
 20
-29.6393
 11
80.102
 21
-29.7428
  0
LINE
  8
0
 10
80.102
 20
-29.7428
 11
80.102
 21
-29.7428
  0
LINE
  8
0
 10
80.102
 20
-29.7428
 11
80.4471
 21
-33.7426
  0
LINE
  8
0
 10
80.4471
 20
-33.7426
 11
80.4471
 21
-39.0178
  0
LINE
  8
0
 10
80.4471
 20
-39.0178
 11
80.4471
 21
-45.7188
  0
LINE
  8
0
 10
80.4471
 20
-45.7188
 11
77.6765
 21
-48.395
  0
LINE
  8
0
 10
77.6765
 20
-48.395
 11
75.4471
 21
-50.5485
  0
LINE
  8
0
 10
75.4471
 20
-50.5485
 11
58.247
 21
-50.5485
  0
LINE
  8
0
 10
58.247
 20
-50.5485
 11
55.3666
 21
-50.5485
  0
LINE
  8
0
 10
55.3666
 20
-50.5485
 11
55.3144
 21
-50.5485
  0
LINE
  8
0
 10
55.3144
 20
-50.5485
 11
52.8387
 21
-50.5485
  0
LINE
  8
0
 10
52.8387
 20
-50.5485
 11
44.2651
 21
-50.5485
  0
LINE
  8
0
 10
44.2651
 20
-50.5485
 11
35.5585
 21
-50.5485
  0
LINE
  8
0
 10
35.5585
 20
-50.5485
 11
35.3826
 21
-51.089
  0
LINE
  8
0
 10
35.3826
 20
-51.089
 11
35.2638
 21
-51.4543
  0
LINE
  8
0
 10
35.2638
 20
-51.4543
 11
35.2652
 21
-51.5119
  0
LINE
  8
0
 10
35.2652
 20
-51.5119
 11
35.3107
 21
-53.4638
  0
LINE
  8
0
 10
35.3107
 20
-53.4638
 11
35.3766
 21
-56.284
  0
LINE
  8
0
 10
35.3766
 20
-56.284
 11
35.3779
 21
-56.3374
  0
LINE
  8
0
 10
35.3779
 20
-56.3374
 11
35.3789
 21
-56.3805
  0
LINE
  8
0
 10
35.3789
 20
-56.3805
 11
35.3789
 21
-56.3805
  0
LINE
  8
0
 10
35.3789
 20
-56.3805
 11
35.4341
 21
-56.3805
  0
LINE
  8
0
 10
35.4341
 20
-56.3805
 11
36.7396
 21
-56.3805
  0
LINE
  8
0
 10
36.7396
 20
-56.3805
 11
33.8147
 21
-60.8699
  0
LINE
  8
0
 10
33.8147
 20
-60.8699
 11
27.641
 21
-60.8699
  0
LINE
  8
0
 10
27.641
 20
-60.8699
 11
14.3155
 21
-60.8699
  0
LINE
  8
0
 10
14.3155
 20
-60.8699
 11
9.95379
 21
-61.9819
  0
LINE
  8
0
 10
9.95379
 20
-61.9819
 11
4.53579
 21
-63.3632
  0
LINE
  8
0
 10
4.53579
 20
-63.3632
 11
4.26448
 21
-63.023
  0
LINE
  8
0
 10
4.26448
 20
-63.023
 11
2.59055
 21
-62.2169
  0
LINE
  8
0
 10
2.59055
 20
-62.2169
 11
2.55915
 21
-62.2018
  0
LINE
  8
0
 10
2.55915
 20
-62.2018
 11
0.666379
 21
-62.2018
  0
LINE
  8
0
 10
0.666379
 20
-62.2018
 11
0.634983
 21
-62.2169
  0
LINE
  8
0
 10
0.634983
 20
-62.2169
 11
-1.03895
 21
-63.023
  0
LINE
  8
0
 10
-1.03895
 20
-63.023
 11
-2.19735
 21
-64.4756
  0
LINE
  8
0
 10
-2.19735
 20
-64.4756
 11
-2.21907
 21
-64.5028
  0
LINE
  8
0
 10
-2.21907
 20
-64.5028
 11
-2.22683
 21
-64.5368
  0
LINE
  8
0
 10
-2.22683
 20
-64.5368
 11
-2.64025
 21
-66.3481
  0
LINE
  8
0
 10
-2.64025
 20
-66.3481
 11
-2.60603
 21
-66.4981
  0
LINE
  8
0
 10
-2.60603
 20
-66.4981
 11
-5.43635
 21
-68.3374
  0
LINE
  8
0
 10
-5.43635
 20
-68.3374
 11
-5.43669
 21
-68.3376
  0
LINE
  8
0
 10
-5.43669
 20
-68.3376
 11
-13.0282
 21
-73.271
  0
LINE
  8
0
 10
-13.0282
 20
-73.271
 11
-13.8974
 21
-73.9345
  0
LINE
  8
0
 10
-13.8974
 20
-73.9345
 11
-13.8974
 21
-73.9345
  0
LINE
  8
0
 10
-13.8974
 20
-73.9345
 11
-14.6025
 21
-74.4727
  0
LINE
  8
0
 10
-14.6025
 20
-74.4727
 11
-14.6025
 21
-74.4727
  0
LINE
  8
0
 10
-14.6025
 20
-74.4727
 11
-14.6359
 21
-74.5099
  0
LINE
  8
0
 10
-14.6359
 20
-74.5099
 11
-14.6579
 21
-74.5343
  0
LINE
  8
0
 10
-14.6579
 20
-74.5343
 11
-20.8291
 21
-81.3881
  0
LINE
  8
0
 10
-20.8291
 20
-81.3881
 11
-24.2549
 21
-85.1928
  0
LINE
  8
0
 10
-24.2549
 20
-85.1928
 11
-23.5785
 21
-88.3316
  0
LINE
  8
0
 10
-23.5785
 20
-88.3316
 11
-23.2422
 21
-89.8924
  0
LINE
  8
0
 10
-23.2422
 20
-89.8924
 11
-25.6756
 21
-93.2416
  0
LINE
  8
0
 10
-25.6756
 20
-93.2416
 11
-37.3395
 21
-100.969
  0
LINE
  8
0
 10
-37.3395
 20
-100.969
 11
-39.8732
 21
-101.003
  0
LINE
  8
0
 10
-39.8732
 20
-101.003
 11
-52.5146
 21
-89.9434
  0
LINE
  8
0
 10
-52.5146
 20
-89.9434
 11
-52.8602
 21
-89.6923
  0
LINE
  8
0
 10
-52.8602
 20
-89.6923
 11
-53.3499
 21
-89.3364
  0
LINE
  8
0
 10
-53.3499
 20
-89.3364
 11
-53.5374
 21
-89.2233
  0
LINE
  8
0
 10
-53.5374
 20
-89.2233
 11
-58.28
 21
-87.8445
  0
LINE
  8
0
 10
-58.28
 20
-87.8445
 11
-58.28
 21
-87.8445
  0
LINE
  8
0
 10
-58.28
 20
-87.8445
 11
-68.993
 21
-79.0701
  0
LINE
  8
0
 10
-68.993
 20
-79.0701
 11
-71.6101
 21
-76.9265
  0
LINE
  8
0
 10
-71.6101
 20
-76.9265
 11
-71.763
 21
-75.3491
  0
LINE
  8
0
 10
-65.8944
 20
-43.592
 11
-65.0444
 21
-42.1197
  0
LINE
  8
0
 10
-65.0444
 20
-42.1197
 11
-63.3444
 21
-42.1197
  0
LINE
  8
0
 10
-63.3444
 20
-42.1197
 11
-62.4944
 21
-43.592
  0
LINE
  8
0
 10
-62.4944
 20
-43.592
 11
-63.3444
 21
-45.0642
  0
LINE
  8
0
 10
-63.3444
 20
-45.0642
 11
-65.0444
 21
-45.0642
  0
LINE
  8
0
 10
-65.0444
 20
-45.0642
 11
-65.8944
 21
-43.592
  0
LINE
  8
0
 10
-60.0389
 20
61.6484
 11
-59.1889
 21
63.1206
  0
LINE
  8
0
 10
-59.1889
 20
63.1206
 11
-57.4889
 21
63.1206
  0
LINE
  8
0
 10
-57.4889
 20
63.1206
 11
-56.6389
 21
61.6484
  0
LINE
  8
0
 10
-56.6389
 20
61.6484
 11
-57.4889
 21
60.1761
  0
LINE
  8
0
 10
-57.4889
 20
60.1761
 11
-59.1889
 21
60.1761
  0
LINE
  8
0
 10
-59.1889
 20
60.1761
 11
-60.0389
 21
61.6484
  0
LINE
  8
0
 10
-0.0872352
 20
-66.3481
 11
0.762765
 21
-64.8759
  0
LINE
  8
0
 10
0.762765
 20
-64.8759
 11
2.46276
 21
-64.8759
  0
LINE
  8
0
 10
2.46276
 20
-64.8759
 11
3.31276
 21
-66.3481
  0
LINE
  8
0
 10
3.31276
 20
-66.3481
 11
2.46276
 21
-67.8204
  0
LINE
  8
0
 10
2.46276
 20
-67.8204
 11
0.762765
 21
-67.8204
  0
LINE
  8
0
 10
0.762765
 20
-67.8204
 11
-0.0872352
 21
-66.3481
  0
LINE
  8
0
 10
23.903
 20
81.9423
 11
24.753
 21
83.4146
  0
LINE
  8
0
 10
24.753
 20
83.4146
 11
26.453
 21
83.4146
  0
LINE
  8
0
 10
26.453
 20
83.4146
 11
27.303
 21
81.9423
  0
LINE
  8
0
 10
27.303
 20
81.9423
 11
26.453
 21
80.4701
  0
LINE
  8
0
 10
26.453
 20
80.4701
 11
24.753
 21
80.4701
  0
LINE
  8
0
 10
24.753
 20
80.4701
 11
23.903
 21
81.9423
  0
LINE
  8
0
 10
78.8471
 20
39.092
 11
79.6971
 21
40.5642
  0
LINE
  8
0
 10
79.6971
 20
40.5642
 11
81.3971
 21
40.5642
  0
LINE
  8
0
 10
81.3971
 20
40.5642
 11
82.2471
 21
39.092
  0
LINE
  8
0
 10
82.2471
 20
39.092
 11
81.3971
 21
37.6197
  0
LINE
  8
0
 10
81.3971
 20
37.6197
 11
79.6971
 21
37.6197
  0
LINE
  8
0
 10
79.6971
 20
37.6197
 11
78.8471
 21
39.092
  0
ENDSEC
  0
SECTION
  2
OBJECTS
  0
DICTIONARY
  0
ENDSEC
  0
EOF
