  0
SECTION
  2
BLOCKS
  0
ENDSEC
  0
SECTION
  2
ENTITIES
  0
LINE
  8
0
 10
-73.5586
 20
-72.9268
 11
-73.3597
 21
-74.8561
  0
LINE
  8
0
 10
-73.3597
 20
-74.8561
 11
-72.9337
 21
-78.9881
  0
LINE
  8
0
 10
-72.9337
 20
-78.9881
 11
-72.881
 21
-79.0314
  0
LINE
  8
0
 10
-72.881
 20
-79.0314
 11
-72.8563
 21
-79.0517
  0
LINE
  8
0
 10
-72.8563
 20
-79.0517
 11
-72.8563
 21
-79.0517
  0
LINE
  8
0
 10
-72.8563
 20
-79.0517
 11
-64.3625
 21
-86.0272
  0
LINE
  8
0
 10
-64.3625
 20
-86.0272
 11
-59.4935
 21
-90.0258
  0
LINE
  8
0
 10
-59.4935
 20
-90.0258
 11
-59.4634
 21
-90.0505
  0
LINE
  8
0
 10
-59.4634
 20
-90.0505
 11
-57.4067
 21
-91.0548
  0
LINE
  8
0
 10
-57.4067
 20
-91.0548
 11
-54.4511
 21
-91.3794
  0
LINE
  8
0
 10
-54.4511
 20
-91.3794
 11
-41.1064
 21
-103.179
  0
LINE
  8
0
 10
-41.1064
 20
-103.179
 11
-39.523
 21
-103.171
  0
LINE
  8
0
 10
-39.523
 20
-103.171
 11
-33.0793
 21
-103.14
  0
LINE
  8
0
 10
-33.0793
 20
-103.14
 11
-33.0032
 21
-103.092
  0
LINE
  8
0
 10
-33.0032
 20
-103.092
 11
-32.9715
 21
-103.071
  0
LINE
  8
0
 10
-32.9715
 20
-103.071
 11
-32.9715
 21
-103.071
  0
LINE
  8
0
 10
-32.9715
 20
-103.071
 11
-30.1967
 21
-101.293
  0
LINE
  8
0
 10
-30.1967
 20
-101.293
 11
-27.0974
 21
-99.3061
  0
LINE
  8
0
 10
-27.0974
 20
-99.3061
 11
-24.7918
 21
-96.9904
  0
LINE
  8
0
 10
-24.7918
 20
-96.9904
 11
-22.686
 21
-94.8755
  0
LINE
  8
0
 10
-22.686
 20
-94.8755
 11
-21.6544
 21
-93.4556
  0
LINE
  8
0
 10
-21.6544
 20
-93.4556
 11
-19.3985
 21
-90.3507
  0
LINE
  8
0
 10
-19.3985
 20
-90.3507
 11
-20.3162
 21
-86.7797
  0
LINE
  8
0
 10
-20.3162
 20
-86.7797
 11
-20.6661
 21
-85.4182
  0
LINE
  8
0
 10
-20.6661
 20
-85.4182
 11
-20.6661
 21
-85.4182
  0
LINE
  8
0
 10
-20.6661
 20
-85.4182
 11
-16.5634
 21
-80.8617
  0
LINE
  8
0
 10
-16.5634
 20
-80.8617
 11
-11.466
 21
-75.2005
  0
LINE
  8
0
 10
-11.466
 20
-75.2005
 11
-8.89364
 21
-73.4843
  0
LINE
  8
0
 10
-8.89364
 20
-73.4843
 11
-1.78294
 21
-68.7404
  0
LINE
  8
0
 10
-1.78294
 20
-68.7404
 11
-1.03895
 21
-69.6733
  0
LINE
  8
0
 10
-1.03895
 20
-69.6733
 11
0.634983
 21
-70.4794
  0
LINE
  8
0
 10
0.634983
 20
-70.4794
 11
0.666379
 21
-70.4945
  0
LINE
  8
0
 10
0.666379
 20
-70.4945
 11
2.55915
 21
-70.4945
  0
LINE
  8
0
 10
2.55915
 20
-70.4945
 11
2.59055
 21
-70.4794
  0
LINE
  8
0
 10
2.59055
 20
-70.4794
 11
4.26448
 21
-69.6733
  0
LINE
  8
0
 10
4.26448
 20
-69.6733
 11
5.42287
 21
-68.2207
  0
LINE
  8
0
 10
5.42287
 20
-68.2207
 11
5.4446
 21
-68.1935
  0
LINE
  8
0
 10
5.4446
 20
-68.1935
 11
5.45236
 21
-68.1595
  0
LINE
  8
0
 10
5.45236
 20
-68.1595
 11
5.86578
 21
-66.3481
  0
LINE
  8
0
 10
5.86578
 20
-66.3481
 11
5.80233
 21
-66.0702
  0
LINE
  8
0
 10
5.80233
 20
-66.0702
 11
13.5922
 21
-64.4386
  0
LINE
  8
0
 10
13.5922
 20
-64.4386
 11
21.1157
 21
-64.4386
  0
LINE
  8
0
 10
21.1157
 20
-64.4386
 11
21.1572
 21
-64.4386
  0
LINE
  8
0
 10
21.1572
 20
-64.4386
 11
34.0762
 21
-64.4386
  0
LINE
  8
0
 10
34.0762
 20
-64.4386
 11
38.5997
 21
-57.562
  0
LINE
  8
0
 10
38.5997
 20
-57.562
 11
41.283
 21
-53.4828
  0
LINE
  8
0
 10
41.283
 20
-53.4828
 11
44.3098
 21
-53.4828
  0
LINE
  8
0
 10
44.3098
 20
-53.4828
 11
51.5022
 21
-53.4828
  0
LINE
  8
0
 10
51.5022
 20
-53.4828
 11
54.201
 21
-53.4828
  0
LINE
  8
0
 10
54.201
 20
-53.4828
 11
73.5211
 21
-53.4828
  0
LINE
  8
0
 10
73.5211
 20
-53.4828
 11
78.1352
 21
-49.0259
  0
LINE
  8
0
 10
78.1352
 20
-49.0259
 11
80.5211
 21
-46.7213
  0
LINE
  8
0
 10
80.5211
 20
-46.7213
 11
80.5211
 21
-46.6575
  0
LINE
  8
0
 10
80.5211
 20
-46.6575
 11
80.5211
 21
-46.6575
  0
LINE
  8
0
 10
80.5211
 20
-46.6575
 11
80.5211
 21
-31.0314
  0
LINE
  8
0
 10
80.5211
 20
-31.0314
 11
80.5211
 21
-29.9206
  0
LINE
  8
0
 10
80.5211
 20
-29.9206
 11
80.5211
 21
-24.4513
  0
LINE
  8
0
 10
80.5211
 20
-24.4513
 11
80.5211
 21
-15.639
  0
LINE
  8
0
 10
80.5211
 20
-15.639
 11
81.1728
 21
-15.3251
  0
LINE
  8
0
 10
81.1728
 20
-15.3251
 11
82.3312
 21
-13.8726
  0
LINE
  8
0
 10
82.3312
 20
-13.8726
 11
82.353
 21
-13.8453
  0
LINE
  8
0
 10
82.353
 20
-13.8453
 11
82.3607
 21
-13.8113
  0
LINE
  8
0
 10
82.3607
 20
-13.8113
 11
82.7741
 21
-12
  0
LINE
  8
0
 10
82.7741
 20
-12
 11
82.3607
 21
-10.1887
  0
LINE
  8
0
 10
82.3607
 20
-10.1887
 11
82.353
 21
-10.1547
  0
LINE
  8
0
 10
82.353
 20
-10.1547
 11
82.3312
 21
-10.1274
  0
LINE
  8
0
 10
82.3312
 20
-10.1274
 11
81.1728
 21
-8.67486
  0
LINE
  8
0
 10
81.1728
 20
-8.67486
 11
80.5211
 21
-8.36101
  0
LINE
  8
0
 10
80.5211
 20
-8.36101
 11
80.5211
 21
0.451258
  0
LINE
  8
0
 10
80.5211
 20
0.451258
 11
80.5211
 21
5.92061
  0
LINE
  8
0
 10
80.5211
 20
5.92061
 11
80.5211
 21
7.03144
  0
LINE
  8
0
 10
80.5211
 20
7.03144
 11
80.5211
 21
22.6575
  0
LINE
  8
0
 10
80.5211
 20
22.6575
 11
80.5211
 21
22.6575
  0
LINE
  8
0
 10
80.5211
 20
22.6575
 11
80.5211
 21
22.7213
  0
LINE
  8
0
 10
80.5211
 20
22.7213
 11
78.1352
 21
25.0259
  0
LINE
  8
0
 10
78.1352
 20
25.0259
 11
73.5211
 21
29.4828
  0
LINE
  8
0
 10
73.5211
 20
29.4828
 11
54.201
 21
29.4828
  0
LINE
  8
0
 10
54.201
 20
29.4828
 11
51.5022
 21
29.4828
  0
LINE
  8
0
 10
51.5022
 20
29.4828
 11
44.3098
 21
29.4828
  0
LINE
  8
0
 10
44.3098
 20
29.4828
 11
34.3097
 21
29.4828
  0
LINE
  8
0
 10
34.3097
 20
29.4828
 11
31.751
 21
34.6301
  0
LINE
  8
0
 10
31.751
 20
34.6301
 11
28.7949
 21
40.5769
  0
LINE
  8
0
 10
28.7949
 20
40.5769
 11
28.55
 21
40.9548
  0
LINE
  8
0
 10
28.55
 20
40.9548
 11
28.2078
 21
41.4828
  0
LINE
  8
0
 10
28.2078
 20
41.4828
 11
23.4335
 21
41.4828
  0
LINE
  8
0
 10
23.4335
 20
41.4828
 11
23.3472
 21
41.4828
  0
LINE
  8
0
 10
23.3472
 20
41.4828
 11
23.3079
 21
41.4828
  0
LINE
  8
0
 10
23.3079
 20
41.4828
 11
23.3059
 21
41.4917
  0
LINE
  8
0
 10
23.3059
 20
41.4917
 11
23.2981
 21
41.5256
  0
LINE
  8
0
 10
23.2981
 20
41.5256
 11
23.2764
 21
41.5529
  0
LINE
  8
0
 10
23.2764
 20
41.5529
 11
22.118
 21
43.0055
  0
LINE
  8
0
 10
22.118
 20
43.0055
 11
20.444
 21
43.8116
  0
LINE
  8
0
 10
20.444
 20
43.8116
 11
20.4126
 21
43.8267
  0
LINE
  8
0
 10
20.4126
 20
43.8267
 11
18.5199
 21
43.8267
  0
LINE
  8
0
 10
18.5199
 20
43.8267
 11
18.4885
 21
43.8116
  0
LINE
  8
0
 10
18.4885
 20
43.8116
 11
16.8145
 21
43.0055
  0
LINE
  8
0
 10
16.8145
 20
43.0055
 11
15.6562
 21
41.5529
  0
LINE
  8
0
 10
15.6562
 20
41.5529
 11
15.6344
 21
41.5256
  0
LINE
  8
0
 10
15.6344
 20
41.5256
 11
15.6267
 21
41.4917
  0
LINE
  8
0
 10
15.6267
 20
41.4917
 11
15.6246
 21
41.4828
  0
LINE
  8
0
 10
15.6246
 20
41.4828
 11
11.1707
 21
41.4828
  0
LINE
  8
0
 10
11.1707
 20
41.4828
 11
6.93169
 21
43.5667
  0
LINE
  8
0
 10
6.93169
 20
43.5667
 11
5.43445
 21
44.3028
  0
LINE
  8
0
 10
5.43445
 20
44.3028
 11
1.04752
 21
44.3028
  0
LINE
  8
0
 10
1.04752
 20
44.3028
 11
0.9528
 21
44.3028
  0
LINE
  8
0
 10
0.9528
 20
44.3028
 11
-11.3727
 21
44.3028
  0
LINE
  8
0
 10
-11.3727
 20
44.3028
 11
-12.8379
 21
43.0502
  0
LINE
  8
0
 10
-12.8379
 20
43.0502
 11
-14.6715
 21
41.4828
  0
LINE
  8
0
 10
-14.6715
 20
41.4828
 11
-24.0172
 21
41.4828
  0
LINE
  8
0
 10
-24.0172
 20
41.4828
 11
-24.0667
 21
41.4828
  0
LINE
  8
0
 10
-24.0667
 20
41.4828
 11
-30.8964
 21
41.4828
  0
LINE
  8
0
 10
-30.8964
 20
41.4828
 11
-33.7552
 21
41.4828
  0
LINE
  8
0
 10
-33.7552
 20
41.4828
 11
-33.7887
 21
41.4828
  0
LINE
  8
0
 10
-33.7887
 20
41.4828
 11
-35.2228
 21
41.4828
  0
LINE
  8
0
 10
-35.2228
 20
41.4828
 11
-45.8905
 21
41.4828
  0
LINE
  8
0
 10
-45.8905
 20
41.4828
 11
-50.9074
 21
41.4828
  0
LINE
  8
0
 10
-50.9074
 20
41.4828
 11
-50.9309
 21
41.4828
  0
LINE
  8
0
 10
-50.9309
 20
41.4828
 11
-54.5578
 21
38.9167
  0
LINE
  8
0
 10
-54.5578
 20
38.9167
 11
-55.8274
 21
38.0184
  0
LINE
  8
0
 10
-55.8274
 20
38.0184
 11
-62.8274
 21
31.0184
  0
LINE
  8
0
 10
-62.8274
 20
31.0184
 11
-63.3151
 21
26.7112
  0
LINE
  8
0
 10
-63.3151
 20
26.7112
 11
-64.6754
 21
26.7112
  0
LINE
  8
0
 10
-64.6754
 20
26.7112
 11
-64.7068
 21
26.6961
  0
LINE
  8
0
 10
-64.7068
 20
26.6961
 11
-66.3807
 21
25.89
  0
LINE
  8
0
 10
-66.3807
 20
25.89
 11
-67.5391
 21
24.4374
  0
LINE
  8
0
 10
-67.5391
 20
24.4374
 11
-67.5609
 21
24.4102
  0
LINE
  8
0
 10
-67.5609
 20
24.4102
 11
-67.5686
 21
24.3762
  0
LINE
  8
0
 10
-67.5686
 20
24.3762
 11
-67.982
 21
22.5649
  0
LINE
  8
0
 10
-67.982
 20
22.5649
 11
-67.5686
 21
20.7535
  0
LINE
  8
0
 10
-67.5686
 20
20.7535
 11
-67.5609
 21
20.7195
  0
LINE
  8
0
 10
-67.5609
 20
20.7195
 11
-67.5391
 21
20.6923
  0
LINE
  8
0
 10
-67.5391
 20
20.6923
 11
-66.3807
 21
19.2397
  0
LINE
  8
0
 10
-66.3807
 20
19.2397
 11
-64.7068
 21
18.4336
  0
LINE
  8
0
 10
-64.7068
 20
18.4336
 11
-64.6754
 21
18.4185
  0
LINE
  8
0
 10
-64.6754
 20
18.4185
 11
-64.2542
 21
18.4185
  0
LINE
  8
0
 10
-64.2542
 20
18.4185
 11
-64.7306
 21
14.2113
  0
LINE
  8
0
 10
-64.7306
 20
14.2113
 11
-64.9265
 21
10.6906
  0
LINE
  8
0
 10
-64.9265
 20
10.6906
 11
-65.0345
 21
8.75
  0
LINE
  8
0
 10
-65.0345
 20
8.75
 11
-65.0345
 21
-8.75
  0
LINE
  8
0
 10
-65.0345
 20
-8.75
 11
-64.9265
 21
-10.6906
  0
LINE
  8
0
 10
-64.9265
 20
-10.6906
 11
-64.7306
 21
-14.2113
  0
LINE
  8
0
 10
-64.7306
 20
-14.2113
 11
-63.5037
 21
-25.0462
  0
LINE
  8
0
 10
-63.5037
 20
-25.0462
 11
-62.8274
 21
-31.0184
  0
LINE
  8
0
 10
-62.8274
 20
-31.0184
 11
-60.9995
 21
-34.2091
  0
LINE
  8
0
 10
-60.9995
 20
-34.2091
 11
-58.256
 21
-38.9979
  0
LINE
  8
0
 10
-58.256
 20
-38.9979
 11
-58.9034
 21
-39.5411
  0
LINE
  8
0
 10
-58.9034
 20
-39.5411
 11
-59.0703
 21
-39.4607
  0
LINE
  8
0
 10
-59.0703
 20
-39.4607
 11
-59.1017
 21
-39.4456
  0
LINE
  8
0
 10
-59.1017
 20
-39.4456
 11
-60.9945
 21
-39.4456
  0
LINE
  8
0
 10
-60.9945
 20
-39.4456
 11
-61.0259
 21
-39.4607
  0
LINE
  8
0
 10
-61.0259
 20
-39.4607
 11
-62.6998
 21
-40.2668
  0
LINE
  8
0
 10
-62.6998
 20
-40.2668
 11
-63.8582
 21
-41.7194
  0
LINE
  8
0
 10
-63.8582
 20
-41.7194
 11
-63.88
 21
-41.7467
  0
LINE
  8
0
 10
-63.88
 20
-41.7467
 11
-63.8877
 21
-41.7806
  0
LINE
  8
0
 10
-63.8877
 20
-41.7806
 11
-64.3011
 21
-43.592
  0
LINE
  8
0
 10
-64.3011
 20
-43.592
 11
-64.2095
 21
-43.9935
  0
LINE
  8
0
 10
-64.2095
 20
-43.9935
 11
-66.4685
 21
-45.889
  0
LINE
  8
0
 10
-66.4685
 20
-45.889
 11
-66.4685
 21
-45.889
  0
LINE
  8
0
 10
-66.4685
 20
-45.889
 11
-67.182
 21
-46.759
  0
LINE
  8
0
 10
-67.182
 20
-46.759
 11
-67.7244
 21
-47.4205
  0
LINE
  8
0
 10
-67.7244
 20
-47.4205
 11
-64.9058
 21
-54.4478
  0
LINE
  8
0
 10
-64.9058
 20
-54.4478
 11
-63.845
 21
-57.0925
  0
LINE
  8
0
 10
-63.845
 20
-57.0925
 11
-66.2202
 21
-60.1326
  0
LINE
  8
0
 10
-66.2202
 20
-60.1326
 11
-66.2204
 21
-60.1328
  0
LINE
  8
0
 10
-66.2204
 20
-60.1328
 11
-67.1871
 21
-61.3701
  0
LINE
  8
0
 10
-67.1871
 20
-61.3701
 11
-70.6058
 21
-67.5711
  0
LINE
  8
0
 10
-70.6058
 20
-67.5711
 11
-73.4989
 21
-72.8185
  0
LINE
  8
0
 10
-73.4989
 20
-72.8185
 11
-73.4989
 21
-72.8185
  0
LINE
  8
0
 10
-73.4989
 20
-72.8185
 11
-73.5586
 21
-72.9268
  0
LINE
  8
0
 10
-71.1103
 20
-74.6847
 11
-61.7535
 21
-58.2146
  0
LINE
  8
0
 10
-61.7535
 20
-58.2146
 11
-61.7535
 21
-58.2146
  0
LINE
  8
0
 10
-61.7535
 20
-58.2146
 11
-61.645
 21
-58.0758
  0
LINE
  8
0
 10
-61.645
 20
-58.0758
 11
-60.8162
 21
-57.015
  0
LINE
  8
0
 10
-60.8162
 20
-57.015
 11
-60.8159
 21
-57.0145
  0
LINE
  8
0
 10
-60.8159
 20
-57.0145
 11
-60.8159
 21
-57.0145
  0
LINE
  8
0
 10
-60.8159
 20
-57.0145
 11
-60.7702
 21
-56.9561
  0
LINE
  8
0
 10
-60.7702
 20
-56.9561
 11
-63.6413
 21
-50.3913
  0
LINE
  8
0
 10
-63.6413
 20
-50.3913
 11
-64.8157
 21
-47.7061
  0
LINE
  8
0
 10
-64.8157
 20
-47.7061
 11
-63.1711
 21
-46.3261
  0
LINE
  8
0
 10
-63.1711
 20
-46.3261
 11
-62.6998
 21
-46.9171
  0
LINE
  8
0
 10
-62.6998
 20
-46.9171
 11
-61.0259
 21
-47.7232
  0
LINE
  8
0
 10
-61.0259
 20
-47.7232
 11
-60.9945
 21
-47.7384
  0
LINE
  8
0
 10
-60.9945
 20
-47.7384
 11
-59.1017
 21
-47.7384
  0
LINE
  8
0
 10
-59.1017
 20
-47.7384
 11
-59.0703
 21
-47.7232
  0
LINE
  8
0
 10
-59.0703
 20
-47.7232
 11
-57.3964
 21
-46.9171
  0
LINE
  8
0
 10
-57.3964
 20
-46.9171
 11
-56.238
 21
-45.4645
  0
LINE
  8
0
 10
-56.238
 20
-45.4645
 11
-56.2163
 21
-45.4373
  0
LINE
  8
0
 10
-56.2163
 20
-45.4373
 11
-56.2085
 21
-45.4033
  0
LINE
  8
0
 10
-56.2085
 20
-45.4033
 11
-55.7951
 21
-43.592
  0
LINE
  8
0
 10
-55.7951
 20
-43.592
 11
-56.2085
 21
-41.7806
  0
LINE
  8
0
 10
-56.2085
 20
-41.7806
 11
-56.2163
 21
-41.7467
  0
LINE
  8
0
 10
-56.2163
 20
-41.7467
 11
-56.238
 21
-41.7194
  0
LINE
  8
0
 10
-56.238
 20
-41.7194
 11
-56.8165
 21
-40.994
  0
LINE
  8
0
 10
-56.8165
 20
-40.994
 11
-56.1902
 21
-40.4684
  0
LINE
  8
0
 10
-56.1902
 20
-40.4684
 11
-56.1902
 21
-40.4684
  0
LINE
  8
0
 10
-56.1902
 20
-40.4684
 11
-55.6528
 21
-39.8131
  0
LINE
  8
0
 10
-55.6528
 20
-39.8131
 11
-55.6528
 21
-39.8131
  0
LINE
  8
0
 10
-55.6528
 20
-39.8131
 11
-54.9343
 21
-38.937
  0
LINE
  8
0
 10
-54.9343
 20
-38.937
 11
-54.9343
 21
-38.937
  0
LINE
  8
0
 10
-54.9343
 20
-38.937
 11
-56.5592
 21
-36.6878
  0
LINE
  8
0
 10
-56.5592
 20
-36.6878
 11
-60.7274
 21
-30.9184
  0
LINE
  8
0
 10
-60.7274
 20
-30.9184
 11
-61.1205
 21
-27.4471
  0
LINE
  8
0
 10
-61.1205
 20
-27.4471
 11
-52.7116
 21
-27.4471
  0
LINE
  8
0
 10
-52.7116
 20
-27.4471
 11
-52.7116
 21
25.4471
  0
LINE
  8
0
 10
-52.7116
 20
25.4471
 11
-60.7241
 21
25.4471
  0
LINE
  8
0
 10
-60.7241
 20
25.4471
 11
-61.0773
 21
25.89
  0
LINE
  8
0
 10
-61.0773
 20
25.89
 11
-61.2855
 21
25.9902
  0
LINE
  8
0
 10
-61.2855
 20
25.9902
 11
-60.7274
 21
30.9184
  0
LINE
  8
0
 10
-60.7274
 20
30.9184
 11
-55.7274
 21
35.9184
  0
LINE
  8
0
 10
-55.7274
 20
35.9184
 11
-54.2457
 21
36.5587
  0
LINE
  8
0
 10
-54.2457
 20
36.5587
 11
-49.6412
 21
38.5485
  0
LINE
  8
0
 10
-49.6412
 20
38.5485
 11
-37.7974
 21
38.5485
  0
LINE
  8
0
 10
-37.7974
 20
38.5485
 11
-37.7793
 21
38.5485
  0
LINE
  8
0
 10
-37.7793
 20
38.5485
 11
-33.9888
 21
38.5485
  0
LINE
  8
0
 10
-33.9888
 20
38.5485
 11
-31.1003
 21
38.5485
  0
LINE
  8
0
 10
-31.1003
 20
38.5485
 11
-29.8895
 21
38.5485
  0
LINE
  8
0
 10
-29.8895
 20
38.5485
 11
-18.6862
 21
38.5485
  0
LINE
  8
0
 10
-18.6862
 20
38.5485
 11
-18.6623
 21
38.5485
  0
LINE
  8
0
 10
-18.6623
 20
38.5485
 11
-13.6072
 21
38.5485
  0
LINE
  8
0
 10
-13.6072
 20
38.5485
 11
-11.7073
 21
40.2962
  0
LINE
  8
0
 10
-11.7073
 20
40.2962
 11
-10.5417
 21
41.3685
  0
LINE
  8
0
 10
-10.5417
 20
41.3685
 11
-1.94848
 21
41.3685
  0
LINE
  8
0
 10
-1.94848
 20
41.3685
 11
6.07218
 21
41.3685
  0
LINE
  8
0
 10
6.07218
 20
41.3685
 11
8.87152
 21
39.9312
  0
LINE
  8
0
 10
8.87152
 20
39.9312
 11
11.5649
 21
38.5485
  0
LINE
  8
0
 10
11.5649
 20
38.5485
 11
15.4716
 21
38.5485
  0
LINE
  8
0
 10
15.4716
 20
38.5485
 11
15.6267
 21
37.869
  0
LINE
  8
0
 10
15.6267
 20
37.869
 11
15.6344
 21
37.835
  0
LINE
  8
0
 10
15.6344
 20
37.835
 11
15.6562
 21
37.8078
  0
LINE
  8
0
 10
15.6562
 20
37.8078
 11
16.8145
 21
36.3552
  0
LINE
  8
0
 10
16.8145
 20
36.3552
 11
18.4885
 21
35.5491
  0
LINE
  8
0
 10
18.4885
 20
35.5491
 11
18.5199
 21
35.5339
  0
LINE
  8
0
 10
18.5199
 20
35.5339
 11
20.4126
 21
35.5339
  0
LINE
  8
0
 10
20.4126
 20
35.5339
 11
20.444
 21
35.5491
  0
LINE
  8
0
 10
20.444
 20
35.5491
 11
22.118
 21
36.3552
  0
LINE
  8
0
 10
22.118
 20
36.3552
 11
23.2764
 21
37.8078
  0
LINE
  8
0
 10
23.2764
 20
37.8078
 11
23.2981
 21
37.835
  0
LINE
  8
0
 10
23.2981
 20
37.835
 11
23.3059
 21
37.869
  0
LINE
  8
0
 10
23.3059
 20
37.869
 11
23.4609
 21
38.5485
  0
LINE
  8
0
 10
23.4609
 20
38.5485
 11
28.4672
 21
38.5485
  0
LINE
  8
0
 10
28.4672
 20
38.5485
 11
31.0165
 21
33.4414
  0
LINE
  8
0
 10
31.0165
 20
33.4414
 11
34.4573
 21
26.5485
  0
LINE
  8
0
 10
34.4573
 20
26.5485
 11
43.7152
 21
26.5485
  0
LINE
  8
0
 10
43.7152
 20
26.5485
 11
51.7412
 21
26.5485
  0
LINE
  8
0
 10
51.7412
 20
26.5485
 11
53.953
 21
26.5485
  0
LINE
  8
0
 10
53.953
 20
26.5485
 11
56.2211
 21
26.5485
  0
LINE
  8
0
 10
56.2211
 20
26.5485
 11
73.4211
 21
26.5485
  0
LINE
  8
0
 10
73.4211
 20
26.5485
 11
75.8927
 21
24.1611
  0
LINE
  8
0
 10
75.8927
 20
24.1611
 11
78.4211
 21
21.7188
  0
LINE
  8
0
 10
78.4211
 20
21.7188
 11
78.4211
 21
14.0839
  0
LINE
  8
0
 10
78.4211
 20
14.0839
 11
78.4211
 21
5.07689
  0
LINE
  8
0
 10
78.4211
 20
5.07689
 11
78.4211
 21
2.63811
  0
LINE
  8
0
 10
78.4211
 20
2.63811
 11
78.4211
 21
0.451211
  0
LINE
  8
0
 10
78.4211
 20
0.451211
 11
78.2565
 21
-3.3
  0
LINE
  8
0
 10
78.2565
 20
-3.3
 11
78.2565
 21
-7.85361
  0
LINE
  8
0
 10
78.2565
 20
-7.85361
 11
77.5747
 21
-7.85361
  0
LINE
  8
0
 10
77.5747
 20
-7.85361
 11
77.5433
 21
-7.86873
  0
LINE
  8
0
 10
77.5433
 20
-7.86873
 11
75.8694
 21
-8.67486
  0
LINE
  8
0
 10
75.8694
 20
-8.67486
 11
74.711
 21
-10.1274
  0
LINE
  8
0
 10
74.711
 20
-10.1274
 11
74.6893
 21
-10.1547
  0
LINE
  8
0
 10
74.6893
 20
-10.1547
 11
74.6815
 21
-10.1887
  0
LINE
  8
0
 10
74.6815
 20
-10.1887
 11
74.2681
 21
-12
  0
LINE
  8
0
 10
74.2681
 20
-12
 11
74.6815
 21
-13.8113
  0
LINE
  8
0
 10
74.6815
 20
-13.8113
 11
74.6893
 21
-13.8453
  0
LINE
  8
0
 10
74.6893
 20
-13.8453
 11
74.711
 21
-13.8726
  0
LINE
  8
0
 10
74.711
 20
-13.8726
 11
75.8694
 21
-15.3251
  0
LINE
  8
0
 10
75.8694
 20
-15.3251
 11
77.5433
 21
-16.1313
  0
LINE
  8
0
 10
77.5433
 20
-16.1313
 11
77.5747
 21
-16.1464
  0
LINE
  8
0
 10
77.5747
 20
-16.1464
 11
78.2565
 21
-16.1464
  0
LINE
  8
0
 10
78.2565
 20
-16.1464
 11
78.2565
 21
-20.7
  0
LINE
  8
0
 10
78.2565
 20
-20.7
 11
78.4211
 21
-24.4512
  0
LINE
  8
0
 10
78.4211
 20
-24.4512
 11
78.4211
 21
-26.6381
  0
LINE
  8
0
 10
78.4211
 20
-26.6381
 11
78.4211
 21
-29.0769
  0
LINE
  8
0
 10
78.4211
 20
-29.0769
 11
78.4211
 21
-38.0839
  0
LINE
  8
0
 10
78.4211
 20
-38.0839
 11
78.4211
 21
-45.7188
  0
LINE
  8
0
 10
78.4211
 20
-45.7188
 11
75.8927
 21
-48.1611
  0
LINE
  8
0
 10
75.8927
 20
-48.1611
 11
73.4211
 21
-50.5485
  0
LINE
  8
0
 10
73.4211
 20
-50.5485
 11
56.2211
 21
-50.5485
  0
LINE
  8
0
 10
56.2211
 20
-50.5485
 11
53.953
 21
-50.5485
  0
LINE
  8
0
 10
53.953
 20
-50.5485
 11
51.7412
 21
-50.5485
  0
LINE
  8
0
 10
51.7412
 20
-50.5485
 11
43.7152
 21
-50.5485
  0
LINE
  8
0
 10
43.7152
 20
-50.5485
 11
34.4573
 21
-50.5485
  0
LINE
  8
0
 10
34.4573
 20
-50.5485
 11
34.2948
 21
-51.0481
  0
LINE
  8
0
 10
34.2948
 20
-51.0481
 11
34.1627
 21
-51.4543
  0
LINE
  8
0
 10
34.1627
 20
-51.4543
 11
34.1639
 21
-51.5075
  0
LINE
  8
0
 10
34.1639
 20
-51.5075
 11
34.188
 21
-52.5411
  0
LINE
  8
0
 10
34.188
 20
-52.5411
 11
34.209
 21
-53.4379
  0
LINE
  8
0
 10
34.209
 20
-53.4379
 11
34.21
 21
-53.4828
  0
LINE
  8
0
 10
34.21
 20
-53.4828
 11
34.21
 21
-53.4828
  0
LINE
  8
0
 10
34.21
 20
-53.4828
 11
34.2634
 21
-53.4828
  0
LINE
  8
0
 10
34.2634
 20
-53.4828
 11
37.7037
 21
-53.4828
  0
LINE
  8
0
 10
37.7037
 20
-53.4828
 11
37.3329
 21
-54.11
  0
LINE
  8
0
 10
37.3329
 20
-54.11
 11
33.3369
 21
-60.8699
  0
LINE
  8
0
 10
33.3369
 20
-60.8699
 11
27.3838
 21
-60.8699
  0
LINE
  8
0
 10
27.3838
 20
-60.8699
 11
13.8377
 21
-60.8699
  0
LINE
  8
0
 10
13.8377
 20
-60.8699
 11
9.89781
 21
-61.9513
  0
LINE
  8
0
 10
9.89781
 20
-61.9513
 11
4.5749
 21
-63.4123
  0
LINE
  8
0
 10
4.5749
 20
-63.4123
 11
4.26448
 21
-63.023
  0
LINE
  8
0
 10
4.26448
 20
-63.023
 11
2.59055
 21
-62.2169
  0
LINE
  8
0
 10
2.59055
 20
-62.2169
 11
2.55915
 21
-62.2018
  0
LINE
  8
0
 10
2.55915
 20
-62.2018
 11
0.666379
 21
-62.2018
  0
LINE
  8
0
 10
0.666379
 20
-62.2018
 11
0.634983
 21
-62.2169
  0
LINE
  8
0
 10
0.634983
 20
-62.2169
 11
-1.03895
 21
-63.023
  0
LINE
  8
0
 10
-1.03895
 20
-63.023
 11
-2.19735
 21
-64.4756
  0
LINE
  8
0
 10
-2.19735
 20
-64.4756
 11
-2.21907
 21
-64.5028
  0
LINE
  8
0
 10
-2.21907
 20
-64.5028
 11
-2.22683
 21
-64.5368
  0
LINE
  8
0
 10
-2.22683
 20
-64.5368
 11
-2.64025
 21
-66.3481
  0
LINE
  8
0
 10
-2.64025
 20
-66.3481
 11
-2.54286
 21
-66.7748
  0
LINE
  8
0
 10
-2.54286
 20
-66.7748
 11
-4.71309
 21
-68.1852
  0
LINE
  8
0
 10
-4.71309
 20
-68.1852
 11
-12.5391
 21
-73.271
  0
LINE
  8
0
 10
-12.5391
 20
-73.271
 11
-13.4352
 21
-73.955
  0
LINE
  8
0
 10
-13.4352
 20
-73.955
 11
-14.1134
 21
-74.4727
  0
LINE
  8
0
 10
-14.1134
 20
-74.4727
 11
-14.1347
 21
-74.4964
  0
LINE
  8
0
 10
-14.1347
 20
-74.4964
 11
-20.0425
 21
-81.0576
  0
LINE
  8
0
 10
-20.0425
 20
-81.0576
 11
-23.7441
 21
-85.1686
  0
LINE
  8
0
 10
-23.7441
 20
-85.1686
 11
-23.7441
 21
-85.1686
  0
LINE
  8
0
 10
-23.7441
 20
-85.1686
 11
-23.7658
 21
-85.1928
  0
LINE
  8
0
 10
-23.7658
 20
-85.1928
 11
-23.3693
 21
-87.0327
  0
LINE
  8
0
 10
-23.3693
 20
-87.0327
 11
-22.7532
 21
-89.8924
  0
LINE
  8
0
 10
-22.7532
 20
-89.8924
 11
-25.8717
 21
-94.1847
  0
LINE
  8
0
 10
-25.8717
 20
-94.1847
 11
-25.9935
 21
-94.3523
  0
LINE
  8
0
 10
-25.9935
 20
-94.3523
 11
-35.9204
 21
-100.929
  0
LINE
  8
0
 10
-35.9204
 20
-100.929
 11
-39.0534
 21
-100.971
  0
LINE
  8
0
 10
-39.0534
 20
-100.971
 11
-51.5439
 21
-90.0435
  0
LINE
  8
0
 10
-51.5439
 20
-90.0435
 11
-52.3867
 21
-89.3061
  0
LINE
  8
0
 10
-52.3867
 20
-89.3061
 11
-52.3867
 21
-89.3061
  0
LINE
  8
0
 10
-52.3867
 20
-89.3061
 11
-52.4642
 21
-89.2383
  0
LINE
  8
0
 10
-52.4642
 20
-89.2383
 11
-52.8536
 21
-89.048
  0
LINE
  8
0
 10
-52.8536
 20
-89.048
 11
-57.5795
 21
-87.674
  0
LINE
  8
0
 10
-57.5795
 20
-87.674
 11
-57.5795
 21
-87.674
  0
LINE
  8
0
 10
-57.5795
 20
-87.674
 11
-67.425
 21
-79.6101
  0
LINE
  8
0
 10
-67.425
 20
-79.6101
 11
-70.9097
 21
-76.7561
  0
LINE
  8
0
 10
-70.9097
 20
-76.7561
 11
-71.1103
 21
-74.6847
  0
LINE
  8
0
 10
-65.429
 20
22.5649
 11
-64.579
 21
24.0371
  0
LINE
  8
0
 10
-64.579
 20
24.0371
 11
-62.879
 21
24.0371
  0
LINE
  8
0
 10
-62.879
 20
24.0371
 11
-62.029
 21
22.5649
  0
LINE
  8
0
 10
-62.029
 20
22.5649
 11
-62.879
 21
21.0926
  0
LINE
  8
0
 10
-62.879
 20
21.0926
 11
-64.579
 21
21.0926
  0
LINE
  8
0
 10
-64.579
 20
21.0926
 11
-65.429
 21
22.5649
  0
LINE
  8
0
 10
-62.9345
 20
-8.65
 11
-62.9345
 21
8.65
  0
LINE
  8
0
 10
-62.9345
 20
8.65
 11
-62.7288
 21
12.3476
  0
LINE
  8
0
 10
-62.7288
 20
12.3476
 11
-62.6306
 21
14.1113
  0
LINE
  8
0
 10
-62.6306
 20
14.1113
 11
-62.106
 21
18.7443
  0
LINE
  8
0
 10
-62.106
 20
18.7443
 11
-61.7116
 21
18.9343
  0
LINE
  8
0
 10
-61.7116
 20
18.9343
 11
-61.7116
 21
-22.2274
  0
LINE
  8
0
 10
-61.7116
 20
-22.2274
 11
-62.6306
 21
-14.1113
  0
LINE
  8
0
 10
-62.6306
 20
-14.1113
 11
-62.7288
 21
-12.3476
  0
LINE
  8
0
 10
-62.7288
 20
-12.3476
 11
-62.9345
 21
-8.65
  0
LINE
  8
0
 10
-61.7481
 20
-43.592
 11
-60.8981
 21
-42.1197
  0
LINE
  8
0
 10
-60.8981
 20
-42.1197
 11
-59.1981
 21
-42.1197
  0
LINE
  8
0
 10
-59.1981
 20
-42.1197
 11
-58.3481
 21
-43.592
  0
LINE
  8
0
 10
-58.3481
 20
-43.592
 11
-59.1981
 21
-45.0642
  0
LINE
  8
0
 10
-59.1981
 20
-45.0642
 11
-60.8981
 21
-45.0642
  0
LINE
  8
0
 10
-60.8981
 20
-45.0642
 11
-61.7481
 21
-43.592
  0
LINE
  8
0
 10
-0.0872352
 20
-66.3481
 11
0.762765
 21
-64.8759
  0
LINE
  8
0
 10
0.762765
 20
-64.8759
 11
2.46276
 21
-64.8759
  0
LINE
  8
0
 10
2.46276
 20
-64.8759
 11
3.31276
 21
-66.3481
  0
LINE
  8
0
 10
3.31276
 20
-66.3481
 11
2.46276
 21
-67.8204
  0
LINE
  8
0
 10
2.46276
 20
-67.8204
 11
0.762765
 21
-67.8204
  0
LINE
  8
0
 10
0.762765
 20
-67.8204
 11
-0.0872352
 21
-66.3481
  0
LINE
  8
0
 10
17.7663
 20
39.6803
 11
18.6163
 21
41.1526
  0
LINE
  8
0
 10
18.6163
 20
41.1526
 11
20.3163
 21
41.1526
  0
LINE
  8
0
 10
20.3163
 20
41.1526
 11
21.1663
 21
39.6803
  0
LINE
  8
0
 10
21.1663
 20
39.6803
 11
20.3163
 21
38.2081
  0
LINE
  8
0
 10
20.3163
 20
38.2081
 11
18.6163
 21
38.2081
  0
LINE
  8
0
 10
18.6163
 20
38.2081
 11
17.7663
 21
39.6803
  0
LINE
  8
0
 10
76.8211
 20
-12
 11
77.6711
 21
-10.5278
  0
LINE
  8
0
 10
77.6711
 20
-10.5278
 11
79.3711
 21
-10.5278
  0
LINE
  8
0
 10
79.3711
 20
-10.5278
 11
80.2211
 21
-12
  0
LINE
  8
0
 10
80.2211
 20
-12
 11
79.3711
 21
-13.4722
  0
LINE
  8
0
 10
79.3711
 20
-13.4722
 11
77.6711
 21
-13.4722
  0
LINE
  8
0
 10
77.6711
 20
-13.4722
 11
76.8211
 21
-12
  0
ENDSEC
  0
SECTION
  2
OBJECTS
  0
DICTIONARY
  0
ENDSEC
  0
EOF
