  0
SECTION
  2
HEADER
  9
$ACADVER
  1
AC1014
  9
$HANDSEED
  5
FFFF
  9
$MEASUREMENT
 70
     1
  0
ENDSEC
  0
SECTION
  2
TABLES
  0
TABLE
  2
VPORT
  5
8
330
0
100
AcDbSymbolTable
 70
     4
  0
VPORT
  5
2E
330
8
100
AcDbSymbolTableRecord
100
AcDbViewportTableRecord
  2
*ACTIVE
 70
     0
 10
0.0
 20
0.0
 11
1.0
 21
1.0
 12
210.0
 22
148.5
 13
0.0
 23
0.0
 14
10.0
 24
10.0
 15
10.0
 25
10.0
 16
0.0
 26
0.0
 36
1.0
 17
0.0
 27
0.0
 37
0.0
 40
341.0
 41
1.24
 42
50.0
 43
0.0
 44
0.0
 50
0.0
 51
0.0
 71
     0
 72
   100
 73
     1
 74
     3
 75
     0
 76
     0
 77
     0
 78
     0
  0
ENDTAB
  0
TABLE
  2
LTYPE
  5
5
330
0
100
AcDbSymbolTable
 70
     1
  0
LTYPE
  5
14
330
5
100
AcDbSymbolTableRecord
100
AcDbLinetypeTableRecord
  2
BYBLOCK
 70
     0
  3

 72
    65
 73
     0
 40
0.0
  0
LTYPE
  5
15
330
5
100
AcDbSymbolTableRecord
100
AcDbLinetypeTableRecord
  2
BYLAYER
 70
     0
  3

 72
    65
 73
     0
 40
0.0
  0
LTYPE
  5
16
330
5
100
AcDbSymbolTableRecord
100
AcDbLinetypeTableRecord
  2
CONTINUOUS
 70
     0
  3
Solid line
 72
    65
 73
     0
 40
0.0
  0
ENDTAB
  0
TABLE
  2
LAYER
  5
2
100
AcDbSymbolTable
 70
1
  0
LAYER
  5
50
100
AcDbSymbolTableRecord
100
AcDbLayerTableRecord
  2
0
 70
0
  6
CONTINUOUS
  0
ENDTAB
  0
TABLE
  2
STYLE
  5
3
330
0
100
AcDbSymbolTable
 70
     1
  0
STYLE
  5
11
330
3
100
AcDbSymbolTableRecord
100
AcDbTextStyleTableRecord
  2
STANDARD
 70
     0
 40
0.0
 41
1.0
 50
0.0
 71
     0
 42
2.5
  3
txt
  4

  0
ENDTAB
  0
TABLE
  2
VIEW
  5
6
330
0
100
AcDbSymbolTable
 70
     0
  0
ENDTAB
  0
TABLE
  2
UCS
  5
7
330
0
100
AcDbSymbolTable
 70
     0
  0
ENDTAB
  0
TABLE
  2
APPID
  5
9
330
0
100
AcDbSymbolTable
 70
     2
  0
APPID
  5
12
330
9
100
AcDbSymbolTableRecord
100
AcDbRegAppTableRecord
  2
ACAD
 70
     0
  0
ENDTAB
  0
TABLE
  2
DIMSTYLE
  5
A
330
0
100
AcDbSymbolTable
 70
     1
  0
DIMSTYLE
105
27
330
A
100
AcDbSymbolTableRecord
100
AcDbDimStyleTableRecord
  2
ISO-25
 70
     0
  3

  4

  5

  6

  7

 40
1.0
 41
2.5
 42
0.625
 43
3.75
 44
1.25
 45
0.0
 46
0.0
 47
0.0
 48
0.0
140
2.5
141
2.5
142
0.0
143
0.03937007874016
144
1.0
145
0.0
146
1.0
147
0.625
 71
     0
 72
     0
 73
     0
 74
     0
 75
     0
 76
     0
 77
     1
 78
     8
170
     0
171
     3
172
     1
173
     0
174
     0
175
     0
176
     0
177
     0
178
     0
270
     2
271
     2
272
     2
273
     2
274
     3
340
11
275
     0
280
     0
281
     0
282
     0
283
     0
284
     8
285
     0
286
     0
287
     3
288
     0
  0
ENDTAB
  0
TABLE
  2
BLOCK_RECORD
  5
1
330
0
100
AcDbSymbolTable
 70
     1
  0
BLOCK_RECORD
  5
1F
330
1
100
AcDbSymbolTableRecord
100
AcDbBlockTableRecord
  2
*MODEL_SPACE
  0
BLOCK_RECORD
  5
1B
330
1
100
AcDbSymbolTableRecord
100
AcDbBlockTableRecord
  2
*PAPER_SPACE
  0
ENDTAB
  0
ENDSEC
  0
SECTION
  2
BLOCKS
  0
BLOCK
  5
20
330
1F
100
AcDbEntity
  8
0
100
AcDbBlockBegin
  2
*MODEL_SPACE
 70
     0
 10
0.0
 20
0.0
 30
0.0
  3
*MODEL_SPACE
  1

  0
ENDBLK
  5
21
330
1F
100
AcDbEntity
  8
0
100
AcDbBlockEnd
  0
BLOCK
  5
1C
330
1B
100
AcDbEntity
 67
     1
  8
0
100
AcDbBlockBegin
  2
*PAPER_SPACE
  1

  0
ENDBLK
  5
1D
330
1B
100
AcDbEntity
 67
     1
  8
0
100
AcDbBlockEnd
  0
ENDSEC
  0
SECTION
  2
ENTITIES
  0
LWPOLYLINE
  5
100
100
AcDbEntity
  8
0
 62
7
100
AcDbPolyline
 90
2
 70
0
 10
264.696375
 20
45.978814
 30
0.0
 10
262.286933
 20
50.151964
 30
0.0
  0
LWPOLYLINE
  5
101
100
AcDbEntity
  8
0
 62
7
100
AcDbPolyline
 90
2
 70
0
 10
269.515275
 20
45.978814
 30
0.0
 10
264.696375
 20
45.978814
 30
0.0
  0
LWPOLYLINE
  5
102
100
AcDbEntity
  8
0
 62
7
100
AcDbPolyline
 90
2
 70
0
 10
271.924725
 20
50.151964
 30
0.0
 10
269.515275
 20
45.978814
 30
0.0
  0
LWPOLYLINE
  5
103
100
AcDbEntity
  8
0
 62
7
100
AcDbPolyline
 90
2
 70
0
 10
269.515275
 20
54.325414
 30
0.0
 10
271.924725
 20
50.151964
 30
0.0
  0
LWPOLYLINE
  5
104
100
AcDbEntity
  8
0
 62
7
100
AcDbPolyline
 90
2
 70
0
 10
264.696375
 20
54.325414
 30
0.0
 10
269.515275
 20
54.325414
 30
0.0
  0
LWPOLYLINE
  5
105
100
AcDbEntity
  8
0
 62
7
100
AcDbPolyline
 90
2
 70
0
 10
262.286933
 20
50.151964
 30
0.0
 10
264.696375
 20
54.325414
 30
0.0
  0
LWPOLYLINE
  5
106
100
AcDbEntity
  8
0
 62
7
100
AcDbPolyline
 90
2
 70
0
 10
46.375937
 20
179.618456
 30
0.0
 10
43.966488
 20
183.791621
 30
0.0
  0
LWPOLYLINE
  5
107
100
AcDbEntity
  8
0
 62
7
100
AcDbPolyline
 90
2
 70
0
 10
51.194835
 20
179.618456
 30
0.0
 10
46.375937
 20
179.618456
 30
0.0
  0
LWPOLYLINE
  5
108
100
AcDbEntity
  8
0
 62
7
100
AcDbPolyline
 90
2
 70
0
 10
53.604283
 20
183.791621
 30
0.0
 10
51.194835
 20
179.618456
 30
0.0
  0
LWPOLYLINE
  5
109
100
AcDbEntity
  8
0
 62
7
100
AcDbPolyline
 90
2
 70
0
 10
51.194835
 20
187.964786
 30
0.0
 10
53.604283
 20
183.791621
 30
0.0
  0
LWPOLYLINE
  5
10a
100
AcDbEntity
  8
0
 62
7
100
AcDbPolyline
 90
2
 70
0
 10
46.375937
 20
187.964786
 30
0.0
 10
51.194835
 20
187.964786
 30
0.0
  0
LWPOLYLINE
  5
10b
100
AcDbEntity
  8
0
 62
7
100
AcDbPolyline
 90
2
 70
0
 10
43.966488
 20
183.791621
 30
0.0
 10
46.375937
 20
187.964786
 30
0.0
  0
LWPOLYLINE
  5
10c
100
AcDbEntity
  8
0
 62
7
100
AcDbPolyline
 90
2
 70
0
 10
-14.188223
 20
-174.127211
 30
0.0
 10
-16.597673
 20
-169.953761
 30
0.0
  0
LWPOLYLINE
  5
10d
100
AcDbEntity
  8
0
 62
7
100
AcDbPolyline
 90
2
 70
0
 10
-9.369326
 20
-174.127211
 30
0.0
 10
-14.188223
 20
-174.127211
 30
0.0
  0
LWPOLYLINE
  5
10e
100
AcDbEntity
  8
0
 62
7
100
AcDbPolyline
 90
2
 70
0
 10
-6.959877
 20
-169.953761
 30
0.0
 10
-9.369326
 20
-174.127211
 30
0.0
  0
LWPOLYLINE
  5
10f
100
AcDbEntity
  8
0
 62
7
100
AcDbPolyline
 90
2
 70
0
 10
-9.369326
 20
-165.780536
 30
0.0
 10
-6.959877
 20
-169.953761
 30
0.0
  0
LWPOLYLINE
  5
110
100
AcDbEntity
  8
0
 62
7
100
AcDbPolyline
 90
2
 70
0
 10
-14.188223
 20
-165.780536
 30
0.0
 10
-9.369326
 20
-165.780536
 30
0.0
  0
LWPOLYLINE
  5
111
100
AcDbEntity
  8
0
 62
7
100
AcDbPolyline
 90
2
 70
0
 10
-16.597673
 20
-169.953761
 30
0.0
 10
-14.188223
 20
-165.780536
 30
0.0
  0
LWPOLYLINE
  5
112
100
AcDbEntity
  8
0
 62
7
100
AcDbPolyline
 90
2
 70
0
 10
-180.442207
 20
125.103116
 30
0.0
 10
-182.851650
 20
129.276566
 30
0.0
  0
LWPOLYLINE
  5
113
100
AcDbEntity
  8
0
 62
7
100
AcDbPolyline
 90
2
 70
0
 10
-175.623308
 20
125.103116
 30
0.0
 10
-180.442207
 20
125.103116
 30
0.0
  0
LWPOLYLINE
  5
114
100
AcDbEntity
  8
0
 62
7
100
AcDbPolyline
 90
2
 70
0
 10
-173.213857
 20
129.276566
 30
0.0
 10
-175.623308
 20
125.103116
 30
0.0
  0
LWPOLYLINE
  5
115
100
AcDbEntity
  8
0
 62
7
100
AcDbPolyline
 90
2
 70
0
 10
-175.623308
 20
133.449731
 30
0.0
 10
-173.213857
 20
129.276566
 30
0.0
  0
LWPOLYLINE
  5
116
100
AcDbEntity
  8
0
 62
7
100
AcDbPolyline
 90
2
 70
0
 10
-180.442207
 20
133.449731
 30
0.0
 10
-175.623308
 20
133.449731
 30
0.0
  0
LWPOLYLINE
  5
117
100
AcDbEntity
  8
0
 62
7
100
AcDbPolyline
 90
2
 70
0
 10
-182.851650
 20
129.276566
 30
0.0
 10
-180.442207
 20
133.449731
 30
0.0
  0
LWPOLYLINE
  5
118
100
AcDbEntity
  8
0
 62
7
100
AcDbPolyline
 90
2
 70
0
 10
-185.167275
 20
-111.449186
 30
0.0
 10
-187.576725
 20
-107.275736
 30
0.0
  0
LWPOLYLINE
  5
119
100
AcDbEntity
  8
0
 62
7
100
AcDbPolyline
 90
2
 70
0
 10
-180.348375
 20
-111.449186
 30
0.0
 10
-185.167275
 20
-111.449186
 30
0.0
  0
LWPOLYLINE
  5
11a
100
AcDbEntity
  8
0
 62
7
100
AcDbPolyline
 90
2
 70
0
 10
-177.938933
 20
-107.275736
 30
0.0
 10
-180.348375
 20
-111.449186
 30
0.0
  0
LWPOLYLINE
  5
11b
100
AcDbEntity
  8
0
 62
7
100
AcDbPolyline
 90
2
 70
0
 10
-180.348375
 20
-103.102586
 30
0.0
 10
-177.938933
 20
-107.275736
 30
0.0
  0
LWPOLYLINE
  5
11c
100
AcDbEntity
  8
0
 62
7
100
AcDbPolyline
 90
2
 70
0
 10
-185.167275
 20
-103.102586
 30
0.0
 10
-180.348375
 20
-103.102586
 30
0.0
  0
LWPOLYLINE
  5
11d
100
AcDbEntity
  8
0
 62
7
100
AcDbPolyline
 90
2
 70
0
 10
-187.576725
 20
-107.275736
 30
0.0
 10
-185.167275
 20
-103.102586
 30
0.0
  0
LWPOLYLINE
  5
11e
100
AcDbEntity
  8
0
 62
7
100
AcDbPolyline
 90
1
 70
1
 10
-214.208220
 20
-201.193811
 30
0.0
  0
LWPOLYLINE
  5
11f
100
AcDbEntity
  8
0
 62
7
100
AcDbPolyline
 90
2
 70
0
 10
-213.945165
 20
-203.908286
 30
0.0
 10
-214.208220
 20
-201.193811
 30
0.0
  0
LWPOLYLINE
  5
120
100
AcDbEntity
  8
0
 62
7
100
AcDbPolyline
 90
2
 70
0
 10
-176.158770
 20
-234.856886
 30
0.0
 10
-213.945165
 20
-203.908286
 30
0.0
  0
LWPOLYLINE
  5
121
100
AcDbEntity
  8
0
 62
7
100
AcDbPolyline
 90
2
 70
0
 10
-166.642012
 20
-237.623561
 30
0.0
 10
-176.158770
 20
-234.856886
 30
0.0
  0
LWPOLYLINE
  5
122
100
AcDbEntity
  8
0
 62
7
100
AcDbPolyline
 90
2
 70
0
 10
-163.519372
 20
-239.508536
 30
0.0
 10
-166.642012
 20
-237.623561
 30
0.0
  0
LWPOLYLINE
  5
123
100
AcDbEntity
  8
0
 62
7
100
AcDbPolyline
 90
2
 70
0
 10
-163.406265
 20
-239.590736
 30
0.0
 10
-163.519372
 20
-239.508536
 30
0.0
  0
LWPOLYLINE
  5
124
100
AcDbEntity
  8
0
 62
7
100
AcDbPolyline
 90
2
 70
0
 10
-155.362395
 20
-245.434961
 30
0.0
 10
-163.406265
 20
-239.590736
 30
0.0
  0
LWPOLYLINE
  5
125
100
AcDbEntity
  8
0
 62
7
100
AcDbPolyline
 90
2
 70
0
 10
-149.606932
 20
-249.616361
 30
0.0
 10
-155.362395
 20
-245.434961
 30
0.0
  0
LWPOLYLINE
  5
126
100
AcDbEntity
  8
0
 62
7
100
AcDbPolyline
 90
1
 70
1
 10
-149.606932
 20
-249.616361
 30
0.0
  0
LWPOLYLINE
  5
127
100
AcDbEntity
  8
0
 62
7
100
AcDbPolyline
 90
2
 70
0
 10
-124.406362
 20
-271.663661
 30
0.0
 10
-149.606932
 20
-249.616361
 30
0.0
  0
LWPOLYLINE
  5
128
100
AcDbEntity
  8
0
 62
7
100
AcDbPolyline
 90
2
 70
0
 10
-119.355307
 20
-271.595636
 30
0.0
 10
-124.406362
 20
-271.663886
 30
0.0
  0
LWPOLYLINE
  5
129
100
AcDbEntity
  8
0
 62
7
100
AcDbPolyline
 90
2
 70
0
 10
-80.115022
 20
-245.599586
 30
0.0
 10
-119.355307
 20
-271.595861
 30
0.0
  0
LWPOLYLINE
  5
12a
100
AcDbEntity
  8
0
 62
7
100
AcDbPolyline
 90
2
 70
0
 10
-76.087275
 20
-240.055886
 30
0.0
 10
-80.115022
 20
-245.599586
 30
0.0
  0
LWPOLYLINE
  5
12b
100
AcDbEntity
  8
0
 62
7
100
AcDbPolyline
 90
2
 70
0
 10
-76.887495
 20
-236.342186
 30
0.0
 10
-76.087275
 20
-240.055886
 30
0.0
  0
LWPOLYLINE
  5
12c
100
AcDbEntity
  8
0
 62
7
100
AcDbPolyline
 90
2
 70
0
 10
-78.957637
 20
-226.734161
 30
0.0
 10
-76.887495
 20
-236.342186
 30
0.0
  0
LWPOLYLINE
  5
12d
100
AcDbEntity
  8
0
 62
7
100
AcDbPolyline
 90
1
 70
1
 10
-78.957637
 20
-226.734161
 30
0.0
  0
LWPOLYLINE
  5
12e
100
AcDbEntity
  8
0
 62
7
100
AcDbPolyline
 90
2
 70
0
 10
-67.633795
 20
-214.157711
 30
0.0
 10
-78.957637
 20
-226.734161
 30
0.0
  0
LWPOLYLINE
  5
12f
100
AcDbEntity
  8
0
 62
7
100
AcDbPolyline
 90
2
 70
0
 10
-51.661984
 20
-196.419311
 30
0.0
 10
-67.633795
 20
-214.157711
 30
0.0
  0
LWPOLYLINE
  5
130
100
AcDbEntity
  8
0
 62
7
100
AcDbPolyline
 90
2
 70
0
 10
-51.596504
 20
-196.346486
 30
0.0
 10
-51.661987
 20
-196.419236
 30
0.0
  0
LWPOLYLINE
  5
131
100
AcDbEntity
  8
0
 62
7
100
AcDbPolyline
 90
2
 70
0
 10
-49.493766
 20
-194.741411
 30
0.0
 10
-51.596506
 20
-196.346411
 30
0.0
  0
LWPOLYLINE
  5
132
100
AcDbEntity
  8
0
 62
7
100
AcDbPolyline
 90
2
 70
0
 10
-47.133923
 20
-192.940061
 30
0.0
 10
-49.493766
 20
-194.741411
 30
0.0
  0
LWPOLYLINE
  5
133
100
AcDbEntity
  8
0
 62
7
100
AcDbPolyline
 90
2
 70
0
 10
-34.167970
 20
-184.514036
 30
0.0
 10
-47.133923
 20
-192.940061
 30
0.0
  0
LWPOLYLINE
  5
134
100
AcDbEntity
  8
0
 62
7
100
AcDbPolyline
 90
2
 70
0
 10
-34.167120
 20
-184.513436
 30
0.0
 10
-34.167945
 20
-184.514036
 30
0.0
  0
LWPOLYLINE
  5
135
100
AcDbEntity
  8
0
 62
7
100
AcDbPolyline
 90
2
 70
0
 10
-21.675151
 20
-176.395361
 30
0.0
 10
-34.167094
 20
-184.513436
 30
0.0
  0
LWPOLYLINE
  5
136
100
AcDbEntity
  8
0
 62
7
100
AcDbPolyline
 90
2
 70
0
 10
-22.579063
 20
-175.262036
 30
0.0
 10
-21.675151
 20
-176.395361
 30
0.0
  0
LWPOLYLINE
  5
137
100
AcDbEntity
  8
0
 62
7
100
AcDbPolyline
 90
2
 70
0
 10
-22.640632
 20
-175.184636
 30
0.0
 10
-22.579064
 20
-175.262036
 30
0.0
  0
LWPOLYLINE
  5
138
100
AcDbEntity
  8
0
 62
7
100
AcDbPolyline
 90
2
 70
0
 10
-22.662629
 20
-175.088561
 30
0.0
 10
-22.640632
 20
-175.184636
 30
0.0
  0
LWPOLYLINE
  5
139
100
AcDbEntity
  8
0
 62
7
100
AcDbPolyline
 90
2
 70
0
 10
-23.834528
 20
-169.953911
 30
0.0
 10
-22.662628
 20
-175.088561
 30
0.0
  0
LWPOLYLINE
  5
13a
100
AcDbEntity
  8
0
 62
7
100
AcDbPolyline
 90
2
 70
0
 10
-22.662628
 20
-164.819486
 30
0.0
 10
-23.834528
 20
-169.953911
 30
0.0
  0
LWPOLYLINE
  5
13b
100
AcDbEntity
  8
0
 62
7
100
AcDbPolyline
 90
2
 70
0
 10
-22.640632
 20
-164.723111
 30
0.0
 10
-22.662629
 20
-164.819486
 30
0.0
  0
LWPOLYLINE
  5
13c
100
AcDbEntity
  8
0
 62
7
100
AcDbPolyline
 90
2
 70
0
 10
-22.579064
 20
-164.646011
 30
0.0
 10
-22.640632
 20
-164.723111
 30
0.0
  0
LWPOLYLINE
  5
13d
100
AcDbEntity
  8
0
 62
7
100
AcDbPolyline
 90
2
 70
0
 10
-19.295410
 20
-160.528436
 30
0.0
 10
-22.579063
 20
-164.646011
 30
0.0
  0
LWPOLYLINE
  5
13e
100
AcDbEntity
  8
0
 62
7
100
AcDbPolyline
 90
2
 70
0
 10
-14.550412
 20
-158.243411
 30
0.0
 10
-19.295410
 20
-160.528436
 30
0.0
  0
LWPOLYLINE
  5
13f
100
AcDbEntity
  8
0
 62
7
100
AcDbPolyline
 90
2
 70
0
 10
-14.461403
 20
-158.200286
 30
0.0
 10
-14.550412
 20
-158.243786
 30
0.0
  0
LWPOLYLINE
  5
140
100
AcDbEntity
  8
0
 62
7
100
AcDbPolyline
 90
2
 70
0
 10
-9.096071
 20
-158.200286
 30
0.0
 10
-14.461403
 20
-158.200286
 30
0.0
  0
LWPOLYLINE
  5
141
100
AcDbEntity
  8
0
 62
7
100
AcDbPolyline
 90
2
 70
0
 10
-9.007063
 20
-158.243786
 30
0.0
 10
-9.096071
 20
-158.200286
 30
0.0
  0
LWPOLYLINE
  5
142
100
AcDbEntity
  8
0
 62
7
100
AcDbPolyline
 90
2
 70
0
 10
-4.262065
 20
-160.528436
 30
0.0
 10
-9.007063
 20
-158.243411
 30
0.0
  0
LWPOLYLINE
  5
143
100
AcDbEntity
  8
0
 62
7
100
AcDbPolyline
 90
2
 70
0
 10
-0.978428
 20
-164.646011
 30
0.0
 10
-4.262065
 20
-160.528436
 30
0.0
  0
LWPOLYLINE
  5
144
100
AcDbEntity
  8
0
 62
7
100
AcDbPolyline
 90
2
 70
0
 10
-0.916840
 20
-164.723111
 30
0.0
 10
-0.978428
 20
-164.646011
 30
0.0
  0
LWPOLYLINE
  5
145
100
AcDbEntity
  8
0
 62
7
100
AcDbPolyline
 90
2
 70
0
 10
-0.911602
 20
-164.746061
 30
0.0
 10
-0.916837
 20
-164.722811
 30
0.0
  0
LWPOLYLINE
  5
146
100
AcDbEntity
  8
0
 62
7
100
AcDbPolyline
 90
2
 70
0
 10
12.993731
 20
-159.247436
 30
0.0
 10
-0.911599
 20
-164.745761
 30
0.0
  0
LWPOLYLINE
  5
147
100
AcDbEntity
  8
0
 62
7
100
AcDbPolyline
 90
2
 70
0
 10
12.994411
 20
-159.247136
 30
0.0
 10
12.993731
 20
-159.247436
 30
0.0
  0
LWPOLYLINE
  5
148
100
AcDbEntity
  8
0
 62
7
100
AcDbPolyline
 90
2
 70
0
 10
23.539718
 20
-155.077661
 30
0.0
 10
12.994411
 20
-159.247136
 30
0.0
  0
LWPOLYLINE
  5
149
100
AcDbEntity
  8
0
 62
7
100
AcDbPolyline
 90
2
 70
0
 10
58.121034
 20
-155.077661
 30
0.0
 10
23.539691
 20
-155.077661
 30
0.0
  0
LWPOLYLINE
  5
14a
100
AcDbEntity
  8
0
 62
7
100
AcDbPolyline
 90
2
 70
0
 10
78.627682
 20
-155.077661
 30
0.0
 10
58.121008
 20
-155.077661
 30
0.0
  0
LWPOLYLINE
  5
14b
100
AcDbEntity
  8
0
 62
7
100
AcDbPolyline
 90
2
 70
0
 10
88.402957
 20
-138.913661
 30
0.0
 10
78.627683
 20
-155.077661
 30
0.0
  0
LWPOLYLINE
  5
14c
100
AcDbEntity
  8
0
 62
7
100
AcDbPolyline
 90
2
 70
0
 10
90.937703
 20
-134.722586
 30
0.0
 10
88.402957
 20
-138.913661
 30
0.0
  0
LWPOLYLINE
  5
14d
100
AcDbEntity
  8
0
 62
7
100
AcDbPolyline
 90
2
 70
0
 10
81.173767
 20
-134.722586
 30
0.0
 10
90.937703
 20
-134.722586
 30
0.0
  0
LWPOLYLINE
  5
14e
100
AcDbEntity
  8
0
 62
7
100
AcDbPolyline
 90
2
 70
0
 10
80.991210
 20
-134.722586
 30
0.0
 10
81.173767
 20
-134.722586
 30
0.0
  0
LWPOLYLINE
  5
14f
100
AcDbEntity
  8
0
 62
7
100
AcDbPolyline
 90
1
 70
1
 10
80.991210
 20
-134.722586
 30
0.0
  0
LWPOLYLINE
  5
150
100
AcDbEntity
  8
0
 62
7
100
AcDbPolyline
 90
2
 70
0
 10
80.988960
 20
-134.624261
 30
0.0
 10
80.991210
 20
-134.722586
 30
0.0
  0
LWPOLYLINE
  5
151
100
AcDbEntity
  8
0
 62
7
100
AcDbPolyline
 90
2
 70
0
 10
80.903903
 20
-130.268261
 30
0.0
 10
80.989230
 20
-134.624261
 30
0.0
  0
LWPOLYLINE
  5
152
100
AcDbEntity
  8
0
 62
7
100
AcDbPolyline
 90
2
 70
0
 10
80.864790
 20
-128.265311
 30
0.0
 10
80.903865
 20
-130.268261
 30
0.0
  0
LWPOLYLINE
  5
153
100
AcDbEntity
  8
0
 62
7
100
AcDbPolyline
 90
2
 70
0
 10
80.862765
 20
-128.172011
 30
0.0
 10
80.865015
 20
-128.265311
 30
0.0
  0
LWPOLYLINE
  5
154
100
AcDbEntity
  8
0
 62
7
100
AcDbPolyline
 90
2
 70
0
 10
81.424567
 20
-127.192661
 30
0.0
 10
80.863028
 20
-128.172011
 30
0.0
  0
LWPOLYLINE
  5
155
100
AcDbEntity
  8
0
 62
7
100
AcDbPolyline
 90
2
 70
0
 10
81.896828
 20
-126.368936
 30
0.0
 10
81.424567
 20
-127.192661
 30
0.0
  0
LWPOLYLINE
  5
156
100
AcDbEntity
  8
0
 62
7
100
AcDbPolyline
 90
2
 70
0
 10
104.300160
 20
-126.368936
 30
0.0
 10
81.896828
 20
-126.368936
 30
0.0
  0
LWPOLYLINE
  5
157
100
AcDbEntity
  8
0
 62
7
100
AcDbPolyline
 90
2
 70
0
 10
104.438212
 20
-126.368936
 30
0.0
 10
104.300160
 20
-126.368936
 30
0.0
  0
LWPOLYLINE
  5
158
100
AcDbEntity
  8
0
 62
7
100
AcDbPolyline
 90
2
 70
0
 10
130.772070
 20
-126.368936
 30
0.0
 10
104.438212
 20
-126.368936
 30
0.0
  0
LWPOLYLINE
  5
159
100
AcDbEntity
  8
0
 62
7
100
AcDbPolyline
 90
2
 70
0
 10
135.393960
 20
-126.368936
 30
0.0
 10
130.772070
 20
-126.368936
 30
0.0
  0
LWPOLYLINE
  5
15a
100
AcDbEntity
  8
0
 62
7
100
AcDbPolyline
 90
2
 70
0
 10
142.518270
 20
-126.368936
 30
0.0
 10
135.393960
 20
-126.368936
 30
0.0
  0
LWPOLYLINE
  5
15b
100
AcDbEntity
  8
0
 62
7
100
AcDbPolyline
 90
2
 70
0
 10
161.412037
 20
-126.368936
 30
0.0
 10
142.518270
 20
-126.368936
 30
0.0
  0
LWPOLYLINE
  5
15c
100
AcDbEntity
  8
0
 62
7
100
AcDbPolyline
 90
2
 70
0
 10
161.581830
 20
-126.368936
 30
0.0
 10
161.412037
 20
-126.368936
 30
0.0
  0
LWPOLYLINE
  5
15d
100
AcDbEntity
  8
0
 62
7
100
AcDbPolyline
 90
2
 70
0
 10
191.367435
 20
-126.368936
 30
0.0
 10
161.581830
 20
-126.368936
 30
0.0
  0
LWPOLYLINE
  5
15e
100
AcDbEntity
  8
0
 62
7
100
AcDbPolyline
 90
2
 70
0
 10
198.732982
 20
-126.368936
 30
0.0
 10
191.367435
 20
-126.368936
 30
0.0
  0
LWPOLYLINE
  5
15f
100
AcDbEntity
  8
0
 62
7
100
AcDbPolyline
 90
2
 70
0
 10
203.144820
 20
-126.368936
 30
0.0
 10
198.732982
 20
-126.368936
 30
0.0
  0
LWPOLYLINE
  5
160
100
AcDbEntity
  8
0
 62
7
100
AcDbPolyline
 90
2
 70
0
 10
231.516795
 20
-126.368936
 30
0.0
 10
203.144820
 20
-126.368936
 30
0.0
  0
LWPOLYLINE
  5
161
100
AcDbEntity
  8
0
 62
7
100
AcDbPolyline
 90
2
 70
0
 10
251.899027
 20
-126.368936
 30
0.0
 10
231.516795
 20
-126.368936
 30
0.0
  0
LWPOLYLINE
  5
162
100
AcDbEntity
  8
0
 62
7
100
AcDbPolyline
 90
2
 70
0
 10
260.488005
 20
-118.005611
 30
0.0
 10
251.899027
 20
-126.368936
 30
0.0
  0
LWPOLYLINE
  5
163
100
AcDbEntity
  8
0
 62
7
100
AcDbPolyline
 90
2
 70
0
 10
266.212567
 20
-112.431836
 30
0.0
 10
260.488005
 20
-118.005611
 30
0.0
  0
LWPOLYLINE
  5
164
100
AcDbEntity
  8
0
 62
7
100
AcDbPolyline
 90
2
 70
0
 10
266.450400
 20
-93.146036
 30
0.0
 10
266.212567
 20
-112.431836
 30
0.0
  0
LWPOLYLINE
  5
165
100
AcDbEntity
  8
0
 62
7
100
AcDbPolyline
 90
2
 70
0
 10
266.804160
 20
-64.487186
 30
0.0
 10
266.450400
 20
-93.146036
 30
0.0
  0
LWPOLYLINE
  5
166
100
AcDbEntity
  8
0
 62
7
100
AcDbPolyline
 90
2
 70
0
 10
266.827972
 20
-59.271986
 30
0.0
 10
266.804197
 20
-64.487186
 30
0.0
  0
LWPOLYLINE
  5
167
100
AcDbEntity
  8
0
 62
7
100
AcDbPolyline
 90
2
 70
0
 10
266.894910
 20
-44.685761
 30
0.0
 10
266.828010
 20
-59.271986
 30
0.0
  0
LWPOLYLINE
  5
168
100
AcDbEntity
  8
0
 62
7
100
AcDbPolyline
 90
2
 70
0
 10
266.787735
 20
-9.591386
 30
0.0
 10
266.894887
 20
-44.685761
 30
0.0
  0
LWPOLYLINE
  5
169
100
AcDbEntity
  8
0
 62
7
100
AcDbPolyline
 90
2
 70
0
 10
266.746350
 20
4.019314
 30
0.0
 10
266.787750
 20
-9.591386
 30
0.0
  0
LWPOLYLINE
  5
16a
100
AcDbEntity
  8
0
 62
7
100
AcDbPolyline
 90
2
 70
0
 10
266.687122
 20
9.495289
 30
0.0
 10
266.746373
 20
4.019314
 30
0.0
  0
LWPOLYLINE
  5
16b
100
AcDbEntity
  8
0
 62
7
100
AcDbPolyline
 90
2
 70
0
 10
266.535195
 20
23.614789
 30
0.0
 10
266.687130
 20
9.495289
 30
0.0
  0
LWPOLYLINE
  5
16c
100
AcDbEntity
  8
0
 62
7
100
AcDbPolyline
 90
1
 70
1
 10
266.535195
 20
23.614864
 30
0.0
  0
LWPOLYLINE
  5
16d
100
AcDbEntity
  8
0
 62
7
100
AcDbPolyline
 90
2
 70
0
 10
266.257680
 20
38.398564
 30
0.0
 10
266.535195
 20
23.614864
 30
0.0
  0
LWPOLYLINE
  5
16e
100
AcDbEntity
  8
0
 62
7
100
AcDbPolyline
 90
2
 70
0
 10
264.423383
 20
38.398564
 30
0.0
 10
266.257680
 20
38.398564
 30
0.0
  0
LWPOLYLINE
  5
16f
100
AcDbEntity
  8
0
 62
7
100
AcDbPolyline
 90
2
 70
0
 10
264.334373
 20
38.441314
 30
0.0
 10
264.423383
 20
38.398564
 30
0.0
  0
LWPOLYLINE
  5
170
100
AcDbEntity
  8
0
 62
7
100
AcDbPolyline
 90
2
 70
0
 10
259.589460
 20
40.726639
 30
0.0
 10
264.334373
 20
38.441614
 30
0.0
  0
LWPOLYLINE
  5
171
100
AcDbEntity
  8
0
 62
7
100
AcDbPolyline
 90
2
 70
0
 10
256.305803
 20
44.844214
 30
0.0
 10
259.589460
 20
40.726639
 30
0.0
  0
LWPOLYLINE
  5
172
100
AcDbEntity
  8
0
 62
7
100
AcDbPolyline
 90
2
 70
0
 10
256.244295
 20
44.921314
 30
0.0
 10
256.305795
 20
44.844214
 30
0.0
  0
LWPOLYLINE
  5
173
100
AcDbEntity
  8
0
 62
7
100
AcDbPolyline
 90
2
 70
0
 10
256.222178
 20
45.017689
 30
0.0
 10
256.244303
 20
44.921314
 30
0.0
  0
LWPOLYLINE
  5
174
100
AcDbEntity
  8
0
 62
7
100
AcDbPolyline
 90
2
 70
0
 10
255.050348
 20
50.152114
 30
0.0
 10
256.222193
 20
45.017689
 30
0.0
  0
LWPOLYLINE
  5
175
100
AcDbEntity
  8
0
 62
7
100
AcDbPolyline
 90
2
 70
0
 10
256.222193
 20
55.286764
 30
0.0
 10
255.050348
 20
50.152114
 30
0.0
  0
LWPOLYLINE
  5
176
100
AcDbEntity
  8
0
 62
7
100
AcDbPolyline
 90
2
 70
0
 10
256.244303
 20
55.382914
 30
0.0
 10
256.222178
 20
55.286764
 30
0.0
  0
LWPOLYLINE
  5
177
100
AcDbEntity
  8
0
 62
7
100
AcDbPolyline
 90
2
 70
0
 10
256.305795
 20
55.460239
 30
0.0
 10
256.244295
 20
55.382914
 30
0.0
  0
LWPOLYLINE
  5
178
100
AcDbEntity
  8
0
 62
7
100
AcDbPolyline
 90
2
 70
0
 10
259.589460
 20
59.577889
 30
0.0
 10
256.305803
 20
55.460239
 30
0.0
  0
LWPOLYLINE
  5
179
100
AcDbEntity
  8
0
 62
7
100
AcDbPolyline
 90
2
 70
0
 10
264.334373
 20
61.862914
 30
0.0
 10
259.589460
 20
59.577889
 30
0.0
  0
LWPOLYLINE
  5
17a
100
AcDbEntity
  8
0
 62
7
100
AcDbPolyline
 90
2
 70
0
 10
264.423383
 20
61.905664
 30
0.0
 10
264.334373
 20
61.862914
 30
0.0
  0
LWPOLYLINE
  5
17b
100
AcDbEntity
  8
0
 62
7
100
AcDbPolyline
 90
2
 70
0
 10
265.816328
 20
61.905664
 30
0.0
 10
264.423383
 20
61.905664
 30
0.0
  0
LWPOLYLINE
  5
17c
100
AcDbEntity
  8
0
 62
7
100
AcDbPolyline
 90
2
 70
0
 10
265.654185
 20
70.549639
 30
0.0
 10
265.816328
 20
61.905664
 30
0.0
  0
LWPOLYLINE
  5
17d
100
AcDbEntity
  8
0
 62
7
100
AcDbPolyline
 90
1
 70
1
 10
265.654185
 20
70.549639
 30
0.0
  0
LWPOLYLINE
  5
17e
100
AcDbEntity
  8
0
 62
7
100
AcDbPolyline
 90
2
 70
0
 10
265.427978
 20
78.824314
 30
0.0
 10
265.654185
 20
70.549639
 30
0.0
  0
LWPOLYLINE
  5
17f
100
AcDbEntity
  8
0
 62
7
100
AcDbPolyline
 90
2
 70
0
 10
265.152165
 20
88.919839
 30
0.0
 10
265.427978
 20
78.824314
 30
0.0
  0
LWPOLYLINE
  5
180
100
AcDbEntity
  8
0
 62
7
100
AcDbPolyline
 90
2
 70
0
 10
264.291285
 20
112.383364
 30
0.0
 10
265.152165
 20
88.919839
 30
0.0
  0
LWPOLYLINE
  5
181
100
AcDbEntity
  8
0
 62
7
100
AcDbPolyline
 90
2
 70
0
 10
264.285615
 20
112.537001
 30
0.0
 10
264.291615
 20
112.383364
 30
0.0
  0
LWPOLYLINE
  5
182
100
AcDbEntity
  8
0
 62
7
100
AcDbPolyline
 90
2
 70
0
 10
263.584658
 20
131.645066
 30
0.0
 10
264.285945
 20
112.537001
 30
0.0
  0
LWPOLYLINE
  5
183
100
AcDbEntity
  8
0
 62
7
100
AcDbPolyline
 90
2
 70
0
 10
259.084373
 20
135.474101
 30
0.0
 10
263.584658
 20
131.645066
 30
0.0
  0
LWPOLYLINE
  5
184
100
AcDbEntity
  8
0
 62
7
100
AcDbPolyline
 90
2
 70
0
 10
248.987363
 20
144.065066
 30
0.0
 10
259.084373
 20
135.474101
 30
0.0
  0
LWPOLYLINE
  5
185
100
AcDbEntity
  8
0
 62
7
100
AcDbPolyline
 90
2
 70
0
 10
215.226165
 20
144.065066
 30
0.0
 10
248.987363
 20
144.065066
 30
0.0
  0
LWPOLYLINE
  5
186
100
AcDbEntity
  8
0
 62
7
100
AcDbPolyline
 90
2
 70
0
 10
200.147835
 20
144.065066
 30
0.0
 10
215.226165
 20
144.065066
 30
0.0
  0
LWPOLYLINE
  5
187
100
AcDbEntity
  8
0
 62
7
100
AcDbPolyline
 90
2
 70
0
 10
194.785538
 20
144.065066
 30
0.0
 10
200.147835
 20
144.065066
 30
0.0
  0
LWPOLYLINE
  5
188
100
AcDbEntity
  8
0
 62
7
100
AcDbPolyline
 90
2
 70
0
 10
192.265253
 20
144.065066
 30
0.0
 10
194.785538
 20
144.065066
 30
0.0
  0
LWPOLYLINE
  5
189
100
AcDbEntity
  8
0
 62
7
100
AcDbPolyline
 90
2
 70
0
 10
176.840528
 20
144.065066
 30
0.0
 10
192.265253
 20
144.065066
 30
0.0
  0
LWPOLYLINE
  5
18a
100
AcDbEntity
  8
0
 62
7
100
AcDbPolyline
 90
2
 70
0
 10
143.403053
 20
144.065066
 30
0.0
 10
176.840528
 20
144.065066
 30
0.0
  0
LWPOLYLINE
  5
18b
100
AcDbEntity
  8
0
 62
7
100
AcDbPolyline
 90
2
 70
0
 10
140.864340
 20
144.065066
 30
0.0
 10
143.403053
 20
144.065066
 30
0.0
  0
LWPOLYLINE
  5
18c
100
AcDbEntity
  8
0
 62
7
100
AcDbPolyline
 90
2
 70
0
 10
135.475395
 20
144.065066
 30
0.0
 10
140.864340
 20
144.065066
 30
0.0
  0
LWPOLYLINE
  5
18d
100
AcDbEntity
  8
0
 62
7
100
AcDbPolyline
 90
2
 70
0
 10
120.950955
 20
144.065066
 30
0.0
 10
135.475395
 20
144.065066
 30
0.0
  0
LWPOLYLINE
  5
18e
100
AcDbEntity
  8
0
 62
7
100
AcDbPolyline
 90
2
 70
0
 10
86.519078
 20
144.065066
 30
0.0
 10
120.950955
 20
144.065066
 30
0.0
  0
LWPOLYLINE
  5
18f
100
AcDbEntity
  8
0
 62
7
100
AcDbPolyline
 90
2
 70
0
 10
78.143550
 20
167.945816
 30
0.0
 10
86.519078
 20
144.065066
 30
0.0
  0
LWPOLYLINE
  5
190
100
AcDbEntity
  8
0
 62
7
100
AcDbPolyline
 90
2
 70
0
 10
74.588599
 20
178.080664
 30
0.0
 10
78.142958
 20
167.945666
 30
0.0
  0
LWPOLYLINE
  5
191
100
AcDbEntity
  8
0
 62
7
100
AcDbPolyline
 90
2
 70
0
 10
59.672410
 20
178.080664
 30
0.0
 10
74.588599
 20
178.080664
 30
0.0
  0
LWPOLYLINE
  5
192
100
AcDbEntity
  8
0
 62
7
100
AcDbPolyline
 90
2
 70
0
 10
59.264504
 20
178.080664
 30
0.0
 10
59.672410
 20
178.080664
 30
0.0
  0
LWPOLYLINE
  5
193
100
AcDbEntity
  8
0
 62
7
100
AcDbPolyline
 90
2
 70
0
 10
56.302016
 20
174.365861
 30
0.0
 10
59.264504
 20
178.080664
 30
0.0
  0
LWPOLYLINE
  5
194
100
AcDbEntity
  8
0
 62
7
100
AcDbPolyline
 90
2
 70
0
 10
51.557102
 20
172.080851
 30
0.0
 10
56.302016
 20
174.365861
 30
0.0
  0
LWPOLYLINE
  5
195
100
AcDbEntity
  8
0
 62
7
100
AcDbPolyline
 90
2
 70
0
 10
51.468095
 20
172.038049
 30
0.0
 10
51.557102
 20
172.080874
 30
0.0
  0
LWPOLYLINE
  5
196
100
AcDbEntity
  8
0
 62
7
100
AcDbPolyline
 90
2
 70
0
 10
46.102677
 20
172.038049
 30
0.0
 10
51.468095
 20
172.038049
 30
0.0
  0
LWPOLYLINE
  5
197
100
AcDbEntity
  8
0
 62
7
100
AcDbPolyline
 90
2
 70
0
 10
46.013669
 20
172.080874
 30
0.0
 10
46.102677
 20
172.038049
 30
0.0
  0
LWPOLYLINE
  5
198
100
AcDbEntity
  8
0
 62
7
100
AcDbPolyline
 90
2
 70
0
 10
41.268756
 20
174.365861
 30
0.0
 10
46.013669
 20
172.080851
 30
0.0
  0
LWPOLYLINE
  5
199
100
AcDbEntity
  8
0
 62
7
100
AcDbPolyline
 90
2
 70
0
 10
38.306268
 20
178.080664
 30
0.0
 10
41.268756
 20
174.365861
 30
0.0
  0
LWPOLYLINE
  5
19a
100
AcDbEntity
  8
0
 62
7
100
AcDbPolyline
 90
2
 70
0
 10
26.456060
 20
178.080664
 30
0.0
 10
38.306268
 20
178.080664
 30
0.0
  0
LWPOLYLINE
  5
19b
100
AcDbEntity
  8
0
 62
7
100
AcDbPolyline
 90
2
 70
0
 10
18.934554
 20
183.565699
 30
0.0
 10
26.456060
 20
178.080664
 30
0.0
  0
LWPOLYLINE
  5
19c
100
AcDbEntity
  8
0
 62
7
100
AcDbPolyline
 90
2
 70
0
 10
15.493975
 20
186.074366
 30
0.0
 10
18.934554
 20
183.565699
 30
0.0
  0
LWPOLYLINE
  5
19d
100
AcDbEntity
  8
0
 62
7
100
AcDbPolyline
 90
2
 70
0
 10
1.365247
 20
186.074366
 30
0.0
 10
15.493975
 20
186.074366
 30
0.0
  0
LWPOLYLINE
  5
19e
100
AcDbEntity
  8
0
 62
7
100
AcDbPolyline
 90
2
 70
0
 10
-31.375276
 20
186.074366
 30
0.0
 10
1.365247
 20
186.074366
 30
0.0
  0
LWPOLYLINE
  5
19f
100
AcDbEntity
  8
0
 62
7
100
AcDbPolyline
 90
2
 70
0
 10
-34.283338
 20
180.510806
 30
0.0
 10
-31.375276
 20
186.074366
 30
0.0
  0
LWPOLYLINE
  5
1a0
100
AcDbEntity
  8
0
 62
7
100
AcDbPolyline
 90
2
 70
0
 10
-35.553543
 20
178.080664
 30
0.0
 10
-34.283338
 20
180.510806
 30
0.0
  0
LWPOLYLINE
  5
1a1
100
AcDbEntity
  8
0
 62
7
100
AcDbPolyline
 90
2
 70
0
 10
-45.968599
 20
178.080664
 30
0.0
 10
-35.553543
 20
178.080664
 30
0.0
  0
LWPOLYLINE
  5
1a2
100
AcDbEntity
  8
0
 62
7
100
AcDbPolyline
 90
2
 70
0
 10
-81.405352
 20
178.080664
 30
0.0
 10
-45.968599
 20
178.080664
 30
0.0
  0
LWPOLYLINE
  5
1a3
100
AcDbEntity
  8
0
 62
7
100
AcDbPolyline
 90
2
 70
0
 10
-83.005230
 20
178.080664
 30
0.0
 10
-81.405352
 20
178.080664
 30
0.0
  0
LWPOLYLINE
  5
1a4
100
AcDbEntity
  8
0
 62
7
100
AcDbPolyline
 90
2
 70
0
 10
-88.645605
 20
178.080664
 30
0.0
 10
-83.005230
 20
178.080664
 30
0.0
  0
LWPOLYLINE
  5
1a5
100
AcDbEntity
  8
0
 62
7
100
AcDbPolyline
 90
2
 70
0
 10
-96.949703
 20
178.080664
 30
0.0
 10
-88.645605
 20
178.080664
 30
0.0
  0
LWPOLYLINE
  5
1a6
100
AcDbEntity
  8
0
 62
7
100
AcDbPolyline
 90
2
 70
0
 10
-96.991088
 20
178.080664
 30
0.0
 10
-96.949688
 20
178.080664
 30
0.0
  0
LWPOLYLINE
  5
1a7
100
AcDbEntity
  8
0
 62
7
100
AcDbPolyline
 90
2
 70
0
 10
-132.703073
 20
178.080664
 30
0.0
 10
-96.991073
 20
178.080664
 30
0.0
  0
LWPOLYLINE
  5
1a8
100
AcDbEntity
  8
0
 62
7
100
AcDbPolyline
 90
2
 70
0
 10
-136.983953
 20
175.183654
 30
0.0
 10
-132.703073
 20
178.080664
 30
0.0
  0
LWPOLYLINE
  5
1a9
100
AcDbEntity
  8
0
 62
7
100
AcDbPolyline
 90
2
 70
0
 10
-152.150445
 20
164.918831
 30
0.0
 10
-136.983953
 20
175.183654
 30
0.0
  0
LWPOLYLINE
  5
1aa
100
AcDbEntity
  8
0
 62
7
100
AcDbPolyline
 90
2
 70
0
 10
-166.323667
 20
150.745609
 30
0.0
 10
-152.150445
 20
164.918831
 30
0.0
  0
LWPOLYLINE
  5
1ab
100
AcDbEntity
  8
0
 62
7
100
AcDbPolyline
 90
2
 70
0
 10
-169.057688
 20
139.360534
 30
0.0
 10
-166.323667
 20
150.745609
 30
0.0
  0
LWPOLYLINE
  5
1ac
100
AcDbEntity
  8
0
 62
7
100
AcDbPolyline
 90
2
 70
0
 10
-169.516613
 20
137.448851
 30
0.0
 10
-169.057688
 20
139.360534
 30
0.0
  0
LWPOLYLINE
  5
1ad
100
AcDbEntity
  8
0
 62
7
100
AcDbPolyline
 90
2
 70
0
 10
-167.232458
 20
134.584444
 30
0.0
 10
-169.516613
 20
137.448851
 30
0.0
  0
LWPOLYLINE
  5
1ae
100
AcDbEntity
  8
0
 62
7
100
AcDbPolyline
 90
2
 70
0
 10
-167.170943
 20
134.507336
 30
0.0
 10
-167.232443
 20
134.584444
 30
0.0
  0
LWPOLYLINE
  5
1af
100
AcDbEntity
  8
0
 62
7
100
AcDbPolyline
 90
2
 70
0
 10
-167.148818
 20
134.410961
 30
0.0
 10
-167.170943
 20
134.507336
 30
0.0
  0
LWPOLYLINE
  5
1b0
100
AcDbEntity
  8
0
 62
7
100
AcDbPolyline
 90
2
 70
0
 10
-165.976995
 20
129.276566
 30
0.0
 10
-167.148833
 20
134.410961
 30
0.0
  0
LWPOLYLINE
  5
1b1
100
AcDbEntity
  8
0
 62
7
100
AcDbPolyline
 90
2
 70
0
 10
-167.148833
 20
124.141894
 30
0.0
 10
-165.976995
 20
129.276566
 30
0.0
  0
LWPOLYLINE
  5
1b2
100
AcDbEntity
  8
0
 62
7
100
AcDbPolyline
 90
2
 70
0
 10
-167.170943
 20
124.045796
 30
0.0
 10
-167.148818
 20
124.141894
 30
0.0
  0
LWPOLYLINE
  5
1b3
100
AcDbEntity
  8
0
 62
7
100
AcDbPolyline
 90
2
 70
0
 10
-167.232443
 20
123.968411
 30
0.0
 10
-167.170943
 20
124.045796
 30
0.0
  0
LWPOLYLINE
  5
1b4
100
AcDbEntity
  8
0
 62
7
100
AcDbPolyline
 90
2
 70
0
 10
-170.516108
 20
119.850806
 30
0.0
 10
-167.232458
 20
123.968411
 30
0.0
  0
LWPOLYLINE
  5
1b5
100
AcDbEntity
  8
0
 62
7
100
AcDbPolyline
 90
2
 70
0
 10
-174.164303
 20
118.093894
 30
0.0
 10
-170.516108
 20
119.850806
 30
0.0
  0
LWPOLYLINE
  5
1b6
100
AcDbEntity
  8
0
 62
7
100
AcDbPolyline
 90
2
 70
0
 10
-176.702722
 20
107.523776
 30
0.0
 10
-174.164303
 20
118.093894
 30
0.0
  0
LWPOLYLINE
  5
1b7
100
AcDbEntity
  8
0
 62
7
100
AcDbPolyline
 90
2
 70
0
 10
-177.254347
 20
104.437414
 30
0.0
 10
-176.702722
 20
107.523776
 30
0.0
  0
LWPOLYLINE
  5
1b8
100
AcDbEntity
  8
0
 62
7
100
AcDbPolyline
 90
2
 70
0
 10
-178.717028
 20
96.254081
 30
0.0
 10
-177.254347
 20
104.437414
 30
0.0
  0
LWPOLYLINE
  5
1b9
100
AcDbEntity
  8
0
 62
7
100
AcDbPolyline
 90
2
 70
0
 10
-182.952832
 20
61.776814
 30
0.0
 10
-178.717028
 20
96.254081
 30
0.0
  0
LWPOLYLINE
  5
1ba
100
AcDbEntity
  8
0
 62
7
100
AcDbPolyline
 90
2
 70
0
 10
-184.550160
 20
48.773464
 30
0.0
 10
-182.952832
 20
61.776814
 30
0.0
  0
LWPOLYLINE
  5
1bb
100
AcDbEntity
  8
0
 62
7
100
AcDbPolyline
 90
2
 70
0
 10
-184.817468
 20
44.982139
 30
0.0
 10
-184.550160
 20
48.773464
 30
0.0
  0
LWPOLYLINE
  5
1bc
100
AcDbEntity
  8
0
 62
7
100
AcDbPolyline
 90
2
 70
0
 10
-185.397435
 20
36.752014
 30
0.0
 10
-184.817468
 20
44.982139
 30
0.0
  0
LWPOLYLINE
  5
1bd
100
AcDbEntity
  8
0
 62
7
100
AcDbPolyline
 90
2
 70
0
 10
-186.071228
 20
3.019714
 30
0.0
 10
-185.397435
 20
36.752014
 30
0.0
  0
LWPOLYLINE
  5
1be
100
AcDbEntity
  8
0
 62
7
100
AcDbPolyline
 90
2
 70
0
 10
-186.378218
 20
-12.349211
 30
0.0
 10
-186.071227
 20
3.019714
 30
0.0
  0
LWPOLYLINE
  5
1bf
100
AcDbEntity
  8
0
 62
7
100
AcDbPolyline
 90
2
 70
0
 10
-186.264832
 20
-16.121786
 30
0.0
 10
-186.378218
 20
-12.349211
 30
0.0
  0
LWPOLYLINE
  5
1c0
100
AcDbEntity
  8
0
 62
7
100
AcDbPolyline
 90
2
 70
0
 10
-186.017085
 20
-24.384161
 30
0.0
 10
-186.264833
 20
-16.121786
 30
0.0
  0
LWPOLYLINE
  5
1c1
100
AcDbEntity
  8
0
 62
7
100
AcDbPolyline
 90
2
 70
0
 10
-184.868205
 20
-38.616086
 30
0.0
 10
-186.017085
 20
-24.384161
 30
0.0
  0
LWPOLYLINE
  5
1c2
100
AcDbEntity
  8
0
 62
7
100
AcDbPolyline
 90
2
 70
0
 10
-182.101028
 20
-72.885236
 30
0.0
 10
-184.868205
 20
-38.616086
 30
0.0
  0
LWPOLYLINE
  5
1c3
100
AcDbEntity
  8
0
 62
7
100
AcDbPolyline
 90
2
 70
0
 10
-171.649688
 20
-88.945511
 30
0.0
 10
-182.101028
 20
-72.885236
 30
0.0
  0
LWPOLYLINE
  5
1c4
100
AcDbEntity
  8
0
 62
7
100
AcDbPolyline
 90
2
 70
0
 10
-167.309273
 20
-95.615186
 30
0.0
 10
-171.649688
 20
-88.945511
 30
0.0
  0
LWPOLYLINE
  5
1c5
100
AcDbEntity
  8
0
 62
7
100
AcDbPolyline
 90
1
 70
1
 10
-167.309273
 20
-95.615186
 30
0.0
  0
LWPOLYLINE
  5
1c6
100
AcDbEntity
  8
0
 62
7
100
AcDbPolyline
 90
2
 70
0
 10
-169.204238
 20
-97.925636
 30
0.0
 10
-167.309273
 20
-95.615186
 30
0.0
  0
LWPOLYLINE
  5
1c7
100
AcDbEntity
  8
0
 62
7
100
AcDbPolyline
 90
2
 70
0
 10
-170.869305
 20
-99.956111
 30
0.0
 10
-169.204238
 20
-97.925636
 30
0.0
  0
LWPOLYLINE
  5
1c8
100
AcDbEntity
  8
0
 62
7
100
AcDbPolyline
 90
2
 70
0
 10
-172.482218
 20
-101.309636
 30
0.0
 10
-170.869305
 20
-99.956111
 30
0.0
  0
LWPOLYLINE
  5
1c9
100
AcDbEntity
  8
0
 62
7
100
AcDbPolyline
 90
2
 70
0
 10
-171.957525
 20
-101.967911
 30
0.0
 10
-172.482218
 20
-101.309636
 30
0.0
  0
LWPOLYLINE
  5
1ca
100
AcDbEntity
  8
0
 62
7
100
AcDbPolyline
 90
2
 70
0
 10
-171.895733
 20
-102.045011
 30
0.0
 10
-171.957533
 20
-101.967911
 30
0.0
  0
LWPOLYLINE
  5
1cb
100
AcDbEntity
  8
0
 62
7
100
AcDbPolyline
 90
2
 70
0
 10
-171.873915
 20
-102.141386
 30
0.0
 10
-171.895740
 20
-102.045011
 30
0.0
  0
LWPOLYLINE
  5
1cc
100
AcDbEntity
  8
0
 62
7
100
AcDbPolyline
 90
2
 70
0
 10
-170.702070
 20
-107.275736
 30
0.0
 10
-171.873915
 20
-102.141386
 30
0.0
  0
LWPOLYLINE
  5
1cd
100
AcDbEntity
  8
0
 62
7
100
AcDbPolyline
 90
2
 70
0
 10
-171.873915
 20
-112.410461
 30
0.0
 10
-170.702070
 20
-107.275736
 30
0.0
  0
LWPOLYLINE
  5
1ce
100
AcDbEntity
  8
0
 62
7
100
AcDbPolyline
 90
2
 70
0
 10
-171.895740
 20
-112.506836
 30
0.0
 10
-171.873915
 20
-112.410461
 30
0.0
  0
LWPOLYLINE
  5
1cf
100
AcDbEntity
  8
0
 62
7
100
AcDbPolyline
 90
2
 70
0
 10
-171.957533
 20
-112.583936
 30
0.0
 10
-171.895733
 20
-112.506836
 30
0.0
  0
LWPOLYLINE
  5
1d0
100
AcDbEntity
  8
0
 62
7
100
AcDbPolyline
 90
2
 70
0
 10
-175.241183
 20
-116.701511
 30
0.0
 10
-171.957525
 20
-112.583936
 30
0.0
  0
LWPOLYLINE
  5
1d1
100
AcDbEntity
  8
0
 62
7
100
AcDbPolyline
 90
2
 70
0
 10
-179.986095
 20
-118.986536
 30
0.0
 10
-175.241183
 20
-116.701511
 30
0.0
  0
LWPOLYLINE
  5
1d2
100
AcDbEntity
  8
0
 62
7
100
AcDbPolyline
 90
2
 70
0
 10
-180.075105
 20
-119.029286
 30
0.0
 10
-179.986095
 20
-118.986536
 30
0.0
  0
LWPOLYLINE
  5
1d3
100
AcDbEntity
  8
0
 62
7
100
AcDbPolyline
 90
2
 70
0
 10
-185.440523
 20
-119.029286
 30
0.0
 10
-180.075105
 20
-119.029286
 30
0.0
  0
LWPOLYLINE
  5
1d4
100
AcDbEntity
  8
0
 62
7
100
AcDbPolyline
 90
2
 70
0
 10
-185.529525
 20
-118.986536
 30
0.0
 10
-185.440523
 20
-119.029286
 30
0.0
  0
LWPOLYLINE
  5
1d5
100
AcDbEntity
  8
0
 62
7
100
AcDbPolyline
 90
2
 70
0
 10
-190.274445
 20
-116.701511
 30
0.0
 10
-185.529525
 20
-118.986536
 30
0.0
  0
LWPOLYLINE
  5
1d6
100
AcDbEntity
  8
0
 62
7
100
AcDbPolyline
 90
2
 70
0
 10
-190.495260
 20
-116.424311
 30
0.0
 10
-190.274445
 20
-116.701511
 30
0.0
  0
LWPOLYLINE
  5
1d7
100
AcDbEntity
  8
0
 62
7
100
AcDbPolyline
 90
2
 70
0
 10
-195.319830
 20
-120.472436
 30
0.0
 10
-190.495260
 20
-116.424311
 30
0.0
  0
LWPOLYLINE
  5
1d8
100
AcDbEntity
  8
0
 62
7
100
AcDbPolyline
 90
2
 70
0
 10
-193.273215
 20
-125.152136
 30
0.0
 10
-195.319830
 20
-120.472436
 30
0.0
  0
LWPOLYLINE
  5
1d9
100
AcDbEntity
  8
0
 62
7
100
AcDbPolyline
 90
2
 70
0
 10
-186.841973
 20
-139.856861
 30
0.0
 10
-193.273215
 20
-125.152136
 30
0.0
  0
LWPOLYLINE
  5
1da
100
AcDbEntity
  8
0
 62
7
100
AcDbPolyline
 90
2
 70
0
 10
-184.316018
 20
-148.577111
 30
0.0
 10
-186.841973
 20
-139.856861
 30
0.0
  0
LWPOLYLINE
  5
1db
100
AcDbEntity
  8
0
 62
7
100
AcDbPolyline
 90
2
 70
0
 10
-184.475610
 20
-148.858286
 30
0.0
 10
-184.316018
 20
-148.577111
 30
0.0
  0
LWPOLYLINE
  5
1dc
100
AcDbEntity
  8
0
 62
7
100
AcDbPolyline
 90
2
 70
0
 10
-199.818413
 20
-175.864811
 30
0.0
 10
-184.475610
 20
-148.858286
 30
0.0
  0
LWPOLYLINE
  5
1dd
100
AcDbEntity
  8
0
 62
7
100
AcDbPolyline
 90
2
 70
0
 10
-214.208205
 20
-201.193811
 30
0.0
 10
-199.818413
 20
-175.864811
 30
0.0
  0
LWPOLYLINE
  5
1de
100
AcDbEntity
  8
0
 62
7
100
AcDbPolyline
 90
2
 70
0
 10
-221.399985
 20
-195.574661
 30
0.0
 10
-221.569215
 20
-195.881636
 30
0.0
  0
LWPOLYLINE
  5
1df
100
AcDbEntity
  8
0
 62
7
100
AcDbPolyline
 90
1
 70
1
 10
-221.399985
 20
-195.574661
 30
0.0
  0
LWPOLYLINE
  5
1e0
100
AcDbEntity
  8
0
 62
7
100
AcDbPolyline
 90
2
 70
0
 10
-210.518918
 20
-175.838486
 30
0.0
 10
-221.399985
 20
-195.574661
 30
0.0
  0
LWPOLYLINE
  5
1e1
100
AcDbEntity
  8
0
 62
7
100
AcDbPolyline
 90
2
 70
0
 10
-197.535668
 20
-152.289386
 30
0.0
 10
-210.518918
 20
-175.838486
 30
0.0
  0
LWPOLYLINE
  5
1e2
100
AcDbEntity
  8
0
 62
7
100
AcDbPolyline
 90
1
 70
1
 10
-197.535668
 20
-152.289386
 30
0.0
  0
LWPOLYLINE
  5
1e3
100
AcDbEntity
  8
0
 62
7
100
AcDbPolyline
 90
2
 70
0
 10
-193.107668
 20
-146.622011
 30
0.0
 10
-197.535668
 20
-152.289386
 30
0.0
  0
LWPOLYLINE
  5
1e4
100
AcDbEntity
  8
0
 62
7
100
AcDbPolyline
 90
2
 70
0
 10
-200.105843
 20
-129.051236
 30
0.0
 10
-193.107668
 20
-146.622011
 30
0.0
  0
LWPOLYLINE
  5
1e5
100
AcDbEntity
  8
0
 62
7
100
AcDbPolyline
 90
2
 70
0
 10
-204.049688
 20
-119.149511
 30
0.0
 10
-200.105843
 20
-129.051236
 30
0.0
  0
LWPOLYLINE
  5
1e6
100
AcDbEntity
  8
0
 62
7
100
AcDbPolyline
 90
2
 70
0
 10
-202.766445
 20
-117.585086
 30
0.0
 10
-204.049688
 20
-119.149511
 30
0.0
  0
LWPOLYLINE
  5
1e7
100
AcDbEntity
  8
0
 62
7
100
AcDbPolyline
 90
2
 70
0
 10
-202.766445
 20
-117.584786
 30
0.0
 10
-202.766445
 20
-117.585086
 30
0.0
  0
LWPOLYLINE
  5
1e8
100
AcDbEntity
  8
0
 62
7
100
AcDbPolyline
 90
2
 70
0
 10
-200.489655
 20
-114.808511
 30
0.0
 10
-202.766445
 20
-117.584786
 30
0.0
  0
LWPOLYLINE
  5
1e9
100
AcDbEntity
  8
0
 62
7
100
AcDbPolyline
 90
2
 70
0
 10
-194.530095
 20
-109.807961
 30
0.0
 10
-200.489655
 20
-114.808511
 30
0.0
  0
LWPOLYLINE
  5
1ea
100
AcDbEntity
  8
0
 62
7
100
AcDbPolyline
 90
2
 70
0
 10
-194.282918
 20
-109.600436
 30
0.0
 10
-194.530095
 20
-109.807961
 30
0.0
  0
LWPOLYLINE
  5
1eb
100
AcDbEntity
  8
0
 62
7
100
AcDbPolyline
 90
2
 70
0
 10
-194.813558
 20
-107.275736
 30
0.0
 10
-194.282918
 20
-109.600436
 30
0.0
  0
LWPOLYLINE
  5
1ec
100
AcDbEntity
  8
0
 62
7
100
AcDbPolyline
 90
2
 70
0
 10
-193.641720
 20
-102.141386
 30
0.0
 10
-194.813558
 20
-107.275736
 30
0.0
  0
LWPOLYLINE
  5
1ed
100
AcDbEntity
  8
0
 62
7
100
AcDbPolyline
 90
2
 70
0
 10
-193.619610
 20
-102.045011
 30
0.0
 10
-193.641735
 20
-102.141386
 30
0.0
  0
LWPOLYLINE
  5
1ee
100
AcDbEntity
  8
0
 62
7
100
AcDbPolyline
 90
2
 70
0
 10
-193.558110
 20
-101.967911
 30
0.0
 10
-193.619610
 20
-102.045011
 30
0.0
  0
LWPOLYLINE
  5
1ef
100
AcDbEntity
  8
0
 62
7
100
AcDbPolyline
 90
2
 70
0
 10
-190.274445
 20
-97.850261
 30
0.0
 10
-193.558095
 20
-101.967911
 30
0.0
  0
LWPOLYLINE
  5
1f0
100
AcDbEntity
  8
0
 62
7
100
AcDbPolyline
 90
2
 70
0
 10
-185.529525
 20
-95.565236
 30
0.0
 10
-190.274445
 20
-97.850261
 30
0.0
  0
LWPOLYLINE
  5
1f1
100
AcDbEntity
  8
0
 62
7
100
AcDbPolyline
 90
2
 70
0
 10
-185.440523
 20
-95.522486
 30
0.0
 10
-185.529525
 20
-95.565236
 30
0.0
  0
LWPOLYLINE
  5
1f2
100
AcDbEntity
  8
0
 62
7
100
AcDbPolyline
 90
2
 70
0
 10
-180.075105
 20
-95.522486
 30
0.0
 10
-185.440523
 20
-95.522486
 30
0.0
  0
LWPOLYLINE
  5
1f3
100
AcDbEntity
  8
0
 62
7
100
AcDbPolyline
 90
2
 70
0
 10
-179.986095
 20
-95.565236
 30
0.0
 10
-180.075105
 20
-95.522486
 30
0.0
  0
LWPOLYLINE
  5
1f4
100
AcDbEntity
  8
0
 62
7
100
AcDbPolyline
 90
2
 70
0
 10
-178.442348
 20
-96.308486
 30
0.0
 10
-179.986095
 20
-95.565236
 30
0.0
  0
LWPOLYLINE
  5
1f5
100
AcDbEntity
  8
0
 62
7
100
AcDbPolyline
 90
2
 70
0
 10
-177.308775
 20
-95.357486
 30
0.0
 10
-178.442348
 20
-96.308486
 30
0.0
  0
LWPOLYLINE
  5
1f6
100
AcDbEntity
  8
0
 62
7
100
AcDbPolyline
 90
2
 70
0
 10
-180.722250
 20
-88.745111
 30
0.0
 10
-177.308775
 20
-95.357486
 30
0.0
  0
LWPOLYLINE
  5
1f7
100
AcDbEntity
  8
0
 62
7
100
AcDbPolyline
 90
2
 70
0
 10
-188.762445
 20
-73.168736
 30
0.0
 10
-180.722250
 20
-88.745111
 30
0.0
  0
LWPOLYLINE
  5
1f8
100
AcDbEntity
  8
0
 62
7
100
AcDbPolyline
 90
2
 70
0
 10
-190.171545
 20
-55.718936
 30
0.0
 10
-188.762445
 20
-73.168736
 30
0.0
  0
LWPOLYLINE
  5
1f9
100
AcDbEntity
  8
0
 62
7
100
AcDbPolyline
 90
2
 70
0
 10
-192.678503
 20
-24.667661
 30
0.0
 10
-190.171545
 20
-55.718936
 30
0.0
  0
LWPOLYLINE
  5
1fa
100
AcDbEntity
  8
0
 62
7
100
AcDbPolyline
 90
2
 70
0
 10
-192.911798
 20
-16.890086
 30
0.0
 10
-192.678503
 20
-24.667661
 30
0.0
  0
LWPOLYLINE
  5
1fb
100
AcDbEntity
  8
0
 62
7
100
AcDbPolyline
 90
2
 70
0
 10
-193.043040
 20
-12.519386
 30
0.0
 10
-192.911798
 20
-16.890086
 30
0.0
  0
LWPOLYLINE
  5
1fc
100
AcDbEntity
  8
0
 62
7
100
AcDbPolyline
 90
2
 70
0
 10
-193.043040
 20
-12.235886
 30
0.0
 10
-193.043040
 20
-12.519386
 30
0.0
  0
LWPOLYLINE
  5
1fd
100
AcDbEntity
  8
0
 62
7
100
AcDbPolyline
 90
2
 70
0
 10
-192.694380
 20
5.211139
 30
0.0
 10
-193.043040
 20
-12.235886
 30
0.0
  0
LWPOLYLINE
  5
1fe
100
AcDbEntity
  8
0
 62
7
100
AcDbPolyline
 90
2
 70
0
 10
-192.058853
 20
37.035514
 30
0.0
 10
-192.694380
 20
5.211139
 30
0.0
  0
LWPOLYLINE
  5
1ff
100
AcDbEntity
  8
0
 62
7
100
AcDbPolyline
 90
2
 70
0
 10
-191.511765
 20
44.800189
 30
0.0
 10
-192.058853
 20
37.035514
 30
0.0
  0
LWPOLYLINE
  5
200
100
AcDbEntity
  8
0
 62
7
100
AcDbPolyline
 90
2
 70
0
 10
-191.211578
 20
49.056964
 30
0.0
 10
-191.511765
 20
44.800189
 30
0.0
  0
LWPOLYLINE
  5
201
100
AcDbEntity
  8
0
 62
7
100
AcDbPolyline
 90
2
 70
0
 10
-189.446445
 20
63.424939
 30
0.0
 10
-191.211578
 20
49.056964
 30
0.0
  0
LWPOLYLINE
  5
202
100
AcDbEntity
  8
0
 62
7
100
AcDbPolyline
 90
2
 70
0
 10
-185.378445
 20
96.537544
 30
0.0
 10
-189.446445
 20
63.424939
 30
0.0
  0
LWPOLYLINE
  5
203
100
AcDbEntity
  8
0
 62
7
100
AcDbPolyline
 90
2
 70
0
 10
-184.794503
 20
99.804476
 30
0.0
 10
-185.378445
 20
96.537544
 30
0.0
  0
LWPOLYLINE
  5
204
100
AcDbEntity
  8
0
 62
7
100
AcDbPolyline
 90
2
 70
0
 10
-183.364140
 20
107.807246
 30
0.0
 10
-184.794503
 20
99.804476
 30
0.0
  0
LWPOLYLINE
  5
205
100
AcDbEntity
  8
0
 62
7
100
AcDbPolyline
 90
2
 70
0
 10
-180.998348
 20
117.659059
 30
0.0
 10
-183.364140
 20
107.807246
 30
0.0
  0
LWPOLYLINE
  5
206
100
AcDbEntity
  8
0
 62
7
100
AcDbPolyline
 90
2
 70
0
 10
-185.549655
 20
119.850806
 30
0.0
 10
-180.998348
 20
117.659059
 30
0.0
  0
LWPOLYLINE
  5
207
100
AcDbEntity
  8
0
 62
7
100
AcDbPolyline
 90
2
 70
0
 10
-188.833305
 20
123.968411
 30
0.0
 10
-185.549655
 20
119.850806
 30
0.0
  0
LWPOLYLINE
  5
208
100
AcDbEntity
  8
0
 62
7
100
AcDbPolyline
 90
2
 70
0
 10
-188.894820
 20
124.045796
 30
0.0
 10
-188.833320
 20
123.968411
 30
0.0
  0
LWPOLYLINE
  5
209
100
AcDbEntity
  8
0
 62
7
100
AcDbPolyline
 90
2
 70
0
 10
-188.916660
 20
124.141894
 30
0.0
 10
-188.894835
 20
124.045796
 30
0.0
  0
LWPOLYLINE
  5
20a
100
AcDbEntity
  8
0
 62
7
100
AcDbPolyline
 90
2
 70
0
 10
-190.088790
 20
129.276566
 30
0.0
 10
-188.916660
 20
124.141894
 30
0.0
  0
LWPOLYLINE
  5
20b
100
AcDbEntity
  8
0
 62
7
100
AcDbPolyline
 90
2
 70
0
 10
-188.916660
 20
134.410961
 30
0.0
 10
-190.088790
 20
129.276566
 30
0.0
  0
LWPOLYLINE
  5
20c
100
AcDbEntity
  8
0
 62
7
100
AcDbPolyline
 90
2
 70
0
 10
-188.894835
 20
134.507336
 30
0.0
 10
-188.916660
 20
134.410961
 30
0.0
  0
LWPOLYLINE
  5
20d
100
AcDbEntity
  8
0
 62
7
100
AcDbPolyline
 90
2
 70
0
 10
-188.833320
 20
134.584444
 30
0.0
 10
-188.894820
 20
134.507336
 30
0.0
  0
LWPOLYLINE
  5
20e
100
AcDbEntity
  8
0
 62
7
100
AcDbPolyline
 90
2
 70
0
 10
-185.549655
 20
138.702049
 30
0.0
 10
-188.833305
 20
134.584444
 30
0.0
  0
LWPOLYLINE
  5
20f
100
AcDbEntity
  8
0
 62
7
100
AcDbPolyline
 90
2
 70
0
 10
-180.804458
 20
140.987336
 30
0.0
 10
-185.549655
 20
138.702049
 30
0.0
  0
LWPOLYLINE
  5
210
100
AcDbEntity
  8
0
 62
7
100
AcDbPolyline
 90
2
 70
0
 10
-180.715448
 20
141.030139
 30
0.0
 10
-180.804458
 20
140.987314
 30
0.0
  0
LWPOLYLINE
  5
211
100
AcDbEntity
  8
0
 62
7
100
AcDbPolyline
 90
2
 70
0
 10
-175.386315
 20
141.030139
 30
0.0
 10
-180.715448
 20
141.030139
 30
0.0
  0
LWPOLYLINE
  5
212
100
AcDbEntity
  8
0
 62
7
100
AcDbPolyline
 90
2
 70
0
 10
-172.985085
 20
151.029356
 30
0.0
 10
-175.386315
 20
141.030139
 30
0.0
  0
LWPOLYLINE
  5
213
100
AcDbEntity
  8
0
 62
7
100
AcDbPolyline
 90
2
 70
0
 10
-152.433908
 20
171.580534
 30
0.0
 10
-172.985085
 20
151.029356
 30
0.0
  0
LWPOLYLINE
  5
214
100
AcDbEntity
  8
0
 62
7
100
AcDbPolyline
 90
2
 70
0
 10
-149.090160
 20
174.931369
 30
0.0
 10
-152.433908
 20
171.580534
 30
0.0
  0
LWPOLYLINE
  5
215
100
AcDbEntity
  8
0
 62
7
100
AcDbPolyline
 90
2
 70
0
 10
-135.354030
 20
188.697829
 30
0.0
 10
-149.090160
 20
174.931369
 30
0.0
  0
LWPOLYLINE
  5
216
100
AcDbEntity
  8
0
 62
7
100
AcDbPolyline
 90
2
 70
0
 10
-135.303855
 20
188.697829
 30
0.0
 10
-135.354030
 20
188.697829
 30
0.0
  0
LWPOLYLINE
  5
217
100
AcDbEntity
  8
0
 62
7
100
AcDbPolyline
 90
2
 70
0
 10
-125.167448
 20
188.697829
 30
0.0
 10
-135.303855
 20
188.697829
 30
0.0
  0
LWPOLYLINE
  5
218
100
AcDbEntity
  8
0
 62
7
100
AcDbPolyline
 90
2
 70
0
 10
-91.181745
 20
188.697829
 30
0.0
 10
-125.167448
 20
188.697829
 30
0.0
  0
LWPOLYLINE
  5
219
100
AcDbEntity
  8
0
 62
7
100
AcDbPolyline
 90
2
 70
0
 10
-89.434470
 20
188.697829
 30
0.0
 10
-91.181745
 20
188.697829
 30
0.0
  0
LWPOLYLINE
  5
21a
100
AcDbEntity
  8
0
 62
7
100
AcDbPolyline
 90
2
 70
0
 10
-89.370690
 20
188.697829
 30
0.0
 10
-89.434440
 20
188.697829
 30
0.0
  0
LWPOLYLINE
  5
21b
100
AcDbEntity
  8
0
 62
7
100
AcDbPolyline
 90
2
 70
0
 10
-83.515418
 20
188.697829
 30
0.0
 10
-89.370660
 20
188.697829
 30
0.0
  0
LWPOLYLINE
  5
21c
100
AcDbEntity
  8
0
 62
7
100
AcDbPolyline
 90
2
 70
0
 10
-70.879987
 20
188.697829
 30
0.0
 10
-83.515418
 20
188.697829
 30
0.0
  0
LWPOLYLINE
  5
21d
100
AcDbEntity
  8
0
 62
7
100
AcDbPolyline
 90
2
 70
0
 10
-37.778978
 20
188.697829
 30
0.0
 10
-70.879987
 20
188.697829
 30
0.0
  0
LWPOLYLINE
  5
21e
100
AcDbEntity
  8
0
 62
7
100
AcDbPolyline
 90
2
 70
0
 10
-36.292490
 20
191.269699
 30
0.0
 10
-37.778978
 20
188.697829
 30
0.0
  0
LWPOLYLINE
  5
21f
100
AcDbEntity
  8
0
 62
7
100
AcDbPolyline
 90
2
 70
0
 10
-33.158790
 20
196.691531
 30
0.0
 10
-36.292490
 20
191.269699
 30
0.0
  0
LWPOLYLINE
  5
220
100
AcDbEntity
  8
0
 62
7
100
AcDbPolyline
 90
2
 70
0
 10
-33.070916
 20
196.691531
 30
0.0
 10
-33.158790
 20
196.691531
 30
0.0
  0
LWPOLYLINE
  5
221
100
AcDbEntity
  8
0
 62
7
100
AcDbPolyline
 90
2
 70
0
 10
-15.275719
 20
196.691531
 30
0.0
 10
-33.070916
 20
196.691531
 30
0.0
  0
LWPOLYLINE
  5
222
100
AcDbEntity
  8
0
 62
7
100
AcDbPolyline
 90
2
 70
0
 10
-15.153716
 20
196.691531
 30
0.0
 10
-15.275719
 20
196.691531
 30
0.0
  0
LWPOLYLINE
  5
223
100
AcDbEntity
  8
0
 62
7
100
AcDbPolyline
 90
2
 70
0
 10
14.255506
 20
196.691531
 30
0.0
 10
-15.153716
 20
196.691531
 30
0.0
  0
LWPOLYLINE
  5
224
100
AcDbEntity
  8
0
 62
7
100
AcDbPolyline
 90
2
 70
0
 10
21.344388
 20
191.733446
 30
0.0
 10
14.255506
 20
196.691531
 30
0.0
  0
LWPOLYLINE
  5
225
100
AcDbEntity
  8
0
 62
7
100
AcDbPolyline
 90
2
 70
0
 10
25.684344
 20
188.697829
 30
0.0
 10
21.344388
 20
191.733446
 30
0.0
  0
LWPOLYLINE
  5
226
100
AcDbEntity
  8
0
 62
7
100
AcDbPolyline
 90
2
 70
0
 10
37.849651
 20
188.697829
 30
0.0
 10
25.684344
 20
188.697829
 30
0.0
  0
LWPOLYLINE
  5
227
100
AcDbEntity
  8
0
 62
7
100
AcDbPolyline
 90
2
 70
0
 10
37.901525
 20
188.926016
 30
0.0
 10
37.849648
 20
188.697829
 30
0.0
  0
LWPOLYLINE
  5
228
100
AcDbEntity
  8
0
 62
7
100
AcDbPolyline
 90
2
 70
0
 10
37.923635
 20
189.022391
 30
0.0
 10
37.901525
 20
188.926016
 30
0.0
  0
LWPOLYLINE
  5
229
100
AcDbEntity
  8
0
 62
7
100
AcDbPolyline
 90
2
 70
0
 10
37.985147
 20
189.099776
 30
0.0
 10
37.923632
 20
189.022391
 30
0.0
  0
LWPOLYLINE
  5
22a
100
AcDbEntity
  8
0
 62
7
100
AcDbPolyline
 90
2
 70
0
 10
41.268798
 20
193.217104
 30
0.0
 10
37.985144
 20
189.099776
 30
0.0
  0
LWPOLYLINE
  5
22b
100
AcDbEntity
  8
0
 62
7
100
AcDbPolyline
 90
2
 70
0
 10
46.013711
 20
195.502391
 30
0.0
 10
41.268798
 20
193.217104
 30
0.0
  0
LWPOLYLINE
  5
22c
100
AcDbEntity
  8
0
 62
7
100
AcDbPolyline
 90
2
 70
0
 10
46.102719
 20
195.545194
 30
0.0
 10
46.013711
 20
195.502369
 30
0.0
  0
LWPOLYLINE
  5
22d
100
AcDbEntity
  8
0
 62
7
100
AcDbPolyline
 90
2
 70
0
 10
51.468136
 20
195.545194
 30
0.0
 10
46.102719
 20
195.545194
 30
0.0
  0
LWPOLYLINE
  5
22e
100
AcDbEntity
  8
0
 62
7
100
AcDbPolyline
 90
2
 70
0
 10
51.557144
 20
195.502369
 30
0.0
 10
51.468136
 20
195.545194
 30
0.0
  0
LWPOLYLINE
  5
22f
100
AcDbEntity
  8
0
 62
7
100
AcDbPolyline
 90
2
 70
0
 10
56.302057
 20
193.217104
 30
0.0
 10
51.557144
 20
195.502391
 30
0.0
  0
LWPOLYLINE
  5
230
100
AcDbEntity
  8
0
 62
7
100
AcDbPolyline
 90
2
 70
0
 10
59.585711
 20
189.099776
 30
0.0
 10
56.302057
 20
193.217104
 30
0.0
  0
LWPOLYLINE
  5
231
100
AcDbEntity
  8
0
 62
7
100
AcDbPolyline
 90
2
 70
0
 10
59.647507
 20
189.022391
 30
0.0
 10
59.585714
 20
189.099776
 30
0.0
  0
LWPOLYLINE
  5
232
100
AcDbEntity
  8
0
 62
7
100
AcDbPolyline
 90
2
 70
0
 10
59.669336
 20
188.926016
 30
0.0
 10
59.647511
 20
189.022391
 30
0.0
  0
LWPOLYLINE
  5
233
100
AcDbEntity
  8
0
 62
7
100
AcDbPolyline
 90
2
 70
0
 10
59.721491
 20
188.697829
 30
0.0
 10
59.669336
 20
188.926016
 30
0.0
  0
LWPOLYLINE
  5
234
100
AcDbEntity
  8
0
 62
7
100
AcDbPolyline
 90
2
 70
0
 10
73.816769
 20
188.697829
 30
0.0
 10
59.721448
 20
188.697829
 30
0.0
  0
LWPOLYLINE
  5
235
100
AcDbEntity
  8
0
 62
7
100
AcDbPolyline
 90
2
 70
0
 10
77.736187
 20
177.948566
 30
0.0
 10
73.816724
 20
188.697829
 30
0.0
  0
LWPOLYLINE
  5
236
100
AcDbEntity
  8
0
 62
7
100
AcDbPolyline
 90
2
 70
0
 10
86.219152
 20
154.682081
 30
0.0
 10
77.736187
 20
177.948566
 30
0.0
  0
LWPOLYLINE
  5
237
100
AcDbEntity
  8
0
 62
7
100
AcDbPolyline
 90
2
 70
0
 10
102.379177
 20
154.682081
 30
0.0
 10
86.219152
 20
154.682081
 30
0.0
  0
LWPOLYLINE
  5
238
100
AcDbEntity
  8
0
 62
7
100
AcDbPolyline
 90
2
 70
0
 10
134.795055
 20
154.682081
 30
0.0
 10
102.379177
 20
154.682081
 30
0.0
  0
LWPOLYLINE
  5
239
100
AcDbEntity
  8
0
 62
7
100
AcDbPolyline
 90
2
 70
0
 10
137.512628
 20
154.682081
 30
0.0
 10
134.795055
 20
154.682081
 30
0.0
  0
LWPOLYLINE
  5
23a
100
AcDbEntity
  8
0
 62
7
100
AcDbPolyline
 90
2
 70
0
 10
137.608440
 20
154.682081
 30
0.0
 10
137.512628
 20
154.682081
 30
0.0
  0
LWPOLYLINE
  5
23b
100
AcDbEntity
  8
0
 62
7
100
AcDbPolyline
 90
2
 70
0
 10
143.134867
 20
154.682081
 30
0.0
 10
137.608440
 20
154.682081
 30
0.0
  0
LWPOLYLINE
  5
23c
100
AcDbEntity
  8
0
 62
7
100
AcDbPolyline
 90
2
 70
0
 10
159.861825
 20
154.682081
 30
0.0
 10
143.134867
 20
154.682081
 30
0.0
  0
LWPOLYLINE
  5
23d
100
AcDbEntity
  8
0
 62
7
100
AcDbPolyline
 90
2
 70
0
 10
197.856000
 20
154.682081
 30
0.0
 10
159.861825
 20
154.682081
 30
0.0
  0
LWPOLYLINE
  5
23e
100
AcDbEntity
  8
0
 62
7
100
AcDbPolyline
 90
2
 70
0
 10
200.609295
 20
154.682081
 30
0.0
 10
197.856000
 20
154.682081
 30
0.0
  0
LWPOLYLINE
  5
23f
100
AcDbEntity
  8
0
 62
7
100
AcDbPolyline
 90
2
 70
0
 10
232.885132
 20
154.682081
 30
0.0
 10
200.609295
 20
154.682081
 30
0.0
  0
LWPOLYLINE
  5
240
100
AcDbEntity
  8
0
 62
7
100
AcDbPolyline
 90
2
 70
0
 10
232.985197
 20
154.682081
 30
0.0
 10
232.885132
 20
154.682081
 30
0.0
  0
LWPOLYLINE
  5
241
100
AcDbEntity
  8
0
 62
7
100
AcDbPolyline
 90
2
 70
0
 10
249.635625
 20
154.682081
 30
0.0
 10
232.985197
 20
154.682081
 30
0.0
  0
LWPOLYLINE
  5
242
100
AcDbEntity
  8
0
 62
7
100
AcDbPolyline
 90
2
 70
0
 10
263.868945
 20
142.571906
 30
0.0
 10
249.635625
 20
154.682081
 30
0.0
  0
LWPOLYLINE
  5
243
100
AcDbEntity
  8
0
 62
7
100
AcDbPolyline
 90
2
 70
0
 10
270.801922
 20
136.673006
 30
0.0
 10
263.868945
 20
142.571906
 30
0.0
  0
LWPOLYLINE
  5
244
100
AcDbEntity
  8
0
 62
7
100
AcDbPolyline
 90
2
 70
0
 10
270.807870
 20
136.514554
 30
0.0
 10
270.801870
 20
136.673006
 30
0.0
  0
LWPOLYLINE
  5
245
100
AcDbEntity
  8
0
 62
7
100
AcDbPolyline
 90
2
 70
0
 10
270.810945
 20
136.424411
 30
0.0
 10
270.807945
 20
136.514554
 30
0.0
  0
LWPOLYLINE
  5
246
100
AcDbEntity
  8
0
 62
7
100
AcDbPolyline
 90
2
 70
0
 10
271.629142
 20
114.132754
 30
0.0
 10
270.811065
 20
136.424411
 30
0.0
  0
LWPOLYLINE
  5
247
100
AcDbEntity
  8
0
 62
7
100
AcDbPolyline
 90
2
 70
0
 10
272.387977
 20
93.450896
 30
0.0
 10
271.629142
 20
114.132754
 30
0.0
  0
LWPOLYLINE
  5
248
100
AcDbEntity
  8
0
 62
7
100
AcDbPolyline
 90
2
 70
0
 10
272.650185
 20
83.853364
 30
0.0
 10
272.387977
 20
93.450896
 30
0.0
  0
LWPOLYLINE
  5
249
100
AcDbEntity
  8
0
 62
7
100
AcDbPolyline
 90
2
 70
0
 10
272.932800
 20
73.508614
 30
0.0
 10
272.650185
 20
83.853364
 30
0.0
  0
LWPOLYLINE
  5
24a
100
AcDbEntity
  8
0
 62
7
100
AcDbPolyline
 90
2
 70
0
 10
273.181395
 20
60.271639
 30
0.0
 10
272.932800
 20
73.508614
 30
0.0
  0
LWPOLYLINE
  5
24b
100
AcDbEntity
  8
0
 62
7
100
AcDbPolyline
 90
2
 70
0
 10
274.622535
 20
59.577739
 30
0.0
 10
273.181395
 20
60.271639
 30
0.0
  0
LWPOLYLINE
  5
24c
100
AcDbEntity
  8
0
 62
7
100
AcDbPolyline
 90
2
 70
0
 10
277.906185
 20
55.460089
 30
0.0
 10
274.622535
 20
59.577739
 30
0.0
  0
LWPOLYLINE
  5
24d
100
AcDbEntity
  8
0
 62
7
100
AcDbPolyline
 90
2
 70
0
 10
277.967700
 20
55.382764
 30
0.0
 10
277.906200
 20
55.460089
 30
0.0
  0
LWPOLYLINE
  5
24e
100
AcDbEntity
  8
0
 62
7
100
AcDbPolyline
 90
2
 70
0
 10
277.989825
 20
55.286614
 30
0.0
 10
277.967700
 20
55.382764
 30
0.0
  0
LWPOLYLINE
  5
24f
100
AcDbEntity
  8
0
 62
7
100
AcDbPolyline
 90
2
 70
0
 10
279.161647
 20
50.151964
 30
0.0
 10
277.989810
 20
55.286614
 30
0.0
  0
LWPOLYLINE
  5
250
100
AcDbEntity
  8
0
 62
7
100
AcDbPolyline
 90
2
 70
0
 10
277.989810
 20
45.017539
 30
0.0
 10
279.161647
 20
50.151964
 30
0.0
  0
LWPOLYLINE
  5
251
100
AcDbEntity
  8
0
 62
7
100
AcDbPolyline
 90
2
 70
0
 10
277.967700
 20
44.921164
 30
0.0
 10
277.989825
 20
45.017539
 30
0.0
  0
LWPOLYLINE
  5
252
100
AcDbEntity
  8
0
 62
7
100
AcDbPolyline
 90
2
 70
0
 10
277.906200
 20
44.844064
 30
0.0
 10
277.967700
 20
44.921164
 30
0.0
  0
LWPOLYLINE
  5
253
100
AcDbEntity
  8
0
 62
7
100
AcDbPolyline
 90
2
 70
0
 10
274.622535
 20
40.726489
 30
0.0
 10
277.906185
 20
44.844064
 30
0.0
  0
LWPOLYLINE
  5
254
100
AcDbEntity
  8
0
 62
7
100
AcDbPolyline
 90
2
 70
0
 10
273.557842
 20
40.213714
 30
0.0
 10
274.622535
 20
40.726489
 30
0.0
  0
LWPOLYLINE
  5
255
100
AcDbEntity
  8
0
 62
7
100
AcDbPolyline
 90
2
 70
0
 10
273.819195
 20
26.300914
 30
0.0
 10
273.557842
 20
40.213714
 30
0.0
  0
LWPOLYLINE
  5
256
100
AcDbEntity
  8
0
 62
7
100
AcDbPolyline
 90
2
 70
0
 10
273.823447
 20
26.069239
 30
0.0
 10
273.818947
 20
26.300914
 30
0.0
  0
LWPOLYLINE
  5
257
100
AcDbEntity
  8
0
 62
7
100
AcDbPolyline
 90
2
 70
0
 10
273.824197
 20
26.027989
 30
0.0
 10
273.823447
 20
26.069239
 30
0.0
  0
LWPOLYLINE
  5
258
100
AcDbEntity
  8
0
 62
7
100
AcDbPolyline
 90
2
 70
0
 10
273.858847
 20
22.814239
 30
0.0
 10
273.824272
 20
26.027989
 30
0.0
  0
LWPOLYLINE
  5
259
100
AcDbEntity
  8
0
 62
7
100
AcDbPolyline
 90
2
 70
0
 10
274.053315
 20
4.755514
 30
0.0
 10
273.858855
 20
22.814239
 30
0.0
  0
LWPOLYLINE
  5
25a
100
AcDbEntity
  8
0
 62
7
100
AcDbPolyline
 90
2
 70
0
 10
274.054162
 20
4.487839
 30
0.0
 10
274.053412
 20
4.755514
 30
0.0
  0
LWPOLYLINE
  5
25b
100
AcDbEntity
  8
0
 62
7
100
AcDbPolyline
 90
2
 70
0
 10
274.054162
 20
4.472314
 30
0.0
 10
274.054162
 20
4.488064
 30
0.0
  0
LWPOLYLINE
  5
25c
100
AcDbEntity
  8
0
 62
7
100
AcDbPolyline
 90
2
 70
1
 10
274.054162
 20
4.472314
 30
0.0
 10
274.054162
 20
4.472314
 30
0.0
  0
LWPOLYLINE
  5
25d
100
AcDbEntity
  8
0
 62
7
100
AcDbPolyline
 90
2
 70
0
 10
274.164997
 20
-31.873286
 30
0.0
 10
274.054162
 20
4.472314
 30
0.0
  0
LWPOLYLINE
  5
25e
100
AcDbEntity
  8
0
 62
7
100
AcDbPolyline
 90
2
 70
0
 10
274.164997
 20
-44.258486
 30
0.0
 10
274.164997
 20
-31.873286
 30
0.0
  0
LWPOLYLINE
  5
25f
100
AcDbEntity
  8
0
 62
7
100
AcDbPolyline
 90
1
 70
1
 10
274.164997
 20
-44.258486
 30
0.0
  0
LWPOLYLINE
  5
260
100
AcDbEntity
  8
0
 62
7
100
AcDbPolyline
 90
2
 70
0
 10
274.164997
 20
-45.248336
 30
0.0
 10
274.164997
 20
-44.258486
 30
0.0
  0
LWPOLYLINE
  5
261
100
AcDbEntity
  8
0
 62
7
100
AcDbPolyline
 90
2
 70
0
 10
274.164997
 20
-52.647311
 30
0.0
 10
274.164997
 20
-45.248336
 30
0.0
  0
LWPOLYLINE
  5
262
100
AcDbEntity
  8
0
 62
7
100
AcDbPolyline
 90
2
 70
0
 10
274.164997
 20
-52.936736
 30
0.0
 10
274.164997
 20
-52.647311
 30
0.0
  0
LWPOLYLINE
  5
263
100
AcDbEntity
  8
0
 62
7
100
AcDbPolyline
 90
2
 70
0
 10
274.105147
 20
-66.012686
 30
0.0
 10
274.164997
 20
-52.936736
 30
0.0
  0
LWPOLYLINE
  5
264
100
AcDbEntity
  8
0
 62
7
100
AcDbPolyline
 90
2
 70
0
 10
273.661845
 20
-101.947736
 30
0.0
 10
274.105185
 20
-66.012686
 30
0.0
  0
LWPOLYLINE
  5
265
100
AcDbEntity
  8
0
 62
7
100
AcDbPolyline
 90
2
 70
0
 10
273.509340
 20
-114.306236
 30
0.0
 10
273.661845
 20
-101.947736
 30
0.0
  0
LWPOLYLINE
  5
266
100
AcDbEntity
  8
0
 62
7
100
AcDbPolyline
 90
2
 70
0
 10
273.506790
 20
-114.513986
 30
0.0
 10
273.509040
 20
-114.306236
 30
0.0
  0
LWPOLYLINE
  5
267
100
AcDbEntity
  8
0
 62
7
100
AcDbPolyline
 90
2
 70
0
 10
268.197202
 20
-119.683286
 30
0.0
 10
273.506490
 20
-114.513986
 30
0.0
  0
LWPOLYLINE
  5
268
100
AcDbEntity
  8
0
 62
7
100
AcDbPolyline
 90
2
 70
0
 10
252.751785
 20
-134.722736
 30
0.0
 10
268.197202
 20
-119.683286
 30
0.0
  0
LWPOLYLINE
  5
269
100
AcDbEntity
  8
0
 62
7
100
AcDbPolyline
 90
2
 70
0
 10
215.447850
 20
-134.722736
 30
0.0
 10
252.751785
 20
-134.722736
 30
0.0
  0
LWPOLYLINE
  5
26a
100
AcDbEntity
  8
0
 62
7
100
AcDbPolyline
 90
2
 70
0
 10
215.213422
 20
-134.722736
 30
0.0
 10
215.447850
 20
-134.722736
 30
0.0
  0
LWPOLYLINE
  5
26b
100
AcDbEntity
  8
0
 62
7
100
AcDbPolyline
 90
2
 70
0
 10
203.606115
 20
-134.722736
 30
0.0
 10
215.213422
 20
-134.722736
 30
0.0
  0
LWPOLYLINE
  5
26c
100
AcDbEntity
  8
0
 62
7
100
AcDbPolyline
 90
2
 70
0
 10
194.300257
 20
-134.722736
 30
0.0
 10
203.606115
 20
-134.722736
 30
0.0
  0
LWPOLYLINE
  5
26d
100
AcDbEntity
  8
0
 62
7
100
AcDbPolyline
 90
2
 70
0
 10
180.023565
 20
-134.722736
 30
0.0
 10
194.300257
 20
-134.722736
 30
0.0
  0
LWPOLYLINE
  5
26e
100
AcDbEntity
  8
0
 62
7
100
AcDbPolyline
 90
2
 70
0
 10
179.800192
 20
-134.722736
 30
0.0
 10
180.023565
 20
-134.722736
 30
0.0
  0
LWPOLYLINE
  5
26f
100
AcDbEntity
  8
0
 62
7
100
AcDbPolyline
 90
2
 70
0
 10
142.332982
 20
-134.722736
 30
0.0
 10
179.800192
 20
-134.722736
 30
0.0
  0
LWPOLYLINE
  5
270
100
AcDbEntity
  8
0
 62
7
100
AcDbPolyline
 90
2
 70
0
 10
139.231597
 20
-134.722736
 30
0.0
 10
142.332982
 20
-134.722736
 30
0.0
  0
LWPOLYLINE
  5
271
100
AcDbEntity
  8
0
 62
7
100
AcDbPolyline
 90
2
 70
0
 10
139.017862
 20
-134.722736
 30
0.0
 10
139.231597
 20
-134.722736
 30
0.0
  0
LWPOLYLINE
  5
272
100
AcDbEntity
  8
0
 62
7
100
AcDbPolyline
 90
2
 70
0
 10
129.961170
 20
-134.722736
 30
0.0
 10
139.017862
 20
-134.722736
 30
0.0
  0
LWPOLYLINE
  5
273
100
AcDbEntity
  8
0
 62
7
100
AcDbPolyline
 90
2
 70
0
 10
117.013357
 20
-134.722736
 30
0.0
 10
129.961170
 20
-134.722736
 30
0.0
  0
LWPOLYLINE
  5
274
100
AcDbEntity
  8
0
 62
7
100
AcDbPolyline
 90
2
 70
0
 10
116.778930
 20
-134.722736
 30
0.0
 10
117.013357
 20
-134.722736
 30
0.0
  0
LWPOLYLINE
  5
275
100
AcDbEntity
  8
0
 62
7
100
AcDbPolyline
 90
2
 70
0
 10
101.708257
 20
-134.722736
 30
0.0
 10
116.778930
 20
-134.722736
 30
0.0
  0
LWPOLYLINE
  5
276
100
AcDbEntity
  8
0
 62
7
100
AcDbPolyline
 90
2
 70
0
 10
95.054490
 20
-144.407936
 30
0.0
 10
101.708257
 20
-134.722736
 30
0.0
  0
LWPOLYLINE
  5
277
100
AcDbEntity
  8
0
 62
7
100
AcDbPolyline
 90
2
 70
0
 10
80.804445
 20
-165.149861
 30
0.0
 10
95.054490
 20
-144.407936
 30
0.0
  0
LWPOLYLINE
  5
278
100
AcDbEntity
  8
0
 62
7
100
AcDbPolyline
 90
2
 70
0
 10
22.586578
 20
-165.149861
 30
0.0
 10
80.804445
 20
-165.149861
 30
0.0
  0
LWPOLYLINE
  5
279
100
AcDbEntity
  8
0
 62
7
100
AcDbPolyline
 90
2
 70
0
 10
12.738905
 20
-168.544886
 30
0.0
 10
22.586578
 20
-165.149861
 30
0.0
  0
LWPOLYLINE
  5
27a
100
AcDbEntity
  8
0
 62
7
100
AcDbPolyline
 90
2
 70
0
 10
-0.438543
 20
-173.088011
 30
0.0
 10
12.738905
 20
-168.544886
 30
0.0
  0
LWPOLYLINE
  5
27b
100
AcDbEntity
  8
0
 62
7
100
AcDbPolyline
 90
2
 70
0
 10
-0.895128
 20
-175.088411
 30
0.0
 10
-0.438543
 20
-173.088011
 30
0.0
  0
LWPOLYLINE
  5
27c
100
AcDbEntity
  8
0
 62
7
100
AcDbPolyline
 90
2
 70
0
 10
-0.917111
 20
-175.184486
 30
0.0
 10
-0.895128
 20
-175.088411
 30
0.0
  0
LWPOLYLINE
  5
27d
100
AcDbEntity
  8
0
 62
7
100
AcDbPolyline
 90
2
 70
0
 10
-0.978699
 20
-175.261886
 30
0.0
 10
-0.917111
 20
-175.184486
 30
0.0
  0
LWPOLYLINE
  5
27e
100
AcDbEntity
  8
0
 62
7
100
AcDbPolyline
 90
2
 70
0
 10
-4.262336
 20
-179.379461
 30
0.0
 10
-0.978699
 20
-175.261886
 30
0.0
  0
LWPOLYLINE
  5
27f
100
AcDbEntity
  8
0
 62
7
100
AcDbPolyline
 90
2
 70
0
 10
-9.007334
 20
-181.664486
 30
0.0
 10
-4.262336
 20
-179.379461
 30
0.0
  0
LWPOLYLINE
  5
280
100
AcDbEntity
  8
0
 62
7
100
AcDbPolyline
 90
2
 70
0
 10
-9.096342
 20
-181.707311
 30
0.0
 10
-9.007334
 20
-181.664561
 30
0.0
  0
LWPOLYLINE
  5
281
100
AcDbEntity
  8
0
 62
7
100
AcDbPolyline
 90
2
 70
0
 10
-14.461674
 20
-181.707311
 30
0.0
 10
-9.096342
 20
-181.707311
 30
0.0
  0
LWPOLYLINE
  5
282
100
AcDbEntity
  8
0
 62
7
100
AcDbPolyline
 90
2
 70
0
 10
-14.550683
 20
-181.664561
 30
0.0
 10
-14.461674
 20
-181.707311
 30
0.0
  0
LWPOLYLINE
  5
283
100
AcDbEntity
  8
0
 62
7
100
AcDbPolyline
 90
2
 70
0
 10
-16.435580
 20
-180.756836
 30
0.0
 10
-14.550683
 20
-181.664486
 30
0.0
  0
LWPOLYLINE
  5
284
100
AcDbEntity
  8
0
 62
7
100
AcDbPolyline
 90
2
 70
0
 10
-35.738043
 20
-193.656161
 30
0.0
 10
-16.435580
 20
-180.756836
 30
0.0
  0
LWPOLYLINE
  5
285
100
AcDbEntity
  8
0
 62
7
100
AcDbPolyline
 90
2
 70
0
 10
-35.738894
 20
-193.656761
 30
0.0
 10
-35.738069
 20
-193.656161
 30
0.0
  0
LWPOLYLINE
  5
286
100
AcDbEntity
  8
0
 62
7
100
AcDbPolyline
 90
2
 70
0
 10
-43.587485
 20
-198.901736
 30
0.0
 10
-35.738919
 20
-193.656761
 30
0.0
  0
LWPOLYLINE
  5
287
100
AcDbEntity
  8
0
 62
7
100
AcDbPolyline
 90
2
 70
0
 10
-56.976651
 20
-213.771986
 30
0.0
 10
-43.587485
 20
-198.901736
 30
0.0
  0
LWPOLYLINE
  5
288
100
AcDbEntity
  8
0
 62
7
100
AcDbPolyline
 90
2
 70
0
 10
-69.675296
 20
-227.875211
 30
0.0
 10
-56.976651
 20
-213.771986
 30
0.0
  0
LWPOLYLINE
  5
289
100
AcDbEntity
  8
0
 62
7
100
AcDbPolyline
 90
2
 70
0
 10
-66.601124
 20
-239.849561
 30
0.0
 10
-69.675296
 20
-227.875211
 30
0.0
  0
LWPOLYLINE
  5
28a
100
AcDbEntity
  8
0
 62
7
100
AcDbPolyline
 90
2
 70
0
 10
-66.089753
 20
-241.841486
 30
0.0
 10
-66.601124
 20
-239.849561
 30
0.0
  0
LWPOLYLINE
  5
28b
100
AcDbEntity
  8
0
 62
7
100
AcDbPolyline
 90
2
 70
0
 10
-66.209942
 20
-242.007011
 30
0.0
 10
-66.089753
 20
-241.841486
 30
0.0
  0
LWPOLYLINE
  5
28c
100
AcDbEntity
  8
0
 62
7
100
AcDbPolyline
 90
2
 70
0
 10
-66.229502
 20
-242.033636
 30
0.0
 10
-66.209942
 20
-242.007386
 30
0.0
  0
LWPOLYLINE
  5
28d
100
AcDbEntity
  8
0
 62
7
100
AcDbPolyline
 90
2
 70
1
 10
-66.229502
 20
-242.033636
 30
0.0
 10
-66.229502
 20
-242.033636
 30
0.0
  0
LWPOLYLINE
  5
28e
100
AcDbEntity
  8
0
 62
7
100
AcDbPolyline
 90
2
 70
0
 10
-69.557092
 20
-246.613886
 30
0.0
 10
-66.229502
 20
-242.033636
 30
0.0
  0
LWPOLYLINE
  5
28f
100
AcDbEntity
  8
0
 62
7
100
AcDbPolyline
 90
2
 70
0
 10
-70.399265
 20
-247.773236
 30
0.0
 10
-69.557092
 20
-246.613886
 30
0.0
  0
LWPOLYLINE
  5
290
100
AcDbEntity
  8
0
 62
7
100
AcDbPolyline
 90
1
 70
1
 10
-70.399265
 20
-247.773236
 30
0.0
  0
LWPOLYLINE
  5
291
100
AcDbEntity
  8
0
 62
7
100
AcDbPolyline
 90
2
 70
0
 10
-73.478541
 20
-250.865561
 30
0.0
 10
-70.399265
 20
-247.773236
 30
0.0
  0
LWPOLYLINE
  5
292
100
AcDbEntity
  8
0
 62
7
100
AcDbPolyline
 90
2
 70
0
 10
-82.904306
 20
-260.332136
 30
0.0
 10
-73.478541
 20
-250.865561
 30
0.0
  0
LWPOLYLINE
  5
293
100
AcDbEntity
  8
0
 62
7
100
AcDbPolyline
 90
2
 70
0
 10
-97.323581
 20
-269.574836
 30
0.0
 10
-82.904306
 20
-260.332136
 30
0.0
  0
LWPOLYLINE
  5
294
100
AcDbEntity
  8
0
 62
7
100
AcDbPolyline
 90
2
 70
0
 10
-110.662571
 20
-278.124911
 30
0.0
 10
-97.323581
 20
-269.574836
 30
0.0
  0
LWPOLYLINE
  5
295
100
AcDbEntity
  8
0
 62
7
100
AcDbPolyline
 90
2
 70
0
 10
-110.811956
 20
-278.220761
 30
0.0
 10
-110.662571
 20
-278.124911
 30
0.0
  0
LWPOLYLINE
  5
296
100
AcDbEntity
  8
0
 62
7
100
AcDbPolyline
 90
2
 70
0
 10
-124.364681
 20
-278.285111
 30
0.0
 10
-110.811956
 20
-278.220611
 30
0.0
  0
LWPOLYLINE
  5
297
100
AcDbEntity
  8
0
 62
7
100
AcDbPolyline
 90
2
 70
0
 10
-130.618196
 20
-278.314736
 30
0.0
 10
-124.364681
 20
-278.284736
 30
0.0
  0
LWPOLYLINE
  5
298
100
AcDbEntity
  8
0
 62
7
100
AcDbPolyline
 90
2
 70
0
 10
-130.784021
 20
-278.167961
 30
0.0
 10
-130.618196
 20
-278.314511
 30
0.0
  0
LWPOLYLINE
  5
299
100
AcDbEntity
  8
0
 62
7
100
AcDbPolyline
 90
2
 70
0
 10
-130.836746
 20
-278.121161
 30
0.0
 10
-130.784021
 20
-278.167661
 30
0.0
  0
LWPOLYLINE
  5
29a
100
AcDbEntity
  8
0
 62
7
100
AcDbPolyline
 90
1
 70
1
 10
-130.836746
 20
-278.121161
 30
0.0
  0
LWPOLYLINE
  5
29b
100
AcDbEntity
  8
0
 62
7
100
AcDbPolyline
 90
2
 70
0
 10
-162.870506
 20
-249.797636
 30
0.0
 10
-130.836746
 20
-278.121161
 30
0.0
  0
LWPOLYLINE
  5
29c
100
AcDbEntity
  8
0
 62
7
100
AcDbPolyline
 90
2
 70
0
 10
-167.377878
 20
-243.795911
 30
0.0
 10
-162.870506
 20
-249.797636
 30
0.0
  0
LWPOLYLINE
  5
29d
100
AcDbEntity
  8
0
 62
7
100
AcDbPolyline
 90
2
 70
0
 10
-169.213316
 20
-244.440761
 30
0.0
 10
-167.377878
 20
-243.795911
 30
0.0
  0
LWPOLYLINE
  5
29e
100
AcDbEntity
  8
0
 62
7
100
AcDbPolyline
 90
2
 70
0
 10
-170.233503
 20
-244.668686
 30
0.0
 10
-169.213316
 20
-244.440761
 30
0.0
  0
LWPOLYLINE
  5
29f
100
AcDbEntity
  8
0
 62
7
100
AcDbPolyline
 90
2
 70
0
 10
-178.284176
 20
-243.770336
 30
0.0
 10
-170.233503
 20
-244.668686
 30
0.0
  0
LWPOLYLINE
  5
2a0
100
AcDbEntity
  8
0
 62
7
100
AcDbPolyline
 90
2
 70
0
 10
-181.862066
 20
-242.020811
 30
0.0
 10
-178.284176
 20
-243.770336
 30
0.0
  0
LWPOLYLINE
  5
2a1
100
AcDbEntity
  8
0
 62
7
100
AcDbPolyline
 90
2
 70
0
 10
-181.914228
 20
-241.977761
 30
0.0
 10
-181.862103
 20
-242.020511
 30
0.0
  0
LWPOLYLINE
  5
2a2
100
AcDbEntity
  8
0
 62
7
100
AcDbPolyline
 90
2
 70
0
 10
-182.081508
 20
-241.840211
 30
0.0
 10
-181.914266
 20
-241.977461
 30
0.0
  0
LWPOLYLINE
  5
2a3
100
AcDbEntity
  8
0
 62
7
100
AcDbPolyline
 90
1
 70
1
 10
-182.081508
 20
-241.840211
 30
0.0
  0
LWPOLYLINE
  5
2a4
100
AcDbEntity
  8
0
 62
7
100
AcDbPolyline
 90
2
 70
0
 10
-190.375398
 20
-235.028861
 30
0.0
 10
-182.081508
 20
-241.840211
 30
0.0
  0
LWPOLYLINE
  5
2a5
100
AcDbEntity
  8
0
 62
7
100
AcDbPolyline
 90
2
 70
0
 10
-219.826233
 20
-210.842561
 30
0.0
 10
-190.375398
 20
-235.028861
 30
0.0
  0
LWPOLYLINE
  5
2a6
100
AcDbEntity
  8
0
 62
7
100
AcDbPolyline
 90
1
 70
1
 10
-219.826233
 20
-210.842561
 30
0.0
  0
LWPOLYLINE
  5
2a7
100
AcDbEntity
  8
0
 62
7
100
AcDbPolyline
 90
2
 70
0
 10
-219.863358
 20
-210.811811
 30
0.0
 10
-219.826233
 20
-210.842561
 30
0.0
  0
LWPOLYLINE
  5
2a8
100
AcDbEntity
  8
0
 62
7
100
AcDbPolyline
 90
2
 70
0
 10
-220.045631
 20
-210.662261
 30
0.0
 10
-219.863366
 20
-210.811961
 30
0.0
  0
LWPOLYLINE
  5
2a9
100
AcDbEntity
  8
0
 62
7
100
AcDbPolyline
 90
2
 70
0
 10
-220.715178
 20
-204.168086
 30
0.0
 10
-220.045631
 20
-210.662261
 30
0.0
  0
LWPOLYLINE
  5
2aa
100
AcDbEntity
  8
0
 62
7
100
AcDbPolyline
 90
2
 70
0
 10
-221.569541
 20
-195.880961
 30
0.0
 10
-220.715178
 20
-204.168086
 30
0.0
  0
ENDSEC
  0
SECTION
  2
OBJECTS
  0
DICTIONARY
  5
C
330
0
100
AcDbDictionary
  3
ACAD_GROUP
350
D
  3
ACAD_MLINESTYLE
350
17
  0
DICTIONARY
  5
D
330
C
100
AcDbDictionary
  0
DICTIONARY
  5
1A
330
C
100
AcDbDictionary
  0
DICTIONARY
  5
17
330
C
100
AcDbDictionary
  3
STANDARD
350
18
  0
DICTIONARY
  5
19
330
C
100
AcDbDictionary
  0
ENDSEC
  0
EOF
