  0
SECTION
  2
BLOCKS
  0
ENDSEC
  0
SECTION
  2
ENTITIES
  0
LINE
  8
0
 10
-92.4264
 20
-73.2724
 11
-92.1916
 21
-75.5494
  0
LINE
  8
0
 10
-92.1916
 20
-75.5494
 11
-91.8684
 21
-78.6839
  0
LINE
  8
0
 10
-91.8684
 20
-78.6839
 11
-91.8496
 21
-78.6993
  0
LINE
  8
0
 10
-91.8496
 20
-78.6993
 11
-91.791
 21
-78.7475
  0
LINE
  8
0
 10
-91.791
 20
-78.7475
 11
-91.791
 21
-78.7475
  0
LINE
  8
0
 10
-91.791
 20
-78.7475
 11
-88.2985
 21
-81.6157
  0
LINE
  8
0
 10
-88.2985
 20
-81.6157
 11
-78.3981
 21
-89.7464
  0
LINE
  8
0
 10
-78.3981
 20
-89.7464
 11
-76.7492
 21
-90.5515
  0
LINE
  8
0
 10
-76.7492
 20
-90.5515
 11
-73.5317
 21
-90.9049
  0
LINE
  8
0
 10
-73.5317
 20
-90.9049
 11
-73.5317
 21
-90.9049
  0
LINE
  8
0
 10
-73.5317
 20
-90.9049
 11
-63.5013
 21
-99.7736
  0
LINE
  8
0
 10
-63.5013
 20
-99.7736
 11
-60.2115
 21
-102.682
  0
LINE
  8
0
 10
-60.2115
 20
-102.682
 11
-60.187
 21
-102.704
  0
LINE
  8
0
 10
-60.187
 20
-102.704
 11
-54.8923
 21
-102.679
  0
LINE
  8
0
 10
-54.8923
 20
-102.679
 11
-52.9536
 21
-102.67
  0
LINE
  8
0
 10
-52.9536
 20
-102.67
 11
-49.007
 21
-100.14
  0
LINE
  8
0
 10
-49.007
 20
-100.14
 11
-44.7882
 21
-97.4357
  0
LINE
  8
0
 10
-44.7882
 20
-97.4357
 11
-42.8605
 21
-95.4996
  0
LINE
  8
0
 10
-42.8605
 20
-95.4996
 11
-40.3767
 21
-93.0051
  0
LINE
  8
0
 10
-40.3767
 20
-93.0051
 11
-39.8058
 21
-92.2193
  0
LINE
  8
0
 10
-39.8058
 20
-92.2193
 11
-38.1373
 21
-89.9228
  0
LINE
  8
0
 10
-38.1373
 20
-89.9228
 11
-38.0979
 21
-89.8686
  0
LINE
  8
0
 10
-38.0979
 20
-89.8686
 11
-38.0979
 21
-89.8686
  0
LINE
  8
0
 10
-38.0979
 20
-89.8686
 11
-38.088
 21
-89.855
  0
LINE
  8
0
 10
-38.088
 20
-89.855
 11
-38.088
 21
-89.855
  0
LINE
  8
0
 10
-38.088
 20
-89.855
 11
-38.3418
 21
-88.8673
  0
LINE
  8
0
 10
-38.3418
 20
-88.8673
 11
-39.3556
 21
-84.9224
  0
LINE
  8
0
 10
-39.3556
 20
-84.9224
 11
-37.3035
 21
-82.6433
  0
LINE
  8
0
 10
-37.3035
 20
-82.6433
 11
-30.1555
 21
-74.7047
  0
LINE
  8
0
 10
-30.1555
 20
-74.7047
 11
-27.4604
 21
-72.9067
  0
LINE
  8
0
 10
-27.4604
 20
-72.9067
 11
-27.4602
 21
-72.9065
  0
LINE
  8
0
 10
-27.4602
 20
-72.9065
 11
-18.1097
 21
-66.6683
  0
LINE
  8
0
 10
-18.1097
 20
-66.6683
 11
-9.98284
 21
-64.4238
  0
LINE
  8
0
 10
-9.98284
 20
-64.4238
 11
-6.56861
 21
-63.4809
  0
LINE
  8
0
 10
-6.56861
 20
-63.4809
 11
2.41167
 21
-63.4809
  0
LINE
  8
0
 10
2.41167
 20
-63.4809
 11
2.46588
 21
-63.4809
  0
LINE
  8
0
 10
2.46588
 20
-63.4809
 11
13.5226
 21
-63.4809
  0
LINE
  8
0
 10
13.5226
 20
-63.4809
 11
16.8575
 21
-57.2373
  0
LINE
  8
0
 10
16.8575
 20
-57.2373
 11
19.1278
 21
-52.9871
  0
LINE
  8
0
 10
19.1278
 20
-52.9871
 11
26.9824
 21
-52.9871
  0
LINE
  8
0
 10
26.9824
 20
-52.9871
 11
27.0915
 21
-52.9871
  0
LINE
  8
0
 10
27.0915
 20
-52.9871
 11
29.1562
 21
-52.9871
  0
LINE
  8
0
 10
29.1562
 20
-52.9871
 11
32.895
 21
-52.9871
  0
LINE
  8
0
 10
32.895
 20
-52.9871
 11
32.99
 21
-52.9871
  0
LINE
  8
0
 10
32.99
 20
-52.9871
 11
33.3124
 21
-52.9871
  0
LINE
  8
0
 10
33.3124
 20
-52.9871
 11
43.0414
 21
-52.9871
  0
LINE
  8
0
 10
43.0414
 20
-52.9871
 11
43.0414
 21
-52.9871
  0
LINE
  8
0
 10
43.0414
 20
-52.9871
 11
48.2013
 21
-52.8666
  0
LINE
  8
0
 10
48.2013
 20
-52.8666
 11
50.5114
 21
-52.8126
  0
LINE
  8
0
 10
50.5114
 20
-52.8126
 11
50.6118
 21
-52.8103
  0
LINE
  8
0
 10
50.6118
 20
-52.8103
 11
53.9054
 21
-49.3365
  0
LINE
  8
0
 10
53.9054
 20
-49.3365
 11
57.6385
 21
-45.3992
  0
LINE
  8
0
 10
57.6385
 20
-45.3992
 11
57.656
 21
-45.3455
  0
LINE
  8
0
 10
57.656
 20
-45.3455
 11
57.6644
 21
-45.3197
  0
LINE
  8
0
 10
57.6644
 20
-45.3197
 11
57.6622
 21
-45.2256
  0
LINE
  8
0
 10
57.6622
 20
-45.2256
 11
57.6621
 21
-45.2231
  0
LINE
  8
0
 10
57.6621
 20
-45.2231
 11
57.6621
 21
-45.2231
  0
LINE
  8
0
 10
57.6621
 20
-45.2231
 11
57.6621
 21
-45.2231
  0
LINE
  8
0
 10
57.6621
 20
-45.2231
 11
57.6385
 21
-44.2121
  0
LINE
  8
0
 10
57.6385
 20
-44.2121
 11
56.495
 21
-31.5163
  0
LINE
  8
0
 10
56.495
 20
-31.5163
 11
56.1354
 21
-27.524
  0
LINE
  8
0
 10
56.1354
 20
-27.524
 11
55.8885
 21
-22.1292
  0
LINE
  8
0
 10
55.8885
 20
-22.1292
 11
55.8185
 21
-20.6
  0
LINE
  8
0
 10
55.8185
 20
-20.6
 11
55.8185
 21
-16.1315
  0
LINE
  8
0
 10
55.8185
 20
-16.1315
 11
55.819
 21
-16.1313
  0
LINE
  8
0
 10
55.819
 20
-16.1313
 11
57.4929
 21
-15.3251
  0
LINE
  8
0
 10
57.4929
 20
-15.3251
 11
58.6513
 21
-13.8726
  0
LINE
  8
0
 10
58.6513
 20
-13.8726
 11
58.6731
 21
-13.8453
  0
LINE
  8
0
 10
58.6731
 20
-13.8453
 11
58.6808
 21
-13.8113
  0
LINE
  8
0
 10
58.6808
 20
-13.8113
 11
59.0942
 21
-12
  0
LINE
  8
0
 10
59.0942
 20
-12
 11
58.6808
 21
-10.1887
  0
LINE
  8
0
 10
58.6808
 20
-10.1887
 11
58.6731
 21
-10.1547
  0
LINE
  8
0
 10
58.6731
 20
-10.1547
 11
58.6513
 21
-10.1274
  0
LINE
  8
0
 10
58.6513
 20
-10.1274
 11
57.4929
 21
-8.67486
  0
LINE
  8
0
 10
57.4929
 20
-8.67486
 11
55.819
 21
-7.86873
  0
LINE
  8
0
 10
55.819
 20
-7.86873
 11
55.8185
 21
-7.8685
  0
LINE
  8
0
 10
55.8185
 20
-7.8685
 11
55.8185
 21
-3.4
  0
LINE
  8
0
 10
55.8185
 20
-3.4
 11
55.8885
 21
-1.87083
  0
LINE
  8
0
 10
55.8885
 20
-1.87083
 11
56.1354
 21
3.52405
  0
LINE
  8
0
 10
56.1354
 20
3.52405
 11
56.495
 21
7.51626
  0
LINE
  8
0
 10
56.495
 20
7.51626
 11
57.6385
 21
20.2121
  0
LINE
  8
0
 10
57.6385
 20
20.2121
 11
57.6621
 21
21.2231
  0
LINE
  8
0
 10
57.6621
 20
21.2231
 11
57.6621
 21
21.2231
  0
LINE
  8
0
 10
57.6621
 20
21.2231
 11
57.6621
 21
21.2231
  0
LINE
  8
0
 10
57.6621
 20
21.2231
 11
57.6622
 21
21.2256
  0
LINE
  8
0
 10
57.6622
 20
21.2256
 11
57.6644
 21
21.3197
  0
LINE
  8
0
 10
57.6644
 20
21.3197
 11
57.656
 21
21.3455
  0
LINE
  8
0
 10
57.656
 20
21.3455
 11
57.6385
 21
21.3992
  0
LINE
  8
0
 10
57.6385
 20
21.3992
 11
53.9054
 21
25.3365
  0
LINE
  8
0
 10
53.9054
 20
25.3365
 11
50.6118
 21
28.8103
  0
LINE
  8
0
 10
50.6118
 20
28.8103
 11
50.5114
 21
28.8126
  0
LINE
  8
0
 10
50.5114
 20
28.8126
 11
48.2013
 21
28.8666
  0
LINE
  8
0
 10
48.2013
 20
28.8666
 11
43.0414
 21
28.9871
  0
LINE
  8
0
 10
43.0414
 20
28.9871
 11
43.0414
 21
28.9871
  0
LINE
  8
0
 10
43.0414
 20
28.9871
 11
33.3124
 21
28.9871
  0
LINE
  8
0
 10
33.3124
 20
28.9871
 11
32.99
 21
28.9871
  0
LINE
  8
0
 10
32.99
 20
28.9871
 11
32.895
 21
28.9871
  0
LINE
  8
0
 10
32.895
 20
28.9871
 11
29.1562
 21
28.9871
  0
LINE
  8
0
 10
29.1562
 20
28.9871
 11
27.0915
 21
28.9871
  0
LINE
  8
0
 10
27.0915
 20
28.9871
 11
26.9824
 21
28.9871
  0
LINE
  8
0
 10
26.9824
 20
28.9871
 11
12.3209
 21
28.987
  0
LINE
  8
0
 10
12.3209
 20
28.987
 11
8.69777
 21
37.2515
  0
LINE
  8
0
 10
8.69777
 20
37.2515
 11
7.45724
 21
40.0812
  0
LINE
  8
0
 10
7.45724
 20
40.0812
 11
6.62215
 21
40.9457
  0
LINE
  8
0
 10
6.62215
 20
40.9457
 11
6.27762
 21
40.9696
  0
LINE
  8
0
 10
6.27762
 20
40.9696
 11
6.02634
 21
40.9871
  0
LINE
  8
0
 10
6.02634
 20
40.9871
 11
6.02634
 21
40.9871
  0
LINE
  8
0
 10
6.02634
 20
40.9871
 11
1.76134
 21
40.9871
  0
LINE
  8
0
 10
1.76134
 20
40.9871
 11
1.75931
 21
40.996
  0
LINE
  8
0
 10
1.75931
 20
40.996
 11
1.75155
 21
41.0299
  0
LINE
  8
0
 10
1.75155
 20
41.0299
 11
1.72982
 21
41.0572
  0
LINE
  8
0
 10
1.72982
 20
41.0572
 11
0.571427
 21
42.5098
  0
LINE
  8
0
 10
0.571427
 20
42.5098
 11
-1.1025
 21
43.3159
  0
LINE
  8
0
 10
-1.1025
 20
43.3159
 11
-1.1339
 21
43.331
  0
LINE
  8
0
 10
-1.1339
 20
43.331
 11
-3.02667
 21
43.331
  0
LINE
  8
0
 10
-3.02667
 20
43.331
 11
-3.05807
 21
43.3159
  0
LINE
  8
0
 10
-3.05807
 20
43.3159
 11
-4.732
 21
42.5098
  0
LINE
  8
0
 10
-4.732
 20
42.5098
 11
-5.8904
 21
41.0572
  0
LINE
  8
0
 10
-5.8904
 20
41.0572
 11
-5.91212
 21
41.0299
  0
LINE
  8
0
 10
-5.91212
 20
41.0299
 11
-5.91988
 21
40.996
  0
LINE
  8
0
 10
-5.91988
 20
40.996
 11
-5.92191
 21
40.9871
  0
LINE
  8
0
 10
-5.92191
 20
40.9871
 11
-9.84247
 21
40.9871
  0
LINE
  8
0
 10
-9.84247
 20
40.9871
 11
-12.6478
 21
45.3002
  0
LINE
  8
0
 10
-12.6478
 20
45.3002
 11
-12.6479
 21
45.3004
  0
LINE
  8
0
 10
-12.6479
 20
45.3004
 11
-14.1314
 21
47.5812
  0
LINE
  8
0
 10
-14.1314
 20
47.5812
 11
-14.4831
 21
47.8567
  0
LINE
  8
0
 10
-14.4831
 20
47.8567
 11
-15.2877
 21
48.4871
  0
LINE
  8
0
 10
-15.2877
 20
48.4871
 11
-17.0717
 21
48.4871
  0
LINE
  8
0
 10
-17.0717
 20
48.4871
 11
-17.1989
 21
48.4871
  0
LINE
  8
0
 10
-17.1989
 20
48.4871
 11
-31.5834
 21
48.487
  0
LINE
  8
0
 10
-31.5834
 20
48.487
 11
-31.6384
 21
48.487
  0
LINE
  8
0
 10
-31.6384
 20
48.487
 11
-32.7619
 21
45.3687
  0
LINE
  8
0
 10
-32.7619
 20
45.3687
 11
-34.3405
 21
40.987
  0
LINE
  8
0
 10
-34.3405
 20
40.987
 11
-43.1541
 21
40.987
  0
LINE
  8
0
 10
-43.1541
 20
40.987
 11
-43.2059
 21
40.987
  0
LINE
  8
0
 10
-43.2059
 20
40.987
 11
-49.9897
 21
40.987
  0
LINE
  8
0
 10
-49.9897
 20
40.987
 11
-52.4729
 21
40.987
  0
LINE
  8
0
 10
-52.4729
 20
40.987
 11
-52.5046
 21
40.987
  0
LINE
  8
0
 10
-52.5046
 20
40.987
 11
-53.7048
 21
40.987
  0
LINE
  8
0
 10
-53.7048
 20
40.987
 11
-64.0224
 21
40.987
  0
LINE
  8
0
 10
-64.0224
 20
40.987
 11
-68.6927
 21
40.987
  0
LINE
  8
0
 10
-68.6927
 20
40.987
 11
-68.714
 21
40.987
  0
LINE
  8
0
 10
-68.714
 20
40.987
 11
-71.6965
 21
38.3732
  0
LINE
  8
0
 10
-71.6965
 20
38.3732
 11
-72.6669
 21
37.5227
  0
LINE
  8
0
 10
-72.6669
 20
37.5227
 11
-79.6669
 21
30.5227
  0
LINE
  8
0
 10
-79.6669
 20
30.5227
 11
-80.244
 21
26.2155
  0
LINE
  8
0
 10
-80.244
 20
26.2155
 11
-81.6892
 21
26.2155
  0
LINE
  8
0
 10
-81.6892
 20
26.2155
 11
-81.7206
 21
26.2004
  0
LINE
  8
0
 10
-81.7206
 20
26.2004
 11
-83.3945
 21
25.3943
  0
LINE
  8
0
 10
-83.3945
 20
25.3943
 11
-84.5529
 21
23.9417
  0
LINE
  8
0
 10
-84.5529
 20
23.9417
 11
-84.5746
 21
23.9145
  0
LINE
  8
0
 10
-84.5746
 20
23.9145
 11
-84.5824
 21
23.8805
  0
LINE
  8
0
 10
-84.5824
 20
23.8805
 11
-84.9958
 21
22.0691
  0
LINE
  8
0
 10
-84.9958
 20
22.0691
 11
-84.5824
 21
20.2578
  0
LINE
  8
0
 10
-84.5824
 20
20.2578
 11
-84.5746
 21
20.2238
  0
LINE
  8
0
 10
-84.5746
 20
20.2238
 11
-84.5529
 21
20.1966
  0
LINE
  8
0
 10
-84.5529
 20
20.1966
 11
-83.3945
 21
18.744
  0
LINE
  8
0
 10
-83.3945
 20
18.744
 11
-81.7206
 21
17.9379
  0
LINE
  8
0
 10
-81.7206
 20
17.9379
 11
-81.6892
 21
17.9228
  0
LINE
  8
0
 10
-81.6892
 20
17.9228
 11
-81.355
 21
17.9228
  0
LINE
  8
0
 10
-81.355
 20
17.9228
 11
-81.9187
 21
13.7156
  0
LINE
  8
0
 10
-81.9187
 20
13.7156
 11
-82.0297
 21
12.0289
  0
LINE
  8
0
 10
-82.0297
 20
12.0289
 11
-82.2455
 21
8.75
  0
LINE
  8
0
 10
-82.2455
 20
8.75
 11
-82.2455
 21
-8.75
  0
LINE
  8
0
 10
-82.2455
 20
-8.75
 11
-82.0297
 21
-12.0289
  0
LINE
  8
0
 10
-82.0297
 20
-12.0289
 11
-81.9187
 21
-13.7156
  0
LINE
  8
0
 10
-81.9187
 20
-13.7156
 11
-80.4175
 21
-24.9204
  0
LINE
  8
0
 10
-80.4175
 20
-24.9204
 11
-79.6669
 21
-30.5227
  0
LINE
  8
0
 10
-79.6669
 20
-30.5227
 11
-78.5011
 21
-33.8532
  0
LINE
  8
0
 10
-78.5011
 20
-33.8532
 11
-76.89
 21
-38.4556
  0
LINE
  8
0
 10
-76.89
 20
-38.4556
 11
-76.9285
 21
-38.4879
  0
LINE
  8
0
 10
-76.9285
 20
-38.4879
 11
-77.43
 21
-38.4879
  0
LINE
  8
0
 10
-77.43
 20
-38.4879
 11
-77.4614
 21
-38.503
  0
LINE
  8
0
 10
-77.4614
 20
-38.503
 11
-79.1353
 21
-39.3092
  0
LINE
  8
0
 10
-79.1353
 20
-39.3092
 11
-80.2937
 21
-40.7617
  0
LINE
  8
0
 10
-80.2937
 20
-40.7617
 11
-80.3154
 21
-40.789
  0
LINE
  8
0
 10
-80.3154
 20
-40.789
 11
-80.3232
 21
-40.823
  0
LINE
  8
0
 10
-80.3232
 20
-40.823
 11
-80.4682
 21
-41.458
  0
LINE
  8
0
 10
-80.4682
 20
-41.458
 11
-80.7666
 21
-41.7085
  0
LINE
  8
0
 10
-80.7666
 20
-41.7085
 11
-85.158
 21
-45.3933
  0
LINE
  8
0
 10
-85.158
 20
-45.3933
 11
-85.158
 21
-45.3933
  0
LINE
  8
0
 10
-85.158
 20
-45.3933
 11
-85.9187
 21
-46.3208
  0
LINE
  8
0
 10
-85.9187
 20
-46.3208
 11
-86.4139
 21
-46.9247
  0
LINE
  8
0
 10
-86.4139
 20
-46.9247
 11
-84.8841
 21
-50.739
  0
LINE
  8
0
 10
-84.8841
 20
-50.739
 11
-82.5345
 21
-56.5967
  0
LINE
  8
0
 10
-82.5345
 20
-56.5967
 11
-84.9063
 21
-59.6325
  0
LINE
  8
0
 10
-84.9063
 20
-59.6325
 11
-88.9687
 21
-67.0009
  0
LINE
  8
0
 10
-88.9687
 20
-67.0009
 11
-92.4264
 21
-73.2724
  0
LINE
  8
0
 10
-90.0023
 20
-75.0113
 11
-79.4727
 21
-56.477
  0
LINE
  8
0
 10
-79.4727
 20
-56.477
 11
-79.4725
 21
-56.4767
  0
LINE
  8
0
 10
-79.4725
 20
-56.4767
 11
-79.4725
 21
-56.4767
  0
LINE
  8
0
 10
-79.4725
 20
-56.4767
 11
-79.4597
 21
-56.4604
  0
LINE
  8
0
 10
-79.4597
 20
-56.4604
 11
-79.4597
 21
-56.4604
  0
LINE
  8
0
 10
-79.4597
 20
-56.4604
 11
-79.4659
 21
-56.4463
  0
LINE
  8
0
 10
-79.4659
 20
-56.4463
 11
-83.5052
 21
-47.2104
  0
LINE
  8
0
 10
-83.5052
 20
-47.2104
 11
-80.922
 21
-45.0428
  0
LINE
  8
0
 10
-80.922
 20
-45.0428
 11
-80.2896
 21
-44.5121
  0
LINE
  8
0
 10
-80.2896
 20
-44.5121
 11
-79.1353
 21
-45.9595
  0
LINE
  8
0
 10
-79.1353
 20
-45.9595
 11
-77.4614
 21
-46.7656
  0
LINE
  8
0
 10
-77.4614
 20
-46.7656
 11
-77.43
 21
-46.7807
  0
LINE
  8
0
 10
-77.43
 20
-46.7807
 11
-75.5372
 21
-46.7807
  0
LINE
  8
0
 10
-75.5372
 20
-46.7807
 11
-75.5058
 21
-46.7656
  0
LINE
  8
0
 10
-75.5058
 20
-46.7656
 11
-73.8319
 21
-45.9595
  0
LINE
  8
0
 10
-73.8319
 20
-45.9595
 11
-72.6735
 21
-44.5069
  0
LINE
  8
0
 10
-72.6735
 20
-44.5069
 11
-72.6518
 21
-44.4796
  0
LINE
  8
0
 10
-72.6518
 20
-44.4796
 11
-72.644
 21
-44.4456
  0
LINE
  8
0
 10
-72.644
 20
-44.4456
 11
-72.2306
 21
-42.6343
  0
LINE
  8
0
 10
-72.2306
 20
-42.6343
 11
-72.644
 21
-40.823
  0
LINE
  8
0
 10
-72.644
 20
-40.823
 11
-72.6518
 21
-40.789
  0
LINE
  8
0
 10
-72.6518
 20
-40.789
 11
-72.6735
 21
-40.7617
  0
LINE
  8
0
 10
-72.6735
 20
-40.7617
 11
-73.8319
 21
-39.3092
  0
LINE
  8
0
 10
-73.8319
 20
-39.3092
 11
-74.1929
 21
-39.1353
  0
LINE
  8
0
 10
-74.1929
 20
-39.1353
 11
-74.1234
 21
-39.0505
  0
LINE
  8
0
 10
-74.1234
 20
-39.0505
 11
-73.6238
 21
-38.4413
  0
LINE
  8
0
 10
-73.6238
 20
-38.4413
 11
-74.6801
 21
-36.2932
  0
LINE
  8
0
 10
-74.6801
 20
-36.2932
 11
-77.5669
 21
-30.4227
  0
LINE
  8
0
 10
-77.5669
 20
-30.4227
 11
-78.032
 21
-26.9514
  0
LINE
  8
0
 10
-78.032
 20
-26.9514
 11
-70.915
 21
-26.9514
  0
LINE
  8
0
 10
-70.915
 20
-26.9514
 11
-70.915
 21
24.9514
  0
LINE
  8
0
 10
-70.915
 20
24.9514
 11
-77.7379
 21
24.9514
  0
LINE
  8
0
 10
-77.7379
 20
24.9514
 11
-78.0911
 21
25.3943
  0
LINE
  8
0
 10
-78.0911
 20
25.3943
 11
-78.2315
 21
25.4619
  0
LINE
  8
0
 10
-78.2315
 20
25.4619
 11
-77.5669
 21
30.4227
  0
LINE
  8
0
 10
-77.5669
 20
30.4227
 11
-72.5669
 21
35.4227
  0
LINE
  8
0
 10
-72.5669
 20
35.4227
 11
-71.3243
 21
36.0326
  0
LINE
  8
0
 10
-71.3243
 20
36.0326
 11
-67.2088
 21
38.0527
  0
LINE
  8
0
 10
-67.2088
 20
38.0527
 11
-55.7173
 21
38.0527
  0
LINE
  8
0
 10
-55.7173
 20
38.0527
 11
-52.2516
 21
38.0527
  0
LINE
  8
0
 10
-52.2516
 20
38.0527
 11
-49.7655
 21
38.0527
  0
LINE
  8
0
 10
-49.7655
 20
38.0527
 11
-48.7547
 21
38.0527
  0
LINE
  8
0
 10
-48.7547
 20
38.0527
 11
-37.859
 21
38.0527
  0
LINE
  8
0
 10
-37.859
 20
38.0527
 11
-33.0508
 21
38.0527
  0
LINE
  8
0
 10
-33.0508
 20
38.0527
 11
-31.7951
 21
41.8553
  0
LINE
  8
0
 10
-31.7951
 20
41.8553
 11
-30.574
 21
45.5527
  0
LINE
  8
0
 10
-30.574
 20
45.5527
 11
-22.593
 21
45.5527
  0
LINE
  8
0
 10
-22.593
 20
45.5527
 11
-14.9393
 21
45.5527
  0
LINE
  8
0
 10
-14.9393
 20
45.5527
 11
-10.3655
 21
38.9586
  0
LINE
  8
0
 10
-10.3655
 20
38.9586
 11
-10.125
 21
38.7095
  0
LINE
  8
0
 10
-10.125
 20
38.7095
 11
-9.49054
 21
38.0527
  0
LINE
  8
0
 10
-9.49054
 20
38.0527
 11
-6.07496
 21
38.0527
  0
LINE
  8
0
 10
-6.07496
 20
38.0527
 11
-5.91988
 21
37.3733
  0
LINE
  8
0
 10
-5.91988
 20
37.3733
 11
-5.91212
 21
37.3393
  0
LINE
  8
0
 10
-5.91212
 20
37.3393
 11
-5.8904
 21
37.3121
  0
LINE
  8
0
 10
-5.8904
 20
37.3121
 11
-4.732
 21
35.8595
  0
LINE
  8
0
 10
-4.732
 20
35.8595
 11
-3.05807
 21
35.0533
  0
LINE
  8
0
 10
-3.05807
 20
35.0533
 11
-3.02667
 21
35.0382
  0
LINE
  8
0
 10
-3.02667
 20
35.0382
 11
-1.1339
 21
35.0382
  0
LINE
  8
0
 10
-1.1339
 20
35.0382
 11
-1.1025
 21
35.0533
  0
LINE
  8
0
 10
-1.1025
 20
35.0533
 11
0.571427
 21
35.8595
  0
LINE
  8
0
 10
0.571427
 20
35.8595
 11
1.72982
 21
37.3121
  0
LINE
  8
0
 10
1.72982
 20
37.3121
 11
1.75155
 21
37.3393
  0
LINE
  8
0
 10
1.75155
 20
37.3393
 11
1.75931
 21
37.3733
  0
LINE
  8
0
 10
1.75931
 20
37.3733
 11
1.91439
 21
38.0527
  0
LINE
  8
0
 10
1.91439
 20
38.0527
 11
6.71136
 21
38.0527
  0
LINE
  8
0
 10
6.71136
 20
38.0527
 11
7.14566
 21
37.2407
  0
LINE
  8
0
 10
7.14566
 20
37.2407
 11
11.9381
 21
26.9586
  0
LINE
  8
0
 10
11.9381
 20
26.9586
 11
12.2806
 21
26.43
  0
LINE
  8
0
 10
12.2806
 20
26.43
 11
12.5251
 21
26.0527
  0
LINE
  8
0
 10
12.5251
 20
26.0527
 11
19.6619
 21
26.0527
  0
LINE
  8
0
 10
19.6619
 20
26.0527
 11
29.5912
 21
26.0527
  0
LINE
  8
0
 10
29.5912
 20
26.0527
 11
30.7395
 21
26.0527
  0
LINE
  8
0
 10
30.7395
 20
26.0527
 11
33.5189
 21
26.0527
  0
LINE
  8
0
 10
33.5189
 20
26.0527
 11
38.1023
 21
26.0527
  0
LINE
  8
0
 10
38.1023
 20
26.0527
 11
50.6098
 21
26.0527
  0
LINE
  8
0
 10
50.6098
 20
26.0527
 11
54.5466
 21
21.3679
  0
LINE
  8
0
 10
54.5466
 20
21.3679
 11
53.6221
 21
10.3926
  0
LINE
  8
0
 10
53.6221
 20
10.3926
 11
53.0496
 21
3.59612
  0
LINE
  8
0
 10
53.0496
 20
3.59612
 11
53.0453
 21
3.54395
  0
LINE
  8
0
 10
53.0453
 20
3.54395
 11
53.0409
 21
3.49279
  0
LINE
  8
0
 10
53.0409
 20
3.49279
 11
52.93
 21
0.901293
  0
LINE
  8
0
 10
52.93
 20
0.901293
 11
52.7502
 21
-3.3
  0
LINE
  8
0
 10
52.7502
 20
-3.3
 11
52.7502
 21
-8.40485
  0
LINE
  8
0
 10
52.7502
 20
-8.40485
 11
52.1895
 21
-8.67486
  0
LINE
  8
0
 10
52.1895
 20
-8.67486
 11
51.0311
 21
-10.1274
  0
LINE
  8
0
 10
51.0311
 20
-10.1274
 11
51.0094
 21
-10.1547
  0
LINE
  8
0
 10
51.0094
 20
-10.1547
 11
51.0016
 21
-10.1887
  0
LINE
  8
0
 10
51.0016
 20
-10.1887
 11
50.5882
 21
-12
  0
LINE
  8
0
 10
50.5882
 20
-12
 11
51.0016
 21
-13.8113
  0
LINE
  8
0
 10
51.0016
 20
-13.8113
 11
51.0094
 21
-13.8453
  0
LINE
  8
0
 10
51.0094
 20
-13.8453
 11
51.0311
 21
-13.8726
  0
LINE
  8
0
 10
51.0311
 20
-13.8726
 11
52.1895
 21
-15.3251
  0
LINE
  8
0
 10
52.1895
 20
-15.3251
 11
52.7502
 21
-15.5952
  0
LINE
  8
0
 10
52.7502
 20
-15.5952
 11
52.7502
 21
-20.7
  0
LINE
  8
0
 10
52.7502
 20
-20.7
 11
52.93
 21
-24.9013
  0
LINE
  8
0
 10
52.93
 20
-24.9013
 11
53.0409
 21
-27.4928
  0
LINE
  8
0
 10
53.0409
 20
-27.4928
 11
53.0453
 21
-27.544
  0
LINE
  8
0
 10
53.0453
 20
-27.544
 11
53.0496
 21
-27.5961
  0
LINE
  8
0
 10
53.0496
 20
-27.5961
 11
53.6221
 21
-34.3926
  0
LINE
  8
0
 10
53.6221
 20
-34.3926
 11
54.5466
 21
-45.3679
  0
LINE
  8
0
 10
54.5466
 20
-45.3679
 11
50.6098
 21
-50.0527
  0
LINE
  8
0
 10
50.6098
 20
-50.0527
 11
38.1023
 21
-50.0527
  0
LINE
  8
0
 10
38.1023
 20
-50.0527
 11
33.5189
 21
-50.0527
  0
LINE
  8
0
 10
33.5189
 20
-50.0527
 11
30.7395
 21
-50.0527
  0
LINE
  8
0
 10
30.7395
 20
-50.0527
 11
29.5912
 21
-50.0527
  0
LINE
  8
0
 10
29.5912
 20
-50.0527
 11
19.6619
 21
-50.0527
  0
LINE
  8
0
 10
19.6619
 20
-50.0527
 11
12.5251
 21
-50.0527
  0
LINE
  8
0
 10
12.5251
 20
-50.0527
 11
12.2806
 21
-50.43
  0
LINE
  8
0
 10
12.2806
 20
-50.43
 11
11.9381
 21
-50.9586
  0
LINE
  8
0
 10
11.9381
 20
-50.9586
 11
12.0007
 21
-52.3052
  0
LINE
  8
0
 10
12.0007
 20
-52.3052
 11
12.0279
 21
-52.8905
  0
LINE
  8
0
 10
12.0279
 20
-52.8905
 11
12.0311
 21
-52.9577
  0
LINE
  8
0
 10
12.0311
 20
-52.9577
 11
12.0324
 21
-52.987
  0
LINE
  8
0
 10
12.0324
 20
-52.987
 11
12.0324
 21
-52.987
  0
LINE
  8
0
 10
12.0324
 20
-52.987
 11
12.1011
 21
-52.987
  0
LINE
  8
0
 10
12.1011
 20
-52.987
 11
15.9764
 21
-52.9871
  0
LINE
  8
0
 10
15.9764
 20
-52.9871
 11
14.6769
 21
-55.9632
  0
LINE
  8
0
 10
14.6769
 20
-55.9632
 11
12.9525
 21
-59.9122
  0
LINE
  8
0
 10
12.9525
 20
-59.9122
 11
6.52276
 21
-59.9122
  0
LINE
  8
0
 10
6.52276
 20
-59.9122
 11
-6.15245
 21
-59.9122
  0
LINE
  8
0
 10
-6.15245
 20
-59.9122
 11
-13.6213
 21
-62.5022
  0
LINE
  8
0
 10
-13.6213
 20
-62.5022
 11
-13.7688
 21
-62.5534
  0
LINE
  8
0
 10
-13.7688
 20
-62.5534
 11
-13.6911
 21
-62.4559
  0
LINE
  8
0
 10
-13.6911
 20
-62.4559
 11
-13.6693
 21
-62.4286
  0
LINE
  8
0
 10
-13.6693
 20
-62.4286
 11
-13.6616
 21
-62.3946
  0
LINE
  8
0
 10
-13.6616
 20
-62.3946
 11
-13.2481
 21
-60.5833
  0
LINE
  8
0
 10
-13.2481
 20
-60.5833
 11
-13.6616
 21
-58.772
  0
LINE
  8
0
 10
-13.6616
 20
-58.772
 11
-13.6693
 21
-58.738
  0
LINE
  8
0
 10
-13.6693
 20
-58.738
 11
-13.6911
 21
-58.7107
  0
LINE
  8
0
 10
-13.6911
 20
-58.7107
 11
-14.8494
 21
-57.2582
  0
LINE
  8
0
 10
-14.8494
 20
-57.2582
 11
-16.5234
 21
-56.452
  0
LINE
  8
0
 10
-16.5234
 20
-56.452
 11
-16.5548
 21
-56.4369
  0
LINE
  8
0
 10
-16.5548
 20
-56.4369
 11
-18.4475
 21
-56.4369
  0
LINE
  8
0
 10
-18.4475
 20
-56.4369
 11
-18.4789
 21
-56.452
  0
LINE
  8
0
 10
-18.4789
 20
-56.452
 11
-20.1529
 21
-57.2582
  0
LINE
  8
0
 10
-20.1529
 20
-57.2582
 11
-21.3113
 21
-58.7107
  0
LINE
  8
0
 10
-21.3113
 20
-58.7107
 11
-21.333
 21
-58.738
  0
LINE
  8
0
 10
-21.333
 20
-58.738
 11
-21.3408
 21
-58.772
  0
LINE
  8
0
 10
-21.3408
 20
-58.772
 11
-21.7542
 21
-60.5833
  0
LINE
  8
0
 10
-21.7542
 20
-60.5833
 11
-21.3408
 21
-62.3946
  0
LINE
  8
0
 10
-21.3408
 20
-62.3946
 11
-21.333
 21
-62.4286
  0
LINE
  8
0
 10
-21.333
 20
-62.4286
 11
-21.3113
 21
-62.4559
  0
LINE
  8
0
 10
-21.3113
 20
-62.4559
 11
-20.1529
 21
-63.9084
  0
LINE
  8
0
 10
-20.1529
 20
-63.9084
 11
-18.6776
 21
-64.6189
  0
LINE
  8
0
 10
-18.6776
 20
-64.6189
 11
-26.7871
 21
-69.8889
  0
LINE
  8
0
 10
-26.7871
 20
-69.8889
 11
-31.2286
 21
-72.7753
  0
LINE
  8
0
 10
-31.2286
 20
-72.7753
 11
-31.8589
 21
-73.2564
  0
LINE
  8
0
 10
-31.8589
 20
-73.2564
 11
-31.859
 21
-73.2565
  0
LINE
  8
0
 10
-31.859
 20
-73.2565
 11
-32.8029
 21
-73.977
  0
LINE
  8
0
 10
-32.8029
 20
-73.977
 11
-32.8362
 21
-74.0139
  0
LINE
  8
0
 10
-32.8362
 20
-74.0139
 11
-32.8362
 21
-74.0139
  0
LINE
  8
0
 10
-32.8362
 20
-74.0139
 11
-32.8584
 21
-74.0386
  0
LINE
  8
0
 10
-32.8584
 20
-74.0386
 11
-32.8584
 21
-74.0386
  0
LINE
  8
0
 10
-32.8584
 20
-74.0386
 11
-32.8584
 21
-74.0386
  0
LINE
  8
0
 10
-32.8584
 20
-74.0386
 11
-38.5907
 21
-80.405
  0
LINE
  8
0
 10
-38.5907
 20
-80.405
 11
-42.4553
 21
-84.697
  0
LINE
  8
0
 10
-42.4553
 20
-84.697
 11
-42.4553
 21
-84.697
  0
LINE
  8
0
 10
-42.4553
 20
-84.697
 11
-41.7694
 21
-87.8805
  0
LINE
  8
0
 10
-41.7694
 20
-87.8805
 11
-41.4427
 21
-89.3966
  0
LINE
  8
0
 10
-41.4427
 20
-89.3966
 11
-43.6842
 21
-92.4819
  0
LINE
  8
0
 10
-43.6842
 20
-92.4819
 11
-49.144
 21
-96.0989
  0
LINE
  8
0
 10
-49.144
 20
-96.0989
 11
-55.761
 21
-100.483
  0
LINE
  8
0
 10
-55.761
 20
-100.483
 11
-55.761
 21
-100.483
  0
LINE
  8
0
 10
-55.761
 20
-100.483
 11
-58.1523
 21
-100.515
  0
LINE
  8
0
 10
-58.1523
 20
-100.515
 11
-70.0829
 21
-90.077
  0
LINE
  8
0
 10
-70.0829
 20
-90.077
 11
-70.7477
 21
-89.594
  0
LINE
  8
0
 10
-70.7477
 20
-89.594
 11
-71.6768
 21
-88.919
  0
LINE
  8
0
 10
-71.6768
 20
-88.919
 11
-71.6899
 21
-88.9095
  0
LINE
  8
0
 10
-71.6899
 20
-88.9095
 11
-72.0506
 21
-88.6918
  0
LINE
  8
0
 10
-72.0506
 20
-88.6918
 11
-76.5307
 21
-87.3893
  0
LINE
  8
0
 10
-76.5307
 20
-87.3893
 11
-79.5409
 21
-84.9237
  0
LINE
  8
0
 10
-79.5409
 20
-84.9237
 11
-89.8608
 21
-76.4713
  0
LINE
  8
0
 10
-89.8608
 20
-76.4713
 11
-90.0023
 21
-75.0113
  0
LINE
  8
0
 10
-82.4428
 20
22.0691
 11
-81.5928
 21
23.5414
  0
LINE
  8
0
 10
-81.5928
 20
23.5414
 11
-79.8928
 21
23.5414
  0
LINE
  8
0
 10
-79.8928
 20
23.5414
 11
-79.0428
 21
22.0691
  0
LINE
  8
0
 10
-79.0428
 20
22.0691
 11
-79.8928
 21
20.5969
  0
LINE
  8
0
 10
-79.8928
 20
20.5969
 11
-81.5928
 21
20.5969
  0
LINE
  8
0
 10
-81.5928
 20
20.5969
 11
-82.4428
 21
22.0691
  0
LINE
  8
0
 10
-80.1455
 20
-8.65
 11
-80.1455
 21
8.65
  0
LINE
  8
0
 10
-80.1455
 20
8.65
 11
-79.918
 21
12.1066
  0
LINE
  8
0
 10
-79.918
 20
12.1066
 11
-79.915
 21
12.152
  0
LINE
  8
0
 10
-79.915
 20
12.152
 11
-79.915
 21
-12.152
  0
LINE
  8
0
 10
-79.915
 20
-12.152
 11
-79.918
 21
-12.1066
  0
LINE
  8
0
 10
-79.918
 20
-12.1066
 11
-80.1455
 21
-8.65
  0
LINE
  8
0
 10
-78.1836
 20
-42.6343
 11
-77.3336
 21
-41.1621
  0
LINE
  8
0
 10
-77.3336
 20
-41.1621
 11
-75.6336
 21
-41.1621
  0
LINE
  8
0
 10
-75.6336
 20
-41.1621
 11
-74.7836
 21
-42.6343
  0
LINE
  8
0
 10
-74.7836
 20
-42.6343
 11
-75.6336
 21
-44.1065
  0
LINE
  8
0
 10
-75.6336
 20
-44.1065
 11
-77.3336
 21
-44.1065
  0
LINE
  8
0
 10
-77.3336
 20
-44.1065
 11
-78.1836
 21
-42.6343
  0
LINE
  8
0
 10
-19.2012
 20
-60.5833
 11
-18.3512
 21
-59.1111
  0
LINE
  8
0
 10
-18.3512
 20
-59.1111
 11
-16.6512
 21
-59.1111
  0
LINE
  8
0
 10
-16.6512
 20
-59.1111
 11
-15.8012
 21
-60.5833
  0
LINE
  8
0
 10
-15.8012
 20
-60.5833
 11
-16.6512
 21
-62.0555
  0
LINE
  8
0
 10
-16.6512
 20
-62.0555
 11
-18.3512
 21
-62.0555
  0
LINE
  8
0
 10
-18.3512
 20
-62.0555
 11
-19.2012
 21
-60.5833
  0
LINE
  8
0
 10
-3.78029
 20
39.1846
 11
-2.93029
 21
40.6569
  0
LINE
  8
0
 10
-2.93029
 20
40.6569
 11
-1.23029
 21
40.6569
  0
LINE
  8
0
 10
-1.23029
 20
40.6569
 11
-0.380286
 21
39.1846
  0
LINE
  8
0
 10
-0.380286
 20
39.1846
 11
-1.23029
 21
37.7124
  0
LINE
  8
0
 10
-1.23029
 20
37.7124
 11
-2.93029
 21
37.7124
  0
LINE
  8
0
 10
-2.93029
 20
37.7124
 11
-3.78029
 21
39.1846
  0
LINE
  8
0
 10
53.1412
 20
-12
 11
53.9912
 21
-10.5278
  0
LINE
  8
0
 10
53.9912
 20
-10.5278
 11
55.6912
 21
-10.5278
  0
LINE
  8
0
 10
55.6912
 20
-10.5278
 11
56.5412
 21
-12
  0
LINE
  8
0
 10
56.5412
 20
-12
 11
55.6912
 21
-13.4722
  0
LINE
  8
0
 10
55.6912
 20
-13.4722
 11
53.9912
 21
-13.4722
  0
LINE
  8
0
 10
53.9912
 20
-13.4722
 11
53.1412
 21
-12
  0
ENDSEC
  0
SECTION
  2
OBJECTS
  0
DICTIONARY
  0
ENDSEC
  0
EOF
