  0
SECTION
  2
BLOCKS
  0
ENDSEC
  0
SECTION
  2
ENTITIES
  0
LINE
  8
0
 10
-92.1705
 20
-68.2596
 11
-92.0831
 21
-68.6984
  0
LINE
  8
0
 10
-92.0831
 20
-68.6984
 11
-91.1349
 21
-77.895
  0
LINE
  8
0
 10
-91.1349
 20
-77.895
 11
-91.1163
 21
-77.9103
  0
LINE
  8
0
 10
-91.1163
 20
-77.9103
 11
-91.1078
 21
-77.9173
  0
LINE
  8
0
 10
-91.1078
 20
-77.9173
 11
-88.1071
 21
-80.3816
  0
LINE
  8
0
 10
-88.1071
 20
-80.3816
 11
-77.7288
 21
-88.9047
  0
LINE
  8
0
 10
-77.7288
 20
-88.9047
 11
-77.6646
 21
-88.9574
  0
LINE
  8
0
 10
-77.6646
 20
-88.9574
 11
-73.2809
 21
-91.098
  0
LINE
  8
0
 10
-73.2809
 20
-91.098
 11
-71.8199
 21
-91.2585
  0
LINE
  8
0
 10
-71.8199
 20
-91.2585
 11
-71.8199
 21
-91.2585
  0
LINE
  8
0
 10
-71.8199
 20
-91.2585
 11
-67.3187
 21
-95.2384
  0
LINE
  8
0
 10
-67.3187
 20
-95.2384
 11
-58.5524
 21
-102.989
  0
LINE
  8
0
 10
-58.5524
 20
-102.989
 11
-58.5524
 21
-102.989
  0
LINE
  8
0
 10
-58.5524
 20
-102.989
 11
-58.4752
 21
-103.058
  0
LINE
  8
0
 10
-58.4752
 20
-103.058
 11
-58.0713
 21
-103.056
  0
LINE
  8
0
 10
-58.0713
 20
-103.056
 11
-54.4247
 21
-103.038
  0
LINE
  8
0
 10
-54.4247
 20
-103.038
 11
-49.4342
 21
-103.072
  0
LINE
  8
0
 10
-49.4342
 20
-103.072
 11
-47.6564
 21
-102.196
  0
LINE
  8
0
 10
-47.6564
 20
-102.196
 11
-47.5767
 21
-102.157
  0
LINE
  8
0
 10
-47.5767
 20
-102.157
 11
-47.5767
 21
-102.157
  0
LINE
  8
0
 10
-47.5767
 20
-102.157
 11
-43.2517
 21
-96.2037
  0
LINE
  8
0
 10
-43.2517
 20
-96.2037
 11
-43.2515
 21
-96.2034
  0
LINE
  8
0
 10
-43.2515
 20
-96.2034
 11
-38.9992
 21
-90.3507
  0
LINE
  8
0
 10
-38.9992
 20
-90.3507
 11
-38.9992
 21
-90.3507
  0
LINE
  8
0
 10
-38.9992
 20
-90.3507
 11
-39.6315
 21
-87.8904
  0
LINE
  8
0
 10
-39.6315
 20
-87.8904
 11
-40.2668
 21
-85.4182
  0
LINE
  8
0
 10
-40.2668
 20
-85.4182
 11
-37.0644
 21
-81.8615
  0
LINE
  8
0
 10
-37.0644
 20
-81.8615
 11
-37.0641
 21
-81.8612
  0
LINE
  8
0
 10
-37.0641
 20
-81.8612
 11
-31.0667
 21
-75.2005
  0
LINE
  8
0
 10
-31.0667
 20
-75.2005
 11
-23.1158
 21
-69.896
  0
LINE
  8
0
 10
-23.1158
 20
-69.896
 11
-23.1156
 21
-69.8958
  0
LINE
  8
0
 10
-23.1156
 20
-69.8958
 11
-19.0209
 21
-67.164
  0
LINE
  8
0
 10
-19.0209
 20
-67.164
 11
-15.4044
 21
-66.3767
  0
LINE
  8
0
 10
-15.4044
 20
-66.3767
 11
-6.5022
 21
-64.4386
  0
LINE
  8
0
 10
-6.5022
 20
-64.4386
 11
0.255806
 21
-64.4386
  0
LINE
  8
0
 10
0.255806
 20
-64.4386
 11
0.294788
 21
-64.4386
  0
LINE
  8
0
 10
0.294788
 20
-64.4386
 11
13.5891
 21
-64.4386
  0
LINE
  8
0
 10
13.5891
 20
-64.4386
 11
17.884
 21
-56.6273
  0
LINE
  8
0
 10
17.884
 20
-56.6273
 11
19.613
 21
-53.4828
  0
LINE
  8
0
 10
19.613
 20
-53.4828
 11
21.8504
 21
-53.4828
  0
LINE
  8
0
 10
21.8504
 20
-53.4828
 11
21.913
 21
-53.4828
  0
LINE
  8
0
 10
21.913
 20
-53.4828
 11
29.623
 21
-53.4828
  0
LINE
  8
0
 10
29.623
 20
-53.4828
 11
32.195
 21
-53.4828
  0
LINE
  8
0
 10
32.195
 20
-53.4828
 11
32.2526
 21
-53.4828
  0
LINE
  8
0
 10
32.2526
 20
-53.4828
 11
34.2664
 21
-53.4828
  0
LINE
  8
0
 10
34.2664
 20
-53.4828
 11
44.9281
 21
-53.4828
  0
LINE
  8
0
 10
44.9281
 20
-53.4828
 11
51.5438
 21
-53.4828
  0
LINE
  8
0
 10
51.5438
 20
-53.4828
 11
56.4892
 21
-48.5766
  0
LINE
  8
0
 10
56.4892
 20
-48.5766
 11
58.3593
 21
-46.7213
  0
LINE
  8
0
 10
58.3593
 20
-46.7213
 11
58.5314
 21
-46.192
  0
LINE
  8
0
 10
58.5314
 20
-46.192
 11
58.6539
 21
-45.8154
  0
LINE
  8
0
 10
58.6539
 20
-45.8154
 11
58.6526
 21
-45.7589
  0
LINE
  8
0
 10
58.6526
 20
-45.7589
 11
58.4907
 21
-38.8261
  0
LINE
  8
0
 10
58.4907
 20
-38.8261
 11
58.2637
 21
-29.1049
  0
LINE
  8
0
 10
58.2637
 20
-29.1049
 11
58.2637
 21
-29.1049
  0
LINE
  8
0
 10
58.2637
 20
-29.1049
 11
58.1795
 21
-21.7701
  0
LINE
  8
0
 10
58.1795
 20
-21.7701
 11
58.1661
 21
-20.6
  0
LINE
  8
0
 10
58.1661
 20
-20.6
 11
58.1661
 21
-3.4
  0
LINE
  8
0
 10
58.1661
 20
-3.4
 11
58.1795
 21
-2.2299
  0
LINE
  8
0
 10
58.1795
 20
-2.2299
 11
58.2637
 21
5.10491
  0
LINE
  8
0
 10
58.2637
 20
5.10491
 11
58.2637
 21
5.10491
  0
LINE
  8
0
 10
58.2637
 20
5.10491
 11
58.4907
 21
14.8261
  0
LINE
  8
0
 10
58.4907
 20
14.8261
 11
58.6517
 21
21.7189
  0
LINE
  8
0
 10
58.6517
 20
21.7189
 11
58.7704
 21
25.0069
  0
LINE
  8
0
 10
58.7704
 20
25.0069
 11
58.9378
 21
29.6441
  0
LINE
  8
0
 10
58.9378
 20
29.6441
 11
58.9378
 21
29.6442
  0
LINE
  8
0
 10
58.9378
 20
29.6442
 11
59.3156
 21
37.1518
  0
LINE
  8
0
 10
59.3156
 20
37.1518
 11
59.6873
 21
44.5398
  0
LINE
  8
0
 10
59.6873
 20
44.5398
 11
59.6888
 21
44.5698
  0
LINE
  8
0
 10
59.6888
 20
44.5698
 11
59.6917
 21
44.6264
  0
LINE
  8
0
 10
59.6917
 20
44.6264
 11
59.5896
 21
45.3028
  0
LINE
  8
0
 10
59.5896
 20
45.3028
 11
59.4275
 21
46.3764
  0
LINE
  8
0
 10
59.4275
 20
46.3764
 11
57.1993
 21
48.4021
  0
LINE
  8
0
 10
57.1993
 20
48.4021
 11
52.7592
 21
52.4386
  0
LINE
  8
0
 10
52.7592
 20
52.4386
 11
41.2175
 21
52.4386
  0
LINE
  8
0
 10
41.2175
 20
52.4386
 11
35.4571
 21
52.4386
  0
LINE
  8
0
 10
35.4571
 20
52.4386
 11
33.1155
 21
52.4386
  0
LINE
  8
0
 10
33.1155
 20
52.4386
 11
33.0835
 21
52.4386
  0
LINE
  8
0
 10
33.0835
 20
52.4386
 11
32.0215
 21
52.4386
  0
LINE
  8
0
 10
32.0215
 20
52.4386
 11
20.3313
 21
52.4386
  0
LINE
  8
0
 10
20.3313
 20
52.4386
 11
15.0519
 21
52.4386
  0
LINE
  8
0
 10
15.0519
 20
52.4386
 11
13.8249
 21
55.537
  0
LINE
  8
0
 10
13.8249
 20
55.537
 11
10.9928
 21
62.6886
  0
LINE
  8
0
 10
10.9928
 20
62.6886
 11
10.4455
 21
63.9095
  0
LINE
  8
0
 10
10.4455
 20
63.9095
 11
10.2083
 21
64.4386
  0
LINE
  8
0
 10
10.2083
 20
64.4386
 11
-1.03019
 21
64.4386
  0
LINE
  8
0
 10
-1.03019
 20
64.4386
 11
-6.5022
 21
64.4386
  0
LINE
  8
0
 10
-6.5022
 20
64.4386
 11
-9.68132
 21
66.4439
  0
LINE
  8
0
 10
-9.68132
 20
66.4439
 11
-10.9729
 21
67.2586
  0
LINE
  8
0
 10
-10.9729
 20
67.2586
 11
-22.1062
 21
67.2586
  0
LINE
  8
0
 10
-22.1062
 20
67.2586
 11
-22.1417
 21
67.2586
  0
LINE
  8
0
 10
-22.1417
 20
67.2586
 11
-27.2982
 21
67.2586
  0
LINE
  8
0
 10
-27.2982
 20
67.2586
 11
-27.3235
 21
67.2586
  0
LINE
  8
0
 10
-27.3235
 20
67.2586
 11
-27.7984
 21
66.6005
  0
LINE
  8
0
 10
-27.7984
 20
66.6005
 11
-29.3584
 21
64.4386
  0
LINE
  8
0
 10
-29.3584
 20
64.4386
 11
-41.3539
 21
64.4386
  0
LINE
  8
0
 10
-41.3539
 20
64.4386
 11
-45.0194
 21
64.4386
  0
LINE
  8
0
 10
-45.0194
 20
64.4386
 11
-47.4772
 21
64.4386
  0
LINE
  8
0
 10
-47.4772
 20
64.4386
 11
-47.4959
 21
64.4386
  0
LINE
  8
0
 10
-47.4959
 20
64.4386
 11
-48.0923
 21
64.4386
  0
LINE
  8
0
 10
-48.0923
 20
64.4386
 11
-60.1726
 21
64.4386
  0
LINE
  8
0
 10
-60.1726
 20
64.4386
 11
-63.0913
 21
64.4386
  0
LINE
  8
0
 10
-63.0913
 20
64.4386
 11
-64.1807
 21
63.203
  0
LINE
  8
0
 10
-64.1807
 20
63.203
 11
-68.6126
 21
58.1764
  0
LINE
  8
0
 10
-68.6126
 20
58.1764
 11
-75.6126
 21
51.1764
  0
LINE
  8
0
 10
-75.6126
 20
51.1764
 11
-76.619
 21
47.6901
  0
LINE
  8
0
 10
-76.619
 20
47.6901
 11
-79.9626
 21
36.1075
  0
LINE
  8
0
 10
-79.9626
 20
36.1075
 11
-80.7728
 21
32.1958
  0
LINE
  8
0
 10
-80.7728
 20
32.1958
 11
-81.0166
 21
31.0184
  0
LINE
  8
0
 10
-81.0166
 20
31.0184
 11
-81.6162
 21
26.5429
  0
LINE
  8
0
 10
-81.6162
 20
26.5429
 11
-83.2683
 21
14.2113
  0
LINE
  8
0
 10
-83.2683
 20
14.2113
 11
-83.5321
 21
10.2043
  0
LINE
  8
0
 10
-83.5321
 20
10.2043
 11
-83.6278
 21
8.75
  0
LINE
  8
0
 10
-83.6278
 20
8.75
 11
-83.6278
 21
-8.75
  0
LINE
  8
0
 10
-83.6278
 20
-8.75
 11
-83.5321
 21
-10.2043
  0
LINE
  8
0
 10
-83.5321
 20
-10.2043
 11
-83.2683
 21
-14.2113
  0
LINE
  8
0
 10
-83.2683
 20
-14.2113
 11
-81.6162
 21
-26.5429
  0
LINE
  8
0
 10
-81.6162
 20
-26.5429
 11
-81.0166
 21
-31.0184
  0
LINE
  8
0
 10
-81.0166
 20
-31.0184
 11
-79.9797
 21
-33.5923
  0
LINE
  8
0
 10
-79.9797
 20
-33.5923
 11
-77.8157
 21
-38.9635
  0
LINE
  8
0
 10
-77.8157
 20
-38.9635
 11
-82.7704
 21
-43.121
  0
LINE
  8
0
 10
-82.7704
 20
-43.121
 11
-86.0693
 21
-45.889
  0
LINE
  8
0
 10
-86.0693
 20
-45.889
 11
-86.5961
 21
-46.5314
  0
LINE
  8
0
 10
-86.5961
 20
-46.5314
 11
-86.5961
 21
-46.5314
  0
LINE
  8
0
 10
-86.5961
 20
-46.5314
 11
-87.3252
 21
-47.4205
  0
LINE
  8
0
 10
-87.3252
 20
-47.4205
 11
-85.3853
 21
-52.2569
  0
LINE
  8
0
 10
-85.3853
 20
-52.2569
 11
-83.4458
 21
-57.0925
  0
LINE
  8
0
 10
-83.4458
 20
-57.0925
 11
-83.4458
 21
-57.0925
  0
LINE
  8
0
 10
-83.4458
 20
-57.0925
 11
-87.7952
 21
-62.6595
  0
LINE
  8
0
 10
-87.7952
 20
-62.6595
 11
-92.1212
 21
-68.1965
  0
LINE
  8
0
 10
-92.1212
 20
-68.1965
 11
-92.1705
 21
-68.2596
  0
LINE
  8
0
 10
-92.1705
 20
-68.2596
 11
-92.1705
 21
-68.2596
  0
LINE
  8
0
 10
-89.5557
 20
-69.9917
 11
-86.8912
 21
-65.3016
  0
LINE
  8
0
 10
-86.8912
 20
-65.3016
 11
-84.0989
 21
-61.7276
  0
LINE
  8
0
 10
-84.0989
 20
-61.7276
 11
-80.4214
 21
-57.0206
  0
LINE
  8
0
 10
-80.4214
 20
-57.0206
 11
-80.3923
 21
-56.9834
  0
LINE
  8
0
 10
-80.3923
 20
-56.9834
 11
-80.3709
 21
-56.9561
  0
LINE
  8
0
 10
-80.3709
 20
-56.9561
 11
-82.3837
 21
-52.3539
  0
LINE
  8
0
 10
-82.3837
 20
-52.3539
 11
-84.4165
 21
-47.7061
  0
LINE
  8
0
 10
-84.4165
 20
-47.7061
 11
-82.7783
 21
-46.3315
  0
LINE
  8
0
 10
-82.7783
 20
-46.3315
 11
-82.778
 21
-46.3313
  0
LINE
  8
0
 10
-82.778
 20
-46.3313
 11
-78.0072
 21
-42.3281
  0
LINE
  8
0
 10
-78.0072
 20
-42.3281
 11
-77.7598
 21
-43.4119
  0
LINE
  8
0
 10
-77.7598
 20
-43.4119
 11
-77.7521
 21
-43.4459
  0
LINE
  8
0
 10
-77.7521
 20
-43.4459
 11
-77.7303
 21
-43.4731
  0
LINE
  8
0
 10
-77.7303
 20
-43.4731
 11
-76.5719
 21
-44.9257
  0
LINE
  8
0
 10
-76.5719
 20
-44.9257
 11
-74.898
 21
-45.7318
  0
LINE
  8
0
 10
-74.898
 20
-45.7318
 11
-74.8666
 21
-45.747
  0
LINE
  8
0
 10
-74.8666
 20
-45.747
 11
-72.9738
 21
-45.747
  0
LINE
  8
0
 10
-72.9738
 20
-45.747
 11
-72.9424
 21
-45.7318
  0
LINE
  8
0
 10
-72.9424
 20
-45.7318
 11
-71.2685
 21
-44.9257
  0
LINE
  8
0
 10
-71.2685
 20
-44.9257
 11
-70.1101
 21
-43.4731
  0
LINE
  8
0
 10
-70.1101
 20
-43.4731
 11
-70.0884
 21
-43.4459
  0
LINE
  8
0
 10
-70.0884
 20
-43.4459
 11
-70.0806
 21
-43.4119
  0
LINE
  8
0
 10
-70.0806
 20
-43.4119
 11
-69.6672
 21
-41.6006
  0
LINE
  8
0
 10
-69.6672
 20
-41.6006
 11
-70.0806
 21
-39.7892
  0
LINE
  8
0
 10
-70.0806
 20
-39.7892
 11
-70.0884
 21
-39.7553
  0
LINE
  8
0
 10
-70.0884
 20
-39.7553
 11
-70.1101
 21
-39.728
  0
LINE
  8
0
 10
-70.1101
 20
-39.728
 11
-71.2685
 21
-38.2754
  0
LINE
  8
0
 10
-71.2685
 20
-38.2754
 11
-72.9424
 21
-37.4693
  0
LINE
  8
0
 10
-72.9424
 20
-37.4693
 11
-72.9738
 21
-37.4542
  0
LINE
  8
0
 10
-72.9738
 20
-37.4542
 11
-74.8666
 21
-37.4542
  0
LINE
  8
0
 10
-74.8666
 20
-37.4542
 11
-74.898
 21
-37.4693
  0
LINE
  8
0
 10
-74.898
 20
-37.4693
 11
-75.2455
 21
-37.6367
  0
LINE
  8
0
 10
-75.2455
 20
-37.6367
 11
-75.5112
 21
-37.1505
  0
LINE
  8
0
 10
-75.5112
 20
-37.1505
 11
-78.9166
 21
-30.9184
  0
LINE
  8
0
 10
-78.9166
 20
-30.9184
 11
-80.6666
 21
-17.8559
  0
LINE
  8
0
 10
-80.6666
 20
-17.8559
 11
-81.1683
 21
-14.1113
  0
LINE
  8
0
 10
-81.1683
 20
-14.1113
 11
-81.4402
 21
-9.9813
  0
LINE
  8
0
 10
-81.4402
 20
-9.9813
 11
-81.5278
 21
-8.65
  0
LINE
  8
0
 10
-81.5278
 20
-8.65
 11
-81.5278
 21
8.65
  0
LINE
  8
0
 10
-81.5278
 20
8.65
 11
-81.4402
 21
9.9813
  0
LINE
  8
0
 10
-81.4402
 20
9.9813
 11
-81.1683
 21
14.1113
  0
LINE
  8
0
 10
-81.1683
 20
14.1113
 11
-80.6666
 21
17.8559
  0
LINE
  8
0
 10
-80.6666
 20
17.8559
 11
-78.9166
 21
30.9184
  0
LINE
  8
0
 10
-78.9166
 20
30.9184
 11
-78.6909
 21
32.0084
  0
LINE
  8
0
 10
-78.6909
 20
32.0084
 11
-77.8626
 21
36.0075
  0
LINE
  8
0
 10
-77.8626
 20
36.0075
 11
-76.4686
 21
40.8365
  0
LINE
  8
0
 10
-76.4686
 20
40.8365
 11
-76.0143
 21
40.2668
  0
LINE
  8
0
 10
-76.0143
 20
40.2668
 11
-74.3404
 21
39.4607
  0
LINE
  8
0
 10
-74.3404
 20
39.4607
 11
-74.309
 21
39.4456
  0
LINE
  8
0
 10
-74.309
 20
39.4456
 11
-72.4162
 21
39.4456
  0
LINE
  8
0
 10
-72.4162
 20
39.4456
 11
-72.3848
 21
39.4607
  0
LINE
  8
0
 10
-72.3848
 20
39.4607
 11
-70.7109
 21
40.2668
  0
LINE
  8
0
 10
-70.7109
 20
40.2668
 11
-69.5525
 21
41.7194
  0
LINE
  8
0
 10
-69.5525
 20
41.7194
 11
-69.5308
 21
41.7467
  0
LINE
  8
0
 10
-69.5308
 20
41.7467
 11
-69.523
 21
41.7806
  0
LINE
  8
0
 10
-69.523
 20
41.7806
 11
-69.1096
 21
43.592
  0
LINE
  8
0
 10
-69.1096
 20
43.592
 11
-69.523
 21
45.4033
  0
LINE
  8
0
 10
-69.523
 20
45.4033
 11
-69.5308
 21
45.4373
  0
LINE
  8
0
 10
-69.5308
 20
45.4373
 11
-69.5525
 21
45.4645
  0
LINE
  8
0
 10
-69.5525
 20
45.4645
 11
-70.7109
 21
46.9171
  0
LINE
  8
0
 10
-70.7109
 20
46.9171
 11
-72.3848
 21
47.7232
  0
LINE
  8
0
 10
-72.3848
 20
47.7232
 11
-72.4162
 21
47.7384
  0
LINE
  8
0
 10
-72.4162
 20
47.7384
 11
-74.309
 21
47.7384
  0
LINE
  8
0
 10
-74.309
 20
47.7384
 11
-74.3404
 21
47.7232
  0
LINE
  8
0
 10
-74.3404
 20
47.7232
 11
-74.5032
 21
47.6448
  0
LINE
  8
0
 10
-74.5032
 20
47.6448
 11
-74.4442
 21
47.8491
  0
LINE
  8
0
 10
-74.4442
 20
47.8491
 11
-73.5126
 21
51.0764
  0
LINE
  8
0
 10
-73.5126
 20
51.0764
 11
-68.5126
 21
56.0764
  0
LINE
  8
0
 10
-68.5126
 20
56.0764
 11
-63.2142
 21
59.9847
  0
LINE
  8
0
 10
-63.2142
 20
59.9847
 11
-62.0141
 21
60.8699
  0
LINE
  8
0
 10
-62.0141
 20
60.8699
 11
-49.4645
 21
60.8699
  0
LINE
  8
0
 10
-49.4645
 20
60.8699
 11
-47.0481
 21
60.8699
  0
LINE
  8
0
 10
-47.0481
 20
60.8699
 11
-44.6733
 21
60.8699
  0
LINE
  8
0
 10
-44.6733
 20
60.8699
 11
-44.1253
 21
60.8699
  0
LINE
  8
0
 10
-44.1253
 20
60.8699
 11
-31.4706
 21
60.8699
  0
LINE
  8
0
 10
-31.4706
 20
60.8699
 11
-28.4305
 21
60.8699
  0
LINE
  8
0
 10
-28.4305
 20
60.8699
 11
-27.9494
 21
61.5922
  0
LINE
  8
0
 10
-27.9494
 20
61.5922
 11
-26.552
 21
63.6899
  0
LINE
  8
0
 10
-26.552
 20
63.6899
 11
-14.4795
 21
63.6899
  0
LINE
  8
0
 10
-14.4795
 20
63.6899
 11
-14.459
 21
63.6899
  0
LINE
  8
0
 10
-14.459
 20
63.6899
 11
-10.3893
 21
63.6899
  0
LINE
  8
0
 10
-10.3893
 20
63.6899
 11
-7.38147
 21
61.7188
  0
LINE
  8
0
 10
-7.38147
 20
61.7188
 11
-6.08605
 21
60.8699
  0
LINE
  8
0
 10
-6.08605
 20
60.8699
 11
-3.03945
 21
60.8699
  0
LINE
  8
0
 10
-3.03945
 20
60.8699
 11
-3.30443
 21
59.7089
  0
LINE
  8
0
 10
-3.30443
 20
59.7089
 11
-2.89101
 21
57.8976
  0
LINE
  8
0
 10
-2.89101
 20
57.8976
 11
-2.88325
 21
57.8636
  0
LINE
  8
0
 10
-2.88325
 20
57.8636
 11
-2.86152
 21
57.8364
  0
LINE
  8
0
 10
-2.86152
 20
57.8364
 11
-1.70313
 21
56.3838
  0
LINE
  8
0
 10
-1.70313
 20
56.3838
 11
-0.0291964
 21
55.5777
  0
LINE
  8
0
 10
-0.0291964
 20
55.5777
 11
0.00220007
 21
55.5625
  0
LINE
  8
0
 10
0.00220007
 20
55.5625
 11
1.89497
 21
55.5625
  0
LINE
  8
0
 10
1.89497
 20
55.5625
 11
1.92637
 21
55.5777
  0
LINE
  8
0
 10
1.92637
 20
55.5777
 11
3.6003
 21
56.3838
  0
LINE
  8
0
 10
3.6003
 20
56.3838
 11
4.7587
 21
57.8364
  0
LINE
  8
0
 10
4.7587
 20
57.8364
 11
4.78042
 21
57.8636
  0
LINE
  8
0
 10
4.78042
 20
57.8636
 11
4.78818
 21
57.8976
  0
LINE
  8
0
 10
4.78818
 20
57.8976
 11
5.2016
 21
59.7089
  0
LINE
  8
0
 10
5.2016
 20
59.7089
 11
4.93662
 21
60.8699
  0
LINE
  8
0
 10
4.93662
 20
60.8699
 11
6.12116
 21
60.8699
  0
LINE
  8
0
 10
6.12116
 20
60.8699
 11
10.5345
 21
60.8699
  0
LINE
  8
0
 10
10.5345
 20
60.8699
 11
11.3234
 21
58.8824
  0
LINE
  8
0
 10
11.3234
 20
58.8824
 11
15.2974
 21
48.8699
  0
LINE
  8
0
 10
15.2974
 20
48.8699
 11
27.7753
 21
48.8699
  0
LINE
  8
0
 10
27.7753
 20
48.8699
 11
32.404
 21
48.8699
  0
LINE
  8
0
 10
32.404
 20
48.8699
 11
34.7031
 21
48.8699
  0
LINE
  8
0
 10
34.7031
 20
48.8699
 11
35.6779
 21
48.8699
  0
LINE
  8
0
 10
35.6779
 20
48.8699
 11
47.7397
 21
48.8699
  0
LINE
  8
0
 10
47.7397
 20
48.8699
 11
52.8322
 21
48.8699
  0
LINE
  8
0
 10
52.8322
 20
48.8699
 11
54.475
 21
47.3764
  0
LINE
  8
0
 10
54.475
 20
47.3764
 11
57.2585
 21
44.846
  0
LINE
  8
0
 10
57.2585
 20
44.846
 11
56.8683
 21
37.0914
  0
LINE
  8
0
 10
56.8683
 20
37.0914
 11
56.5772
 21
31.3075
  0
LINE
  8
0
 10
56.5772
 20
31.3075
 11
56.3553
 21
25.1583
  0
LINE
  8
0
 10
56.3553
 20
25.1583
 11
56.2673
 21
22.7213
  0
LINE
  8
0
 10
56.2673
 20
22.7213
 11
56.2666
 21
22.6939
  0
LINE
  8
0
 10
56.2666
 20
22.6939
 11
56.1202
 21
16.4235
  0
LINE
  8
0
 10
56.1202
 20
16.4235
 11
55.0445
 21
17.7723
  0
LINE
  8
0
 10
55.0445
 20
17.7723
 11
53.3706
 21
18.5784
  0
LINE
  8
0
 10
53.3706
 20
18.5784
 11
53.3392
 21
18.5935
  0
LINE
  8
0
 10
53.3392
 20
18.5935
 11
51.4464
 21
18.5935
  0
LINE
  8
0
 10
51.4464
 20
18.5935
 11
51.415
 21
18.5784
  0
LINE
  8
0
 10
51.415
 20
18.5784
 11
49.7411
 21
17.7723
  0
LINE
  8
0
 10
49.7411
 20
17.7723
 11
48.5827
 21
16.3197
  0
LINE
  8
0
 10
48.5827
 20
16.3197
 11
48.561
 21
16.2925
  0
LINE
  8
0
 10
48.561
 20
16.2925
 11
48.5532
 21
16.2585
  0
LINE
  8
0
 10
48.5532
 20
16.2585
 11
48.1398
 21
14.4471
  0
LINE
  8
0
 10
48.1398
 20
14.4471
 11
48.5532
 21
12.6358
  0
LINE
  8
0
 10
48.5532
 20
12.6358
 11
48.561
 21
12.6018
  0
LINE
  8
0
 10
48.561
 20
12.6018
 11
48.5827
 21
12.5746
  0
LINE
  8
0
 10
48.5827
 20
12.5746
 11
49.7411
 21
11.122
  0
LINE
  8
0
 10
49.7411
 20
11.122
 11
51.415
 21
10.3159
  0
LINE
  8
0
 10
51.415
 20
10.3159
 11
51.4464
 21
10.3008
  0
LINE
  8
0
 10
51.4464
 20
10.3008
 11
53.3392
 21
10.3008
  0
LINE
  8
0
 10
53.3392
 20
10.3008
 11
53.3706
 21
10.3159
  0
LINE
  8
0
 10
53.3706
 20
10.3159
 11
55.0445
 21
11.122
  0
LINE
  8
0
 10
55.0445
 20
11.122
 11
56.0251
 21
12.3516
  0
LINE
  8
0
 10
56.0251
 20
12.3516
 11
55.9171
 21
7.7273
  0
LINE
  8
0
 10
55.9171
 20
7.7273
 11
55.7625
 21
5.89115
  0
LINE
  8
0
 10
55.7625
 20
5.89115
 11
55.7625
 21
5.89115
  0
LINE
  8
0
 10
55.7625
 20
5.89115
 11
55.754
 21
5.79118
  0
LINE
  8
0
 10
55.754
 20
5.79118
 11
55.7538
 21
5.78782
  0
LINE
  8
0
 10
55.7538
 20
5.78782
 11
55.7457
 21
5.59948
  0
LINE
  8
0
 10
55.7457
 20
5.59948
 11
55.3648
 21
-3.3
  0
LINE
  8
0
 10
55.3648
 20
-3.3
 11
55.3648
 21
-20.7
  0
LINE
  8
0
 10
55.3648
 20
-20.7
 11
55.7457
 21
-29.5995
  0
LINE
  8
0
 10
55.7457
 20
-29.5995
 11
55.7538
 21
-29.7878
  0
LINE
  8
0
 10
55.7538
 20
-29.7878
 11
55.754
 21
-29.7912
  0
LINE
  8
0
 10
55.754
 20
-29.7912
 11
55.7625
 21
-29.8911
  0
LINE
  8
0
 10
55.7625
 20
-29.8911
 11
55.7625
 21
-29.8911
  0
LINE
  8
0
 10
55.7625
 20
-29.8911
 11
55.9171
 21
-31.7273
  0
LINE
  8
0
 10
55.9171
 20
-31.7273
 11
56.251
 21
-46.025
  0
LINE
  8
0
 10
56.251
 20
-46.025
 11
53.9948
 21
-48.2634
  0
LINE
  8
0
 10
53.9948
 20
-48.2634
 11
51.6915
 21
-50.5485
  0
LINE
  8
0
 10
51.6915
 20
-50.5485
 11
43.3246
 21
-50.5485
  0
LINE
  8
0
 10
43.3246
 20
-50.5485
 11
34.5246
 21
-50.5485
  0
LINE
  8
0
 10
34.5246
 20
-50.5485
 11
32.4216
 21
-50.5485
  0
LINE
  8
0
 10
32.4216
 20
-50.5485
 11
30.1135
 21
-50.5485
  0
LINE
  8
0
 10
30.1135
 20
-50.5485
 11
23.028
 21
-50.5485
  0
LINE
  8
0
 10
23.028
 20
-50.5485
 11
13.0246
 21
-50.5485
  0
LINE
  8
0
 10
13.0246
 20
-50.5485
 11
12.6819
 21
-51.0773
  0
LINE
  8
0
 10
12.6819
 20
-51.0773
 11
12.4375
 21
-51.4543
  0
LINE
  8
0
 10
12.4375
 20
-51.4543
 11
12.4397
 21
-51.5009
  0
LINE
  8
0
 10
12.4397
 20
-51.5009
 11
12.4799
 21
-52.3641
  0
LINE
  8
0
 10
12.4799
 20
-52.3641
 11
12.5274
 21
-53.3862
  0
LINE
  8
0
 10
12.5274
 20
-53.3862
 11
12.5295
 21
-53.4316
  0
LINE
  8
0
 10
12.5295
 20
-53.4316
 11
12.5319
 21
-53.4828
  0
LINE
  8
0
 10
12.5319
 20
-53.4828
 11
12.5319
 21
-53.4828
  0
LINE
  8
0
 10
12.5319
 20
-53.4828
 11
12.5783
 21
-53.4828
  0
LINE
  8
0
 10
12.5783
 20
-53.4828
 11
16.4304
 21
-53.4828
  0
LINE
  8
0
 10
16.4304
 20
-53.4828
 11
15.9878
 21
-54.4469
  0
LINE
  8
0
 10
15.9878
 20
-54.4469
 11
13.0393
 21
-60.8699
  0
LINE
  8
0
 10
13.0393
 20
-60.8699
 11
7.87507
 21
-60.8699
  0
LINE
  8
0
 10
7.87507
 20
-60.8699
 11
-6.08605
 21
-60.8699
  0
LINE
  8
0
 10
-6.08605
 20
-60.8699
 11
-9.29984
 21
-61.7752
  0
LINE
  8
0
 10
-9.29984
 20
-61.7752
 11
-14.5757
 21
-63.2612
  0
LINE
  8
0
 10
-14.5757
 20
-63.2612
 11
-14.4573
 21
-62.7426
  0
LINE
  8
0
 10
-14.4573
 20
-62.7426
 11
-14.8708
 21
-60.9313
  0
LINE
  8
0
 10
-14.8708
 20
-60.9313
 11
-14.8785
 21
-60.8973
  0
LINE
  8
0
 10
-14.8785
 20
-60.8973
 11
-14.9002
 21
-60.87
  0
LINE
  8
0
 10
-14.9002
 20
-60.87
 11
-16.0586
 21
-59.4175
  0
LINE
  8
0
 10
-16.0586
 20
-59.4175
 11
-17.7326
 21
-58.6113
  0
LINE
  8
0
 10
-17.7326
 20
-58.6113
 11
-17.764
 21
-58.5962
  0
LINE
  8
0
 10
-17.764
 20
-58.5962
 11
-19.6567
 21
-58.5962
  0
LINE
  8
0
 10
-19.6567
 20
-58.5962
 11
-19.6881
 21
-58.6113
  0
LINE
  8
0
 10
-19.6881
 20
-58.6113
 11
-21.3621
 21
-59.4175
  0
LINE
  8
0
 10
-21.3621
 20
-59.4175
 11
-22.5205
 21
-60.87
  0
LINE
  8
0
 10
-22.5205
 20
-60.87
 11
-22.5422
 21
-60.8973
  0
LINE
  8
0
 10
-22.5422
 20
-60.8973
 11
-22.5499
 21
-60.9313
  0
LINE
  8
0
 10
-22.5499
 20
-60.9313
 11
-22.9634
 21
-62.7426
  0
LINE
  8
0
 10
-22.9634
 20
-62.7426
 11
-22.5499
 21
-64.5539
  0
LINE
  8
0
 10
-22.5499
 20
-64.5539
 11
-22.5422
 21
-64.5879
  0
LINE
  8
0
 10
-22.5422
 20
-64.5879
 11
-22.5205
 21
-64.6152
  0
LINE
  8
0
 10
-22.5205
 20
-64.6152
 11
-21.3621
 21
-66.0677
  0
LINE
  8
0
 10
-21.3621
 20
-66.0677
 11
-21.186
 21
-66.1525
  0
LINE
  8
0
 10
-21.186
 20
-66.1525
 11
-28.5482
 21
-70.937
  0
LINE
  8
0
 10
-28.5482
 20
-70.937
 11
-28.5485
 21
-70.9371
  0
LINE
  8
0
 10
-28.5485
 20
-70.9371
 11
-32.1398
 21
-73.271
  0
LINE
  8
0
 10
-32.1398
 20
-73.271
 11
-33.1795
 21
-74.0646
  0
LINE
  8
0
 10
-33.1795
 20
-74.0646
 11
-33.7141
 21
-74.4727
  0
LINE
  8
0
 10
-33.7141
 20
-74.4727
 11
-33.7313
 21
-74.4918
  0
LINE
  8
0
 10
-33.7313
 20
-74.4918
 11
-40.3524
 21
-81.8452
  0
LINE
  8
0
 10
-40.3524
 20
-81.8452
 11
-43.3355
 21
-85.1583
  0
LINE
  8
0
 10
-43.3355
 20
-85.1583
 11
-43.3355
 21
-85.1583
  0
LINE
  8
0
 10
-43.3355
 20
-85.1583
 11
-43.3665
 21
-85.1928
  0
LINE
  8
0
 10
-43.3665
 20
-85.1928
 11
-42.9081
 21
-87.3202
  0
LINE
  8
0
 10
-42.9081
 20
-87.3202
 11
-42.3539
 21
-89.8924
  0
LINE
  8
0
 10
-42.3539
 20
-89.8924
 11
-48.9591
 21
-98.9837
  0
LINE
  8
0
 10
-48.9591
 20
-98.9837
 11
-50.179
 21
-100.663
  0
LINE
  8
0
 10
-50.179
 20
-100.663
 11
-56.3181
 21
-100.745
  0
LINE
  8
0
 10
-56.3181
 20
-100.745
 11
-64.1036
 21
-93.9342
  0
LINE
  8
0
 10
-64.1036
 20
-93.9342
 11
-69.6878
 21
-89.0487
  0
LINE
  8
0
 10
-69.6878
 20
-89.0487
 11
-69.7289
 21
-89.0128
  0
LINE
  8
0
 10
-69.7289
 20
-89.0128
 11
-73.8214
 21
-87.0125
  0
LINE
  8
0
 10
-73.8214
 20
-87.0125
 11
-75.6868
 21
-86.4701
  0
LINE
  8
0
 10
-75.6868
 20
-86.4701
 11
-79.5227
 21
-83.3283
  0
LINE
  8
0
 10
-79.5227
 20
-83.3283
 11
-89.0169
 21
-75.5522
  0
LINE
  8
0
 10
-89.0169
 20
-75.5522
 11
-89.5557
 21
-69.9917
  0
LINE
  8
0
 10
-75.6202
 20
-41.6006
 11
-74.7702
 21
-40.1283
  0
LINE
  8
0
 10
-74.7702
 20
-40.1283
 11
-73.0702
 21
-40.1283
  0
LINE
  8
0
 10
-73.0702
 20
-40.1283
 11
-72.2202
 21
-41.6006
  0
LINE
  8
0
 10
-72.2202
 20
-41.6006
 11
-73.0702
 21
-43.0728
  0
LINE
  8
0
 10
-73.0702
 20
-43.0728
 11
-74.7702
 21
-43.0728
  0
LINE
  8
0
 10
-74.7702
 20
-43.0728
 11
-75.6202
 21
-41.6006
  0
LINE
  8
0
 10
-75.0626
 20
43.592
 11
-74.2126
 21
45.0642
  0
LINE
  8
0
 10
-74.2126
 20
45.0642
 11
-72.5126
 21
45.0642
  0
LINE
  8
0
 10
-72.5126
 20
45.0642
 11
-71.6626
 21
43.592
  0
LINE
  8
0
 10
-71.6626
 20
43.592
 11
-72.5126
 21
42.1197
  0
LINE
  8
0
 10
-72.5126
 20
42.1197
 11
-74.2126
 21
42.1197
  0
LINE
  8
0
 10
-74.2126
 20
42.1197
 11
-75.0626
 21
43.592
  0
LINE
  8
0
 10
-20.4103
 20
-62.7426
 11
-19.5603
 21
-61.2704
  0
LINE
  8
0
 10
-19.5603
 20
-61.2704
 11
-17.8603
 21
-61.2704
  0
LINE
  8
0
 10
-17.8603
 20
-61.2704
 11
-17.0103
 21
-62.7426
  0
LINE
  8
0
 10
-17.0103
 20
-62.7426
 11
-17.8603
 21
-64.2148
  0
LINE
  8
0
 10
-17.8603
 20
-64.2148
 11
-19.5603
 21
-64.2148
  0
LINE
  8
0
 10
-19.5603
 20
-64.2148
 11
-20.4103
 21
-62.7426
  0
LINE
  8
0
 10
-0.751415
 20
59.7089
 11
0.0985858
 21
61.1812
  0
LINE
  8
0
 10
0.0985858
 20
61.1812
 11
1.79858
 21
61.1812
  0
LINE
  8
0
 10
1.79858
 20
61.1812
 11
2.64859
 21
59.7089
  0
LINE
  8
0
 10
2.64859
 20
59.7089
 11
1.79858
 21
58.2367
  0
LINE
  8
0
 10
1.79858
 20
58.2367
 11
0.0985858
 21
58.2367
  0
LINE
  8
0
 10
0.0985858
 20
58.2367
 11
-0.751415
 21
59.7089
  0
LINE
  8
0
 10
50.6928
 20
14.4471
 11
51.5428
 21
15.9194
  0
LINE
  8
0
 10
51.5428
 20
15.9194
 11
53.2428
 21
15.9194
  0
LINE
  8
0
 10
53.2428
 20
15.9194
 11
54.0928
 21
14.4471
  0
LINE
  8
0
 10
54.0928
 20
14.4471
 11
53.2428
 21
12.9749
  0
LINE
  8
0
 10
53.2428
 20
12.9749
 11
51.5428
 21
12.9749
  0
LINE
  8
0
 10
51.5428
 20
12.9749
 11
50.6928
 21
14.4471
  0
ENDSEC
  0
SECTION
  2
OBJECTS
  0
DICTIONARY
  0
ENDSEC
  0
EOF
