  0
SECTION
  2
BLOCKS
  0
ENDSEC
  0
SECTION
  2
ENTITIES
  0
LINE
  8
0
 10
-75.6501
 20
-72.5465
 11
-75.2367
 21
-74.3578
  0
LINE
  8
0
 10
-75.2367
 20
-74.3578
 11
-75.229
 21
-74.3918
  0
LINE
  8
0
 10
-75.229
 20
-74.3918
 11
-75.2072
 21
-74.419
  0
LINE
  8
0
 10
-75.2072
 20
-74.419
 11
-74.0488
 21
-75.8716
  0
LINE
  8
0
 10
-74.0488
 20
-75.8716
 11
-72.3749
 21
-76.6777
  0
LINE
  8
0
 10
-72.3749
 20
-76.6777
 11
-72.3435
 21
-76.6928
  0
LINE
  8
0
 10
-72.3435
 20
-76.6928
 11
-72.0261
 21
-76.6928
  0
LINE
  8
0
 10
-72.0261
 20
-76.6928
 11
-71.9056
 21
-77.298
  0
LINE
  8
0
 10
-71.9056
 20
-77.298
 11
-61.7457
 21
-85.9132
  0
LINE
  8
0
 10
-61.7457
 20
-85.9132
 11
-58.7324
 21
-88.4684
  0
LINE
  8
0
 10
-58.7324
 20
-88.4684
 11
-58.7154
 21
-88.4828
  0
LINE
  8
0
 10
-58.7154
 20
-88.4828
 11
-58.6563
 21
-88.533
  0
LINE
  8
0
 10
-58.6563
 20
-88.533
 11
-56.8324
 21
-89.1685
  0
LINE
  8
0
 10
-56.8324
 20
-89.1685
 11
-51.1734
 21
-91.1403
  0
LINE
  8
0
 10
-51.1734
 20
-91.1403
 11
-42.1716
 21
-100.103
  0
LINE
  8
0
 10
-42.1716
 20
-100.103
 11
-39.2461
 21
-103.016
  0
LINE
  8
0
 10
-39.2461
 20
-103.016
 11
-38.1314
 21
-103.024
  0
LINE
  8
0
 10
-38.1314
 20
-103.024
 11
-38.1065
 21
-103.133
  0
LINE
  8
0
 10
-38.1065
 20
-103.133
 11
-38.0988
 21
-103.167
  0
LINE
  8
0
 10
-38.0988
 20
-103.167
 11
-38.0771
 21
-103.194
  0
LINE
  8
0
 10
-38.0771
 20
-103.194
 11
-36.9187
 21
-104.647
  0
LINE
  8
0
 10
-36.9187
 20
-104.647
 11
-35.2447
 21
-105.453
  0
LINE
  8
0
 10
-35.2447
 20
-105.453
 11
-35.2133
 21
-105.468
  0
LINE
  8
0
 10
-35.2133
 20
-105.468
 11
-33.3206
 21
-105.468
  0
LINE
  8
0
 10
-33.3206
 20
-105.468
 11
-33.2892
 21
-105.453
  0
LINE
  8
0
 10
-33.2892
 20
-105.453
 11
-31.6152
 21
-104.647
  0
LINE
  8
0
 10
-31.6152
 20
-104.647
 11
-30.4568
 21
-103.194
  0
LINE
  8
0
 10
-30.4568
 20
-103.194
 11
-30.4351
 21
-103.167
  0
LINE
  8
0
 10
-30.4351
 20
-103.167
 11
-30.4274
 21
-103.133
  0
LINE
  8
0
 10
-30.4274
 20
-103.133
 11
-30.343
 21
-102.763
  0
LINE
  8
0
 10
-30.343
 20
-102.763
 11
-29.1118
 21
-102.157
  0
LINE
  8
0
 10
-29.1118
 20
-102.157
 11
-29.1118
 21
-102.157
  0
LINE
  8
0
 10
-29.1118
 20
-102.157
 11
-27.6059
 21
-100.084
  0
LINE
  8
0
 10
-27.6059
 20
-100.084
 11
-27.6058
 21
-100.084
  0
LINE
  8
0
 10
-27.6058
 20
-100.084
 11
-20.5343
 21
-90.3507
  0
LINE
  8
0
 10
-20.5343
 20
-90.3507
 11
-20.5343
 21
-90.3507
  0
LINE
  8
0
 10
-20.5343
 20
-90.3507
 11
-20.756
 21
-89.488
  0
LINE
  8
0
 10
-20.756
 20
-89.488
 11
-21.8019
 21
-85.4182
  0
LINE
  8
0
 10
-21.8019
 20
-85.4182
 11
-20.4114
 21
-83.8739
  0
LINE
  8
0
 10
-20.4114
 20
-83.8739
 11
-12.6018
 21
-75.2004
  0
LINE
  8
0
 10
-12.6018
 20
-75.2004
 11
-2.46523
 21
-68.4378
  0
LINE
  8
0
 10
-2.46523
 20
-68.4378
 11
-2.46507
 21
-68.4377
  0
LINE
  8
0
 10
-2.46507
 20
-68.4377
 11
-0.85881
 21
-67.3661
  0
LINE
  8
0
 10
-0.85881
 20
-67.3661
 11
0.24039
 21
-68.7444
  0
LINE
  8
0
 10
0.24039
 20
-68.7444
 11
1.91432
 21
-69.5505
  0
LINE
  8
0
 10
1.91432
 20
-69.5505
 11
1.94572
 21
-69.5657
  0
LINE
  8
0
 10
1.94572
 20
-69.5657
 11
3.83849
 21
-69.5657
  0
LINE
  8
0
 10
3.83849
 20
-69.5657
 11
3.86989
 21
-69.5505
  0
LINE
  8
0
 10
3.86989
 20
-69.5505
 11
5.54382
 21
-68.7444
  0
LINE
  8
0
 10
5.54382
 20
-68.7444
 11
6.70221
 21
-67.2918
  0
LINE
  8
0
 10
6.70221
 20
-67.2918
 11
6.72394
 21
-67.2646
  0
LINE
  8
0
 10
6.72394
 20
-67.2646
 11
6.73169
 21
-67.2306
  0
LINE
  8
0
 10
6.73169
 20
-67.2306
 11
7.065
 21
-65.7703
  0
LINE
  8
0
 10
7.065
 20
-65.7703
 11
14.3473
 21
-64.4386
  0
LINE
  8
0
 10
14.3473
 20
-64.4386
 11
17.4619
 21
-64.4386
  0
LINE
  8
0
 10
17.4619
 20
-64.4386
 11
17.4814
 21
-64.4386
  0
LINE
  8
0
 10
17.4814
 20
-64.4386
 11
30.281
 21
-64.4386
  0
LINE
  8
0
 10
30.281
 20
-64.4386
 11
31.8386
 21
-63.0395
  0
LINE
  8
0
 10
31.8386
 20
-63.0395
 11
32.2293
 21
-62.6886
  0
LINE
  8
0
 10
32.2293
 20
-62.6886
 11
32.8714
 21
-60.198
  0
LINE
  8
0
 10
32.8714
 20
-60.198
 11
34.6027
 21
-53.4828
  0
LINE
  8
0
 10
34.6027
 20
-53.4828
 11
35.4768
 21
-53.4828
  0
LINE
  8
0
 10
35.4768
 20
-53.4828
 11
41.2781
 21
-53.4828
  0
LINE
  8
0
 10
41.2781
 20
-53.4828
 11
45.6646
 21
-53.4828
  0
LINE
  8
0
 10
45.6646
 20
-53.4828
 11
45.7079
 21
-53.4828
  0
LINE
  8
0
 10
45.7079
 20
-53.4828
 11
52.346
 21
-53.4828
  0
LINE
  8
0
 10
52.346
 20
-53.4828
 11
56.779
 21
-53.4828
  0
LINE
  8
0
 10
56.779
 20
-53.4828
 11
56.8336
 21
-53.4828
  0
LINE
  8
0
 10
56.8336
 20
-53.4828
 11
58.7185
 21
-53.4828
  0
LINE
  8
0
 10
58.7185
 20
-53.4828
 11
59.1625
 21
-54.0396
  0
LINE
  8
0
 10
59.1625
 20
-54.0396
 11
60.8364
 21
-54.8457
  0
LINE
  8
0
 10
60.8364
 20
-54.8457
 11
60.8678
 21
-54.8608
  0
LINE
  8
0
 10
60.8678
 20
-54.8608
 11
62.7606
 21
-54.8608
  0
LINE
  8
0
 10
62.7606
 20
-54.8608
 11
62.792
 21
-54.8457
  0
LINE
  8
0
 10
62.792
 20
-54.8457
 11
64.4659
 21
-54.0396
  0
LINE
  8
0
 10
64.4659
 20
-54.0396
 11
65.6243
 21
-52.587
  0
LINE
  8
0
 10
65.6243
 20
-52.587
 11
65.6461
 21
-52.5597
  0
LINE
  8
0
 10
65.6461
 20
-52.5597
 11
65.6538
 21
-52.5257
  0
LINE
  8
0
 10
65.6538
 20
-52.5257
 11
66.0672
 21
-50.7144
  0
LINE
  8
0
 10
66.0672
 20
-50.7144
 11
65.6898
 21
-49.0608
  0
LINE
  8
0
 10
65.6898
 20
-49.0608
 11
65.9058
 21
-48.7776
  0
LINE
  8
0
 10
65.9058
 20
-48.7776
 11
68.1648
 21
-45.8154
  0
LINE
  8
0
 10
68.1648
 20
-45.8154
 11
68.1591
 21
-45.7731
  0
LINE
  8
0
 10
68.1591
 20
-45.7731
 11
68.1518
 21
-45.7188
  0
LINE
  8
0
 10
68.1518
 20
-45.7188
 11
68.1518
 21
-45.7188
  0
LINE
  8
0
 10
68.1518
 20
-45.7188
 11
68.1518
 21
-45.7188
  0
LINE
  8
0
 10
68.1518
 20
-45.7188
 11
66.5453
 21
-33.7272
  0
LINE
  8
0
 10
66.5453
 20
-33.7272
 11
65.926
 21
-29.1049
  0
LINE
  8
0
 10
65.926
 20
-29.1049
 11
65.7673
 21
-26.6935
  0
LINE
  8
0
 10
65.7673
 20
-26.6935
 11
65.3661
 21
-20.6
  0
LINE
  8
0
 10
65.3661
 20
-20.6
 11
65.3661
 21
-3.4
  0
LINE
  8
0
 10
65.3661
 20
-3.4
 11
65.4952
 21
-1.43869
  0
LINE
  8
0
 10
65.4952
 20
-1.43869
 11
65.926
 21
5.1049
  0
LINE
  8
0
 10
65.926
 20
5.1049
 11
66.5453
 21
9.72723
  0
LINE
  8
0
 10
66.5453
 20
9.72723
 11
68.1518
 21
21.7188
  0
LINE
  8
0
 10
68.1518
 20
21.7188
 11
68.1518
 21
21.7188
  0
LINE
  8
0
 10
68.1518
 20
21.7188
 11
68.1518
 21
21.7188
  0
LINE
  8
0
 10
68.1518
 20
21.7188
 11
68.8698
 21
25.1853
  0
LINE
  8
0
 10
68.8698
 20
25.1853
 11
69.7932
 21
29.6441
  0
LINE
  8
0
 10
69.7932
 20
29.6441
 11
71.3148
 21
34.915
  0
LINE
  8
0
 10
71.3148
 20
34.915
 11
71.3149
 21
34.9154
  0
LINE
  8
0
 10
71.3149
 20
34.9154
 11
74.0932
 21
44.5398
  0
LINE
  8
0
 10
74.0932
 20
44.5398
 11
75.7706
 21
48.9118
  0
LINE
  8
0
 10
75.7706
 20
48.9118
 11
76.7043
 21
51.3454
  0
LINE
  8
0
 10
76.7043
 20
51.3454
 11
78.1018
 21
54.1404
  0
LINE
  8
0
 10
78.1018
 20
54.1404
 11
78.1289
 21
54.1947
  0
LINE
  8
0
 10
78.1289
 20
54.1947
 11
78.129
 21
54.1949
  0
LINE
  8
0
 10
78.129
 20
54.1949
 11
82.8208
 21
63.5784
  0
LINE
  8
0
 10
82.8208
 20
63.5784
 11
82.5175
 21
64.1848
  0
LINE
  8
0
 10
82.5175
 20
64.1848
 11
81.5833
 21
66.0532
  0
LINE
  8
0
 10
81.5833
 20
66.0532
 11
81.1391
 21
66.6662
  0
LINE
  8
0
 10
81.1391
 20
66.6662
 11
81.6945
 21
67.3627
  0
LINE
  8
0
 10
81.6945
 20
67.3627
 11
81.7163
 21
67.3899
  0
LINE
  8
0
 10
81.7163
 20
67.3899
 11
81.724
 21
67.4239
  0
LINE
  8
0
 10
81.724
 20
67.4239
 11
82.1374
 21
69.2352
  0
LINE
  8
0
 10
82.1374
 20
69.2352
 11
81.724
 21
71.0466
  0
LINE
  8
0
 10
81.724
 20
71.0466
 11
81.7163
 21
71.0805
  0
LINE
  8
0
 10
81.7163
 20
71.0805
 11
81.6945
 21
71.1078
  0
LINE
  8
0
 10
81.6945
 20
71.1078
 11
80.5361
 21
72.5604
  0
LINE
  8
0
 10
80.5361
 20
72.5604
 11
78.8622
 21
73.3665
  0
LINE
  8
0
 10
78.8622
 20
73.3665
 11
78.8308
 21
73.3816
  0
LINE
  8
0
 10
78.8308
 20
73.3816
 11
76.938
 21
73.3816
  0
LINE
  8
0
 10
76.938
 20
73.3816
 11
76.9066
 21
73.3665
  0
LINE
  8
0
 10
76.9066
 20
73.3665
 11
75.2327
 21
72.5604
  0
LINE
  8
0
 10
75.2327
 20
72.5604
 11
74.0743
 21
71.1078
  0
LINE
  8
0
 10
74.0743
 20
71.1078
 11
74.0526
 21
71.0805
  0
LINE
  8
0
 10
74.0526
 20
71.0805
 11
74.0448
 21
71.0466
  0
LINE
  8
0
 10
74.0448
 20
71.0466
 11
74.0349
 21
71.003
  0
LINE
  8
0
 10
74.0349
 20
71.003
 11
66.033
 21
71.003
  0
LINE
  8
0
 10
66.033
 20
71.003
 11
62.9423
 21
71.003
  0
LINE
  8
0
 10
62.9423
 20
71.003
 11
60.8452
 21
71.003
  0
LINE
  8
0
 10
60.8452
 20
71.003
 11
60.8297
 21
71.003
  0
LINE
  8
0
 10
60.8297
 20
71.003
 11
60.3969
 21
71.003
  0
LINE
  8
0
 10
60.3969
 20
71.003
 11
48.6266
 21
71.003
  0
LINE
  8
0
 10
48.6266
 20
71.003
 11
48.6104
 21
71.003
  0
LINE
  8
0
 10
48.6104
 20
71.003
 11
46.4676
 21
71.003
  0
LINE
  8
0
 10
46.4676
 20
71.003
 11
41.6678
 21
80.5281
  0
LINE
  8
0
 10
41.6678
 20
80.5281
 11
40.3086
 21
82.6427
  0
LINE
  8
0
 10
40.3086
 20
82.6427
 11
40.077
 21
83.003
  0
LINE
  8
0
 10
40.077
 20
83.003
 11
31.1488
 21
83.003
  0
LINE
  8
0
 10
31.1488
 20
83.003
 11
30.9632
 21
83.8159
  0
LINE
  8
0
 10
30.9632
 20
83.8159
 11
30.9555
 21
83.8499
  0
LINE
  8
0
 10
30.9555
 20
83.8499
 11
30.9338
 21
83.8772
  0
LINE
  8
0
 10
30.9338
 20
83.8772
 11
29.7754
 21
85.3297
  0
LINE
  8
0
 10
29.7754
 20
85.3297
 11
28.1014
 21
86.1359
  0
LINE
  8
0
 10
28.1014
 20
86.1359
 11
28.07
 21
86.151
  0
LINE
  8
0
 10
28.07
 20
86.151
 11
26.1773
 21
86.151
  0
LINE
  8
0
 10
26.1773
 20
86.151
 11
26.1459
 21
86.1359
  0
LINE
  8
0
 10
26.1459
 20
86.1359
 11
24.4719
 21
85.3297
  0
LINE
  8
0
 10
24.4719
 20
85.3297
 11
23.8871
 21
84.5964
  0
LINE
  8
0
 10
23.8871
 20
84.5964
 11
21.6262
 21
85.823
  0
LINE
  8
0
 10
21.6262
 20
85.823
 11
10.9297
 21
85.823
  0
LINE
  8
0
 10
10.9297
 20
85.823
 11
9.32257
 21
85.823
  0
LINE
  8
0
 10
9.32257
 20
85.823
 11
9.2782
 21
85.7602
  0
LINE
  8
0
 10
9.2782
 20
85.7602
 11
9.2782
 21
85.7602
  0
LINE
  8
0
 10
9.2782
 20
85.7602
 11
9.15855
 21
85.591
  0
LINE
  8
0
 10
9.15855
 20
85.591
 11
9.15854
 21
85.591
  0
LINE
  8
0
 10
9.15854
 20
85.591
 11
8.27257
 21
84.338
  0
LINE
  8
0
 10
8.27257
 20
84.338
 11
8.27257
 21
84.338
  0
LINE
  8
0
 10
8.27257
 20
84.338
 11
8.83769
 21
83.003
  0
LINE
  8
0
 10
8.83769
 20
83.003
 11
0.675804
 21
83.003
  0
LINE
  8
0
 10
0.675804
 20
83.003
 11
0.667994
 21
83.003
  0
LINE
  8
0
 10
0.667994
 20
83.003
 11
-0.510439
 21
83.003
  0
LINE
  8
0
 10
-0.510439
 20
83.003
 11
-2.23001
 21
83.003
  0
LINE
  8
0
 10
-2.23001
 20
83.003
 11
-2.40817
 21
83.003
  0
LINE
  8
0
 10
-2.40817
 20
83.003
 11
-11.4218
 21
83.003
  0
LINE
  8
0
 10
-11.4218
 20
83.003
 11
-12.3363
 21
83.003
  0
LINE
  8
0
 10
-12.3363
 20
83.003
 11
-13.5027
 21
81.6119
  0
LINE
  8
0
 10
-13.5027
 20
81.6119
 11
-18.1904
 21
76.0214
  0
LINE
  8
0
 10
-18.1904
 20
76.0214
 11
-19.5352
 21
76.6691
  0
LINE
  8
0
 10
-19.5352
 20
76.6691
 11
-19.5666
 21
76.6842
  0
LINE
  8
0
 10
-19.5666
 20
76.6842
 11
-21.4594
 21
76.6842
  0
LINE
  8
0
 10
-21.4594
 20
76.6842
 11
-21.4908
 21
76.6691
  0
LINE
  8
0
 10
-21.4908
 20
76.6691
 11
-23.1647
 21
75.8629
  0
LINE
  8
0
 10
-23.1647
 20
75.8629
 11
-24.3231
 21
74.4104
  0
LINE
  8
0
 10
-24.3231
 20
74.4104
 11
-24.3449
 21
74.3831
  0
LINE
  8
0
 10
-24.3449
 20
74.3831
 11
-24.3526
 21
74.3491
  0
LINE
  8
0
 10
-24.3526
 20
74.3491
 11
-24.766
 21
72.5378
  0
LINE
  8
0
 10
-24.766
 20
72.5378
 11
-24.3526
 21
70.7265
  0
LINE
  8
0
 10
-24.3526
 20
70.7265
 11
-24.3449
 21
70.6925
  0
LINE
  8
0
 10
-24.3449
 20
70.6925
 11
-24.3231
 21
70.6652
  0
LINE
  8
0
 10
-24.3231
 20
70.6652
 11
-23.523
 21
69.6619
  0
LINE
  8
0
 10
-23.523
 20
69.6619
 11
-25.0421
 21
67.8502
  0
LINE
  8
0
 10
-25.0421
 20
67.8502
 11
-34.1954
 21
56.676
  0
LINE
  8
0
 10
-34.1954
 20
56.676
 11
-35.1207
 21
55.5465
  0
LINE
  8
0
 10
-35.1207
 20
55.5465
 11
-35.3952
 21
55.1097
  0
LINE
  8
0
 10
-35.3952
 20
55.1097
 11
-37.8675
 21
51.1764
  0
LINE
  8
0
 10
-37.8675
 20
51.1764
 11
-38.6169
 21
49.5918
  0
LINE
  8
0
 10
-38.6169
 20
49.5918
 11
-44.9942
 21
36.1075
  0
LINE
  8
0
 10
-44.9942
 20
36.1075
 11
-46.5393
 21
31.5536
  0
LINE
  8
0
 10
-46.5393
 20
31.5536
 11
-46.7209
 21
31.0184
  0
LINE
  8
0
 10
-46.7209
 20
31.0184
 11
-47.1248
 21
29.1784
  0
LINE
  8
0
 10
-47.1248
 20
29.1784
 11
-50.4099
 21
14.2113
  0
LINE
  8
0
 10
-50.4099
 20
14.2113
 11
-50.9344
 21
9.34788
  0
LINE
  8
0
 10
-50.9344
 20
9.34788
 11
-50.9989
 21
8.75
  0
LINE
  8
0
 10
-50.9989
 20
8.75
 11
-50.9989
 21
-8.75
  0
LINE
  8
0
 10
-50.9989
 20
-8.75
 11
-50.9344
 21
-9.34788
  0
LINE
  8
0
 10
-50.9344
 20
-9.34788
 11
-50.4099
 21
-14.2113
  0
LINE
  8
0
 10
-50.4099
 20
-14.2113
 11
-47.7634
 21
-26.2686
  0
LINE
  8
0
 10
-47.7634
 20
-26.2686
 11
-49.0519
 21
-26.8891
  0
LINE
  8
0
 10
-49.0519
 20
-26.8891
 11
-50.2103
 21
-28.3417
  0
LINE
  8
0
 10
-50.2103
 20
-28.3417
 11
-50.232
 21
-28.3689
  0
LINE
  8
0
 10
-50.232
 20
-28.3689
 11
-50.2397
 21
-28.4029
  0
LINE
  8
0
 10
-50.2397
 20
-28.4029
 11
-50.6532
 21
-30.2143
  0
LINE
  8
0
 10
-50.6532
 20
-30.2143
 11
-50.2397
 21
-32.0256
  0
LINE
  8
0
 10
-50.2397
 20
-32.0256
 11
-50.232
 21
-32.0596
  0
LINE
  8
0
 10
-50.232
 20
-32.0596
 11
-50.2103
 21
-32.0868
  0
LINE
  8
0
 10
-50.2103
 20
-32.0868
 11
-49.6944
 21
-32.7337
  0
LINE
  8
0
 10
-49.6944
 20
-32.7337
 11
-57.8876
 21
-37.7357
  0
LINE
  8
0
 10
-57.8876
 20
-37.7357
 11
-57.9416
 21
-37.781
  0
LINE
  8
0
 10
-57.9416
 20
-37.781
 11
-57.9416
 21
-37.781
  0
LINE
  8
0
 10
-57.9416
 20
-37.781
 11
-57.9511
 21
-37.789
  0
LINE
  8
0
 10
-57.9511
 20
-37.789
 11
-57.9511
 21
-37.789
  0
LINE
  8
0
 10
-57.9511
 20
-37.789
 11
-66.145
 21
-44.6645
  0
LINE
  8
0
 10
-66.145
 20
-44.6645
 11
-67.6044
 21
-45.889
  0
LINE
  8
0
 10
-67.6044
 20
-45.889
 11
-67.8104
 21
-46.1402
  0
LINE
  8
0
 10
-67.8104
 20
-46.1402
 11
-67.8104
 21
-46.1402
  0
LINE
  8
0
 10
-67.8104
 20
-46.1402
 11
-68.8603
 21
-47.4205
  0
LINE
  8
0
 10
-68.8603
 20
-47.4205
 11
-68.1811
 21
-49.1137
  0
LINE
  8
0
 10
-68.1811
 20
-49.1137
 11
-64.9809
 21
-57.0925
  0
LINE
  8
0
 10
-64.9809
 20
-57.0925
 11
-72.171
 21
-66.2954
  0
LINE
  8
0
 10
-72.171
 20
-66.2954
 11
-73.6949
 21
-68.246
  0
LINE
  8
0
 10
-73.6949
 20
-68.246
 11
-73.7056
 21
-68.2596
  0
LINE
  8
0
 10
-73.7056
 20
-68.2596
 11
-73.7056
 21
-68.2596
  0
LINE
  8
0
 10
-73.7056
 20
-68.2596
 11
-73.5609
 21
-68.9863
  0
LINE
  8
0
 10
-73.5609
 20
-68.9863
 11
-74.0488
 21
-69.2213
  0
LINE
  8
0
 10
-74.0488
 20
-69.2213
 11
-75.2072
 21
-70.6739
  0
LINE
  8
0
 10
-75.2072
 20
-70.6739
 11
-75.229
 21
-70.7011
  0
LINE
  8
0
 10
-75.229
 20
-70.7011
 11
-75.2367
 21
-70.7351
  0
LINE
  8
0
 10
-75.2367
 20
-70.7351
 11
-75.6501
 21
-72.5465
  0
LINE
  8
0
 10
-73.0971
 20
-72.5465
 11
-72.2471
 21
-71.0742
  0
LINE
  8
0
 10
-72.2471
 20
-71.0742
 11
-70.5471
 21
-71.0742
  0
LINE
  8
0
 10
-70.5471
 20
-71.0742
 11
-69.6971
 21
-72.5465
  0
LINE
  8
0
 10
-69.6971
 20
-72.5465
 11
-70.5471
 21
-74.0187
  0
LINE
  8
0
 10
-70.5471
 20
-74.0187
 11
-72.2471
 21
-74.0187
  0
LINE
  8
0
 10
-72.2471
 20
-74.0187
 11
-73.0971
 21
-72.5465
  0
LINE
  8
0
 10
-70.6308
 20
-68.1232
 11
-63.9132
 21
-59.5252
  0
LINE
  8
0
 10
-63.9132
 20
-59.5252
 11
-61.9565
 21
-57.0206
  0
LINE
  8
0
 10
-61.9565
 20
-57.0206
 11
-61.9472
 21
-57.0088
  0
LINE
  8
0
 10
-61.9472
 20
-57.0088
 11
-61.906
 21
-56.9561
  0
LINE
  8
0
 10
-61.906
 20
-56.9561
 11
-62.6301
 21
-55.3006
  0
LINE
  8
0
 10
-62.6301
 20
-55.3006
 11
-65.9516
 21
-47.7061
  0
LINE
  8
0
 10
-65.9516
 20
-47.7061
 11
-57.3895
 21
-40.5216
  0
LINE
  8
0
 10
-57.3895
 20
-40.5216
 11
-48.4182
 21
-33.8446
  0
LINE
  8
0
 10
-48.4182
 20
-33.8446
 11
-47.3779
 21
-34.3455
  0
LINE
  8
0
 10
-47.3779
 20
-34.3455
 11
-47.3465
 21
-34.3606
  0
LINE
  8
0
 10
-47.3465
 20
-34.3606
 11
-45.4538
 21
-34.3606
  0
LINE
  8
0
 10
-45.4538
 20
-34.3606
 11
-45.4224
 21
-34.3455
  0
LINE
  8
0
 10
-45.4224
 20
-34.3455
 11
-43.7484
 21
-33.5394
  0
LINE
  8
0
 10
-43.7484
 20
-33.5394
 11
-42.59
 21
-32.0868
  0
LINE
  8
0
 10
-42.59
 20
-32.0868
 11
-42.5683
 21
-32.0596
  0
LINE
  8
0
 10
-42.5683
 20
-32.0596
 11
-42.5606
 21
-32.0256
  0
LINE
  8
0
 10
-42.5606
 20
-32.0256
 11
-42.1471
 21
-30.2143
  0
LINE
  8
0
 10
-42.1471
 20
-30.2143
 11
-42.5606
 21
-28.4029
  0
LINE
  8
0
 10
-42.5606
 20
-28.4029
 11
-42.5683
 21
-28.3689
  0
LINE
  8
0
 10
-42.5683
 20
-28.3689
 11
-42.59
 21
-28.3417
  0
LINE
  8
0
 10
-42.59
 20
-28.3417
 11
-43.7484
 21
-26.8891
  0
LINE
  8
0
 10
-43.7484
 20
-26.8891
 11
-45.4224
 21
-26.083
  0
LINE
  8
0
 10
-45.4224
 20
-26.083
 11
-45.4538
 21
-26.0679
  0
LINE
  8
0
 10
-45.4538
 20
-26.0679
 11
-45.6856
 21
-26.0679
  0
LINE
  8
0
 10
-45.6856
 20
-26.0679
 11
-47.9311
 21
-15.8373
  0
LINE
  8
0
 10
-47.9311
 20
-15.8373
 11
-48.3099
 21
-14.1113
  0
LINE
  8
0
 10
-48.3099
 20
-14.1113
 11
-48.8368
 21
-9.22597
  0
LINE
  8
0
 10
-48.8368
 20
-9.22597
 11
-48.8989
 21
-8.64999
  0
LINE
  8
0
 10
-48.8989
 20
-8.64999
 11
-48.8989
 21
8.64999
  0
LINE
  8
0
 10
-48.8989
 20
8.64999
 11
-48.8368
 21
9.22597
  0
LINE
  8
0
 10
-48.8368
 20
9.22597
 11
-48.3099
 21
14.1113
  0
LINE
  8
0
 10
-48.3099
 20
14.1113
 11
-47.9311
 21
15.8373
  0
LINE
  8
0
 10
-47.9311
 20
15.8373
 11
-44.6209
 21
30.9184
  0
LINE
  8
0
 10
-44.6209
 20
30.9184
 11
-44.4457
 21
31.4347
  0
LINE
  8
0
 10
-44.4457
 20
31.4347
 11
-42.8942
 21
36.0075
  0
LINE
  8
0
 10
-42.8942
 20
36.0075
 11
-36.4905
 21
49.5477
  0
LINE
  8
0
 10
-36.4905
 20
49.5477
 11
-35.7675
 21
51.0764
  0
LINE
  8
0
 10
-35.7675
 20
51.0764
 11
-35.507
 21
51.4909
  0
LINE
  8
0
 10
-35.507
 20
51.4909
 11
-33.0207
 21
55.4465
  0
LINE
  8
0
 10
-33.0207
 20
55.4465
 11
-23.8981
 21
66.583
  0
LINE
  8
0
 10
-23.8981
 20
66.583
 11
-22.9421
 21
67.7502
  0
LINE
  8
0
 10
-22.9421
 20
67.7502
 11
-22.0175
 21
68.6602
  0
LINE
  8
0
 10
-22.0175
 20
68.6602
 11
-21.4908
 21
68.4065
  0
LINE
  8
0
 10
-21.4908
 20
68.4065
 11
-21.4594
 21
68.3914
  0
LINE
  8
0
 10
-21.4594
 20
68.3914
 11
-19.5666
 21
68.3914
  0
LINE
  8
0
 10
-19.5666
 20
68.3914
 11
-19.5352
 21
68.4065
  0
LINE
  8
0
 10
-19.5352
 20
68.4065
 11
-17.8613
 21
69.2127
  0
LINE
  8
0
 10
-17.8613
 20
69.2127
 11
-16.7029
 21
70.6652
  0
LINE
  8
0
 10
-16.7029
 20
70.6652
 11
-16.6812
 21
70.6925
  0
LINE
  8
0
 10
-16.6812
 20
70.6925
 11
-16.6734
 21
70.7265
  0
LINE
  8
0
 10
-16.6734
 20
70.7265
 11
-16.26
 21
72.5378
  0
LINE
  8
0
 10
-16.26
 20
72.5378
 11
-16.5934
 21
73.9986
  0
LINE
  8
0
 10
-16.5934
 20
73.9986
 11
-12.4888
 21
78.0385
  0
LINE
  8
0
 10
-12.4888
 20
78.0385
 11
-11.468
 21
79.0432
  0
LINE
  8
0
 10
-11.468
 20
79.0432
 11
-2.35118
 21
79.0432
  0
LINE
  8
0
 10
-2.35118
 20
79.0432
 11
-1.55038
 21
79.0432
  0
LINE
  8
0
 10
-1.55038
 20
79.0432
 11
0.132301
 21
79.0432
  0
LINE
  8
0
 10
0.132301
 20
79.0432
 11
0.300182
 21
79.0432
  0
LINE
  8
0
 10
0.300182
 20
79.0432
 11
10.3874
 21
79.0432
  0
LINE
  8
0
 10
10.3874
 20
79.0432
 11
11.4196
 21
79.0432
  0
LINE
  8
0
 10
11.4196
 20
79.0432
 11
11.4264
 21
79.0432
  0
LINE
  8
0
 10
11.4264
 20
79.0432
 11
11.4264
 21
79.0432
  0
LINE
  8
0
 10
11.4264
 20
79.0432
 11
11.4748
 21
79.1064
  0
LINE
  8
0
 10
11.4748
 20
79.1064
 11
12.4435
 21
80.3709
  0
LINE
  8
0
 10
12.4435
 20
80.3709
 11
12.4435
 21
80.3709
  0
LINE
  8
0
 10
12.4435
 20
80.3709
 11
12.5639
 21
80.5281
  0
LINE
  8
0
 10
12.5639
 20
80.5281
 11
12.5639
 21
80.5281
  0
LINE
  8
0
 10
12.5639
 20
80.5281
 11
11.8913
 21
81.8632
  0
LINE
  8
0
 10
11.8913
 20
81.8632
 11
20.9506
 21
81.8632
  0
LINE
  8
0
 10
20.9506
 20
81.8632
 11
22.2555
 21
81.8632
  0
LINE
  8
0
 10
22.2555
 20
81.8632
 11
22.9958
 21
81.4561
  0
LINE
  8
0
 10
22.9958
 20
81.4561
 11
23.2841
 21
80.1933
  0
LINE
  8
0
 10
23.2841
 20
80.1933
 11
23.2918
 21
80.1593
  0
LINE
  8
0
 10
23.2918
 20
80.1593
 11
23.3135
 21
80.132
  0
LINE
  8
0
 10
23.3135
 20
80.132
 11
24.4719
 21
78.6795
  0
LINE
  8
0
 10
24.4719
 20
78.6795
 11
26.1459
 21
77.8733
  0
LINE
  8
0
 10
26.1459
 20
77.8733
 11
26.1773
 21
77.8582
  0
LINE
  8
0
 10
26.1773
 20
77.8582
 11
28.07
 21
77.8582
  0
LINE
  8
0
 10
28.07
 20
77.8582
 11
28.1014
 21
77.8733
  0
LINE
  8
0
 10
28.1014
 20
77.8733
 11
29.7754
 21
78.6795
  0
LINE
  8
0
 10
29.7754
 20
78.6795
 11
30.0654
 21
79.0432
  0
LINE
  8
0
 10
30.0654
 20
79.0432
 11
39.0185
 21
79.0432
  0
LINE
  8
0
 10
39.0185
 20
79.0432
 11
40.3485
 21
79.0432
  0
LINE
  8
0
 10
40.3485
 20
79.0432
 11
45.3616
 21
69.5181
  0
LINE
  8
0
 10
45.3616
 20
69.5181
 11
46.5716
 21
67.4085
  0
LINE
  8
0
 10
46.5716
 20
67.4085
 11
46.7811
 21
67.0432
  0
LINE
  8
0
 10
46.7811
 20
67.0432
 11
58.9909
 21
67.0432
  0
LINE
  8
0
 10
58.9909
 20
67.0432
 11
61.0207
 21
67.0432
  0
LINE
  8
0
 10
61.0207
 20
67.0432
 11
63.0822
 21
67.0432
  0
LINE
  8
0
 10
63.0822
 20
67.0432
 11
63.0954
 21
67.0432
  0
LINE
  8
0
 10
63.0954
 20
67.0432
 11
63.4978
 21
67.0432
  0
LINE
  8
0
 10
63.4978
 20
67.0432
 11
74.3291
 21
67.0432
  0
LINE
  8
0
 10
74.3291
 20
67.0432
 11
75.2327
 21
65.9101
  0
LINE
  8
0
 10
75.2327
 20
65.9101
 11
76.9066
 21
65.1039
  0
LINE
  8
0
 10
76.9066
 20
65.1039
 11
76.938
 21
65.0888
  0
LINE
  8
0
 10
76.938
 20
65.0888
 11
78.8308
 21
65.0888
  0
LINE
  8
0
 10
78.8308
 20
65.0888
 11
78.8622
 21
65.1039
  0
LINE
  8
0
 10
78.8622
 20
65.1039
 11
79.4257
 21
65.3753
  0
LINE
  8
0
 10
79.4257
 20
65.3753
 11
75.0828
 21
56.6894
  0
LINE
  8
0
 10
75.0828
 20
56.6894
 11
73.6482
 21
53.8203
  0
LINE
  8
0
 10
73.6482
 20
53.8203
 11
73.6482
 21
53.8203
  0
LINE
  8
0
 10
73.6482
 20
53.8203
 11
73.6482
 21
53.8203
  0
LINE
  8
0
 10
73.6482
 20
53.8203
 11
73.6241
 21
53.7721
  0
LINE
  8
0
 10
73.6241
 20
53.7721
 11
73.6128
 21
53.7496
  0
LINE
  8
0
 10
73.6128
 20
53.7496
 11
71.6878
 21
48.732
  0
LINE
  8
0
 10
71.6878
 20
48.732
 11
70.784
 21
46.3764
  0
LINE
  8
0
 10
70.784
 20
46.3764
 11
70.7745
 21
46.3436
  0
LINE
  8
0
 10
70.7745
 20
46.3436
 11
68.5114
 21
38.5038
  0
LINE
  8
0
 10
68.5114
 20
38.5038
 11
66.459
 21
31.3941
  0
LINE
  8
0
 10
66.459
 20
31.3941
 11
66.4459
 21
31.3485
  0
LINE
  8
0
 10
66.4459
 20
31.3485
 11
66.4459
 21
31.3485
  0
LINE
  8
0
 10
66.4459
 20
31.3485
 11
66.434
 21
31.3075
  0
LINE
  8
0
 10
66.434
 20
31.3075
 11
65.5923
 21
27.2435
  0
LINE
  8
0
 10
65.5923
 20
27.2435
 11
65.5923
 21
27.2432
  0
LINE
  8
0
 10
65.5923
 20
27.2432
 11
64.6557
 21
22.7213
  0
LINE
  8
0
 10
64.6557
 20
22.7213
 11
63.8216
 21
16.4954
  0
LINE
  8
0
 10
63.8216
 20
16.4954
 11
62.4062
 21
5.93079
  0
LINE
  8
0
 10
62.4062
 20
5.93079
 11
62.404
 21
5.91418
  0
LINE
  8
0
 10
62.404
 20
5.91418
 11
62.2997
 21
4.33006
  0
LINE
  8
0
 10
62.2997
 20
4.33006
 11
61.7975
 21
-3.3
  0
LINE
  8
0
 10
61.7975
 20
-3.3
 11
61.7975
 21
-20.7
  0
LINE
  8
0
 10
61.7975
 20
-20.7
 11
62.2997
 21
-28.3301
  0
LINE
  8
0
 10
62.2997
 20
-28.3301
 11
62.404
 21
-29.9142
  0
LINE
  8
0
 10
62.404
 20
-29.9142
 11
62.4062
 21
-29.9308
  0
LINE
  8
0
 10
62.4062
 20
-29.9308
 11
63.8216
 21
-40.4954
  0
LINE
  8
0
 10
63.8216
 20
-40.4954
 11
64.6428
 21
-46.6247
  0
LINE
  8
0
 10
64.6428
 20
-46.6247
 11
64.1689
 21
-47.2462
  0
LINE
  8
0
 10
64.1689
 20
-47.2462
 11
62.792
 21
-46.5831
  0
LINE
  8
0
 10
62.792
 20
-46.5831
 11
62.7606
 21
-46.568
  0
LINE
  8
0
 10
62.7606
 20
-46.568
 11
60.8678
 21
-46.568
  0
LINE
  8
0
 10
60.8678
 20
-46.568
 11
60.8364
 21
-46.5831
  0
LINE
  8
0
 10
60.8364
 20
-46.5831
 11
59.1625
 21
-47.3893
  0
LINE
  8
0
 10
59.1625
 20
-47.3893
 11
58.0041
 21
-48.8418
  0
LINE
  8
0
 10
58.0041
 20
-48.8418
 11
57.9824
 21
-48.8691
  0
LINE
  8
0
 10
57.9824
 20
-48.8691
 11
57.9746
 21
-48.9031
  0
LINE
  8
0
 10
57.9746
 20
-48.9031
 11
57.5991
 21
-50.5485
  0
LINE
  8
0
 10
57.5991
 20
-50.5485
 11
52.0576
 21
-50.5485
  0
LINE
  8
0
 10
52.0576
 20
-50.5485
 11
49.4063
 21
-50.5485
  0
LINE
  8
0
 10
49.4063
 20
-50.5485
 11
42.9379
 21
-50.5485
  0
LINE
  8
0
 10
42.9379
 20
-50.5485
 11
40.5056
 21
-50.5485
  0
LINE
  8
0
 10
40.5056
 20
-50.5485
 11
32.8043
 21
-50.5485
  0
LINE
  8
0
 10
32.8043
 20
-50.5485
 11
31.3341
 21
-51.2353
  0
LINE
  8
0
 10
31.3341
 20
-51.2353
 11
30.8652
 21
-51.4543
  0
LINE
  8
0
 10
30.8652
 20
-51.4543
 11
30.4429
 21
-53.6976
  0
LINE
  8
0
 10
30.4429
 20
-53.6976
 11
29.0928
 21
-60.8699
  0
LINE
  8
0
 10
29.0928
 20
-60.8699
 11
28.4408
 21
-60.8699
  0
LINE
  8
0
 10
28.4408
 20
-60.8699
 11
28.4313
 21
-60.8699
  0
LINE
  8
0
 10
28.4313
 20
-60.8699
 11
15.5441
 21
-60.8699
  0
LINE
  8
0
 10
15.5441
 20
-60.8699
 11
13.4928
 21
-61.3295
  0
LINE
  8
0
 10
13.4928
 20
-61.3295
 11
6.2314
 21
-62.9563
  0
LINE
  8
0
 10
6.2314
 20
-62.9563
 11
5.54382
 21
-62.0941
  0
LINE
  8
0
 10
5.54382
 20
-62.0941
 11
3.86989
 21
-61.288
  0
LINE
  8
0
 10
3.86989
 20
-61.288
 11
3.83849
 21
-61.2729
  0
LINE
  8
0
 10
3.83849
 20
-61.2729
 11
1.94572
 21
-61.2729
  0
LINE
  8
0
 10
1.94572
 20
-61.2729
 11
1.91432
 21
-61.288
  0
LINE
  8
0
 10
1.91432
 20
-61.288
 11
0.24039
 21
-62.0941
  0
LINE
  8
0
 10
0.24039
 20
-62.0941
 11
-0.918007
 21
-63.5467
  0
LINE
  8
0
 10
-0.918007
 20
-63.5467
 11
-0.939734
 21
-63.574
  0
LINE
  8
0
 10
-0.939734
 20
-63.574
 11
-0.947488
 21
-63.6079
  0
LINE
  8
0
 10
-0.947488
 20
-63.6079
 11
-1.32054
 21
-65.2424
  0
LINE
  8
0
 10
-1.32054
 20
-65.2424
 11
-1.99063
 21
-65.6779
  0
LINE
  8
0
 10
-1.99063
 20
-65.6779
 11
-13.6749
 21
-73.271
  0
LINE
  8
0
 10
-13.6749
 20
-73.271
 11
-15.0127
 21
-74.2922
  0
LINE
  8
0
 10
-15.0127
 20
-74.2922
 11
-15.2492
 21
-74.4727
  0
LINE
  8
0
 10
-15.2492
 20
-74.4727
 11
-15.2572
 21
-74.4816
  0
LINE
  8
0
 10
-15.2572
 20
-74.4816
 11
-16.8634
 21
-76.2655
  0
LINE
  8
0
 10
-16.8634
 20
-76.2655
 11
-16.8636
 21
-76.2656
  0
LINE
  8
0
 10
-16.8636
 20
-76.2656
 11
-24.9016
 21
-85.1928
  0
LINE
  8
0
 10
-24.9016
 20
-85.1928
 11
-24.7306
 21
-85.9864
  0
LINE
  8
0
 10
-24.7306
 20
-85.9864
 11
-23.889
 21
-89.8924
  0
LINE
  8
0
 10
-23.889
 20
-89.8924
 11
-25.559
 21
-92.191
  0
LINE
  8
0
 10
-25.559
 20
-92.191
 11
-30.6533
 21
-99.2026
  0
LINE
  8
0
 10
-30.6533
 20
-99.2026
 11
-31.6152
 21
-97.9963
  0
LINE
  8
0
 10
-31.6152
 20
-97.9963
 11
-33.2892
 21
-97.1902
  0
LINE
  8
0
 10
-33.2892
 20
-97.1902
 11
-33.3206
 21
-97.1751
  0
LINE
  8
0
 10
-33.3206
 20
-97.1751
 11
-35.2133
 21
-97.1751
  0
LINE
  8
0
 10
-35.2133
 20
-97.1751
 11
-35.2447
 21
-97.1902
  0
LINE
  8
0
 10
-35.2447
 20
-97.1902
 11
-36.9187
 21
-97.9963
  0
LINE
  8
0
 10
-36.9187
 20
-97.9963
 11
-37.8596
 21
-99.1762
  0
LINE
  8
0
 10
-37.8596
 20
-99.1762
 11
-39.3593
 21
-97.683
  0
LINE
  8
0
 10
-39.3593
 20
-97.683
 11
-34.8168
 21
-91.8688
  0
LINE
  8
0
 10
-34.8168
 20
-91.8688
 11
-66.3372
 21
-67.2424
  0
LINE
  8
0
 10
-66.3372
 20
-67.2424
 11
-68.31
 21
-69.7674
  0
LINE
  8
0
 10
-68.31
 20
-69.7674
 11
-68.7454
 21
-69.2213
  0
LINE
  8
0
 10
-68.7454
 20
-69.2213
 11
-70.4193
 21
-68.4152
  0
LINE
  8
0
 10
-70.4193
 20
-68.4152
 11
-70.4507
 21
-68.4001
  0
LINE
  8
0
 10
-70.4507
 20
-68.4001
 11
-70.5756
 21
-68.4001
  0
LINE
  8
0
 10
-70.5756
 20
-68.4001
 11
-70.6308
 21
-68.1232
  0
LINE
  8
0
 10
-48.1001
 20
-30.2143
 11
-47.2501
 21
-28.742
  0
LINE
  8
0
 10
-47.2501
 20
-28.742
 11
-45.5502
 21
-28.742
  0
LINE
  8
0
 10
-45.5502
 20
-28.742
 11
-44.7001
 21
-30.2143
  0
LINE
  8
0
 10
-44.7001
 20
-30.2143
 11
-45.5502
 21
-31.6865
  0
LINE
  8
0
 10
-45.5502
 20
-31.6865
 11
-47.2501
 21
-31.6865
  0
LINE
  8
0
 10
-47.2501
 20
-31.6865
 11
-48.1001
 21
-30.2143
  0
LINE
  8
0
 10
-35.967
 20
-101.321
 11
-35.117
 21
-99.8492
  0
LINE
  8
0
 10
-35.117
 20
-99.8492
 11
-33.417
 21
-99.8492
  0
LINE
  8
0
 10
-33.417
 20
-99.8492
 11
-32.567
 21
-101.321
  0
LINE
  8
0
 10
-32.567
 20
-101.321
 11
-33.417
 21
-102.794
  0
LINE
  8
0
 10
-33.417
 20
-102.794
 11
-35.117
 21
-102.794
  0
LINE
  8
0
 10
-35.117
 20
-102.794
 11
-35.967
 21
-101.321
  0
LINE
  8
0
 10
-22.213
 20
72.5378
 11
-21.363
 21
74.01
  0
LINE
  8
0
 10
-21.363
 20
74.01
 11
-19.663
 21
74.01
  0
LINE
  8
0
 10
-19.663
 20
74.01
 11
-18.813
 21
72.5378
  0
LINE
  8
0
 10
-18.813
 20
72.5378
 11
-19.663
 21
71.0656
  0
LINE
  8
0
 10
-19.663
 20
71.0656
 11
-21.363
 21
71.0656
  0
LINE
  8
0
 10
-21.363
 20
71.0656
 11
-22.213
 21
72.5378
  0
LINE
  8
0
 10
1.1921
 20
-65.4193
 11
2.0421
 21
-63.947
  0
LINE
  8
0
 10
2.0421
 20
-63.947
 11
3.7421
 21
-63.947
  0
LINE
  8
0
 10
3.7421
 20
-63.947
 11
4.5921
 21
-65.4193
  0
LINE
  8
0
 10
4.5921
 20
-65.4193
 11
3.7421
 21
-66.8915
  0
LINE
  8
0
 10
3.7421
 20
-66.8915
 11
2.0421
 21
-66.8915
  0
LINE
  8
0
 10
2.0421
 20
-66.8915
 11
1.1921
 21
-65.4193
  0
LINE
  8
0
 10
25.4236
 20
82.0046
 11
26.2736
 21
83.4768
  0
LINE
  8
0
 10
26.2736
 20
83.4768
 11
27.9736
 21
83.4768
  0
LINE
  8
0
 10
27.9736
 20
83.4768
 11
28.8236
 21
82.0046
  0
LINE
  8
0
 10
28.8236
 20
82.0046
 11
27.9736
 21
80.5324
  0
LINE
  8
0
 10
27.9736
 20
80.5324
 11
26.2736
 21
80.5324
  0
LINE
  8
0
 10
26.2736
 20
80.5324
 11
25.4236
 21
82.0046
  0
LINE
  8
0
 10
60.1142
 20
-50.7144
 11
60.9642
 21
-49.2422
  0
LINE
  8
0
 10
60.9642
 20
-49.2422
 11
62.6642
 21
-49.2422
  0
LINE
  8
0
 10
62.6642
 20
-49.2422
 11
63.5142
 21
-50.7144
  0
LINE
  8
0
 10
63.5142
 20
-50.7144
 11
62.6642
 21
-52.1866
  0
LINE
  8
0
 10
62.6642
 20
-52.1866
 11
60.9642
 21
-52.1866
  0
LINE
  8
0
 10
60.9642
 20
-52.1866
 11
60.1142
 21
-50.7144
  0
LINE
  8
0
 10
76.1844
 20
69.2352
 11
77.0344
 21
70.7075
  0
LINE
  8
0
 10
77.0344
 20
70.7075
 11
78.7344
 21
70.7075
  0
LINE
  8
0
 10
78.7344
 20
70.7075
 11
79.5844
 21
69.2352
  0
LINE
  8
0
 10
79.5844
 20
69.2352
 11
78.7344
 21
67.763
  0
LINE
  8
0
 10
78.7344
 20
67.763
 11
77.0344
 21
67.763
  0
LINE
  8
0
 10
77.0344
 20
67.763
 11
76.1844
 21
69.2352
  0
ENDSEC
  0
SECTION
  2
OBJECTS
  0
DICTIONARY
  0
ENDSEC
  0
EOF
