  0
SECTION
  2
BLOCKS
  0
ENDSEC
  0
SECTION
  2
ENTITIES
  0
LINE
  8
0
 10
-94.7013
 20
-71.9166
 11
-94.25
 21
-76.2942
  0
LINE
  8
0
 10
-94.25
 20
-76.2942
 11
-93.7231
 21
-81.4046
  0
LINE
  8
0
 10
-93.7231
 20
-81.4046
 11
-93.7133
 21
-81.4126
  0
LINE
  8
0
 10
-93.7133
 20
-81.4126
 11
-91.8957
 21
-82.9052
  0
LINE
  8
0
 10
-91.8957
 20
-82.9052
 11
-80.2527
 21
-92.467
  0
LINE
  8
0
 10
-80.2527
 20
-92.467
 11
-79.2046
 21
-92.9879
  0
LINE
  8
0
 10
-79.2046
 20
-92.9879
 11
-76.7825
 21
-93.3042
  0
LINE
  8
0
 10
-76.7825
 20
-93.3042
 11
-75.6769
 21
-92.9567
  0
LINE
  8
0
 10
-75.6769
 20
-92.9567
 11
-74.5292
 21
-92.4501
  0
LINE
  8
0
 10
-74.5292
 20
-92.4501
 11
-73.0831
 21
-94.7411
  0
LINE
  8
0
 10
-73.0831
 20
-94.7411
 11
-71.7995
 21
-96.7747
  0
LINE
  8
0
 10
-71.7995
 20
-96.7747
 11
-62.2123
 21
-105.251
  0
LINE
  8
0
 10
-62.2123
 20
-105.251
 11
-62.1964
 21
-105.265
  0
LINE
  8
0
 10
-62.1964
 20
-105.265
 11
-55.4876
 21
-105.234
  0
LINE
  8
0
 10
-55.4876
 20
-105.234
 11
-50.0495
 21
-105.208
  0
LINE
  8
0
 10
-50.0495
 20
-105.208
 11
-49.9773
 21
-105.161
  0
LINE
  8
0
 10
-49.9773
 20
-105.161
 11
-49.9418
 21
-105.139
  0
LINE
  8
0
 10
-49.9418
 20
-105.139
 11
-46.7861
 21
-103.116
  0
LINE
  8
0
 10
-46.7861
 20
-103.116
 11
-43.3735
 21
-100.928
  0
LINE
  8
0
 10
-43.3735
 20
-100.928
 11
-41.1551
 21
-98.7004
  0
LINE
  8
0
 10
-41.1551
 20
-98.7004
 11
-38.9621
 21
-96.4979
  0
LINE
  8
0
 10
-38.9621
 20
-96.4979
 11
-38.0956
 21
-95.3053
  0
LINE
  8
0
 10
-38.0956
 20
-95.3053
 11
-35.9921
 21
-92.4101
  0
LINE
  8
0
 10
-35.9921
 20
-92.4101
 11
-36.9403
 21
-88.6779
  0
LINE
  8
0
 10
-36.9403
 20
-88.6779
 11
-37.2281
 21
-87.5449
  0
LINE
  8
0
 10
-37.2281
 20
-87.5449
 11
-33.0155
 21
-82.8663
  0
LINE
  8
0
 10
-33.0155
 20
-82.8663
 11
-27.9852
 21
-77.2796
  0
LINE
  8
0
 10
-27.9852
 20
-77.2796
 11
-21.3073
 21
-72.7249
  0
LINE
  8
0
 10
-21.3073
 20
-72.7249
 11
-21.307
 21
-72.7247
  0
LINE
  8
0
 10
-21.307
 20
-72.7247
 11
-18.0373
 21
-70.4945
  0
LINE
  8
0
 10
-18.0373
 20
-70.4945
 11
-16.4396
 21
-70.4945
  0
LINE
  8
0
 10
-16.4396
 20
-70.4945
 11
-16.4082
 21
-70.4794
  0
LINE
  8
0
 10
-16.4082
 20
-70.4794
 11
-14.7342
 21
-69.6733
  0
LINE
  8
0
 10
-14.7342
 20
-69.6733
 11
-14.3922
 21
-69.2444
  0
LINE
  8
0
 10
-14.3922
 20
-69.2444
 11
-13.5036
 21
-69.0074
  0
LINE
  8
0
 10
-13.5036
 20
-69.0074
 11
-6.11397
 21
-67.0366
  0
LINE
  8
0
 10
-6.11397
 20
-67.0366
 11
2.9828
 21
-67.0366
  0
LINE
  8
0
 10
2.9828
 20
-67.0366
 11
3.03414
 21
-67.0366
  0
LINE
  8
0
 10
3.03414
 20
-67.0366
 11
15.4262
 21
-67.0366
  0
LINE
  8
0
 10
15.4262
 20
-67.0366
 11
19.5991
 21
-60.4147
  0
LINE
  8
0
 10
19.5991
 20
-60.4147
 11
22.1414
 21
-56.3805
  0
LINE
  8
0
 10
22.1414
 20
-56.3805
 11
26.1242
 21
-56.3805
  0
LINE
  8
0
 10
26.1242
 20
-56.3805
 11
26.2246
 21
-56.3805
  0
LINE
  8
0
 10
26.2246
 20
-56.3805
 11
29.3143
 21
-56.3805
  0
LINE
  8
0
 10
29.3143
 20
-56.3805
 11
34.1868
 21
-51.3729
  0
LINE
  8
0
 10
34.1868
 20
-51.3729
 11
36.3248
 21
-49.0936
  0
LINE
  8
0
 10
36.3248
 20
-49.0936
 11
39.0768
 21
-46.1598
  0
LINE
  8
0
 10
39.0768
 20
-46.1598
 11
39.3
 21
-45.8154
  0
LINE
  8
0
 10
39.3
 20
-45.8154
 11
39.296
 21
-45.7294
  0
LINE
  8
0
 10
39.296
 20
-45.7294
 11
39.2104
 21
-43.8913
  0
LINE
  8
0
 10
39.2104
 20
-43.8913
 11
39.0768
 21
-41.019
  0
LINE
  8
0
 10
39.0768
 20
-41.019
 11
39.0768
 21
-41.019
  0
LINE
  8
0
 10
39.0768
 20
-41.019
 11
37.9516
 21
-28.3019
  0
LINE
  8
0
 10
37.9516
 20
-28.3019
 11
37.9516
 21
-28.3019
  0
LINE
  8
0
 10
37.9516
 20
-28.3019
 11
37.6666
 21
-21.9559
  0
LINE
  8
0
 10
37.6666
 20
-21.9559
 11
37.6057
 21
-20.6
  0
LINE
  8
0
 10
37.6057
 20
-20.6
 11
37.6057
 21
-3.4
  0
LINE
  8
0
 10
37.6057
 20
-3.4
 11
37.6666
 21
-2.04412
  0
LINE
  8
0
 10
37.6666
 20
-2.04412
 11
37.9516
 21
4.30188
  0
LINE
  8
0
 10
37.9516
 20
4.30188
 11
37.9516
 21
4.30188
  0
LINE
  8
0
 10
37.9516
 20
4.30188
 11
39.0768
 21
17.019
  0
LINE
  8
0
 10
39.0768
 20
17.019
 11
39.0768
 21
17.019
  0
LINE
  8
0
 10
39.0768
 20
17.019
 11
39.2104
 21
19.8913
  0
LINE
  8
0
 10
39.2104
 20
19.8913
 11
39.296
 21
21.7294
  0
LINE
  8
0
 10
39.296
 20
21.7294
 11
39.3
 21
21.8154
  0
LINE
  8
0
 10
39.3
 20
21.8154
 11
39.0768
 21
22.1598
  0
LINE
  8
0
 10
39.0768
 20
22.1598
 11
36.3248
 21
25.0936
  0
LINE
  8
0
 10
36.3248
 20
25.0936
 11
34.1868
 21
27.3729
  0
LINE
  8
0
 10
34.1868
 20
27.3729
 11
29.3143
 21
32.3805
  0
LINE
  8
0
 10
29.3143
 20
32.3805
 11
26.2246
 21
32.3805
  0
LINE
  8
0
 10
26.2246
 20
32.3805
 11
26.1242
 21
32.3805
  0
LINE
  8
0
 10
26.1242
 20
32.3805
 11
12.4724
 21
32.3805
  0
LINE
  8
0
 10
12.4724
 20
32.3805
 11
10.4845
 21
36.9778
  0
LINE
  8
0
 10
10.4845
 20
36.9778
 11
7.6751
 21
43.4747
  0
LINE
  8
0
 10
7.6751
 20
43.4747
 11
6.85408
 21
44.3247
  0
LINE
  8
0
 10
6.85408
 20
44.3247
 11
6.8001
 21
44.3806
  0
LINE
  8
0
 10
6.8001
 20
44.3806
 11
5.76319
 21
44.3806
  0
LINE
  8
0
 10
5.76319
 20
44.3806
 11
-9.91042
 21
44.3805
  0
LINE
  8
0
 10
-9.91042
 20
44.3805
 11
-11.6273
 21
45.3319
  0
LINE
  8
0
 10
-11.6273
 20
45.3319
 11
-14.9998
 21
47.2006
  0
LINE
  8
0
 10
-14.9998
 20
47.2006
 11
-17.7338
 21
47.2006
  0
LINE
  8
0
 10
-17.7338
 20
47.2006
 11
-17.8501
 21
47.2006
  0
LINE
  8
0
 10
-17.8501
 20
47.2006
 11
-31.3505
 21
47.2005
  0
LINE
  8
0
 10
-31.3505
 20
47.2005
 11
-32.5131
 21
45.956
  0
LINE
  8
0
 10
-32.5131
 20
45.956
 11
-33.9848
 21
44.3805
  0
LINE
  8
0
 10
-33.9848
 20
44.3805
 11
-43.0169
 21
44.3805
  0
LINE
  8
0
 10
-43.0169
 20
44.3805
 11
-43.0667
 21
44.3805
  0
LINE
  8
0
 10
-43.0667
 20
44.3805
 11
-49.6347
 21
44.3805
  0
LINE
  8
0
 10
-49.6347
 20
44.3805
 11
-52.1038
 21
44.3805
  0
LINE
  8
0
 10
-52.1038
 20
44.3805
 11
-52.1347
 21
44.3805
  0
LINE
  8
0
 10
-52.1347
 20
44.3805
 11
-53.2846
 21
44.3805
  0
LINE
  8
0
 10
-53.2846
 20
44.3805
 11
-63.7047
 21
44.3805
  0
LINE
  8
0
 10
-63.7047
 20
44.3805
 11
-63.7379
 21
44.3805
  0
LINE
  8
0
 10
-63.7379
 20
44.3805
 11
-68.2723
 21
44.3805
  0
LINE
  8
0
 10
-68.2723
 20
44.3805
 11
-68.2932
 21
44.3805
  0
LINE
  8
0
 10
-68.2932
 20
44.3805
 11
-71.5871
 21
41.8295
  0
LINE
  8
0
 10
-71.5871
 20
41.8295
 11
-72.6343
 21
41.0184
  0
LINE
  8
0
 10
-72.6343
 20
41.0184
 11
-82.6343
 21
31.0184
  0
LINE
  8
0
 10
-82.6343
 20
31.0184
 11
-83.2113
 21
26.7112
  0
LINE
  8
0
 10
-83.2113
 20
26.7112
 11
-84.6565
 21
26.7112
  0
LINE
  8
0
 10
-84.6565
 20
26.7112
 11
-84.6879
 21
26.6961
  0
LINE
  8
0
 10
-84.6879
 20
26.6961
 11
-86.3619
 21
25.89
  0
LINE
  8
0
 10
-86.3619
 20
25.89
 11
-87.5203
 21
24.4374
  0
LINE
  8
0
 10
-87.5203
 20
24.4374
 11
-87.542
 21
24.4102
  0
LINE
  8
0
 10
-87.542
 20
24.4102
 11
-87.5498
 21
24.3762
  0
LINE
  8
0
 10
-87.5498
 20
24.3762
 11
-87.9632
 21
22.5649
  0
LINE
  8
0
 10
-87.9632
 20
22.5649
 11
-87.5498
 21
20.7535
  0
LINE
  8
0
 10
-87.5498
 20
20.7535
 11
-87.542
 21
20.7195
  0
LINE
  8
0
 10
-87.542
 20
20.7195
 11
-87.5203
 21
20.6923
  0
LINE
  8
0
 10
-87.5203
 20
20.6923
 11
-86.3619
 21
19.2397
  0
LINE
  8
0
 10
-86.3619
 20
19.2397
 11
-84.6879
 21
18.4336
  0
LINE
  8
0
 10
-84.6879
 20
18.4336
 11
-84.6565
 21
18.4185
  0
LINE
  8
0
 10
-84.6565
 20
18.4185
 11
-84.3224
 21
18.4185
  0
LINE
  8
0
 10
-84.3224
 20
18.4185
 11
-84.886
 21
14.2113
  0
LINE
  8
0
 10
-84.886
 20
14.2113
 11
-85.1259
 21
10.567
  0
LINE
  8
0
 10
-85.1259
 20
10.567
 11
-85.2455
 21
8.75
  0
LINE
  8
0
 10
-85.2455
 20
8.75
 11
-85.2455
 21
-8.75
  0
LINE
  8
0
 10
-85.2455
 20
-8.75
 11
-85.1259
 21
-10.567
  0
LINE
  8
0
 10
-85.1259
 20
-10.567
 11
-84.886
 21
-14.2113
  0
LINE
  8
0
 10
-84.886
 20
-14.2113
 11
-83.3835
 21
-25.4265
  0
LINE
  8
0
 10
-83.3835
 20
-25.4265
 11
-82.6343
 21
-31.0184
  0
LINE
  8
0
 10
-82.6343
 20
-31.0184
 11
-80.3232
 21
-35.6787
  0
LINE
  8
0
 10
-80.3232
 20
-35.6787
 11
-79.5241
 21
-37.29
  0
LINE
  8
0
 10
-79.5241
 20
-37.29
 11
-82.9806
 21
-40.1903
  0
LINE
  8
0
 10
-82.9806
 20
-40.1903
 11
-87.1645
 21
-43.7011
  0
LINE
  8
0
 10
-87.1645
 20
-43.7011
 11
-87.1645
 21
-43.7011
  0
LINE
  8
0
 10
-87.1645
 20
-43.7011
 11
-87.1826
 21
-43.7162
  0
LINE
  8
0
 10
-87.1826
 20
-43.7162
 11
-87.5395
 21
-44.1514
  0
LINE
  8
0
 10
-87.5395
 20
-44.1514
 11
-87.5395
 21
-44.1515
  0
LINE
  8
0
 10
-87.5395
 20
-44.1515
 11
-88.4385
 21
-45.2476
  0
LINE
  8
0
 10
-88.4385
 20
-45.2476
 11
-88.4385
 21
-45.2476
  0
LINE
  8
0
 10
-88.4385
 20
-45.2476
 11
-86.9587
 21
-49.2676
  0
LINE
  8
0
 10
-86.9587
 20
-49.2676
 11
-84.7913
 21
-55.1554
  0
LINE
  8
0
 10
-84.7913
 20
-55.1554
 11
-87.0644
 21
-58.0648
  0
LINE
  8
0
 10
-87.0644
 20
-58.0648
 11
-87.0644
 21
-58.0648
  0
LINE
  8
0
 10
-87.0644
 20
-58.0648
 11
-87.0644
 21
-58.0648
  0
LINE
  8
0
 10
-87.0644
 20
-58.0648
 11
-91.2009
 21
-65.5675
  0
LINE
  8
0
 10
-91.2009
 20
-65.5675
 11
-94.6641
 21
-71.8492
  0
LINE
  8
0
 10
-94.6641
 20
-71.8492
 11
-94.7013
 21
-71.9166
  0
LINE
  8
0
 10
-89.9639
 20
-75.463
 11
-85.3558
 21
-67.3518
  0
LINE
  8
0
 10
-85.3558
 20
-67.3518
 11
-79.4972
 21
-57.0393
  0
LINE
  8
0
 10
-79.4972
 20
-57.0393
 11
-79.4969
 21
-57.039
  0
LINE
  8
0
 10
-79.4969
 20
-57.039
 11
-79.4826
 21
-57.0206
  0
LINE
  8
0
 10
-79.4826
 20
-57.0206
 11
-79.4325
 21
-56.9566
  0
LINE
  8
0
 10
-79.4325
 20
-56.9566
 11
-79.4325
 21
-56.9566
  0
LINE
  8
0
 10
-79.4325
 20
-56.9566
 11
-79.4321
 21
-56.9561
  0
LINE
  8
0
 10
-79.4321
 20
-56.9561
 11
-79.4321
 21
-56.9561
  0
LINE
  8
0
 10
-79.4321
 20
-56.9561
 11
-82.5218
 21
-49.8918
  0
LINE
  8
0
 10
-82.5218
 20
-49.8918
 11
-83.4777
 21
-47.7061
  0
LINE
  8
0
 10
-83.4777
 20
-47.7061
 11
-82.2196
 21
-46.6505
  0
LINE
  8
0
 10
-82.2196
 20
-46.6505
 11
-82.007
 21
-46.9171
  0
LINE
  8
0
 10
-82.007
 20
-46.9171
 11
-80.3331
 21
-47.7232
  0
LINE
  8
0
 10
-80.3331
 20
-47.7232
 11
-80.3017
 21
-47.7384
  0
LINE
  8
0
 10
-80.3017
 20
-47.7384
 11
-78.4089
 21
-47.7384
  0
LINE
  8
0
 10
-78.4089
 20
-47.7384
 11
-78.3775
 21
-47.7232
  0
LINE
  8
0
 10
-78.3775
 20
-47.7232
 11
-76.7036
 21
-46.9171
  0
LINE
  8
0
 10
-76.7036
 20
-46.9171
 11
-75.5452
 21
-45.4645
  0
LINE
  8
0
 10
-75.5452
 20
-45.4645
 11
-75.5235
 21
-45.4373
  0
LINE
  8
0
 10
-75.5235
 20
-45.4373
 11
-75.5157
 21
-45.4033
  0
LINE
  8
0
 10
-75.5157
 20
-45.4033
 11
-75.1023
 21
-43.592
  0
LINE
  8
0
 10
-75.1023
 20
-43.592
 11
-75.5157
 21
-41.7806
  0
LINE
  8
0
 10
-75.5157
 20
-41.7806
 11
-75.5235
 21
-41.7467
  0
LINE
  8
0
 10
-75.5235
 20
-41.7467
 11
-75.5452
 21
-41.7194
  0
LINE
  8
0
 10
-75.5452
 20
-41.7194
 11
-75.865
 21
-41.3183
  0
LINE
  8
0
 10
-75.865
 20
-41.3183
 11
-74.8521
 21
-40.4684
  0
LINE
  8
0
 10
-74.8521
 20
-40.4684
 11
-74.2898
 21
-39.7828
  0
LINE
  8
0
 10
-74.2898
 20
-39.7828
 11
-73.5962
 21
-38.937
  0
LINE
  8
0
 10
-73.5962
 20
-38.937
 11
-73.5962
 21
-38.937
  0
LINE
  8
0
 10
-73.5962
 20
-38.937
 11
-75.7713
 21
-34.5082
  0
LINE
  8
0
 10
-75.7713
 20
-34.5082
 11
-77.5343
 21
-30.9184
  0
LINE
  8
0
 10
-77.5343
 20
-30.9184
 11
-77.9994
 21
-27.4471
  0
LINE
  8
0
 10
-77.9994
 20
-27.4471
 11
-73.4804
 21
-27.4471
  0
LINE
  8
0
 10
-73.4804
 20
-27.4471
 11
-73.4804
 21
25.4471
  0
LINE
  8
0
 10
-73.4804
 20
25.4471
 11
-78.2673
 21
25.4471
  0
LINE
  8
0
 10
-78.2673
 20
25.4471
 11
-78.206
 21
25.9049
  0
LINE
  8
0
 10
-78.206
 20
25.9049
 11
-77.5343
 21
30.9184
  0
LINE
  8
0
 10
-77.5343
 20
30.9184
 11
-72.5343
 21
35.9184
  0
LINE
  8
0
 10
-72.5343
 20
35.9184
 11
-71.2933
 21
36.5276
  0
LINE
  8
0
 10
-71.2933
 20
36.5276
 11
-67.1762
 21
38.5485
  0
LINE
  8
0
 10
-67.1762
 20
38.5485
 11
-55.6801
 21
38.5485
  0
LINE
  8
0
 10
-55.6801
 20
38.5485
 11
-52.2189
 21
38.5485
  0
LINE
  8
0
 10
-52.2189
 20
38.5485
 11
-49.7348
 21
38.5485
  0
LINE
  8
0
 10
-49.7348
 20
38.5485
 11
-48.7271
 21
38.5485
  0
LINE
  8
0
 10
-48.7271
 20
38.5485
 11
-37.8228
 21
38.5485
  0
LINE
  8
0
 10
-37.8228
 20
38.5485
 11
-37.8013
 21
38.5485
  0
LINE
  8
0
 10
-37.8013
 20
38.5485
 11
-33.0586
 21
38.5485
  0
LINE
  8
0
 10
-33.0586
 20
38.5485
 11
-33.0586
 21
38.5485
  0
LINE
  8
0
 10
-33.0586
 20
38.5485
 11
-33.0233
 21
38.5485
  0
LINE
  8
0
 10
-33.0233
 20
38.5485
 11
-31.5181
 21
40.2658
  0
LINE
  8
0
 10
-31.5181
 20
40.2658
 11
-30.5517
 21
41.3685
  0
LINE
  8
0
 10
-30.5517
 20
41.3685
 11
-22.5453
 21
41.3685
  0
LINE
  8
0
 10
-22.5453
 20
41.3685
 11
-22.5119
 21
41.3685
  0
LINE
  8
0
 10
-22.5119
 20
41.3685
 11
-14.389
 21
41.3685
  0
LINE
  8
0
 10
-14.389
 20
41.3685
 11
-11.5125
 21
39.7182
  0
LINE
  8
0
 10
-11.5125
 20
39.7182
 11
-9.47365
 21
38.5485
  0
LINE
  8
0
 10
-9.47365
 20
38.5485
 11
-6.05807
 21
38.5485
  0
LINE
  8
0
 10
-6.05807
 20
38.5485
 11
-5.90299
 21
37.869
  0
LINE
  8
0
 10
-5.90299
 20
37.869
 11
-5.89523
 21
37.835
  0
LINE
  8
0
 10
-5.89523
 20
37.835
 11
-5.8735
 21
37.8078
  0
LINE
  8
0
 10
-5.8735
 20
37.8078
 11
-4.71511
 21
36.3552
  0
LINE
  8
0
 10
-4.71511
 20
36.3552
 11
-3.04118
 21
35.5491
  0
LINE
  8
0
 10
-3.04118
 20
35.5491
 11
-3.00978
 21
35.5339
  0
LINE
  8
0
 10
-3.00978
 20
35.5339
 11
-1.11701
 21
35.5339
  0
LINE
  8
0
 10
-1.11701
 20
35.5339
 11
-1.08561
 21
35.5491
  0
LINE
  8
0
 10
-1.08561
 20
35.5491
 11
0.588318
 21
36.3552
  0
LINE
  8
0
 10
0.588318
 20
36.3552
 11
1.74672
 21
37.8078
  0
LINE
  8
0
 10
1.74672
 20
37.8078
 11
1.76844
 21
37.835
  0
LINE
  8
0
 10
1.76844
 20
37.835
 11
1.7762
 21
37.869
  0
LINE
  8
0
 10
1.7762
 20
37.869
 11
1.93128
 21
38.5485
  0
LINE
  8
0
 10
1.93128
 20
38.5485
 11
6.73944
 21
38.5485
  0
LINE
  8
0
 10
6.73944
 20
38.5485
 11
7.08376
 21
37.904
  0
LINE
  8
0
 10
7.08376
 20
37.904
 11
11.9494
 21
27.4543
  0
LINE
  8
0
 10
11.9494
 20
27.4543
 11
12.2907
 21
26.9277
  0
LINE
  8
0
 10
12.2907
 20
26.9277
 11
12.5365
 21
26.5485
  0
LINE
  8
0
 10
12.5365
 20
26.5485
 11
19.7103
 21
26.5485
  0
LINE
  8
0
 10
19.7103
 20
26.5485
 11
29.5736
 21
26.5485
  0
LINE
  8
0
 10
29.5736
 20
26.5485
 11
30.9698
 21
25.1136
  0
LINE
  8
0
 10
30.9698
 20
25.1136
 11
32.5115
 21
23.5291
  0
LINE
  8
0
 10
32.5115
 20
23.5291
 11
33.4944
 21
22.316
  0
LINE
  8
0
 10
33.4944
 20
22.316
 11
32.442
 21
9.62093
  0
LINE
  8
0
 10
32.442
 20
9.62093
 11
32.0154
 21
4.47455
  0
LINE
  8
0
 10
32.0154
 20
4.47455
 11
31.9253
 21
2.33386
  0
LINE
  8
0
 10
31.9253
 20
2.33386
 11
31.6882
 21
-3.3
  0
LINE
  8
0
 10
31.6882
 20
-3.3
 11
31.6882
 21
-7.88964
  0
LINE
  8
0
 10
31.6882
 20
-7.88964
 11
30.0577
 21
-8.67486
  0
LINE
  8
0
 10
30.0577
 20
-8.67486
 11
28.8993
 21
-10.1274
  0
LINE
  8
0
 10
28.8993
 20
-10.1274
 11
28.8775
 21
-10.1547
  0
LINE
  8
0
 10
28.8775
 20
-10.1547
 11
28.8698
 21
-10.1887
  0
LINE
  8
0
 10
28.8698
 20
-10.1887
 11
28.4564
 21
-12
  0
LINE
  8
0
 10
28.4564
 20
-12
 11
28.8698
 21
-13.8113
  0
LINE
  8
0
 10
28.8698
 20
-13.8113
 11
28.8775
 21
-13.8453
  0
LINE
  8
0
 10
28.8775
 20
-13.8453
 11
28.8993
 21
-13.8726
  0
LINE
  8
0
 10
28.8993
 20
-13.8726
 11
30.0577
 21
-15.3251
  0
LINE
  8
0
 10
30.0577
 20
-15.3251
 11
31.6882
 21
-16.1104
  0
LINE
  8
0
 10
31.6882
 20
-16.1104
 11
31.6882
 21
-20.7
  0
LINE
  8
0
 10
31.6882
 20
-20.7
 11
31.9253
 21
-26.3339
  0
LINE
  8
0
 10
31.9253
 20
-26.3339
 11
32.0154
 21
-28.4746
  0
LINE
  8
0
 10
32.0154
 20
-28.4746
 11
32.442
 21
-33.6209
  0
LINE
  8
0
 10
32.442
 20
-33.6209
 11
33.4944
 21
-46.316
  0
LINE
  8
0
 10
33.4944
 20
-46.316
 11
32.5115
 21
-47.5291
  0
LINE
  8
0
 10
32.5115
 20
-47.5291
 11
30.9698
 21
-49.1136
  0
LINE
  8
0
 10
30.9698
 20
-49.1136
 11
29.5736
 21
-50.5485
  0
LINE
  8
0
 10
29.5736
 20
-50.5485
 11
19.7103
 21
-50.5485
  0
LINE
  8
0
 10
19.7103
 20
-50.5485
 11
12.5365
 21
-50.5485
  0
LINE
  8
0
 10
12.5365
 20
-50.5485
 11
12.2907
 21
-50.9277
  0
LINE
  8
0
 10
12.2907
 20
-50.9277
 11
11.9494
 21
-51.4543
  0
LINE
  8
0
 10
11.9494
 20
-51.4543
 11
12.0976
 21
-54.6387
  0
LINE
  8
0
 10
12.0976
 20
-54.6387
 11
12.1741
 21
-56.284
  0
LINE
  8
0
 10
12.1741
 20
-56.284
 11
12.1771
 21
-56.3475
  0
LINE
  8
0
 10
12.1771
 20
-56.3475
 11
12.1786
 21
-56.3805
  0
LINE
  8
0
 10
12.1786
 20
-56.3805
 11
12.1786
 21
-56.3805
  0
LINE
  8
0
 10
12.1786
 20
-56.3805
 11
14.8357
 21
-56.3805
  0
LINE
  8
0
 10
14.8357
 20
-56.3805
 11
14.7384
 21
-56.6157
  0
LINE
  8
0
 10
14.7384
 20
-56.6157
 11
12.9787
 21
-60.8699
  0
LINE
  8
0
 10
12.9787
 20
-60.8699
 11
6.64344
 21
-60.8699
  0
LINE
  8
0
 10
6.64344
 20
-60.8699
 11
-6.08605
 21
-60.8699
  0
LINE
  8
0
 10
-6.08605
 20
-60.8699
 11
-9.75044
 21
-61.9873
  0
LINE
  8
0
 10
-9.75044
 20
-61.9873
 11
-14.4237
 21
-63.4124
  0
LINE
  8
0
 10
-14.4237
 20
-63.4124
 11
-14.7342
 21
-63.023
  0
LINE
  8
0
 10
-14.7342
 20
-63.023
 11
-16.4082
 21
-62.2169
  0
LINE
  8
0
 10
-16.4082
 20
-62.2169
 11
-16.4396
 21
-62.2018
  0
LINE
  8
0
 10
-16.4396
 20
-62.2018
 11
-18.3323
 21
-62.2018
  0
LINE
  8
0
 10
-18.3323
 20
-62.2018
 11
-18.3637
 21
-62.2169
  0
LINE
  8
0
 10
-18.3637
 20
-62.2169
 11
-20.0377
 21
-63.023
  0
LINE
  8
0
 10
-20.0377
 20
-63.023
 11
-21.1961
 21
-64.4756
  0
LINE
  8
0
 10
-21.1961
 20
-64.4756
 11
-21.2178
 21
-64.5028
  0
LINE
  8
0
 10
-21.2178
 20
-64.5028
 11
-21.2255
 21
-64.5368
  0
LINE
  8
0
 10
-21.2255
 20
-64.5368
 11
-21.639
 21
-66.3481
  0
LINE
  8
0
 10
-21.639
 20
-66.3481
 11
-21.4981
 21
-66.9655
  0
LINE
  8
0
 10
-21.4981
 20
-66.9655
 11
-26.7676
 21
-70.3899
  0
LINE
  8
0
 10
-26.7676
 20
-70.3899
 11
-26.7679
 21
-70.3901
  0
LINE
  8
0
 10
-26.7679
 20
-70.3901
 11
-31.201
 21
-73.271
  0
LINE
  8
0
 10
-31.201
 20
-73.271
 11
-32.0655
 21
-73.9309
  0
LINE
  8
0
 10
-32.0655
 20
-73.9309
 11
-32.7753
 21
-74.4727
  0
LINE
  8
0
 10
-32.7753
 20
-74.4727
 11
-32.7975
 21
-74.4974
  0
LINE
  8
0
 10
-32.7975
 20
-74.4974
 11
-39.043
 21
-81.4336
  0
LINE
  8
0
 10
-39.043
 20
-81.4336
 11
-39.0432
 21
-81.4338
  0
LINE
  8
0
 10
-39.0432
 20
-81.4338
 11
-42.4277
 21
-85.1928
  0
LINE
  8
0
 10
-42.4277
 20
-85.1928
 11
-41.7445
 21
-88.3636
  0
LINE
  8
0
 10
-41.7445
 20
-88.3636
 11
-41.4151
 21
-89.8924
  0
LINE
  8
0
 10
-41.4151
 20
-89.8924
 11
-43.7102
 21
-93.0513
  0
LINE
  8
0
 10
-43.7102
 20
-93.0513
 11
-55.6717
 21
-100.976
  0
LINE
  8
0
 10
-55.6717
 20
-100.976
 11
-58.1027
 21
-101.008
  0
LINE
  8
0
 10
-58.1027
 20
-101.008
 11
-60.6198
 21
-98.8063
  0
LINE
  8
0
 10
-60.6198
 20
-98.8063
 11
-70.2318
 21
-90.3971
  0
LINE
  8
0
 10
-70.2318
 20
-90.3971
 11
-71.6234
 21
-89.386
  0
LINE
  8
0
 10
-71.6234
 20
-89.386
 11
-71.9357
 21
-89.1975
  0
LINE
  8
0
 10
-71.9357
 20
-89.1975
 11
-76.4891
 21
-87.8737
  0
LINE
  8
0
 10
-76.4891
 20
-87.8737
 11
-76.4891
 21
-87.8737
  0
LINE
  8
0
 10
-76.4891
 20
-87.8737
 11
-87.3312
 21
-78.9935
  0
LINE
  8
0
 10
-87.3312
 20
-78.9935
 11
-89.8192
 21
-76.9557
  0
LINE
  8
0
 10
-89.8192
 20
-76.9557
 11
-89.9639
 21
-75.463
  0
LINE
  8
0
 10
-85.4102
 20
22.5649
 11
-84.5602
 21
24.0371
  0
LINE
  8
0
 10
-84.5602
 20
24.0371
 11
-82.8602
 21
24.0371
  0
LINE
  8
0
 10
-82.8602
 20
24.0371
 11
-82.0102
 21
22.5649
  0
LINE
  8
0
 10
-82.0102
 20
22.5649
 11
-82.8602
 21
21.0926
  0
LINE
  8
0
 10
-82.8602
 20
21.0926
 11
-84.5602
 21
21.0926
  0
LINE
  8
0
 10
-84.5602
 20
21.0926
 11
-85.4102
 21
22.5649
  0
LINE
  8
0
 10
-81.0553
 20
-43.592
 11
-80.2053
 21
-42.1197
  0
LINE
  8
0
 10
-80.2053
 20
-42.1197
 11
-78.5053
 21
-42.1197
  0
LINE
  8
0
 10
-78.5053
 20
-42.1197
 11
-77.6553
 21
-43.592
  0
LINE
  8
0
 10
-77.6553
 20
-43.592
 11
-78.5053
 21
-45.0642
  0
LINE
  8
0
 10
-78.5053
 20
-45.0642
 11
-80.2053
 21
-45.0642
  0
LINE
  8
0
 10
-80.2053
 20
-45.0642
 11
-81.0553
 21
-43.592
  0
LINE
  8
0
 10
-19.086
 20
-66.3481
 11
-18.236
 21
-64.8759
  0
LINE
  8
0
 10
-18.236
 20
-64.8759
 11
-16.536
 21
-64.8759
  0
LINE
  8
0
 10
-16.536
 20
-64.8759
 11
-15.686
 21
-66.3481
  0
LINE
  8
0
 10
-15.686
 20
-66.3481
 11
-16.536
 21
-67.8204
  0
LINE
  8
0
 10
-16.536
 20
-67.8204
 11
-18.236
 21
-67.8204
  0
LINE
  8
0
 10
-18.236
 20
-67.8204
 11
-19.086
 21
-66.3481
  0
LINE
  8
0
 10
-3.76339
 20
39.6803
 11
-2.91339
 21
41.1526
  0
LINE
  8
0
 10
-2.91339
 20
41.1526
 11
-1.2134
 21
41.1526
  0
LINE
  8
0
 10
-1.2134
 20
41.1526
 11
-0.363395
 21
39.6803
  0
LINE
  8
0
 10
-0.363395
 20
39.6803
 11
-1.2134
 21
38.2081
  0
LINE
  8
0
 10
-1.2134
 20
38.2081
 11
-2.91339
 21
38.2081
  0
LINE
  8
0
 10
-2.91339
 20
38.2081
 11
-3.76339
 21
39.6803
  0
LINE
  8
0
 10
31.0094
 20
-12
 11
31.8594
 21
-10.5278
  0
LINE
  8
0
 10
31.8594
 20
-10.5278
 11
33.5594
 21
-10.5278
  0
LINE
  8
0
 10
33.5594
 20
-10.5278
 11
34.4094
 21
-12
  0
LINE
  8
0
 10
34.4094
 20
-12
 11
33.5594
 21
-13.4722
  0
LINE
  8
0
 10
33.5594
 20
-13.4722
 11
31.8594
 21
-13.4722
  0
LINE
  8
0
 10
31.8594
 20
-13.4722
 11
31.0094
 21
-12
  0
ENDSEC
  0
SECTION
  2
OBJECTS
  0
DICTIONARY
  0
ENDSEC
  0
EOF
