<?xml version="1.0" standalone="no"?>
<!DOCTYPE svg PUBLIC "-//W3C//DTD SVG 1.1//EN" "http://www.w3.org/Graphics/SVG/1.1/DTD/svg11.dtd">
<svg width="171mm" height="156mm" viewBox="-113 -69 171 156" xmlns="http://www.w3.org/2000/svg" version="1.1">
<title>OpenSCAD Model</title>
<path d="
M 8.7,-64.4386 L -12.0619,-67.2586 L -36.6617,-68.6361 L -54.8215,-68.8705 L -54.8215,-64.4386 L -47.2667,-64.4386
 L -47.2667,-68.6361 L -36.6617,-68.6361 L -36.6617,-64.4386 L -32.8305,-64.4386 L -29.3957,-67.2586 L -12.0619,-67.2586
 L -8.59999,-64.4386 L 8.7,-64.4386 L 12.1615,-52.4386 L 49.8677,-52.4386 z
M -111.098,45.889 L -101.381,37.7357 L -87.47,30.9217 L -88.6288,14.2113 L -88.8149,8.75 L -88.8149,-8.75
 L -88.6288,-14.2113 L -87.4633,-31.0184 L -86.9177,-36.1075 L -84.6659,-51.1764 L -77.6659,-58.1764 L -69.9602,-64.4386
 L -69.7493,-64.4386 L -69.7493,-68.8705 L -84.6659,-51.1764 L -112.354,47.4205 z
M -58.798,74.5343 L -50.5864,64.4386 L -53.2496,64.4386 L -53.5214,62.6199 L -52.7369,60.8699 L -47.6837,60.8699
 L -46.1687,59.0073 L -44.948,58.1749 L -44.8573,58.1589 L -44.3579,60.1709 L -44.9012,60.8699 L -32.4865,60.8699
 L -29.223,58.0499 L -11.8893,58.0499 L -8.59999,60.8699 L 11.2,60.8699 L 12.2,62.602 L 12.2,64.4386
 L 9.67805,64.4386 L 11.9889,72.8699 L 49.4252,72.8699 L 54.7834,68.5398 L 56.2767,53.6441 L 56.8468,45.719
 L 57.6198,29.1049 L 57.8142,20.6 L 57.8142,3.39999 L 57.6198,-5.10489 L 56.8468,-21.719 L 56.2767,-29.6441
 L 54.7834,-44.5398 L 49.4252,-48.8699 L 11.8893,-48.8699 L 8.59999,-60.8699 L -8.7,-60.8699 L -11.9889,-63.6899
 L -29.1234,-63.6899 L -32.388,-60.8699 L -36.6617,-60.8699 L -36.6617,-58.5361 L -47.2667,-58.5361 L -47.2667,-60.8699
 L -54.8215,-60.8699 L -54.8215,-55.7404 L -69.7493,-55.7404 L -69.7493,-60.6374 L -77.5659,-56.0764 L -82.5659,-51.0764
 L -84.8177,-36.0075 L -85.3633,-30.9184 L -86.5288,-14.1113 L -86.7149,-8.64999 L -86.7149,8.64999 L -86.5288,14.1113
 L -85.3633,30.9184 L -85.3633,31.0184 L -100.883,40.5217 L -109.58,47.8192 L -109.471,50.5994 L -109.58,54.0446
 L -98.0318,66.8853 L -95.7608,67.6473 L -86.2125,71.7559 L -73.7103,83.8153 L -68.0587,83.8338 L -67.2267,83.8953
 z
M -30,30 L -30,-30 L 30,-30 L 30,30 z
M 7.42705,-3.23663 L 8,-5 L 7.42705,-6.76335 L 5.92705,-7.85316 L 4.07294,-7.85316 L 2.57294,-6.76335
 L 2,-5 L 2.57294,-3.23663 L 4.07294,-2.14682 L 5.92705,-2.14682 z
M -2.57294,-3.23663 L -2,-5 L -2.57294,-6.76335 L -4.07294,-7.85316 L -5.92705,-7.85316 L -7.42705,-6.76335
 L -8,-5 L -7.42705,-3.23663 L -5.92705,-2.14682 L -4.07294,-2.14682 z
M 2.42705,1.76335 L 3,-0 L 2.42705,-1.76335 L 0.927048,-2.85316 L -0.927048,-2.85316 L -2.42705,-1.76335
 L -3,-0 L -2.42705,1.76335 L -0.927048,2.85316 L 0.927048,2.85316 z
M 7.42705,6.76335 L 8,5 L 7.42705,3.23663 L 5.92705,2.14682 L 4.07294,2.14682 L 2.57294,3.23663
 L 2,5 L 2.57294,6.76335 L 4.07294,7.85316 L 5.92705,7.85316 z
M -2.57294,6.76335 L -2,5 L -2.57294,3.23663 L -4.07294,2.14682 L -5.92705,2.14682 L -7.42705,3.23663
 L -8,5 L -7.42705,6.76335 L -5.92705,7.85316 L -4.07294,7.85316 z
M -74.0696,86.153 L -75.9151,86.1333 L -88.3928,74.0498 L -89.9777,73.5411 L -100.283,69.1492 L -110.774,57.5304
 L -112.011,56.2206 L -100.283,69.1492 L -75.9151,86.1333 L -66.925,86.6815 z
M 49.8677,76.4386 L 12.0619,76.4386 L 8.59999,64.4386 L -8.7,64.4386 L -12.1615,61.6186 L -29.2961,61.6186
 L -32.732,64.4386 L -47.6753,64.4386 L -55.6983,74.7597 L -65.3507,85.4798 L -66.925,86.6815 z
" stroke="black" fill="lightgray" stroke-width="0.5"/>
</svg>
