  0
SECTION
  2
BLOCKS
  0
ENDSEC
  0
SECTION
  2
ENTITIES
  0
LINE
  8
0
 10
-95.2711
 20
-73.0358
 11
-95.0676
 21
-75.0101
  0
LINE
  8
0
 10
-95.0676
 20
-75.0101
 11
-94.6549
 21
-79.0129
  0
LINE
  8
0
 10
-94.6549
 20
-79.0129
 11
-94.6014
 21
-79.0568
  0
LINE
  8
0
 10
-94.6014
 20
-79.0568
 11
-94.5775
 21
-79.0765
  0
LINE
  8
0
 10
-94.5775
 20
-79.0765
 11
-94.5775
 21
-79.0765
  0
LINE
  8
0
 10
-94.5775
 20
-79.0765
 11
-85.9578
 21
-86.1554
  0
LINE
  8
0
 10
-85.9578
 20
-86.1554
 11
-81.2139
 21
-90.0513
  0
LINE
  8
0
 10
-81.2139
 20
-90.0513
 11
-81.1846
 21
-90.0754
  0
LINE
  8
0
 10
-81.1846
 20
-90.0754
 11
-79.1808
 21
-91.0538
  0
LINE
  8
0
 10
-79.1808
 20
-91.0538
 11
-76.1912
 21
-91.3822
  0
LINE
  8
0
 10
-76.1912
 20
-91.3822
 11
-62.8465
 21
-103.181
  0
LINE
  8
0
 10
-62.8465
 20
-103.181
 11
-61.2363
 21
-103.174
  0
LINE
  8
0
 10
-61.2363
 20
-103.174
 11
-54.9222
 21
-103.144
  0
LINE
  8
0
 10
-54.9222
 20
-103.144
 11
-48.6574
 21
-99.128
  0
LINE
  8
0
 10
-48.6574
 20
-99.128
 11
-46.4033
 21
-96.8641
  0
LINE
  8
0
 10
-46.4033
 20
-96.8641
 11
-44.246
 21
-94.6975
  0
LINE
  8
0
 10
-44.246
 20
-94.6975
 11
-43.2778
 21
-93.3648
  0
LINE
  8
0
 10
-43.2778
 20
-93.3648
 11
-41.0879
 21
-90.3507
  0
LINE
  8
0
 10
-41.0879
 20
-90.3507
 11
-42.0151
 21
-86.7427
  0
LINE
  8
0
 10
-42.0151
 20
-86.7427
 11
-42.3555
 21
-85.4182
  0
LINE
  8
0
 10
-42.3555
 20
-85.4182
 11
-42.3555
 21
-85.4182
  0
LINE
  8
0
 10
-42.3555
 20
-85.4182
 11
-38.2278
 21
-80.8339
  0
LINE
  8
0
 10
-38.2278
 20
-80.8339
 11
-33.1554
 21
-75.2005
  0
LINE
  8
0
 10
-33.1554
 20
-75.2005
 11
-26.2069
 21
-70.5647
  0
LINE
  8
0
 10
-26.2069
 20
-70.5647
 11
-22.6578
 21
-68.1969
  0
LINE
  8
0
 10
-22.6578
 20
-68.1969
 11
-22.6388
 21
-68.2207
  0
LINE
  8
0
 10
-22.6388
 20
-68.2207
 11
-21.4804
 21
-69.6733
  0
LINE
  8
0
 10
-21.4804
 20
-69.6733
 11
-19.8065
 21
-70.4794
  0
LINE
  8
0
 10
-19.8065
 20
-70.4794
 11
-19.7751
 21
-70.4945
  0
LINE
  8
0
 10
-19.7751
 20
-70.4945
 11
-17.8824
 21
-70.4945
  0
LINE
  8
0
 10
-17.8824
 20
-70.4945
 11
-17.851
 21
-70.4794
  0
LINE
  8
0
 10
-17.851
 20
-70.4794
 11
-16.177
 21
-69.6733
  0
LINE
  8
0
 10
-16.177
 20
-69.6733
 11
-15.0186
 21
-68.2207
  0
LINE
  8
0
 10
-15.0186
 20
-68.2207
 11
-14.9969
 21
-68.1935
  0
LINE
  8
0
 10
-14.9969
 20
-68.1935
 11
-14.9891
 21
-68.1595
  0
LINE
  8
0
 10
-14.9891
 20
-68.1595
 11
-14.5757
 21
-66.3481
  0
LINE
  8
0
 10
-14.5757
 20
-66.3481
 11
-14.664
 21
-65.9614
  0
LINE
  8
0
 10
-14.664
 20
-65.9614
 11
-6.5022
 21
-64.4386
  0
LINE
  8
0
 10
-6.5022
 20
-64.4386
 11
2.37856
 21
-64.4386
  0
LINE
  8
0
 10
2.37856
 20
-64.4386
 11
2.43206
 21
-64.4386
  0
LINE
  8
0
 10
2.43206
 20
-64.4386
 11
13.5891
 21
-64.4386
  0
LINE
  8
0
 10
13.5891
 20
-64.4386
 11
17.7274
 21
-57.8831
  0
LINE
  8
0
 10
17.7274
 20
-57.8831
 11
20.5052
 21
-53.4828
  0
LINE
  8
0
 10
20.5052
 20
-53.4828
 11
28.8517
 21
-53.4828
  0
LINE
  8
0
 10
28.8517
 20
-53.4828
 11
28.9644
 21
-53.4828
  0
LINE
  8
0
 10
28.9644
 20
-53.4828
 11
30.6239
 21
-53.4828
  0
LINE
  8
0
 10
30.6239
 20
-53.4828
 11
36.1917
 21
-53.4828
  0
LINE
  8
0
 10
36.1917
 20
-53.4828
 11
36.2944
 21
-53.4828
  0
LINE
  8
0
 10
36.2944
 20
-53.4828
 11
36.3966
 21
-53.4828
  0
LINE
  8
0
 10
36.3966
 20
-53.4828
 11
38.4829
 21
-53.4828
  0
LINE
  8
0
 10
38.4829
 20
-53.4828
 11
38.4829
 21
-53.4828
  0
LINE
  8
0
 10
38.4829
 20
-53.4828
 11
48.9583
 21
-53.2381
  0
LINE
  8
0
 10
48.9583
 20
-53.2381
 11
53.6481
 21
-53.1286
  0
LINE
  8
0
 10
53.6481
 20
-53.1286
 11
53.6481
 21
-53.1286
  0
LINE
  8
0
 10
53.6481
 20
-53.1286
 11
53.7485
 21
-53.1263
  0
LINE
  8
0
 10
53.7485
 20
-53.1263
 11
56.9337
 21
-53.045
  0
LINE
  8
0
 10
56.9337
 20
-53.045
 11
59.7451
 21
-52.971
  0
LINE
  8
0
 10
59.7451
 20
-52.971
 11
77.0451
 21
-52.971
  0
LINE
  8
0
 10
77.0451
 20
-52.971
 11
82.7282
 21
-47.0875
  0
LINE
  8
0
 10
82.7282
 20
-47.0875
 11
83.8752
 21
-45.7744
  0
LINE
  8
0
 10
83.8752
 20
-45.7744
 11
83.9191
 21
-45.7241
  0
LINE
  8
0
 10
83.9191
 20
-45.7241
 11
83.8567
 21
-45.0492
  0
LINE
  8
0
 10
83.8567
 20
-45.0492
 11
82.2635
 21
-27.8138
  0
LINE
  8
0
 10
82.2635
 20
-27.8138
 11
82.0174
 21
-22.5796
  0
LINE
  8
0
 10
82.0174
 20
-22.5796
 11
81.9244
 21
-20.6
  0
LINE
  8
0
 10
81.9244
 20
-20.6
 11
81.9244
 21
-3.4
  0
LINE
  8
0
 10
81.9244
 20
-3.4
 11
82.0174
 21
-1.4204
  0
LINE
  8
0
 10
82.0174
 20
-1.4204
 11
82.2635
 21
3.81382
  0
LINE
  8
0
 10
82.2635
 20
3.81382
 11
83.8567
 21
21.0492
  0
LINE
  8
0
 10
83.8567
 20
21.0492
 11
83.9095
 21
21.6206
  0
LINE
  8
0
 10
83.9095
 20
21.6206
 11
83.9261
 21
21.7409
  0
LINE
  8
0
 10
83.9261
 20
21.7409
 11
84.0451
 21
22.6042
  0
LINE
  8
0
 10
84.0451
 20
22.6042
 11
84.0451
 21
31.5934
  0
LINE
  8
0
 10
84.0451
 20
31.5934
 11
84.0451
 21
35.453
  0
LINE
  8
0
 10
84.0451
 20
35.453
 11
84.6968
 21
35.7668
  0
LINE
  8
0
 10
84.6968
 20
35.7668
 11
85.8552
 21
37.2194
  0
LINE
  8
0
 10
85.8552
 20
37.2194
 11
85.8769
 21
37.2467
  0
LINE
  8
0
 10
85.8769
 20
37.2467
 11
85.8847
 21
37.2806
  0
LINE
  8
0
 10
85.8847
 20
37.2806
 11
86.2981
 21
39.092
  0
LINE
  8
0
 10
86.2981
 20
39.092
 11
85.8847
 21
40.9033
  0
LINE
  8
0
 10
85.8847
 20
40.9033
 11
85.8769
 21
40.9373
  0
LINE
  8
0
 10
85.8769
 20
40.9373
 11
85.8552
 21
40.9645
  0
LINE
  8
0
 10
85.8552
 20
40.9645
 11
84.6968
 21
42.4171
  0
LINE
  8
0
 10
84.6968
 20
42.4171
 11
84.0451
 21
42.731
  0
LINE
  8
0
 10
84.0451
 20
42.731
 11
84.0451
 21
46.3293
  0
LINE
  8
0
 10
84.0451
 20
46.3293
 11
84.0451
 21
49.7278
  0
LINE
  8
0
 10
84.0451
 20
49.7278
 11
84.0451
 21
49.7857
  0
LINE
  8
0
 10
84.0451
 20
49.7857
 11
84.0451
 21
53.7909
  0
LINE
  8
0
 10
84.0451
 20
53.7909
 11
84.0451
 21
60.9378
  0
LINE
  8
0
 10
84.0451
 20
60.9378
 11
84.0451
 21
66.0337
  0
LINE
  8
0
 10
84.0451
 20
66.0337
 11
84.0451
 21
66.0337
  0
LINE
  8
0
 10
84.0451
 20
66.0337
 11
84.0451
 21
66.0532
  0
LINE
  8
0
 10
84.0451
 20
66.0532
 11
78.977
 21
69.6369
  0
LINE
  8
0
 10
78.977
 20
69.6369
 11
77.0451
 21
71.003
  0
LINE
  8
0
 10
77.0451
 20
71.003
 11
57.2192
 21
71.003
  0
LINE
  8
0
 10
57.2192
 20
71.003
 11
56.4545
 21
71.003
  0
LINE
  8
0
 10
56.4545
 20
71.003
 11
43.3739
 21
71.003
  0
LINE
  8
0
 10
43.3739
 20
71.003
 11
39.229
 21
71.003
  0
LINE
  8
0
 10
39.229
 20
71.003
 11
37.0185
 21
71.003
  0
LINE
  8
0
 10
37.0185
 20
71.003
 11
36.9953
 21
71.003
  0
LINE
  8
0
 10
36.9953
 20
71.003
 11
36.3486
 21
71.003
  0
LINE
  8
0
 10
36.3486
 20
71.003
 11
23.2199
 21
71.003
  0
LINE
  8
0
 10
23.2199
 20
71.003
 11
19.3885
 21
71.003
  0
LINE
  8
0
 10
19.3885
 20
71.003
 11
18.3946
 21
73.8727
  0
LINE
  8
0
 10
18.3946
 20
73.8727
 11
15.2323
 21
83.003
  0
LINE
  8
0
 10
15.2323
 20
83.003
 11
10.3821
 21
83.003
  0
LINE
  8
0
 10
10.3821
 20
83.003
 11
10.2108
 21
83.7537
  0
LINE
  8
0
 10
10.2108
 20
83.7537
 11
10.203
 21
83.7876
  0
LINE
  8
0
 10
10.203
 20
83.7876
 11
10.1813
 21
83.8149
  0
LINE
  8
0
 10
10.1813
 20
83.8149
 11
9.02289
 21
85.2675
  0
LINE
  8
0
 10
9.02289
 20
85.2675
 11
7.34896
 21
86.0736
  0
LINE
  8
0
 10
7.34896
 20
86.0736
 11
7.31756
 21
86.0887
  0
LINE
  8
0
 10
7.31756
 20
86.0887
 11
5.42479
 21
86.0887
  0
LINE
  8
0
 10
5.42479
 20
86.0887
 11
5.3934
 21
86.0736
  0
LINE
  8
0
 10
5.3934
 20
86.0736
 11
3.71947
 21
85.2675
  0
LINE
  8
0
 10
3.71947
 20
85.2675
 11
2.56107
 21
83.8149
  0
LINE
  8
0
 10
2.56107
 20
83.8149
 11
2.53934
 21
83.7876
  0
LINE
  8
0
 10
2.53934
 20
83.7876
 11
2.53159
 21
83.7537
  0
LINE
  8
0
 10
2.53159
 20
83.7537
 11
2.36025
 21
83.003
  0
LINE
  8
0
 10
2.36025
 20
83.003
 11
-1.47824
 21
83.003
  0
LINE
  8
0
 10
-1.47824
 20
83.003
 11
-2.37264
 21
83.663
  0
LINE
  8
0
 10
-2.37264
 20
83.663
 11
-2.37271
 21
83.663
  0
LINE
  8
0
 10
-2.37271
 20
83.663
 11
-5.29981
 21
85.823
  0
LINE
  8
0
 10
-5.29981
 20
85.823
 11
-17.8235
 21
85.823
  0
LINE
  8
0
 10
-17.8235
 20
85.823
 11
-21.6311
 21
85.823
  0
LINE
  8
0
 10
-21.6311
 20
85.823
 11
-21.6505
 21
85.823
  0
LINE
  8
0
 10
-21.6505
 20
85.823
 11
-22.9159
 21
83.583
  0
LINE
  8
0
 10
-22.9159
 20
83.583
 11
-23.2437
 21
83.003
  0
LINE
  8
0
 10
-23.2437
 20
83.003
 11
-35.9944
 21
83.003
  0
LINE
  8
0
 10
-35.9944
 20
83.003
 11
-36.0135
 21
83.003
  0
LINE
  8
0
 10
-36.0135
 20
83.003
 11
-38.9079
 21
83.003
  0
LINE
  8
0
 10
-38.9079
 20
83.003
 11
-41.4208
 21
83.003
  0
LINE
  8
0
 10
-41.4208
 20
83.003
 11
-41.9136
 21
83.003
  0
LINE
  8
0
 10
-41.9136
 20
83.003
 11
-54.4901
 21
83.003
  0
LINE
  8
0
 10
-54.4901
 20
83.003
 11
-56.9098
 21
83.003
  0
LINE
  8
0
 10
-56.9098
 20
83.003
 11
-58.1829
 21
81.6
  0
LINE
  8
0
 10
-58.1829
 20
81.6
 11
-64.3081
 21
74.8502
  0
LINE
  8
0
 10
-64.3081
 20
74.8502
 11
-71.3081
 21
67.8502
  0
LINE
  8
0
 10
-71.3081
 20
67.8502
 11
-72.5399
 21
65.3865
  0
LINE
  8
0
 10
-72.5399
 20
65.3865
 11
-73.3562
 21
65.7796
  0
LINE
  8
0
 10
-73.3562
 20
65.7796
 11
-73.3876
 21
65.7947
  0
LINE
  8
0
 10
-73.3876
 20
65.7947
 11
-75.2804
 21
65.7947
  0
LINE
  8
0
 10
-75.2804
 20
65.7947
 11
-75.3118
 21
65.7796
  0
LINE
  8
0
 10
-75.3118
 20
65.7796
 11
-76.9857
 21
64.9735
  0
LINE
  8
0
 10
-76.9857
 20
64.9735
 11
-78.1441
 21
63.5209
  0
LINE
  8
0
 10
-78.1441
 20
63.5209
 11
-78.1659
 21
63.4937
  0
LINE
  8
0
 10
-78.1659
 20
63.4937
 11
-78.1736
 21
63.4597
  0
LINE
  8
0
 10
-78.1736
 20
63.4597
 11
-78.587
 21
61.6484
  0
LINE
  8
0
 10
-78.587
 20
61.6484
 11
-78.1736
 21
59.837
  0
LINE
  8
0
 10
-78.1736
 20
59.837
 11
-78.1659
 21
59.803
  0
LINE
  8
0
 10
-78.1659
 20
59.803
 11
-78.1441
 21
59.7758
  0
LINE
  8
0
 10
-78.1441
 20
59.7758
 11
-76.9857
 21
58.3232
  0
LINE
  8
0
 10
-76.9857
 20
58.3232
 11
-76.249
 21
57.9684
  0
LINE
  8
0
 10
-76.249
 20
57.9684
 11
-77.4599
 21
55.5465
  0
LINE
  8
0
 10
-77.4599
 20
55.5465
 11
-77.8351
 21
54.5686
  0
LINE
  8
0
 10
-77.8351
 20
54.5686
 11
-79.1366
 21
51.1764
  0
LINE
  8
0
 10
-79.1366
 20
51.1764
 11
-80.3051
 21
47.1285
  0
LINE
  8
0
 10
-80.3051
 20
47.1285
 11
-83.4866
 21
36.1075
  0
LINE
  8
0
 10
-83.4866
 20
36.1075
 11
-84.2575
 21
32.3855
  0
LINE
  8
0
 10
-84.2575
 20
32.3855
 11
-84.5406
 21
31.0184
  0
LINE
  8
0
 10
-84.5406
 20
31.0184
 11
-85.2541
 21
25.6926
  0
LINE
  8
0
 10
-85.2541
 20
25.6926
 11
-86.7923
 21
14.2113
  0
LINE
  8
0
 10
-86.7923
 20
14.2113
 11
-87.0379
 21
10.4806
  0
LINE
  8
0
 10
-87.0379
 20
10.4806
 11
-87.1518
 21
8.75
  0
LINE
  8
0
 10
-87.1518
 20
8.75
 11
-87.1518
 21
-8.75
  0
LINE
  8
0
 10
-87.1518
 20
-8.75
 11
-87.0379
 21
-10.4806
  0
LINE
  8
0
 10
-87.0379
 20
-10.4806
 11
-86.7923
 21
-14.2113
  0
LINE
  8
0
 10
-86.7923
 20
-14.2113
 11
-85.2541
 21
-25.6926
  0
LINE
  8
0
 10
-85.2541
 20
-25.6926
 11
-84.5406
 21
-31.0184
  0
LINE
  8
0
 10
-84.5406
 20
-31.0184
 11
-82.6935
 21
-34.2265
  0
LINE
  8
0
 10
-82.6935
 20
-34.2265
 11
-79.9461
 21
-38.9984
  0
LINE
  8
0
 10
-79.9461
 20
-38.9984
 11
-80.4789
 21
-39.4456
  0
LINE
  8
0
 10
-80.4789
 20
-39.4456
 11
-82.208
 21
-39.4456
  0
LINE
  8
0
 10
-82.208
 20
-39.4456
 11
-82.2394
 21
-39.4607
  0
LINE
  8
0
 10
-82.2394
 20
-39.4607
 11
-83.9133
 21
-40.2668
  0
LINE
  8
0
 10
-83.9133
 20
-40.2668
 11
-85.0717
 21
-41.7194
  0
LINE
  8
0
 10
-85.0717
 20
-41.7194
 11
-85.0934
 21
-41.7467
  0
LINE
  8
0
 10
-85.0934
 20
-41.7467
 11
-85.1012
 21
-41.7806
  0
LINE
  8
0
 10
-85.1012
 20
-41.7806
 11
-85.5146
 21
-43.592
  0
LINE
  8
0
 10
-85.5146
 20
-43.592
 11
-85.4995
 21
-43.6583
  0
LINE
  8
0
 10
-85.4995
 20
-43.6583
 11
-88.158
 21
-45.889
  0
LINE
  8
0
 10
-88.158
 20
-45.889
 11
-88.158
 21
-45.889
  0
LINE
  8
0
 10
-88.158
 20
-45.889
 11
-88.8772
 21
-46.766
  0
LINE
  8
0
 10
-88.8772
 20
-46.766
 11
-89.4139
 21
-47.4205
  0
LINE
  8
0
 10
-89.4139
 20
-47.4205
 11
-86.5659
 21
-54.5208
  0
LINE
  8
0
 10
-86.5659
 20
-54.5208
 11
-85.5345
 21
-57.0925
  0
LINE
  8
0
 10
-85.5345
 20
-57.0925
 11
-87.8439
 21
-60.0485
  0
LINE
  8
0
 10
-87.8439
 20
-60.0485
 11
-87.8441
 21
-60.0487
  0
LINE
  8
0
 10
-87.8441
 20
-60.0487
 11
-88.7508
 21
-61.2092
  0
LINE
  8
0
 10
-88.7508
 20
-61.2092
 11
-92.2502
 21
-67.5563
  0
LINE
  8
0
 10
-92.2502
 20
-67.5563
 11
-95.2114
 21
-72.9275
  0
LINE
  8
0
 10
-95.2114
 20
-72.9275
 11
-95.2114
 21
-72.9275
  0
LINE
  8
0
 10
-95.2114
 20
-72.9275
 11
-95.2711
 21
-73.0358
  0
LINE
  8
0
 10
-92.826
 20
-74.7913
 11
-83.3172
 21
-58.0537
  0
LINE
  8
0
 10
-83.3172
 20
-58.0537
 11
-83.3172
 21
-58.0537
  0
LINE
  8
0
 10
-83.3172
 20
-58.0537
 11
-83.2325
 21
-57.9453
  0
LINE
  8
0
 10
-83.2325
 20
-57.9453
 11
-82.5063
 21
-57.0158
  0
LINE
  8
0
 10
-82.5063
 20
-57.0158
 11
-82.5059
 21
-57.0153
  0
LINE
  8
0
 10
-82.5059
 20
-57.0153
 11
-82.5059
 21
-57.0153
  0
LINE
  8
0
 10
-82.5059
 20
-57.0153
 11
-82.4596
 21
-56.9561
  0
LINE
  8
0
 10
-82.4596
 20
-56.9561
 11
-85.3588
 21
-50.3272
  0
LINE
  8
0
 10
-85.3588
 20
-50.3272
 11
-86.5052
 21
-47.7061
  0
LINE
  8
0
 10
-86.5052
 20
-47.7061
 11
-84.5754
 21
-46.0869
  0
LINE
  8
0
 10
-84.5754
 20
-46.0869
 11
-83.9133
 21
-46.9171
  0
LINE
  8
0
 10
-83.9133
 20
-46.9171
 11
-82.2394
 21
-47.7232
  0
LINE
  8
0
 10
-82.2394
 20
-47.7232
 11
-82.208
 21
-47.7384
  0
LINE
  8
0
 10
-82.208
 20
-47.7384
 11
-80.3152
 21
-47.7384
  0
LINE
  8
0
 10
-80.3152
 20
-47.7384
 11
-80.2838
 21
-47.7232
  0
LINE
  8
0
 10
-80.2838
 20
-47.7232
 11
-78.6099
 21
-46.9171
  0
LINE
  8
0
 10
-78.6099
 20
-46.9171
 11
-77.4515
 21
-45.4645
  0
LINE
  8
0
 10
-77.4515
 20
-45.4645
 11
-77.4298
 21
-45.4373
  0
LINE
  8
0
 10
-77.4298
 20
-45.4373
 11
-77.422
 21
-45.4033
  0
LINE
  8
0
 10
-77.422
 20
-45.4033
 11
-77.0086
 21
-43.592
  0
LINE
  8
0
 10
-77.0086
 20
-43.592
 11
-77.422
 21
-41.7806
  0
LINE
  8
0
 10
-77.422
 20
-41.7806
 11
-77.4298
 21
-41.7467
  0
LINE
  8
0
 10
-77.4298
 20
-41.7467
 11
-77.4515
 21
-41.7194
  0
LINE
  8
0
 10
-77.4515
 20
-41.7194
 11
-78.2208
 21
-40.7547
  0
LINE
  8
0
 10
-78.2208
 20
-40.7547
 11
-77.8796
 21
-40.4684
  0
LINE
  8
0
 10
-77.8796
 20
-40.4684
 11
-77.8796
 21
-40.4684
  0
LINE
  8
0
 10
-77.8796
 20
-40.4684
 11
-77.339
 21
-39.8092
  0
LINE
  8
0
 10
-77.339
 20
-39.8092
 11
-77.3389
 21
-39.8091
  0
LINE
  8
0
 10
-77.3389
 20
-39.8091
 11
-76.6237
 21
-38.937
  0
LINE
  8
0
 10
-76.6237
 20
-38.937
 11
-76.6237
 21
-38.937
  0
LINE
  8
0
 10
-76.6237
 20
-38.937
 11
-78.1195
 21
-36.875
  0
LINE
  8
0
 10
-78.1195
 20
-36.875
 11
-82.4406
 21
-30.9184
  0
LINE
  8
0
 10
-82.4406
 20
-30.9184
 11
-82.9056
 21
-27.4471
  0
LINE
  8
0
 10
-82.9056
 20
-27.4471
 11
-75.7887
 21
-27.4471
  0
LINE
  8
0
 10
-75.7887
 20
-27.4471
 11
-75.7887
 21
25.4471
  0
LINE
  8
0
 10
-75.7887
 20
25.4471
 11
-83.1736
 21
25.4471
  0
LINE
  8
0
 10
-83.1736
 20
25.4471
 11
-82.4406
 21
30.9184
  0
LINE
  8
0
 10
-82.4406
 20
30.9184
 11
-82.1816
 21
32.169
  0
LINE
  8
0
 10
-82.1816
 20
32.169
 11
-81.3866
 21
36.0075
  0
LINE
  8
0
 10
-81.3866
 20
36.0075
 11
-78.1055
 21
47.3735
  0
LINE
  8
0
 10
-78.1055
 20
47.3735
 11
-77.0366
 21
51.0764
  0
LINE
  8
0
 10
-77.0366
 20
51.0764
 11
-75.7081
 21
54.539
  0
LINE
  8
0
 10
-75.7081
 20
54.539
 11
-75.3599
 21
55.4465
  0
LINE
  8
0
 10
-75.3599
 20
55.4465
 11
-74.361
 21
57.4444
  0
LINE
  8
0
 10
-74.361
 20
57.4444
 11
-74.3322
 21
57.502
  0
LINE
  8
0
 10
-74.3322
 20
57.502
 11
-73.3876
 21
57.502
  0
LINE
  8
0
 10
-73.3876
 20
57.502
 11
-73.3562
 21
57.5171
  0
LINE
  8
0
 10
-73.3562
 20
57.5171
 11
-71.6823
 21
58.3232
  0
LINE
  8
0
 10
-71.6823
 20
58.3232
 11
-70.5239
 21
59.7758
  0
LINE
  8
0
 10
-70.5239
 20
59.7758
 11
-70.5022
 21
59.803
  0
LINE
  8
0
 10
-70.5022
 20
59.803
 11
-70.4944
 21
59.837
  0
LINE
  8
0
 10
-70.4944
 20
59.837
 11
-70.081
 21
61.6484
  0
LINE
  8
0
 10
-70.081
 20
61.6484
 11
-70.4944
 21
63.4597
  0
LINE
  8
0
 10
-70.4944
 20
63.4597
 11
-70.5022
 21
63.4937
  0
LINE
  8
0
 10
-70.5022
 20
63.4937
 11
-70.5239
 21
63.5209
  0
LINE
  8
0
 10
-70.5239
 20
63.5209
 11
-71.0149
 21
64.1366
  0
LINE
  8
0
 10
-71.0149
 20
64.1366
 11
-69.2081
 21
67.7502
  0
LINE
  8
0
 10
-69.2081
 20
67.7502
 11
-64.2081
 21
72.7502
  0
LINE
  8
0
 10
-64.2081
 20
72.7502
 11
-63.109
 21
73.6279
  0
LINE
  8
0
 10
-63.109
 20
73.6279
 11
-56.3282
 21
79.0432
  0
LINE
  8
0
 10
-56.3282
 20
79.0432
 11
-43.4462
 21
79.0432
  0
LINE
  8
0
 10
-43.4462
 20
79.0432
 11
-41.3596
 21
79.0432
  0
LINE
  8
0
 10
-41.3596
 20
79.0432
 11
-38.8916
 21
79.0432
  0
LINE
  8
0
 10
-38.8916
 20
79.0432
 11
-38.4284
 21
79.0432
  0
LINE
  8
0
 10
-38.4284
 20
79.0432
 11
-25.2771
 21
79.0432
  0
LINE
  8
0
 10
-25.2771
 20
79.0432
 11
-22.7512
 21
79.0432
  0
LINE
  8
0
 10
-22.7512
 20
79.0432
 11
-22.7512
 21
79.0432
  0
LINE
  8
0
 10
-22.7512
 20
79.0432
 11
-22.7347
 21
79.0432
  0
LINE
  8
0
 10
-22.7347
 20
79.0432
 11
-22.4283
 21
79.6128
  0
LINE
  8
0
 10
-22.4283
 20
79.6128
 11
-21.2179
 21
81.8632
  0
LINE
  8
0
 10
-21.2179
 20
81.8632
 11
-8.26162
 21
81.8632
  0
LINE
  8
0
 10
-8.26162
 20
81.8632
 11
-5.05519
 21
81.8632
  0
LINE
  8
0
 10
-5.05519
 20
81.8632
 11
-2.17408
 21
79.6888
  0
LINE
  8
0
 10
-2.17408
 20
79.6888
 11
-2.17401
 21
79.6887
  0
LINE
  8
0
 10
-2.17401
 20
79.6887
 11
-1.31862
 21
79.0432
  0
LINE
  8
0
 10
-1.31862
 20
79.0432
 11
3.37975
 21
79.0432
  0
LINE
  8
0
 10
3.37975
 20
79.0432
 11
3.71947
 21
78.6172
  0
LINE
  8
0
 10
3.71947
 20
78.6172
 11
5.3934
 21
77.8111
  0
LINE
  8
0
 10
5.3934
 20
77.8111
 11
5.42479
 21
77.7959
  0
LINE
  8
0
 10
5.42479
 20
77.7959
 11
7.31756
 21
77.7959
  0
LINE
  8
0
 10
7.31756
 20
77.7959
 11
7.34896
 21
77.8111
  0
LINE
  8
0
 10
7.34896
 20
77.8111
 11
9.02289
 21
78.6172
  0
LINE
  8
0
 10
9.02289
 20
78.6172
 11
9.36261
 21
79.0432
  0
LINE
  8
0
 10
9.36261
 20
79.0432
 11
11.9295
 21
79.0432
  0
LINE
  8
0
 10
11.9295
 20
79.0432
 11
15.3919
 21
79.0432
  0
LINE
  8
0
 10
15.3919
 20
79.0432
 11
16.2476
 21
76.5202
  0
LINE
  8
0
 10
16.2476
 20
76.5202
 11
19.4619
 21
67.0432
  0
LINE
  8
0
 10
19.4619
 20
67.0432
 11
32.9949
 21
67.0432
  0
LINE
  8
0
 10
32.9949
 20
67.0432
 11
33.0143
 21
67.0432
  0
LINE
  8
0
 10
33.0143
 20
67.0432
 11
36.5755
 21
67.0432
  0
LINE
  8
0
 10
36.5755
 20
67.0432
 11
38.743
 21
67.0432
  0
LINE
  8
0
 10
38.743
 20
67.0432
 11
38.7649
 21
67.0432
  0
LINE
  8
0
 10
38.7649
 20
67.0432
 11
39.3811
 21
67.0432
  0
LINE
  8
0
 10
39.3811
 20
67.0432
 11
52.6926
 21
67.0432
  0
LINE
  8
0
 10
52.6926
 20
67.0432
 11
56.6026
 21
67.0432
  0
LINE
  8
0
 10
56.6026
 20
67.0432
 11
58.9891
 21
67.0432
  0
LINE
  8
0
 10
58.9891
 20
67.0432
 11
59.0123
 21
67.0432
  0
LINE
  8
0
 10
59.0123
 20
67.0432
 11
59.7451
 21
67.0432
  0
LINE
  8
0
 10
59.7451
 20
67.0432
 11
76.9451
 21
67.0432
  0
LINE
  8
0
 10
76.9451
 20
67.0432
 11
78.2399
 21
66.1276
  0
LINE
  8
0
 10
78.2399
 20
66.1276
 11
81.9451
 21
63.5076
  0
LINE
  8
0
 10
81.9451
 20
63.5076
 11
81.9451
 21
54.455
  0
LINE
  8
0
 10
81.9451
 20
54.455
 11
81.9451
 21
51.3013
  0
LINE
  8
0
 10
81.9451
 20
51.3013
 11
81.9451
 21
47.1008
  0
LINE
  8
0
 10
81.9451
 20
47.1008
 11
81.9451
 21
44.5702
  0
LINE
  8
0
 10
81.9451
 20
44.5702
 11
81.9451
 21
43.2384
  0
LINE
  8
0
 10
81.9451
 20
43.2384
 11
81.0987
 21
43.2384
  0
LINE
  8
0
 10
81.0987
 20
43.2384
 11
81.0673
 21
43.2232
  0
LINE
  8
0
 10
81.0673
 20
43.2232
 11
79.3934
 21
42.4171
  0
LINE
  8
0
 10
79.3934
 20
42.4171
 11
78.235
 21
40.9645
  0
LINE
  8
0
 10
78.235
 20
40.9645
 11
78.2133
 21
40.9373
  0
LINE
  8
0
 10
78.2133
 20
40.9373
 11
78.2055
 21
40.9033
  0
LINE
  8
0
 10
78.2055
 20
40.9033
 11
77.7921
 21
39.092
  0
LINE
  8
0
 10
77.7921
 20
39.092
 11
78.2055
 21
37.2806
  0
LINE
  8
0
 10
78.2055
 20
37.2806
 11
78.2133
 21
37.2467
  0
LINE
  8
0
 10
78.2133
 20
37.2467
 11
78.235
 21
37.2194
  0
LINE
  8
0
 10
78.235
 20
37.2194
 11
79.3934
 21
35.7668
  0
LINE
  8
0
 10
79.3934
 20
35.7668
 11
81.0673
 21
34.9607
  0
LINE
  8
0
 10
81.0673
 20
34.9607
 11
81.0987
 21
34.9456
  0
LINE
  8
0
 10
81.0987
 20
34.9456
 11
81.9451
 21
34.9456
  0
LINE
  8
0
 10
81.9451
 20
34.9456
 11
81.9451
 21
31.5934
  0
LINE
  8
0
 10
81.9451
 20
31.5934
 11
81.8816
 21
31.2123
  0
LINE
  8
0
 10
81.8816
 20
31.2123
 11
80.8206
 21
22.9656
  0
LINE
  8
0
 10
80.8206
 20
22.9656
 11
80.6608
 21
21.7241
  0
LINE
  8
0
 10
80.6608
 20
21.7241
 11
80.6585
 21
21.6975
  0
LINE
  8
0
 10
80.6585
 20
21.6975
 11
80.6519
 21
21.6206
  0
LINE
  8
0
 10
80.6519
 20
21.6206
 11
79.1118
 21
3.76888
  0
LINE
  8
0
 10
79.1118
 20
3.76888
 11
79.1106
 21
3.75513
  0
LINE
  8
0
 10
79.1106
 20
3.75513
 11
79.1067
 21
3.71029
  0
LINE
  8
0
 10
79.1067
 20
3.71029
 11
78.9397
 21
-0.095109
  0
LINE
  8
0
 10
78.9397
 20
-0.095109
 11
78.7991
 21
-3.3
  0
LINE
  8
0
 10
78.7991
 20
-3.3
 11
78.7991
 21
-20.7
  0
LINE
  8
0
 10
78.7991
 20
-20.7
 11
78.9397
 21
-23.9049
  0
LINE
  8
0
 10
78.9397
 20
-23.9049
 11
79.1067
 21
-27.7103
  0
LINE
  8
0
 10
79.1067
 20
-27.7103
 11
79.1106
 21
-27.7551
  0
LINE
  8
0
 10
79.1106
 20
-27.7551
 11
79.1118
 21
-27.7689
  0
LINE
  8
0
 10
79.1118
 20
-27.7689
 11
80.6519
 21
-45.6206
  0
LINE
  8
0
 10
80.6519
 20
-45.6206
 11
76.9451
 21
-49.8345
  0
LINE
  8
0
 10
76.9451
 20
-49.8345
 11
59.6451
 21
-49.8345
  0
LINE
  8
0
 10
59.6451
 20
-49.8345
 11
54.3939
 21
-50.1695
  0
LINE
  8
0
 10
54.3939
 20
-50.1695
 11
53.6481
 21
-50.2228
  0
LINE
  8
0
 10
53.6481
 20
-50.2228
 11
53.6481
 21
-50.2228
  0
LINE
  8
0
 10
53.6481
 20
-50.2228
 11
47.9886
 21
-50.5485
  0
LINE
  8
0
 10
47.9886
 20
-50.5485
 11
40.5337
 21
-50.5485
  0
LINE
  8
0
 10
40.5337
 20
-50.5485
 11
36.6034
 21
-50.5485
  0
LINE
  8
0
 10
36.6034
 20
-50.5485
 11
32.5932
 21
-50.5485
  0
LINE
  8
0
 10
32.5932
 20
-50.5485
 11
31.0551
 21
-50.5485
  0
LINE
  8
0
 10
31.0551
 20
-50.5485
 11
20.9493
 21
-50.5485
  0
LINE
  8
0
 10
20.9493
 20
-50.5485
 11
13.9905
 21
-50.5485
  0
LINE
  8
0
 10
13.9905
 20
-50.5485
 11
13.7521
 21
-50.9163
  0
LINE
  8
0
 10
13.7521
 20
-50.9163
 11
13.4035
 21
-51.4543
  0
LINE
  8
0
 10
13.4035
 20
-51.4543
 11
13.4675
 21
-52.8297
  0
LINE
  8
0
 10
13.4675
 20
-52.8297
 11
13.4934
 21
-53.3862
  0
LINE
  8
0
 10
13.4934
 20
-53.3862
 11
13.4965
 21
-53.4548
  0
LINE
  8
0
 10
13.4965
 20
-53.4548
 11
13.4978
 21
-53.4828
  0
LINE
  8
0
 10
13.4978
 20
-53.4828
 11
13.4978
 21
-53.4828
  0
LINE
  8
0
 10
13.4978
 20
-53.4828
 11
17.1882
 21
-53.4828
  0
LINE
  8
0
 10
17.1882
 20
-53.4828
 11
16.1719
 21
-55.2924
  0
LINE
  8
0
 10
16.1719
 20
-55.2924
 11
13.0393
 21
-60.8699
  0
LINE
  8
0
 10
13.0393
 20
-60.8699
 11
6.64344
 21
-60.8699
  0
LINE
  8
0
 10
6.64344
 20
-60.8699
 11
-6.08605
 21
-60.8699
  0
LINE
  8
0
 10
-6.08605
 20
-60.8699
 11
-10.5968
 21
-61.9561
  0
LINE
  8
0
 10
-10.5968
 20
-61.9561
 11
-15.9918
 21
-63.2552
  0
LINE
  8
0
 10
-15.9918
 20
-63.2552
 11
-16.177
 21
-63.023
  0
LINE
  8
0
 10
-16.177
 20
-63.023
 11
-17.851
 21
-62.2169
  0
LINE
  8
0
 10
-17.851
 20
-62.2169
 11
-17.8824
 21
-62.2018
  0
LINE
  8
0
 10
-17.8824
 20
-62.2018
 11
-19.7751
 21
-62.2018
  0
LINE
  8
0
 10
-19.7751
 20
-62.2018
 11
-19.8065
 21
-62.2169
  0
LINE
  8
0
 10
-19.8065
 20
-62.2169
 11
-21.4804
 21
-63.023
  0
LINE
  8
0
 10
-21.4804
 20
-63.023
 11
-22.6388
 21
-64.4756
  0
LINE
  8
0
 10
-22.6388
 20
-64.4756
 11
-22.6606
 21
-64.5028
  0
LINE
  8
0
 10
-22.6606
 20
-64.5028
 11
-22.6683
 21
-64.5368
  0
LINE
  8
0
 10
-22.6683
 20
-64.5368
 11
-22.9957
 21
-65.9713
  0
LINE
  8
0
 10
-22.9957
 20
-65.9713
 11
-26.4389
 21
-68.2088
  0
LINE
  8
0
 10
-26.4389
 20
-68.2088
 11
-34.2285
 21
-73.271
  0
LINE
  8
0
 10
-34.2285
 20
-73.271
 11
-35.1204
 21
-73.9518
  0
LINE
  8
0
 10
-35.1204
 20
-73.9518
 11
-35.8028
 21
-74.4727
  0
LINE
  8
0
 10
-35.8028
 20
-74.4727
 11
-35.8243
 21
-74.4965
  0
LINE
  8
0
 10
-35.8243
 20
-74.4965
 11
-41.7118
 21
-81.0353
  0
LINE
  8
0
 10
-41.7118
 20
-81.0353
 11
-45.4338
 21
-85.169
  0
LINE
  8
0
 10
-45.4338
 20
-85.169
 11
-45.4338
 21
-85.169
  0
LINE
  8
0
 10
-45.4338
 20
-85.169
 11
-45.4552
 21
-85.1928
  0
LINE
  8
0
 10
-45.4552
 20
-85.1928
 11
-45.0641
 21
-87.0078
  0
LINE
  8
0
 10
-45.0641
 20
-87.0078
 11
-44.4426
 21
-89.8924
  0
LINE
  8
0
 10
-44.4426
 20
-89.8924
 11
-47.513
 21
-94.1185
  0
LINE
  8
0
 10
-47.513
 20
-94.1185
 11
-47.5535
 21
-94.1742
  0
LINE
  8
0
 10
-47.5535
 20
-94.1742
 11
-57.759
 21
-100.935
  0
LINE
  8
0
 10
-57.759
 20
-100.935
 11
-60.7959
 21
-100.976
  0
LINE
  8
0
 10
-60.7959
 20
-100.976
 11
-73.4622
 21
-89.8947
  0
LINE
  8
0
 10
-73.4622
 20
-89.8947
 11
-74.1292
 21
-89.3112
  0
LINE
  8
0
 10
-74.1292
 20
-89.3112
 11
-74.1292
 21
-89.3112
  0
LINE
  8
0
 10
-74.1292
 20
-89.3112
 11
-74.204
 21
-89.2458
  0
LINE
  8
0
 10
-74.204
 20
-89.2458
 11
-74.2067
 21
-89.2434
  0
LINE
  8
0
 10
-74.2067
 20
-89.2434
 11
-74.5119
 21
-89.0942
  0
LINE
  8
0
 10
-74.5119
 20
-89.0942
 11
-79.3028
 21
-87.7014
  0
LINE
  8
0
 10
-79.3028
 20
-87.7014
 11
-89.2847
 21
-79.5257
  0
LINE
  8
0
 10
-89.2847
 20
-79.5257
 11
-92.633
 21
-76.7834
  0
LINE
  8
0
 10
-92.633
 20
-76.7834
 11
-92.826
 21
-74.7913
  0
LINE
  8
0
 10
-85.0518
 20
-8.65
 11
-85.0518
 21
8.65
  0
LINE
  8
0
 10
-85.0518
 20
8.65
 11
-84.9492
 21
10.2092
  0
LINE
  8
0
 10
-84.9492
 20
10.2092
 11
-84.7887
 21
12.6476
  0
LINE
  8
0
 10
-84.7887
 20
12.6476
 11
-84.7887
 21
-12.6476
  0
LINE
  8
0
 10
-84.7887
 20
-12.6476
 11
-84.9492
 21
-10.2092
  0
LINE
  8
0
 10
-84.9492
 20
-10.2092
 11
-85.0518
 21
-8.65
  0
LINE
  8
0
 10
-82.9616
 20
-43.592
 11
-82.1116
 21
-42.1197
  0
LINE
  8
0
 10
-82.1116
 20
-42.1197
 11
-80.4116
 21
-42.1197
  0
LINE
  8
0
 10
-80.4116
 20
-42.1197
 11
-79.5616
 21
-43.592
  0
LINE
  8
0
 10
-79.5616
 20
-43.592
 11
-80.4116
 21
-45.0642
  0
LINE
  8
0
 10
-80.4116
 20
-45.0642
 11
-82.1116
 21
-45.0642
  0
LINE
  8
0
 10
-82.1116
 20
-45.0642
 11
-82.9616
 21
-43.592
  0
LINE
  8
0
 10
-76.034
 20
61.6484
 11
-75.184
 21
63.1206
  0
LINE
  8
0
 10
-75.184
 20
63.1206
 11
-73.484
 21
63.1206
  0
LINE
  8
0
 10
-73.484
 20
63.1206
 11
-72.634
 21
61.6484
  0
LINE
  8
0
 10
-72.634
 20
61.6484
 11
-73.484
 21
60.1761
  0
LINE
  8
0
 10
-73.484
 20
60.1761
 11
-75.184
 21
60.1761
  0
LINE
  8
0
 10
-75.184
 20
60.1761
 11
-76.034
 21
61.6484
  0
LINE
  8
0
 10
-20.5287
 20
-66.3481
 11
-19.6787
 21
-64.8759
  0
LINE
  8
0
 10
-19.6787
 20
-64.8759
 11
-17.9787
 21
-64.8759
  0
LINE
  8
0
 10
-17.9787
 20
-64.8759
 11
-17.1287
 21
-66.3481
  0
LINE
  8
0
 10
-17.1287
 20
-66.3481
 11
-17.9787
 21
-67.8204
  0
LINE
  8
0
 10
-17.9787
 20
-67.8204
 11
-19.6787
 21
-67.8204
  0
LINE
  8
0
 10
-19.6787
 20
-67.8204
 11
-20.5287
 21
-66.3481
  0
LINE
  8
0
 10
4.67118
 20
81.9423
 11
5.52118
 21
83.4146
  0
LINE
  8
0
 10
5.52118
 20
83.4146
 11
7.22118
 21
83.4146
  0
LINE
  8
0
 10
7.22118
 20
83.4146
 11
8.07118
 21
81.9423
  0
LINE
  8
0
 10
8.07118
 20
81.9423
 11
7.22118
 21
80.4701
  0
LINE
  8
0
 10
7.22118
 20
80.4701
 11
5.52118
 21
80.4701
  0
LINE
  8
0
 10
5.52118
 20
80.4701
 11
4.67118
 21
81.9423
  0
LINE
  8
0
 10
80.3451
 20
39.092
 11
81.1951
 21
40.5642
  0
LINE
  8
0
 10
81.1951
 20
40.5642
 11
82.8951
 21
40.5642
  0
LINE
  8
0
 10
82.8951
 20
40.5642
 11
83.7451
 21
39.092
  0
LINE
  8
0
 10
83.7451
 20
39.092
 11
82.8951
 21
37.6197
  0
LINE
  8
0
 10
82.8951
 20
37.6197
 11
81.1951
 21
37.6197
  0
LINE
  8
0
 10
81.1951
 20
37.6197
 11
80.3451
 21
39.092
  0
ENDSEC
  0
SECTION
  2
OBJECTS
  0
DICTIONARY
  0
ENDSEC
  0
EOF
