  0
SECTION
  2
BLOCKS
  0
ENDSEC
  0
SECTION
  2
ENTITIES
  0
LINE
  8
0
 10
-75.5796
 20
-71.9974
 11
-74.8725
 21
-78.8557
  0
LINE
  8
0
 10
-74.8725
 20
-78.8557
 11
-74.6078
 21
-81.423
  0
LINE
  8
0
 10
-74.6078
 20
-81.423
 11
-74.5986
 21
-81.4305
  0
LINE
  8
0
 10
-74.5986
 20
-81.4305
 11
-72.8878
 21
-82.8356
  0
LINE
  8
0
 10
-72.8878
 20
-82.8356
 11
-61.1375
 21
-92.4854
  0
LINE
  8
0
 10
-61.1375
 20
-92.4854
 11
-60.129
 21
-92.9866
  0
LINE
  8
0
 10
-60.129
 20
-92.9866
 11
-57.7987
 21
-93.2909
  0
LINE
  8
0
 10
-57.7987
 20
-93.2909
 11
-56.5885
 21
-92.9106
  0
LINE
  8
0
 10
-56.5885
 20
-92.9106
 11
-55.3323
 21
-92.356
  0
LINE
  8
0
 10
-55.3323
 20
-92.356
 11
-53.7495
 21
-94.8637
  0
LINE
  8
0
 10
-53.7495
 20
-94.8637
 11
-52.3445
 21
-97.0895
  0
LINE
  8
0
 10
-52.3445
 20
-97.0895
 11
-45.1584
 21
-103.443
  0
LINE
  8
0
 10
-45.1584
 20
-103.443
 11
-43.0952
 21
-105.268
  0
LINE
  8
0
 10
-43.0952
 20
-105.268
 11
-36.6336
 21
-105.237
  0
LINE
  8
0
 10
-36.6336
 20
-105.237
 11
-31.0246
 21
-105.21
  0
LINE
  8
0
 10
-31.0246
 20
-105.21
 11
-30.9168
 21
-105.141
  0
LINE
  8
0
 10
-30.9168
 20
-105.141
 11
-27.6604
 21
-103.054
  0
LINE
  8
0
 10
-27.6604
 20
-103.054
 11
-24.1388
 21
-100.796
  0
LINE
  8
0
 10
-24.1388
 20
-100.796
 11
-21.9781
 21
-98.6263
  0
LINE
  8
0
 10
-21.9781
 20
-98.6263
 11
-19.7273
 21
-96.3658
  0
LINE
  8
0
 10
-19.7273
 20
-96.3658
 11
-19.7273
 21
-96.3658
  0
LINE
  8
0
 10
-19.7273
 20
-96.3658
 11
-18.9159
 21
-95.249
  0
LINE
  8
0
 10
-18.9159
 20
-95.249
 11
-18.9157
 21
-95.2488
  0
LINE
  8
0
 10
-18.9157
 20
-95.2488
 11
-16.891
 21
-92.462
  0
LINE
  8
0
 10
-16.891
 20
-92.462
 11
-16.891
 21
-92.462
  0
LINE
  8
0
 10
-16.891
 20
-92.462
 11
-16.8533
 21
-92.4101
  0
LINE
  8
0
 10
-16.8533
 20
-92.4101
 11
-17.149
 21
-91.2463
  0
LINE
  8
0
 10
-17.149
 20
-91.2463
 11
-18.0893
 21
-87.5449
  0
LINE
  8
0
 10
-18.0893
 20
-87.5449
 11
-18.0893
 21
-87.5449
  0
LINE
  8
0
 10
-18.0893
 20
-87.5449
 11
-13.826
 21
-82.8099
  0
LINE
  8
0
 10
-13.826
 20
-82.8099
 11
-8.84641
 21
-77.2796
  0
LINE
  8
0
 10
-8.84641
 20
-77.2796
 11
-5.77148
 21
-75.1823
  0
LINE
  8
0
 10
-5.77148
 20
-75.1823
 11
1.10149
 21
-70.4945
  0
LINE
  8
0
 10
1.10149
 20
-70.4945
 11
2.55915
 21
-70.4945
  0
LINE
  8
0
 10
2.55915
 20
-70.4945
 11
2.59055
 21
-70.4794
  0
LINE
  8
0
 10
2.59055
 20
-70.4794
 11
4.26448
 21
-69.6733
  0
LINE
  8
0
 10
4.26448
 20
-69.6733
 11
4.54667
 21
-69.3194
  0
LINE
  8
0
 10
4.54667
 20
-69.3194
 11
5.50865
 21
-69.0704
  0
LINE
  8
0
 10
5.50865
 20
-69.0704
 11
13.3645
 21
-67.0366
  0
LINE
  8
0
 10
13.3645
 20
-67.0366
 11
21.341
 21
-67.0366
  0
LINE
  8
0
 10
21.341
 20
-67.0366
 11
21.3824
 21
-67.0366
  0
LINE
  8
0
 10
21.3824
 20
-67.0366
 11
35.3257
 21
-67.0366
  0
LINE
  8
0
 10
35.3257
 20
-67.0366
 11
39.852
 21
-61.0298
  0
LINE
  8
0
 10
39.852
 20
-61.0298
 11
43.3554
 21
-56.3805
  0
LINE
  8
0
 10
43.3554
 20
-56.3805
 11
43.3613
 21
-56.3805
  0
LINE
  8
0
 10
43.3613
 20
-56.3805
 11
43.4246
 21
-56.3805
  0
LINE
  8
0
 10
43.4246
 20
-56.3805
 11
50.5862
 21
-56.3805
  0
LINE
  8
0
 10
50.5862
 20
-56.3805
 11
52.9545
 21
-56.3805
  0
LINE
  8
0
 10
52.9545
 20
-56.3805
 11
72.0377
 21
-56.3805
  0
LINE
  8
0
 10
72.0377
 20
-56.3805
 11
76.1334
 21
-52.4244
  0
LINE
  8
0
 10
76.1334
 20
-52.4244
 11
82.0377
 21
-46.7213
  0
LINE
  8
0
 10
82.0377
 20
-46.7213
 11
82.0377
 21
-46.654
  0
LINE
  8
0
 10
82.0377
 20
-46.654
 11
82.0377
 21
-30.2333
  0
LINE
  8
0
 10
82.0377
 20
-30.2333
 11
82.0377
 21
6.23327
  0
LINE
  8
0
 10
82.0377
 20
6.23327
 11
82.0377
 21
22.654
  0
LINE
  8
0
 10
82.0377
 20
22.654
 11
82.0377
 21
22.7213
  0
LINE
  8
0
 10
82.0377
 20
22.7213
 11
76.1334
 21
28.4244
  0
LINE
  8
0
 10
76.1334
 20
28.4244
 11
72.0377
 21
32.3805
  0
LINE
  8
0
 10
72.0377
 20
32.3805
 11
52.9545
 21
32.3805
  0
LINE
  8
0
 10
52.9545
 20
32.3805
 11
50.5862
 21
32.3805
  0
LINE
  8
0
 10
50.5862
 20
32.3805
 11
43.4246
 21
32.3805
  0
LINE
  8
0
 10
43.4246
 20
32.3805
 11
43.3613
 21
32.3805
  0
LINE
  8
0
 10
43.3613
 20
32.3805
 11
33.3935
 21
32.3805
  0
LINE
  8
0
 10
33.3935
 20
32.3805
 11
31.1034
 21
37.5111
  0
LINE
  8
0
 10
31.1034
 20
37.5111
 11
28.4416
 21
43.4747
  0
LINE
  8
0
 10
28.4416
 20
43.4747
 11
28.0142
 21
44.1341
  0
LINE
  8
0
 10
28.0142
 20
44.1341
 11
27.8545
 21
44.3805
  0
LINE
  8
0
 10
27.8545
 20
44.3805
 11
23.1934
 21
44.3805
  0
LINE
  8
0
 10
23.1934
 20
44.3805
 11
23.1062
 21
44.3805
  0
LINE
  8
0
 10
23.1062
 20
44.3805
 11
10.8173
 21
44.3805
  0
LINE
  8
0
 10
10.8173
 20
44.3805
 11
8.73635
 21
45.513
  0
LINE
  8
0
 10
8.73635
 20
45.513
 11
5.63541
 21
47.2006
  0
LINE
  8
0
 10
5.63541
 20
47.2006
 11
1.4799
 21
47.2006
  0
LINE
  8
0
 10
1.4799
 20
47.2006
 11
1.38297
 21
47.2006
  0
LINE
  8
0
 10
1.38297
 20
47.2006
 11
-11.1717
 21
47.2005
  0
LINE
  8
0
 10
-11.1717
 20
47.2005
 11
-12.3751
 21
45.9699
  0
LINE
  8
0
 10
-12.3751
 20
45.9699
 11
-13.9291
 21
44.3805
  0
LINE
  8
0
 10
-13.9291
 20
44.3805
 11
-23.1509
 21
44.3805
  0
LINE
  8
0
 10
-23.1509
 20
44.3805
 11
-23.2015
 21
44.3805
  0
LINE
  8
0
 10
-23.2015
 20
44.3805
 11
-30.1535
 21
44.3805
  0
LINE
  8
0
 10
-30.1535
 20
44.3805
 11
-32.647
 21
44.3805
  0
LINE
  8
0
 10
-32.647
 20
44.3805
 11
-32.6808
 21
44.3805
  0
LINE
  8
0
 10
-32.6808
 20
44.3805
 11
-33.9552
 21
44.3805
  0
LINE
  8
0
 10
-33.9552
 20
44.3805
 11
-44.5197
 21
44.3805
  0
LINE
  8
0
 10
-44.5197
 20
44.3805
 11
-44.5562
 21
44.3805
  0
LINE
  8
0
 10
-44.5562
 20
44.3805
 11
-49.64
 21
44.3805
  0
LINE
  8
0
 10
-49.64
 20
44.3805
 11
-49.6639
 21
44.3805
  0
LINE
  8
0
 10
-49.6639
 20
44.3805
 11
-53.5114
 21
41.9047
  0
LINE
  8
0
 10
-53.5114
 20
41.9047
 11
-54.8886
 21
41.0184
  0
LINE
  8
0
 10
-54.8886
 20
41.0184
 11
-64.8886
 21
31.0184
  0
LINE
  8
0
 10
-64.8886
 20
31.0184
 11
-65.3763
 21
26.7112
  0
LINE
  8
0
 10
-65.3763
 20
26.7112
 11
-66.7366
 21
26.7112
  0
LINE
  8
0
 10
-66.7366
 20
26.7112
 11
-66.768
 21
26.6961
  0
LINE
  8
0
 10
-66.768
 20
26.6961
 11
-68.4419
 21
25.89
  0
LINE
  8
0
 10
-68.4419
 20
25.89
 11
-69.6003
 21
24.4374
  0
LINE
  8
0
 10
-69.6003
 20
24.4374
 11
-69.6221
 21
24.4102
  0
LINE
  8
0
 10
-69.6221
 20
24.4102
 11
-69.6298
 21
24.3762
  0
LINE
  8
0
 10
-69.6298
 20
24.3762
 11
-70.0432
 21
22.5649
  0
LINE
  8
0
 10
-70.0432
 20
22.5649
 11
-69.6298
 21
20.7535
  0
LINE
  8
0
 10
-69.6298
 20
20.7535
 11
-69.6221
 21
20.7195
  0
LINE
  8
0
 10
-69.6221
 20
20.7195
 11
-69.6003
 21
20.6923
  0
LINE
  8
0
 10
-69.6003
 20
20.6923
 11
-68.4419
 21
19.2397
  0
LINE
  8
0
 10
-68.4419
 20
19.2397
 11
-66.768
 21
18.4336
  0
LINE
  8
0
 10
-66.768
 20
18.4336
 11
-66.7366
 21
18.4185
  0
LINE
  8
0
 10
-66.7366
 20
18.4185
 11
-66.3154
 21
18.4185
  0
LINE
  8
0
 10
-66.3154
 20
18.4185
 11
-66.7918
 21
14.2113
  0
LINE
  8
0
 10
-66.7918
 20
14.2113
 11
-66.9824
 21
10.7868
  0
LINE
  8
0
 10
-66.9824
 20
10.7868
 11
-67.0957
 21
8.75
  0
LINE
  8
0
 10
-67.0957
 20
8.75
 11
-67.0957
 21
-8.75
  0
LINE
  8
0
 10
-67.0957
 20
-8.75
 11
-66.9824
 21
-10.7868
  0
LINE
  8
0
 10
-66.9824
 20
-10.7868
 11
-66.7918
 21
-14.2113
  0
LINE
  8
0
 10
-66.7918
 20
-14.2113
 11
-66.175
 21
-19.6585
  0
LINE
  8
0
 10
-66.175
 20
-19.6585
 11
-64.8886
 21
-31.0184
  0
LINE
  8
0
 10
-64.8886
 20
-31.0184
 11
-61.7318
 21
-35.4853
  0
LINE
  8
0
 10
-61.7318
 20
-35.4853
 11
-60.43
 21
-37.3274
  0
LINE
  8
0
 10
-60.43
 20
-37.3274
 11
-62.9543
 21
-39.4456
  0
LINE
  8
0
 10
-62.9543
 20
-39.4456
 11
-63.0557
 21
-39.4456
  0
LINE
  8
0
 10
-63.0557
 20
-39.4456
 11
-63.0871
 21
-39.4607
  0
LINE
  8
0
 10
-63.0871
 20
-39.4607
 11
-64.761
 21
-40.2668
  0
LINE
  8
0
 10
-64.761
 20
-40.2668
 11
-65.9194
 21
-41.7194
  0
LINE
  8
0
 10
-65.9194
 20
-41.7194
 11
-65.9412
 21
-41.7467
  0
LINE
  8
0
 10
-65.9412
 20
-41.7467
 11
-65.9489
 21
-41.7806
  0
LINE
  8
0
 10
-65.9489
 20
-41.7806
 11
-65.9991
 21
-42.0005
  0
LINE
  8
0
 10
-65.9991
 20
-42.0005
 11
-68.0261
 21
-43.7014
  0
LINE
  8
0
 10
-68.0261
 20
-43.7014
 11
-68.0261
 21
-43.7014
  0
LINE
  8
0
 10
-68.0261
 20
-43.7014
 11
-68.0438
 21
-43.7162
  0
LINE
  8
0
 10
-68.0438
 20
-43.7162
 11
-68.3939
 21
-44.1431
  0
LINE
  8
0
 10
-68.3939
 20
-44.1431
 11
-68.394
 21
-44.1432
  0
LINE
  8
0
 10
-68.394
 20
-44.1432
 11
-69.2997
 21
-45.2476
  0
LINE
  8
0
 10
-69.2997
 20
-45.2476
 11
-69.2997
 21
-45.2476
  0
LINE
  8
0
 10
-69.2997
 20
-45.2476
 11
-67.8335
 21
-49.2306
  0
LINE
  8
0
 10
-67.8335
 20
-49.2306
 11
-65.6526
 21
-55.1554
  0
LINE
  8
0
 10
-65.6526
 20
-55.1554
 11
-67.8324
 21
-57.9455
  0
LINE
  8
0
 10
-67.8324
 20
-57.9455
 11
-67.8324
 21
-57.9455
  0
LINE
  8
0
 10
-67.8324
 20
-57.9455
 11
-67.8324
 21
-57.9455
  0
LINE
  8
0
 10
-67.8324
 20
-57.9455
 11
-72.0286
 21
-65.5566
  0
LINE
  8
0
 10
-72.0286
 20
-65.5566
 11
-75.5199
 21
-71.8892
  0
LINE
  8
0
 10
-75.5199
 20
-71.8892
 11
-75.5199
 21
-71.8892
  0
LINE
  8
0
 10
-75.5199
 20
-71.8892
 11
-75.5796
 21
-71.9974
  0
LINE
  8
0
 10
-70.8445
 20
-75.542
 11
-60.7104
 21
-57.7037
  0
LINE
  8
0
 10
-60.7104
 20
-57.7037
 11
-60.3602
 21
-57.0873
  0
LINE
  8
0
 10
-60.3602
 20
-57.0873
 11
-60.3598
 21
-57.0865
  0
LINE
  8
0
 10
-60.3598
 20
-57.0865
 11
-60.2992
 21
-56.98
  0
LINE
  8
0
 10
-60.2992
 20
-56.98
 11
-60.3313
 21
-56.8694
  0
LINE
  8
0
 10
-60.3313
 20
-56.8694
 11
-63.407
 21
-49.8368
  0
LINE
  8
0
 10
-63.407
 20
-49.8368
 11
-64.3389
 21
-47.7061
  0
LINE
  8
0
 10
-64.3389
 20
-47.7061
 11
-63.8954
 21
-47.334
  0
LINE
  8
0
 10
-63.8954
 20
-47.334
 11
-63.0871
 21
-47.7232
  0
LINE
  8
0
 10
-63.0871
 20
-47.7232
 11
-63.0557
 21
-47.7384
  0
LINE
  8
0
 10
-63.0557
 20
-47.7384
 11
-61.1629
 21
-47.7384
  0
LINE
  8
0
 10
-61.1629
 20
-47.7384
 11
-61.1316
 21
-47.7232
  0
LINE
  8
0
 10
-61.1316
 20
-47.7232
 11
-59.4576
 21
-46.9171
  0
LINE
  8
0
 10
-59.4576
 20
-46.9171
 11
-58.2992
 21
-45.4645
  0
LINE
  8
0
 10
-58.2992
 20
-45.4645
 11
-58.2775
 21
-45.4373
  0
LINE
  8
0
 10
-58.2775
 20
-45.4373
 11
-58.2697
 21
-45.4033
  0
LINE
  8
0
 10
-58.2697
 20
-45.4033
 11
-57.8563
 21
-43.592
  0
LINE
  8
0
 10
-57.8563
 20
-43.592
 11
-58.1102
 21
-42.4796
  0
LINE
  8
0
 10
-58.1102
 20
-42.4796
 11
-55.7133
 21
-40.4684
  0
LINE
  8
0
 10
-55.7133
 20
-40.4684
 11
-55.1484
 21
-39.7795
  0
LINE
  8
0
 10
-55.1484
 20
-39.7795
 11
-54.4574
 21
-38.937
  0
LINE
  8
0
 10
-54.4574
 20
-38.937
 11
-54.4574
 21
-38.937
  0
LINE
  8
0
 10
-54.4574
 20
-38.937
 11
-56.0107
 21
-36.6007
  0
LINE
  8
0
 10
-56.0107
 20
-36.6007
 11
-59.7886
 21
-30.9184
  0
LINE
  8
0
 10
-59.7886
 20
-30.9184
 11
-60.1817
 21
-27.4471
  0
LINE
  8
0
 10
-60.1817
 20
-27.4471
 11
-54.4917
 21
-27.4471
  0
LINE
  8
0
 10
-54.4917
 20
-27.4471
 11
-54.4917
 21
25.4471
  0
LINE
  8
0
 10
-54.4917
 20
25.4471
 11
-60.4082
 21
25.4471
  0
LINE
  8
0
 10
-60.4082
 20
25.4471
 11
-59.7886
 21
30.9184
  0
LINE
  8
0
 10
-59.7886
 20
30.9184
 11
-54.7886
 21
35.9184
  0
LINE
  8
0
 10
-54.7886
 20
35.9184
 11
-53.2573
 21
36.5801
  0
LINE
  8
0
 10
-53.2573
 20
36.5801
 11
-48.7024
 21
38.5485
  0
LINE
  8
0
 10
-48.7024
 20
38.5485
 11
-36.9867
 21
38.5485
  0
LINE
  8
0
 10
-36.9867
 20
38.5485
 11
-36.9681
 21
38.5485
  0
LINE
  8
0
 10
-36.9681
 20
38.5485
 11
-33.0511
 21
38.5485
  0
LINE
  8
0
 10
-33.0511
 20
38.5485
 11
-30.532
 21
38.5485
  0
LINE
  8
0
 10
-30.532
 20
38.5485
 11
-29.4136
 21
38.5485
  0
LINE
  8
0
 10
-29.4136
 20
38.5485
 11
-18.3956
 21
38.5485
  0
LINE
  8
0
 10
-18.3956
 20
38.5485
 11
-18.3711
 21
38.5485
  0
LINE
  8
0
 10
-18.3711
 20
38.5485
 11
-13.1676
 21
38.5485
  0
LINE
  8
0
 10
-13.1676
 20
38.5485
 11
-13.1676
 21
38.5485
  0
LINE
  8
0
 10
-13.1676
 20
38.5485
 11
-13.1303
 21
38.5485
  0
LINE
  8
0
 10
-13.1303
 20
38.5485
 11
-11.5705
 21
40.2477
  0
LINE
  8
0
 10
-11.5705
 20
40.2477
 11
-10.5417
 21
41.3685
  0
LINE
  8
0
 10
-10.5417
 20
41.3685
 11
-2.35617
 21
41.3685
  0
LINE
  8
0
 10
-2.35617
 20
41.3685
 11
6.07218
 21
41.3685
  0
LINE
  8
0
 10
6.07218
 20
41.3685
 11
8.74293
 21
39.8635
  0
LINE
  8
0
 10
8.74293
 20
39.8635
 11
11.0767
 21
38.5485
  0
LINE
  8
0
 10
11.0767
 20
38.5485
 11
14.9834
 21
38.5485
  0
LINE
  8
0
 10
14.9834
 20
38.5485
 11
15.1385
 21
37.869
  0
LINE
  8
0
 10
15.1385
 20
37.869
 11
15.1463
 21
37.835
  0
LINE
  8
0
 10
15.1463
 20
37.835
 11
15.168
 21
37.8078
  0
LINE
  8
0
 10
15.168
 20
37.8078
 11
16.3264
 21
36.3552
  0
LINE
  8
0
 10
16.3264
 20
36.3552
 11
18.0003
 21
35.5491
  0
LINE
  8
0
 10
18.0003
 20
35.5491
 11
18.0317
 21
35.5339
  0
LINE
  8
0
 10
18.0317
 20
35.5339
 11
19.9245
 21
35.5339
  0
LINE
  8
0
 10
19.9245
 20
35.5339
 11
19.9559
 21
35.5491
  0
LINE
  8
0
 10
19.9559
 20
35.5491
 11
21.6298
 21
36.3552
  0
LINE
  8
0
 10
21.6298
 20
36.3552
 11
22.7882
 21
37.8078
  0
LINE
  8
0
 10
22.7882
 20
37.8078
 11
22.8099
 21
37.835
  0
LINE
  8
0
 10
22.8099
 20
37.835
 11
22.8177
 21
37.869
  0
LINE
  8
0
 10
22.8177
 20
37.869
 11
22.9728
 21
38.5485
  0
LINE
  8
0
 10
22.9728
 20
38.5485
 11
27.9442
 21
38.5485
  0
LINE
  8
0
 10
27.9442
 20
38.5485
 11
28.7035
 21
36.9006
  0
LINE
  8
0
 10
28.7035
 20
36.9006
 11
33.4734
 21
26.5485
  0
LINE
  8
0
 10
33.4734
 20
26.5485
 11
42.4112
 21
26.5485
  0
LINE
  8
0
 10
42.4112
 20
26.5485
 11
50.7552
 21
26.5485
  0
LINE
  8
0
 10
50.7552
 20
26.5485
 11
52.6335
 21
26.5485
  0
LINE
  8
0
 10
52.6335
 20
26.5485
 11
54.7377
 21
26.5485
  0
LINE
  8
0
 10
54.7377
 20
26.5485
 11
71.9377
 21
26.5485
  0
LINE
  8
0
 10
71.9377
 20
26.5485
 11
74.3031
 21
24.2637
  0
LINE
  8
0
 10
74.3031
 20
24.2637
 11
76.9377
 21
21.7188
  0
LINE
  8
0
 10
76.9377
 20
21.7188
 11
76.9377
 21
14.4919
  0
LINE
  8
0
 10
76.9377
 20
14.4919
 11
76.9377
 21
6.23324
  0
LINE
  8
0
 10
76.9377
 20
6.23324
 11
76.9172
 21
5.9948
  0
LINE
  8
0
 10
76.9172
 20
5.9948
 11
76.9172
 21
5.9948
  0
LINE
  8
0
 10
76.9172
 20
5.9948
 11
76.9082
 21
5.89128
  0
LINE
  8
0
 10
76.9082
 20
5.89128
 11
76.9067
 21
5.85704
  0
LINE
  8
0
 10
76.9067
 20
5.85704
 11
76.5049
 21
-3.3
  0
LINE
  8
0
 10
76.5049
 20
-3.3
 11
76.5049
 21
-7.85361
  0
LINE
  8
0
 10
76.5049
 20
-7.85361
 11
76.0913
 21
-7.85361
  0
LINE
  8
0
 10
76.0913
 20
-7.85361
 11
76.0599
 21
-7.86873
  0
LINE
  8
0
 10
76.0599
 20
-7.86873
 11
74.386
 21
-8.67486
  0
LINE
  8
0
 10
74.386
 20
-8.67486
 11
73.2276
 21
-10.1274
  0
LINE
  8
0
 10
73.2276
 20
-10.1274
 11
73.2059
 21
-10.1547
  0
LINE
  8
0
 10
73.2059
 20
-10.1547
 11
73.1981
 21
-10.1887
  0
LINE
  8
0
 10
73.1981
 20
-10.1887
 11
72.7847
 21
-12
  0
LINE
  8
0
 10
72.7847
 20
-12
 11
73.1981
 21
-13.8113
  0
LINE
  8
0
 10
73.1981
 20
-13.8113
 11
73.2059
 21
-13.8453
  0
LINE
  8
0
 10
73.2059
 20
-13.8453
 11
73.2276
 21
-13.8726
  0
LINE
  8
0
 10
73.2276
 20
-13.8726
 11
74.386
 21
-15.3251
  0
LINE
  8
0
 10
74.386
 20
-15.3251
 11
76.0599
 21
-16.1313
  0
LINE
  8
0
 10
76.0599
 20
-16.1313
 11
76.0913
 21
-16.1464
  0
LINE
  8
0
 10
76.0913
 20
-16.1464
 11
76.5049
 21
-16.1464
  0
LINE
  8
0
 10
76.5049
 20
-16.1464
 11
76.5049
 21
-20.7
  0
LINE
  8
0
 10
76.5049
 20
-20.7
 11
76.9067
 21
-29.857
  0
LINE
  8
0
 10
76.9067
 20
-29.857
 11
76.9082
 21
-29.8913
  0
LINE
  8
0
 10
76.9082
 20
-29.8913
 11
76.9172
 21
-29.9948
  0
LINE
  8
0
 10
76.9172
 20
-29.9948
 11
76.9172
 21
-29.9948
  0
LINE
  8
0
 10
76.9172
 20
-29.9948
 11
76.9377
 21
-30.2332
  0
LINE
  8
0
 10
76.9377
 20
-30.2332
 11
76.9377
 21
-38.4919
  0
LINE
  8
0
 10
76.9377
 20
-38.4919
 11
76.9377
 21
-45.7188
  0
LINE
  8
0
 10
76.9377
 20
-45.7188
 11
74.3031
 21
-48.2637
  0
LINE
  8
0
 10
74.3031
 20
-48.2637
 11
71.9377
 21
-50.5485
  0
LINE
  8
0
 10
71.9377
 20
-50.5485
 11
54.7377
 21
-50.5485
  0
LINE
  8
0
 10
54.7377
 20
-50.5485
 11
52.6335
 21
-50.5485
  0
LINE
  8
0
 10
52.6335
 20
-50.5485
 11
50.7552
 21
-50.5485
  0
LINE
  8
0
 10
50.7552
 20
-50.5485
 11
42.4112
 21
-50.5485
  0
LINE
  8
0
 10
42.4112
 20
-50.5485
 11
33.4734
 21
-50.5485
  0
LINE
  8
0
 10
33.4734
 20
-50.5485
 11
33.3032
 21
-51.0718
  0
LINE
  8
0
 10
33.3032
 20
-51.0718
 11
33.1788
 21
-51.4543
  0
LINE
  8
0
 10
33.1788
 20
-51.4543
 11
33.2395
 21
-54.0527
  0
LINE
  8
0
 10
33.2395
 20
-54.0527
 11
33.2916
 21
-56.284
  0
LINE
  8
0
 10
33.2916
 20
-56.284
 11
33.2928
 21
-56.3359
  0
LINE
  8
0
 10
33.2928
 20
-56.3359
 11
33.2938
 21
-56.3805
  0
LINE
  8
0
 10
33.2938
 20
-56.3805
 11
33.2938
 21
-56.3805
  0
LINE
  8
0
 10
33.2938
 20
-56.3805
 11
33.3474
 21
-56.3805
  0
LINE
  8
0
 10
33.3474
 20
-56.3805
 11
35.2869
 21
-56.3805
  0
LINE
  8
0
 10
35.2869
 20
-56.3805
 11
32.8487
 21
-60.8699
  0
LINE
  8
0
 10
32.8487
 20
-60.8699
 11
26.7261
 21
-60.8699
  0
LINE
  8
0
 10
26.7261
 20
-60.8699
 11
13.3495
 21
-60.8699
  0
LINE
  8
0
 10
13.3495
 20
-60.8699
 11
9.57667
 21
-61.9911
  0
LINE
  8
0
 10
9.57667
 20
-61.9911
 11
4.617
 21
-63.465
  0
LINE
  8
0
 10
4.617
 20
-63.465
 11
4.26448
 21
-63.023
  0
LINE
  8
0
 10
4.26448
 20
-63.023
 11
2.59055
 21
-62.2169
  0
LINE
  8
0
 10
2.59055
 20
-62.2169
 11
2.55915
 21
-62.2018
  0
LINE
  8
0
 10
2.55915
 20
-62.2018
 11
0.666379
 21
-62.2018
  0
LINE
  8
0
 10
0.666379
 20
-62.2018
 11
0.634983
 21
-62.2169
  0
LINE
  8
0
 10
0.634983
 20
-62.2169
 11
-1.03895
 21
-63.023
  0
LINE
  8
0
 10
-1.03895
 20
-63.023
 11
-2.19735
 21
-64.4756
  0
LINE
  8
0
 10
-2.19735
 20
-64.4756
 11
-2.21907
 21
-64.5028
  0
LINE
  8
0
 10
-2.21907
 20
-64.5028
 11
-2.22683
 21
-64.5368
  0
LINE
  8
0
 10
-2.22683
 20
-64.5368
 11
-2.64025
 21
-66.3481
  0
LINE
  8
0
 10
-2.64025
 20
-66.3481
 11
-2.48127
 21
-67.0447
  0
LINE
  8
0
 10
-2.48127
 20
-67.0447
 11
-7.61407
 21
-70.3803
  0
LINE
  8
0
 10
-7.61407
 20
-70.3803
 11
-12.0622
 21
-73.271
  0
LINE
  8
0
 10
-12.0622
 20
-73.271
 11
-12.9233
 21
-73.9283
  0
LINE
  8
0
 10
-12.9233
 20
-73.9283
 11
-13.6366
 21
-74.4727
  0
LINE
  8
0
 10
-13.6366
 20
-74.4727
 11
-13.6589
 21
-74.4975
  0
LINE
  8
0
 10
-13.6589
 20
-74.4975
 11
-19.9472
 21
-81.4814
  0
LINE
  8
0
 10
-19.9472
 20
-81.4814
 11
-19.9474
 21
-81.4816
  0
LINE
  8
0
 10
-19.9474
 20
-81.4816
 11
-23.2889
 21
-85.1928
  0
LINE
  8
0
 10
-23.2889
 20
-85.1928
 11
-22.6008
 21
-88.3862
  0
LINE
  8
0
 10
-22.6008
 20
-88.3862
 11
-22.2763
 21
-89.8924
  0
LINE
  8
0
 10
-22.2763
 20
-89.8924
 11
-24.4754
 21
-92.9192
  0
LINE
  8
0
 10
-24.4754
 20
-92.9192
 11
-29.9842
 21
-96.5687
  0
LINE
  8
0
 10
-29.9842
 20
-96.5687
 11
-36.6435
 21
-100.98
  0
LINE
  8
0
 10
-36.6435
 20
-100.98
 11
-39.0033
 21
-101.012
  0
LINE
  8
0
 10
-39.0033
 20
-101.012
 11
-41.4562
 21
-98.8662
  0
LINE
  8
0
 10
-41.4562
 20
-98.8662
 11
-50.7768
 21
-90.7119
  0
LINE
  8
0
 10
-50.7768
 20
-90.7119
 11
-50.7768
 21
-90.7119
  0
LINE
  8
0
 10
-50.7768
 20
-90.7119
 11
-51.5121
 21
-90.1777
  0
LINE
  8
0
 10
-51.5121
 20
-90.1777
 11
-52.5544
 21
-89.4204
  0
LINE
  8
0
 10
-52.5544
 20
-89.4204
 11
-52.9534
 21
-89.1796
  0
LINE
  8
0
 10
-52.9534
 20
-89.1796
 11
-57.3754
 21
-87.894
  0
LINE
  8
0
 10
-57.3754
 20
-87.894
 11
-68.3187
 21
-78.9309
  0
LINE
  8
0
 10
-68.3187
 20
-78.9309
 11
-70.7056
 21
-76.976
  0
LINE
  8
0
 10
-70.7056
 20
-76.976
 11
-70.8445
 21
-75.542
  0
LINE
  8
0
 10
-67.4902
 20
22.5649
 11
-66.6402
 21
24.0371
  0
LINE
  8
0
 10
-66.6402
 20
24.0371
 11
-64.9402
 21
24.0371
  0
LINE
  8
0
 10
-64.9402
 20
24.0371
 11
-64.0902
 21
22.5649
  0
LINE
  8
0
 10
-64.0902
 20
22.5649
 11
-64.9402
 21
21.0926
  0
LINE
  8
0
 10
-64.9402
 20
21.0926
 11
-66.6402
 21
21.0926
  0
LINE
  8
0
 10
-66.6402
 20
21.0926
 11
-67.4902
 21
22.5649
  0
LINE
  8
0
 10
-63.8093
 20
-43.592
 11
-62.9593
 21
-42.1197
  0
LINE
  8
0
 10
-62.9593
 20
-42.1197
 11
-61.2593
 21
-42.1197
  0
LINE
  8
0
 10
-61.2593
 20
-42.1197
 11
-60.4093
 21
-43.592
  0
LINE
  8
0
 10
-60.4093
 20
-43.592
 11
-61.2593
 21
-45.0642
  0
LINE
  8
0
 10
-61.2593
 20
-45.0642
 11
-62.9593
 21
-45.0642
  0
LINE
  8
0
 10
-62.9593
 20
-45.0642
 11
-63.8093
 21
-43.592
  0
LINE
  8
0
 10
-0.0872352
 20
-66.3481
 11
0.762765
 21
-64.8759
  0
LINE
  8
0
 10
0.762765
 20
-64.8759
 11
2.46276
 21
-64.8759
  0
LINE
  8
0
 10
2.46276
 20
-64.8759
 11
3.31276
 21
-66.3481
  0
LINE
  8
0
 10
3.31276
 20
-66.3481
 11
2.46276
 21
-67.8204
  0
LINE
  8
0
 10
2.46276
 20
-67.8204
 11
0.762765
 21
-67.8204
  0
LINE
  8
0
 10
0.762765
 20
-67.8204
 11
-0.0872352
 21
-66.3481
  0
LINE
  8
0
 10
17.2781
 20
39.6803
 11
18.1281
 21
41.1526
  0
LINE
  8
0
 10
18.1281
 20
41.1526
 11
19.8281
 21
41.1526
  0
LINE
  8
0
 10
19.8281
 20
41.1526
 11
20.6781
 21
39.6803
  0
LINE
  8
0
 10
20.6781
 20
39.6803
 11
19.8281
 21
38.2081
  0
LINE
  8
0
 10
19.8281
 20
38.2081
 11
18.1281
 21
38.2081
  0
LINE
  8
0
 10
18.1281
 20
38.2081
 11
17.2781
 21
39.6803
  0
LINE
  8
0
 10
75.3377
 20
-12
 11
76.1877
 21
-10.5278
  0
LINE
  8
0
 10
76.1877
 20
-10.5278
 11
77.8877
 21
-10.5278
  0
LINE
  8
0
 10
77.8877
 20
-10.5278
 11
78.7377
 21
-12
  0
LINE
  8
0
 10
78.7377
 20
-12
 11
77.8877
 21
-13.4722
  0
LINE
  8
0
 10
77.8877
 20
-13.4722
 11
76.1877
 21
-13.4722
  0
LINE
  8
0
 10
76.1877
 20
-13.4722
 11
75.3377
 21
-12
  0
ENDSEC
  0
SECTION
  2
OBJECTS
  0
DICTIONARY
  0
ENDSEC
  0
EOF
