  0
SECTION
  2
BLOCKS
  0
ENDSEC
  0
SECTION
  2
ENTITIES
  0
LINE
  8
0
 10
-86.3245
 20
-68.2596
 11
-85.8134
 21
-70.8262
  0
LINE
  8
0
 10
-85.8134
 20
-70.8262
 11
-84.5246
 21
-77.298
  0
LINE
  8
0
 10
-84.5246
 20
-77.298
 11
-75.0921
 21
-85.2963
  0
LINE
  8
0
 10
-75.0921
 20
-85.2963
 11
-71.3513
 21
-88.4684
  0
LINE
  8
0
 10
-71.3513
 20
-88.4684
 11
-71.3303
 21
-88.4862
  0
LINE
  8
0
 10
-71.3303
 20
-88.4862
 11
-71.2752
 21
-88.533
  0
LINE
  8
0
 10
-71.2752
 20
-88.533
 11
-68.9746
 21
-89.3346
  0
LINE
  8
0
 10
-68.9746
 20
-89.3346
 11
-63.7923
 21
-91.1403
  0
LINE
  8
0
 10
-63.7923
 20
-91.1403
 11
-55.5558
 21
-99.3413
  0
LINE
  8
0
 10
-55.5558
 20
-99.3413
 11
-51.8839
 21
-102.997
  0
LINE
  8
0
 10
-51.8839
 20
-102.997
 11
-51.865
 21
-103.016
  0
LINE
  8
0
 10
-51.865
 20
-103.016
 11
-45.8567
 21
-103.057
  0
LINE
  8
0
 10
-45.8567
 20
-103.057
 11
-43.5883
 21
-103.072
  0
LINE
  8
0
 10
-43.5883
 20
-103.072
 11
-43.1128
 21
-102.838
  0
LINE
  8
0
 10
-43.1128
 20
-102.838
 11
-41.7307
 21
-102.157
  0
LINE
  8
0
 10
-41.7307
 20
-102.157
 11
-41.7307
 21
-102.157
  0
LINE
  8
0
 10
-41.7307
 20
-102.157
 11
-41.7181
 21
-102.139
  0
LINE
  8
0
 10
-41.7181
 20
-102.139
 11
-41.7166
 21
-102.137
  0
LINE
  8
0
 10
-41.7166
 20
-102.137
 11
-39.9605
 21
-99.7202
  0
LINE
  8
0
 10
-39.9605
 20
-99.7202
 11
-33.1532
 21
-90.3507
  0
LINE
  8
0
 10
-33.1532
 20
-90.3507
 11
-33.4137
 21
-89.3373
  0
LINE
  8
0
 10
-33.4137
 20
-89.3373
 11
-34.4208
 21
-85.4182
  0
LINE
  8
0
 10
-34.4208
 20
-85.4182
 11
-32.8193
 21
-83.6394
  0
LINE
  8
0
 10
-32.8193
 20
-83.6394
 11
-32.8191
 21
-83.6393
  0
LINE
  8
0
 10
-32.8191
 20
-83.6393
 11
-25.2208
 21
-75.2005
  0
LINE
  8
0
 10
-25.2208
 20
-75.2005
 11
-15.3501
 21
-68.6152
  0
LINE
  8
0
 10
-15.3501
 20
-68.6152
 11
-15.3499
 21
-68.6151
  0
LINE
  8
0
 10
-15.3499
 20
-68.6151
 11
-13.6667
 21
-67.4922
  0
LINE
  8
0
 10
-13.6667
 20
-67.4922
 11
-12.7301
 21
-68.6666
  0
LINE
  8
0
 10
-12.7301
 20
-68.6666
 11
-11.0562
 21
-69.4728
  0
LINE
  8
0
 10
-11.0562
 20
-69.4728
 11
-11.0248
 21
-69.4879
  0
LINE
  8
0
 10
-11.0248
 20
-69.4879
 11
-9.13204
 21
-69.4879
  0
LINE
  8
0
 10
-9.13204
 20
-69.4879
 11
-9.10064
 21
-69.4728
  0
LINE
  8
0
 10
-9.10064
 20
-69.4728
 11
-7.42671
 21
-68.6666
  0
LINE
  8
0
 10
-7.42671
 20
-68.6666
 11
-6.26831
 21
-67.214
  0
LINE
  8
0
 10
-6.26831
 20
-67.214
 11
-6.24658
 21
-67.1868
  0
LINE
  8
0
 10
-6.24658
 20
-67.1868
 11
-6.23883
 21
-67.1528
  0
LINE
  8
0
 10
-6.23883
 20
-67.1528
 11
-5.86312
 21
-65.5067
  0
LINE
  8
0
 10
-5.86312
 20
-65.5067
 11
-1.15041
 21
-64.4386
  0
LINE
  8
0
 10
-1.15041
 20
-64.4386
 11
2.45814
 21
-64.4386
  0
LINE
  8
0
 10
2.45814
 20
-64.4386
 11
2.48231
 21
-64.4386
  0
LINE
  8
0
 10
2.48231
 20
-64.4386
 11
13.5574
 21
-64.4386
  0
LINE
  8
0
 10
13.5574
 20
-64.4386
 11
14.0674
 21
-64.0222
  0
LINE
  8
0
 10
14.0674
 20
-64.0222
 11
15.7007
 21
-62.6886
  0
LINE
  8
0
 10
15.7007
 20
-62.6886
 11
16.0813
 21
-54.9829
  0
LINE
  8
0
 10
16.0813
 20
-54.9829
 11
16.1554
 21
-53.4828
  0
LINE
  8
0
 10
16.1554
 20
-53.4828
 11
17.4624
 21
-53.4828
  0
LINE
  8
0
 10
17.4624
 20
-53.4828
 11
17.5066
 21
-53.4828
  0
LINE
  8
0
 10
17.5066
 20
-53.4828
 11
21.9173
 21
-53.4828
  0
LINE
  8
0
 10
21.9173
 20
-53.4828
 11
22.7877
 21
-53.1199
  0
LINE
  8
0
 10
22.7877
 20
-53.1199
 11
24.0904
 21
-52.5769
  0
LINE
  8
0
 10
24.0904
 20
-52.5769
 11
26.2838
 21
-49.0438
  0
LINE
  8
0
 10
26.2838
 20
-49.0438
 11
28.2881
 21
-45.8154
  0
LINE
  8
0
 10
28.2881
 20
-45.8154
 11
28.2802
 21
-45.7693
  0
LINE
  8
0
 10
28.2802
 20
-45.7693
 11
28.2715
 21
-45.7188
  0
LINE
  8
0
 10
28.2715
 20
-45.7188
 11
28.2715
 21
-45.7188
  0
LINE
  8
0
 10
28.2715
 20
-45.7188
 11
28.2715
 21
-45.7188
  0
LINE
  8
0
 10
28.2715
 20
-45.7188
 11
26.9139
 21
-37.8366
  0
LINE
  8
0
 10
26.9139
 20
-37.8366
 11
25.41
 21
-29.1049
  0
LINE
  8
0
 10
25.41
 20
-29.1049
 11
24.9267
 21
-23.394
  0
LINE
  8
0
 10
24.9267
 20
-23.394
 11
24.6903
 21
-20.6
  0
LINE
  8
0
 10
24.6903
 20
-20.6
 11
24.6903
 21
-15.7664
  0
LINE
  8
0
 10
24.6903
 20
-15.7664
 11
25.6065
 21
-15.3251
  0
LINE
  8
0
 10
25.6065
 20
-15.3251
 11
26.7649
 21
-13.8726
  0
LINE
  8
0
 10
26.7649
 20
-13.8726
 11
26.7867
 21
-13.8453
  0
LINE
  8
0
 10
26.7867
 20
-13.8453
 11
26.7944
 21
-13.8113
  0
LINE
  8
0
 10
26.7944
 20
-13.8113
 11
27.2078
 21
-12
  0
LINE
  8
0
 10
27.2078
 20
-12
 11
26.7944
 21
-10.1887
  0
LINE
  8
0
 10
26.7944
 20
-10.1887
 11
26.7867
 21
-10.1547
  0
LINE
  8
0
 10
26.7867
 20
-10.1547
 11
26.7649
 21
-10.1274
  0
LINE
  8
0
 10
26.7649
 20
-10.1274
 11
25.6065
 21
-8.67486
  0
LINE
  8
0
 10
25.6065
 20
-8.67486
 11
24.6903
 21
-8.2336
  0
LINE
  8
0
 10
24.6903
 20
-8.2336
 11
24.6903
 21
-3.4
  0
LINE
  8
0
 10
24.6903
 20
-3.4
 11
24.9267
 21
-0.605998
  0
LINE
  8
0
 10
24.9267
 20
-0.605998
 11
25.41
 21
5.1049
  0
LINE
  8
0
 10
25.41
 20
5.1049
 11
26.9139
 21
13.8366
  0
LINE
  8
0
 10
26.9139
 20
13.8366
 11
28.2715
 21
21.7188
  0
LINE
  8
0
 10
28.2715
 20
21.7188
 11
28.2715
 21
21.7188
  0
LINE
  8
0
 10
28.2715
 20
21.7188
 11
28.2715
 21
21.7188
  0
LINE
  8
0
 10
28.2715
 20
21.7188
 11
28.2802
 21
21.7693
  0
LINE
  8
0
 10
28.2802
 20
21.7693
 11
28.2881
 21
21.8154
  0
LINE
  8
0
 10
28.2881
 20
21.8154
 11
26.2838
 21
25.0438
  0
LINE
  8
0
 10
26.2838
 20
25.0438
 11
24.0904
 21
28.5769
  0
LINE
  8
0
 10
24.0904
 20
28.5769
 11
22.7877
 21
29.1199
  0
LINE
  8
0
 10
22.7877
 20
29.1199
 11
21.9173
 21
29.4828
  0
LINE
  8
0
 10
21.9173
 20
29.4828
 11
14.5379
 21
29.4828
  0
LINE
  8
0
 10
14.5379
 20
29.4828
 11
14.487
 21
29.4828
  0
LINE
  8
0
 10
14.487
 20
29.4828
 11
10.2924
 21
29.4828
  0
LINE
  8
0
 10
10.2924
 20
29.4828
 11
5.62088
 21
37.2414
  0
LINE
  8
0
 10
5.62088
 20
37.2414
 11
3.6126
 21
40.5769
  0
LINE
  8
0
 10
3.6126
 20
40.5769
 11
2.87913
 21
40.8548
  0
LINE
  8
0
 10
2.87913
 20
40.8548
 11
1.22205
 21
41.4828
  0
LINE
  8
0
 10
1.22205
 20
41.4828
 11
-1.79568
 21
41.4828
  0
LINE
  8
0
 10
-1.79568
 20
41.4828
 11
-1.79771
 21
41.4917
  0
LINE
  8
0
 10
-1.79771
 20
41.4917
 11
-1.80546
 21
41.5256
  0
LINE
  8
0
 10
-1.80546
 20
41.5256
 11
-1.82719
 21
41.5529
  0
LINE
  8
0
 10
-1.82719
 20
41.5529
 11
-2.98559
 21
43.0055
  0
LINE
  8
0
 10
-2.98559
 20
43.0055
 11
-4.65952
 21
43.8116
  0
LINE
  8
0
 10
-4.65952
 20
43.8116
 11
-4.69091
 21
43.8267
  0
LINE
  8
0
 10
-4.69091
 20
43.8267
 11
-6.58368
 21
43.8267
  0
LINE
  8
0
 10
-6.58368
 20
43.8267
 11
-6.61508
 21
43.8116
  0
LINE
  8
0
 10
-6.61508
 20
43.8116
 11
-8.28901
 21
43.0055
  0
LINE
  8
0
 10
-8.28901
 20
43.0055
 11
-9.44741
 21
41.5529
  0
LINE
  8
0
 10
-9.44741
 20
41.5529
 11
-9.46914
 21
41.5256
  0
LINE
  8
0
 10
-9.46914
 20
41.5256
 11
-9.47689
 21
41.4917
  0
LINE
  8
0
 10
-9.47689
 20
41.4917
 11
-9.47892
 21
41.4828
  0
LINE
  8
0
 10
-9.47892
 20
41.4828
 11
-10.5955
 21
41.4828
  0
LINE
  8
0
 10
-10.5955
 20
41.4828
 11
-14.7691
 21
43.3969
  0
LINE
  8
0
 10
-14.7691
 20
43.3969
 11
-16.8093
 21
44.1105
  0
LINE
  8
0
 10
-16.8093
 20
44.1105
 11
-17.3589
 21
44.3028
  0
LINE
  8
0
 10
-17.3589
 20
44.3028
 11
-26.0562
 21
44.3028
  0
LINE
  8
0
 10
-26.0562
 20
44.3028
 11
-26.0747
 21
44.3028
  0
LINE
  8
0
 10
-26.0747
 20
44.3028
 11
-28.5323
 21
44.3028
  0
LINE
  8
0
 10
-28.5323
 20
44.3028
 11
-28.5434
 21
44.3028
  0
LINE
  8
0
 10
-28.5434
 20
44.3028
 11
-28.5468
 21
44.2862
  0
LINE
  8
0
 10
-28.5468
 20
44.2862
 11
-28.8916
 21
42.6065
  0
LINE
  8
0
 10
-28.8916
 20
42.6065
 11
-28.9598
 21
42.2743
  0
LINE
  8
0
 10
-28.9598
 20
42.2743
 11
-28.9124
 21
41.8384
  0
LINE
  8
0
 10
-28.9124
 20
41.8384
 11
-28.8737
 21
41.4828
  0
LINE
  8
0
 10
-28.8737
 20
41.4828
 11
-36.5934
 21
41.4828
  0
LINE
  8
0
 10
-36.5934
 20
41.4828
 11
-36.6041
 21
41.4828
  0
LINE
  8
0
 10
-36.6041
 20
41.4828
 11
-38.1235
 21
41.4828
  0
LINE
  8
0
 10
-38.1235
 20
41.4828
 11
-40.3171
 21
41.4828
  0
LINE
  8
0
 10
-40.3171
 20
41.4828
 11
-40.3247
 21
41.4828
  0
LINE
  8
0
 10
-40.3247
 20
41.4828
 11
-40.6365
 21
41.4828
  0
LINE
  8
0
 10
-40.6365
 20
41.4828
 11
-48.2424
 21
41.4828
  0
LINE
  8
0
 10
-48.2424
 20
41.4828
 11
-48.2496
 21
41.4828
  0
LINE
  8
0
 10
-48.2496
 20
41.4828
 11
-49.2874
 21
41.4828
  0
LINE
  8
0
 10
-49.2874
 20
41.4828
 11
-49.2925
 21
41.4828
  0
LINE
  8
0
 10
-49.2925
 20
41.4828
 11
-55.1183
 21
32.0887
  0
LINE
  8
0
 10
-55.1183
 20
32.0887
 11
-55.782
 21
31.0184
  0
LINE
  8
0
 10
-55.782
 20
31.0184
 11
-56.2449
 21
29.0236
  0
LINE
  8
0
 10
-56.2449
 20
29.0236
 11
-56.7815
 21
26.7112
  0
LINE
  8
0
 10
-56.7815
 20
26.7112
 11
-58.6285
 21
26.7112
  0
LINE
  8
0
 10
-58.6285
 20
26.7112
 11
-58.6599
 21
26.6961
  0
LINE
  8
0
 10
-58.6599
 20
26.6961
 11
-60.3338
 21
25.89
  0
LINE
  8
0
 10
-60.3338
 20
25.89
 11
-61.4922
 21
24.4374
  0
LINE
  8
0
 10
-61.4922
 20
24.4374
 11
-61.5139
 21
24.4102
  0
LINE
  8
0
 10
-61.5139
 20
24.4102
 11
-61.5217
 21
24.3762
  0
LINE
  8
0
 10
-61.5217
 20
24.3762
 11
-61.9351
 21
22.5649
  0
LINE
  8
0
 10
-61.9351
 20
22.5649
 11
-61.5217
 21
20.7535
  0
LINE
  8
0
 10
-61.5217
 20
20.7535
 11
-61.5139
 21
20.7195
  0
LINE
  8
0
 10
-61.5139
 20
20.7195
 11
-61.4922
 21
20.6923
  0
LINE
  8
0
 10
-61.4922
 20
20.6923
 11
-60.3338
 21
19.2397
  0
LINE
  8
0
 10
-60.3338
 20
19.2397
 11
-58.6981
 21
18.452
  0
LINE
  8
0
 10
-58.6981
 20
18.452
 11
-59.6821
 21
14.2113
  0
LINE
  8
0
 10
-59.6821
 20
14.2113
 11
-59.7563
 21
13.5604
  0
LINE
  8
0
 10
-59.7563
 20
13.5604
 11
-60.3048
 21
8.75
  0
LINE
  8
0
 10
-60.3048
 20
8.75
 11
-60.3048
 21
-8.75
  0
LINE
  8
0
 10
-60.3048
 20
-8.75
 11
-59.7563
 21
-13.5604
  0
LINE
  8
0
 10
-59.7563
 20
-13.5604
 11
-59.6821
 21
-14.2113
  0
LINE
  8
0
 10
-59.6821
 20
-14.2113
 11
-56.641
 21
-27.3166
  0
LINE
  8
0
 10
-56.641
 20
-27.3166
 11
-57.8916
 21
-27.9188
  0
LINE
  8
0
 10
-57.8916
 20
-27.9188
 11
-59.05
 21
-29.3714
  0
LINE
  8
0
 10
-59.05
 20
-29.3714
 11
-59.0717
 21
-29.3986
  0
LINE
  8
0
 10
-59.0717
 20
-29.3986
 11
-59.0795
 21
-29.4326
  0
LINE
  8
0
 10
-59.0795
 20
-29.4326
 11
-59.4929
 21
-31.2439
  0
LINE
  8
0
 10
-59.4929
 20
-31.2439
 11
-59.2054
 21
-32.5034
  0
LINE
  8
0
 10
-59.2054
 20
-32.5034
 11
-70.5066
 21
-37.7357
  0
LINE
  8
0
 10
-70.5066
 20
-37.7357
 11
-70.5591
 21
-37.7799
  0
LINE
  8
0
 10
-70.5591
 20
-37.7799
 11
-70.5591
 21
-37.7799
  0
LINE
  8
0
 10
-70.5591
 20
-37.7799
 11
-70.5701
 21
-37.789
  0
LINE
  8
0
 10
-70.5701
 20
-37.789
 11
-78.5596
 21
-44.493
  0
LINE
  8
0
 10
-78.5596
 20
-44.493
 11
-80.2233
 21
-45.889
  0
LINE
  8
0
 10
-80.2233
 20
-45.889
 11
-80.4627
 21
-46.1809
  0
LINE
  8
0
 10
-80.4627
 20
-46.1809
 11
-80.4627
 21
-46.181
  0
LINE
  8
0
 10
-80.4627
 20
-46.181
 11
-81.4792
 21
-47.4205
  0
LINE
  8
0
 10
-81.4792
 20
-47.4205
 11
-80.6813
 21
-49.4098
  0
LINE
  8
0
 10
-80.6813
 20
-49.4098
 11
-77.5998
 21
-57.0925
  0
LINE
  8
0
 10
-77.5998
 20
-57.0925
 11
-77.5998
 21
-57.0925
  0
LINE
  8
0
 10
-77.5998
 20
-57.0925
 11
-84.5217
 21
-65.9522
  0
LINE
  8
0
 10
-84.5217
 20
-65.9522
 11
-84.5219
 21
-65.9523
  0
LINE
  8
0
 10
-84.5219
 20
-65.9523
 11
-86.3115
 21
-68.243
  0
LINE
  8
0
 10
-86.3115
 20
-68.243
 11
-86.3245
 21
-68.2596
  0
LINE
  8
0
 10
-86.3245
 20
-68.2596
 11
-86.3245
 21
-68.2596
  0
LINE
  8
0
 10
-83.2497
 20
-68.1232
 11
-76.9933
 21
-60.1154
  0
LINE
  8
0
 10
-76.9933
 20
-60.1154
 11
-74.5754
 21
-57.0206
  0
LINE
  8
0
 10
-74.5754
 20
-57.0206
 11
-74.5644
 21
-57.0066
  0
LINE
  8
0
 10
-74.5644
 20
-57.0066
 11
-74.525
 21
-56.9561
  0
LINE
  8
0
 10
-74.525
 20
-56.9561
 11
-75.3734
 21
-55.0161
  0
LINE
  8
0
 10
-75.3734
 20
-55.0161
 11
-78.5705
 21
-47.7061
  0
LINE
  8
0
 10
-78.5705
 20
-47.7061
 11
-78.3897
 21
-47.5544
  0
LINE
  8
0
 10
-78.3897
 20
-47.5544
 11
-78.3896
 21
-47.5543
  0
LINE
  8
0
 10
-78.3896
 20
-47.5543
 11
-70.0084
 21
-40.5217
  0
LINE
  8
0
 10
-70.0084
 20
-40.5217
 11
-58.4909
 21
-33.8176
  0
LINE
  8
0
 10
-58.4909
 20
-33.8176
 11
-57.8916
 21
-34.5691
  0
LINE
  8
0
 10
-57.8916
 20
-34.5691
 11
-56.2177
 21
-35.3752
  0
LINE
  8
0
 10
-56.2177
 20
-35.3752
 11
-56.1863
 21
-35.3903
  0
LINE
  8
0
 10
-56.1863
 20
-35.3903
 11
-54.2935
 21
-35.3903
  0
LINE
  8
0
 10
-54.2935
 20
-35.3903
 11
-54.2621
 21
-35.3752
  0
LINE
  8
0
 10
-54.2621
 20
-35.3752
 11
-52.5882
 21
-34.5691
  0
LINE
  8
0
 10
-52.5882
 20
-34.5691
 11
-51.4298
 21
-33.1165
  0
LINE
  8
0
 10
-51.4298
 20
-33.1165
 11
-51.4081
 21
-33.0892
  0
LINE
  8
0
 10
-51.4081
 20
-33.0892
 11
-51.4003
 21
-33.0553
  0
LINE
  8
0
 10
-51.4003
 20
-33.0553
 11
-50.9869
 21
-31.2439
  0
LINE
  8
0
 10
-50.9869
 20
-31.2439
 11
-51.2258
 21
-30.1971
  0
LINE
  8
0
 10
-51.2258
 20
-30.1971
 11
-46.8798
 21
-30.1971
  0
LINE
  8
0
 10
-46.8798
 20
-30.1971
 11
-46.8798
 21
28.1971
  0
LINE
  8
0
 10
-46.8798
 20
28.1971
 11
-54.3135
 21
28.1971
  0
LINE
  8
0
 10
-54.3135
 20
28.1971
 11
-53.682
 21
30.9184
  0
LINE
  8
0
 10
-53.682
 20
30.9184
 11
-52.9861
 21
31.6883
  0
LINE
  8
0
 10
-52.9861
 20
31.6883
 11
-46.7854
 21
38.5485
  0
LINE
  8
0
 10
-46.7854
 20
38.5485
 11
-39.0125
 21
38.5485
  0
LINE
  8
0
 10
-39.0125
 20
38.5485
 11
-38.1413
 21
38.5485
  0
LINE
  8
0
 10
-38.1413
 20
38.5485
 11
-36.0381
 21
38.5485
  0
LINE
  8
0
 10
-36.0381
 20
38.5485
 11
-35.7558
 21
38.5485
  0
LINE
  8
0
 10
-35.7558
 20
38.5485
 11
-27.064
 21
38.5485
  0
LINE
  8
0
 10
-27.064
 20
38.5485
 11
-25.8264
 21
38.5485
  0
LINE
  8
0
 10
-25.8264
 20
38.5485
 11
-25.4661
 21
40.1899
  0
LINE
  8
0
 10
-25.4661
 20
40.1899
 11
-25.4024
 21
40.4803
  0
LINE
  8
0
 10
-25.4024
 20
40.4803
 11
-25.3992
 21
40.4948
  0
LINE
  8
0
 10
-25.3992
 20
40.4948
 11
-25.3812
 21
40.5769
  0
LINE
  8
0
 10
-25.3812
 20
40.5769
 11
-25.5238
 21
41.3685
  0
LINE
  8
0
 10
-25.5238
 20
41.3685
 11
-17.0503
 21
41.3685
  0
LINE
  8
0
 10
-17.0503
 20
41.3685
 11
-17.0419
 21
41.3685
  0
LINE
  8
0
 10
-17.0419
 20
41.3685
 11
-15.7921
 21
41.3685
  0
LINE
  8
0
 10
-15.7921
 20
41.3685
 11
-11.4659
 21
39.4543
  0
LINE
  8
0
 10
-11.4659
 20
39.4543
 11
-9.68467
 21
38.7793
  0
LINE
  8
0
 10
-9.68467
 20
38.7793
 11
-9.47689
 21
37.869
  0
LINE
  8
0
 10
-9.47689
 20
37.869
 11
-9.46914
 21
37.835
  0
LINE
  8
0
 10
-9.46914
 20
37.835
 11
-9.44741
 21
37.8078
  0
LINE
  8
0
 10
-9.44741
 20
37.8078
 11
-8.28901
 21
36.3552
  0
LINE
  8
0
 10
-8.28901
 20
36.3552
 11
-6.61508
 21
35.5491
  0
LINE
  8
0
 10
-6.61508
 20
35.5491
 11
-6.58368
 21
35.5339
  0
LINE
  8
0
 10
-6.58368
 20
35.5339
 11
-4.69091
 21
35.5339
  0
LINE
  8
0
 10
-4.69091
 20
35.5339
 11
-4.65952
 21
35.5491
  0
LINE
  8
0
 10
-4.65952
 20
35.5491
 11
-2.98559
 21
36.3552
  0
LINE
  8
0
 10
-2.98559
 20
36.3552
 11
-1.82719
 21
37.8078
  0
LINE
  8
0
 10
-1.82719
 20
37.8078
 11
-1.80546
 21
37.835
  0
LINE
  8
0
 10
-1.80546
 20
37.835
 11
-1.79771
 21
37.869
  0
LINE
  8
0
 10
-1.79771
 20
37.869
 11
-1.64262
 21
38.5485
  0
LINE
  8
0
 10
-1.64262
 20
38.5485
 11
0.59728
 21
38.5485
  0
LINE
  8
0
 10
0.59728
 20
38.5485
 11
1.33105
 21
38.5485
  0
LINE
  8
0
 10
1.33105
 20
38.5485
 11
3.02662
 21
35.8253
  0
LINE
  8
0
 10
3.02662
 20
35.8253
 11
8.23872
 21
27.4543
  0
LINE
  8
0
 10
8.23872
 20
27.4543
 11
9.75463
 21
26.8224
  0
LINE
  8
0
 10
9.75463
 20
26.8224
 11
10.4118
 21
26.5485
  0
LINE
  8
0
 10
10.4118
 20
26.5485
 11
20.0001
 21
26.5485
  0
LINE
  8
0
 10
20.0001
 20
26.5485
 11
22.0537
 21
26.5485
  0
LINE
  8
0
 10
22.0537
 20
26.5485
 11
23.1302
 21
24.8145
  0
LINE
  8
0
 10
23.1302
 20
24.8145
 11
24.4897
 21
22.6247
  0
LINE
  8
0
 10
24.4897
 20
22.6247
 11
23.2276
 21
15.2969
  0
LINE
  8
0
 10
23.2276
 20
15.2969
 11
21.6167
 21
5.94414
  0
LINE
  8
0
 10
21.6167
 20
5.94414
 11
21.6116
 21
5.91418
  0
LINE
  8
0
 10
21.6116
 20
5.91418
 11
21.3698
 21
3.0569
  0
LINE
  8
0
 10
21.3698
 20
3.0569
 11
20.8318
 21
-3.3
  0
LINE
  8
0
 10
20.8318
 20
-3.3
 11
20.8318
 21
-8.42025
  0
LINE
  8
0
 10
20.8318
 20
-8.42025
 11
20.3031
 21
-8.67486
  0
LINE
  8
0
 10
20.3031
 20
-8.67486
 11
19.1447
 21
-10.1274
  0
LINE
  8
0
 10
19.1447
 20
-10.1274
 11
19.123
 21
-10.1547
  0
LINE
  8
0
 10
19.123
 20
-10.1547
 11
19.1152
 21
-10.1887
  0
LINE
  8
0
 10
19.1152
 20
-10.1887
 11
18.7018
 21
-12
  0
LINE
  8
0
 10
18.7018
 20
-12
 11
19.1152
 21
-13.8113
  0
LINE
  8
0
 10
19.1152
 20
-13.8113
 11
19.123
 21
-13.8453
  0
LINE
  8
0
 10
19.123
 20
-13.8453
 11
19.1447
 21
-13.8726
  0
LINE
  8
0
 10
19.1447
 20
-13.8726
 11
20.3031
 21
-15.3251
  0
LINE
  8
0
 10
20.3031
 20
-15.3251
 11
20.8318
 21
-15.5798
  0
LINE
  8
0
 10
20.8318
 20
-15.5798
 11
20.8318
 21
-20.7
  0
LINE
  8
0
 10
20.8318
 20
-20.7
 11
21.3698
 21
-27.0569
  0
LINE
  8
0
 10
21.3698
 20
-27.0569
 11
21.6116
 21
-29.9142
  0
LINE
  8
0
 10
21.6116
 20
-29.9142
 11
21.6167
 21
-29.9441
  0
LINE
  8
0
 10
21.6167
 20
-29.9441
 11
23.2276
 21
-39.2969
  0
LINE
  8
0
 10
23.2276
 20
-39.2969
 11
24.4897
 21
-46.6247
  0
LINE
  8
0
 10
24.4897
 20
-46.6247
 11
23.1302
 21
-48.8145
  0
LINE
  8
0
 10
23.1302
 20
-48.8145
 11
22.0537
 21
-50.5485
  0
LINE
  8
0
 10
22.0537
 20
-50.5485
 11
20.8136
 21
-50.5485
  0
LINE
  8
0
 10
20.8136
 20
-50.5485
 11
14.242
 21
-50.5485
  0
LINE
  8
0
 10
14.242
 20
-50.5485
 11
13.5149
 21
-50.8516
  0
LINE
  8
0
 10
13.5149
 20
-50.8516
 11
12.0689
 21
-51.4543
  0
LINE
  8
0
 10
12.0689
 20
-51.4543
 11
12.0478
 21
-58.8836
  0
LINE
  8
0
 10
12.0478
 20
-58.8836
 11
12.0421
 21
-60.8699
  0
LINE
  8
0
 10
12.0421
 20
-60.8699
 11
11.7352
 21
-60.8699
  0
LINE
  8
0
 10
11.7352
 20
-60.8699
 11
0.179705
 21
-60.8699
  0
LINE
  8
0
 10
0.179705
 20
-60.8699
 11
-1.72198
 21
-61.3879
  0
LINE
  8
0
 10
-1.72198
 20
-61.3879
 11
-6.82041
 21
-62.7766
  0
LINE
  8
0
 10
-6.82041
 20
-62.7766
 11
-7.42671
 21
-62.0163
  0
LINE
  8
0
 10
-7.42671
 20
-62.0163
 11
-9.10064
 21
-61.2102
  0
LINE
  8
0
 10
-9.10064
 20
-61.2102
 11
-9.13204
 21
-61.1951
  0
LINE
  8
0
 10
-9.13204
 20
-61.1951
 11
-11.0248
 21
-61.1951
  0
LINE
  8
0
 10
-11.0248
 20
-61.1951
 11
-11.0562
 21
-61.2102
  0
LINE
  8
0
 10
-11.0562
 20
-61.2102
 11
-12.7301
 21
-62.0163
  0
LINE
  8
0
 10
-12.7301
 20
-62.0163
 11
-13.8885
 21
-63.4689
  0
LINE
  8
0
 10
-13.8885
 20
-63.4689
 11
-13.9103
 21
-63.4962
  0
LINE
  8
0
 10
-13.9103
 20
-63.4962
 11
-13.918
 21
-63.5301
  0
LINE
  8
0
 10
-13.918
 20
-63.5301
 11
-14.3314
 21
-65.3415
  0
LINE
  8
0
 10
-14.3314
 20
-65.3415
 11
-14.3005
 21
-65.477
  0
LINE
  8
0
 10
-14.3005
 20
-65.477
 11
-24.2387
 21
-71.9355
  0
LINE
  8
0
 10
-24.2387
 20
-71.9355
 11
-24.2389
 21
-71.9356
  0
LINE
  8
0
 10
-24.2389
 20
-71.9356
 11
-26.2938
 21
-73.271
  0
LINE
  8
0
 10
-26.2938
 20
-73.271
 11
-27.597
 21
-74.2658
  0
LINE
  8
0
 10
-27.597
 20
-74.2658
 11
-27.8681
 21
-74.4727
  0
LINE
  8
0
 10
-27.8681
 20
-74.4727
 11
-27.8773
 21
-74.4828
  0
LINE
  8
0
 10
-27.8773
 20
-74.4828
 11
-35.8976
 21
-83.3903
  0
LINE
  8
0
 10
-35.8976
 20
-83.3903
 11
-37.4759
 21
-85.1432
  0
LINE
  8
0
 10
-37.4759
 20
-85.1432
 11
-37.4759
 21
-85.1432
  0
LINE
  8
0
 10
-37.4759
 20
-85.1432
 11
-37.5205
 21
-85.1928
  0
LINE
  8
0
 10
-37.5205
 20
-85.1928
 11
-36.7053
 21
-88.9761
  0
LINE
  8
0
 10
-36.7053
 20
-88.9761
 11
-36.5079
 21
-89.8924
  0
LINE
  8
0
 10
-36.5079
 20
-89.8924
 11
-38.554
 21
-92.7086
  0
LINE
  8
0
 10
-38.554
 20
-92.7086
 11
-38.5542
 21
-92.7088
  0
LINE
  8
0
 10
-38.5542
 20
-92.7088
 11
-44.3159
 21
-100.639
  0
LINE
  8
0
 10
-44.3159
 20
-100.639
 11
-44.8279
 21
-100.636
  0
LINE
  8
0
 10
-44.8279
 20
-100.636
 11
-49.0412
 21
-100.607
  0
LINE
  8
0
 10
-49.0412
 20
-100.607
 11
-57.524
 21
-92.1611
  0
LINE
  8
0
 10
-57.524
 20
-92.1611
 11
-60.9443
 21
-88.7555
  0
LINE
  8
0
 10
-60.9443
 20
-88.7555
 11
-60.9461
 21
-88.7537
  0
LINE
  8
0
 10
-60.9461
 20
-88.7537
 11
-60.9685
 21
-88.7314
  0
LINE
  8
0
 10
-60.9685
 20
-88.7314
 11
-63.2541
 21
-87.8499
  0
LINE
  8
0
 10
-63.2541
 20
-87.8499
 11
-68.8669
 21
-85.6851
  0
LINE
  8
0
 10
-68.8669
 20
-85.6851
 11
-78.2067
 21
-77.7652
  0
LINE
  8
0
 10
-78.2067
 20
-77.7652
 11
-78.2281
 21
-77.7471
  0
LINE
  8
0
 10
-78.2281
 20
-77.7471
 11
-81.964
 21
-74.5792
  0
LINE
  8
0
 10
-81.964
 20
-74.5792
 11
-82.3198
 21
-72.7929
  0
LINE
  8
0
 10
-82.3198
 20
-72.7929
 11
-83.2497
 21
-68.1232
  0
LINE
  8
0
 10
-59.3821
 20
22.5649
 11
-58.5321
 21
24.0371
  0
LINE
  8
0
 10
-58.5321
 20
24.0371
 11
-56.8321
 21
24.0371
  0
LINE
  8
0
 10
-56.8321
 20
24.0371
 11
-55.9821
 21
22.5649
  0
LINE
  8
0
 10
-55.9821
 20
22.5649
 11
-56.8321
 21
21.0926
  0
LINE
  8
0
 10
-56.8321
 20
21.0926
 11
-58.5321
 21
21.0926
  0
LINE
  8
0
 10
-58.5321
 20
21.0926
 11
-59.3821
 21
22.5649
  0
LINE
  8
0
 10
-58.2048
 20
-8.64999
 11
-58.2048
 21
8.64999
  0
LINE
  8
0
 10
-58.2048
 20
8.64999
 11
-58.1338
 21
9.27254
  0
LINE
  8
0
 10
-58.1338
 20
9.27254
 11
-57.5821
 21
14.1113
  0
LINE
  8
0
 10
-57.5821
 20
14.1113
 11
-57.1486
 21
15.9797
  0
LINE
  8
0
 10
-57.1486
 20
15.9797
 11
-56.5634
 21
18.5015
  0
LINE
  8
0
 10
-56.5634
 20
18.5015
 11
-55.8798
 21
18.8306
  0
LINE
  8
0
 10
-55.8798
 20
18.8306
 11
-55.8798
 21
-21.4472
  0
LINE
  8
0
 10
-55.8798
 20
-21.4472
 11
-57.1486
 21
-15.9797
  0
LINE
  8
0
 10
-57.1486
 20
-15.9797
 11
-57.5821
 21
-14.1113
  0
LINE
  8
0
 10
-57.5821
 20
-14.1113
 11
-58.1338
 21
-9.27254
  0
LINE
  8
0
 10
-58.1338
 20
-9.27254
 11
-58.2048
 21
-8.64999
  0
LINE
  8
0
 10
-56.9399
 20
-31.2439
 11
-56.0899
 21
-29.7717
  0
LINE
  8
0
 10
-56.0899
 20
-29.7717
 11
-54.3899
 21
-29.7717
  0
LINE
  8
0
 10
-54.3899
 20
-29.7717
 11
-53.5399
 21
-31.2439
  0
LINE
  8
0
 10
-53.5399
 20
-31.2439
 11
-54.3899
 21
-32.7162
  0
LINE
  8
0
 10
-54.3899
 20
-32.7162
 11
-56.0899
 21
-32.7162
  0
LINE
  8
0
 10
-56.0899
 20
-32.7162
 11
-56.9399
 21
-31.2439
  0
LINE
  8
0
 10
-11.7784
 20
-65.3415
 11
-10.9284
 21
-63.8692
  0
LINE
  8
0
 10
-10.9284
 20
-63.8692
 11
-9.22842
 21
-63.8692
  0
LINE
  8
0
 10
-9.22842
 20
-63.8692
 11
-8.37842
 21
-65.3415
  0
LINE
  8
0
 10
-8.37842
 20
-65.3415
 11
-9.22842
 21
-66.8137
  0
LINE
  8
0
 10
-9.22842
 20
-66.8137
 11
-10.9284
 21
-66.8137
  0
LINE
  8
0
 10
-10.9284
 20
-66.8137
 11
-11.7784
 21
-65.3415
  0
LINE
  8
0
 10
-7.3373
 20
39.6803
 11
-6.4873
 21
41.1526
  0
LINE
  8
0
 10
-6.4873
 20
41.1526
 11
-4.7873
 21
41.1526
  0
LINE
  8
0
 10
-4.7873
 20
41.1526
 11
-3.9373
 21
39.6803
  0
LINE
  8
0
 10
-3.9373
 20
39.6803
 11
-4.7873
 21
38.2081
  0
LINE
  8
0
 10
-4.7873
 20
38.2081
 11
-6.4873
 21
38.2081
  0
LINE
  8
0
 10
-6.4873
 20
38.2081
 11
-7.3373
 21
39.6803
  0
LINE
  8
0
 10
21.2548
 20
-12
 11
22.1048
 21
-10.5278
  0
LINE
  8
0
 10
22.1048
 20
-10.5278
 11
23.8048
 21
-10.5278
  0
LINE
  8
0
 10
23.8048
 20
-10.5278
 11
24.6548
 21
-12
  0
LINE
  8
0
 10
24.6548
 20
-12
 11
23.8048
 21
-13.4722
  0
LINE
  8
0
 10
23.8048
 20
-13.4722
 11
22.1048
 21
-13.4722
  0
LINE
  8
0
 10
22.1048
 20
-13.4722
 11
21.2548
 21
-12
  0
ENDSEC
  0
SECTION
  2
OBJECTS
  0
DICTIONARY
  0
ENDSEC
  0
EOF
