  0
SECTION
  2
BLOCKS
  0
ENDSEC
  0
SECTION
  2
ENTITIES
  0
LINE
  8
0
 10
-92.1705
 20
-68.2596
 11
-92.0831
 21
-68.6984
  0
LINE
  8
0
 10
-92.0831
 20
-68.6984
 11
-91.1349
 21
-77.895
  0
LINE
  8
0
 10
-91.1349
 20
-77.895
 11
-91.1163
 21
-77.9103
  0
LINE
  8
0
 10
-91.1163
 20
-77.9103
 11
-91.1078
 21
-77.9173
  0
LINE
  8
0
 10
-91.1078
 20
-77.9173
 11
-88.1071
 21
-80.3816
  0
LINE
  8
0
 10
-88.1071
 20
-80.3816
 11
-77.7288
 21
-88.9047
  0
LINE
  8
0
 10
-77.7288
 20
-88.9047
 11
-77.6646
 21
-88.9574
  0
LINE
  8
0
 10
-77.6646
 20
-88.9574
 11
-73.2809
 21
-91.098
  0
LINE
  8
0
 10
-73.2809
 20
-91.098
 11
-71.8199
 21
-91.2585
  0
LINE
  8
0
 10
-71.8199
 20
-91.2585
 11
-71.8199
 21
-91.2585
  0
LINE
  8
0
 10
-71.8199
 20
-91.2585
 11
-67.3187
 21
-95.2384
  0
LINE
  8
0
 10
-67.3187
 20
-95.2384
 11
-58.5524
 21
-102.989
  0
LINE
  8
0
 10
-58.5524
 20
-102.989
 11
-58.5524
 21
-102.989
  0
LINE
  8
0
 10
-58.5524
 20
-102.989
 11
-58.4752
 21
-103.058
  0
LINE
  8
0
 10
-58.4752
 20
-103.058
 11
-58.0713
 21
-103.056
  0
LINE
  8
0
 10
-58.0713
 20
-103.056
 11
-54.4247
 21
-103.038
  0
LINE
  8
0
 10
-54.4247
 20
-103.038
 11
-49.4342
 21
-103.072
  0
LINE
  8
0
 10
-49.4342
 20
-103.072
 11
-47.6564
 21
-102.196
  0
LINE
  8
0
 10
-47.6564
 20
-102.196
 11
-47.5767
 21
-102.157
  0
LINE
  8
0
 10
-47.5767
 20
-102.157
 11
-47.5767
 21
-102.157
  0
LINE
  8
0
 10
-47.5767
 20
-102.157
 11
-43.2517
 21
-96.2037
  0
LINE
  8
0
 10
-43.2517
 20
-96.2037
 11
-43.2515
 21
-96.2034
  0
LINE
  8
0
 10
-43.2515
 20
-96.2034
 11
-38.9992
 21
-90.3507
  0
LINE
  8
0
 10
-38.9992
 20
-90.3507
 11
-38.9992
 21
-90.3507
  0
LINE
  8
0
 10
-38.9992
 20
-90.3507
 11
-39.6315
 21
-87.8904
  0
LINE
  8
0
 10
-39.6315
 20
-87.8904
 11
-40.2668
 21
-85.4182
  0
LINE
  8
0
 10
-40.2668
 20
-85.4182
 11
-37.0644
 21
-81.8615
  0
LINE
  8
0
 10
-37.0644
 20
-81.8615
 11
-37.0641
 21
-81.8612
  0
LINE
  8
0
 10
-37.0641
 20
-81.8612
 11
-31.0667
 21
-75.2005
  0
LINE
  8
0
 10
-31.0667
 20
-75.2005
 11
-23.1158
 21
-69.896
  0
LINE
  8
0
 10
-23.1158
 20
-69.896
 11
-23.1156
 21
-69.8958
  0
LINE
  8
0
 10
-23.1156
 20
-69.8958
 11
-19.0209
 21
-67.164
  0
LINE
  8
0
 10
-19.0209
 20
-67.164
 11
-15.4044
 21
-66.3767
  0
LINE
  8
0
 10
-15.4044
 20
-66.3767
 11
-6.5022
 21
-64.4386
  0
LINE
  8
0
 10
-6.5022
 20
-64.4386
 11
0.255806
 21
-64.4386
  0
LINE
  8
0
 10
0.255806
 20
-64.4386
 11
0.294788
 21
-64.4386
  0
LINE
  8
0
 10
0.294788
 20
-64.4386
 11
13.5891
 21
-64.4386
  0
LINE
  8
0
 10
13.5891
 20
-64.4386
 11
17.884
 21
-56.6273
  0
LINE
  8
0
 10
17.884
 20
-56.6273
 11
19.613
 21
-53.4828
  0
LINE
  8
0
 10
19.613
 20
-53.4828
 11
21.8504
 21
-53.4828
  0
LINE
  8
0
 10
21.8504
 20
-53.4828
 11
21.913
 21
-53.4828
  0
LINE
  8
0
 10
21.913
 20
-53.4828
 11
29.623
 21
-53.4828
  0
LINE
  8
0
 10
29.623
 20
-53.4828
 11
32.195
 21
-53.4828
  0
LINE
  8
0
 10
32.195
 20
-53.4828
 11
32.2526
 21
-53.4828
  0
LINE
  8
0
 10
32.2526
 20
-53.4828
 11
34.2664
 21
-53.4828
  0
LINE
  8
0
 10
34.2664
 20
-53.4828
 11
44.9281
 21
-53.4828
  0
LINE
  8
0
 10
44.9281
 20
-53.4828
 11
51.5438
 21
-53.4828
  0
LINE
  8
0
 10
51.5438
 20
-53.4828
 11
56.4892
 21
-48.5766
  0
LINE
  8
0
 10
56.4892
 20
-48.5766
 11
58.3593
 21
-46.7213
  0
LINE
  8
0
 10
58.3593
 20
-46.7213
 11
58.5314
 21
-46.192
  0
LINE
  8
0
 10
58.5314
 20
-46.192
 11
58.6539
 21
-45.8154
  0
LINE
  8
0
 10
58.6539
 20
-45.8154
 11
58.6526
 21
-45.7589
  0
LINE
  8
0
 10
58.6526
 20
-45.7589
 11
58.4907
 21
-38.8261
  0
LINE
  8
0
 10
58.4907
 20
-38.8261
 11
58.2637
 21
-29.1049
  0
LINE
  8
0
 10
58.2637
 20
-29.1049
 11
58.2637
 21
-29.1049
  0
LINE
  8
0
 10
58.2637
 20
-29.1049
 11
58.1795
 21
-21.7701
  0
LINE
  8
0
 10
58.1795
 20
-21.7701
 11
58.1661
 21
-20.6
  0
LINE
  8
0
 10
58.1661
 20
-20.6
 11
58.1661
 21
-3.4
  0
LINE
  8
0
 10
58.1661
 20
-3.4
 11
58.1795
 21
-2.2299
  0
LINE
  8
0
 10
58.1795
 20
-2.2299
 11
58.2637
 21
5.10491
  0
LINE
  8
0
 10
58.2637
 20
5.10491
 11
58.2637
 21
5.10491
  0
LINE
  8
0
 10
58.2637
 20
5.10491
 11
58.4907
 21
14.8261
  0
LINE
  8
0
 10
58.4907
 20
14.8261
 11
58.6526
 21
21.7589
  0
LINE
  8
0
 10
58.6526
 20
21.7589
 11
58.6539
 21
21.8154
  0
LINE
  8
0
 10
58.6539
 20
21.8154
 11
58.5314
 21
22.192
  0
LINE
  8
0
 10
58.5314
 20
22.192
 11
58.3593
 21
22.7213
  0
LINE
  8
0
 10
58.3593
 20
22.7213
 11
56.4892
 21
24.5766
  0
LINE
  8
0
 10
56.4892
 20
24.5766
 11
51.5438
 21
29.4828
  0
LINE
  8
0
 10
51.5438
 20
29.4828
 11
44.9281
 21
29.4828
  0
LINE
  8
0
 10
44.9281
 20
29.4828
 11
34.2664
 21
29.4828
  0
LINE
  8
0
 10
34.2664
 20
29.4828
 11
32.2526
 21
29.4828
  0
LINE
  8
0
 10
32.2526
 20
29.4828
 11
32.195
 21
29.4828
  0
LINE
  8
0
 10
32.195
 20
29.4828
 11
29.623
 21
29.4828
  0
LINE
  8
0
 10
29.623
 20
29.4828
 11
21.913
 21
29.4828
  0
LINE
  8
0
 10
21.913
 20
29.4828
 11
21.8504
 21
29.4828
  0
LINE
  8
0
 10
21.8504
 20
29.4828
 11
12.7839
 21
29.4828
  0
LINE
  8
0
 10
12.7839
 20
29.4828
 11
10.3571
 21
34.5533
  0
LINE
  8
0
 10
10.3571
 20
34.5533
 11
7.47413
 21
40.5769
  0
LINE
  8
0
 10
7.47413
 20
40.5769
 11
6.95471
 21
41.1147
  0
LINE
  8
0
 10
6.95471
 20
41.1147
 11
6.59913
 21
41.4828
  0
LINE
  8
0
 10
6.59913
 20
41.4828
 11
-0.230837
 21
41.4828
  0
LINE
  8
0
 10
-0.230837
 20
41.4828
 11
-10.1114
 21
41.4828
  0
LINE
  8
0
 10
-10.1114
 20
41.4828
 11
-13.1773
 21
43.0182
  0
LINE
  8
0
 10
-13.1773
 20
43.0182
 11
-13.1775
 21
43.0183
  0
LINE
  8
0
 10
-13.1775
 20
43.0183
 11
-15.7423
 21
44.3028
  0
LINE
  8
0
 10
-15.7423
 20
44.3028
 11
-23.1897
 21
44.3028
  0
LINE
  8
0
 10
-23.1897
 20
44.3028
 11
-23.2572
 21
44.3028
  0
LINE
  8
0
 10
-23.2572
 20
44.3028
 11
-32.0929
 21
44.3028
  0
LINE
  8
0
 10
-32.0929
 20
44.3028
 11
-33.9495
 21
42.6453
  0
LINE
  8
0
 10
-33.9495
 20
42.6453
 11
-35.2518
 21
41.4828
  0
LINE
  8
0
 10
-35.2518
 20
41.4828
 11
-45.7258
 21
41.4828
  0
LINE
  8
0
 10
-45.7258
 20
41.4828
 11
-50.9067
 21
41.4828
  0
LINE
  8
0
 10
-50.9067
 20
41.4828
 11
-53.9515
 21
41.4828
  0
LINE
  8
0
 10
-53.9515
 20
41.4828
 11
-53.9769
 21
41.4828
  0
LINE
  8
0
 10
-53.9769
 20
41.4828
 11
-55.0596
 21
41.4828
  0
LINE
  8
0
 10
-55.0596
 20
41.4828
 11
-66.2654
 21
41.4828
  0
LINE
  8
0
 10
-66.2654
 20
41.4828
 11
-70.0637
 21
41.4828
  0
LINE
  8
0
 10
-70.0637
 20
41.4828
 11
-73.198
 21
38.7359
  0
LINE
  8
0
 10
-73.198
 20
38.7359
 11
-74.0166
 21
38.0184
  0
LINE
  8
0
 10
-74.0166
 20
38.0184
 11
-81.0166
 21
31.0184
  0
LINE
  8
0
 10
-81.0166
 20
31.0184
 11
-81.6162
 21
26.5429
  0
LINE
  8
0
 10
-81.6162
 20
26.5429
 11
-83.2683
 21
14.2113
  0
LINE
  8
0
 10
-83.2683
 20
14.2113
 11
-83.5321
 21
10.2043
  0
LINE
  8
0
 10
-83.5321
 20
10.2043
 11
-83.6278
 21
8.75
  0
LINE
  8
0
 10
-83.6278
 20
8.75
 11
-83.6278
 21
-8.75
  0
LINE
  8
0
 10
-83.6278
 20
-8.75
 11
-83.5321
 21
-10.2043
  0
LINE
  8
0
 10
-83.5321
 20
-10.2043
 11
-83.2683
 21
-14.2113
  0
LINE
  8
0
 10
-83.2683
 20
-14.2113
 11
-81.6162
 21
-26.5429
  0
LINE
  8
0
 10
-81.6162
 20
-26.5429
 11
-81.0166
 21
-31.0184
  0
LINE
  8
0
 10
-81.0166
 20
-31.0184
 11
-79.9797
 21
-33.5923
  0
LINE
  8
0
 10
-79.9797
 20
-33.5923
 11
-77.8157
 21
-38.9635
  0
LINE
  8
0
 10
-77.8157
 20
-38.9635
 11
-82.7704
 21
-43.121
  0
LINE
  8
0
 10
-82.7704
 20
-43.121
 11
-86.0693
 21
-45.889
  0
LINE
  8
0
 10
-86.0693
 20
-45.889
 11
-86.5961
 21
-46.5314
  0
LINE
  8
0
 10
-86.5961
 20
-46.5314
 11
-86.5961
 21
-46.5314
  0
LINE
  8
0
 10
-86.5961
 20
-46.5314
 11
-87.3252
 21
-47.4205
  0
LINE
  8
0
 10
-87.3252
 20
-47.4205
 11
-85.3853
 21
-52.2569
  0
LINE
  8
0
 10
-85.3853
 20
-52.2569
 11
-83.4458
 21
-57.0925
  0
LINE
  8
0
 10
-83.4458
 20
-57.0925
 11
-83.4458
 21
-57.0925
  0
LINE
  8
0
 10
-83.4458
 20
-57.0925
 11
-87.7952
 21
-62.6595
  0
LINE
  8
0
 10
-87.7952
 20
-62.6595
 11
-92.1212
 21
-68.1965
  0
LINE
  8
0
 10
-92.1212
 20
-68.1965
 11
-92.1705
 21
-68.2596
  0
LINE
  8
0
 10
-92.1705
 20
-68.2596
 11
-92.1705
 21
-68.2596
  0
LINE
  8
0
 10
-89.5557
 20
-69.9917
 11
-86.8912
 21
-65.3016
  0
LINE
  8
0
 10
-86.8912
 20
-65.3016
 11
-84.0989
 21
-61.7276
  0
LINE
  8
0
 10
-84.0989
 20
-61.7276
 11
-80.4214
 21
-57.0206
  0
LINE
  8
0
 10
-80.4214
 20
-57.0206
 11
-80.3923
 21
-56.9834
  0
LINE
  8
0
 10
-80.3923
 20
-56.9834
 11
-80.3709
 21
-56.9561
  0
LINE
  8
0
 10
-80.3709
 20
-56.9561
 11
-82.3837
 21
-52.3539
  0
LINE
  8
0
 10
-82.3837
 20
-52.3539
 11
-84.4165
 21
-47.7061
  0
LINE
  8
0
 10
-84.4165
 20
-47.7061
 11
-82.7783
 21
-46.3315
  0
LINE
  8
0
 10
-82.7783
 20
-46.3315
 11
-82.778
 21
-46.3313
  0
LINE
  8
0
 10
-82.778
 20
-46.3313
 11
-78.0072
 21
-42.3281
  0
LINE
  8
0
 10
-78.0072
 20
-42.3281
 11
-77.7598
 21
-43.4119
  0
LINE
  8
0
 10
-77.7598
 20
-43.4119
 11
-77.7521
 21
-43.4459
  0
LINE
  8
0
 10
-77.7521
 20
-43.4459
 11
-77.7303
 21
-43.4731
  0
LINE
  8
0
 10
-77.7303
 20
-43.4731
 11
-76.5719
 21
-44.9257
  0
LINE
  8
0
 10
-76.5719
 20
-44.9257
 11
-74.898
 21
-45.7318
  0
LINE
  8
0
 10
-74.898
 20
-45.7318
 11
-74.8666
 21
-45.747
  0
LINE
  8
0
 10
-74.8666
 20
-45.747
 11
-72.9738
 21
-45.747
  0
LINE
  8
0
 10
-72.9738
 20
-45.747
 11
-72.9424
 21
-45.7318
  0
LINE
  8
0
 10
-72.9424
 20
-45.7318
 11
-71.2685
 21
-44.9257
  0
LINE
  8
0
 10
-71.2685
 20
-44.9257
 11
-70.1101
 21
-43.4731
  0
LINE
  8
0
 10
-70.1101
 20
-43.4731
 11
-70.0884
 21
-43.4459
  0
LINE
  8
0
 10
-70.0884
 20
-43.4459
 11
-70.0806
 21
-43.4119
  0
LINE
  8
0
 10
-70.0806
 20
-43.4119
 11
-69.6672
 21
-41.6006
  0
LINE
  8
0
 10
-69.6672
 20
-41.6006
 11
-70.0806
 21
-39.7892
  0
LINE
  8
0
 10
-70.0806
 20
-39.7892
 11
-70.0884
 21
-39.7553
  0
LINE
  8
0
 10
-70.0884
 20
-39.7553
 11
-70.1101
 21
-39.728
  0
LINE
  8
0
 10
-70.1101
 20
-39.728
 11
-71.2685
 21
-38.2754
  0
LINE
  8
0
 10
-71.2685
 20
-38.2754
 11
-72.9424
 21
-37.4693
  0
LINE
  8
0
 10
-72.9424
 20
-37.4693
 11
-72.9738
 21
-37.4542
  0
LINE
  8
0
 10
-72.9738
 20
-37.4542
 11
-74.8666
 21
-37.4542
  0
LINE
  8
0
 10
-74.8666
 20
-37.4542
 11
-74.898
 21
-37.4693
  0
LINE
  8
0
 10
-74.898
 20
-37.4693
 11
-75.2455
 21
-37.6367
  0
LINE
  8
0
 10
-75.2455
 20
-37.6367
 11
-75.5112
 21
-37.1505
  0
LINE
  8
0
 10
-75.5112
 20
-37.1505
 11
-78.9166
 21
-30.9184
  0
LINE
  8
0
 10
-78.9166
 20
-30.9184
 11
-80.6666
 21
-17.8559
  0
LINE
  8
0
 10
-80.6666
 20
-17.8559
 11
-81.1683
 21
-14.1113
  0
LINE
  8
0
 10
-81.1683
 20
-14.1113
 11
-81.4402
 21
-9.9813
  0
LINE
  8
0
 10
-81.4402
 20
-9.9813
 11
-81.5278
 21
-8.65
  0
LINE
  8
0
 10
-81.5278
 20
-8.65
 11
-81.5278
 21
8.65
  0
LINE
  8
0
 10
-81.5278
 20
8.65
 11
-81.4402
 21
9.9813
  0
LINE
  8
0
 10
-81.4402
 20
9.9813
 11
-81.1683
 21
14.1113
  0
LINE
  8
0
 10
-81.1683
 20
14.1113
 11
-80.6666
 21
17.8559
  0
LINE
  8
0
 10
-80.6666
 20
17.8559
 11
-80.4651
 21
19.36
  0
LINE
  8
0
 10
-80.4651
 20
19.36
 11
-80.3692
 21
19.2397
  0
LINE
  8
0
 10
-80.3692
 20
19.2397
 11
-78.6952
 21
18.4336
  0
LINE
  8
0
 10
-78.6952
 20
18.4336
 11
-78.6639
 21
18.4185
  0
LINE
  8
0
 10
-78.6639
 20
18.4185
 11
-76.7711
 21
18.4185
  0
LINE
  8
0
 10
-76.7711
 20
18.4185
 11
-76.7397
 21
18.4336
  0
LINE
  8
0
 10
-76.7397
 20
18.4336
 11
-75.0658
 21
19.2397
  0
LINE
  8
0
 10
-75.0658
 20
19.2397
 11
-73.9074
 21
20.6923
  0
LINE
  8
0
 10
-73.9074
 20
20.6923
 11
-73.8856
 21
20.7195
  0
LINE
  8
0
 10
-73.8856
 20
20.7195
 11
-73.8779
 21
20.7535
  0
LINE
  8
0
 10
-73.8779
 20
20.7535
 11
-73.4645
 21
22.5649
  0
LINE
  8
0
 10
-73.4645
 20
22.5649
 11
-73.8779
 21
24.3762
  0
LINE
  8
0
 10
-73.8779
 20
24.3762
 11
-73.8856
 21
24.4102
  0
LINE
  8
0
 10
-73.8856
 20
24.4102
 11
-73.9074
 21
24.4374
  0
LINE
  8
0
 10
-73.9074
 20
24.4374
 11
-75.0658
 21
25.89
  0
LINE
  8
0
 10
-75.0658
 20
25.89
 11
-76.7397
 21
26.6961
  0
LINE
  8
0
 10
-76.7397
 20
26.6961
 11
-76.7711
 21
26.7112
  0
LINE
  8
0
 10
-76.7711
 20
26.7112
 11
-78.6639
 21
26.7112
  0
LINE
  8
0
 10
-78.6639
 20
26.7112
 11
-78.6952
 21
26.6961
  0
LINE
  8
0
 10
-78.6952
 20
26.6961
 11
-79.5366
 21
26.291
  0
LINE
  8
0
 10
-79.5366
 20
26.291
 11
-78.9166
 21
30.9184
  0
LINE
  8
0
 10
-78.9166
 20
30.9184
 11
-73.9166
 21
35.9184
  0
LINE
  8
0
 10
-73.9166
 20
35.9184
 11
-72.8592
 21
36.4374
  0
LINE
  8
0
 10
-72.8592
 20
36.4374
 11
-68.5585
 21
38.5485
  0
LINE
  8
0
 10
-68.5585
 20
38.5485
 11
-56.5471
 21
38.5485
  0
LINE
  8
0
 10
-56.5471
 20
38.5485
 11
-53.5968
 21
38.5485
  0
LINE
  8
0
 10
-53.5968
 20
38.5485
 11
-50.5951
 21
38.5485
  0
LINE
  8
0
 10
-50.5951
 20
38.5485
 11
-49.6614
 21
38.5485
  0
LINE
  8
0
 10
-49.6614
 20
38.5485
 11
-37.8921
 21
38.5485
  0
LINE
  8
0
 10
-37.8921
 20
38.5485
 11
-37.8736
 21
38.5485
  0
LINE
  8
0
 10
-37.8736
 20
38.5485
 11
-33.9621
 21
38.5485
  0
LINE
  8
0
 10
-33.9621
 20
38.5485
 11
-31.9217
 21
40.5099
  0
LINE
  8
0
 10
-31.9217
 20
40.5099
 11
-31.0286
 21
41.3685
  0
LINE
  8
0
 10
-31.0286
 20
41.3685
 11
-20.8505
 21
41.3685
  0
LINE
  8
0
 10
-20.8505
 20
41.3685
 11
-14.8658
 21
41.3685
  0
LINE
  8
0
 10
-14.8658
 20
41.3685
 11
-12.6209
 21
40.1944
  0
LINE
  8
0
 10
-12.6209
 20
40.1944
 11
-9.47365
 21
38.5485
  0
LINE
  8
0
 10
-9.47365
 20
38.5485
 11
-5.63204
 21
38.5485
  0
LINE
  8
0
 10
-5.63204
 20
38.5485
 11
-6.12471
 21
37.9307
  0
LINE
  8
0
 10
-6.12471
 20
37.9307
 11
-6.14643
 21
37.9034
  0
LINE
  8
0
 10
-6.14643
 20
37.9034
 11
-6.15419
 21
37.8695
  0
LINE
  8
0
 10
-6.15419
 20
37.8695
 11
-6.56762
 21
36.0581
  0
LINE
  8
0
 10
-6.56762
 20
36.0581
 11
-6.15419
 21
34.2468
  0
LINE
  8
0
 10
-6.15419
 20
34.2468
 11
-6.14643
 21
34.2128
  0
LINE
  8
0
 10
-6.14643
 20
34.2128
 11
-6.12471
 21
34.1856
  0
LINE
  8
0
 10
-6.12471
 20
34.1856
 11
-4.96631
 21
32.733
  0
LINE
  8
0
 10
-4.96631
 20
32.733
 11
-3.29238
 21
31.9268
  0
LINE
  8
0
 10
-3.29238
 20
31.9268
 11
-3.26098
 21
31.9117
  0
LINE
  8
0
 10
-3.26098
 20
31.9117
 11
-1.36821
 21
31.9117
  0
LINE
  8
0
 10
-1.36821
 20
31.9117
 11
-1.33682
 21
31.9268
  0
LINE
  8
0
 10
-1.33682
 20
31.9268
 11
0.337116
 21
32.733
  0
LINE
  8
0
 10
0.337116
 20
32.733
 11
1.49551
 21
34.1856
  0
LINE
  8
0
 10
1.49551
 20
34.1856
 11
1.51724
 21
34.2128
  0
LINE
  8
0
 10
1.51724
 20
34.2128
 11
1.52499
 21
34.2468
  0
LINE
  8
0
 10
1.52499
 20
34.2468
 11
1.93842
 21
36.0581
  0
LINE
  8
0
 10
1.93842
 20
36.0581
 11
1.52499
 21
37.8695
  0
LINE
  8
0
 10
1.52499
 20
37.8695
 11
1.51724
 21
37.9034
  0
LINE
  8
0
 10
1.51724
 20
37.9034
 11
1.49551
 21
37.9307
  0
LINE
  8
0
 10
1.49551
 20
37.9307
 11
1.00284
 21
38.5485
  0
LINE
  8
0
 10
1.00284
 20
38.5485
 11
6.82051
 21
38.5485
  0
LINE
  8
0
 10
6.82051
 20
38.5485
 11
8.722
 21
34.7928
  0
LINE
  8
0
 10
8.722
 20
34.7928
 11
12.4375
 21
27.4543
  0
LINE
  8
0
 10
12.4375
 20
27.4543
 11
12.6819
 21
27.0773
  0
LINE
  8
0
 10
12.6819
 20
27.0773
 11
13.0246
 21
26.5485
  0
LINE
  8
0
 10
13.0246
 20
26.5485
 11
23.028
 21
26.5485
  0
LINE
  8
0
 10
23.028
 20
26.5485
 11
30.1135
 21
26.5485
  0
LINE
  8
0
 10
30.1135
 20
26.5485
 11
32.4216
 21
26.5485
  0
LINE
  8
0
 10
32.4216
 20
26.5485
 11
34.5246
 21
26.5485
  0
LINE
  8
0
 10
34.5246
 20
26.5485
 11
43.3246
 21
26.5485
  0
LINE
  8
0
 10
43.3246
 20
26.5485
 11
51.6915
 21
26.5485
  0
LINE
  8
0
 10
51.6915
 20
26.5485
 11
53.9948
 21
24.2634
  0
LINE
  8
0
 10
53.9948
 20
24.2634
 11
56.251
 21
22.025
  0
LINE
  8
0
 10
56.251
 20
22.025
 11
55.9171
 21
7.7273
  0
LINE
  8
0
 10
55.9171
 20
7.7273
 11
55.7625
 21
5.89115
  0
LINE
  8
0
 10
55.7625
 20
5.89115
 11
55.7625
 21
5.89115
  0
LINE
  8
0
 10
55.7625
 20
5.89115
 11
55.754
 21
5.79118
  0
LINE
  8
0
 10
55.754
 20
5.79118
 11
55.7538
 21
5.78782
  0
LINE
  8
0
 10
55.7538
 20
5.78782
 11
55.7457
 21
5.59948
  0
LINE
  8
0
 10
55.7457
 20
5.59948
 11
55.3648
 21
-3.3
  0
LINE
  8
0
 10
55.3648
 20
-3.3
 11
55.3648
 21
-9.45694
  0
LINE
  8
0
 10
55.3648
 20
-9.45694
 11
54.7411
 21
-8.67486
  0
LINE
  8
0
 10
54.7411
 20
-8.67486
 11
53.0671
 21
-7.86873
  0
LINE
  8
0
 10
53.0671
 20
-7.86873
 11
53.0357
 21
-7.85361
  0
LINE
  8
0
 10
53.0357
 20
-7.85361
 11
51.143
 21
-7.85361
  0
LINE
  8
0
 10
51.143
 20
-7.85361
 11
51.1116
 21
-7.86873
  0
LINE
  8
0
 10
51.1116
 20
-7.86873
 11
49.4376
 21
-8.67486
  0
LINE
  8
0
 10
49.4376
 20
-8.67486
 11
48.2793
 21
-10.1274
  0
LINE
  8
0
 10
48.2793
 20
-10.1274
 11
48.2575
 21
-10.1547
  0
LINE
  8
0
 10
48.2575
 20
-10.1547
 11
48.2498
 21
-10.1887
  0
LINE
  8
0
 10
48.2498
 20
-10.1887
 11
47.8363
 21
-12
  0
LINE
  8
0
 10
47.8363
 20
-12
 11
48.2498
 21
-13.8113
  0
LINE
  8
0
 10
48.2498
 20
-13.8113
 11
48.2575
 21
-13.8453
  0
LINE
  8
0
 10
48.2575
 20
-13.8453
 11
48.2793
 21
-13.8726
  0
LINE
  8
0
 10
48.2793
 20
-13.8726
 11
49.4376
 21
-15.3251
  0
LINE
  8
0
 10
49.4376
 20
-15.3251
 11
51.1116
 21
-16.1313
  0
LINE
  8
0
 10
51.1116
 20
-16.1313
 11
51.143
 21
-16.1464
  0
LINE
  8
0
 10
51.143
 20
-16.1464
 11
53.0357
 21
-16.1464
  0
LINE
  8
0
 10
53.0357
 20
-16.1464
 11
53.0671
 21
-16.1313
  0
LINE
  8
0
 10
53.0671
 20
-16.1313
 11
54.7411
 21
-15.3251
  0
LINE
  8
0
 10
54.7411
 20
-15.3251
 11
55.3648
 21
-14.5431
  0
LINE
  8
0
 10
55.3648
 20
-14.5431
 11
55.3648
 21
-20.7
  0
LINE
  8
0
 10
55.3648
 20
-20.7
 11
55.7457
 21
-29.5995
  0
LINE
  8
0
 10
55.7457
 20
-29.5995
 11
55.7538
 21
-29.7878
  0
LINE
  8
0
 10
55.7538
 20
-29.7878
 11
55.754
 21
-29.7912
  0
LINE
  8
0
 10
55.754
 20
-29.7912
 11
55.7625
 21
-29.8911
  0
LINE
  8
0
 10
55.7625
 20
-29.8911
 11
55.7625
 21
-29.8911
  0
LINE
  8
0
 10
55.7625
 20
-29.8911
 11
55.9171
 21
-31.7273
  0
LINE
  8
0
 10
55.9171
 20
-31.7273
 11
56.251
 21
-46.025
  0
LINE
  8
0
 10
56.251
 20
-46.025
 11
53.9948
 21
-48.2634
  0
LINE
  8
0
 10
53.9948
 20
-48.2634
 11
51.6915
 21
-50.5485
  0
LINE
  8
0
 10
51.6915
 20
-50.5485
 11
43.3246
 21
-50.5485
  0
LINE
  8
0
 10
43.3246
 20
-50.5485
 11
34.5246
 21
-50.5485
  0
LINE
  8
0
 10
34.5246
 20
-50.5485
 11
32.4216
 21
-50.5485
  0
LINE
  8
0
 10
32.4216
 20
-50.5485
 11
30.1135
 21
-50.5485
  0
LINE
  8
0
 10
30.1135
 20
-50.5485
 11
23.028
 21
-50.5485
  0
LINE
  8
0
 10
23.028
 20
-50.5485
 11
13.0246
 21
-50.5485
  0
LINE
  8
0
 10
13.0246
 20
-50.5485
 11
12.6819
 21
-51.0773
  0
LINE
  8
0
 10
12.6819
 20
-51.0773
 11
12.4375
 21
-51.4543
  0
LINE
  8
0
 10
12.4375
 20
-51.4543
 11
12.4397
 21
-51.5009
  0
LINE
  8
0
 10
12.4397
 20
-51.5009
 11
12.4799
 21
-52.3641
  0
LINE
  8
0
 10
12.4799
 20
-52.3641
 11
12.5274
 21
-53.3862
  0
LINE
  8
0
 10
12.5274
 20
-53.3862
 11
12.5295
 21
-53.4316
  0
LINE
  8
0
 10
12.5295
 20
-53.4316
 11
12.5319
 21
-53.4828
  0
LINE
  8
0
 10
12.5319
 20
-53.4828
 11
12.5319
 21
-53.4828
  0
LINE
  8
0
 10
12.5319
 20
-53.4828
 11
12.5783
 21
-53.4828
  0
LINE
  8
0
 10
12.5783
 20
-53.4828
 11
16.4304
 21
-53.4828
  0
LINE
  8
0
 10
16.4304
 20
-53.4828
 11
15.9878
 21
-54.4469
  0
LINE
  8
0
 10
15.9878
 20
-54.4469
 11
13.0393
 21
-60.8699
  0
LINE
  8
0
 10
13.0393
 20
-60.8699
 11
7.87507
 21
-60.8699
  0
LINE
  8
0
 10
7.87507
 20
-60.8699
 11
-6.08605
 21
-60.8699
  0
LINE
  8
0
 10
-6.08605
 20
-60.8699
 11
-9.29984
 21
-61.7752
  0
LINE
  8
0
 10
-9.29984
 20
-61.7752
 11
-14.5757
 21
-63.2612
  0
LINE
  8
0
 10
-14.5757
 20
-63.2612
 11
-14.4573
 21
-62.7426
  0
LINE
  8
0
 10
-14.4573
 20
-62.7426
 11
-14.8708
 21
-60.9313
  0
LINE
  8
0
 10
-14.8708
 20
-60.9313
 11
-14.8785
 21
-60.8973
  0
LINE
  8
0
 10
-14.8785
 20
-60.8973
 11
-14.9002
 21
-60.87
  0
LINE
  8
0
 10
-14.9002
 20
-60.87
 11
-16.0586
 21
-59.4175
  0
LINE
  8
0
 10
-16.0586
 20
-59.4175
 11
-17.7326
 21
-58.6113
  0
LINE
  8
0
 10
-17.7326
 20
-58.6113
 11
-17.764
 21
-58.5962
  0
LINE
  8
0
 10
-17.764
 20
-58.5962
 11
-19.6567
 21
-58.5962
  0
LINE
  8
0
 10
-19.6567
 20
-58.5962
 11
-19.6881
 21
-58.6113
  0
LINE
  8
0
 10
-19.6881
 20
-58.6113
 11
-21.3621
 21
-59.4175
  0
LINE
  8
0
 10
-21.3621
 20
-59.4175
 11
-22.5205
 21
-60.87
  0
LINE
  8
0
 10
-22.5205
 20
-60.87
 11
-22.5422
 21
-60.8973
  0
LINE
  8
0
 10
-22.5422
 20
-60.8973
 11
-22.5499
 21
-60.9313
  0
LINE
  8
0
 10
-22.5499
 20
-60.9313
 11
-22.9634
 21
-62.7426
  0
LINE
  8
0
 10
-22.9634
 20
-62.7426
 11
-22.5499
 21
-64.5539
  0
LINE
  8
0
 10
-22.5499
 20
-64.5539
 11
-22.5422
 21
-64.5879
  0
LINE
  8
0
 10
-22.5422
 20
-64.5879
 11
-22.5205
 21
-64.6152
  0
LINE
  8
0
 10
-22.5205
 20
-64.6152
 11
-21.3621
 21
-66.0677
  0
LINE
  8
0
 10
-21.3621
 20
-66.0677
 11
-21.186
 21
-66.1525
  0
LINE
  8
0
 10
-21.186
 20
-66.1525
 11
-28.5482
 21
-70.937
  0
LINE
  8
0
 10
-28.5482
 20
-70.937
 11
-28.5485
 21
-70.9371
  0
LINE
  8
0
 10
-28.5485
 20
-70.9371
 11
-32.1398
 21
-73.271
  0
LINE
  8
0
 10
-32.1398
 20
-73.271
 11
-33.1795
 21
-74.0646
  0
LINE
  8
0
 10
-33.1795
 20
-74.0646
 11
-33.7141
 21
-74.4727
  0
LINE
  8
0
 10
-33.7141
 20
-74.4727
 11
-33.7313
 21
-74.4918
  0
LINE
  8
0
 10
-33.7313
 20
-74.4918
 11
-40.3524
 21
-81.8452
  0
LINE
  8
0
 10
-40.3524
 20
-81.8452
 11
-43.3355
 21
-85.1583
  0
LINE
  8
0
 10
-43.3355
 20
-85.1583
 11
-43.3355
 21
-85.1583
  0
LINE
  8
0
 10
-43.3355
 20
-85.1583
 11
-43.3665
 21
-85.1928
  0
LINE
  8
0
 10
-43.3665
 20
-85.1928
 11
-42.9081
 21
-87.3202
  0
LINE
  8
0
 10
-42.9081
 20
-87.3202
 11
-42.3539
 21
-89.8924
  0
LINE
  8
0
 10
-42.3539
 20
-89.8924
 11
-48.9591
 21
-98.9837
  0
LINE
  8
0
 10
-48.9591
 20
-98.9837
 11
-50.179
 21
-100.663
  0
LINE
  8
0
 10
-50.179
 20
-100.663
 11
-56.3181
 21
-100.745
  0
LINE
  8
0
 10
-56.3181
 20
-100.745
 11
-64.1036
 21
-93.9342
  0
LINE
  8
0
 10
-64.1036
 20
-93.9342
 11
-69.6878
 21
-89.0487
  0
LINE
  8
0
 10
-69.6878
 20
-89.0487
 11
-69.7289
 21
-89.0128
  0
LINE
  8
0
 10
-69.7289
 20
-89.0128
 11
-73.8214
 21
-87.0125
  0
LINE
  8
0
 10
-73.8214
 20
-87.0125
 11
-75.6868
 21
-86.4701
  0
LINE
  8
0
 10
-75.6868
 20
-86.4701
 11
-79.5227
 21
-83.3283
  0
LINE
  8
0
 10
-79.5227
 20
-83.3283
 11
-89.0169
 21
-75.5522
  0
LINE
  8
0
 10
-89.0169
 20
-75.5522
 11
-89.5557
 21
-69.9917
  0
LINE
  8
0
 10
-79.4175
 20
22.5649
 11
-78.5675
 21
24.0371
  0
LINE
  8
0
 10
-78.5675
 20
24.0371
 11
-76.8675
 21
24.0371
  0
LINE
  8
0
 10
-76.8675
 20
24.0371
 11
-76.0175
 21
22.5649
  0
LINE
  8
0
 10
-76.0175
 20
22.5649
 11
-76.8675
 21
21.0926
  0
LINE
  8
0
 10
-76.8675
 20
21.0926
 11
-78.5675
 21
21.0926
  0
LINE
  8
0
 10
-78.5675
 20
21.0926
 11
-79.4175
 21
22.5649
  0
LINE
  8
0
 10
-75.6202
 20
-41.6006
 11
-74.7702
 21
-40.1283
  0
LINE
  8
0
 10
-74.7702
 20
-40.1283
 11
-73.0702
 21
-40.1283
  0
LINE
  8
0
 10
-73.0702
 20
-40.1283
 11
-72.2202
 21
-41.6006
  0
LINE
  8
0
 10
-72.2202
 20
-41.6006
 11
-73.0702
 21
-43.0728
  0
LINE
  8
0
 10
-73.0702
 20
-43.0728
 11
-74.7702
 21
-43.0728
  0
LINE
  8
0
 10
-74.7702
 20
-43.0728
 11
-75.6202
 21
-41.6006
  0
LINE
  8
0
 10
-20.4103
 20
-62.7426
 11
-19.5603
 21
-61.2704
  0
LINE
  8
0
 10
-19.5603
 20
-61.2704
 11
-17.8603
 21
-61.2704
  0
LINE
  8
0
 10
-17.8603
 20
-61.2704
 11
-17.0103
 21
-62.7426
  0
LINE
  8
0
 10
-17.0103
 20
-62.7426
 11
-17.8603
 21
-64.2148
  0
LINE
  8
0
 10
-17.8603
 20
-64.2148
 11
-19.5603
 21
-64.2148
  0
LINE
  8
0
 10
-19.5603
 20
-64.2148
 11
-20.4103
 21
-62.7426
  0
LINE
  8
0
 10
-4.0146
 20
36.0581
 11
-3.1646
 21
37.5304
  0
LINE
  8
0
 10
-3.1646
 20
37.5304
 11
-1.4646
 21
37.5304
  0
LINE
  8
0
 10
-1.4646
 20
37.5304
 11
-0.614597
 21
36.0581
  0
LINE
  8
0
 10
-0.614597
 20
36.0581
 11
-1.4646
 21
34.5859
  0
LINE
  8
0
 10
-1.4646
 20
34.5859
 11
-3.1646
 21
34.5859
  0
LINE
  8
0
 10
-3.1646
 20
34.5859
 11
-4.0146
 21
36.0581
  0
LINE
  8
0
 10
50.3894
 20
-12
 11
51.2394
 21
-10.5278
  0
LINE
  8
0
 10
51.2394
 20
-10.5278
 11
52.9394
 21
-10.5278
  0
LINE
  8
0
 10
52.9394
 20
-10.5278
 11
53.7894
 21
-12
  0
LINE
  8
0
 10
53.7894
 20
-12
 11
52.9394
 21
-13.4722
  0
LINE
  8
0
 10
52.9394
 20
-13.4722
 11
51.2394
 21
-13.4722
  0
LINE
  8
0
 10
51.2394
 20
-13.4722
 11
50.3894
 21
-12
  0
ENDSEC
  0
SECTION
  2
OBJECTS
  0
DICTIONARY
  0
ENDSEC
  0
EOF
