  0
SECTION
  2
BLOCKS
  0
ENDSEC
  0
SECTION
  2
ENTITIES
  0
LINE
  8
0
 10
-73.7056
 20
-68.2596
 11
-73.2939
 21
-70.3271
  0
LINE
  8
0
 10
-73.2939
 20
-70.3271
 11
-71.9056
 21
-77.298
  0
LINE
  8
0
 10
-71.9056
 20
-77.298
 11
-61.7457
 21
-85.9132
  0
LINE
  8
0
 10
-61.7457
 20
-85.9132
 11
-58.7324
 21
-88.4684
  0
LINE
  8
0
 10
-58.7324
 20
-88.4684
 11
-58.7154
 21
-88.4828
  0
LINE
  8
0
 10
-58.7154
 20
-88.4828
 11
-58.6563
 21
-88.533
  0
LINE
  8
0
 10
-58.6563
 20
-88.533
 11
-56.8324
 21
-89.1685
  0
LINE
  8
0
 10
-56.8324
 20
-89.1685
 11
-51.1734
 21
-91.1403
  0
LINE
  8
0
 10
-51.1734
 20
-91.1403
 11
-42.1716
 21
-100.103
  0
LINE
  8
0
 10
-42.1716
 20
-100.103
 11
-39.2461
 21
-103.016
  0
LINE
  8
0
 10
-39.2461
 20
-103.016
 11
-32.8091
 21
-103.06
  0
LINE
  8
0
 10
-32.8091
 20
-103.06
 11
-30.9693
 21
-103.072
  0
LINE
  8
0
 10
-30.9693
 20
-103.072
 11
-30.5789
 21
-102.88
  0
LINE
  8
0
 10
-30.5789
 20
-102.88
 11
-29.1118
 21
-102.157
  0
LINE
  8
0
 10
-29.1118
 20
-102.157
 11
-29.1118
 21
-102.157
  0
LINE
  8
0
 10
-29.1118
 20
-102.157
 11
-27.6059
 21
-100.084
  0
LINE
  8
0
 10
-27.6059
 20
-100.084
 11
-27.6058
 21
-100.084
  0
LINE
  8
0
 10
-27.6058
 20
-100.084
 11
-20.5343
 21
-90.3507
  0
LINE
  8
0
 10
-20.5343
 20
-90.3507
 11
-20.5343
 21
-90.3507
  0
LINE
  8
0
 10
-20.5343
 20
-90.3507
 11
-20.756
 21
-89.488
  0
LINE
  8
0
 10
-20.756
 20
-89.488
 11
-21.8019
 21
-85.4182
  0
LINE
  8
0
 10
-21.8019
 20
-85.4182
 11
-20.4114
 21
-83.8739
  0
LINE
  8
0
 10
-20.4114
 20
-83.8739
 11
-12.6018
 21
-75.2004
  0
LINE
  8
0
 10
-12.6018
 20
-75.2004
 11
-2.46523
 21
-68.4378
  0
LINE
  8
0
 10
-2.46523
 20
-68.4378
 11
-2.46507
 21
-68.4377
  0
LINE
  8
0
 10
-2.46507
 20
-68.4377
 11
-0.555986
 21
-67.164
  0
LINE
  8
0
 10
-0.555986
 20
-67.164
 11
-0.0860652
 21
-67.0781
  0
LINE
  8
0
 10
-0.0860652
 20
-67.0781
 11
-0.0690075
 21
-67.1528
  0
LINE
  8
0
 10
-0.0690075
 20
-67.1528
 11
-0.0612532
 21
-67.1868
  0
LINE
  8
0
 10
-0.0612532
 20
-67.1868
 11
-0.0395261
 21
-67.214
  0
LINE
  8
0
 10
-0.0395261
 20
-67.214
 11
1.11887
 21
-68.6666
  0
LINE
  8
0
 10
1.11887
 20
-68.6666
 11
2.7928
 21
-69.4728
  0
LINE
  8
0
 10
2.7928
 20
-69.4728
 11
2.8242
 21
-69.4879
  0
LINE
  8
0
 10
2.8242
 20
-69.4879
 11
4.71697
 21
-69.4879
  0
LINE
  8
0
 10
4.71697
 20
-69.4879
 11
4.74837
 21
-69.4728
  0
LINE
  8
0
 10
4.74837
 20
-69.4728
 11
6.4223
 21
-68.6666
  0
LINE
  8
0
 10
6.4223
 20
-68.6666
 11
7.58069
 21
-67.214
  0
LINE
  8
0
 10
7.58069
 20
-67.214
 11
7.60242
 21
-67.1868
  0
LINE
  8
0
 10
7.60242
 20
-67.1868
 11
7.61018
 21
-67.1528
  0
LINE
  8
0
 10
7.61018
 20
-67.1528
 11
7.96322
 21
-65.6061
  0
LINE
  8
0
 10
7.96322
 20
-65.6061
 11
14.3473
 21
-64.4386
  0
LINE
  8
0
 10
14.3473
 20
-64.4386
 11
17.4619
 21
-64.4386
  0
LINE
  8
0
 10
17.4619
 20
-64.4386
 11
17.4814
 21
-64.4386
  0
LINE
  8
0
 10
17.4814
 20
-64.4386
 11
30.281
 21
-64.4386
  0
LINE
  8
0
 10
30.281
 20
-64.4386
 11
31.8386
 21
-63.0395
  0
LINE
  8
0
 10
31.8386
 20
-63.0395
 11
32.2293
 21
-62.6886
  0
LINE
  8
0
 10
32.2293
 20
-62.6886
 11
32.8714
 21
-60.198
  0
LINE
  8
0
 10
32.8714
 20
-60.198
 11
34.6027
 21
-53.4828
  0
LINE
  8
0
 10
34.6027
 20
-53.4828
 11
35.4768
 21
-53.4828
  0
LINE
  8
0
 10
35.4768
 20
-53.4828
 11
41.2781
 21
-53.4828
  0
LINE
  8
0
 10
41.2781
 20
-53.4828
 11
45.6646
 21
-53.4828
  0
LINE
  8
0
 10
45.6646
 20
-53.4828
 11
45.7079
 21
-53.4828
  0
LINE
  8
0
 10
45.7079
 20
-53.4828
 11
52.346
 21
-53.4828
  0
LINE
  8
0
 10
52.346
 20
-53.4828
 11
56.779
 21
-53.4828
  0
LINE
  8
0
 10
56.779
 20
-53.4828
 11
56.8336
 21
-53.4828
  0
LINE
  8
0
 10
56.8336
 20
-53.4828
 11
61.3181
 21
-53.4828
  0
LINE
  8
0
 10
61.3181
 20
-53.4828
 11
62.059
 21
-53.0857
  0
LINE
  8
0
 10
62.059
 20
-53.0857
 11
63.0085
 21
-52.5769
  0
LINE
  8
0
 10
63.0085
 20
-52.5769
 11
65.9058
 21
-48.7776
  0
LINE
  8
0
 10
65.9058
 20
-48.7776
 11
68.1648
 21
-45.8154
  0
LINE
  8
0
 10
68.1648
 20
-45.8154
 11
68.1591
 21
-45.7731
  0
LINE
  8
0
 10
68.1591
 20
-45.7731
 11
68.1518
 21
-45.7188
  0
LINE
  8
0
 10
68.1518
 20
-45.7188
 11
68.1518
 21
-45.7188
  0
LINE
  8
0
 10
68.1518
 20
-45.7188
 11
68.1518
 21
-45.7188
  0
LINE
  8
0
 10
68.1518
 20
-45.7188
 11
66.5453
 21
-33.7272
  0
LINE
  8
0
 10
66.5453
 20
-33.7272
 11
65.926
 21
-29.1049
  0
LINE
  8
0
 10
65.926
 20
-29.1049
 11
65.7673
 21
-26.6935
  0
LINE
  8
0
 10
65.7673
 20
-26.6935
 11
65.3661
 21
-20.6
  0
LINE
  8
0
 10
65.3661
 20
-20.6
 11
65.3661
 21
-3.4
  0
LINE
  8
0
 10
65.3661
 20
-3.4
 11
65.4952
 21
-1.43869
  0
LINE
  8
0
 10
65.4952
 20
-1.43869
 11
65.926
 21
5.1049
  0
LINE
  8
0
 10
65.926
 20
5.1049
 11
66.5453
 21
9.72723
  0
LINE
  8
0
 10
66.5453
 20
9.72723
 11
68.1518
 21
21.7188
  0
LINE
  8
0
 10
68.1518
 20
21.7188
 11
68.1518
 21
21.7188
  0
LINE
  8
0
 10
68.1518
 20
21.7188
 11
68.1518
 21
21.7188
  0
LINE
  8
0
 10
68.1518
 20
21.7188
 11
68.8698
 21
25.1853
  0
LINE
  8
0
 10
68.8698
 20
25.1853
 11
69.7932
 21
29.6441
  0
LINE
  8
0
 10
69.7932
 20
29.6441
 11
71.3148
 21
34.915
  0
LINE
  8
0
 10
71.3148
 20
34.915
 11
71.3149
 21
34.9154
  0
LINE
  8
0
 10
71.3149
 20
34.9154
 11
71.3236
 21
34.9456
  0
LINE
  8
0
 10
71.3236
 20
34.9456
 11
72.0876
 21
34.9456
  0
LINE
  8
0
 10
72.0876
 20
34.9456
 11
72.119
 21
34.9607
  0
LINE
  8
0
 10
72.119
 20
34.9607
 11
73.793
 21
35.7668
  0
LINE
  8
0
 10
73.793
 20
35.7668
 11
74.9514
 21
37.2194
  0
LINE
  8
0
 10
74.9514
 20
37.2194
 11
74.9731
 21
37.2467
  0
LINE
  8
0
 10
74.9731
 20
37.2467
 11
74.9809
 21
37.2806
  0
LINE
  8
0
 10
74.9809
 20
37.2806
 11
75.3943
 21
39.092
  0
LINE
  8
0
 10
75.3943
 20
39.092
 11
74.9809
 21
40.9033
  0
LINE
  8
0
 10
74.9809
 20
40.9033
 11
74.9731
 21
40.9373
  0
LINE
  8
0
 10
74.9731
 20
40.9373
 11
74.9514
 21
40.9645
  0
LINE
  8
0
 10
74.9514
 20
40.9645
 11
73.793
 21
42.4171
  0
LINE
  8
0
 10
73.793
 20
42.4171
 11
73.5186
 21
42.5492
  0
LINE
  8
0
 10
73.5186
 20
42.5492
 11
74.0932
 21
44.5398
  0
LINE
  8
0
 10
74.0932
 20
44.5398
 11
75.7706
 21
48.9118
  0
LINE
  8
0
 10
75.7706
 20
48.9118
 11
76.7043
 21
51.3454
  0
LINE
  8
0
 10
76.7043
 20
51.3454
 11
78.1018
 21
54.1404
  0
LINE
  8
0
 10
78.1018
 20
54.1404
 11
78.1289
 21
54.1947
  0
LINE
  8
0
 10
78.1289
 20
54.1947
 11
78.129
 21
54.1949
  0
LINE
  8
0
 10
78.129
 20
54.1949
 11
82.8208
 21
63.5784
  0
LINE
  8
0
 10
82.8208
 20
63.5784
 11
82.5175
 21
64.1848
  0
LINE
  8
0
 10
82.5175
 20
64.1848
 11
81.5833
 21
66.0532
  0
LINE
  8
0
 10
81.5833
 20
66.0532
 11
78.8751
 21
69.79
  0
LINE
  8
0
 10
78.8751
 20
69.79
 11
77.996
 21
71.003
  0
LINE
  8
0
 10
77.996
 20
71.003
 11
66.033
 21
71.003
  0
LINE
  8
0
 10
66.033
 20
71.003
 11
62.9423
 21
71.003
  0
LINE
  8
0
 10
62.9423
 20
71.003
 11
60.8452
 21
71.003
  0
LINE
  8
0
 10
60.8452
 20
71.003
 11
60.8297
 21
71.003
  0
LINE
  8
0
 10
60.8297
 20
71.003
 11
60.3969
 21
71.003
  0
LINE
  8
0
 10
60.3969
 20
71.003
 11
48.6266
 21
71.003
  0
LINE
  8
0
 10
48.6266
 20
71.003
 11
48.6104
 21
71.003
  0
LINE
  8
0
 10
48.6104
 20
71.003
 11
46.4676
 21
71.003
  0
LINE
  8
0
 10
46.4676
 20
71.003
 11
41.6678
 21
80.5281
  0
LINE
  8
0
 10
41.6678
 20
80.5281
 11
40.3086
 21
82.6427
  0
LINE
  8
0
 10
40.3086
 20
82.6427
 11
40.077
 21
83.003
  0
LINE
  8
0
 10
40.077
 20
83.003
 11
36.2871
 21
83.003
  0
LINE
  8
0
 10
36.2871
 20
83.003
 11
36.1157
 21
83.7537
  0
LINE
  8
0
 10
36.1157
 20
83.7537
 11
36.108
 21
83.7876
  0
LINE
  8
0
 10
36.108
 20
83.7876
 11
36.0862
 21
83.8149
  0
LINE
  8
0
 10
36.0862
 20
83.8149
 11
34.9279
 21
85.2675
  0
LINE
  8
0
 10
34.9279
 20
85.2675
 11
33.2539
 21
86.0736
  0
LINE
  8
0
 10
33.2539
 20
86.0736
 11
33.2225
 21
86.0887
  0
LINE
  8
0
 10
33.2225
 20
86.0887
 11
31.3298
 21
86.0887
  0
LINE
  8
0
 10
31.3298
 20
86.0887
 11
31.2984
 21
86.0736
  0
LINE
  8
0
 10
31.2984
 20
86.0736
 11
29.6244
 21
85.2675
  0
LINE
  8
0
 10
29.6244
 20
85.2675
 11
28.466
 21
83.8149
  0
LINE
  8
0
 10
28.466
 20
83.8149
 11
28.4443
 21
83.7876
  0
LINE
  8
0
 10
28.4443
 20
83.7876
 11
28.4365
 21
83.7537
  0
LINE
  8
0
 10
28.4365
 20
83.7537
 11
28.2652
 21
83.003
  0
LINE
  8
0
 10
28.2652
 20
83.003
 11
26.8244
 21
83.003
  0
LINE
  8
0
 10
26.8244
 20
83.003
 11
26.1454
 21
83.3713
  0
LINE
  8
0
 10
26.1454
 20
83.3713
 11
21.6262
 21
85.823
  0
LINE
  8
0
 10
21.6262
 20
85.823
 11
10.9297
 21
85.823
  0
LINE
  8
0
 10
10.9297
 20
85.823
 11
9.32257
 21
85.823
  0
LINE
  8
0
 10
9.32257
 20
85.823
 11
9.2782
 21
85.7602
  0
LINE
  8
0
 10
9.2782
 20
85.7602
 11
9.2782
 21
85.7602
  0
LINE
  8
0
 10
9.2782
 20
85.7602
 11
9.15855
 21
85.591
  0
LINE
  8
0
 10
9.15855
 20
85.591
 11
9.15854
 21
85.591
  0
LINE
  8
0
 10
9.15854
 20
85.591
 11
8.27257
 21
84.338
  0
LINE
  8
0
 10
8.27257
 20
84.338
 11
8.27257
 21
84.338
  0
LINE
  8
0
 10
8.27257
 20
84.338
 11
8.83769
 21
83.003
  0
LINE
  8
0
 10
8.83769
 20
83.003
 11
0.675804
 21
83.003
  0
LINE
  8
0
 10
0.675804
 20
83.003
 11
0.667994
 21
83.003
  0
LINE
  8
0
 10
0.667994
 20
83.003
 11
-0.510439
 21
83.003
  0
LINE
  8
0
 10
-0.510439
 20
83.003
 11
-2.23001
 21
83.003
  0
LINE
  8
0
 10
-2.23001
 20
83.003
 11
-2.40817
 21
83.003
  0
LINE
  8
0
 10
-2.40817
 20
83.003
 11
-11.4218
 21
83.003
  0
LINE
  8
0
 10
-11.4218
 20
83.003
 11
-12.3363
 21
83.003
  0
LINE
  8
0
 10
-12.3363
 20
83.003
 11
-13.5027
 21
81.6119
  0
LINE
  8
0
 10
-13.5027
 20
81.6119
 11
-25.0421
 21
67.8502
  0
LINE
  8
0
 10
-25.0421
 20
67.8502
 11
-27.3932
 21
64.98
  0
LINE
  8
0
 10
-27.3932
 20
64.98
 11
-29.0536
 21
65.7796
  0
LINE
  8
0
 10
-29.0536
 20
65.7796
 11
-29.085
 21
65.7947
  0
LINE
  8
0
 10
-29.085
 20
65.7947
 11
-30.9778
 21
65.7947
  0
LINE
  8
0
 10
-30.9778
 20
65.7947
 11
-31.0092
 21
65.7796
  0
LINE
  8
0
 10
-31.0092
 20
65.7796
 11
-32.6831
 21
64.9735
  0
LINE
  8
0
 10
-32.6831
 20
64.9735
 11
-33.8415
 21
63.5209
  0
LINE
  8
0
 10
-33.8415
 20
63.5209
 11
-33.8632
 21
63.4937
  0
LINE
  8
0
 10
-33.8632
 20
63.4937
 11
-33.871
 21
63.4597
  0
LINE
  8
0
 10
-33.871
 20
63.4597
 11
-34.2844
 21
61.6484
  0
LINE
  8
0
 10
-34.2844
 20
61.6484
 11
-33.871
 21
59.837
  0
LINE
  8
0
 10
-33.871
 20
59.837
 11
-33.8632
 21
59.803
  0
LINE
  8
0
 10
-33.8632
 20
59.803
 11
-33.8415
 21
59.7758
  0
LINE
  8
0
 10
-33.8415
 20
59.7758
 11
-32.7635
 21
58.4241
  0
LINE
  8
0
 10
-32.7635
 20
58.4241
 11
-34.1954
 21
56.676
  0
LINE
  8
0
 10
-34.1954
 20
56.676
 11
-35.1207
 21
55.5465
  0
LINE
  8
0
 10
-35.1207
 20
55.5465
 11
-35.3952
 21
55.1097
  0
LINE
  8
0
 10
-35.3952
 20
55.1097
 11
-37.8675
 21
51.1764
  0
LINE
  8
0
 10
-37.8675
 20
51.1764
 11
-38.6169
 21
49.5918
  0
LINE
  8
0
 10
-38.6169
 20
49.5918
 11
-44.9942
 21
36.1075
  0
LINE
  8
0
 10
-44.9942
 20
36.1075
 11
-46.5393
 21
31.5536
  0
LINE
  8
0
 10
-46.5393
 20
31.5536
 11
-46.7209
 21
31.0184
  0
LINE
  8
0
 10
-46.7209
 20
31.0184
 11
-47.1248
 21
29.1784
  0
LINE
  8
0
 10
-47.1248
 20
29.1784
 11
-50.4099
 21
14.2113
  0
LINE
  8
0
 10
-50.4099
 20
14.2113
 11
-50.9344
 21
9.34788
  0
LINE
  8
0
 10
-50.9344
 20
9.34788
 11
-50.9989
 21
8.75
  0
LINE
  8
0
 10
-50.9989
 20
8.75
 11
-50.9989
 21
-8.75
  0
LINE
  8
0
 10
-50.9989
 20
-8.75
 11
-50.9344
 21
-9.34788
  0
LINE
  8
0
 10
-50.9344
 20
-9.34788
 11
-50.4099
 21
-14.2113
  0
LINE
  8
0
 10
-50.4099
 20
-14.2113
 11
-47.5404
 21
-27.2847
  0
LINE
  8
0
 10
-47.5404
 20
-27.2847
 11
-48.8571
 21
-27.9188
  0
LINE
  8
0
 10
-48.8571
 20
-27.9188
 11
-50.0155
 21
-29.3714
  0
LINE
  8
0
 10
-50.0155
 20
-29.3714
 11
-50.0373
 21
-29.3986
  0
LINE
  8
0
 10
-50.0373
 20
-29.3986
 11
-50.045
 21
-29.4326
  0
LINE
  8
0
 10
-50.045
 20
-29.4326
 11
-50.4584
 21
-31.2439
  0
LINE
  8
0
 10
-50.4584
 20
-31.2439
 11
-50.0665
 21
-32.9609
  0
LINE
  8
0
 10
-50.0665
 20
-32.9609
 11
-57.8876
 21
-37.7357
  0
LINE
  8
0
 10
-57.8876
 20
-37.7357
 11
-57.9416
 21
-37.781
  0
LINE
  8
0
 10
-57.9416
 20
-37.781
 11
-57.9416
 21
-37.781
  0
LINE
  8
0
 10
-57.9416
 20
-37.781
 11
-57.9511
 21
-37.789
  0
LINE
  8
0
 10
-57.9511
 20
-37.789
 11
-57.9511
 21
-37.789
  0
LINE
  8
0
 10
-57.9511
 20
-37.789
 11
-66.145
 21
-44.6645
  0
LINE
  8
0
 10
-66.145
 20
-44.6645
 11
-67.6044
 21
-45.889
  0
LINE
  8
0
 10
-67.6044
 20
-45.889
 11
-67.8104
 21
-46.1402
  0
LINE
  8
0
 10
-67.8104
 20
-46.1402
 11
-67.8104
 21
-46.1402
  0
LINE
  8
0
 10
-67.8104
 20
-46.1402
 11
-68.8603
 21
-47.4205
  0
LINE
  8
0
 10
-68.8603
 20
-47.4205
 11
-68.1811
 21
-49.1137
  0
LINE
  8
0
 10
-68.1811
 20
-49.1137
 11
-64.9809
 21
-57.0925
  0
LINE
  8
0
 10
-64.9809
 20
-57.0925
 11
-72.171
 21
-66.2954
  0
LINE
  8
0
 10
-72.171
 20
-66.2954
 11
-73.6949
 21
-68.246
  0
LINE
  8
0
 10
-73.6949
 20
-68.246
 11
-73.7056
 21
-68.2596
  0
LINE
  8
0
 10
-73.7056
 20
-68.2596
 11
-73.7056
 21
-68.2596
  0
LINE
  8
0
 10
-70.6308
 20
-68.1232
 11
-63.9132
 21
-59.5252
  0
LINE
  8
0
 10
-63.9132
 20
-59.5252
 11
-61.9565
 21
-57.0206
  0
LINE
  8
0
 10
-61.9565
 20
-57.0206
 11
-61.9472
 21
-57.0088
  0
LINE
  8
0
 10
-61.9472
 20
-57.0088
 11
-61.906
 21
-56.9561
  0
LINE
  8
0
 10
-61.906
 20
-56.9561
 11
-62.6301
 21
-55.3006
  0
LINE
  8
0
 10
-62.6301
 20
-55.3006
 11
-65.9516
 21
-47.7061
  0
LINE
  8
0
 10
-65.9516
 20
-47.7061
 11
-57.3895
 21
-40.5216
  0
LINE
  8
0
 10
-57.3895
 20
-40.5216
 11
-49.0562
 21
-34.3195
  0
LINE
  8
0
 10
-49.0562
 20
-34.3195
 11
-48.8571
 21
-34.5691
  0
LINE
  8
0
 10
-48.8571
 20
-34.5691
 11
-47.1832
 21
-35.3752
  0
LINE
  8
0
 10
-47.1832
 20
-35.3752
 11
-47.1518
 21
-35.3903
  0
LINE
  8
0
 10
-47.1518
 20
-35.3903
 11
-45.259
 21
-35.3903
  0
LINE
  8
0
 10
-45.259
 20
-35.3903
 11
-45.2276
 21
-35.3752
  0
LINE
  8
0
 10
-45.2276
 20
-35.3752
 11
-43.5537
 21
-34.5691
  0
LINE
  8
0
 10
-43.5537
 20
-34.5691
 11
-42.3953
 21
-33.1165
  0
LINE
  8
0
 10
-42.3953
 20
-33.1165
 11
-42.3736
 21
-33.0892
  0
LINE
  8
0
 10
-42.3736
 20
-33.0892
 11
-42.3658
 21
-33.0553
  0
LINE
  8
0
 10
-42.3658
 20
-33.0553
 11
-41.9524
 21
-31.2439
  0
LINE
  8
0
 10
-41.9524
 20
-31.2439
 11
-42.1913
 21
-30.1971
  0
LINE
  8
0
 10
-42.1913
 20
-30.1971
 11
-36.909
 21
-30.1971
  0
LINE
  8
0
 10
-36.909
 20
-30.1971
 11
-36.909
 21
28.1971
  0
LINE
  8
0
 10
-36.909
 20
28.1971
 11
-45.2182
 21
28.1971
  0
LINE
  8
0
 10
-45.2182
 20
28.1971
 11
-44.6209
 21
30.9184
  0
LINE
  8
0
 10
-44.6209
 20
30.9184
 11
-44.4457
 21
31.4347
  0
LINE
  8
0
 10
-44.4457
 20
31.4347
 11
-42.8942
 21
36.0075
  0
LINE
  8
0
 10
-42.8942
 20
36.0075
 11
-36.4905
 21
49.5477
  0
LINE
  8
0
 10
-36.4905
 20
49.5477
 11
-35.7675
 21
51.0764
  0
LINE
  8
0
 10
-35.7675
 20
51.0764
 11
-35.507
 21
51.4909
  0
LINE
  8
0
 10
-35.507
 20
51.4909
 11
-33.0207
 21
55.4465
  0
LINE
  8
0
 10
-33.0207
 20
55.4465
 11
-31.2353
 21
57.626
  0
LINE
  8
0
 10
-31.2353
 20
57.626
 11
-31.0092
 21
57.5171
  0
LINE
  8
0
 10
-31.0092
 20
57.5171
 11
-30.9778
 21
57.502
  0
LINE
  8
0
 10
-30.9778
 20
57.502
 11
-29.085
 21
57.502
  0
LINE
  8
0
 10
-29.085
 20
57.502
 11
-29.0536
 21
57.5171
  0
LINE
  8
0
 10
-29.0536
 20
57.5171
 11
-27.3797
 21
58.3232
  0
LINE
  8
0
 10
-27.3797
 20
58.3232
 11
-26.2213
 21
59.7758
  0
LINE
  8
0
 10
-26.2213
 20
59.7758
 11
-26.1995
 21
59.803
  0
LINE
  8
0
 10
-26.1995
 20
59.803
 11
-26.1918
 21
59.837
  0
LINE
  8
0
 10
-26.1918
 20
59.837
 11
-25.7784
 21
61.6484
  0
LINE
  8
0
 10
-25.7784
 20
61.6484
 11
-26.1918
 21
63.4597
  0
LINE
  8
0
 10
-26.1918
 20
63.4597
 11
-26.1995
 21
63.4937
  0
LINE
  8
0
 10
-26.1995
 20
63.4937
 11
-26.2213
 21
63.5209
  0
LINE
  8
0
 10
-26.2213
 20
63.5209
 11
-26.3126
 21
63.6355
  0
LINE
  8
0
 10
-26.3126
 20
63.6355
 11
-23.8981
 21
66.583
  0
LINE
  8
0
 10
-23.8981
 20
66.583
 11
-22.9421
 21
67.7502
  0
LINE
  8
0
 10
-22.9421
 20
67.7502
 11
-12.4888
 21
78.0385
  0
LINE
  8
0
 10
-12.4888
 20
78.0385
 11
-11.468
 21
79.0432
  0
LINE
  8
0
 10
-11.468
 20
79.0432
 11
-2.35118
 21
79.0432
  0
LINE
  8
0
 10
-2.35118
 20
79.0432
 11
-1.55038
 21
79.0432
  0
LINE
  8
0
 10
-1.55038
 20
79.0432
 11
0.132301
 21
79.0432
  0
LINE
  8
0
 10
0.132301
 20
79.0432
 11
0.300182
 21
79.0432
  0
LINE
  8
0
 10
0.300182
 20
79.0432
 11
10.3874
 21
79.0432
  0
LINE
  8
0
 10
10.3874
 20
79.0432
 11
11.4196
 21
79.0432
  0
LINE
  8
0
 10
11.4196
 20
79.0432
 11
11.4264
 21
79.0432
  0
LINE
  8
0
 10
11.4264
 20
79.0432
 11
11.4264
 21
79.0432
  0
LINE
  8
0
 10
11.4264
 20
79.0432
 11
11.4748
 21
79.1064
  0
LINE
  8
0
 10
11.4748
 20
79.1064
 11
12.4435
 21
80.3709
  0
LINE
  8
0
 10
12.4435
 20
80.3709
 11
12.4435
 21
80.3709
  0
LINE
  8
0
 10
12.4435
 20
80.3709
 11
12.5639
 21
80.5281
  0
LINE
  8
0
 10
12.5639
 20
80.5281
 11
12.5639
 21
80.5281
  0
LINE
  8
0
 10
12.5639
 20
80.5281
 11
11.8913
 21
81.8632
  0
LINE
  8
0
 10
11.8913
 20
81.8632
 11
20.9506
 21
81.8632
  0
LINE
  8
0
 10
20.9506
 20
81.8632
 11
22.2555
 21
81.8632
  0
LINE
  8
0
 10
22.2555
 20
81.8632
 11
26.7209
 21
79.4079
  0
LINE
  8
0
 10
26.7209
 20
79.4079
 11
27.3842
 21
79.0432
  0
LINE
  8
0
 10
27.3842
 20
79.0432
 11
29.2847
 21
79.0432
  0
LINE
  8
0
 10
29.2847
 20
79.0432
 11
29.6244
 21
78.6172
  0
LINE
  8
0
 10
29.6244
 20
78.6172
 11
31.2984
 21
77.8111
  0
LINE
  8
0
 10
31.2984
 20
77.8111
 11
31.3298
 21
77.7959
  0
LINE
  8
0
 10
31.3298
 20
77.7959
 11
33.2225
 21
77.7959
  0
LINE
  8
0
 10
33.2225
 20
77.7959
 11
33.2539
 21
77.8111
  0
LINE
  8
0
 10
33.2539
 20
77.8111
 11
34.9279
 21
78.6172
  0
LINE
  8
0
 10
34.9279
 20
78.6172
 11
35.2676
 21
79.0432
  0
LINE
  8
0
 10
35.2676
 20
79.0432
 11
39.0185
 21
79.0432
  0
LINE
  8
0
 10
39.0185
 20
79.0432
 11
40.3485
 21
79.0432
  0
LINE
  8
0
 10
40.3485
 20
79.0432
 11
45.3616
 21
69.5181
  0
LINE
  8
0
 10
45.3616
 20
69.5181
 11
46.5716
 21
67.4085
  0
LINE
  8
0
 10
46.5716
 20
67.4085
 11
46.7811
 21
67.0432
  0
LINE
  8
0
 10
46.7811
 20
67.0432
 11
58.9909
 21
67.0432
  0
LINE
  8
0
 10
58.9909
 20
67.0432
 11
61.0207
 21
67.0432
  0
LINE
  8
0
 10
61.0207
 20
67.0432
 11
63.0822
 21
67.0432
  0
LINE
  8
0
 10
63.0822
 20
67.0432
 11
63.0954
 21
67.0432
  0
LINE
  8
0
 10
63.0954
 20
67.0432
 11
63.4978
 21
67.0432
  0
LINE
  8
0
 10
63.4978
 20
67.0432
 11
75.8922
 21
67.0432
  0
LINE
  8
0
 10
75.8922
 20
67.0432
 11
78.4044
 21
67.0432
  0
LINE
  8
0
 10
78.4044
 20
67.0432
 11
78.9879
 21
66.238
  0
LINE
  8
0
 10
78.9879
 20
66.238
 11
79.5022
 21
65.5284
  0
LINE
  8
0
 10
79.5022
 20
65.5284
 11
75.0828
 21
56.6894
  0
LINE
  8
0
 10
75.0828
 20
56.6894
 11
73.6482
 21
53.8203
  0
LINE
  8
0
 10
73.6482
 20
53.8203
 11
73.6482
 21
53.8203
  0
LINE
  8
0
 10
73.6482
 20
53.8203
 11
73.6482
 21
53.8203
  0
LINE
  8
0
 10
73.6482
 20
53.8203
 11
73.6241
 21
53.7721
  0
LINE
  8
0
 10
73.6241
 20
53.7721
 11
73.6128
 21
53.7496
  0
LINE
  8
0
 10
73.6128
 20
53.7496
 11
71.6878
 21
48.732
  0
LINE
  8
0
 10
71.6878
 20
48.732
 11
70.784
 21
46.3764
  0
LINE
  8
0
 10
70.784
 20
46.3764
 11
70.7745
 21
46.3436
  0
LINE
  8
0
 10
70.7745
 20
46.3436
 11
69.827
 21
43.0612
  0
LINE
  8
0
 10
69.827
 20
43.0612
 11
68.4896
 21
42.4171
  0
LINE
  8
0
 10
68.4896
 20
42.4171
 11
67.3312
 21
40.9645
  0
LINE
  8
0
 10
67.3312
 20
40.9645
 11
67.3094
 21
40.9373
  0
LINE
  8
0
 10
67.3094
 20
40.9373
 11
67.3017
 21
40.9033
  0
LINE
  8
0
 10
67.3017
 20
40.9033
 11
66.8882
 21
39.092
  0
LINE
  8
0
 10
66.8882
 20
39.092
 11
67.3017
 21
37.2806
  0
LINE
  8
0
 10
67.3017
 20
37.2806
 11
67.3094
 21
37.2467
  0
LINE
  8
0
 10
67.3094
 20
37.2467
 11
67.3312
 21
37.2194
  0
LINE
  8
0
 10
67.3312
 20
37.2194
 11
67.9255
 21
36.4741
  0
LINE
  8
0
 10
67.9255
 20
36.4741
 11
66.459
 21
31.3941
  0
LINE
  8
0
 10
66.459
 20
31.3941
 11
66.4459
 21
31.3485
  0
LINE
  8
0
 10
66.4459
 20
31.3485
 11
66.4459
 21
31.3485
  0
LINE
  8
0
 10
66.4459
 20
31.3485
 11
66.434
 21
31.3075
  0
LINE
  8
0
 10
66.434
 20
31.3075
 11
65.5923
 21
27.2435
  0
LINE
  8
0
 10
65.5923
 20
27.2435
 11
65.5923
 21
27.2432
  0
LINE
  8
0
 10
65.5923
 20
27.2432
 11
64.6557
 21
22.7213
  0
LINE
  8
0
 10
64.6557
 20
22.7213
 11
63.8216
 21
16.4954
  0
LINE
  8
0
 10
63.8216
 20
16.4954
 11
62.4062
 21
5.93079
  0
LINE
  8
0
 10
62.4062
 20
5.93079
 11
62.404
 21
5.91418
  0
LINE
  8
0
 10
62.404
 20
5.91418
 11
62.2997
 21
4.33006
  0
LINE
  8
0
 10
62.2997
 20
4.33006
 11
61.7975
 21
-3.3
  0
LINE
  8
0
 10
61.7975
 20
-3.3
 11
61.7975
 21
-20.7
  0
LINE
  8
0
 10
61.7975
 20
-20.7
 11
62.2997
 21
-28.3301
  0
LINE
  8
0
 10
62.2997
 20
-28.3301
 11
62.404
 21
-29.9142
  0
LINE
  8
0
 10
62.404
 20
-29.9142
 11
62.4062
 21
-29.9308
  0
LINE
  8
0
 10
62.4062
 20
-29.9308
 11
63.8216
 21
-40.4954
  0
LINE
  8
0
 10
63.8216
 20
-40.4954
 11
64.6428
 21
-46.6247
  0
LINE
  8
0
 10
64.6428
 20
-46.6247
 11
63.2738
 21
-48.4199
  0
LINE
  8
0
 10
63.2738
 20
-48.4199
 11
61.6505
 21
-50.5485
  0
LINE
  8
0
 10
61.6505
 20
-50.5485
 11
58.9913
 21
-50.5485
  0
LINE
  8
0
 10
58.9913
 20
-50.5485
 11
58.9674
 21
-50.5485
  0
LINE
  8
0
 10
58.9674
 20
-50.5485
 11
52.0576
 21
-50.5485
  0
LINE
  8
0
 10
52.0576
 20
-50.5485
 11
49.4063
 21
-50.5485
  0
LINE
  8
0
 10
49.4063
 20
-50.5485
 11
42.9379
 21
-50.5485
  0
LINE
  8
0
 10
42.9379
 20
-50.5485
 11
40.5056
 21
-50.5485
  0
LINE
  8
0
 10
40.5056
 20
-50.5485
 11
32.8043
 21
-50.5485
  0
LINE
  8
0
 10
32.8043
 20
-50.5485
 11
31.3341
 21
-51.2353
  0
LINE
  8
0
 10
31.3341
 20
-51.2353
 11
30.8652
 21
-51.4543
  0
LINE
  8
0
 10
30.8652
 20
-51.4543
 11
30.4429
 21
-53.6976
  0
LINE
  8
0
 10
30.4429
 20
-53.6976
 11
29.0928
 21
-60.8699
  0
LINE
  8
0
 10
29.0928
 20
-60.8699
 11
28.4408
 21
-60.8699
  0
LINE
  8
0
 10
28.4408
 20
-60.8699
 11
28.4313
 21
-60.8699
  0
LINE
  8
0
 10
28.4313
 20
-60.8699
 11
15.5441
 21
-60.8699
  0
LINE
  8
0
 10
15.5441
 20
-60.8699
 11
13.4928
 21
-61.3295
  0
LINE
  8
0
 10
13.4928
 20
-61.3295
 11
7.02934
 21
-62.7776
  0
LINE
  8
0
 10
7.02934
 20
-62.7776
 11
6.4223
 21
-62.0163
  0
LINE
  8
0
 10
6.4223
 20
-62.0163
 11
4.74837
 21
-61.2102
  0
LINE
  8
0
 10
4.74837
 20
-61.2102
 11
4.71697
 21
-61.1951
  0
LINE
  8
0
 10
4.71697
 20
-61.1951
 11
2.8242
 21
-61.1951
  0
LINE
  8
0
 10
2.8242
 20
-61.1951
 11
2.7928
 21
-61.2102
  0
LINE
  8
0
 10
2.7928
 20
-61.2102
 11
1.11887
 21
-62.0163
  0
LINE
  8
0
 10
1.11887
 20
-62.0163
 11
-0.0395261
 21
-63.4689
  0
LINE
  8
0
 10
-0.0395261
 20
-63.4689
 11
-0.0612532
 21
-63.4962
  0
LINE
  8
0
 10
-0.0612532
 20
-63.4962
 11
-0.0690075
 21
-63.5301
  0
LINE
  8
0
 10
-0.0690075
 20
-63.5301
 11
-0.309912
 21
-64.5856
  0
LINE
  8
0
 10
-0.309912
 20
-64.5856
 11
-1.99063
 21
-65.6779
  0
LINE
  8
0
 10
-1.99063
 20
-65.6779
 11
-13.6749
 21
-73.271
  0
LINE
  8
0
 10
-13.6749
 20
-73.271
 11
-15.0127
 21
-74.2922
  0
LINE
  8
0
 10
-15.0127
 20
-74.2922
 11
-15.2492
 21
-74.4727
  0
LINE
  8
0
 10
-15.2492
 20
-74.4727
 11
-15.2572
 21
-74.4816
  0
LINE
  8
0
 10
-15.2572
 20
-74.4816
 11
-16.8634
 21
-76.2655
  0
LINE
  8
0
 10
-16.8634
 20
-76.2655
 11
-16.8636
 21
-76.2656
  0
LINE
  8
0
 10
-16.8636
 20
-76.2656
 11
-24.9016
 21
-85.1928
  0
LINE
  8
0
 10
-24.9016
 20
-85.1928
 11
-24.7306
 21
-85.9864
  0
LINE
  8
0
 10
-24.7306
 20
-85.9864
 11
-23.889
 21
-89.8924
  0
LINE
  8
0
 10
-23.889
 20
-89.8924
 11
-25.559
 21
-92.191
  0
LINE
  8
0
 10
-25.559
 20
-92.191
 11
-31.697
 21
-100.639
  0
LINE
  8
0
 10
-31.697
 20
-100.639
 11
-31.8754
 21
-100.638
  0
LINE
  8
0
 10
-31.8754
 20
-100.638
 11
-36.4223
 21
-100.607
  0
LINE
  8
0
 10
-36.4223
 20
-100.607
 11
-36.4223
 21
-100.607
  0
LINE
  8
0
 10
-36.4223
 20
-100.607
 11
-45.581
 21
-91.4881
  0
LINE
  8
0
 10
-45.581
 20
-91.4881
 11
-48.3306
 21
-88.7503
  0
LINE
  8
0
 10
-48.3306
 20
-88.7503
 11
-48.332
 21
-88.7489
  0
LINE
  8
0
 10
-48.332
 20
-88.7489
 11
-48.3496
 21
-88.7314
  0
LINE
  8
0
 10
-48.3496
 20
-88.7314
 11
-50.1838
 21
-88.024
  0
LINE
  8
0
 10
-50.1838
 20
-88.024
 11
-56.248
 21
-85.6851
  0
LINE
  8
0
 10
-56.248
 20
-85.6851
 11
-59.3204
 21
-83.0798
  0
LINE
  8
0
 10
-59.3204
 20
-83.0798
 11
-69.3451
 21
-74.5792
  0
LINE
  8
0
 10
-69.3451
 20
-74.5792
 11
-69.6331
 21
-73.1331
  0
LINE
  8
0
 10
-69.6331
 20
-73.1331
 11
-70.6308
 21
-68.1232
  0
LINE
  8
0
 10
-48.8989
 20
-8.64999
 11
-48.8989
 21
8.64999
  0
LINE
  8
0
 10
-48.8989
 20
8.64999
 11
-48.8368
 21
9.22597
  0
LINE
  8
0
 10
-48.8368
 20
9.22597
 11
-48.3099
 21
14.1113
  0
LINE
  8
0
 10
-48.3099
 20
14.1113
 11
-47.9311
 21
15.8373
  0
LINE
  8
0
 10
-47.9311
 20
15.8373
 11
-45.909
 21
25.0502
  0
LINE
  8
0
 10
-45.909
 20
25.0502
 11
-45.909
 21
-25.0502
  0
LINE
  8
0
 10
-45.909
 20
-25.0502
 11
-47.9311
 21
-15.8373
  0
LINE
  8
0
 10
-47.9311
 20
-15.8373
 11
-48.3099
 21
-14.1113
  0
LINE
  8
0
 10
-48.3099
 20
-14.1113
 11
-48.8368
 21
-9.22597
  0
LINE
  8
0
 10
-48.8368
 20
-9.22597
 11
-48.8989
 21
-8.64999
  0
LINE
  8
0
 10
-47.9054
 20
-31.2439
 11
-47.0554
 21
-29.7717
  0
LINE
  8
0
 10
-47.0554
 20
-29.7717
 11
-45.3554
 21
-29.7717
  0
LINE
  8
0
 10
-45.3554
 20
-29.7717
 11
-44.5054
 21
-31.2439
  0
LINE
  8
0
 10
-44.5054
 20
-31.2439
 11
-45.3554
 21
-32.7162
  0
LINE
  8
0
 10
-45.3554
 20
-32.7162
 11
-47.0554
 21
-32.7162
  0
LINE
  8
0
 10
-47.0554
 20
-32.7162
 11
-47.9054
 21
-31.2439
  0
LINE
  8
0
 10
-31.7314
 20
61.6484
 11
-30.8814
 21
63.1206
  0
LINE
  8
0
 10
-30.8814
 20
63.1206
 11
-29.1814
 21
63.1206
  0
LINE
  8
0
 10
-29.1814
 20
63.1206
 11
-28.3314
 21
61.6484
  0
LINE
  8
0
 10
-28.3314
 20
61.6484
 11
-29.1814
 21
60.1761
  0
LINE
  8
0
 10
-29.1814
 20
60.1761
 11
-30.8814
 21
60.1761
  0
LINE
  8
0
 10
-30.8814
 20
60.1761
 11
-31.7314
 21
61.6484
  0
LINE
  8
0
 10
2.07058
 20
-65.3415
 11
2.92058
 21
-63.8692
  0
LINE
  8
0
 10
2.92058
 20
-63.8692
 11
4.62058
 21
-63.8692
  0
LINE
  8
0
 10
4.62058
 20
-63.8692
 11
5.47058
 21
-65.3415
  0
LINE
  8
0
 10
5.47058
 20
-65.3415
 11
4.62058
 21
-66.8137
  0
LINE
  8
0
 10
4.62058
 20
-66.8137
 11
2.92058
 21
-66.8137
  0
LINE
  8
0
 10
2.92058
 20
-66.8137
 11
2.07058
 21
-65.3415
  0
LINE
  8
0
 10
30.5761
 20
81.9423
 11
31.4261
 21
83.4146
  0
LINE
  8
0
 10
31.4261
 20
83.4146
 11
33.1261
 21
83.4146
  0
LINE
  8
0
 10
33.1261
 20
83.4146
 11
33.9761
 21
81.9423
  0
LINE
  8
0
 10
33.9761
 20
81.9423
 11
33.1261
 21
80.4701
  0
LINE
  8
0
 10
33.1261
 20
80.4701
 11
31.4261
 21
80.4701
  0
LINE
  8
0
 10
31.4261
 20
80.4701
 11
30.5761
 21
81.9423
  0
LINE
  8
0
 10
69.4413
 20
39.092
 11
70.2913
 21
40.5642
  0
LINE
  8
0
 10
70.2913
 20
40.5642
 11
71.9913
 21
40.5642
  0
LINE
  8
0
 10
71.9913
 20
40.5642
 11
72.8413
 21
39.092
  0
LINE
  8
0
 10
72.8413
 20
39.092
 11
71.9913
 21
37.6197
  0
LINE
  8
0
 10
71.9913
 20
37.6197
 11
70.2913
 21
37.6197
  0
LINE
  8
0
 10
70.2913
 20
37.6197
 11
69.4413
 21
39.092
  0
ENDSEC
  0
SECTION
  2
OBJECTS
  0
DICTIONARY
  0
ENDSEC
  0
EOF
