  0
SECTION
  2
BLOCKS
  0
ENDSEC
  0
SECTION
  2
ENTITIES
  0
LINE
  8
0
 10
-72.9985
 20
-68.2596
 11
-72.5256
 21
-70.634
  0
LINE
  8
0
 10
-72.5256
 20
-70.634
 11
-71.1985
 21
-77.298
  0
LINE
  8
0
 10
-71.1985
 20
-77.298
 11
-61.4859
 21
-85.534
  0
LINE
  8
0
 10
-61.4859
 20
-85.534
 11
-58.0253
 21
-88.4684
  0
LINE
  8
0
 10
-58.0253
 20
-88.4684
 11
-58.0058
 21
-88.4849
  0
LINE
  8
0
 10
-58.0058
 20
-88.4849
 11
-57.9491
 21
-88.533
  0
LINE
  8
0
 10
-57.9491
 20
-88.533
 11
-55.834
 21
-89.27
  0
LINE
  8
0
 10
-55.834
 20
-89.27
 11
-50.4662
 21
-91.1403
  0
LINE
  8
0
 10
-50.4662
 20
-91.1403
 11
-41.9321
 21
-99.6377
  0
LINE
  8
0
 10
-41.9321
 20
-99.6377
 11
-38.558
 21
-102.997
  0
LINE
  8
0
 10
-38.558
 20
-102.997
 11
-38.5565
 21
-102.999
  0
LINE
  8
0
 10
-38.5565
 20
-102.999
 11
-38.539
 21
-103.016
  0
LINE
  8
0
 10
-38.539
 20
-103.016
 11
-32.3663
 21
-103.058
  0
LINE
  8
0
 10
-32.3663
 20
-103.058
 11
-30.2622
 21
-103.072
  0
LINE
  8
0
 10
-30.2622
 20
-103.072
 11
-29.8191
 21
-102.854
  0
LINE
  8
0
 10
-29.8191
 20
-102.854
 11
-28.4047
 21
-102.157
  0
LINE
  8
0
 10
-28.4047
 20
-102.157
 11
-28.4047
 21
-102.157
  0
LINE
  8
0
 10
-28.4047
 20
-102.157
 11
-26.7329
 21
-99.8556
  0
LINE
  8
0
 10
-26.7329
 20
-99.8556
 11
-26.7328
 21
-99.8554
  0
LINE
  8
0
 10
-26.7328
 20
-99.8554
 11
-19.8272
 21
-90.3507
  0
LINE
  8
0
 10
-19.8272
 20
-90.3507
 11
-19.8272
 21
-90.3507
  0
LINE
  8
0
 10
-19.8272
 20
-90.3507
 11
-20.0732
 21
-89.3934
  0
LINE
  8
0
 10
-20.0732
 20
-89.3934
 11
-21.0948
 21
-85.4182
  0
LINE
  8
0
 10
-21.0948
 20
-85.4182
 11
-19.5706
 21
-83.7253
  0
LINE
  8
0
 10
-19.5706
 20
-83.7253
 11
-19.5704
 21
-83.7252
  0
LINE
  8
0
 10
-19.5704
 20
-83.7252
 11
-11.8947
 21
-75.2004
  0
LINE
  8
0
 10
-11.8947
 20
-75.2004
 11
-1.92697
 21
-68.5504
  0
LINE
  8
0
 10
-1.92697
 20
-68.5504
 11
0.000641513
 21
-67.2644
  0
LINE
  8
0
 10
0.000641513
 20
-67.2644
 11
1.11887
 21
-68.6666
  0
LINE
  8
0
 10
1.11887
 20
-68.6666
 11
2.7928
 21
-69.4728
  0
LINE
  8
0
 10
2.7928
 20
-69.4728
 11
2.8242
 21
-69.4879
  0
LINE
  8
0
 10
2.8242
 20
-69.4879
 11
4.71697
 21
-69.4879
  0
LINE
  8
0
 10
4.71697
 20
-69.4879
 11
4.74837
 21
-69.4728
  0
LINE
  8
0
 10
4.74837
 20
-69.4728
 11
6.4223
 21
-68.6666
  0
LINE
  8
0
 10
6.4223
 20
-68.6666
 11
7.58069
 21
-67.214
  0
LINE
  8
0
 10
7.58069
 20
-67.214
 11
7.60242
 21
-67.1868
  0
LINE
  8
0
 10
7.60242
 20
-67.1868
 11
7.61018
 21
-67.1528
  0
LINE
  8
0
 10
7.61018
 20
-67.1528
 11
7.96811
 21
-65.5846
  0
LINE
  8
0
 10
7.96811
 20
-65.5846
 11
13.6402
 21
-64.4386
  0
LINE
  8
0
 10
13.6402
 20
-64.4386
 11
17.0518
 21
-64.4386
  0
LINE
  8
0
 10
17.0518
 20
-64.4386
 11
17.0734
 21
-64.4386
  0
LINE
  8
0
 10
17.0734
 20
-64.4386
 11
29.5739
 21
-64.4386
  0
LINE
  8
0
 10
29.5739
 20
-64.4386
 11
31.0951
 21
-63.0722
  0
LINE
  8
0
 10
31.0951
 20
-63.0722
 11
31.5222
 21
-62.6886
  0
LINE
  8
0
 10
31.5222
 20
-62.6886
 11
32.0025
 21
-59.9677
  0
LINE
  8
0
 10
32.0025
 20
-59.9677
 11
33.1473
 21
-53.4828
  0
LINE
  8
0
 10
33.1473
 20
-53.4828
 11
34.2334
 21
-53.4828
  0
LINE
  8
0
 10
34.2334
 20
-53.4828
 11
34.2679
 21
-53.4828
  0
LINE
  8
0
 10
34.2679
 20
-53.4828
 11
39.7521
 21
-53.4828
  0
LINE
  8
0
 10
39.7521
 20
-53.4828
 11
44.1384
 21
-53.4828
  0
LINE
  8
0
 10
44.1384
 20
-53.4828
 11
44.1864
 21
-53.4828
  0
LINE
  8
0
 10
44.1864
 20
-53.4828
 11
49.77
 21
-53.4828
  0
LINE
  8
0
 10
49.77
 20
-53.4828
 11
54.8724
 21
-53.4828
  0
LINE
  8
0
 10
54.8724
 20
-53.4828
 11
58.7383
 21
-53.4828
  0
LINE
  8
0
 10
58.7383
 20
-53.4828
 11
59.5662
 21
-53.0391
  0
LINE
  8
0
 10
59.5662
 20
-53.0391
 11
60.4287
 21
-52.5769
  0
LINE
  8
0
 10
60.4287
 20
-52.5769
 11
63.7769
 21
-48.1864
  0
LINE
  8
0
 10
63.7769
 20
-48.1864
 11
65.585
 21
-45.8154
  0
LINE
  8
0
 10
65.585
 20
-45.8154
 11
65.5805
 21
-45.7816
  0
LINE
  8
0
 10
65.5805
 20
-45.7816
 11
63.6319
 21
-31.2369
  0
LINE
  8
0
 10
63.6319
 20
-31.2369
 11
63.3462
 21
-29.1049
  0
LINE
  8
0
 10
63.3462
 20
-29.1049
 11
63.3462
 21
-29.1049
  0
LINE
  8
0
 10
63.3462
 20
-29.1049
 11
63.2707
 21
-27.9565
  0
LINE
  8
0
 10
63.2707
 20
-27.9565
 11
62.7864
 21
-20.6
  0
LINE
  8
0
 10
62.7864
 20
-20.6
 11
62.7864
 21
-16.0752
  0
LINE
  8
0
 10
62.7864
 20
-16.0752
 11
64.3439
 21
-15.3251
  0
LINE
  8
0
 10
64.3439
 20
-15.3251
 11
65.5023
 21
-13.8726
  0
LINE
  8
0
 10
65.5023
 20
-13.8726
 11
65.524
 21
-13.8453
  0
LINE
  8
0
 10
65.524
 20
-13.8453
 11
65.5318
 21
-13.8113
  0
LINE
  8
0
 10
65.5318
 20
-13.8113
 11
65.9452
 21
-12
  0
LINE
  8
0
 10
65.9452
 20
-12
 11
65.5318
 21
-10.1887
  0
LINE
  8
0
 10
65.5318
 20
-10.1887
 11
65.524
 21
-10.1547
  0
LINE
  8
0
 10
65.524
 20
-10.1547
 11
65.5023
 21
-10.1274
  0
LINE
  8
0
 10
65.5023
 20
-10.1274
 11
64.3439
 21
-8.67486
  0
LINE
  8
0
 10
64.3439
 20
-8.67486
 11
62.7864
 21
-7.92482
  0
LINE
  8
0
 10
62.7864
 20
-7.92482
 11
62.7864
 21
-3.4
  0
LINE
  8
0
 10
62.7864
 20
-3.4
 11
63.2707
 21
3.95651
  0
LINE
  8
0
 10
63.2707
 20
3.95651
 11
63.3462
 21
5.10491
  0
LINE
  8
0
 10
63.3462
 20
5.10491
 11
63.3462
 21
5.10491
  0
LINE
  8
0
 10
63.3462
 20
5.10491
 11
63.6319
 21
7.23691
  0
LINE
  8
0
 10
63.6319
 20
7.23691
 11
65.5805
 21
21.7816
  0
LINE
  8
0
 10
65.5805
 20
21.7816
 11
65.585
 21
21.8154
  0
LINE
  8
0
 10
65.585
 20
21.8154
 11
63.7769
 21
24.1864
  0
LINE
  8
0
 10
63.7769
 20
24.1864
 11
60.4287
 21
28.5769
  0
LINE
  8
0
 10
60.4287
 20
28.5769
 11
59.5662
 21
29.0391
  0
LINE
  8
0
 10
59.5662
 20
29.0391
 11
58.7383
 21
29.4828
  0
LINE
  8
0
 10
58.7383
 20
29.4828
 11
52.2703
 21
29.4828
  0
LINE
  8
0
 10
52.2703
 20
29.4828
 11
43.7027
 21
29.4828
  0
LINE
  8
0
 10
43.7027
 20
29.4828
 11
41.2694
 21
29.4828
  0
LINE
  8
0
 10
41.2694
 20
29.4828
 11
41.2334
 21
29.4828
  0
LINE
  8
0
 10
41.2334
 20
29.4828
 11
39.7521
 21
29.4828
  0
LINE
  8
0
 10
39.7521
 20
29.4828
 11
30.5407
 21
29.4828
  0
LINE
  8
0
 10
30.5407
 20
29.4828
 11
30.5022
 21
29.4828
  0
LINE
  8
0
 10
30.5022
 20
29.4828
 11
27.0092
 21
29.4828
  0
LINE
  8
0
 10
27.0092
 20
29.4828
 11
25.6975
 21
31.5897
  0
LINE
  8
0
 10
25.6975
 20
31.5897
 11
20.1023
 21
40.5769
  0
LINE
  8
0
 10
20.1023
 20
40.5769
 11
18.4748
 21
41.2553
  0
LINE
  8
0
 10
18.4748
 20
41.2553
 11
17.9292
 21
41.4828
  0
LINE
  8
0
 10
17.9292
 20
41.4828
 11
14.463
 21
41.4828
  0
LINE
  8
0
 10
14.463
 20
41.4828
 11
14.461
 21
41.4917
  0
LINE
  8
0
 10
14.461
 20
41.4917
 11
14.4533
 21
41.5256
  0
LINE
  8
0
 10
14.4533
 20
41.5256
 11
14.4315
 21
41.5529
  0
LINE
  8
0
 10
14.4315
 20
41.5529
 11
13.2731
 21
43.0055
  0
LINE
  8
0
 10
13.2731
 20
43.0055
 11
11.5992
 21
43.8116
  0
LINE
  8
0
 10
11.5992
 20
43.8116
 11
11.5678
 21
43.8267
  0
LINE
  8
0
 10
11.5678
 20
43.8267
 11
9.67504
 21
43.8267
  0
LINE
  8
0
 10
9.67504
 20
43.8267
 11
9.64364
 21
43.8116
  0
LINE
  8
0
 10
9.64364
 20
43.8116
 11
7.96971
 21
43.0055
  0
LINE
  8
0
 10
7.96971
 20
43.0055
 11
6.81131
 21
41.5529
  0
LINE
  8
0
 10
6.81131
 20
41.5529
 11
6.78959
 21
41.5256
  0
LINE
  8
0
 10
6.78959
 20
41.5256
 11
6.78183
 21
41.4917
  0
LINE
  8
0
 10
6.78183
 20
41.4917
 11
6.7798
 21
41.4828
  0
LINE
  8
0
 10
6.7798
 20
41.4828
 11
4.7877
 21
41.4828
  0
LINE
  8
0
 10
4.7877
 20
41.4828
 11
0.430619
 21
43.3969
  0
LINE
  8
0
 10
0.430619
 20
43.3969
 11
-1.48767
 21
44.1238
  0
LINE
  8
0
 10
-1.48767
 20
44.1238
 11
-1.95992
 21
44.3028
  0
LINE
  8
0
 10
-1.95992
 20
44.3028
 11
-11.7138
 21
44.3028
  0
LINE
  8
0
 10
-11.7138
 20
44.3028
 11
-14.2636
 21
44.3028
  0
LINE
  8
0
 10
-14.2636
 20
44.3028
 11
-14.2788
 21
44.2222
  0
LINE
  8
0
 10
-14.2788
 20
44.2222
 11
-14.5843
 21
42.61
  0
LINE
  8
0
 10
-14.5843
 20
42.61
 11
-14.6449
 21
42.2904
  0
LINE
  8
0
 10
-14.6449
 20
42.2904
 11
-14.6479
 21
42.2743
  0
LINE
  8
0
 10
-14.6479
 20
42.2743
 11
-14.6494
 21
41.8513
  0
LINE
  8
0
 10
-14.6494
 20
41.8513
 11
-14.6506
 21
41.4828
  0
LINE
  8
0
 10
-14.6506
 20
41.4828
 11
-23.6904
 21
41.4828
  0
LINE
  8
0
 10
-23.6904
 20
41.4828
 11
-25.3534
 21
41.4828
  0
LINE
  8
0
 10
-25.3534
 20
41.4828
 11
-27.8443
 21
41.4828
  0
LINE
  8
0
 10
-27.8443
 20
41.4828
 11
-27.8527
 21
41.4828
  0
LINE
  8
0
 10
-27.8527
 20
41.4828
 11
-28.2011
 21
41.4828
  0
LINE
  8
0
 10
-28.2011
 20
41.4828
 11
-36.9388
 21
41.4828
  0
LINE
  8
0
 10
-36.9388
 20
41.4828
 11
-36.9468
 21
41.4828
  0
LINE
  8
0
 10
-36.9468
 20
41.4828
 11
-38.1308
 21
41.4828
  0
LINE
  8
0
 10
-38.1308
 20
41.4828
 11
-38.9383
 21
40.286
  0
LINE
  8
0
 10
-38.9383
 20
40.286
 11
-45.1919
 21
31.0184
  0
LINE
  8
0
 10
-45.1919
 20
31.0184
 11
-45.6265
 21
29.0383
  0
LINE
  8
0
 10
-45.6265
 20
29.0383
 11
-46.1373
 21
26.7112
  0
LINE
  8
0
 10
-46.1373
 20
26.7112
 11
-47.9328
 21
26.7112
  0
LINE
  8
0
 10
-47.9328
 20
26.7112
 11
-47.9642
 21
26.6961
  0
LINE
  8
0
 10
-47.9642
 20
26.6961
 11
-49.6381
 21
25.89
  0
LINE
  8
0
 10
-49.6381
 20
25.89
 11
-50.7965
 21
24.4374
  0
LINE
  8
0
 10
-50.7965
 20
24.4374
 11
-50.8182
 21
24.4102
  0
LINE
  8
0
 10
-50.8182
 20
24.4102
 11
-50.826
 21
24.3762
  0
LINE
  8
0
 10
-50.826
 20
24.3762
 11
-51.2394
 21
22.5649
  0
LINE
  8
0
 10
-51.2394
 20
22.5649
 11
-50.826
 21
20.7535
  0
LINE
  8
0
 10
-50.826
 20
20.7535
 11
-50.8182
 21
20.7195
  0
LINE
  8
0
 10
-50.8182
 20
20.7195
 11
-50.7965
 21
20.6923
  0
LINE
  8
0
 10
-50.7965
 20
20.6923
 11
-49.6381
 21
19.2397
  0
LINE
  8
0
 10
-49.6381
 20
19.2397
 11
-47.9642
 21
18.4336
  0
LINE
  8
0
 10
-47.9642
 20
18.4336
 11
-47.9551
 21
18.4292
  0
LINE
  8
0
 10
-47.9551
 20
18.4292
 11
-48.8809
 21
14.2113
  0
LINE
  8
0
 10
-48.8809
 20
14.2113
 11
-49.4005
 21
9.39342
  0
LINE
  8
0
 10
-49.4005
 20
9.39342
 11
-49.4699
 21
8.75
  0
LINE
  8
0
 10
-49.4699
 20
8.75
 11
-49.4699
 21
-8.75
  0
LINE
  8
0
 10
-49.4699
 20
-8.75
 11
-49.4005
 21
-9.39342
  0
LINE
  8
0
 10
-49.4005
 20
-9.39342
 11
-48.8809
 21
-14.2113
  0
LINE
  8
0
 10
-48.8809
 20
-14.2113
 11
-46.0114
 21
-27.2847
  0
LINE
  8
0
 10
-46.0114
 20
-27.2847
 11
-47.3281
 21
-27.9188
  0
LINE
  8
0
 10
-47.3281
 20
-27.9188
 11
-48.4865
 21
-29.3714
  0
LINE
  8
0
 10
-48.4865
 20
-29.3714
 11
-48.5082
 21
-29.3986
  0
LINE
  8
0
 10
-48.5082
 20
-29.3986
 11
-48.516
 21
-29.4326
  0
LINE
  8
0
 10
-48.516
 20
-29.4326
 11
-48.9294
 21
-31.2439
  0
LINE
  8
0
 10
-48.9294
 20
-31.2439
 11
-48.5658
 21
-32.837
  0
LINE
  8
0
 10
-48.5658
 20
-32.837
 11
-57.1805
 21
-37.7357
  0
LINE
  8
0
 10
-57.1805
 20
-37.7357
 11
-57.2336
 21
-37.7803
  0
LINE
  8
0
 10
-57.2336
 20
-37.7803
 11
-57.2336
 21
-37.7803
  0
LINE
  8
0
 10
-57.2336
 20
-37.7803
 11
-57.244
 21
-37.789
  0
LINE
  8
0
 10
-57.244
 20
-37.789
 11
-57.244
 21
-37.789
  0
LINE
  8
0
 10
-57.244
 20
-37.789
 11
-57.244
 21
-37.789
  0
LINE
  8
0
 10
-57.244
 20
-37.789
 11
-65.3025
 21
-44.5509
  0
LINE
  8
0
 10
-65.3025
 20
-44.5509
 11
-66.8972
 21
-45.889
  0
LINE
  8
0
 10
-66.8972
 20
-45.889
 11
-67.1243
 21
-46.1659
  0
LINE
  8
0
 10
-67.1243
 20
-46.1659
 11
-67.1243
 21
-46.1659
  0
LINE
  8
0
 10
-67.1243
 20
-46.1659
 11
-68.1532
 21
-47.4205
  0
LINE
  8
0
 10
-68.1532
 20
-47.4205
 11
-67.3994
 21
-49.2996
  0
LINE
  8
0
 10
-67.3994
 20
-49.2996
 11
-64.2737
 21
-57.0925
  0
LINE
  8
0
 10
-64.2737
 20
-57.0925
 11
-71.3034
 21
-66.09
  0
LINE
  8
0
 10
-71.3034
 20
-66.09
 11
-71.3035
 21
-66.0902
  0
LINE
  8
0
 10
-71.3035
 20
-66.0902
 11
-72.9864
 21
-68.2441
  0
LINE
  8
0
 10
-72.9864
 20
-68.2441
 11
-72.9985
 21
-68.2596
  0
LINE
  8
0
 10
-72.9985
 20
-68.2596
 11
-72.9985
 21
-68.2596
  0
LINE
  8
0
 10
-69.9237
 20
-68.1232
 11
-63.4901
 21
-59.8887
  0
LINE
  8
0
 10
-63.4901
 20
-59.8887
 11
-61.2493
 21
-57.0206
  0
LINE
  8
0
 10
-61.2493
 20
-57.0206
 11
-61.239
 21
-57.0074
  0
LINE
  8
0
 10
-61.239
 20
-57.0074
 11
-61.1989
 21
-56.9561
  0
LINE
  8
0
 10
-61.1989
 20
-56.9561
 11
-62.0011
 21
-55.1218
  0
LINE
  8
0
 10
-62.0011
 20
-55.1218
 11
-65.2444
 21
-47.7061
  0
LINE
  8
0
 10
-65.2444
 20
-47.7061
 11
-65.146
 21
-47.6235
  0
LINE
  8
0
 10
-65.146
 20
-47.6235
 11
-65.1458
 21
-47.6234
  0
LINE
  8
0
 10
-65.1458
 20
-47.6234
 11
-56.6824
 21
-40.5217
  0
LINE
  8
0
 10
-56.6824
 20
-40.5217
 11
-47.6294
 21
-34.1913
  0
LINE
  8
0
 10
-47.6294
 20
-34.1913
 11
-47.3281
 21
-34.5691
  0
LINE
  8
0
 10
-47.3281
 20
-34.5691
 11
-45.6542
 21
-35.3752
  0
LINE
  8
0
 10
-45.6542
 20
-35.3752
 11
-45.6228
 21
-35.3903
  0
LINE
  8
0
 10
-45.6228
 20
-35.3903
 11
-43.73
 21
-35.3903
  0
LINE
  8
0
 10
-43.73
 20
-35.3903
 11
-43.6986
 21
-35.3752
  0
LINE
  8
0
 10
-43.6986
 20
-35.3752
 11
-42.0247
 21
-34.5691
  0
LINE
  8
0
 10
-42.0247
 20
-34.5691
 11
-40.8663
 21
-33.1165
  0
LINE
  8
0
 10
-40.8663
 20
-33.1165
 11
-40.8446
 21
-33.0892
  0
LINE
  8
0
 10
-40.8446
 20
-33.0892
 11
-40.8368
 21
-33.0553
  0
LINE
  8
0
 10
-40.8368
 20
-33.0553
 11
-40.4234
 21
-31.2439
  0
LINE
  8
0
 10
-40.4234
 20
-31.2439
 11
-40.6623
 21
-30.1971
  0
LINE
  8
0
 10
-40.6623
 20
-30.1971
 11
-35.3799
 21
-30.1971
  0
LINE
  8
0
 10
-35.3799
 20
-30.1971
 11
-35.3799
 21
28.1971
  0
LINE
  8
0
 10
-35.3799
 20
28.1971
 11
-43.6892
 21
28.1971
  0
LINE
  8
0
 10
-43.6892
 20
28.1971
 11
-43.0919
 21
30.9184
  0
LINE
  8
0
 10
-43.0919
 20
30.9184
 11
-42.353
 21
31.6862
  0
LINE
  8
0
 10
-42.353
 20
31.6862
 11
-35.7493
 21
38.5485
  0
LINE
  8
0
 10
-35.7493
 20
38.5485
 11
-26.8299
 21
38.5485
  0
LINE
  8
0
 10
-26.8299
 20
38.5485
 11
-25.8331
 21
38.5485
  0
LINE
  8
0
 10
-25.8331
 20
38.5485
 11
-23.4468
 21
38.5485
  0
LINE
  8
0
 10
-23.4468
 20
38.5485
 11
-23.1309
 21
38.5485
  0
LINE
  8
0
 10
-23.1309
 20
38.5485
 11
-13.3684
 21
38.5485
  0
LINE
  8
0
 10
-13.3684
 20
38.5485
 11
-12.0035
 21
38.5485
  0
LINE
  8
0
 10
-12.0035
 20
38.5485
 11
-11.9865
 21
38.631
  0
LINE
  8
0
 10
-11.9865
 20
38.631
 11
-11.6646
 21
40.1993
  0
LINE
  8
0
 10
-11.6646
 20
40.1993
 11
-11.6617
 21
40.2134
  0
LINE
  8
0
 10
-11.6617
 20
40.2134
 11
-11.6041
 21
40.4943
  0
LINE
  8
0
 10
-11.6041
 20
40.4943
 11
-11.5871
 21
40.5769
  0
LINE
  8
0
 10
-11.5871
 20
40.5769
 11
-11.6214
 21
41.0264
  0
LINE
  8
0
 10
-11.6214
 20
41.0264
 11
-11.6214
 21
41.0264
  0
LINE
  8
0
 10
-11.6214
 20
41.0264
 11
-11.6475
 21
41.3685
  0
LINE
  8
0
 10
-11.6475
 20
41.3685
 11
-1.92458
 21
41.3685
  0
LINE
  8
0
 10
-1.92458
 20
41.3685
 11
-0.273759
 21
41.3685
  0
LINE
  8
0
 10
-0.273759
 20
41.3685
 11
4.25064
 21
39.4543
  0
LINE
  8
0
 10
4.25064
 20
39.4543
 11
5.97036
 21
38.7375
  0
LINE
  8
0
 10
5.97036
 20
38.7375
 11
6.42374
 21
38.5485
  0
LINE
  8
0
 10
6.42374
 20
38.5485
 11
6.62675
 21
38.5485
  0
LINE
  8
0
 10
6.62675
 20
38.5485
 11
6.78183
 21
37.869
  0
LINE
  8
0
 10
6.78183
 20
37.869
 11
6.78959
 21
37.835
  0
LINE
  8
0
 10
6.78959
 20
37.835
 11
6.81131
 21
37.8078
  0
LINE
  8
0
 10
6.81131
 20
37.8078
 11
7.96971
 21
36.3552
  0
LINE
  8
0
 10
7.96971
 20
36.3552
 11
9.64364
 21
35.5491
  0
LINE
  8
0
 10
9.64364
 20
35.5491
 11
9.67504
 21
35.5339
  0
LINE
  8
0
 10
9.67504
 20
35.5339
 11
11.5678
 21
35.5339
  0
LINE
  8
0
 10
11.5678
 20
35.5339
 11
11.5992
 21
35.5491
  0
LINE
  8
0
 10
11.5992
 20
35.5491
 11
13.2731
 21
36.3552
  0
LINE
  8
0
 10
13.2731
 20
36.3552
 11
14.4315
 21
37.8078
  0
LINE
  8
0
 10
14.4315
 20
37.8078
 11
14.4533
 21
37.835
  0
LINE
  8
0
 10
14.4533
 20
37.835
 11
14.461
 21
37.869
  0
LINE
  8
0
 10
14.461
 20
37.869
 11
14.6161
 21
38.5485
  0
LINE
  8
0
 10
14.6161
 20
38.5485
 11
17.1132
 21
38.5485
  0
LINE
  8
0
 10
17.1132
 20
38.5485
 11
18.0873
 21
38.5485
  0
LINE
  8
0
 10
18.0873
 20
38.5485
 11
19.5385
 21
36.2977
  0
LINE
  8
0
 10
19.5385
 20
36.2977
 11
25.2404
 21
27.4543
  0
LINE
  8
0
 10
25.2404
 20
27.4543
 11
26.6694
 21
26.7868
  0
LINE
  8
0
 10
26.6694
 20
26.7868
 11
27.1795
 21
26.5485
  0
LINE
  8
0
 10
27.1795
 20
26.5485
 11
37.9356
 21
26.5485
  0
LINE
  8
0
 10
37.9356
 20
26.5485
 11
41.4063
 21
26.5485
  0
LINE
  8
0
 10
41.4063
 20
26.5485
 11
43.9385
 21
26.5485
  0
LINE
  8
0
 10
43.9385
 20
26.5485
 11
45.1472
 21
26.5485
  0
LINE
  8
0
 10
45.1472
 20
26.5485
 11
54.8824
 21
26.5485
  0
LINE
  8
0
 10
54.8824
 20
26.5485
 11
54.9036
 21
26.5485
  0
LINE
  8
0
 10
54.9036
 20
26.5485
 11
59.0708
 21
26.5485
  0
LINE
  8
0
 10
59.0708
 20
26.5485
 11
59.9098
 21
25.4483
  0
LINE
  8
0
 10
59.9098
 20
25.4483
 11
62.0631
 21
22.6247
  0
LINE
  8
0
 10
62.0631
 20
22.6247
 11
62.0631
 21
22.6247
  0
LINE
  8
0
 10
62.0631
 20
22.6247
 11
61.4905
 21
18.351
  0
LINE
  8
0
 10
61.4905
 20
18.351
 11
60.0111
 21
7.30843
  0
LINE
  8
0
 10
60.0111
 20
7.30843
 11
60.0111
 21
7.30843
  0
LINE
  8
0
 10
60.0111
 20
7.30843
 11
59.8955
 21
5.93309
  0
LINE
  8
0
 10
59.8955
 20
5.93309
 11
59.8955
 21
5.93309
  0
LINE
  8
0
 10
59.8955
 20
5.93309
 11
59.8954
 21
5.93104
  0
LINE
  8
0
 10
59.8954
 20
5.93104
 11
59.8869
 21
5.83071
  0
LINE
  8
0
 10
59.8869
 20
5.83071
 11
59.5183
 21
-2.84489
  0
LINE
  8
0
 10
59.5183
 20
-2.84489
 11
59.4989
 21
-3.3
  0
LINE
  8
0
 10
59.4989
 20
-3.3
 11
59.4989
 21
-8.45406
  0
LINE
  8
0
 10
59.4989
 20
-8.45406
 11
59.0405
 21
-8.67486
  0
LINE
  8
0
 10
59.0405
 20
-8.67486
 11
57.8821
 21
-10.1274
  0
LINE
  8
0
 10
57.8821
 20
-10.1274
 11
57.8603
 21
-10.1547
  0
LINE
  8
0
 10
57.8603
 20
-10.1547
 11
57.8526
 21
-10.1887
  0
LINE
  8
0
 10
57.8526
 20
-10.1887
 11
57.4391
 21
-12
  0
LINE
  8
0
 10
57.4391
 20
-12
 11
57.8526
 21
-13.8113
  0
LINE
  8
0
 10
57.8526
 20
-13.8113
 11
57.8603
 21
-13.8453
  0
LINE
  8
0
 10
57.8603
 20
-13.8453
 11
57.8821
 21
-13.8726
  0
LINE
  8
0
 10
57.8821
 20
-13.8726
 11
59.0405
 21
-15.3251
  0
LINE
  8
0
 10
59.0405
 20
-15.3251
 11
59.4989
 21
-15.5459
  0
LINE
  8
0
 10
59.4989
 20
-15.5459
 11
59.4989
 21
-20.7
  0
LINE
  8
0
 10
59.4989
 20
-20.7
 11
59.5183
 21
-21.1551
  0
LINE
  8
0
 10
59.5183
 20
-21.1551
 11
59.8869
 21
-29.8307
  0
LINE
  8
0
 10
59.8869
 20
-29.8307
 11
59.8954
 21
-29.931
  0
LINE
  8
0
 10
59.8954
 20
-29.931
 11
59.8955
 21
-29.9331
  0
LINE
  8
0
 10
59.8955
 20
-29.9331
 11
59.8955
 21
-29.9331
  0
LINE
  8
0
 10
59.8955
 20
-29.9331
 11
60.0111
 21
-31.3084
  0
LINE
  8
0
 10
60.0111
 20
-31.3084
 11
60.0111
 21
-31.3084
  0
LINE
  8
0
 10
60.0111
 20
-31.3084
 11
61.4905
 21
-42.351
  0
LINE
  8
0
 10
61.4905
 20
-42.351
 11
62.0631
 21
-46.6247
  0
LINE
  8
0
 10
62.0631
 20
-46.6247
 11
62.0631
 21
-46.6247
  0
LINE
  8
0
 10
62.0631
 20
-46.6247
 11
59.9098
 21
-49.4483
  0
LINE
  8
0
 10
59.9098
 20
-49.4483
 11
59.0708
 21
-50.5485
  0
LINE
  8
0
 10
59.0708
 20
-50.5485
 11
56.0415
 21
-50.5485
  0
LINE
  8
0
 10
56.0415
 20
-50.5485
 11
49.4732
 21
-50.5485
  0
LINE
  8
0
 10
49.4732
 20
-50.5485
 11
46.8687
 21
-50.5485
  0
LINE
  8
0
 10
46.8687
 20
-50.5485
 11
41.4063
 21
-50.5485
  0
LINE
  8
0
 10
41.4063
 20
-50.5485
 11
38.7539
 21
-50.5485
  0
LINE
  8
0
 10
38.7539
 20
-50.5485
 11
31.2753
 21
-50.5485
  0
LINE
  8
0
 10
31.2753
 20
-50.5485
 11
29.8475
 21
-51.2154
  0
LINE
  8
0
 10
29.8475
 20
-51.2154
 11
29.3361
 21
-51.4543
  0
LINE
  8
0
 10
29.3361
 20
-51.4543
 11
29.055
 21
-53.9071
  0
LINE
  8
0
 10
29.055
 20
-53.9071
 11
28.2569
 21
-60.8699
  0
LINE
  8
0
 10
28.2569
 20
-60.8699
 11
27.5584
 21
-60.8699
  0
LINE
  8
0
 10
27.5584
 20
-60.8699
 11
14.837
 21
-60.8699
  0
LINE
  8
0
 10
14.837
 20
-60.8699
 11
12.8222
 21
-61.3667
  0
LINE
  8
0
 10
12.8222
 20
-61.3667
 11
7.04106
 21
-62.7922
  0
LINE
  8
0
 10
7.04106
 20
-62.7922
 11
6.4223
 21
-62.0163
  0
LINE
  8
0
 10
6.4223
 20
-62.0163
 11
4.74837
 21
-61.2102
  0
LINE
  8
0
 10
4.74837
 20
-61.2102
 11
4.71697
 21
-61.1951
  0
LINE
  8
0
 10
4.71697
 20
-61.1951
 11
2.8242
 21
-61.1951
  0
LINE
  8
0
 10
2.8242
 20
-61.1951
 11
2.7928
 21
-61.2102
  0
LINE
  8
0
 10
2.7928
 20
-61.2102
 11
1.11887
 21
-62.0163
  0
LINE
  8
0
 10
1.11887
 20
-62.0163
 11
-0.0395261
 21
-63.4689
  0
LINE
  8
0
 10
-0.0395261
 20
-63.4689
 11
-0.0612532
 21
-63.4962
  0
LINE
  8
0
 10
-0.0612532
 20
-63.4962
 11
-0.0690075
 21
-63.5301
  0
LINE
  8
0
 10
-0.0690075
 20
-63.5301
 11
-0.433061
 21
-65.1252
  0
LINE
  8
0
 10
-0.433061
 20
-65.1252
 11
-1.4751
 21
-65.8024
  0
LINE
  8
0
 10
-1.4751
 20
-65.8024
 11
-12.9678
 21
-73.271
  0
LINE
  8
0
 10
-12.9678
 20
-73.271
 11
-14.2837
 21
-74.2755
  0
LINE
  8
0
 10
-14.2837
 20
-74.2755
 11
-14.5421
 21
-74.4727
  0
LINE
  8
0
 10
-14.5421
 20
-74.4727
 11
-14.5508
 21
-74.4824
  0
LINE
  8
0
 10
-14.5508
 20
-74.4824
 11
-22.6417
 21
-83.4682
  0
LINE
  8
0
 10
-22.6417
 20
-83.4682
 11
-24.1493
 21
-85.1425
  0
LINE
  8
0
 10
-24.1493
 20
-85.1425
 11
-24.1493
 21
-85.1425
  0
LINE
  8
0
 10
-24.1493
 20
-85.1425
 11
-24.1945
 21
-85.1928
  0
LINE
  8
0
 10
-24.1945
 20
-85.1928
 11
-24.0054
 21
-86.0702
  0
LINE
  8
0
 10
-24.0054
 20
-86.0702
 11
-23.1819
 21
-89.8924
  0
LINE
  8
0
 10
-23.1819
 20
-89.8924
 11
-25.0716
 21
-92.4933
  0
LINE
  8
0
 10
-25.0716
 20
-92.4933
 11
-30.9899
 21
-100.639
  0
LINE
  8
0
 10
-30.9899
 20
-100.639
 11
-31.3732
 21
-100.637
  0
LINE
  8
0
 10
-31.3732
 20
-100.637
 11
-35.7152
 21
-100.607
  0
LINE
  8
0
 10
-35.7152
 20
-100.607
 11
-44.4586
 21
-91.9015
  0
LINE
  8
0
 10
-44.4586
 20
-91.9015
 11
-47.6203
 21
-88.7535
  0
LINE
  8
0
 10
-47.6203
 20
-88.7535
 11
-47.622
 21
-88.7518
  0
LINE
  8
0
 10
-47.622
 20
-88.7518
 11
-47.6424
 21
-88.7314
  0
LINE
  8
0
 10
-47.6424
 20
-88.7314
 11
-49.7538
 21
-87.9171
  0
LINE
  8
0
 10
-49.7538
 20
-87.9171
 11
-55.5409
 21
-85.6851
  0
LINE
  8
0
 10
-55.5409
 20
-85.6851
 11
-59.1017
 21
-82.6656
  0
LINE
  8
0
 10
-59.1017
 20
-82.6656
 11
-68.638
 21
-74.5792
  0
LINE
  8
0
 10
-68.638
 20
-74.5792
 11
-68.9677
 21
-72.9235
  0
LINE
  8
0
 10
-68.9677
 20
-72.9235
 11
-69.9237
 21
-68.1232
  0
LINE
  8
0
 10
-48.6864
 20
22.5649
 11
-47.8364
 21
24.0371
  0
LINE
  8
0
 10
-47.8364
 20
24.0371
 11
-46.1364
 21
24.0371
  0
LINE
  8
0
 10
-46.1364
 20
24.0371
 11
-45.2864
 21
22.5649
  0
LINE
  8
0
 10
-45.2864
 20
22.5649
 11
-46.1364
 21
21.0926
  0
LINE
  8
0
 10
-46.1364
 20
21.0926
 11
-47.8364
 21
21.0926
  0
LINE
  8
0
 10
-47.8364
 20
21.0926
 11
-48.6864
 21
22.5649
  0
LINE
  8
0
 10
-47.3699
 20
-8.64999
 11
-47.3699
 21
8.64999
  0
LINE
  8
0
 10
-47.3699
 20
8.64999
 11
-47.3032
 21
9.26812
  0
LINE
  8
0
 10
-47.3032
 20
9.26812
 11
-46.7809
 21
14.1113
  0
LINE
  8
0
 10
-46.7809
 20
14.1113
 11
-46.3751
 21
15.9601
  0
LINE
  8
0
 10
-46.3751
 20
15.9601
 11
-45.8113
 21
18.5286
  0
LINE
  8
0
 10
-45.8113
 20
18.5286
 11
-44.3799
 21
19.2179
  0
LINE
  8
0
 10
-44.3799
 20
19.2179
 11
-44.3799
 21
-25.0502
  0
LINE
  8
0
 10
-44.3799
 20
-25.0502
 11
-46.3751
 21
-15.9601
  0
LINE
  8
0
 10
-46.3751
 20
-15.9601
 11
-46.7809
 21
-14.1113
  0
LINE
  8
0
 10
-46.7809
 20
-14.1113
 11
-47.3032
 21
-9.26812
  0
LINE
  8
0
 10
-47.3032
 20
-9.26812
 11
-47.3699
 21
-8.64999
  0
LINE
  8
0
 10
-46.3764
 20
-31.2439
 11
-45.5264
 21
-29.7717
  0
LINE
  8
0
 10
-45.5264
 20
-29.7717
 11
-43.8264
 21
-29.7717
  0
LINE
  8
0
 10
-43.8264
 20
-29.7717
 11
-42.9764
 21
-31.2439
  0
LINE
  8
0
 10
-42.9764
 20
-31.2439
 11
-43.8264
 21
-32.7162
  0
LINE
  8
0
 10
-43.8264
 20
-32.7162
 11
-45.5264
 21
-32.7162
  0
LINE
  8
0
 10
-45.5264
 20
-32.7162
 11
-46.3764
 21
-31.2439
  0
LINE
  8
0
 10
2.07058
 20
-65.3415
 11
2.92058
 21
-63.8692
  0
LINE
  8
0
 10
2.92058
 20
-63.8692
 11
4.62058
 21
-63.8692
  0
LINE
  8
0
 10
4.62058
 20
-63.8692
 11
5.47058
 21
-65.3415
  0
LINE
  8
0
 10
5.47058
 20
-65.3415
 11
4.62058
 21
-66.8137
  0
LINE
  8
0
 10
4.62058
 20
-66.8137
 11
2.92058
 21
-66.8137
  0
LINE
  8
0
 10
2.92058
 20
-66.8137
 11
2.07058
 21
-65.3415
  0
LINE
  8
0
 10
8.92142
 20
39.6803
 11
9.77142
 21
41.1526
  0
LINE
  8
0
 10
9.77142
 20
41.1526
 11
11.4714
 21
41.1526
  0
LINE
  8
0
 10
11.4714
 20
41.1526
 11
12.3214
 21
39.6803
  0
LINE
  8
0
 10
12.3214
 20
39.6803
 11
11.4714
 21
38.2081
  0
LINE
  8
0
 10
11.4714
 20
38.2081
 11
9.77142
 21
38.2081
  0
LINE
  8
0
 10
9.77142
 20
38.2081
 11
8.92142
 21
39.6803
  0
LINE
  8
0
 10
59.9922
 20
-12
 11
60.8422
 21
-10.5278
  0
LINE
  8
0
 10
60.8422
 20
-10.5278
 11
62.5422
 21
-10.5278
  0
LINE
  8
0
 10
62.5422
 20
-10.5278
 11
63.3922
 21
-12
  0
LINE
  8
0
 10
63.3922
 20
-12
 11
62.5422
 21
-13.4722
  0
LINE
  8
0
 10
62.5422
 20
-13.4722
 11
60.8422
 21
-13.4722
  0
LINE
  8
0
 10
60.8422
 20
-13.4722
 11
59.9922
 21
-12
  0
ENDSEC
  0
SECTION
  2
OBJECTS
  0
DICTIONARY
  0
ENDSEC
  0
EOF
