<?xml version="1.0" standalone="no"?>
<!DOCTYPE svg PUBLIC "-//W3C//DTD SVG 1.1//EN" "http://www.w3.org/Graphics/SVG/1.1/DTD/svg11.dtd">
<svg width="157" height="149" viewBox="-74 -45 157 149" xmlns="http://www.w3.org/2000/svg" version="1.1">
<title>OpenSCAD Model</title>
<path d="
M -73.5586,72.9268 L -73.3597,74.8561 L -72.9337,78.9881 L -72.881,79.0314 L -72.8563,79.0517 L -72.8563,79.0517
 L -64.3625,86.0272 L -59.4935,90.0258 L -59.4634,90.0505 L -57.4067,91.0548 L -54.4511,91.3794 L -41.1064,103.179
 L -39.523,103.171 L -33.0793,103.14 L -33.0032,103.092 L -32.9715,103.071 L -32.9715,103.071 L -30.1967,101.293
 L -27.0974,99.3061 L -24.7918,96.9904 L -22.686,94.8755 L -21.6544,93.4556 L -19.3985,90.3507 L -20.3162,86.7797
 L -20.6661,85.4182 L -20.6661,85.4182 L -16.5634,80.8617 L -11.466,75.2005 L -8.89364,73.4843 L -1.78294,68.7404
 L -1.03895,69.6733 L 0.634983,70.4794 L 0.666379,70.4945 L 2.55915,70.4945 L 2.59055,70.4794 L 4.26448,69.6733
 L 5.42287,68.2207 L 5.4446,68.1935 L 5.45236,68.1595 L 5.86578,66.3481 L 5.80233,66.0702 L 13.5922,64.4386
 L 21.1157,64.4386 L 21.1572,64.4386 L 34.0762,64.4386 L 38.5997,57.562 L 41.283,53.4828 L 44.3098,53.4828
 L 51.5022,53.4828 L 54.201,53.4828 L 73.5211,53.4828 L 78.1352,49.0259 L 80.5211,46.7213 L 80.5211,46.6575
 L 80.5211,46.6575 L 80.5211,31.0314 L 80.5211,29.9206 L 80.5211,24.4513 L 80.5211,15.639 L 81.1728,15.3251
 L 82.3312,13.8726 L 82.353,13.8453 L 82.3607,13.8113 L 82.7741,12 L 82.3607,10.1887 L 82.353,10.1547
 L 82.3312,10.1274 L 81.1728,8.67486 L 80.5211,8.36101 L 80.5211,-0.451258 L 80.5211,-5.92061 L 80.5211,-7.03144
 L 80.5211,-22.6575 L 80.5211,-22.6575 L 80.5211,-22.7213 L 78.1352,-25.0259 L 73.5211,-29.4828 L 54.201,-29.4828
 L 51.5022,-29.4828 L 44.3098,-29.4828 L 34.3097,-29.4828 L 31.751,-34.6301 L 28.7949,-40.5769 L 28.55,-40.9548
 L 28.2078,-41.4828 L 23.4335,-41.4828 L 23.3472,-41.4828 L 23.3079,-41.4828 L 23.3059,-41.4917 L 23.2981,-41.5256
 L 23.2764,-41.5529 L 22.118,-43.0055 L 20.444,-43.8116 L 20.4126,-43.8267 L 18.5199,-43.8267 L 18.4885,-43.8116
 L 16.8145,-43.0055 L 15.6562,-41.5529 L 15.6344,-41.5256 L 15.6267,-41.4917 L 15.6246,-41.4828 L 11.1707,-41.4828
 L 6.93169,-43.5667 L 5.43445,-44.3028 L 1.04752,-44.3028 L 0.9528,-44.3028 L -11.3727,-44.3028 L -12.8379,-43.0502
 L -14.6715,-41.4828 L -24.0172,-41.4828 L -24.0667,-41.4828 L -30.8964,-41.4828 L -33.7552,-41.4828 L -33.7887,-41.4828
 L -35.2228,-41.4828 L -45.8905,-41.4828 L -50.9074,-41.4828 L -50.9309,-41.4828 L -54.5578,-38.9167 L -55.8274,-38.0184
 L -62.8274,-31.0184 L -63.3151,-26.7112 L -64.6754,-26.7112 L -64.7068,-26.6961 L -66.3807,-25.89 L -67.5391,-24.4374
 L -67.5609,-24.4102 L -67.5686,-24.3762 L -67.982,-22.5649 L -67.5686,-20.7535 L -67.5609,-20.7195 L -67.5391,-20.6923
 L -66.3807,-19.2397 L -64.7068,-18.4336 L -64.6754,-18.4185 L -64.2542,-18.4185 L -64.7306,-14.2113 L -64.9265,-10.6906
 L -65.0345,-8.75 L -65.0345,8.75 L -64.9265,10.6906 L -64.7306,14.2113 L -63.5037,25.0462 L -62.8274,31.0184
 L -60.9995,34.2091 L -58.256,38.9979 L -58.9034,39.5411 L -59.0703,39.4607 L -59.1017,39.4456 L -60.9945,39.4456
 L -61.0259,39.4607 L -62.6998,40.2668 L -63.8582,41.7194 L -63.88,41.7467 L -63.8877,41.7806 L -64.3011,43.592
 L -64.2095,43.9935 L -66.4685,45.889 L -66.4685,45.889 L -67.182,46.759 L -67.7244,47.4205 L -64.9058,54.4478
 L -63.845,57.0925 L -66.2202,60.1326 L -66.2204,60.1328 L -67.1871,61.3701 L -70.6058,67.5711 L -73.4989,72.8185
 L -73.4989,72.8185 z
M -71.1103,74.6847 L -61.7535,58.2146 L -61.7535,58.2146 L -61.645,58.0758 L -60.8162,57.015 L -60.8159,57.0145
 L -60.8159,57.0145 L -60.7702,56.9561 L -63.6413,50.3913 L -64.8157,47.7061 L -63.1711,46.3261 L -62.6998,46.9171
 L -61.0259,47.7232 L -60.9945,47.7384 L -59.1017,47.7384 L -59.0703,47.7232 L -57.3964,46.9171 L -56.238,45.4645
 L -56.2163,45.4373 L -56.2085,45.4033 L -55.7951,43.592 L -56.2085,41.7806 L -56.2163,41.7467 L -56.238,41.7194
 L -56.8165,40.994 L -56.1902,40.4684 L -56.1902,40.4684 L -55.6528,39.8131 L -55.6528,39.8131 L -54.9343,38.937
 L -54.9343,38.937 L -56.5592,36.6878 L -60.7274,30.9184 L -61.1205,27.4471 L -52.7116,27.4471 L -52.7116,-25.4471
 L -60.7241,-25.4471 L -61.0773,-25.89 L -61.2855,-25.9902 L -60.7274,-30.9184 L -55.7274,-35.9184 L -54.2457,-36.5587
 L -49.6412,-38.5485 L -37.7974,-38.5485 L -37.7793,-38.5485 L -33.9888,-38.5485 L -31.1003,-38.5485 L -29.8895,-38.5485
 L -18.6862,-38.5485 L -18.6623,-38.5485 L -13.6072,-38.5485 L -11.7073,-40.2962 L -10.5417,-41.3685 L -1.94848,-41.3685
 L 6.07218,-41.3685 L 8.87152,-39.9312 L 11.5649,-38.5485 L 15.4716,-38.5485 L 15.6267,-37.869 L 15.6344,-37.835
 L 15.6562,-37.8078 L 16.8145,-36.3552 L 18.4885,-35.5491 L 18.5199,-35.5339 L 20.4126,-35.5339 L 20.444,-35.5491
 L 22.118,-36.3552 L 23.2764,-37.8078 L 23.2981,-37.835 L 23.3059,-37.869 L 23.4609,-38.5485 L 28.4672,-38.5485
 L 31.0165,-33.4414 L 34.4573,-26.5485 L 43.7152,-26.5485 L 51.7412,-26.5485 L 53.953,-26.5485 L 56.2211,-26.5485
 L 73.4211,-26.5485 L 75.8927,-24.1611 L 78.4211,-21.7188 L 78.4211,-14.0839 L 78.4211,-5.07689 L 78.4211,-2.63811
 L 78.4211,-0.451211 L 78.2565,3.3 L 78.2565,7.85361 L 77.5747,7.85361 L 77.5433,7.86873 L 75.8694,8.67486
 L 74.711,10.1274 L 74.6893,10.1547 L 74.6815,10.1887 L 74.2681,12 L 74.6815,13.8113 L 74.6893,13.8453
 L 74.711,13.8726 L 75.8694,15.3251 L 77.5433,16.1313 L 77.5747,16.1464 L 78.2565,16.1464 L 78.2565,20.7
 L 78.4211,24.4512 L 78.4211,26.6381 L 78.4211,29.0769 L 78.4211,38.0839 L 78.4211,45.7188 L 75.8927,48.1611
 L 73.4211,50.5485 L 56.2211,50.5485 L 53.953,50.5485 L 51.7412,50.5485 L 43.7152,50.5485 L 34.4573,50.5485
 L 34.2948,51.0481 L 34.1627,51.4543 L 34.1639,51.5075 L 34.188,52.5411 L 34.209,53.4379 L 34.21,53.4828
 L 34.21,53.4828 L 34.2634,53.4828 L 37.7037,53.4828 L 37.3329,54.11 L 33.3369,60.8699 L 27.3838,60.8699
 L 13.8377,60.8699 L 9.89781,61.9513 L 4.5749,63.4123 L 4.26448,63.023 L 2.59055,62.2169 L 2.55915,62.2018
 L 0.666379,62.2018 L 0.634983,62.2169 L -1.03895,63.023 L -2.19735,64.4756 L -2.21907,64.5028 L -2.22683,64.5368
 L -2.64025,66.3481 L -2.54286,66.7748 L -4.71309,68.1852 L -12.5391,73.271 L -13.4352,73.955 L -14.1134,74.4727
 L -14.1347,74.4964 L -20.0425,81.0576 L -23.7441,85.1686 L -23.7441,85.1686 L -23.7658,85.1928 L -23.3693,87.0327
 L -22.7532,89.8924 L -25.8717,94.1847 L -25.9935,94.3523 L -35.9204,100.929 L -39.0534,100.971 L -51.5439,90.0435
 L -52.3867,89.3061 L -52.3867,89.3061 L -52.4642,89.2383 L -52.8536,89.048 L -57.5795,87.674 L -57.5795,87.674
 L -67.425,79.6101 L -70.9097,76.7561 z
M -65.429,-22.5649 L -64.579,-24.0371 L -62.879,-24.0371 L -62.029,-22.5649 L -62.879,-21.0926 L -64.579,-21.0926
 z
M -62.9345,8.65 L -62.9345,-8.65 L -62.7288,-12.3476 L -62.6306,-14.1113 L -62.106,-18.7443 L -61.7116,-18.9343
 L -61.7116,22.2274 L -62.6306,14.1113 L -62.7288,12.3476 z
M -61.7481,43.592 L -60.8981,42.1197 L -59.1981,42.1197 L -58.3481,43.592 L -59.1981,45.0642 L -60.8981,45.0642
 z
M -0.0872352,66.3481 L 0.762765,64.8759 L 2.46276,64.8759 L 3.31276,66.3481 L 2.46276,67.8204 L 0.762765,67.8204
 z
M 17.7663,-39.6803 L 18.6163,-41.1526 L 20.3163,-41.1526 L 21.1663,-39.6803 L 20.3163,-38.2081 L 18.6163,-38.2081
 z
M 76.8211,12 L 77.6711,10.5278 L 79.3711,10.5278 L 80.2211,12 L 79.3711,13.4722 L 77.6711,13.4722
 z
" stroke="black" fill="lightgray" stroke-width="0.5"/></svg>
