  0
SECTION
  2
HEADER
  9
$ACADVER
  1
AC1014
  9
$HANDSEED
  5
FFFF
  9
$MEASUREMENT
 70
     1
  0
ENDSEC
  0
SECTION
  2
TABLES
  0
TABLE
  2
VPORT
  5
8
330
0
100
AcDbSymbolTable
 70
     4
  0
VPORT
  5
2E
330
8
100
AcDbSymbolTableRecord
100
AcDbViewportTableRecord
  2
*ACTIVE
 70
     0
 10
0.0
 20
0.0
 11
1.0
 21
1.0
 12
210.0
 22
148.5
 13
0.0
 23
0.0
 14
10.0
 24
10.0
 15
10.0
 25
10.0
 16
0.0
 26
0.0
 36
1.0
 17
0.0
 27
0.0
 37
0.0
 40
341.0
 41
1.24
 42
50.0
 43
0.0
 44
0.0
 50
0.0
 51
0.0
 71
     0
 72
   100
 73
     1
 74
     3
 75
     0
 76
     0
 77
     0
 78
     0
  0
ENDTAB
  0
TABLE
  2
LTYPE
  5
5
330
0
100
AcDbSymbolTable
 70
     1
  0
LTYPE
  5
14
330
5
100
AcDbSymbolTableRecord
100
AcDbLinetypeTableRecord
  2
BYBLOCK
 70
     0
  3

 72
    65
 73
     0
 40
0.0
  0
LTYPE
  5
15
330
5
100
AcDbSymbolTableRecord
100
AcDbLinetypeTableRecord
  2
BYLAYER
 70
     0
  3

 72
    65
 73
     0
 40
0.0
  0
LTYPE
  5
16
330
5
100
AcDbSymbolTableRecord
100
AcDbLinetypeTableRecord
  2
CONTINUOUS
 70
     0
  3
Solid line
 72
    65
 73
     0
 40
0.0
  0
ENDTAB
  0
TABLE
  2
LAYER
  5
2
100
AcDbSymbolTable
 70
1
  0
LAYER
  5
50
100
AcDbSymbolTableRecord
100
AcDbLayerTableRecord
  2
0
 70
0
  6
CONTINUOUS
  0
ENDTAB
  0
TABLE
  2
STYLE
  5
3
330
0
100
AcDbSymbolTable
 70
     1
  0
STYLE
  5
11
330
3
100
AcDbSymbolTableRecord
100
AcDbTextStyleTableRecord
  2
STANDARD
 70
     0
 40
0.0
 41
1.0
 50
0.0
 71
     0
 42
2.5
  3
txt
  4

  0
ENDTAB
  0
TABLE
  2
VIEW
  5
6
330
0
100
AcDbSymbolTable
 70
     0
  0
ENDTAB
  0
TABLE
  2
UCS
  5
7
330
0
100
AcDbSymbolTable
 70
     0
  0
ENDTAB
  0
TABLE
  2
APPID
  5
9
330
0
100
AcDbSymbolTable
 70
     2
  0
APPID
  5
12
330
9
100
AcDbSymbolTableRecord
100
AcDbRegAppTableRecord
  2
ACAD
 70
     0
  0
ENDTAB
  0
TABLE
  2
DIMSTYLE
  5
A
330
0
100
AcDbSymbolTable
 70
     1
  0
DIMSTYLE
105
27
330
A
100
AcDbSymbolTableRecord
100
AcDbDimStyleTableRecord
  2
ISO-25
 70
     0
  3

  4

  5

  6

  7

 40
1.0
 41
2.5
 42
0.625
 43
3.75
 44
1.25
 45
0.0
 46
0.0
 47
0.0
 48
0.0
140
2.5
141
2.5
142
0.0
143
0.03937007874016
144
1.0
145
0.0
146
1.0
147
0.625
 71
     0
 72
     0
 73
     0
 74
     0
 75
     0
 76
     0
 77
     1
 78
     8
170
     0
171
     3
172
     1
173
     0
174
     0
175
     0
176
     0
177
     0
178
     0
270
     2
271
     2
272
     2
273
     2
274
     3
340
11
275
     0
280
     0
281
     0
282
     0
283
     0
284
     8
285
     0
286
     0
287
     3
288
     0
  0
ENDTAB
  0
TABLE
  2
BLOCK_RECORD
  5
1
330
0
100
AcDbSymbolTable
 70
     1
  0
BLOCK_RECORD
  5
1F
330
1
100
AcDbSymbolTableRecord
100
AcDbBlockTableRecord
  2
*MODEL_SPACE
  0
BLOCK_RECORD
  5
1B
330
1
100
AcDbSymbolTableRecord
100
AcDbBlockTableRecord
  2
*PAPER_SPACE
  0
ENDTAB
  0
ENDSEC
  0
SECTION
  2
BLOCKS
  0
BLOCK
  5
20
330
1F
100
AcDbEntity
  8
0
100
AcDbBlockBegin
  2
*MODEL_SPACE
 70
     0
 10
0.0
 20
0.0
 30
0.0
  3
*MODEL_SPACE
  1

  0
ENDBLK
  5
21
330
1F
100
AcDbEntity
  8
0
100
AcDbBlockEnd
  0
BLOCK
  5
1C
330
1B
100
AcDbEntity
 67
     1
  8
0
100
AcDbBlockBegin
  2
*PAPER_SPACE
  1

  0
ENDBLK
  5
1D
330
1B
100
AcDbEntity
 67
     1
  8
0
100
AcDbBlockEnd
  0
ENDSEC
  0
SECTION
  2
ENTITIES
  0
LWPOLYLINE
  5
100
100
AcDbEntity
  8
0
 62
7
100
AcDbPolyline
 90
129
 70
1
 10
-318.483780
 20
304.949764
 30
0.0
 10
-317.525669
 20
280.385575
 30
0.0
 10
-317.511496
 20
280.004315
 30
0.0
 10
-317.508661
 20
280.001197
 30
0.0
 10
-316.995591
 20
279.458646
 30
0.0
 10
-314.005039
 20
276.291780
 30
0.0
 10
-284.266772
 20
243.356598
 30
0.0
 10
-255.054898
 20
230.907118
 30
0.0
 10
-250.562268
 20
229.465134
 30
0.0
 10
-217.728567
 20
197.668630
 30
0.0
 10
-215.396787
 20
195.410551
 30
0.0
 10
-215.396787
 20
195.410551
 30
0.0
 10
-215.384598
 20
195.398929
 30
0.0
 10
-215.192409
 20
195.212693
 30
0.0
 10
-214.760126
 20
195.207874
 30
0.0
 10
-209.961071
 20
195.156850
 30
0.0
 10
-189.708661
 20
193.658740
 30
0.0
 10
-188.517543
 20
194.568094
 30
0.0
 10
-188.517260
 20
194.568094
 30
0.0
 10
-185.246079
 20
197.065134
 30
0.0
 10
-185.234457
 20
197.077890
 30
0.0
 10
-185.088756
 20
197.239748
 30
0.0
 10
-171.765921
 20
212.036598
 30
0.0
 10
-157.884945
 20
227.452819
 30
0.0
 10
-147.097984
 20
241.329543
 30
0.0
 10
-147.097134
 20
241.330677
 30
0.0
 10
-135.142583
 20
256.709480
 30
0.0
 10
-127.050236
 20
256.709480
 30
0.0
 10
-126.960094
 20
256.709480
 30
0.0
 10
-92.783622
 20
256.709480
 30
0.0
 10
-85.930866
 20
262.333984
 30
0.0
 10
-85.930583
 20
262.333984
 30
0.0
 10
-83.044063
 20
264.703181
 30
0.0
 10
-62.751402
 20
264.703181
 30
0.0
 10
-34.473543
 20
264.703181
 30
0.0
 10
-28.768819
 20
260.055780
 30
0.0
 10
-24.661417
 20
256.709480
 30
0.0
 10
24.377924
 20
256.709480
 30
0.0
 10
27.002608
 20
247.611685
 30
0.0
 10
27.002806
 20
247.611118
 30
0.0
 10
34.191213
 20
222.693732
 30
0.0
 10
70.183843
 20
222.693732
 30
0.0
 10
83.253827
 20
222.693732
 30
0.0
 10
90.485858
 20
222.693732
 30
0.0
 10
90.559276
 20
222.693732
 30
0.0
 10
92.991969
 20
222.693732
 30
0.0
 10
129.004724
 20
222.693732
 30
0.0
 10
129.080976
 20
222.693732
 30
0.0
 10
141.357260
 20
222.693732
 30
0.0
 10
157.595811
 20
235.816724
 30
0.0
 10
162.621071
 20
239.877921
 30
0.0
 10
163.965543
 20
253.287780
 30
0.0
 10
166.878992
 20
282.347433
 30
0.0
 10
166.886646
 20
282.424819
 30
0.0
 10
166.903654
 20
282.592913
 30
0.0
 10
168.100441
 20
299.234835
 30
0.0
 10
168.654331
 20
306.931748
 30
0.0
 10
168.658866
 20
307.029260
 30
0.0
 10
168.658866
 20
307.033228
 30
0.0
 10
169.586929
 20
326.980913
 30
0.0
 10
170.871024
 20
354.573921
 30
0.0
 10
171.135496
 20
366.141260
 30
0.0
 10
171.468000
 20
380.692913
 30
0.0
 10
171.468000
 20
430.015776
 30
0.0
 10
171.216850
 20
441.007305
 30
0.0
 10
170.871024
 20
456.134683
 30
0.0
 10
169.586929
 20
483.727748
 30
0.0
 10
168.658866
 20
503.675433
 30
0.0
 10
168.658866
 20
503.679402
 30
0.0
 10
168.654331
 20
503.776913
 30
0.0
 10
168.100441
 20
511.473827
 30
0.0
 10
166.903654
 20
528.115748
 30
0.0
 10
166.886646
 20
528.283843
 30
0.0
 10
166.878992
 20
528.361228
 30
0.0
 10
163.965543
 20
557.420882
 30
0.0
 10
162.621071
 20
570.830740
 30
0.0
 10
157.595811
 20
574.891937
 30
0.0
 10
141.357260
 20
588.014929
 30
0.0
 10
129.080976
 20
588.014929
 30
0.0
 10
129.004724
 20
588.014929
 30
0.0
 10
92.991969
 20
588.014929
 30
0.0
 10
90.559276
 20
588.014929
 30
0.0
 10
90.485858
 20
588.014929
 30
0.0
 10
83.253827
 20
588.014929
 30
0.0
 10
70.183843
 20
588.014929
 30
0.0
 10
34.473543
 20
588.014929
 30
0.0
 10
27.285392
 20
612.934016
 30
0.0
 10
24.661417
 20
622.030677
 30
0.0
 10
-24.377924
 20
622.030677
 30
0.0
 10
-31.091244
 20
627.499276
 30
0.0
 10
-34.191213
 20
630.024378
 30
0.0
 10
-62.751402
 20
630.024378
 30
0.0
 10
-83.326394
 20
630.024378
 30
0.0
 10
-86.210929
 20
627.656032
 30
0.0
 10
-93.062835
 20
622.030677
 30
0.0
 10
-126.960094
 20
622.030677
 30
0.0
 10
-127.050236
 20
622.030677
 30
0.0
 10
-141.281291
 20
622.030677
 30
0.0
 10
-148.256504
 20
622.030677
 30
0.0
 10
-148.333890
 20
622.030677
 30
0.0
 10
-150.870898
 20
622.030677
 30
0.0
 10
-185.591055
 20
622.030677
 30
0.0
 10
-185.672693
 20
622.030677
 30
0.0
 10
-198.312378
 20
622.030677
 30
0.0
 10
-204.882520
 20
616.691055
 30
0.0
 10
-220.155307
 20
604.279559
 30
0.0
 10
-239.997827
 20
584.437039
 30
0.0
 10
-244.460976
 20
554.570646
 30
0.0
 10
-246.380882
 20
541.722047
 30
0.0
 10
-247.055811
 20
535.425165
 30
0.0
 10
-247.927465
 20
527.296252
 30
0.0
 10
-249.789260
 20
500.450457
 30
0.0
 10
-251.231244
 20
479.654079
 30
0.0
 10
-251.525764
 20
471.012378
 30
0.0
 10
-251.758772
 20
464.173228
 30
0.0
 10
-251.758772
 20
414.566929
 30
0.0
 10
-251.525764
 20
407.727780
 30
0.0
 10
-251.231244
 20
399.086079
 30
0.0
 10
-249.789260
 20
378.289701
 30
0.0
 10
-247.946457
 20
351.718016
 30
0.0
 10
-267.413386
 20
342.182551
 30
0.0
 10
-267.414236
 20
342.181984
 30
0.0
 10
-287.379213
 20
332.402740
 30
0.0
 10
-287.469921
 20
332.326205
 30
0.0
 10
-287.557795
 20
332.251654
 30
0.0
 10
-287.557795
 20
332.251654
 30
0.0
 10
-301.317165
 20
320.706709
 30
0.0
 10
-314.923465
 20
309.291024
 30
0.0
 10
-317.355591
 20
306.324000
 30
0.0
  0
ENDSEC
  0
SECTION
  2
OBJECTS
  0
DICTIONARY
  5
C
330
0
100
AcDbDictionary
  3
ACAD_GROUP
350
D
  3
ACAD_MLINESTYLE
350
17
  0
DICTIONARY
  5
D
330
C
100
AcDbDictionary
  0
DICTIONARY
  5
1A
330
C
100
AcDbDictionary
  0
DICTIONARY
  5
17
330
C
100
AcDbDictionary
  3
STANDARD
350
18
  0
DICTIONARY
  5
19
330
C
100
AcDbDictionary
  0
ENDSEC
  0
EOF
