solid OpenSCAD_Model
  facet normal 0.666325 -0.745661 0
    outer loop
      vertex 79.101 24.288 -2
      vertex 80.68 25.699 -2
      vertex 80.68 25.699 2
    endloop
  endfacet
  facet normal 0.666325 -0.745661 0
    outer loop
      vertex 79.101 24.288 2
      vertex 79.101 24.288 -2
      vertex 80.68 25.699 2
    endloop
  endfacet
  facet normal 0 -1 0
    outer loop
      vertex 80.68 25.699 -2
      vertex 97.803 25.699 -2
      vertex 97.803 25.699 2
    endloop
  endfacet
  facet normal 0 -1 0
    outer loop
      vertex 80.68 25.699 2
      vertex 80.68 25.699 -2
      vertex 97.803 25.699 2
    endloop
  endfacet
  facet normal 0 0 -1
    outer loop
      vertex 0 36.701 -2
      vertex 4.457 40.452 -2
      vertex 0 29.846 -2
    endloop
  endfacet
  facet normal 0 0 -1
    outer loop
      vertex 0 29.846 -2
      vertex 4.457 40.452 -2
      vertex 7.029 42.515 -2
    endloop
  endfacet
  facet normal 0 0 -1
    outer loop
      vertex 0 29.846 -2
      vertex 7.029 42.515 -2
      vertex 9.528 44.34 -2
    endloop
  endfacet
  facet normal 0 0 -1
    outer loop
      vertex 0 29.846 -2
      vertex 9.528 44.34 -2
      vertex 12.502 46.301 -2
    endloop
  endfacet
  facet normal 0 0 -1
    outer loop
      vertex 0 29.846 -2
      vertex 12.502 46.301 -2
      vertex 16.503 48.774 -2
    endloop
  endfacet
  facet normal 0 0 -1
    outer loop
      vertex 0 29.846 -2
      vertex 16.503 48.774 -2
      vertex 18.785 50.184 -2
    endloop
  endfacet
  facet normal 0 0 -1
    outer loop
      vertex 0 29.846 -2
      vertex 18.785 50.184 -2
      vertex 20.559 51.291 -2
    endloop
  endfacet
  facet normal 0 0 -1
    outer loop
      vertex 20.559 51.291 -2
      vertex 21.885 52.14 -2
      vertex 0 29.846 -2
    endloop
  endfacet
  facet normal 0 0 -1
    outer loop
      vertex 21.885 52.14 -2
      vertex 22.827 52.777 -2
      vertex 0 29.846 -2
    endloop
  endfacet
  facet normal 0 0 -1
    outer loop
      vertex 22.827 52.777 -2
      vertex 23.45 53.25 -2
      vertex 0 29.846 -2
    endloop
  endfacet
  facet normal 0 0 -1
    outer loop
      vertex 23.45 53.25 -2
      vertex 23.817 53.603 -2
      vertex 0 29.846 -2
    endloop
  endfacet
  facet normal 0 0 -1
    outer loop
      vertex 23.689 59.502 -2
      vertex 23.471 62.513 -2
      vertex 23.187 67.352 -2
    endloop
  endfacet
  facet normal 0 0 -1
    outer loop
      vertex 23.689 59.502 -2
      vertex 23.187 67.352 -2
      vertex 23.868 56.917 -2
    endloop
  endfacet
  facet normal 0 0 -1
    outer loop
      vertex 23.868 56.917 -2
      vertex 23.187 67.352 -2
      vertex 22.993 72.795 -2
    endloop
  endfacet
  facet normal 0 0 -1
    outer loop
      vertex 23.868 56.917 -2
      vertex 22.993 72.795 -2
      vertex 23.989 55.036 -2
    endloop
  endfacet
  facet normal 0 0 -1
    outer loop
      vertex 23.989 55.036 -2
      vertex 22.993 72.795 -2
      vertex 22.885 78.66 -2
    endloop
  endfacet
  facet normal 0 0 -1
    outer loop
      vertex 23.989 55.036 -2
      vertex 22.885 78.66 -2
      vertex 24.034 54.135 -2
    endloop
  endfacet
  facet normal 0 0 -1
    outer loop
      vertex 24.034 54.135 -2
      vertex 22.885 78.66 -2
      vertex 22.863 84.763 -2
    endloop
  endfacet
  facet normal 0 0 -1
    outer loop
      vertex 24.034 54.135 -2
      vertex 22.863 84.763 -2
      vertex 22.926 90.923 -2
    endloop
  endfacet
  facet normal 0 0 -1
    outer loop
      vertex 24.034 54.135 -2
      vertex 22.926 90.923 -2
      vertex 23.074 96.955 -2
    endloop
  endfacet
  facet normal 0 0 -1
    outer loop
      vertex 24.034 54.135 -2
      vertex 23.074 96.955 -2
      vertex 23.301 102.675 -2
    endloop
  endfacet
  facet normal 0 0 -1
    outer loop
      vertex 24.034 54.135 -2
      vertex 23.301 102.675 -2
      vertex 23.611 107.902 -2
    endloop
  endfacet
  facet normal 0 0 -1
    outer loop
      vertex 24.034 54.135 -2
      vertex 23.611 107.902 -2
      vertex 23.862 111.268 -2
    endloop
  endfacet
  facet normal 0 0 -1
    outer loop
      vertex 24.034 54.135 -2
      vertex 23.862 111.268 -2
      vertex 24.081 114.033 -2
    endloop
  endfacet
  facet normal 0 0 -1
    outer loop
      vertex 24.034 54.135 -2
      vertex 24.081 114.033 -2
      vertex 24.292 116.401 -2
    endloop
  endfacet
  facet normal 0 0 -1
    outer loop
      vertex 24.034 54.135 -2
      vertex 24.292 116.401 -2
      vertex 24.517 118.58 -2
    endloop
  endfacet
  facet normal 0 0 -1
    outer loop
      vertex 24.034 54.135 -2
      vertex 24.517 118.58 -2
      vertex 24.781 120.775 -2
    endloop
  endfacet
  facet normal 0 0 -1
    outer loop
      vertex 24.034 54.135 -2
      vertex 24.781 120.775 -2
      vertex 25.107 123.191 -2
    endloop
  endfacet
  facet normal 0 0 -1
    outer loop
      vertex 24.034 54.135 -2
      vertex 25.107 123.191 -2
      vertex 25.517 126.036 -2
    endloop
  endfacet
  facet normal 0 0 -1
    outer loop
      vertex 24.034 54.135 -2
      vertex 25.517 126.036 -2
      vertex 26.038 129.511 -2
    endloop
  endfacet
  facet normal 0 0 -1
    outer loop
      vertex 24.034 54.135 -2
      vertex 26.038 129.511 -2
      vertex 26.912 135.295 -2
    endloop
  endfacet
  facet normal 0 0 -1
    outer loop
      vertex 24.034 54.135 -2
      vertex 26.912 135.295 -2
      vertex 29.479 137.918 -2
    endloop
  endfacet
  facet normal 0 0 -1
    outer loop
      vertex 24.034 54.135 -2
      vertex 29.479 137.918 -2
      vertex 30.953 139.35 -2
    endloop
  endfacet
  facet normal 0 0 -1
    outer loop
      vertex 24.034 54.135 -2
      vertex 30.953 139.35 -2
      vertex 32.334 140.503 -2
    endloop
  endfacet
  facet normal 0 0 -1
    outer loop
      vertex 24.034 54.135 -2
      vertex 32.334 140.503 -2
      vertex 33.937 141.619 -2
    endloop
  endfacet
  facet normal 0 0 -1
    outer loop
      vertex 24.034 54.135 -2
      vertex 33.937 141.619 -2
      vertex 36.08 142.938 -2
    endloop
  endfacet
  facet normal 0 0 -1
    outer loop
      vertex 24.034 54.135 -2
      vertex 36.08 142.938 -2
      vertex 37.678 143.857 -2
    endloop
  endfacet
  facet normal 0 0 -1
    outer loop
      vertex 24.034 54.135 -2
      vertex 37.678 143.857 -2
      vertex 39.073 144.611 -2
    endloop
  endfacet
  facet normal 0 0 -1
    outer loop
      vertex 24.034 54.135 -2
      vertex 39.073 144.611 -2
      vertex 40.113 145.121 -2
    endloop
  endfacet
  facet normal 0 0 -1
    outer loop
      vertex 24.034 54.135 -2
      vertex 40.113 145.121 -2
      vertex 23.99 53.883 -2
    endloop
  endfacet
  facet normal 0 0 -1
    outer loop
      vertex 23.99 53.883 -2
      vertex 40.113 145.121 -2
      vertex 40.651 145.308 -2
    endloop
  endfacet
  facet normal 0 0 -1
    outer loop
      vertex 23.99 53.883 -2
      vertex 40.651 145.308 -2
      vertex 40.98 145.241 -2
    endloop
  endfacet
  facet normal 0 0 -1
    outer loop
      vertex 23.99 53.883 -2
      vertex 40.98 145.241 -2
      vertex 41.158 144.893 -2
    endloop
  endfacet
  facet normal 0 0 -1
    outer loop
      vertex 23.99 53.883 -2
      vertex 41.158 144.893 -2
      vertex 41.23 144.048 -2
    endloop
  endfacet
  facet normal 0 0 -1
    outer loop
      vertex 23.99 53.883 -2
      vertex 41.23 144.048 -2
      vertex 41.243 142.488 -2
    endloop
  endfacet
  facet normal 0 0 -1
    outer loop
      vertex 23.99 53.883 -2
      vertex 41.243 142.488 -2
      vertex 41.243 139.667 -2
    endloop
  endfacet
  facet normal 0 0 -1
    outer loop
      vertex 23.99 53.883 -2
      vertex 41.243 139.667 -2
      vertex 55.065 139.667 -2
    endloop
  endfacet
  facet normal 0 0 -1
    outer loop
      vertex 55.065 139.667 -2
      vertex 55.065 145.308 -2
      vertex 63.529 145.308 -2
    endloop
  endfacet
  facet normal 0 0 -1
    outer loop
      vertex 55.065 139.667 -2
      vertex 63.529 145.308 -2
      vertex 23.99 53.883 -2
    endloop
  endfacet
  facet normal 0 0 -1
    outer loop
      vertex 23.99 53.883 -2
      vertex 63.529 145.308 -2
      vertex 63.529 142.488 -2
    endloop
  endfacet
  facet normal 0 0 -1
    outer loop
      vertex 23.99 53.883 -2
      vertex 63.529 142.488 -2
      vertex 73.12 142.488 -2
    endloop
  endfacet
  facet normal 0 0 -1
    outer loop
      vertex 73.12 142.488 -2
      vertex 73.12 145.308 -2
      vertex 75.179 145.308 -2
    endloop
  endfacet
  facet normal 0 0 -1
    outer loop
      vertex 73.12 142.488 -2
      vertex 75.179 145.308 -2
      vertex 23.99 53.883 -2
    endloop
  endfacet
  facet normal 0 0 -1
    outer loop
      vertex 23.99 53.883 -2
      vertex 75.179 145.308 -2
      vertex 77.21 145.336 -2
    endloop
  endfacet
  facet normal 0 0 -1
    outer loop
      vertex 77.21 145.336 -2
      vertex 78.762 146.719 -2
      vertex 23.99 53.883 -2
    endloop
  endfacet
  facet normal 0 0 -1
    outer loop
      vertex 78.762 146.719 -2
      vertex 80.313 148.102 -2
      vertex 23.99 53.883 -2
    endloop
  endfacet
  facet normal 0 0 -1
    outer loop
      vertex 23.99 53.883 -2
      vertex 80.313 148.102 -2
      vertex 89.256 148.13 -2
    endloop
  endfacet
  facet normal 0 0 -1
    outer loop
      vertex 23.99 53.883 -2
      vertex 89.256 148.13 -2
      vertex 23.817 53.603 -2
    endloop
  endfacet
  facet normal 0 0 -1
    outer loop
      vertex 23.817 53.603 -2
      vertex 89.256 148.13 -2
      vertex 98.17 148.13 -2
    endloop
  endfacet
  facet normal 0 0 -1
    outer loop
      vertex 23.817 53.603 -2
      vertex 98.17 148.13 -2
      vertex 99.835 146.719 -2
    endloop
  endfacet
  facet normal 0 0 -1
    outer loop
      vertex 23.817 53.603 -2
      vertex 99.835 146.719 -2
      vertex 101.471 145.308 -2
    endloop
  endfacet
  facet normal 0 0 -1
    outer loop
      vertex 23.817 53.603 -2
      vertex 101.471 145.308 -2
      vertex 118.791 145.308 -2
    endloop
  endfacet
  facet normal 0 0 -1
    outer loop
      vertex 23.817 53.603 -2
      vertex 118.791 145.308 -2
      vertex 0 29.846 -2
    endloop
  endfacet
  facet normal 0 0 -1
    outer loop
      vertex 0 29.846 -2
      vertex 118.791 145.308 -2
      vertex 119.045 144.406 -2
    endloop
  endfacet
  facet normal 0 0 -1
    outer loop
      vertex 0 29.846 -2
      vertex 119.045 144.406 -2
      vertex 119.248 143.651 -2
    endloop
  endfacet
  facet normal 0 0 -1
    outer loop
      vertex 0 29.846 -2
      vertex 119.248 143.651 -2
      vertex 119.616 142.28 -2
    endloop
  endfacet
  facet normal 0 0 -1
    outer loop
      vertex 0 29.846 -2
      vertex 119.616 142.28 -2
      vertex 120.1 140.491 -2
    endloop
  endfacet
  facet normal 0 0 -1
    outer loop
      vertex 120.1 140.491 -2
      vertex 120.653 138.482 -2
      vertex 0 29.846 -2
    endloop
  endfacet
  facet normal 0 0 -1
    outer loop
      vertex 0 29.846 -2
      vertex 120.653 138.482 -2
      vertex 122.035 133.46 -2
    endloop
  endfacet
  facet normal 0 0 -1
    outer loop
      vertex 122.035 133.46 -2
      vertex 159.442 133.46 -2
      vertex 0 29.846 -2
    endloop
  endfacet
  facet normal 0 0 -1
    outer loop
      vertex 0 29.846 -2
      vertex 159.442 133.46 -2
      vertex 162.206 131.203 -2
    endloop
  endfacet
  facet normal 0 0 -1
    outer loop
      vertex 0 29.846 -2
      vertex 162.206 131.203 -2
      vertex 164.971 128.947 -2
    endloop
  endfacet
  facet normal 0 0 -1
    outer loop
      vertex 0 29.846 -2
      vertex 164.971 128.947 -2
      vertex 165.733 121.132 -2
    endloop
  endfacet
  facet normal 0 0 -1
    outer loop
      vertex 0 29.846 -2
      vertex 165.733 121.132 -2
      vertex 166.303 115.042 -2
    endloop
  endfacet
  facet normal 0 0 -1
    outer loop
      vertex 0 29.846 -2
      vertex 166.303 115.042 -2
      vertex 166.773 109.269 -2
    endloop
  endfacet
  facet normal 0 0 -1
    outer loop
      vertex 0 29.846 -2
      vertex 166.773 109.269 -2
      vertex 167.15 103.652 -2
    endloop
  endfacet
  facet normal 0 0 -1
    outer loop
      vertex 0 29.846 -2
      vertex 167.15 103.652 -2
      vertex 167.443 98.027 -2
    endloop
  endfacet
  facet normal 0 0 -1
    outer loop
      vertex 0 29.846 -2
      vertex 167.443 98.027 -2
      vertex 167.655 92.231 -2
    endloop
  endfacet
  facet normal 0 0 -1
    outer loop
      vertex 0 29.846 -2
      vertex 167.655 92.231 -2
      vertex 167.798 86.101 -2
    endloop
  endfacet
  facet normal 0 0 -1
    outer loop
      vertex 0 29.846 -2
      vertex 167.798 86.101 -2
      vertex 167.878 79.476 -2
    endloop
  endfacet
  facet normal 0 0 -1
    outer loop
      vertex 0 29.846 -2
      vertex 167.878 79.476 -2
      vertex 167.904 72.189 -2
    endloop
  endfacet
  facet normal 0 0 -1
    outer loop
      vertex 0 29.846 -2
      vertex 167.904 72.189 -2
      vertex 167.874 64.777 -2
    endloop
  endfacet
  facet normal 0 0 -1
    outer loop
      vertex 0 29.846 -2
      vertex 167.874 64.777 -2
      vertex 167.78 57.907 -2
    endloop
  endfacet
  facet normal 0 0 -1
    outer loop
      vertex 0 29.846 -2
      vertex 167.78 57.907 -2
      vertex 167.616 51.457 -2
    endloop
  endfacet
  facet normal 0 0 -1
    outer loop
      vertex 0 29.846 -2
      vertex 167.616 51.457 -2
      vertex 167.378 45.309 -2
    endloop
  endfacet
  facet normal 0 0 -1
    outer loop
      vertex 0 29.846 -2
      vertex 167.378 45.309 -2
      vertex 167.06 39.342 -2
    endloop
  endfacet
  facet normal 0 0 -1
    outer loop
      vertex 0 29.846 -2
      vertex 167.06 39.342 -2
      vertex 166.654 33.435 -2
    endloop
  endfacet
  facet normal 0 0 -1
    outer loop
      vertex 0 29.846 -2
      vertex 166.654 33.435 -2
      vertex 166.157 27.471 -2
    endloop
  endfacet
  facet normal 0 0 -1
    outer loop
      vertex 97.803 25.699 -2
      vertex 166.157 27.471 -2
      vertex 165.563 21.327 -2
    endloop
  endfacet
  facet normal 0 0 -1
    outer loop
      vertex 119.195 19.485 -2
      vertex 165.563 21.327 -2
      vertex 164.943 15.431 -2
    endloop
  endfacet
  facet normal 0 0 -1
    outer loop
      vertex 119.826 17.081 -2
      vertex 164.943 15.431 -2
      vertex 159.582 11.03 -2
    endloop
  endfacet
  facet normal 0 0 -1
    outer loop
      vertex 120.286 15.375 -2
      vertex 159.582 11.03 -2
      vertex 121.471 11.03 -2
    endloop
  endfacet
  facet normal 0 0 -1
    outer loop
      vertex 55.601 14.584 -2
      vertex 58.508 20.001 -2
      vertex 59.946 19.915 -2
    endloop
  endfacet
  facet normal 0 0 -1
    outer loop
      vertex 63.991 24.805 -2
      vertex 0 29.846 -2
      vertex 64.545 25.135 -2
    endloop
  endfacet
  facet normal 0 0 -1
    outer loop
      vertex 119.45 18.5 -2
      vertex 164.943 15.431 -2
      vertex 119.826 17.081 -2
    endloop
  endfacet
  facet normal 0 0 -1
    outer loop
      vertex 119.195 19.485 -2
      vertex 164.943 15.431 -2
      vertex 119.45 18.5 -2
    endloop
  endfacet
  facet normal 0 0 -1
    outer loop
      vertex 119.101 19.888 -2
      vertex 165.563 21.327 -2
      vertex 119.195 19.485 -2
    endloop
  endfacet
  facet normal 0 0 -1
    outer loop
      vertex 119.472 20.005 -2
      vertex 165.563 21.327 -2
      vertex 119.101 19.888 -2
    endloop
  endfacet
  facet normal 0 0 -1
    outer loop
      vertex 120.372 20.057 -2
      vertex 165.563 21.327 -2
      vertex 119.472 20.005 -2
    endloop
  endfacet
  facet normal 0 0 -1
    outer loop
      vertex 70.947 22.878 -2
      vertex 64.892 23.945 -2
      vertex 77.52 22.878 -2
    endloop
  endfacet
  facet normal 0 0 -1
    outer loop
      vertex 121.056 20.077 -2
      vertex 165.563 21.327 -2
      vertex 120.372 20.057 -2
    endloop
  endfacet
  facet normal 0 0 -1
    outer loop
      vertex 121.44 20.168 -2
      vertex 165.563 21.327 -2
      vertex 121.056 20.077 -2
    endloop
  endfacet
  facet normal 0 0 -1
    outer loop
      vertex 121.605 20.38 -2
      vertex 165.563 21.327 -2
      vertex 121.44 20.168 -2
    endloop
  endfacet
  facet normal 0 0 -1
    outer loop
      vertex 121.641 20.763 -2
      vertex 165.563 21.327 -2
      vertex 121.605 20.38 -2
    endloop
  endfacet
  facet normal 0 0 -1
    outer loop
      vertex 121.51 21.478 -2
      vertex 165.563 21.327 -2
      vertex 121.641 20.763 -2
    endloop
  endfacet
  facet normal 0 0 -1
    outer loop
      vertex 121.189 22.173 -2
      vertex 165.563 21.327 -2
      vertex 121.51 21.478 -2
    endloop
  endfacet
  facet normal 0 0 -1
    outer loop
      vertex 120.738 22.878 -2
      vertex 165.563 21.327 -2
      vertex 121.189 22.173 -2
    endloop
  endfacet
  facet normal 0 0 -1
    outer loop
      vertex 99.439 24.288 -2
      vertex 165.563 21.327 -2
      vertex 120.738 22.878 -2
    endloop
  endfacet
  facet normal 0 0 -1
    outer loop
      vertex 99.439 24.288 -2
      vertex 120.738 22.878 -2
      vertex 101.104 22.878 -2
    endloop
  endfacet
  facet normal 0 0 -1
    outer loop
      vertex 97.803 25.699 -2
      vertex 165.563 21.327 -2
      vertex 99.439 24.288 -2
    endloop
  endfacet
  facet normal 0 0 -1
    outer loop
      vertex 0 29.846 -2
      vertex 166.157 27.471 -2
      vertex 97.803 25.699 -2
    endloop
  endfacet
  facet normal 0 0 -1
    outer loop
      vertex 79.101 24.288 -2
      vertex 0 29.846 -2
      vertex 80.68 25.699 -2
    endloop
  endfacet
  facet normal 0 0 -1
    outer loop
      vertex 0 29.846 -2
      vertex 97.803 25.699 -2
      vertex 80.68 25.699 -2
    endloop
  endfacet
  facet normal 0 0 -1
    outer loop
      vertex 64.815 24.933 -2
      vertex 77.52 22.878 -2
      vertex 64.939 24.466 -2
    endloop
  endfacet
  facet normal 0 0 -1
    outer loop
      vertex 64.397 23.237 -2
      vertex 67.285 22.91 -2
      vertex 65.188 23.02 -2
    endloop
  endfacet
  facet normal 0 0 -1
    outer loop
      vertex 64.397 23.237 -2
      vertex 70.947 22.878 -2
      vertex 67.285 22.91 -2
    endloop
  endfacet
  facet normal 0 0 -1
    outer loop
      vertex 64.656 23.584 -2
      vertex 70.947 22.878 -2
      vertex 64.397 23.237 -2
    endloop
  endfacet
  facet normal 0 0 -1
    outer loop
      vertex 64.892 23.945 -2
      vertex 70.947 22.878 -2
      vertex 64.656 23.584 -2
    endloop
  endfacet
  facet normal 0 0 -1
    outer loop
      vertex 64.939 24.466 -2
      vertex 77.52 22.878 -2
      vertex 64.892 23.945 -2
    endloop
  endfacet
  facet normal 0 0 -1
    outer loop
      vertex 0 29.846 -2
      vertex 79.101 24.288 -2
      vertex 64.545 25.135 -2
    endloop
  endfacet
  facet normal 0 0 -1
    outer loop
      vertex 62.344 22.878 -2
      vertex 0 29.846 -2
      vertex 63.246 24.007 -2
    endloop
  endfacet
  facet normal 0 0 -1
    outer loop
      vertex 57.656 22.776 -2
      vertex 0 29.846 -2
      vertex 58.432 22.866 -2
    endloop
  endfacet
  facet normal 0 0 -1
    outer loop
      vertex 0 29.846 -2
      vertex 62.344 22.878 -2
      vertex 59.861 22.878 -2
    endloop
  endfacet
  facet normal 0 0 -1
    outer loop
      vertex 63.246 24.007 -2
      vertex 0 29.846 -2
      vertex 63.991 24.805 -2
    endloop
  endfacet
  facet normal 0 0 -1
    outer loop
      vertex 56.938 20.534 -2
      vertex 0 29.846 -2
      vertex 56.796 21.156 -2
    endloop
  endfacet
  facet normal 0 0 -1
    outer loop
      vertex 0 29.846 -2
      vertex 57.656 22.776 -2
      vertex 57.278 22.534 -2
    endloop
  endfacet
  facet normal 0 0 -1
    outer loop
      vertex 0 29.846 -2
      vertex 57.278 22.534 -2
      vertex 57.04 22.06 -2
    endloop
  endfacet
  facet normal 0 0 -1
    outer loop
      vertex 0 29.846 -2
      vertex 57.04 22.06 -2
      vertex 56.796 21.156 -2
    endloop
  endfacet
  facet normal 0 0 -1
    outer loop
      vertex 18.11 14.387 -2
      vertex 0 29.846 -2
      vertex 23.358 12.158 -2
    endloop
  endfacet
  facet normal 0 0 -1
    outer loop
      vertex 0 29.846 -2
      vertex 56.938 20.534 -2
      vertex 57.496 20.161 -2
    endloop
  endfacet
  facet normal 0 0 -1
    outer loop
      vertex 57.496 20.161 -2
      vertex 58.508 20.001 -2
      vertex 55.601 14.584 -2
    endloop
  endfacet
  facet normal 0 0 -1
    outer loop
      vertex 57.496 20.161 -2
      vertex 55.601 14.584 -2
      vertex 0 29.846 -2
    endloop
  endfacet
  facet normal 0 0 -1
    outer loop
      vertex 0 29.846 -2
      vertex 55.601 14.584 -2
      vertex 53.588 12.142 -2
    endloop
  endfacet
  facet normal 0 0 -1
    outer loop
      vertex 0 29.846 -2
      vertex 53.588 12.142 -2
      vertex 51.331 9.468 -2
    endloop
  endfacet
  facet normal 0 0 -1
    outer loop
      vertex 51.331 9.468 -2
      vertex 49.098 6.885 -2
      vertex 0 29.846 -2
    endloop
  endfacet
  facet normal 0 0 -1
    outer loop
      vertex 0 29.846 -2
      vertex 49.098 6.885 -2
      vertex 47.166 4.712 -2
    endloop
  endfacet
  facet normal 0 0 -1
    outer loop
      vertex 0 29.846 -2
      vertex 47.166 4.712 -2
      vertex 43.048 0.169 -2
    endloop
  endfacet
  facet normal 0 0 -1
    outer loop
      vertex 0 29.846 -2
      vertex 43.048 0.169 -2
      vertex 39.493 0.084 -2
    endloop
  endfacet
  facet normal 0 0 -1
    outer loop
      vertex 29.648 6.094 -2
      vertex 39.493 0.084 -2
      vertex 35.939 0 -2
    endloop
  endfacet
  facet normal 0 0 -1
    outer loop
      vertex 23.358 12.158 -2
      vertex 39.493 0.084 -2
      vertex 29.648 6.094 -2
    endloop
  endfacet
  facet normal 0 0 -1
    outer loop
      vertex 0 29.846 -2
      vertex 39.493 0.084 -2
      vertex 23.358 12.158 -2
    endloop
  endfacet
  facet normal 0 0 -1
    outer loop
      vertex 0 29.846 -2
      vertex 18.11 14.387 -2
      vertex 16.025 15.278 -2
    endloop
  endfacet
  facet normal 0 0 -1
    outer loop
      vertex 16.025 15.278 -2
      vertex 14.217 16.035 -2
      vertex 0 29.846 -2
    endloop
  endfacet
  facet normal 0 0 -1
    outer loop
      vertex 14.217 16.035 -2
      vertex 12.874 16.574 -2
      vertex 0 29.846 -2
    endloop
  endfacet
  facet normal 0 0 -1
    outer loop
      vertex 12.874 16.574 -2
      vertex 12.186 16.814 -2
      vertex 0 29.846 -2
    endloop
  endfacet
  facet normal 0 0 -1
    outer loop
      vertex 0 29.846 -2
      vertex 12.186 16.814 -2
      vertex 11.497 17.339 -2
    endloop
  endfacet
  facet normal 0 0 -1
    outer loop
      vertex 0 29.846 -2
      vertex 11.497 17.339 -2
      vertex 10.13 18.679 -2
    endloop
  endfacet
  facet normal 0 0 -1
    outer loop
      vertex 0 29.846 -2
      vertex 10.13 18.679 -2
      vertex 8.176 20.745 -2
    endloop
  endfacet
  facet normal 0 0 -1
    outer loop
      vertex 0 29.846 -2
      vertex 8.176 20.745 -2
      vertex 5.727 23.442 -2
    endloop
  endfacet
  facet normal 0 0 -1
    outer loop
      vertex 119.826 17.081 -2
      vertex 159.582 11.03 -2
      vertex 120.286 15.375 -2
    endloop
  endfacet
  facet normal 0 0 -1
    outer loop
      vertex 58.432 22.866 -2
      vertex 0 29.846 -2
      vertex 59.861 22.878 -2
    endloop
  endfacet
  facet normal 0 0 -1
    outer loop
      vertex 77.52 22.878 -2
      vertex 64.815 24.933 -2
      vertex 64.545 25.135 -2
    endloop
  endfacet
  facet normal 0 0 -1
    outer loop
      vertex 77.52 22.878 -2
      vertex 64.545 25.135 -2
      vertex 79.101 24.288 -2
    endloop
  endfacet
  facet normal 0.665594 -0.746314 0
    outer loop
      vertex 77.52 22.878 -2
      vertex 79.101 24.288 -2
      vertex 79.101 24.288 2
    endloop
  endfacet
  facet normal 0.665594 -0.746314 0
    outer loop
      vertex 77.52 22.878 2
      vertex 77.52 22.878 -2
      vertex 79.101 24.288 2
    endloop
  endfacet
  facet normal 0 0 1
    outer loop
      vertex 0 29.846 2
      vertex 5.727 23.442 2
      vertex 8.176 20.745 2
    endloop
  endfacet
  facet normal 0 0 1
    outer loop
      vertex 11.497 17.339 2
      vertex 0 29.846 2
      vertex 10.13 18.679 2
    endloop
  endfacet
  facet normal 0 0 1
    outer loop
      vertex 10.13 18.679 2
      vertex 0 29.846 2
      vertex 8.176 20.745 2
    endloop
  endfacet
  facet normal 0 0 1
    outer loop
      vertex 12.186 16.814 2
      vertex 0 29.846 2
      vertex 11.497 17.339 2
    endloop
  endfacet
  facet normal 0 0 1
    outer loop
      vertex 12.874 16.574 2
      vertex 0 29.846 2
      vertex 12.186 16.814 2
    endloop
  endfacet
  facet normal 0 0 1
    outer loop
      vertex 14.217 16.035 2
      vertex 0 29.846 2
      vertex 12.874 16.574 2
    endloop
  endfacet
  facet normal 0 0 1
    outer loop
      vertex 16.025 15.278 2
      vertex 0 29.846 2
      vertex 14.217 16.035 2
    endloop
  endfacet
  facet normal 0 0 1
    outer loop
      vertex 18.11 14.387 2
      vertex 0 29.846 2
      vertex 16.025 15.278 2
    endloop
  endfacet
  facet normal 0 0 1
    outer loop
      vertex 23.358 12.158 2
      vertex 0 29.846 2
      vertex 18.11 14.387 2
    endloop
  endfacet
  facet normal 0 0 1
    outer loop
      vertex 39.493 0.084 2
      vertex 0 29.846 2
      vertex 23.358 12.158 2
    endloop
  endfacet
  facet normal 0 0 1
    outer loop
      vertex 39.493 0.084 2
      vertex 23.358 12.158 2
      vertex 29.648 6.094 2
    endloop
  endfacet
  facet normal 0 0 1
    outer loop
      vertex 39.493 0.084 2
      vertex 29.648 6.094 2
      vertex 35.939 0 2
    endloop
  endfacet
  facet normal 0 0 1
    outer loop
      vertex 43.048 0.169 2
      vertex 0 29.846 2
      vertex 39.493 0.084 2
    endloop
  endfacet
  facet normal 0 0 1
    outer loop
      vertex 47.166 4.712 2
      vertex 0 29.846 2
      vertex 43.048 0.169 2
    endloop
  endfacet
  facet normal 0 0 1
    outer loop
      vertex 49.098 6.885 2
      vertex 0 29.846 2
      vertex 47.166 4.712 2
    endloop
  endfacet
  facet normal 0 0 1
    outer loop
      vertex 51.331 9.468 2
      vertex 0 29.846 2
      vertex 49.098 6.885 2
    endloop
  endfacet
  facet normal 0 0 1
    outer loop
      vertex 53.588 12.142 2
      vertex 0 29.846 2
      vertex 51.331 9.468 2
    endloop
  endfacet
  facet normal 0 0 1
    outer loop
      vertex 55.601 14.584 2
      vertex 0 29.846 2
      vertex 53.588 12.142 2
    endloop
  endfacet
  facet normal 0 0 1
    outer loop
      vertex 57.496 20.161 2
      vertex 0 29.846 2
      vertex 55.601 14.584 2
    endloop
  endfacet
  facet normal 0 0 1
    outer loop
      vertex 59.946 19.915 2
      vertex 58.508 20.001 2
      vertex 55.601 14.584 2
    endloop
  endfacet
  facet normal 0 0 1
    outer loop
      vertex 55.065 139.667 2
      vertex 41.243 139.667 2
      vertex 22.863 84.763 2
    endloop
  endfacet
  facet normal 0 0 1
    outer loop
      vertex 58.508 20.001 2
      vertex 57.496 20.161 2
      vertex 55.601 14.584 2
    endloop
  endfacet
  facet normal 0 0 1
    outer loop
      vertex 120.372 20.057 2
      vertex 119.472 20.005 2
      vertex 119.101 19.888 2
    endloop
  endfacet
  facet normal 0 0 1
    outer loop
      vertex 56.796 21.156 2
      vertex 0 29.846 2
      vertex 56.938 20.534 2
    endloop
  endfacet
  facet normal 0 0 1
    outer loop
      vertex 57.04 22.06 2
      vertex 0 29.846 2
      vertex 56.796 21.156 2
    endloop
  endfacet
  facet normal 0 0 1
    outer loop
      vertex 57.278 22.534 2
      vertex 0 29.846 2
      vertex 57.04 22.06 2
    endloop
  endfacet
  facet normal 0 0 1
    outer loop
      vertex 57.656 22.776 2
      vertex 0 29.846 2
      vertex 57.278 22.534 2
    endloop
  endfacet
  facet normal 0 0 1
    outer loop
      vertex 58.432 22.866 2
      vertex 0 29.846 2
      vertex 57.656 22.776 2
    endloop
  endfacet
  facet normal 0 0 1
    outer loop
      vertex 59.861 22.878 2
      vertex 0 29.846 2
      vertex 58.432 22.866 2
    endloop
  endfacet
  facet normal 0 0 1
    outer loop
      vertex 62.344 22.878 2
      vertex 0 29.846 2
      vertex 59.861 22.878 2
    endloop
  endfacet
  facet normal 0 0 1
    outer loop
      vertex 63.246 24.007 2
      vertex 0 29.846 2
      vertex 62.344 22.878 2
    endloop
  endfacet
  facet normal 0 0 1
    outer loop
      vertex 63.991 24.805 2
      vertex 0 29.846 2
      vertex 63.246 24.007 2
    endloop
  endfacet
  facet normal 0 0 1
    outer loop
      vertex 64.545 25.135 2
      vertex 0 29.846 2
      vertex 63.991 24.805 2
    endloop
  endfacet
  facet normal 0 0 1
    outer loop
      vertex 79.101 24.288 2
      vertex 0 29.846 2
      vertex 64.545 25.135 2
    endloop
  endfacet
  facet normal 0 0 1
    outer loop
      vertex 70.947 22.878 2
      vertex 64.545 25.135 2
      vertex 64.815 24.933 2
    endloop
  endfacet
  facet normal 0 0 1
    outer loop
      vertex 67.285 22.91 2
      vertex 64.815 24.933 2
      vertex 64.939 24.466 2
    endloop
  endfacet
  facet normal 0 0 1
    outer loop
      vertex 65.188 23.02 2
      vertex 64.939 24.466 2
      vertex 64.892 23.945 2
    endloop
  endfacet
  facet normal 0 0 1
    outer loop
      vertex 65.188 23.02 2
      vertex 64.892 23.945 2
      vertex 64.656 23.584 2
    endloop
  endfacet
  facet normal 0 0 1
    outer loop
      vertex 65.188 23.02 2
      vertex 64.656 23.584 2
      vertex 64.397 23.237 2
    endloop
  endfacet
  facet normal 0 0 1
    outer loop
      vertex 67.285 22.91 2
      vertex 64.939 24.466 2
      vertex 65.188 23.02 2
    endloop
  endfacet
  facet normal 0 0 1
    outer loop
      vertex 70.947 22.878 2
      vertex 64.815 24.933 2
      vertex 67.285 22.91 2
    endloop
  endfacet
  facet normal 0 0 1
    outer loop
      vertex 77.52 22.878 2
      vertex 64.545 25.135 2
      vertex 70.947 22.878 2
    endloop
  endfacet
  facet normal 0 0 1
    outer loop
      vertex 79.101 24.288 2
      vertex 64.545 25.135 2
      vertex 77.52 22.878 2
    endloop
  endfacet
  facet normal 0 0 1
    outer loop
      vertex 80.68 25.699 2
      vertex 0 29.846 2
      vertex 79.101 24.288 2
    endloop
  endfacet
  facet normal 0 0 1
    outer loop
      vertex 97.803 25.699 2
      vertex 0 29.846 2
      vertex 80.68 25.699 2
    endloop
  endfacet
  facet normal 0 0 1
    outer loop
      vertex 166.157 27.471 2
      vertex 0 29.846 2
      vertex 97.803 25.699 2
    endloop
  endfacet
  facet normal 0 0 1
    outer loop
      vertex 101.104 22.878 2
      vertex 97.803 25.699 2
      vertex 99.439 24.288 2
    endloop
  endfacet
  facet normal 0 0 1
    outer loop
      vertex 120.738 22.878 2
      vertex 97.803 25.699 2
      vertex 101.104 22.878 2
    endloop
  endfacet
  facet normal 0 0 1
    outer loop
      vertex 165.563 21.327 2
      vertex 97.803 25.699 2
      vertex 120.738 22.878 2
    endloop
  endfacet
  facet normal 0 0 1
    outer loop
      vertex 159.582 11.03 2
      vertex 120.738 22.878 2
      vertex 121.189 22.173 2
    endloop
  endfacet
  facet normal 0 0 1
    outer loop
      vertex 159.582 11.03 2
      vertex 121.189 22.173 2
      vertex 121.51 21.478 2
    endloop
  endfacet
  facet normal 0 0 1
    outer loop
      vertex 159.582 11.03 2
      vertex 121.51 21.478 2
      vertex 121.641 20.763 2
    endloop
  endfacet
  facet normal 0 0 1
    outer loop
      vertex 121.056 20.077 2
      vertex 119.195 19.485 2
      vertex 121.44 20.168 2
    endloop
  endfacet
  facet normal 0 0 1
    outer loop
      vertex 121.471 11.03 2
      vertex 121.641 20.763 2
      vertex 121.605 20.38 2
    endloop
  endfacet
  facet normal 0 0 1
    outer loop
      vertex 119.826 17.081 2
      vertex 121.605 20.38 2
      vertex 121.44 20.168 2
    endloop
  endfacet
  facet normal 0 0 1
    outer loop
      vertex 73.12 142.488 2
      vertex 63.529 142.488 2
      vertex 23.187 67.352 2
    endloop
  endfacet
  facet normal 0 0 1
    outer loop
      vertex 119.101 19.888 2
      vertex 121.056 20.077 2
      vertex 120.372 20.057 2
    endloop
  endfacet
  facet normal 0 0 1
    outer loop
      vertex 119.45 18.5 2
      vertex 121.44 20.168 2
      vertex 119.195 19.485 2
    endloop
  endfacet
  facet normal 0 0 1
    outer loop
      vertex 119.826 17.081 2
      vertex 121.44 20.168 2
      vertex 119.45 18.5 2
    endloop
  endfacet
  facet normal 0 0 1
    outer loop
      vertex 120.286 15.375 2
      vertex 121.605 20.38 2
      vertex 119.826 17.081 2
    endloop
  endfacet
  facet normal 0 0 1
    outer loop
      vertex 121.471 11.03 2
      vertex 121.605 20.38 2
      vertex 120.286 15.375 2
    endloop
  endfacet
  facet normal 0 0 1
    outer loop
      vertex 159.582 11.03 2
      vertex 121.641 20.763 2
      vertex 121.471 11.03 2
    endloop
  endfacet
  facet normal 0 0 1
    outer loop
      vertex 164.943 15.431 2
      vertex 120.738 22.878 2
      vertex 159.582 11.03 2
    endloop
  endfacet
  facet normal 0 0 1
    outer loop
      vertex 165.563 21.327 2
      vertex 120.738 22.878 2
      vertex 164.943 15.431 2
    endloop
  endfacet
  facet normal 0 0 1
    outer loop
      vertex 166.157 27.471 2
      vertex 97.803 25.699 2
      vertex 165.563 21.327 2
    endloop
  endfacet
  facet normal 0 0 1
    outer loop
      vertex 166.654 33.435 2
      vertex 0 29.846 2
      vertex 166.157 27.471 2
    endloop
  endfacet
  facet normal 0 0 1
    outer loop
      vertex 167.06 39.342 2
      vertex 0 29.846 2
      vertex 166.654 33.435 2
    endloop
  endfacet
  facet normal 0 0 1
    outer loop
      vertex 167.378 45.309 2
      vertex 0 29.846 2
      vertex 167.06 39.342 2
    endloop
  endfacet
  facet normal 0 0 1
    outer loop
      vertex 167.616 51.457 2
      vertex 0 29.846 2
      vertex 167.378 45.309 2
    endloop
  endfacet
  facet normal 0 0 1
    outer loop
      vertex 167.78 57.907 2
      vertex 0 29.846 2
      vertex 167.616 51.457 2
    endloop
  endfacet
  facet normal 0 0 1
    outer loop
      vertex 167.874 64.777 2
      vertex 0 29.846 2
      vertex 167.78 57.907 2
    endloop
  endfacet
  facet normal 0 0 1
    outer loop
      vertex 167.904 72.189 2
      vertex 0 29.846 2
      vertex 167.874 64.777 2
    endloop
  endfacet
  facet normal 0 0 1
    outer loop
      vertex 167.878 79.476 2
      vertex 0 29.846 2
      vertex 167.904 72.189 2
    endloop
  endfacet
  facet normal 0 0 1
    outer loop
      vertex 167.798 86.101 2
      vertex 0 29.846 2
      vertex 167.878 79.476 2
    endloop
  endfacet
  facet normal 0 0 1
    outer loop
      vertex 167.655 92.231 2
      vertex 0 29.846 2
      vertex 167.798 86.101 2
    endloop
  endfacet
  facet normal 0 0 1
    outer loop
      vertex 167.443 98.027 2
      vertex 0 29.846 2
      vertex 167.655 92.231 2
    endloop
  endfacet
  facet normal 0 0 1
    outer loop
      vertex 167.15 103.652 2
      vertex 0 29.846 2
      vertex 167.443 98.027 2
    endloop
  endfacet
  facet normal 0 0 1
    outer loop
      vertex 166.773 109.269 2
      vertex 0 29.846 2
      vertex 167.15 103.652 2
    endloop
  endfacet
  facet normal 0 0 1
    outer loop
      vertex 166.303 115.042 2
      vertex 0 29.846 2
      vertex 166.773 109.269 2
    endloop
  endfacet
  facet normal 0 0 1
    outer loop
      vertex 165.733 121.132 2
      vertex 0 29.846 2
      vertex 166.303 115.042 2
    endloop
  endfacet
  facet normal 0 0 1
    outer loop
      vertex 164.971 128.947 2
      vertex 0 29.846 2
      vertex 165.733 121.132 2
    endloop
  endfacet
  facet normal 0 0 1
    outer loop
      vertex 162.206 131.203 2
      vertex 0 29.846 2
      vertex 164.971 128.947 2
    endloop
  endfacet
  facet normal 0 0 1
    outer loop
      vertex 159.442 133.46 2
      vertex 0 29.846 2
      vertex 162.206 131.203 2
    endloop
  endfacet
  facet normal 0 0 1
    outer loop
      vertex 122.035 133.46 2
      vertex 0 29.846 2
      vertex 159.442 133.46 2
    endloop
  endfacet
  facet normal 0 0 1
    outer loop
      vertex 120.653 138.482 2
      vertex 0 29.846 2
      vertex 122.035 133.46 2
    endloop
  endfacet
  facet normal 0 0 1
    outer loop
      vertex 120.1 140.491 2
      vertex 0 29.846 2
      vertex 120.653 138.482 2
    endloop
  endfacet
  facet normal 0 0 1
    outer loop
      vertex 119.616 142.28 2
      vertex 0 29.846 2
      vertex 120.1 140.491 2
    endloop
  endfacet
  facet normal 0 0 1
    outer loop
      vertex 119.248 143.651 2
      vertex 0 29.846 2
      vertex 119.616 142.28 2
    endloop
  endfacet
  facet normal 0 0 1
    outer loop
      vertex 119.045 144.406 2
      vertex 0 29.846 2
      vertex 119.248 143.651 2
    endloop
  endfacet
  facet normal 0 0 1
    outer loop
      vertex 118.791 145.308 2
      vertex 0 29.846 2
      vertex 119.045 144.406 2
    endloop
  endfacet
  facet normal 0 0 1
    outer loop
      vertex 23.817 53.603 2
      vertex 0 29.846 2
      vertex 118.791 145.308 2
    endloop
  endfacet
  facet normal 0 0 1
    outer loop
      vertex 23.45 53.25 2
      vertex 22.827 52.777 2
      vertex 0 29.846 2
    endloop
  endfacet
  facet normal 0 0 1
    outer loop
      vertex 23.471 62.513 2
      vertex 23.689 59.502 2
      vertex 89.256 148.13 2
    endloop
  endfacet
  facet normal 0 0 1
    outer loop
      vertex 23.689 59.502 2
      vertex 99.835 146.719 2
      vertex 98.17 148.13 2
    endloop
  endfacet
  facet normal 0 0 1
    outer loop
      vertex 73.12 145.308 2
      vertex 73.12 142.488 2
      vertex 75.179 145.308 2
    endloop
  endfacet
  facet normal 0 0 1
    outer loop
      vertex 55.065 139.667 2
      vertex 22.863 84.763 2
      vertex 22.885 78.66 2
    endloop
  endfacet
  facet normal 0 0 1
    outer loop
      vertex 23.187 67.352 2
      vertex 77.21 145.336 2
      vertex 75.179 145.308 2
    endloop
  endfacet
  facet normal 0 0 1
    outer loop
      vertex 23.611 107.902 2
      vertex 23.301 102.675 2
      vertex 36.08 142.938 2
    endloop
  endfacet
  facet normal 0 0 1
    outer loop
      vertex 55.065 145.308 2
      vertex 55.065 139.667 2
      vertex 63.529 145.308 2
    endloop
  endfacet
  facet normal 0 0 1
    outer loop
      vertex 23.074 96.955 2
      vertex 41.158 144.893 2
      vertex 40.98 145.241 2
    endloop
  endfacet
  facet normal 0 0 1
    outer loop
      vertex 22.885 78.66 2
      vertex 22.993 72.795 2
      vertex 55.065 139.667 2
    endloop
  endfacet
  facet normal 0 0 1
    outer loop
      vertex 22.926 90.923 2
      vertex 22.863 84.763 2
      vertex 41.243 139.667 2
    endloop
  endfacet
  facet normal 0 0 1
    outer loop
      vertex 22.993 72.795 2
      vertex 63.529 142.488 2
      vertex 63.529 145.308 2
    endloop
  endfacet
  facet normal 0 0 1
    outer loop
      vertex 22.993 72.795 2
      vertex 23.187 67.352 2
      vertex 63.529 142.488 2
    endloop
  endfacet
  facet normal 0 0 1
    outer loop
      vertex 23.187 67.352 2
      vertex 78.762 146.719 2
      vertex 77.21 145.336 2
    endloop
  endfacet
  facet normal 0 0 1
    outer loop
      vertex 23.187 67.352 2
      vertex 80.313 148.102 2
      vertex 78.762 146.719 2
    endloop
  endfacet
  facet normal 0 0 1
    outer loop
      vertex 23.074 96.955 2
      vertex 40.651 145.308 2
      vertex 40.113 145.121 2
    endloop
  endfacet
  facet normal 0 0 1
    outer loop
      vertex 23.074 96.955 2
      vertex 40.98 145.241 2
      vertex 40.651 145.308 2
    endloop
  endfacet
  facet normal 0 0 1
    outer loop
      vertex 23.301 102.675 2
      vertex 39.073 144.611 2
      vertex 37.678 143.857 2
    endloop
  endfacet
  facet normal 0 0 1
    outer loop
      vertex 23.301 102.675 2
      vertex 23.074 96.955 2
      vertex 39.073 144.611 2
    endloop
  endfacet
  facet normal 0 0 1
    outer loop
      vertex 23.611 107.902 2
      vertex 36.08 142.938 2
      vertex 33.937 141.619 2
    endloop
  endfacet
  facet normal 0 0 1
    outer loop
      vertex 24.081 114.033 2
      vertex 23.862 111.268 2
      vertex 32.334 140.503 2
    endloop
  endfacet
  facet normal 0 0 1
    outer loop
      vertex 24.292 116.401 2
      vertex 24.081 114.033 2
      vertex 30.953 139.35 2
    endloop
  endfacet
  facet normal 0 0 1
    outer loop
      vertex 26.912 135.295 2
      vertex 26.038 129.511 2
      vertex 29.479 137.918 2
    endloop
  endfacet
  facet normal 0 0 1
    outer loop
      vertex 26.038 129.511 2
      vertex 25.517 126.036 2
      vertex 29.479 137.918 2
    endloop
  endfacet
  facet normal 0 0 1
    outer loop
      vertex 25.517 126.036 2
      vertex 25.107 123.191 2
      vertex 29.479 137.918 2
    endloop
  endfacet
  facet normal 0 0 1
    outer loop
      vertex 25.107 123.191 2
      vertex 24.781 120.775 2
      vertex 29.479 137.918 2
    endloop
  endfacet
  facet normal 0 0 1
    outer loop
      vertex 29.479 137.918 2
      vertex 24.517 118.58 2
      vertex 30.953 139.35 2
    endloop
  endfacet
  facet normal 0 0 1
    outer loop
      vertex 24.517 118.58 2
      vertex 24.292 116.401 2
      vertex 30.953 139.35 2
    endloop
  endfacet
  facet normal 0 0 1
    outer loop
      vertex 30.953 139.35 2
      vertex 24.081 114.033 2
      vertex 32.334 140.503 2
    endloop
  endfacet
  facet normal 0 0 1
    outer loop
      vertex 32.334 140.503 2
      vertex 23.862 111.268 2
      vertex 33.937 141.619 2
    endloop
  endfacet
  facet normal 0 0 1
    outer loop
      vertex 23.862 111.268 2
      vertex 23.611 107.902 2
      vertex 33.937 141.619 2
    endloop
  endfacet
  facet normal 0 0 1
    outer loop
      vertex 36.08 142.938 2
      vertex 23.301 102.675 2
      vertex 37.678 143.857 2
    endloop
  endfacet
  facet normal 0 0 1
    outer loop
      vertex 39.073 144.611 2
      vertex 23.074 96.955 2
      vertex 40.113 145.121 2
    endloop
  endfacet
  facet normal 0 0 1
    outer loop
      vertex 41.243 142.488 2
      vertex 22.926 90.923 2
      vertex 41.243 139.667 2
    endloop
  endfacet
  facet normal 0 0 1
    outer loop
      vertex 24.781 120.775 2
      vertex 24.517 118.58 2
      vertex 29.479 137.918 2
    endloop
  endfacet
  facet normal 0 0 1
    outer loop
      vertex 55.065 139.667 2
      vertex 22.993 72.795 2
      vertex 63.529 145.308 2
    endloop
  endfacet
  facet normal 0 0 1
    outer loop
      vertex 80.313 148.102 2
      vertex 23.471 62.513 2
      vertex 89.256 148.13 2
    endloop
  endfacet
  facet normal 0 0 1
    outer loop
      vertex 9.528 44.34 2
      vertex 7.029 42.515 2
      vertex 0 29.846 2
    endloop
  endfacet
  facet normal 0 0 1
    outer loop
      vertex 89.256 148.13 2
      vertex 23.689 59.502 2
      vertex 98.17 148.13 2
    endloop
  endfacet
  facet normal 0 0 1
    outer loop
      vertex 101.471 145.308 2
      vertex 23.868 56.917 2
      vertex 118.791 145.308 2
    endloop
  endfacet
  facet normal 0 0 1
    outer loop
      vertex 23.868 56.917 2
      vertex 23.989 55.036 2
      vertex 118.791 145.308 2
    endloop
  endfacet
  facet normal 0 0 1
    outer loop
      vertex 23.989 55.036 2
      vertex 24.034 54.135 2
      vertex 118.791 145.308 2
    endloop
  endfacet
  facet normal 0 0 1
    outer loop
      vertex 24.034 54.135 2
      vertex 23.99 53.883 2
      vertex 118.791 145.308 2
    endloop
  endfacet
  facet normal 0 0 1
    outer loop
      vertex 23.99 53.883 2
      vertex 23.817 53.603 2
      vertex 118.791 145.308 2
    endloop
  endfacet
  facet normal 0 0 1
    outer loop
      vertex 23.45 53.25 2
      vertex 0 29.846 2
      vertex 23.817 53.603 2
    endloop
  endfacet
  facet normal 0 0 1
    outer loop
      vertex 22.827 52.777 2
      vertex 21.885 52.14 2
      vertex 0 29.846 2
    endloop
  endfacet
  facet normal 0 0 1
    outer loop
      vertex 20.559 51.291 2
      vertex 18.785 50.184 2
      vertex 0 29.846 2
    endloop
  endfacet
  facet normal 0 0 1
    outer loop
      vertex 20.559 51.291 2
      vertex 0 29.846 2
      vertex 21.885 52.14 2
    endloop
  endfacet
  facet normal 0 0 1
    outer loop
      vertex 18.785 50.184 2
      vertex 16.503 48.774 2
      vertex 0 29.846 2
    endloop
  endfacet
  facet normal 0 0 1
    outer loop
      vertex 16.503 48.774 2
      vertex 12.502 46.301 2
      vertex 0 29.846 2
    endloop
  endfacet
  facet normal 0 0 1
    outer loop
      vertex 7.029 42.515 2
      vertex 4.457 40.452 2
      vertex 0 29.846 2
    endloop
  endfacet
  facet normal 0 0 1
    outer loop
      vertex 12.502 46.301 2
      vertex 9.528 44.34 2
      vertex 0 29.846 2
    endloop
  endfacet
  facet normal 0 0 1
    outer loop
      vertex 23.689 59.502 2
      vertex 101.471 145.308 2
      vertex 99.835 146.719 2
    endloop
  endfacet
  facet normal 0 0 1
    outer loop
      vertex 23.689 59.502 2
      vertex 23.868 56.917 2
      vertex 101.471 145.308 2
    endloop
  endfacet
  facet normal 0 0 1
    outer loop
      vertex 23.187 67.352 2
      vertex 75.179 145.308 2
      vertex 73.12 142.488 2
    endloop
  endfacet
  facet normal 0 0 1
    outer loop
      vertex 57.496 20.161 2
      vertex 56.938 20.534 2
      vertex 0 29.846 2
    endloop
  endfacet
  facet normal 0 0 1
    outer loop
      vertex 119.101 19.888 2
      vertex 119.195 19.485 2
      vertex 121.056 20.077 2
    endloop
  endfacet
  facet normal 0 0 1
    outer loop
      vertex 23.074 96.955 2
      vertex 41.23 144.048 2
      vertex 41.158 144.893 2
    endloop
  endfacet
  facet normal 0 0 1
    outer loop
      vertex 23.074 96.955 2
      vertex 41.243 142.488 2
      vertex 41.23 144.048 2
    endloop
  endfacet
  facet normal 0 0 1
    outer loop
      vertex 23.074 96.955 2
      vertex 22.926 90.923 2
      vertex 41.243 142.488 2
    endloop
  endfacet
  facet normal 0 0 1
    outer loop
      vertex 23.187 67.352 2
      vertex 23.471 62.513 2
      vertex 80.313 148.102 2
    endloop
  endfacet
  facet normal 0 0 1
    outer loop
      vertex 4.457 40.452 2
      vertex 0 36.701 2
      vertex 0 29.846 2
    endloop
  endfacet
  facet normal -0.653114 -0.75726 0
    outer loop
      vertex 97.803 25.699 -2
      vertex 99.439 24.288 -2
      vertex 99.439 24.288 2
    endloop
  endfacet
  facet normal -0.653114 -0.75726 0
    outer loop
      vertex 97.803 25.699 2
      vertex 97.803 25.699 -2
      vertex 99.439 24.288 2
    endloop
  endfacet
  facet normal -0.745409 -0.666608 0
    outer loop
      vertex 5.727 23.442 -2
      vertex 5.727 23.442 2
      vertex 0 29.846 -2
    endloop
  endfacet
  facet normal -0.745409 -0.666608 0
    outer loop
      vertex 0 29.846 -2
      vertex 5.727 23.442 2
      vertex 0 29.846 2
    endloop
  endfacet
  facet normal -1 0 0
    outer loop
      vertex 0 29.846 2
      vertex 0 36.701 2
      vertex 0 29.846 -2
    endloop
  endfacet
  facet normal -1 0 0
    outer loop
      vertex 0 29.846 -2
      vertex 0 36.701 2
      vertex 0 36.701 -2
    endloop
  endfacet
  facet normal -0.740325 -0.672249 0
    outer loop
      vertex 8.176 20.745 -2
      vertex 8.176 20.745 2
      vertex 5.727 23.442 -2
    endloop
  endfacet
  facet normal -0.740325 -0.672249 0
    outer loop
      vertex 5.727 23.442 -2
      vertex 8.176 20.745 2
      vertex 5.727 23.442 2
    endloop
  endfacet
  facet normal -0.726525 -0.68714 0
    outer loop
      vertex 10.13 18.679 -2
      vertex 10.13 18.679 2
      vertex 8.176 20.745 -2
    endloop
  endfacet
  facet normal -0.726525 -0.68714 0
    outer loop
      vertex 8.176 20.745 -2
      vertex 10.13 18.679 2
      vertex 8.176 20.745 2
    endloop
  endfacet
  facet normal -0.700019 -0.714124 0
    outer loop
      vertex 10.13 18.679 -2
      vertex 11.497 17.339 -2
      vertex 11.497 17.339 2
    endloop
  endfacet
  facet normal -0.700019 -0.714124 0
    outer loop
      vertex 10.13 18.679 2
      vertex 10.13 18.679 -2
      vertex 11.497 17.339 2
    endloop
  endfacet
  facet normal -0.606078 -0.795405 0
    outer loop
      vertex 11.497 17.339 -2
      vertex 12.186 16.814 -2
      vertex 12.186 16.814 2
    endloop
  endfacet
  facet normal -0.606078 -0.795405 0
    outer loop
      vertex 11.497 17.339 2
      vertex 11.497 17.339 -2
      vertex 12.186 16.814 2
    endloop
  endfacet
  facet normal -0.329372 -0.9442 0
    outer loop
      vertex 12.186 16.814 -2
      vertex 12.874 16.574 -2
      vertex 12.874 16.574 2
    endloop
  endfacet
  facet normal -0.329372 -0.9442 0
    outer loop
      vertex 12.186 16.814 2
      vertex 12.186 16.814 -2
      vertex 12.874 16.574 2
    endloop
  endfacet
  facet normal -0.372463 -0.928047 0
    outer loop
      vertex 12.874 16.574 -2
      vertex 14.217 16.035 -2
      vertex 14.217 16.035 2
    endloop
  endfacet
  facet normal -0.372463 -0.928047 0
    outer loop
      vertex 12.874 16.574 2
      vertex 12.874 16.574 -2
      vertex 14.217 16.035 2
    endloop
  endfacet
  facet normal -0.386209 -0.922411 0
    outer loop
      vertex 14.217 16.035 -2
      vertex 16.025 15.278 -2
      vertex 16.025 15.278 2
    endloop
  endfacet
  facet normal -0.386209 -0.922411 0
    outer loop
      vertex 14.217 16.035 2
      vertex 14.217 16.035 -2
      vertex 16.025 15.278 2
    endloop
  endfacet
  facet normal -0.392961 -0.919555 0
    outer loop
      vertex 16.025 15.278 -2
      vertex 18.11 14.387 -2
      vertex 18.11 14.387 2
    endloop
  endfacet
  facet normal -0.392961 -0.919555 0
    outer loop
      vertex 16.025 15.278 2
      vertex 16.025 15.278 -2
      vertex 18.11 14.387 2
    endloop
  endfacet
  facet normal -0.390933 -0.920419 0
    outer loop
      vertex 18.11 14.387 -2
      vertex 23.358 12.158 -2
      vertex 23.358 12.158 2
    endloop
  endfacet
  facet normal -0.390933 -0.920419 0
    outer loop
      vertex 18.11 14.387 2
      vertex 18.11 14.387 -2
      vertex 23.358 12.158 2
    endloop
  endfacet
  facet normal -0.694055 -0.719922 0
    outer loop
      vertex 23.358 12.158 -2
      vertex 29.648 6.094 -2
      vertex 29.648 6.094 2
    endloop
  endfacet
  facet normal -0.694055 -0.719922 0
    outer loop
      vertex 23.358 12.158 2
      vertex 23.358 12.158 -2
      vertex 29.648 6.094 2
    endloop
  endfacet
  facet normal -0.695771 -0.718263 0
    outer loop
      vertex 29.648 6.094 -2
      vertex 35.939 0 -2
      vertex 35.939 0 2
    endloop
  endfacet
  facet normal -0.695771 -0.718263 0
    outer loop
      vertex 29.648 6.094 2
      vertex 29.648 6.094 -2
      vertex 35.939 0 2
    endloop
  endfacet
  facet normal 0.0236287 -0.999721 0
    outer loop
      vertex 35.939 0 -2
      vertex 39.493 0.084 -2
      vertex 39.493 0.084 2
    endloop
  endfacet
  facet normal 0.0236287 -0.999721 0
    outer loop
      vertex 35.939 0 2
      vertex 35.939 0 -2
      vertex 39.493 0.084 2
    endloop
  endfacet
  facet normal 0.0239032 -0.999714 0
    outer loop
      vertex 39.493 0.084 -2
      vertex 43.048 0.169 -2
      vertex 43.048 0.169 2
    endloop
  endfacet
  facet normal 0.0239032 -0.999714 0
    outer loop
      vertex 39.493 0.084 2
      vertex 39.493 0.084 -2
      vertex 43.048 0.169 2
    endloop
  endfacet
  facet normal 0.740913 -0.671601 0
    outer loop
      vertex 43.048 0.169 -2
      vertex 47.166 4.712 -2
      vertex 47.166 4.712 2
    endloop
  endfacet
  facet normal 0.740913 -0.671601 0
    outer loop
      vertex 43.048 0.169 2
      vertex 43.048 0.169 -2
      vertex 47.166 4.712 2
    endloop
  endfacet
  facet normal 0.747333 -0.664449 0
    outer loop
      vertex 47.166 4.712 -2
      vertex 49.098 6.885 -2
      vertex 49.098 6.885 2
    endloop
  endfacet
  facet normal 0.747333 -0.664449 0
    outer loop
      vertex 47.166 4.712 2
      vertex 47.166 4.712 -2
      vertex 49.098 6.885 2
    endloop
  endfacet
  facet normal 0.7565 -0.653993 0
    outer loop
      vertex 49.098 6.885 -2
      vertex 51.331 9.468 -2
      vertex 51.331 9.468 2
    endloop
  endfacet
  facet normal 0.7565 -0.653993 0
    outer loop
      vertex 49.098 6.885 2
      vertex 49.098 6.885 -2
      vertex 51.331 9.468 2
    endloop
  endfacet
  facet normal 0.764177 -0.645007 0
    outer loop
      vertex 51.331 9.468 -2
      vertex 53.588 12.142 -2
      vertex 53.588 12.142 2
    endloop
  endfacet
  facet normal 0.764177 -0.645007 0
    outer loop
      vertex 51.331 9.468 2
      vertex 51.331 9.468 -2
      vertex 53.588 12.142 2
    endloop
  endfacet
  facet normal 0.771629 -0.636073 0
    outer loop
      vertex 53.588 12.142 -2
      vertex 55.601 14.584 -2
      vertex 55.601 14.584 2
    endloop
  endfacet
  facet normal 0.771629 -0.636073 0
    outer loop
      vertex 53.588 12.142 2
      vertex 53.588 12.142 -2
      vertex 55.601 14.584 2
    endloop
  endfacet
  facet normal 0.775148 -0.63178 0
    outer loop
      vertex 55.601 14.584 -2
      vertex 59.946 19.915 -2
      vertex 59.946 19.915 2
    endloop
  endfacet
  facet normal 0.775148 -0.63178 0
    outer loop
      vertex 55.601 14.584 2
      vertex 55.601 14.584 -2
      vertex 59.946 19.915 2
    endloop
  endfacet
  facet normal 0.0596986 0.998216 0
    outer loop
      vertex 58.508 20.001 2
      vertex 59.946 19.915 2
      vertex 58.508 20.001 -2
    endloop
  endfacet
  facet normal 0.0596986 0.998216 0
    outer loop
      vertex 58.508 20.001 -2
      vertex 59.946 19.915 2
      vertex 59.946 19.915 -2
    endloop
  endfacet
  facet normal 0.156163 0.987731 0
    outer loop
      vertex 57.496 20.161 2
      vertex 58.508 20.001 2
      vertex 57.496 20.161 -2
    endloop
  endfacet
  facet normal 0.156163 0.987731 0
    outer loop
      vertex 57.496 20.161 -2
      vertex 58.508 20.001 2
      vertex 58.508 20.001 -2
    endloop
  endfacet
  facet normal 0.555731 0.831362 0
    outer loop
      vertex 56.938 20.534 2
      vertex 57.496 20.161 2
      vertex 56.938 20.534 -2
    endloop
  endfacet
  facet normal 0.555731 0.831362 0
    outer loop
      vertex 56.938 20.534 -2
      vertex 57.496 20.161 2
      vertex 57.496 20.161 -2
    endloop
  endfacet
  facet normal 0.974917 0.222569 0
    outer loop
      vertex 56.796 21.156 -2
      vertex 56.796 21.156 2
      vertex 56.938 20.534 2
    endloop
  endfacet
  facet normal 0.974917 0.222569 0
    outer loop
      vertex 56.938 20.534 -2
      vertex 56.796 21.156 -2
      vertex 56.938 20.534 2
    endloop
  endfacet
  facet normal 0.965451 -0.260586 0
    outer loop
      vertex 56.796 21.156 -2
      vertex 57.04 22.06 -2
      vertex 57.04 22.06 2
    endloop
  endfacet
  facet normal 0.965451 -0.260586 0
    outer loop
      vertex 56.796 21.156 2
      vertex 56.796 21.156 -2
      vertex 57.04 22.06 2
    endloop
  endfacet
  facet normal 0.893672 -0.448721 0
    outer loop
      vertex 57.04 22.06 -2
      vertex 57.278 22.534 -2
      vertex 57.278 22.534 2
    endloop
  endfacet
  facet normal 0.893672 -0.448721 0
    outer loop
      vertex 57.04 22.06 2
      vertex 57.04 22.06 -2
      vertex 57.278 22.534 2
    endloop
  endfacet
  facet normal 0.53918 -0.84219 0
    outer loop
      vertex 57.278 22.534 -2
      vertex 57.656 22.776 -2
      vertex 57.656 22.776 2
    endloop
  endfacet
  facet normal 0.53918 -0.84219 0
    outer loop
      vertex 57.278 22.534 2
      vertex 57.278 22.534 -2
      vertex 57.656 22.776 2
    endloop
  endfacet
  facet normal 0.115207 -0.993341 0
    outer loop
      vertex 57.656 22.776 -2
      vertex 58.432 22.866 -2
      vertex 58.432 22.866 2
    endloop
  endfacet
  facet normal 0.115207 -0.993341 0
    outer loop
      vertex 57.656 22.776 2
      vertex 57.656 22.776 -2
      vertex 58.432 22.866 2
    endloop
  endfacet
  facet normal 0.00839718 -0.999965 0
    outer loop
      vertex 58.432 22.866 -2
      vertex 59.861 22.878 -2
      vertex 59.861 22.878 2
    endloop
  endfacet
  facet normal 0.00839718 -0.999965 0
    outer loop
      vertex 58.432 22.866 2
      vertex 58.432 22.866 -2
      vertex 59.861 22.878 2
    endloop
  endfacet
  facet normal 0 -1 0
    outer loop
      vertex 59.861 22.878 -2
      vertex 62.344 22.878 -2
      vertex 62.344 22.878 2
    endloop
  endfacet
  facet normal 0 -1 0
    outer loop
      vertex 59.861 22.878 2
      vertex 59.861 22.878 -2
      vertex 62.344 22.878 2
    endloop
  endfacet
  facet normal 0.781274 -0.624189 0
    outer loop
      vertex 62.344 22.878 -2
      vertex 63.246 24.007 -2
      vertex 63.246 24.007 2
    endloop
  endfacet
  facet normal 0.781274 -0.624189 0
    outer loop
      vertex 62.344 22.878 2
      vertex 62.344 22.878 -2
      vertex 63.246 24.007 2
    endloop
  endfacet
  facet normal 0.730964 -0.682416 0
    outer loop
      vertex 63.246 24.007 -2
      vertex 63.991 24.805 -2
      vertex 63.991 24.805 2
    endloop
  endfacet
  facet normal 0.730964 -0.682416 0
    outer loop
      vertex 63.246 24.007 2
      vertex 63.246 24.007 -2
      vertex 63.991 24.805 2
    endloop
  endfacet
  facet normal 0.511756 -0.859131 0
    outer loop
      vertex 63.991 24.805 -2
      vertex 64.545 25.135 -2
      vertex 64.545 25.135 2
    endloop
  endfacet
  facet normal 0.511756 -0.859131 0
    outer loop
      vertex 63.991 24.805 2
      vertex 63.991 24.805 -2
      vertex 64.545 25.135 2
    endloop
  endfacet
  facet normal -0.599051 -0.800711 0
    outer loop
      vertex 64.545 25.135 -2
      vertex 64.815 24.933 -2
      vertex 64.815 24.933 2
    endloop
  endfacet
  facet normal -0.599051 -0.800711 0
    outer loop
      vertex 64.545 25.135 2
      vertex 64.545 25.135 -2
      vertex 64.815 24.933 2
    endloop
  endfacet
  facet normal -0.966509 -0.256632 0
    outer loop
      vertex 64.939 24.466 -2
      vertex 64.939 24.466 2
      vertex 64.815 24.933 -2
    endloop
  endfacet
  facet normal -0.966509 -0.256632 0
    outer loop
      vertex 64.815 24.933 -2
      vertex 64.939 24.466 2
      vertex 64.815 24.933 2
    endloop
  endfacet
  facet normal -0.995956 0.0898463 0
    outer loop
      vertex 64.892 23.945 2
      vertex 64.939 24.466 2
      vertex 64.892 23.945 -2
    endloop
  endfacet
  facet normal -0.995956 0.0898463 0
    outer loop
      vertex 64.892 23.945 -2
      vertex 64.939 24.466 2
      vertex 64.939 24.466 -2
    endloop
  endfacet
  facet normal -0.83701 0.547187 0
    outer loop
      vertex 64.656 23.584 2
      vertex 64.892 23.945 2
      vertex 64.656 23.584 -2
    endloop
  endfacet
  facet normal -0.83701 0.547187 0
    outer loop
      vertex 64.656 23.584 -2
      vertex 64.892 23.945 2
      vertex 64.892 23.945 -2
    endloop
  endfacet
  facet normal -0.801384 0.598151 0
    outer loop
      vertex 64.397 23.237 2
      vertex 64.656 23.584 2
      vertex 64.397 23.237 -2
    endloop
  endfacet
  facet normal -0.801384 0.598151 0
    outer loop
      vertex 64.397 23.237 -2
      vertex 64.656 23.584 2
      vertex 64.656 23.584 -2
    endloop
  endfacet
  facet normal -0.264561 -0.964369 0
    outer loop
      vertex 64.397 23.237 -2
      vertex 65.188 23.02 -2
      vertex 65.188 23.02 2
    endloop
  endfacet
  facet normal -0.264561 -0.964369 0
    outer loop
      vertex 64.397 23.237 2
      vertex 64.397 23.237 -2
      vertex 65.188 23.02 2
    endloop
  endfacet
  facet normal -0.0523839 -0.998627 0
    outer loop
      vertex 65.188 23.02 -2
      vertex 67.285 22.91 -2
      vertex 67.285 22.91 2
    endloop
  endfacet
  facet normal -0.0523839 -0.998627 0
    outer loop
      vertex 65.188 23.02 2
      vertex 65.188 23.02 -2
      vertex 67.285 22.91 2
    endloop
  endfacet
  facet normal -0.00873806 -0.999962 0
    outer loop
      vertex 67.285 22.91 -2
      vertex 70.947 22.878 -2
      vertex 70.947 22.878 2
    endloop
  endfacet
  facet normal -0.00873806 -0.999962 0
    outer loop
      vertex 67.285 22.91 2
      vertex 67.285 22.91 -2
      vertex 70.947 22.878 2
    endloop
  endfacet
  facet normal 0 -1 0
    outer loop
      vertex 70.947 22.878 -2
      vertex 77.52 22.878 -2
      vertex 77.52 22.878 2
    endloop
  endfacet
  facet normal 0 -1 0
    outer loop
      vertex 70.947 22.878 2
      vertex 70.947 22.878 -2
      vertex 77.52 22.878 2
    endloop
  endfacet
  facet normal -0.64625 -0.763125 0
    outer loop
      vertex 99.439 24.288 -2
      vertex 101.104 22.878 -2
      vertex 101.104 22.878 2
    endloop
  endfacet
  facet normal -0.64625 -0.763125 0
    outer loop
      vertex 99.439 24.288 2
      vertex 99.439 24.288 -2
      vertex 101.104 22.878 2
    endloop
  endfacet
  facet normal 0 -1 0
    outer loop
      vertex 101.104 22.878 -2
      vertex 120.738 22.878 -2
      vertex 120.738 22.878 2
    endloop
  endfacet
  facet normal 0 -1 0
    outer loop
      vertex 101.104 22.878 2
      vertex 101.104 22.878 -2
      vertex 120.738 22.878 2
    endloop
  endfacet
  facet normal -0.84238 -0.538884 0
    outer loop
      vertex 121.189 22.173 -2
      vertex 121.189 22.173 2
      vertex 120.738 22.878 -2
    endloop
  endfacet
  facet normal -0.84238 -0.538884 0
    outer loop
      vertex 120.738 22.878 -2
      vertex 121.189 22.173 2
      vertex 120.738 22.878 2
    endloop
  endfacet
  facet normal -0.907845 -0.419307 0
    outer loop
      vertex 121.51 21.478 -2
      vertex 121.51 21.478 2
      vertex 121.189 22.173 -2
    endloop
  endfacet
  facet normal -0.907845 -0.419307 0
    outer loop
      vertex 121.189 22.173 -2
      vertex 121.51 21.478 2
      vertex 121.189 22.173 2
    endloop
  endfacet
  facet normal -0.983627 -0.180217 0
    outer loop
      vertex 121.641 20.763 -2
      vertex 121.641 20.763 2
      vertex 121.51 21.478 -2
    endloop
  endfacet
  facet normal -0.983627 -0.180217 0
    outer loop
      vertex 121.51 21.478 -2
      vertex 121.641 20.763 2
      vertex 121.51 21.478 2
    endloop
  endfacet
  facet normal -0.995612 0.0935823 0
    outer loop
      vertex 121.605 20.38 2
      vertex 121.641 20.763 2
      vertex 121.605 20.38 -2
    endloop
  endfacet
  facet normal -0.995612 0.0935823 0
    outer loop
      vertex 121.605 20.38 -2
      vertex 121.641 20.763 2
      vertex 121.641 20.763 -2
    endloop
  endfacet
  facet normal -0.789152 0.614198 0
    outer loop
      vertex 121.44 20.168 2
      vertex 121.605 20.38 2
      vertex 121.44 20.168 -2
    endloop
  endfacet
  facet normal -0.789152 0.614198 0
    outer loop
      vertex 121.44 20.168 -2
      vertex 121.605 20.38 2
      vertex 121.605 20.38 -2
    endloop
  endfacet
  facet normal -0.230593 0.97305 0
    outer loop
      vertex 121.056 20.077 2
      vertex 121.44 20.168 2
      vertex 121.056 20.077 -2
    endloop
  endfacet
  facet normal -0.230593 0.97305 0
    outer loop
      vertex 121.056 20.077 -2
      vertex 121.44 20.168 2
      vertex 121.44 20.168 -2
    endloop
  endfacet
  facet normal -0.0292273 0.999573 0
    outer loop
      vertex 120.372 20.057 2
      vertex 121.056 20.077 2
      vertex 120.372 20.057 -2
    endloop
  endfacet
  facet normal -0.0292273 0.999573 0
    outer loop
      vertex 120.372 20.057 -2
      vertex 121.056 20.077 2
      vertex 121.056 20.077 -2
    endloop
  endfacet
  facet normal -0.0576816 0.998335 0
    outer loop
      vertex 119.472 20.005 2
      vertex 120.372 20.057 2
      vertex 119.472 20.005 -2
    endloop
  endfacet
  facet normal -0.0576816 0.998335 0
    outer loop
      vertex 119.472 20.005 -2
      vertex 120.372 20.057 2
      vertex 120.372 20.057 -2
    endloop
  endfacet
  facet normal -0.300762 0.953699 0
    outer loop
      vertex 119.101 19.888 2
      vertex 119.472 20.005 2
      vertex 119.101 19.888 -2
    endloop
  endfacet
  facet normal -0.300762 0.953699 0
    outer loop
      vertex 119.101 19.888 -2
      vertex 119.472 20.005 2
      vertex 119.472 20.005 -2
    endloop
  endfacet
  facet normal -0.973859 -0.227153 0
    outer loop
      vertex 119.195 19.485 -2
      vertex 119.195 19.485 2
      vertex 119.101 19.888 -2
    endloop
  endfacet
  facet normal -0.973859 -0.227153 0
    outer loop
      vertex 119.101 19.888 -2
      vertex 119.195 19.485 2
      vertex 119.101 19.888 2
    endloop
  endfacet
  facet normal -0.968085 -0.250621 0
    outer loop
      vertex 119.45 18.5 -2
      vertex 119.45 18.5 2
      vertex 119.195 19.485 -2
    endloop
  endfacet
  facet normal -0.968085 -0.250621 0
    outer loop
      vertex 119.195 19.485 -2
      vertex 119.45 18.5 2
      vertex 119.195 19.485 2
    endloop
  endfacet
  facet normal -0.966641 -0.256136 0
    outer loop
      vertex 119.826 17.081 -2
      vertex 119.826 17.081 2
      vertex 119.45 18.5 -2
    endloop
  endfacet
  facet normal -0.966641 -0.256136 0
    outer loop
      vertex 119.45 18.5 -2
      vertex 119.826 17.081 2
      vertex 119.45 18.5 2
    endloop
  endfacet
  facet normal -0.965517 -0.260339 0
    outer loop
      vertex 120.286 15.375 -2
      vertex 120.286 15.375 2
      vertex 119.826 17.081 -2
    endloop
  endfacet
  facet normal -0.965517 -0.260339 0
    outer loop
      vertex 119.826 17.081 -2
      vertex 120.286 15.375 2
      vertex 119.826 17.081 2
    endloop
  endfacet
  facet normal -0.964764 -0.263117 0
    outer loop
      vertex 121.471 11.03 -2
      vertex 121.471 11.03 2
      vertex 120.286 15.375 -2
    endloop
  endfacet
  facet normal -0.964764 -0.263117 0
    outer loop
      vertex 120.286 15.375 -2
      vertex 121.471 11.03 2
      vertex 120.286 15.375 2
    endloop
  endfacet
  facet normal 0 -1 0
    outer loop
      vertex 121.471 11.03 -2
      vertex 159.582 11.03 -2
      vertex 159.582 11.03 2
    endloop
  endfacet
  facet normal 0 -1 0
    outer loop
      vertex 121.471 11.03 2
      vertex 121.471 11.03 -2
      vertex 159.582 11.03 2
    endloop
  endfacet
  facet normal 0.634509 -0.772916 0
    outer loop
      vertex 159.582 11.03 -2
      vertex 164.943 15.431 -2
      vertex 164.943 15.431 2
    endloop
  endfacet
  facet normal 0.634509 -0.772916 0
    outer loop
      vertex 159.582 11.03 2
      vertex 159.582 11.03 -2
      vertex 164.943 15.431 2
    endloop
  endfacet
  facet normal 0.994517 -0.104579 0
    outer loop
      vertex 164.943 15.431 -2
      vertex 165.563 21.327 -2
      vertex 165.563 21.327 2
    endloop
  endfacet
  facet normal 0.994517 -0.104579 0
    outer loop
      vertex 164.943 15.431 2
      vertex 164.943 15.431 -2
      vertex 165.563 21.327 2
    endloop
  endfacet
  facet normal 0.995359 -0.096231 0
    outer loop
      vertex 165.563 21.327 -2
      vertex 166.157 27.471 -2
      vertex 166.157 27.471 2
    endloop
  endfacet
  facet normal 0.995359 -0.096231 0
    outer loop
      vertex 165.563 21.327 2
      vertex 165.563 21.327 -2
      vertex 166.157 27.471 2
    endloop
  endfacet
  facet normal 0.996546 -0.0830455 0
    outer loop
      vertex 166.157 27.471 -2
      vertex 166.654 33.435 -2
      vertex 166.654 33.435 2
    endloop
  endfacet
  facet normal 0.996546 -0.0830455 0
    outer loop
      vertex 166.157 27.471 2
      vertex 166.157 27.471 -2
      vertex 166.654 33.435 2
    endloop
  endfacet
  facet normal 0.997646 -0.0685702 0
    outer loop
      vertex 166.654 33.435 -2
      vertex 167.06 39.342 -2
      vertex 167.06 39.342 2
    endloop
  endfacet
  facet normal 0.997646 -0.0685702 0
    outer loop
      vertex 166.654 33.435 2
      vertex 166.654 33.435 -2
      vertex 167.06 39.342 2
    endloop
  endfacet
  facet normal 0.998583 -0.0532176 0
    outer loop
      vertex 167.06 39.342 -2
      vertex 167.378 45.309 -2
      vertex 167.378 45.309 2
    endloop
  endfacet
  facet normal 0.998583 -0.0532176 0
    outer loop
      vertex 167.06 39.342 2
      vertex 167.06 39.342 -2
      vertex 167.378 45.309 2
    endloop
  endfacet
  facet normal 0.999252 -0.0386828 0
    outer loop
      vertex 167.378 45.309 -2
      vertex 167.616 51.457 -2
      vertex 167.616 51.457 2
    endloop
  endfacet
  facet normal 0.999252 -0.0386828 0
    outer loop
      vertex 167.378 45.309 2
      vertex 167.378 45.309 -2
      vertex 167.616 51.457 2
    endloop
  endfacet
  facet normal 0.999677 -0.0254181 0
    outer loop
      vertex 167.616 51.457 -2
      vertex 167.78 57.907 -2
      vertex 167.78 57.907 2
    endloop
  endfacet
  facet normal 0.999677 -0.0254181 0
    outer loop
      vertex 167.616 51.457 2
      vertex 167.616 51.457 -2
      vertex 167.78 57.907 2
    endloop
  endfacet
  facet normal 0.999906 -0.0136814 0
    outer loop
      vertex 167.78 57.907 -2
      vertex 167.874 64.777 -2
      vertex 167.874 64.777 2
    endloop
  endfacet
  facet normal 0.999906 -0.0136814 0
    outer loop
      vertex 167.78 57.907 2
      vertex 167.78 57.907 -2
      vertex 167.874 64.777 2
    endloop
  endfacet
  facet normal 0.999992 -0.00404746 0
    outer loop
      vertex 167.874 64.777 -2
      vertex 167.904 72.189 -2
      vertex 167.904 72.189 2
    endloop
  endfacet
  facet normal 0.999992 -0.00404746 0
    outer loop
      vertex 167.874 64.777 2
      vertex 167.874 64.777 -2
      vertex 167.904 72.189 2
    endloop
  endfacet
  facet normal 0.999994 0.00356798 0
    outer loop
      vertex 167.878 79.476 -2
      vertex 167.878 79.476 2
      vertex 167.904 72.189 2
    endloop
  endfacet
  facet normal 0.999994 0.00356798 0
    outer loop
      vertex 167.904 72.189 -2
      vertex 167.878 79.476 -2
      vertex 167.904 72.189 2
    endloop
  endfacet
  facet normal 0.999927 0.0120746 0
    outer loop
      vertex 167.798 86.101 -2
      vertex 167.798 86.101 2
      vertex 167.878 79.476 2
    endloop
  endfacet
  facet normal 0.999927 0.0120746 0
    outer loop
      vertex 167.878 79.476 -2
      vertex 167.798 86.101 -2
      vertex 167.878 79.476 2
    endloop
  endfacet
  facet normal 0.999728 0.0233216 0
    outer loop
      vertex 167.655 92.231 -2
      vertex 167.655 92.231 2
      vertex 167.798 86.101 2
    endloop
  endfacet
  facet normal 0.999728 0.0233216 0
    outer loop
      vertex 167.798 86.101 -2
      vertex 167.655 92.231 -2
      vertex 167.798 86.101 2
    endloop
  endfacet
  facet normal 0.999332 0.0365525 0
    outer loop
      vertex 167.443 98.027 -2
      vertex 167.443 98.027 2
      vertex 167.655 92.231 2
    endloop
  endfacet
  facet normal 0.999332 0.0365525 0
    outer loop
      vertex 167.655 92.231 -2
      vertex 167.443 98.027 -2
      vertex 167.655 92.231 2
    endloop
  endfacet
  facet normal 0.998646 0.0520184 0
    outer loop
      vertex 167.15 103.652 -2
      vertex 167.15 103.652 2
      vertex 167.443 98.027 2
    endloop
  endfacet
  facet normal 0.998646 0.0520184 0
    outer loop
      vertex 167.443 98.027 -2
      vertex 167.15 103.652 -2
      vertex 167.443 98.027 2
    endloop
  endfacet
  facet normal 0.997755 0.066967 0
    outer loop
      vertex 166.773 109.269 -2
      vertex 166.773 109.269 2
      vertex 167.15 103.652 2
    endloop
  endfacet
  facet normal 0.997755 0.066967 0
    outer loop
      vertex 167.15 103.652 -2
      vertex 166.773 109.269 -2
      vertex 167.15 103.652 2
    endloop
  endfacet
  facet normal 0.996702 0.081145 0
    outer loop
      vertex 166.303 115.042 -2
      vertex 166.303 115.042 2
      vertex 166.773 109.269 2
    endloop
  endfacet
  facet normal 0.996702 0.081145 0
    outer loop
      vertex 166.773 109.269 -2
      vertex 166.303 115.042 -2
      vertex 166.773 109.269 2
    endloop
  endfacet
  facet normal 0.995648 0.0931888 0
    outer loop
      vertex 165.733 121.132 -2
      vertex 165.733 121.132 2
      vertex 166.303 115.042 2
    endloop
  endfacet
  facet normal 0.995648 0.0931888 0
    outer loop
      vertex 166.303 115.042 -2
      vertex 165.733 121.132 -2
      vertex 166.303 115.042 2
    endloop
  endfacet
  facet normal 0.99528 0.0970446 0
    outer loop
      vertex 164.971 128.947 -2
      vertex 164.971 128.947 2
      vertex 165.733 121.132 2
    endloop
  endfacet
  facet normal 0.99528 0.0970446 0
    outer loop
      vertex 165.733 121.132 -2
      vertex 164.971 128.947 -2
      vertex 165.733 121.132 2
    endloop
  endfacet
  facet normal 0.632184 0.774818 0
    outer loop
      vertex 162.206 131.203 2
      vertex 164.971 128.947 2
      vertex 162.206 131.203 -2
    endloop
  endfacet
  facet normal 0.632184 0.774818 0
    outer loop
      vertex 162.206 131.203 -2
      vertex 164.971 128.947 2
      vertex 164.971 128.947 -2
    endloop
  endfacet
  facet normal 0.63249 0.774569 0
    outer loop
      vertex 159.442 133.46 2
      vertex 162.206 131.203 2
      vertex 159.442 133.46 -2
    endloop
  endfacet
  facet normal 0.63249 0.774569 0
    outer loop
      vertex 159.442 133.46 -2
      vertex 162.206 131.203 2
      vertex 162.206 131.203 -2
    endloop
  endfacet
  facet normal 0 1 0
    outer loop
      vertex 122.035 133.46 2
      vertex 159.442 133.46 2
      vertex 122.035 133.46 -2
    endloop
  endfacet
  facet normal 0 1 0
    outer loop
      vertex 122.035 133.46 -2
      vertex 159.442 133.46 2
      vertex 159.442 133.46 -2
    endloop
  endfacet
  facet normal 0.964159 0.265326 0
    outer loop
      vertex 120.653 138.482 -2
      vertex 120.653 138.482 2
      vertex 122.035 133.46 2
    endloop
  endfacet
  facet normal 0.964159 0.265326 0
    outer loop
      vertex 122.035 133.46 -2
      vertex 120.653 138.482 -2
      vertex 122.035 133.46 2
    endloop
  endfacet
  facet normal 0.964141 0.265391 0
    outer loop
      vertex 120.1 140.491 -2
      vertex 120.1 140.491 2
      vertex 120.653 138.482 2
    endloop
  endfacet
  facet normal 0.964141 0.265391 0
    outer loop
      vertex 120.653 138.482 -2
      vertex 120.1 140.491 -2
      vertex 120.653 138.482 2
    endloop
  endfacet
  facet normal 0.965297 0.261154 0
    outer loop
      vertex 119.616 142.28 -2
      vertex 119.616 142.28 2
      vertex 120.1 140.491 2
    endloop
  endfacet
  facet normal 0.965297 0.261154 0
    outer loop
      vertex 120.1 140.491 -2
      vertex 119.616 142.28 -2
      vertex 120.1 140.491 2
    endloop
  endfacet
  facet normal 0.965813 0.259241 0
    outer loop
      vertex 119.248 143.651 -2
      vertex 119.248 143.651 2
      vertex 119.616 142.28 2
    endloop
  endfacet
  facet normal 0.965813 0.259241 0
    outer loop
      vertex 119.616 142.28 -2
      vertex 119.248 143.651 -2
      vertex 119.616 142.28 2
    endloop
  endfacet
  facet normal 0.965702 0.259652 0
    outer loop
      vertex 119.045 144.406 -2
      vertex 119.045 144.406 2
      vertex 119.248 143.651 2
    endloop
  endfacet
  facet normal 0.965702 0.259652 0
    outer loop
      vertex 119.248 143.651 -2
      vertex 119.045 144.406 -2
      vertex 119.248 143.651 2
    endloop
  endfacet
  facet normal 0.962564 0.271055 0
    outer loop
      vertex 118.791 145.308 -2
      vertex 118.791 145.308 2
      vertex 119.045 144.406 2
    endloop
  endfacet
  facet normal 0.962564 0.271055 0
    outer loop
      vertex 119.045 144.406 -2
      vertex 118.791 145.308 -2
      vertex 119.045 144.406 2
    endloop
  endfacet
  facet normal 0 1 0
    outer loop
      vertex 101.471 145.308 2
      vertex 118.791 145.308 2
      vertex 101.471 145.308 -2
    endloop
  endfacet
  facet normal 0 1 0
    outer loop
      vertex 101.471 145.308 -2
      vertex 118.791 145.308 2
      vertex 118.791 145.308 -2
    endloop
  endfacet
  facet normal 0.653114 0.75726 0
    outer loop
      vertex 99.835 146.719 2
      vertex 101.471 145.308 2
      vertex 99.835 146.719 -2
    endloop
  endfacet
  facet normal 0.653114 0.75726 0
    outer loop
      vertex 99.835 146.719 -2
      vertex 101.471 145.308 2
      vertex 101.471 145.308 -2
    endloop
  endfacet
  facet normal 0.646517 0.762899 0
    outer loop
      vertex 98.17 148.13 2
      vertex 99.835 146.719 2
      vertex 98.17 148.13 -2
    endloop
  endfacet
  facet normal 0.646517 0.762899 0
    outer loop
      vertex 98.17 148.13 -2
      vertex 99.835 146.719 2
      vertex 99.835 146.719 -2
    endloop
  endfacet
  facet normal 0 1 0
    outer loop
      vertex 89.256 148.13 2
      vertex 98.17 148.13 2
      vertex 89.256 148.13 -2
    endloop
  endfacet
  facet normal 0 1 0
    outer loop
      vertex 89.256 148.13 -2
      vertex 98.17 148.13 2
      vertex 98.17 148.13 -2
    endloop
  endfacet
  facet normal -0.00313093 0.999995 0
    outer loop
      vertex 80.313 148.102 2
      vertex 89.256 148.13 2
      vertex 80.313 148.102 -2
    endloop
  endfacet
  facet normal -0.00313093 0.999995 0
    outer loop
      vertex 80.313 148.102 -2
      vertex 89.256 148.13 2
      vertex 89.256 148.13 -2
    endloop
  endfacet
  facet normal -0.665528 0.746373 0
    outer loop
      vertex 78.762 146.719 2
      vertex 80.313 148.102 2
      vertex 78.762 146.719 -2
    endloop
  endfacet
  facet normal -0.665528 0.746373 0
    outer loop
      vertex 78.762 146.719 -2
      vertex 80.313 148.102 2
      vertex 80.313 148.102 -2
    endloop
  endfacet
  facet normal -0.665289 0.746586 0
    outer loop
      vertex 77.21 145.336 2
      vertex 78.762 146.719 2
      vertex 77.21 145.336 -2
    endloop
  endfacet
  facet normal -0.665289 0.746586 0
    outer loop
      vertex 77.21 145.336 -2
      vertex 78.762 146.719 2
      vertex 78.762 146.719 -2
    endloop
  endfacet
  facet normal -0.013785 0.999905 0
    outer loop
      vertex 75.179 145.308 2
      vertex 77.21 145.336 2
      vertex 75.179 145.308 -2
    endloop
  endfacet
  facet normal -0.013785 0.999905 0
    outer loop
      vertex 75.179 145.308 -2
      vertex 77.21 145.336 2
      vertex 77.21 145.336 -2
    endloop
  endfacet
  facet normal 0 1 0
    outer loop
      vertex 73.12 145.308 2
      vertex 75.179 145.308 2
      vertex 73.12 145.308 -2
    endloop
  endfacet
  facet normal 0 1 0
    outer loop
      vertex 73.12 145.308 -2
      vertex 75.179 145.308 2
      vertex 75.179 145.308 -2
    endloop
  endfacet
  facet normal -1 0 0
    outer loop
      vertex 73.12 142.488 2
      vertex 73.12 145.308 2
      vertex 73.12 142.488 -2
    endloop
  endfacet
  facet normal -1 0 0
    outer loop
      vertex 73.12 142.488 -2
      vertex 73.12 145.308 2
      vertex 73.12 145.308 -2
    endloop
  endfacet
  facet normal 0 1 0
    outer loop
      vertex 63.529 142.488 2
      vertex 73.12 142.488 2
      vertex 63.529 142.488 -2
    endloop
  endfacet
  facet normal 0 1 0
    outer loop
      vertex 63.529 142.488 -2
      vertex 73.12 142.488 2
      vertex 73.12 142.488 -2
    endloop
  endfacet
  facet normal 1 0 0
    outer loop
      vertex 63.529 142.488 -2
      vertex 63.529 145.308 -2
      vertex 63.529 145.308 2
    endloop
  endfacet
  facet normal 1 0 0
    outer loop
      vertex 63.529 142.488 2
      vertex 63.529 142.488 -2
      vertex 63.529 145.308 2
    endloop
  endfacet
  facet normal 0 1 0
    outer loop
      vertex 55.065 145.308 2
      vertex 63.529 145.308 2
      vertex 55.065 145.308 -2
    endloop
  endfacet
  facet normal 0 1 0
    outer loop
      vertex 55.065 145.308 -2
      vertex 63.529 145.308 2
      vertex 63.529 145.308 -2
    endloop
  endfacet
  facet normal -1 0 0
    outer loop
      vertex 55.065 139.667 2
      vertex 55.065 145.308 2
      vertex 55.065 139.667 -2
    endloop
  endfacet
  facet normal -1 0 0
    outer loop
      vertex 55.065 139.667 -2
      vertex 55.065 145.308 2
      vertex 55.065 145.308 -2
    endloop
  endfacet
  facet normal 0 1 0
    outer loop
      vertex 41.243 139.667 2
      vertex 55.065 139.667 2
      vertex 41.243 139.667 -2
    endloop
  endfacet
  facet normal 0 1 0
    outer loop
      vertex 41.243 139.667 -2
      vertex 55.065 139.667 2
      vertex 55.065 139.667 -2
    endloop
  endfacet
  facet normal 1 0 0
    outer loop
      vertex 41.243 139.667 -2
      vertex 41.243 142.488 -2
      vertex 41.243 142.488 2
    endloop
  endfacet
  facet normal 1 0 0
    outer loop
      vertex 41.243 139.667 2
      vertex 41.243 139.667 -2
      vertex 41.243 142.488 2
    endloop
  endfacet
  facet normal 0.999965 0.00833304 0
    outer loop
      vertex 41.23 144.048 -2
      vertex 41.23 144.048 2
      vertex 41.243 142.488 2
    endloop
  endfacet
  facet normal 0.999965 0.00833304 0
    outer loop
      vertex 41.243 142.488 -2
      vertex 41.23 144.048 -2
      vertex 41.243 142.488 2
    endloop
  endfacet
  facet normal 0.99639 0.0848995 0
    outer loop
      vertex 41.158 144.893 -2
      vertex 41.158 144.893 2
      vertex 41.23 144.048 2
    endloop
  endfacet
  facet normal 0.99639 0.0848995 0
    outer loop
      vertex 41.23 144.048 -2
      vertex 41.158 144.893 -2
      vertex 41.23 144.048 2
    endloop
  endfacet
  facet normal 0.890296 0.455381 0
    outer loop
      vertex 40.98 145.241 -2
      vertex 40.98 145.241 2
      vertex 41.158 144.893 2
    endloop
  endfacet
  facet normal 0.890296 0.455381 0
    outer loop
      vertex 41.158 144.893 -2
      vertex 40.98 145.241 -2
      vertex 41.158 144.893 2
    endloop
  endfacet
  facet normal 0.199552 0.979887 0
    outer loop
      vertex 40.651 145.308 2
      vertex 40.98 145.241 2
      vertex 40.651 145.308 -2
    endloop
  endfacet
  facet normal 0.199552 0.979887 0
    outer loop
      vertex 40.651 145.308 -2
      vertex 40.98 145.241 2
      vertex 40.98 145.241 -2
    endloop
  endfacet
  facet normal -0.328316 0.944568 0
    outer loop
      vertex 40.113 145.121 2
      vertex 40.651 145.308 2
      vertex 40.113 145.121 -2
    endloop
  endfacet
  facet normal -0.328316 0.944568 0
    outer loop
      vertex 40.113 145.121 -2
      vertex 40.651 145.308 2
      vertex 40.651 145.308 -2
    endloop
  endfacet
  facet normal -0.440294 0.897854 0
    outer loop
      vertex 39.073 144.611 2
      vertex 40.113 145.121 2
      vertex 39.073 144.611 -2
    endloop
  endfacet
  facet normal -0.440294 0.897854 0
    outer loop
      vertex 39.073 144.611 -2
      vertex 40.113 145.121 2
      vertex 40.113 145.121 -2
    endloop
  endfacet
  facet normal -0.475491 0.879721 0
    outer loop
      vertex 37.678 143.857 2
      vertex 39.073 144.611 2
      vertex 37.678 143.857 -2
    endloop
  endfacet
  facet normal -0.475491 0.879721 0
    outer loop
      vertex 37.678 143.857 -2
      vertex 39.073 144.611 2
      vertex 39.073 144.611 -2
    endloop
  endfacet
  facet normal -0.498532 0.866871 0
    outer loop
      vertex 36.08 142.938 2
      vertex 37.678 143.857 2
      vertex 36.08 142.938 -2
    endloop
  endfacet
  facet normal -0.498532 0.866871 0
    outer loop
      vertex 36.08 142.938 -2
      vertex 37.678 143.857 2
      vertex 37.678 143.857 -2
    endloop
  endfacet
  facet normal -0.524164 0.851617 0
    outer loop
      vertex 33.937 141.619 2
      vertex 36.08 142.938 2
      vertex 33.937 141.619 -2
    endloop
  endfacet
  facet normal -0.524164 0.851617 0
    outer loop
      vertex 33.937 141.619 -2
      vertex 36.08 142.938 2
      vertex 36.08 142.938 -2
    endloop
  endfacet
  facet normal -0.571364 0.820696 0
    outer loop
      vertex 32.334 140.503 2
      vertex 33.937 141.619 2
      vertex 32.334 140.503 -2
    endloop
  endfacet
  facet normal -0.571364 0.820696 0
    outer loop
      vertex 32.334 140.503 -2
      vertex 33.937 141.619 2
      vertex 33.937 141.619 -2
    endloop
  endfacet
  facet normal -0.640895 0.767629 0
    outer loop
      vertex 30.953 139.35 2
      vertex 32.334 140.503 2
      vertex 30.953 139.35 -2
    endloop
  endfacet
  facet normal -0.640895 0.767629 0
    outer loop
      vertex 30.953 139.35 -2
      vertex 32.334 140.503 2
      vertex 32.334 140.503 -2
    endloop
  endfacet
  facet normal -0.696814 0.717252 0
    outer loop
      vertex 29.479 137.918 2
      vertex 30.953 139.35 2
      vertex 29.479 137.918 -2
    endloop
  endfacet
  facet normal -0.696814 0.717252 0
    outer loop
      vertex 29.479 137.918 -2
      vertex 30.953 139.35 2
      vertex 30.953 139.35 -2
    endloop
  endfacet
  facet normal -0.714695 0.699436 0
    outer loop
      vertex 26.912 135.295 2
      vertex 29.479 137.918 2
      vertex 26.912 135.295 -2
    endloop
  endfacet
  facet normal -0.714695 0.699436 0
    outer loop
      vertex 26.912 135.295 -2
      vertex 29.479 137.918 2
      vertex 29.479 137.918 -2
    endloop
  endfacet
  facet normal -0.988775 0.14941 0
    outer loop
      vertex 26.038 129.511 2
      vertex 26.912 135.295 2
      vertex 26.038 129.511 -2
    endloop
  endfacet
  facet normal -0.988775 0.14941 0
    outer loop
      vertex 26.038 129.511 -2
      vertex 26.912 135.295 2
      vertex 26.912 135.295 -2
    endloop
  endfacet
  facet normal -0.988947 0.148271 0
    outer loop
      vertex 25.517 126.036 2
      vertex 26.038 129.511 2
      vertex 25.517 126.036 -2
    endloop
  endfacet
  facet normal -0.988947 0.148271 0
    outer loop
      vertex 25.517 126.036 -2
      vertex 26.038 129.511 2
      vertex 26.038 129.511 -2
    endloop
  endfacet
  facet normal -0.989775 0.142639 0
    outer loop
      vertex 25.107 123.191 2
      vertex 25.517 126.036 2
      vertex 25.107 123.191 -2
    endloop
  endfacet
  facet normal -0.989775 0.142639 0
    outer loop
      vertex 25.107 123.191 -2
      vertex 25.517 126.036 2
      vertex 25.517 126.036 -2
    endloop
  endfacet
  facet normal -0.991019 0.133722 0
    outer loop
      vertex 24.781 120.775 2
      vertex 25.107 123.191 2
      vertex 24.781 120.775 -2
    endloop
  endfacet
  facet normal -0.991019 0.133722 0
    outer loop
      vertex 24.781 120.775 -2
      vertex 25.107 123.191 2
      vertex 25.107 123.191 -2
    endloop
  endfacet
  facet normal -0.992845 0.119413 0
    outer loop
      vertex 24.517 118.58 2
      vertex 24.781 120.775 2
      vertex 24.517 118.58 -2
    endloop
  endfacet
  facet normal -0.992845 0.119413 0
    outer loop
      vertex 24.517 118.58 -2
      vertex 24.781 120.775 2
      vertex 24.781 120.775 -2
    endloop
  endfacet
  facet normal -0.994711 0.102712 0
    outer loop
      vertex 24.292 116.401 2
      vertex 24.517 118.58 2
      vertex 24.292 116.401 -2
    endloop
  endfacet
  facet normal -0.994711 0.102712 0
    outer loop
      vertex 24.292 116.401 -2
      vertex 24.517 118.58 2
      vertex 24.517 118.58 -2
    endloop
  endfacet
  facet normal -0.996054 0.0887531 0
    outer loop
      vertex 24.081 114.033 2
      vertex 24.292 116.401 2
      vertex 24.081 114.033 -2
    endloop
  endfacet
  facet normal -0.996054 0.0887531 0
    outer loop
      vertex 24.081 114.033 -2
      vertex 24.292 116.401 2
      vertex 24.292 116.401 -2
    endloop
  endfacet
  facet normal -0.996878 0.0789571 0
    outer loop
      vertex 23.862 111.268 2
      vertex 24.081 114.033 2
      vertex 23.862 111.268 -2
    endloop
  endfacet
  facet normal -0.996878 0.0789571 0
    outer loop
      vertex 23.862 111.268 -2
      vertex 24.081 114.033 2
      vertex 24.081 114.033 -2
    endloop
  endfacet
  facet normal -0.997231 0.0743628 0
    outer loop
      vertex 23.611 107.902 2
      vertex 23.862 111.268 2
      vertex 23.611 107.902 -2
    endloop
  endfacet
  facet normal -0.997231 0.0743628 0
    outer loop
      vertex 23.611 107.902 -2
      vertex 23.862 111.268 2
      vertex 23.862 111.268 -2
    endloop
  endfacet
  facet normal -0.998246 0.0592034 0
    outer loop
      vertex 23.301 102.675 2
      vertex 23.611 107.902 2
      vertex 23.301 102.675 -2
    endloop
  endfacet
  facet normal -0.998246 0.0592034 0
    outer loop
      vertex 23.301 102.675 -2
      vertex 23.611 107.902 2
      vertex 23.611 107.902 -2
    endloop
  endfacet
  facet normal -0.999213 0.0396541 0
    outer loop
      vertex 23.074 96.955 2
      vertex 23.301 102.675 2
      vertex 23.074 96.955 -2
    endloop
  endfacet
  facet normal -0.999213 0.0396541 0
    outer loop
      vertex 23.074 96.955 -2
      vertex 23.301 102.675 2
      vertex 23.301 102.675 -2
    endloop
  endfacet
  facet normal -0.999699 0.0245284 0
    outer loop
      vertex 22.926 90.923 2
      vertex 23.074 96.955 2
      vertex 22.926 90.923 -2
    endloop
  endfacet
  facet normal -0.999699 0.0245284 0
    outer loop
      vertex 22.926 90.923 -2
      vertex 23.074 96.955 2
      vertex 23.074 96.955 -2
    endloop
  endfacet
  facet normal -0.999948 0.0102267 0
    outer loop
      vertex 22.863 84.763 2
      vertex 22.926 90.923 2
      vertex 22.863 84.763 -2
    endloop
  endfacet
  facet normal -0.999948 0.0102267 0
    outer loop
      vertex 22.863 84.763 -2
      vertex 22.926 90.923 2
      vertex 22.926 90.923 -2
    endloop
  endfacet
  facet normal -0.999994 -0.00360476 0
    outer loop
      vertex 22.885 78.66 -2
      vertex 22.885 78.66 2
      vertex 22.863 84.763 -2
    endloop
  endfacet
  facet normal -0.999994 -0.00360476 0
    outer loop
      vertex 22.863 84.763 -2
      vertex 22.885 78.66 2
      vertex 22.863 84.763 2
    endloop
  endfacet
  facet normal -0.99983 -0.0184112 0
    outer loop
      vertex 22.993 72.795 -2
      vertex 22.993 72.795 2
      vertex 22.885 78.66 -2
    endloop
  endfacet
  facet normal -0.99983 -0.0184112 0
    outer loop
      vertex 22.885 78.66 -2
      vertex 22.993 72.795 2
      vertex 22.885 78.66 2
    endloop
  endfacet
  facet normal -0.999365 -0.0356195 0
    outer loop
      vertex 23.187 67.352 -2
      vertex 23.187 67.352 2
      vertex 22.993 72.795 -2
    endloop
  endfacet
  facet normal -0.999365 -0.0356195 0
    outer loop
      vertex 22.993 72.795 -2
      vertex 23.187 67.352 2
      vertex 22.993 72.795 2
    endloop
  endfacet
  facet normal -0.998282 -0.058589 0
    outer loop
      vertex 23.471 62.513 -2
      vertex 23.471 62.513 2
      vertex 23.187 67.352 -2
    endloop
  endfacet
  facet normal -0.998282 -0.058589 0
    outer loop
      vertex 23.187 67.352 -2
      vertex 23.471 62.513 2
      vertex 23.187 67.352 2
    endloop
  endfacet
  facet normal -0.997389 -0.0722122 0
    outer loop
      vertex 23.689 59.502 -2
      vertex 23.689 59.502 2
      vertex 23.471 62.513 -2
    endloop
  endfacet
  facet normal -0.997389 -0.0722122 0
    outer loop
      vertex 23.471 62.513 -2
      vertex 23.689 59.502 2
      vertex 23.471 62.513 2
    endloop
  endfacet
  facet normal -0.997611 -0.0690802 0
    outer loop
      vertex 23.868 56.917 -2
      vertex 23.868 56.917 2
      vertex 23.689 59.502 -2
    endloop
  endfacet
  facet normal -0.997611 -0.0690802 0
    outer loop
      vertex 23.689 59.502 -2
      vertex 23.868 56.917 2
      vertex 23.689 59.502 2
    endloop
  endfacet
  facet normal -0.997937 -0.0641948 0
    outer loop
      vertex 23.989 55.036 -2
      vertex 23.989 55.036 2
      vertex 23.868 56.917 -2
    endloop
  endfacet
  facet normal -0.997937 -0.0641948 0
    outer loop
      vertex 23.868 56.917 -2
      vertex 23.989 55.036 2
      vertex 23.868 56.917 2
    endloop
  endfacet
  facet normal -0.998755 -0.0498823 0
    outer loop
      vertex 24.034 54.135 -2
      vertex 24.034 54.135 2
      vertex 23.989 55.036 -2
    endloop
  endfacet
  facet normal -0.998755 -0.0498823 0
    outer loop
      vertex 23.989 55.036 -2
      vertex 24.034 54.135 2
      vertex 23.989 55.036 2
    endloop
  endfacet
  facet normal -0.985097 0.172001 0
    outer loop
      vertex 23.99 53.883 2
      vertex 24.034 54.135 2
      vertex 23.99 53.883 -2
    endloop
  endfacet
  facet normal -0.985097 0.172001 0
    outer loop
      vertex 23.99 53.883 -2
      vertex 24.034 54.135 2
      vertex 24.034 54.135 -2
    endloop
  endfacet
  facet normal -0.850718 0.525622 0
    outer loop
      vertex 23.817 53.603 2
      vertex 23.99 53.883 2
      vertex 23.817 53.603 -2
    endloop
  endfacet
  facet normal -0.850718 0.525622 0
    outer loop
      vertex 23.817 53.603 -2
      vertex 23.99 53.883 2
      vertex 23.99 53.883 -2
    endloop
  endfacet
  facet normal -0.693226 0.72072 0
    outer loop
      vertex 23.45 53.25 2
      vertex 23.817 53.603 2
      vertex 23.45 53.25 -2
    endloop
  endfacet
  facet normal -0.693226 0.72072 0
    outer loop
      vertex 23.45 53.25 -2
      vertex 23.817 53.603 2
      vertex 23.817 53.603 -2
    endloop
  endfacet
  facet normal -0.604694 0.796458 0
    outer loop
      vertex 22.827 52.777 2
      vertex 23.45 53.25 2
      vertex 22.827 52.777 -2
    endloop
  endfacet
  facet normal -0.604694 0.796458 0
    outer loop
      vertex 22.827 52.777 -2
      vertex 23.45 53.25 2
      vertex 23.45 53.25 -2
    endloop
  endfacet
  facet normal -0.560167 0.828379 0
    outer loop
      vertex 21.885 52.14 2
      vertex 22.827 52.777 2
      vertex 21.885 52.14 -2
    endloop
  endfacet
  facet normal -0.560167 0.828379 0
    outer loop
      vertex 21.885 52.14 -2
      vertex 22.827 52.777 2
      vertex 22.827 52.777 -2
    endloop
  endfacet
  facet normal -0.539216 0.842168 0
    outer loop
      vertex 20.559 51.291 2
      vertex 21.885 52.14 2
      vertex 20.559 51.291 -2
    endloop
  endfacet
  facet normal -0.539216 0.842168 0
    outer loop
      vertex 20.559 51.291 -2
      vertex 21.885 52.14 2
      vertex 21.885 52.14 -2
    endloop
  endfacet
  facet normal -0.529397 0.848374 0
    outer loop
      vertex 18.785 50.184 2
      vertex 20.559 51.291 2
      vertex 18.785 50.184 -2
    endloop
  endfacet
  facet normal -0.529397 0.848374 0
    outer loop
      vertex 18.785 50.184 -2
      vertex 20.559 51.291 2
      vertex 20.559 51.291 -2
    endloop
  endfacet
  facet normal -0.525636 0.85071 0
    outer loop
      vertex 16.503 48.774 2
      vertex 18.785 50.184 2
      vertex 16.503 48.774 -2
    endloop
  endfacet
  facet normal -0.525636 0.85071 0
    outer loop
      vertex 16.503 48.774 -2
      vertex 18.785 50.184 2
      vertex 18.785 50.184 -2
    endloop
  endfacet
  facet normal -0.525769 0.850627 0
    outer loop
      vertex 12.502 46.301 2
      vertex 16.503 48.774 2
      vertex 12.502 46.301 -2
    endloop
  endfacet
  facet normal -0.525769 0.850627 0
    outer loop
      vertex 12.502 46.301 -2
      vertex 16.503 48.774 2
      vertex 16.503 48.774 -2
    endloop
  endfacet
  facet normal -0.550482 0.834847 0
    outer loop
      vertex 9.528 44.34 2
      vertex 12.502 46.301 2
      vertex 9.528 44.34 -2
    endloop
  endfacet
  facet normal -0.550482 0.834847 0
    outer loop
      vertex 9.528 44.34 -2
      vertex 12.502 46.301 2
      vertex 12.502 46.301 -2
    endloop
  endfacet
  facet normal -0.589765 0.807575 0
    outer loop
      vertex 7.029 42.515 2
      vertex 9.528 44.34 2
      vertex 7.029 42.515 -2
    endloop
  endfacet
  facet normal -0.589765 0.807575 0
    outer loop
      vertex 7.029 42.515 -2
      vertex 9.528 44.34 2
      vertex 9.528 44.34 -2
    endloop
  endfacet
  facet normal -0.625693 0.780069 0
    outer loop
      vertex 4.457 40.452 2
      vertex 7.029 42.515 2
      vertex 4.457 40.452 -2
    endloop
  endfacet
  facet normal -0.625693 0.780069 0
    outer loop
      vertex 4.457 40.452 -2
      vertex 7.029 42.515 2
      vertex 7.029 42.515 -2
    endloop
  endfacet
  facet normal -0.643908 0.765103 0
    outer loop
      vertex 0 36.701 2
      vertex 4.457 40.452 2
      vertex 0 36.701 -2
    endloop
  endfacet
  facet normal -0.643908 0.765103 0
    outer loop
      vertex 0 36.701 -2
      vertex 4.457 40.452 2
      vertex 4.457 40.452 -2
    endloop
  endfacet
endsolid OpenSCAD_Model
