solid OpenSCAD_Model
  facet normal -1 0 0
    outer loop
      vertex -27.1534 59.8376 0
      vertex -27.1534 69.8376 17.6
      vertex -27.1534 69.8376 0
    endloop
  endfacet
  facet normal -1 -0 0
    outer loop
      vertex -27.1534 69.8376 17.6
      vertex -27.1534 59.8376 0
      vertex -27.1534 59.8376 17.6
    endloop
  endfacet
  facet normal -0 0 1
    outer loop
      vertex -27.1534 69.8376 17.6
      vertex -16.6534 59.8376 17.6
      vertex -16.6534 69.8376 17.6
    endloop
  endfacet
  facet normal 0 0 1
    outer loop
      vertex -16.6534 59.8376 17.6
      vertex -27.1534 69.8376 17.6
      vertex -27.1534 59.8376 17.6
    endloop
  endfacet
  facet normal 1 -0 0
    outer loop
      vertex -16.6534 59.8376 17.6
      vertex -16.6534 69.8376 0
      vertex -16.6534 69.8376 17.6
    endloop
  endfacet
  facet normal 1 0 0
    outer loop
      vertex -16.6534 69.8376 0
      vertex -16.6534 59.8376 17.6
      vertex -16.6534 59.8376 0
    endloop
  endfacet
  facet normal 0 1 0
    outer loop
      vertex -16.6534 69.8376 17.6
      vertex -18.6534 69.8376 15.6
      vertex -27.1534 69.8376 17.6
    endloop
  endfacet
  facet normal 0 1 0
    outer loop
      vertex -16.6534 69.8376 17.6
      vertex -18.6534 69.8376 2
      vertex -18.6534 69.8376 15.6
    endloop
  endfacet
  facet normal 0 1 0
    outer loop
      vertex -18.6534 69.8376 2
      vertex -16.6534 69.8376 0
      vertex -25.1534 69.8376 2
    endloop
  endfacet
  facet normal 0 1 -0
    outer loop
      vertex -16.6534 69.8376 0
      vertex -18.6534 69.8376 2
      vertex -16.6534 69.8376 17.6
    endloop
  endfacet
  facet normal 0 1 -0
    outer loop
      vertex -25.1534 69.8376 15.6
      vertex -27.1534 69.8376 17.6
      vertex -18.6534 69.8376 15.6
    endloop
  endfacet
  facet normal 0 1 -0
    outer loop
      vertex -25.1534 69.8376 2
      vertex -27.1534 69.8376 17.6
      vertex -25.1534 69.8376 15.6
    endloop
  endfacet
  facet normal 0 1 0
    outer loop
      vertex -25.1534 69.8376 2
      vertex -27.1534 69.8376 0
      vertex -27.1534 69.8376 17.6
    endloop
  endfacet
  facet normal 0 1 0
    outer loop
      vertex -27.1534 69.8376 0
      vertex -25.1534 69.8376 2
      vertex -16.6534 69.8376 0
    endloop
  endfacet
  facet normal 0 0 -1
    outer loop
      vertex -27.1534 59.8376 0
      vertex -16.6534 69.8376 0
      vertex -16.6534 59.8376 0
    endloop
  endfacet
  facet normal -0 0 -1
    outer loop
      vertex -16.6534 69.8376 0
      vertex -27.1534 59.8376 0
      vertex -27.1534 69.8376 0
    endloop
  endfacet
  facet normal 0 -1 0
    outer loop
      vertex -27.1534 59.8376 17.6
      vertex -25.1534 59.8376 15.6
      vertex -16.6534 59.8376 17.6
    endloop
  endfacet
  facet normal 0 -1 0
    outer loop
      vertex -27.1534 59.8376 17.6
      vertex -25.1534 59.8376 2
      vertex -25.1534 59.8376 15.6
    endloop
  endfacet
  facet normal 0 -1 -0
    outer loop
      vertex -25.1534 59.8376 2
      vertex -27.1534 59.8376 0
      vertex -18.6534 59.8376 2
    endloop
  endfacet
  facet normal 0 -1 0
    outer loop
      vertex -27.1534 59.8376 0
      vertex -25.1534 59.8376 2
      vertex -27.1534 59.8376 17.6
    endloop
  endfacet
  facet normal 0 -1 0
    outer loop
      vertex -18.6534 59.8376 15.6
      vertex -16.6534 59.8376 17.6
      vertex -25.1534 59.8376 15.6
    endloop
  endfacet
  facet normal 0 -1 0
    outer loop
      vertex -18.6534 59.8376 2
      vertex -16.6534 59.8376 17.6
      vertex -18.6534 59.8376 15.6
    endloop
  endfacet
  facet normal 0 -1 0
    outer loop
      vertex -18.6534 59.8376 2
      vertex -16.6534 59.8376 0
      vertex -16.6534 59.8376 17.6
    endloop
  endfacet
  facet normal 0 -1 0
    outer loop
      vertex -16.6534 59.8376 0
      vertex -18.6534 59.8376 2
      vertex -27.1534 59.8376 0
    endloop
  endfacet
  facet normal 1 -0 0
    outer loop
      vertex -25.1534 59.8376 15.6
      vertex -25.1534 69.8376 2
      vertex -25.1534 69.8376 15.6
    endloop
  endfacet
  facet normal 1 0 0
    outer loop
      vertex -25.1534 69.8376 2
      vertex -25.1534 59.8376 15.6
      vertex -25.1534 59.8376 2
    endloop
  endfacet
  facet normal 0 0 -1
    outer loop
      vertex -25.1534 59.8376 15.6
      vertex -18.6534 69.8376 15.6
      vertex -18.6534 59.8376 15.6
    endloop
  endfacet
  facet normal -0 0 -1
    outer loop
      vertex -18.6534 69.8376 15.6
      vertex -25.1534 59.8376 15.6
      vertex -25.1534 69.8376 15.6
    endloop
  endfacet
  facet normal -1 0 0
    outer loop
      vertex -18.6534 59.8376 2
      vertex -18.6534 69.8376 15.6
      vertex -18.6534 69.8376 2
    endloop
  endfacet
  facet normal -1 -0 0
    outer loop
      vertex -18.6534 69.8376 15.6
      vertex -18.6534 59.8376 2
      vertex -18.6534 59.8376 15.6
    endloop
  endfacet
  facet normal -0 0 1
    outer loop
      vertex -25.1534 69.8376 2
      vertex -18.6534 59.8376 2
      vertex -18.6534 69.8376 2
    endloop
  endfacet
  facet normal 0 0 1
    outer loop
      vertex -18.6534 59.8376 2
      vertex -25.1534 69.8376 2
      vertex -25.1534 59.8376 2
    endloop
  endfacet
endsolid OpenSCAD_Model
