solid OpenSCAD_Model
  facet normal -0.207912 0 0.978148
    outer loop
      vertex -35.654 58.231 2.46397
      vertex -35.1326 56.231 2.57481
      vertex -35.1326 58.231 2.57481
    endloop
  endfacet
  facet normal -0.207912 0 0.978148
    outer loop
      vertex -35.1326 56.231 2.57481
      vertex -35.654 58.231 2.46397
      vertex -35.654 56.231 2.46397
    endloop
  endfacet
  facet normal 0.587787 0 0.809016
    outer loop
      vertex -37.6268 58.231 3.10498
      vertex -37.1955 56.231 2.79163
      vertex -37.1955 58.231 2.79163
    endloop
  endfacet
  facet normal 0.587787 0 0.809016
    outer loop
      vertex -37.1955 56.231 2.79163
      vertex -37.6268 58.231 3.10498
      vertex -37.6268 56.231 3.10498
    endloop
  endfacet
  facet normal -0.866025 0 0.500001
    outer loop
      vertex -33.8576 56.231 3.50115
      vertex -33.591 58.231 3.96282
      vertex -33.8576 58.231 3.50115
    endloop
  endfacet
  facet normal -0.866025 0 0.500001
    outer loop
      vertex -33.591 58.231 3.96282
      vertex -33.8576 56.231 3.50115
      vertex -33.591 56.231 3.96282
    endloop
  endfacet
  facet normal 0.406736 0 0.913546
    outer loop
      vertex -37.1955 58.231 2.79163
      vertex -36.7085 56.231 2.57481
      vertex -36.7085 58.231 2.57481
    endloop
  endfacet
  facet normal 0.406736 0 0.913546
    outer loop
      vertex -36.7085 56.231 2.57481
      vertex -37.1955 58.231 2.79163
      vertex -37.1955 56.231 2.79163
    endloop
  endfacet
  facet normal -0 0 1
    outer loop
      vertex -36.1871 58.231 2.46397
      vertex -35.654 56.231 2.46397
      vertex -35.654 58.231 2.46397
    endloop
  endfacet
  facet normal 0 0 1
    outer loop
      vertex -35.654 56.231 2.46397
      vertex -36.1871 58.231 2.46397
      vertex -36.1871 56.231 2.46397
    endloop
  endfacet
  facet normal 0.743143 -0 0.669133
    outer loop
      vertex -37.9835 56.231 3.50115
      vertex -37.6268 58.231 3.10498
      vertex -37.9835 58.231 3.50115
    endloop
  endfacet
  facet normal 0.743143 0 0.669133
    outer loop
      vertex -37.6268 58.231 3.10498
      vertex -37.9835 56.231 3.50115
      vertex -37.6268 56.231 3.10498
    endloop
  endfacet
  facet normal -0.406736 0 0.913546
    outer loop
      vertex -35.1326 58.231 2.57481
      vertex -34.6455 56.231 2.79163
      vertex -34.6455 58.231 2.79163
    endloop
  endfacet
  facet normal -0.406736 0 0.913546
    outer loop
      vertex -34.6455 56.231 2.79163
      vertex -35.1326 58.231 2.57481
      vertex -35.1326 56.231 2.57481
    endloop
  endfacet
  facet normal -0.587787 0 0.809016
    outer loop
      vertex -34.6455 58.231 2.79163
      vertex -34.2143 56.231 3.10498
      vertex -34.2143 58.231 3.10498
    endloop
  endfacet
  facet normal -0.587787 0 0.809016
    outer loop
      vertex -34.2143 56.231 3.10498
      vertex -34.6455 58.231 2.79163
      vertex -34.6455 56.231 2.79163
    endloop
  endfacet
  facet normal -0.743146 0 0.669129
    outer loop
      vertex -34.2143 56.231 3.10498
      vertex -33.8576 58.231 3.50115
      vertex -34.2143 58.231 3.10498
    endloop
  endfacet
  facet normal -0.743146 0 0.669129
    outer loop
      vertex -33.8576 58.231 3.50115
      vertex -34.2143 56.231 3.10498
      vertex -33.8576 56.231 3.50115
    endloop
  endfacet
  facet normal -0.951049 0 0.309039
    outer loop
      vertex -33.591 56.231 3.96282
      vertex -33.5789 58.231 4
      vertex -33.591 58.231 3.96282
    endloop
  endfacet
  facet normal -0.951049 0 0.309039
    outer loop
      vertex -33.5789 58.231 4
      vertex -33.591 56.231 3.96282
      vertex -33.5789 56.231 4
    endloop
  endfacet
  facet normal 0.207912 0 0.978148
    outer loop
      vertex -36.7085 58.231 2.57481
      vertex -36.1871 56.231 2.46397
      vertex -36.1871 58.231 2.46397
    endloop
  endfacet
  facet normal 0.207912 0 0.978148
    outer loop
      vertex -36.1871 56.231 2.46397
      vertex -36.7085 58.231 2.57481
      vertex -36.7085 56.231 2.57481
    endloop
  endfacet
  facet normal 0.951049 -0 0.309039
    outer loop
      vertex -38.2622 56.231 4
      vertex -38.2501 58.231 3.96282
      vertex -38.2622 58.231 4
    endloop
  endfacet
  facet normal 0.951049 0 0.309039
    outer loop
      vertex -38.2501 58.231 3.96282
      vertex -38.2622 56.231 4
      vertex -38.2501 56.231 3.96282
    endloop
  endfacet
  facet normal 0.866028 -0 0.499996
    outer loop
      vertex -38.2501 56.231 3.96282
      vertex -37.9835 58.231 3.50115
      vertex -38.2501 58.231 3.96282
    endloop
  endfacet
  facet normal 0.866028 0 0.499996
    outer loop
      vertex -37.9835 58.231 3.50115
      vertex -38.2501 56.231 3.96282
      vertex -37.9835 56.231 3.50115
    endloop
  endfacet
  facet normal 1 -0 0
    outer loop
      vertex -39.0205 46.231 4
      vertex -39.0205 56.231 2
      vertex -39.0205 56.231 4
    endloop
  endfacet
  facet normal 1 0 0
    outer loop
      vertex -39.0205 56.231 2
      vertex -39.0205 46.231 4
      vertex -39.0205 46.231 2
    endloop
  endfacet
  facet normal -1 0 0
    outer loop
      vertex -32.8205 46.231 2
      vertex -32.8205 56.231 4
      vertex -32.8205 56.231 2
    endloop
  endfacet
  facet normal -1 -0 0
    outer loop
      vertex -32.8205 56.231 4
      vertex -32.8205 46.231 2
      vertex -32.8205 46.231 4
    endloop
  endfacet
  facet normal 0 -1 0
    outer loop
      vertex -39.0205 56.231 4
      vertex -38.2501 56.231 3.96282
      vertex -38.2622 56.231 4
    endloop
  endfacet
  facet normal 0 -1 0
    outer loop
      vertex -39.0205 56.231 4
      vertex -37.9835 56.231 3.50115
      vertex -38.2501 56.231 3.96282
    endloop
  endfacet
  facet normal 0 -1 0
    outer loop
      vertex -39.0205 56.231 2
      vertex -37.9835 56.231 3.50115
      vertex -39.0205 56.231 4
    endloop
  endfacet
  facet normal 0 -1 -0
    outer loop
      vertex -37.9835 56.231 3.50115
      vertex -39.0205 56.231 2
      vertex -37.6268 56.231 3.10498
    endloop
  endfacet
  facet normal 0 -1 -0
    outer loop
      vertex -36.1871 56.231 2.46397
      vertex -39.0205 56.231 2
      vertex -35.654 56.231 2.46397
    endloop
  endfacet
  facet normal 0 -1 -0
    outer loop
      vertex -36.7085 56.231 2.57481
      vertex -39.0205 56.231 2
      vertex -36.1871 56.231 2.46397
    endloop
  endfacet
  facet normal 0 -1 -0
    outer loop
      vertex -37.1955 56.231 2.79163
      vertex -39.0205 56.231 2
      vertex -36.7085 56.231 2.57481
    endloop
  endfacet
  facet normal 0 -1 -0
    outer loop
      vertex -37.6268 56.231 3.10498
      vertex -39.0205 56.231 2
      vertex -37.1955 56.231 2.79163
    endloop
  endfacet
  facet normal 0 -1 0
    outer loop
      vertex -33.591 56.231 3.96282
      vertex -32.8205 56.231 4
      vertex -33.5789 56.231 4
    endloop
  endfacet
  facet normal 0 -1 0
    outer loop
      vertex -33.8576 56.231 3.50115
      vertex -32.8205 56.231 4
      vertex -33.591 56.231 3.96282
    endloop
  endfacet
  facet normal 0 -1 0
    outer loop
      vertex -32.8205 56.231 2
      vertex -33.8576 56.231 3.50115
      vertex -34.2143 56.231 3.10498
    endloop
  endfacet
  facet normal 0 -1 0
    outer loop
      vertex -32.8205 56.231 2
      vertex -34.2143 56.231 3.10498
      vertex -34.6455 56.231 2.79163
    endloop
  endfacet
  facet normal 0 -1 0
    outer loop
      vertex -33.8576 56.231 3.50115
      vertex -32.8205 56.231 2
      vertex -32.8205 56.231 4
    endloop
  endfacet
  facet normal 0 -1 0
    outer loop
      vertex -35.1326 56.231 2.57481
      vertex -32.8205 56.231 2
      vertex -34.6455 56.231 2.79163
    endloop
  endfacet
  facet normal 0 -1 0
    outer loop
      vertex -35.654 56.231 2.46397
      vertex -32.8205 56.231 2
      vertex -35.1326 56.231 2.57481
    endloop
  endfacet
  facet normal 0 -1 0
    outer loop
      vertex -32.8205 56.231 2
      vertex -35.654 56.231 2.46397
      vertex -39.0205 56.231 2
    endloop
  endfacet
  facet normal -0 0 1
    outer loop
      vertex -39.0205 56.231 2
      vertex -32.8205 46.231 2
      vertex -32.8205 56.231 2
    endloop
  endfacet
  facet normal 0 0 1
    outer loop
      vertex -32.8205 46.231 2
      vertex -39.0205 56.231 2
      vertex -39.0205 46.231 2
    endloop
  endfacet
  facet normal 0 -1 0
    outer loop
      vertex -41.0205 46.231 4
      vertex -39.0205 46.231 2
      vertex -39.0205 46.231 4
    endloop
  endfacet
  facet normal 0 -1 -0
    outer loop
      vertex -39.0205 46.231 2
      vertex -41.0205 46.231 0
      vertex -32.8205 46.231 2
    endloop
  endfacet
  facet normal 0 -1 0
    outer loop
      vertex -41.0205 46.231 0
      vertex -39.0205 46.231 2
      vertex -41.0205 46.231 4
    endloop
  endfacet
  facet normal 0 -1 0
    outer loop
      vertex -32.8205 46.231 2
      vertex -30.8205 46.231 4
      vertex -32.8205 46.231 4
    endloop
  endfacet
  facet normal 0 -1 0
    outer loop
      vertex -32.8205 46.231 2
      vertex -30.8205 46.231 0
      vertex -30.8205 46.231 4
    endloop
  endfacet
  facet normal 0 -1 0
    outer loop
      vertex -30.8205 46.231 0
      vertex -32.8205 46.231 2
      vertex -41.0205 46.231 0
    endloop
  endfacet
  facet normal -1 0 0
    outer loop
      vertex -41.0205 46.231 0
      vertex -41.0205 58.231 4
      vertex -41.0205 58.231 0
    endloop
  endfacet
  facet normal -1 -0 0
    outer loop
      vertex -41.0205 58.231 4
      vertex -41.0205 46.231 0
      vertex -41.0205 46.231 4
    endloop
  endfacet
  facet normal 0 0 1
    outer loop
      vertex -30.8205 58.231 4
      vertex -32.8205 56.231 4
      vertex -30.8205 46.231 4
    endloop
  endfacet
  facet normal -0 0 1
    outer loop
      vertex -33.5789 58.231 4
      vertex -32.8205 56.231 4
      vertex -30.8205 58.231 4
    endloop
  endfacet
  facet normal 0 0 1
    outer loop
      vertex -32.8205 56.231 4
      vertex -33.5789 58.231 4
      vertex -33.5789 56.231 4
    endloop
  endfacet
  facet normal 0 0 1
    outer loop
      vertex -30.8205 46.231 4
      vertex -32.8205 56.231 4
      vertex -32.8205 46.231 4
    endloop
  endfacet
  facet normal 0 0 1
    outer loop
      vertex -38.2622 58.231 4
      vertex -39.0205 56.231 4
      vertex -38.2622 56.231 4
    endloop
  endfacet
  facet normal -0 0 1
    outer loop
      vertex -41.0205 58.231 4
      vertex -39.0205 56.231 4
      vertex -38.2622 58.231 4
    endloop
  endfacet
  facet normal 0 0 1
    outer loop
      vertex -41.0205 46.231 4
      vertex -39.0205 56.231 4
      vertex -41.0205 58.231 4
    endloop
  endfacet
  facet normal 0 0 1
    outer loop
      vertex -39.0205 56.231 4
      vertex -41.0205 46.231 4
      vertex -39.0205 46.231 4
    endloop
  endfacet
  facet normal 1 -0 0
    outer loop
      vertex -30.8205 46.231 4
      vertex -30.8205 58.231 0
      vertex -30.8205 58.231 4
    endloop
  endfacet
  facet normal 1 0 0
    outer loop
      vertex -30.8205 58.231 0
      vertex -30.8205 46.231 4
      vertex -30.8205 46.231 0
    endloop
  endfacet
  facet normal 0 1 0
    outer loop
      vertex -30.8205 58.231 4
      vertex -33.591 58.231 3.96282
      vertex -33.5789 58.231 4
    endloop
  endfacet
  facet normal 0 1 0
    outer loop
      vertex -30.8205 58.231 4
      vertex -33.8576 58.231 3.50115
      vertex -33.591 58.231 3.96282
    endloop
  endfacet
  facet normal 0 1 -0
    outer loop
      vertex -30.8205 58.231 0
      vertex -33.8576 58.231 3.50115
      vertex -30.8205 58.231 4
    endloop
  endfacet
  facet normal 0 1 0
    outer loop
      vertex -33.8576 58.231 3.50115
      vertex -30.8205 58.231 0
      vertex -34.2143 58.231 3.10498
    endloop
  endfacet
  facet normal 0 1 0
    outer loop
      vertex -34.2143 58.231 3.10498
      vertex -30.8205 58.231 0
      vertex -34.6455 58.231 2.79163
    endloop
  endfacet
  facet normal 0 1 0
    outer loop
      vertex -35.654 58.231 2.46397
      vertex -30.8205 58.231 0
      vertex -36.1871 58.231 2.46397
    endloop
  endfacet
  facet normal 0 1 0
    outer loop
      vertex -35.1326 58.231 2.57481
      vertex -30.8205 58.231 0
      vertex -35.654 58.231 2.46397
    endloop
  endfacet
  facet normal 0 1 0
    outer loop
      vertex -34.6455 58.231 2.79163
      vertex -30.8205 58.231 0
      vertex -35.1326 58.231 2.57481
    endloop
  endfacet
  facet normal 0 1 0
    outer loop
      vertex -38.2501 58.231 3.96282
      vertex -41.0205 58.231 4
      vertex -38.2622 58.231 4
    endloop
  endfacet
  facet normal 0 1 0
    outer loop
      vertex -37.9835 58.231 3.50115
      vertex -41.0205 58.231 4
      vertex -38.2501 58.231 3.96282
    endloop
  endfacet
  facet normal 0 1 0
    outer loop
      vertex -41.0205 58.231 0
      vertex -37.9835 58.231 3.50115
      vertex -37.6268 58.231 3.10498
    endloop
  endfacet
  facet normal 0 1 0
    outer loop
      vertex -41.0205 58.231 0
      vertex -37.6268 58.231 3.10498
      vertex -37.1955 58.231 2.79163
    endloop
  endfacet
  facet normal 0 1 0
    outer loop
      vertex -41.0205 58.231 0
      vertex -37.1955 58.231 2.79163
      vertex -36.7085 58.231 2.57481
    endloop
  endfacet
  facet normal 0 1 0
    outer loop
      vertex -41.0205 58.231 0
      vertex -36.1871 58.231 2.46397
      vertex -30.8205 58.231 0
    endloop
  endfacet
  facet normal 0 1 0
    outer loop
      vertex -36.1871 58.231 2.46397
      vertex -41.0205 58.231 0
      vertex -36.7085 58.231 2.57481
    endloop
  endfacet
  facet normal 0 1 0
    outer loop
      vertex -37.9835 58.231 3.50115
      vertex -41.0205 58.231 0
      vertex -41.0205 58.231 4
    endloop
  endfacet
  facet normal 0 0 -1
    outer loop
      vertex -41.0205 46.231 0
      vertex -30.8205 58.231 0
      vertex -30.8205 46.231 0
    endloop
  endfacet
  facet normal -0 0 -1
    outer loop
      vertex -30.8205 58.231 0
      vertex -41.0205 46.231 0
      vertex -41.0205 58.231 0
    endloop
  endfacet
endsolid OpenSCAD_Model
